<svg xmlns="http://www.w3.org/2000/svg" viewBox="0 0 30.74 551.68"><defs><style>.cls-1{fill:#c8c9ca;}</style></defs><g id="圖層_2" data-name="圖層 2"><g id="飄移"><path class="cls-1" d="M.75,0h.5a7,7,0,0,0,.37,2.05,3.69,3.69,0,0,0,.91,1.38,3.53,3.53,0,0,0,1.78.94,16.74,16.74,0,0,0,3.34.24H23.84a16.81,16.81,0,0,0,3.34-.24A3.53,3.53,0,0,0,29,3.43,3.56,3.56,0,0,0,29.88,2a7.1,7.1,0,0,0,.35-2h.51V14.44c0,1.46,0,2.42,0,2.87a9.58,9.58,0,0,1-1.19,4.16,6.19,6.19,0,0,1-2.31,2.21,6.57,6.57,0,0,1-3.21.78,6.56,6.56,0,0,1-4.72-1.78,6.09,6.09,0,0,1-1.13-1.45,16.3,16.3,0,0,1-1-2.36,20.35,20.35,0,0,1-.77,3.28,7.73,7.73,0,0,1-1.16,2.11,7.79,7.79,0,0,1-2.85,2.18,8.74,8.74,0,0,1-3.68.78A8.25,8.25,0,0,1,5,26.42a6.79,6.79,0,0,1-2.67-2.23A8,8,0,0,1,1.1,21.1a27.18,27.18,0,0,1-.35-5ZM16.33,9.43H7.27a12,12,0,0,0-2.66.23,4.32,4.32,0,0,0-1.71.76q-1.47,1.11-1.47,3.84a7.82,7.82,0,0,0,1.93,5.59,6.91,6.91,0,0,0,5.28,2.06,9.77,9.77,0,0,0,3.54-.64,6,6,0,0,0,2.52-1.71c1.08-1.32,1.63-3.39,1.63-6.2Zm13.73,0H17v1.78a21.23,21.23,0,0,0,.17,2.59,11.72,11.72,0,0,0,.42,1.88,5,5,0,0,0,.66,1.3,5.49,5.49,0,0,0,2.14,1.73,6.86,6.86,0,0,0,2.89.6,8.38,8.38,0,0,0,3.18-.62A5.85,5.85,0,0,0,28.81,17a5,5,0,0,0,1-2.06,16.55,16.55,0,0,0,.27-3.5Z"/><path class="cls-1" d="M30.74,60.2l-7.25.37,0-.5a9.37,9.37,0,0,0,3.05-1,6.64,6.64,0,0,0,3.22-4.35A17.67,17.67,0,0,0,30.06,51V46H16.88v1.32a12.55,12.55,0,0,0,.26,3A3.3,3.3,0,0,0,18.08,52a4.07,4.07,0,0,0,1.51.91,12.76,12.76,0,0,0,2.56.5l0,.5L10.35,53.8v-.5a12.22,12.22,0,0,0,2.72-.58,5.1,5.1,0,0,0,1.76-1.07,3.87,3.87,0,0,0,1-1.71,9.19,9.19,0,0,0,.33-2.68V46h-5c-2,0-3.47.06-4.38.16a7.27,7.27,0,0,0-2.3.59A4.8,4.8,0,0,0,2.16,49a9.34,9.34,0,0,0-.73,4,12.48,12.48,0,0,0,.67,4.41,6.53,6.53,0,0,0,2.07,2.9,8,8,0,0,0,2.16,1.29,19.17,19.17,0,0,0,3.18.91l0,.51L.75,62.79V36.58h.5a7.38,7.38,0,0,0,.35,2A3.66,3.66,0,0,0,2.53,40a3.75,3.75,0,0,0,1.79.93,15.87,15.87,0,0,0,3.33.25H23.84a16,16,0,0,0,3.33-.25A3.79,3.79,0,0,0,29,40a3.6,3.6,0,0,0,.92-1.38,7,7,0,0,0,.35-2.05h.51Z"/><path class="cls-1" d="M.75,101.5V87.07h.5a6.68,6.68,0,0,0,.66,2.72,2.66,2.66,0,0,0,2.37,1.36,6.88,6.88,0,0,0,2.42-.61l.92-.38,5.19-2.11V78.39l-3-1.15-1.37-.55a11,11,0,0,0-3.8-1,3.26,3.26,0,0,0-1.51.36,3.1,3.1,0,0,0-1.14,1,4.44,4.44,0,0,0-.71,2.19H.75V69.4h.5a4.68,4.68,0,0,0,.57,2,5.9,5.9,0,0,0,1.63,1.72,12.35,12.35,0,0,0,2.32,1.37q1.41.68,4.25,1.77l20.72,8v1.25L7.65,95.15a35.34,35.34,0,0,0-3.74,1.72,5.38,5.38,0,0,0-1.69,1.38,3.71,3.71,0,0,0-.6,1.21,11.52,11.52,0,0,0-.37,2Zm13-13.8,11.38-4.61L13.71,78.74Z"/><path class="cls-1" d="M30.74,122.15h-.51a7,7,0,0,0-.35-2,3.56,3.56,0,0,0-.92-1.39,3.65,3.65,0,0,0-1.85-1,20.46,20.46,0,0,0-3.78-.23H10.9a28.57,28.57,0,0,0-4.39.23A6.82,6.82,0,0,0,4,118.7a6.52,6.52,0,0,0-2.52,2.6,8.83,8.83,0,0,0-.77,3.9,13.79,13.79,0,0,0,.69,4.37A9.87,9.87,0,0,0,3.34,133,5,5,0,0,0,5,134.29a7.34,7.34,0,0,0,2.28.54c.61.06,2,.09,4.27.09H23.84a15.77,15.77,0,0,0,3.34-.26,3.67,3.67,0,0,0,2.7-2.33,7,7,0,0,0,.35-2h.51v10.13h-.51a7,7,0,0,0-.35-2A3.75,3.75,0,0,0,29,137a3.79,3.79,0,0,0-1.79-.93,16,16,0,0,0-3.33-.25H10a15.66,15.66,0,0,1-4.54-.48,5.9,5.9,0,0,1-2.67-1.87Q0,130.26,0,124.3c0-4.14.87-7.2,2.61-9.16A6.91,6.91,0,0,1,7,112.85a32.59,32.59,0,0,1,3.49-.13H23.84a16.81,16.81,0,0,0,3.34-.24,3.53,3.53,0,0,0,1.78-.94,3.6,3.6,0,0,0,.92-1.38,7,7,0,0,0,.35-2h.51Z"/><path class="cls-1" d="M30.06,160.46c0-.92,0-1.91-.09-3a16.25,16.25,0,0,0-.86-5.05,5.86,5.86,0,0,0-2.35-2.73,12,12,0,0,0-4.17-1.52l0-.5,8.11.39v29.73l-8.11.4,0-.51a10.52,10.52,0,0,0,4.62-1.85,7,7,0,0,0,2.26-3.68,28.32,28.32,0,0,0,.59-6.93H7.65a15.72,15.72,0,0,0-3.33.26,3.7,3.7,0,0,0-2.72,2.33,7.31,7.31,0,0,0-.35,2H.75v-14h.5a7.4,7.4,0,0,0,.35,2,3.66,3.66,0,0,0,.93,1.4,3.76,3.76,0,0,0,1.78.93,15.85,15.85,0,0,0,3.34.25Z"/><path class="cls-1" d="M30.74,199.83h-.51a7,7,0,0,0-.35-2,3.75,3.75,0,0,0-.92-1.4,4.13,4.13,0,0,0-2.44-1.05,23.68,23.68,0,0,0-2.68-.13H7.65a19.43,19.43,0,0,0-2.88.17,4.58,4.58,0,0,0-1.69.58,3.49,3.49,0,0,0-1.31,1.47,6.47,6.47,0,0,0-.52,2.39H.75v-14h.5a7,7,0,0,0,.37,2.06,3.66,3.66,0,0,0,.91,1.37,3.53,3.53,0,0,0,1.78.94,15.85,15.85,0,0,0,3.34.25H23.84a15.92,15.92,0,0,0,3.34-.25,3.53,3.53,0,0,0,1.78-.94,3.6,3.6,0,0,0,.92-1.38,7.17,7.17,0,0,0,.35-2.05h.51Z"/><path class="cls-1" d="M16.41,217.71H7.65a16.46,16.46,0,0,0-3.31.24,3.71,3.71,0,0,0-1.79.93,3.41,3.41,0,0,0-.93,1.39,7.25,7.25,0,0,0-.37,2.06H.75v-14h.5a6,6,0,0,0,.34,2,3.66,3.66,0,0,0,.91,1.47,4.13,4.13,0,0,0,1.87.88,16.32,16.32,0,0,0,3.28.26H23.84c.94,0,1.91-.05,2.92-.15a3.61,3.61,0,0,0,2.88-1.89,6,6,0,0,0,.59-2.57h.51v23l-7.14.63-.11-.5a15.4,15.4,0,0,0,2.5-1,7.34,7.34,0,0,0,3-2.9,7.56,7.56,0,0,0,.86-2.49,24.06,24.06,0,0,0,.24-3.86v-3.41h-13v.88c0,2.59.58,4.48,1.74,5.65a4.91,4.91,0,0,0,1.77,1.16,9.51,9.51,0,0,0,2.67.53l0,.51L9.93,226.3v-.52a11.14,11.14,0,0,0,3.46-.83,4.67,4.67,0,0,0,2-1.77,6.45,6.45,0,0,0,.8-2.16A17.63,17.63,0,0,0,16.41,217.71Z"/><path class="cls-1" d="M30.74,252.82h-.51a7.17,7.17,0,0,0-.35-2,3.6,3.6,0,0,0-.92-1.38,3.74,3.74,0,0,0-1.85-1,21.41,21.41,0,0,0-3.78-.23H10.9a29.94,29.94,0,0,0-4.39.23,7,7,0,0,0-2.49.94A6.52,6.52,0,0,0,1.5,252a8.8,8.8,0,0,0-.77,3.9,13.68,13.68,0,0,0,.69,4.36,9.7,9.7,0,0,0,1.92,3.46A4.92,4.92,0,0,0,5,265a7.34,7.34,0,0,0,2.28.54c.61.06,2,.08,4.27.08H23.84a15.92,15.92,0,0,0,3.34-.25,3.67,3.67,0,0,0,2.7-2.33,7,7,0,0,0,.35-2h.51V271.1h-.51a7,7,0,0,0-.35-2,3.75,3.75,0,0,0-.92-1.4,3.79,3.79,0,0,0-1.79-.93,16,16,0,0,0-3.33-.25H10A15.66,15.66,0,0,1,5.44,266a5.85,5.85,0,0,1-2.67-1.88C.92,262,0,258.94,0,255c0-4.14.87-7.2,2.61-9.16A6.86,6.86,0,0,1,7,243.52a32.59,32.59,0,0,1,3.49-.13H23.84a16.81,16.81,0,0,0,3.34-.24,3.73,3.73,0,0,0,2.7-2.32,7,7,0,0,0,.35-2.05h.51Z"/><path class="cls-1" d="M.75,279.27h.52a4.5,4.5,0,0,0,1.26,3.42,3.67,3.67,0,0,0,1.79.94,15.87,15.87,0,0,0,3.33.25H23.84a15.91,15.91,0,0,0,3.44-.27,3.72,3.72,0,0,0,1.81-1,4,4,0,0,0,.84-1.38,6.64,6.64,0,0,0,.3-1.94h.51v14h-.51a7.56,7.56,0,0,0-.32-2,3.7,3.7,0,0,0-.84-1.36,3.6,3.6,0,0,0-1.82-1,15.65,15.65,0,0,0-3.41-.27H11.16a41.82,41.82,0,0,0-4.35.16,7.12,7.12,0,0,0-2.33.59,4.91,4.91,0,0,0-2.32,2.29,9.29,9.29,0,0,0-.73,4,12.28,12.28,0,0,0,.69,4.4,6.74,6.74,0,0,0,2.14,2.93,8.92,8.92,0,0,0,2.24,1.27,20.75,20.75,0,0,0,3.3.91l0,.53-9-.29Z"/><path class="cls-1" d="M30.74,344.6h-.51a7,7,0,0,0-.35-2,3.75,3.75,0,0,0-.92-1.4,4.13,4.13,0,0,0-2.44-1.05,23.68,23.68,0,0,0-2.68-.13H7.65a19.43,19.43,0,0,0-2.88.17,4.77,4.77,0,0,0-1.69.57,3.46,3.46,0,0,0-1.31,1.48,6.43,6.43,0,0,0-.52,2.39H.75v-14h.5a6.91,6.91,0,0,0,.37,2.05A3.62,3.62,0,0,0,2.53,334a3.53,3.53,0,0,0,1.78.94,16.57,16.57,0,0,0,3.34.25H23.84a16.64,16.64,0,0,0,3.34-.25A3.53,3.53,0,0,0,29,334a3.56,3.56,0,0,0,.92-1.39,7,7,0,0,0,.35-2h.51Z"/><path class="cls-1" d="M26.76,358.57H7.65a15.85,15.85,0,0,0-3.34.25,3.69,3.69,0,0,0-1.78.94,3.62,3.62,0,0,0-.93,1.39,7.38,7.38,0,0,0-.35,2H.75V353.05h.5a7.39,7.39,0,0,0,.35,2,3.62,3.62,0,0,0,.93,1.39,3.67,3.67,0,0,0,1.79.94,16.59,16.59,0,0,0,3.33.25H23.86a16.57,16.57,0,0,0,3.31-.25,3.72,3.72,0,0,0,1.79-.94,3.5,3.5,0,0,0,.92-1.37,7.12,7.12,0,0,0,.35-2.06h.51v8.46L8,379.36H23.84a15.77,15.77,0,0,0,3.34-.26,3.67,3.67,0,0,0,1.78-.93,3.75,3.75,0,0,0,.92-1.4,7,7,0,0,0,.35-2h.51v10.13h-.51A4.55,4.55,0,0,0,29,381.44a3.79,3.79,0,0,0-1.79-.93,15.85,15.85,0,0,0-3.31-.25H.75v-1Z"/><path class="cls-1" d="M30.23,448.84a6.84,6.84,0,0,0-.34-2,3.68,3.68,0,0,0-.91-1.39,3.21,3.21,0,0,0-1-.73,5,5,0,0,0-1.42-.33,21,21,0,0,0-2.7-.15H7.65a16.23,16.23,0,0,0-3.37.26,3.5,3.5,0,0,0-1.75.95,5.1,5.1,0,0,0-1.28,3.4H.75v-14h.5a7,7,0,0,0,.37,2.06,3.81,3.81,0,0,0,.91,1.39,3.67,3.67,0,0,0,1.79.94,15.87,15.87,0,0,0,3.33.25H27.29L.75,428.12v-.46l26.14-11.25H7.65a15.7,15.7,0,0,0-3.34.26,3.67,3.67,0,0,0-1.78.93A3.62,3.62,0,0,0,1.6,419a7.39,7.39,0,0,0-.35,2H.75V410.9h.5a7.38,7.38,0,0,0,.35,2,3.62,3.62,0,0,0,.93,1.39,3.67,3.67,0,0,0,1.79.94,15.87,15.87,0,0,0,3.33.25H23.84c.67,0,1.31,0,1.91-.06a6.36,6.36,0,0,0,2.37-.51,3.58,3.58,0,0,0,1.53-1.5,6.22,6.22,0,0,0,.58-2.54h.51v9.53L7.25,430l23.49,9.86v9Z"/><path class="cls-1" d="M30.74,471.36h-.51a7,7,0,0,0-.35-2,3.75,3.75,0,0,0-.92-1.4,4.13,4.13,0,0,0-2.44-1.05,23.68,23.68,0,0,0-2.68-.13H7.65a18.15,18.15,0,0,0-2.88.17,4.77,4.77,0,0,0-1.69.57A3.46,3.46,0,0,0,1.77,469a6.38,6.38,0,0,0-.52,2.39H.75v-14h.5a7,7,0,0,0,.37,2.05,3.69,3.69,0,0,0,.91,1.38,3.53,3.53,0,0,0,1.78.94,16.74,16.74,0,0,0,3.34.24H23.84a16.81,16.81,0,0,0,3.34-.24,3.53,3.53,0,0,0,1.78-.94,3.56,3.56,0,0,0,.92-1.39,7.1,7.1,0,0,0,.35-2h.51Z"/><path class="cls-1" d="M26.76,485.33H7.65a15.85,15.85,0,0,0-3.34.25,3.69,3.69,0,0,0-1.78.94,3.62,3.62,0,0,0-.93,1.39,7.38,7.38,0,0,0-.35,2H.75V479.81h.5a7.39,7.39,0,0,0,.35,2,3.62,3.62,0,0,0,.93,1.39,3.76,3.76,0,0,0,1.79.94,16.59,16.59,0,0,0,3.33.25H23.86a16.57,16.57,0,0,0,3.31-.25,3.81,3.81,0,0,0,1.79-.94,3.5,3.5,0,0,0,.92-1.37,7.12,7.12,0,0,0,.35-2.06h.51v8.46L8,506.11H23.84a15.92,15.92,0,0,0,3.34-.25,3.67,3.67,0,0,0,2.7-2.33,7,7,0,0,0,.35-2h.51v10.13h-.51A4.54,4.54,0,0,0,29,508.2a3.79,3.79,0,0,0-1.79-.93,15.85,15.85,0,0,0-3.31-.25H.75v-1Z"/><path class="cls-1" d="M1.25,520.1a7.33,7.33,0,0,0,.35,2,3.77,3.77,0,0,0,2.72,2.32,15.87,15.87,0,0,0,3.33.25H23.84a15,15,0,0,0,3.54-.3,3.5,3.5,0,0,0,1.84-1.15,5.26,5.26,0,0,0,1-3.17h.51v12.09c0,2.68,0,4.39-.09,5.12A15.29,15.29,0,0,1,28,545.18a14.74,14.74,0,0,1-5.7,4.79,17.36,17.36,0,0,1-7.68,1.71,16.64,16.64,0,0,1-5.72-1A12.23,12.23,0,0,1,4.44,548a11.19,11.19,0,0,1-3.19-6.09,30.1,30.1,0,0,1-.5-5.56V520.1Zm28.81,9.43H8.22a16.81,16.81,0,0,0-3.28.24,4.4,4.4,0,0,0-1.91.9c-1.14.94-1.71,2.47-1.71,4.57a11,11,0,0,0,.89,4.63,9.12,9.12,0,0,0,2.89,3.44,14.07,14.07,0,0,0,4.43,2.27,17.65,17.65,0,0,0,5.3.78,18.46,18.46,0,0,0,5.93-.94,15.18,15.18,0,0,0,4.93-2.7,11.58,11.58,0,0,0,3.86-5.83,18.06,18.06,0,0,0,.51-4.7Z"/></g></g></svg>