<svg xmlns="http://www.w3.org/2000/svg" viewBox="0 0 243.51 210.89"><defs><style>.cls-1{fill:#422520;}.cls-2{fill:#fff;}</style></defs><g id="圖層_2" data-name="圖層 2"><g id="字_圖" data-name="字+圖"><polygon class="cls-1" points="182.63 0 60.88 0 0 105.44 60.88 210.89 182.63 210.89 243.51 105.44 182.63 0"/><path class="cls-2" d="M192.23,95.76a16.25,16.25,0,0,0-10.42,9.68c0-.24,0-.35,0-.45V96.2c0-.25,0-.45.35-.45Z"/><path class="cls-2" d="M178.54,103.55a8.19,8.19,0,0,0-4-5.15,9.42,9.42,0,0,0-4.45-.91c-5.4,0-10.8,0-16.19,0-.34,0-.43.1-.42.43,0,1.67,0,3.34,0,5,0,.41.11.5.51.5h13.36a11.47,11.47,0,0,1,2.61.29,2.85,2.85,0,0,1,2.25,2.28,14.89,14.89,0,0,1,.25,1.88c0,.34-.07.44-.41.44-1.52,0-3,0-4.55,0-2.38,0-4.76-.06-7.13.18a6.47,6.47,0,0,0-5.56,3.57,10.11,10.11,0,0,0-.29,9.12,6.24,6.24,0,0,0,4.42,3.63,15.2,15.2,0,0,0,3.43.3c2.71,0,5.43,0,8.14,0h8.34c.39,0,.54-.06.53-.51,0-5.27,0-10.54,0-15.82A17.14,17.14,0,0,0,178.54,103.55Zm-6.13,15.22c0,.3-.08.4-.4.4h-7.84a6.11,6.11,0,0,1-1.75-.24,2.25,2.25,0,0,1-1.7-2.86,2.13,2.13,0,0,1,2.39-1.85h4.4c1.49,0,3,0,4.45,0,.31,0,.45,0,.45.41C172.39,116,172.39,117.38,172.41,118.77Z"/><path class="cls-2" d="M96.86,109.08a18.79,18.79,0,0,0-.61-5,8.09,8.09,0,0,0-8.64-6.58c-5.4,0-10.79,0-16.19,0-.35,0-.46.08-.45.44q0,2.49,0,5c0,.41.09.52.52.52,4.45,0,8.91,0,13.36,0a10.46,10.46,0,0,1,2.61.3,2.72,2.72,0,0,1,2.06,1.68A8,8,0,0,1,90,108c0,.31-.18.28-.38.28H86.94c-3,0-6.06-.12-9.09.18a6.45,6.45,0,0,0-5.24,3,10.2,10.2,0,0,0-.85,9,6.34,6.34,0,0,0,4.66,4.21,14.57,14.57,0,0,0,3.42.31c5.51,0,11,0,16.52,0,.46,0,.51-.16.51-.55,0-2.8,0-5.61,0-8.41C96.86,113.79,96.87,111.43,96.86,109.08ZM90,118.76c0,.3-.06.42-.39.41H81.71a6.06,6.06,0,0,1-1.79-.26,2.25,2.25,0,0,1-1.66-2.77,2.13,2.13,0,0,1,2.33-1.92h4.46c1.5,0,3,0,4.49,0,.32,0,.42.09.41.41C89.93,116,89.94,117.38,90,118.76Z"/><path class="cls-2" d="M144.69,108.91a12.42,12.42,0,0,0-3.26-.43c-1.9,0-3.8,0-5.7,0a3.05,3.05,0,0,1-2.08-.56,3,3,0,0,1-.64-3.46,1.62,1.62,0,0,1,1.05-.84,6.18,6.18,0,0,1,1.42-.16q6.92,0,13.84,0c.39,0,.52-.08.51-.49,0-1.62,0-3.25,0-4.87,0-.45-.08-.59-.56-.59-2.7,0-5.4,0-8.68,0-2.45.08-5.48-.11-8.51.09a6.27,6.27,0,0,0-5.62,3.76,10.18,10.18,0,0,0-.32,7.81,6.66,6.66,0,0,0,5.06,4.66,15.77,15.77,0,0,0,3.42.36c2,0,4-.06,6,.06,1.49.08,2.28.64,2.56,1.85a4.62,4.62,0,0,1,.05,1,1.9,1.9,0,0,1-1.85,2,21.91,21.91,0,0,1-2.29.08q-6.3,0-12.6,0c-.45,0-.55.14-.54.56,0,1.62,0,3.25,0,4.87,0,.44.11.52.53.52H140.3a32.9,32.9,0,0,0,3.58-.2,5.7,5.7,0,0,0,4.44-2.71,10.64,10.64,0,0,0,1.6-7.16A6.78,6.78,0,0,0,144.69,108.91Z"/><path class="cls-2" d="M108.21,114.2c2.27,0,4.53,0,6.8,0s4.6,0,6.89,0c.34,0,.44-.1.43-.43,0-1.69,0-3.38,0-5.07,0-.4-.14-.46-.49-.46h-13.7c-.35,0-.45-.1-.38-.43a16.42,16.42,0,0,1,.37-1.72,3.41,3.41,0,0,1,2.83-2.53,10.69,10.69,0,0,1,2-.2h8.86c.23,0,.47.07.46-.33,0-1.75,0-3.5,0-5.26,0-.23,0-.34-.31-.34-3.89.06-7.79-.15-11.68.12a9.63,9.63,0,0,0-5.15,1.71,11.93,11.93,0,0,0-4.23,6,18.77,18.77,0,0,0-.42,10.08,12.28,12.28,0,0,0,3.92,6.94,11.83,11.83,0,0,0,7.93,2.72c3.17.06,6.35,0,9.53,0,.35,0,.41-.12.41-.43,0-1.69,0-3.38,0-5.07,0-.37-.11-.44-.46-.44h-8a13,13,0,0,1-2.24-.2,4.11,4.11,0,0,1-3.66-3.45l-.15-.79C107.69,114.36,107.76,114.19,108.21,114.2Z"/><path class="cls-2" d="M55.73,103.8a8.89,8.89,0,0,1,2.45-.39c2.86,0,5.71,0,8.57,0,.39,0,.47-.11.47-.48,0-1.66,0-3.31,0-5,0-.41-.12-.5-.51-.49-3,0-6,0-8.95,0a27,27,0,0,0-3.91.29,9.76,9.76,0,0,0-8.12,6.35,16.87,16.87,0,0,0-1.16,5.24,18.24,18.24,0,0,0,1.14,8.53c1.84,4.38,5,7,9.9,7.16,2,.08,4,0,5.57.06,2.11,0,3.85,0,5.59,0,.35,0,.46-.08.45-.45q0-2.5,0-5c0-.38-.09-.49-.47-.48-2.27,0-4.54,0-6.8,0a17.69,17.69,0,0,1-2.72-.2A5.89,5.89,0,0,1,52,114.53a12.39,12.39,0,0,1,.17-7.38A4.94,4.94,0,0,1,55.73,103.8Z"/><path class="cls-2" d="M202.4,97.67c0-.23-.05-.35-.31-.34a44.08,44.08,0,0,0-6.4.22,13.69,13.69,0,0,0-9.1,5.56,20.26,20.26,0,0,0-3.45,10.52c-.16,2-.06,4-.09,5.74,0,2,0,3.6,0,5.24,0,.41.12.5.51.49,1.91,0,3.83,0,5.74,0,.67,0,.66,0,.67-.64,0-3.36-.11-6.72.09-10.08a13.89,13.89,0,0,1,1.51-5.82,8.07,8.07,0,0,1,6.84-4.61c1.21-.09,2.42,0,3.63,0,.25,0,.38,0,.38-.33C202.39,101.65,202.4,99.66,202.4,97.67Z"/></g></g></svg>