<svg xmlns="http://www.w3.org/2000/svg" viewBox="0 0 243.51 210.89"><defs><style>.cls-1{fill:#422520;}.cls-2{fill:#fff;}</style></defs><g id="圖層_2" data-name="圖層 2"><g id="字_圖" data-name="字+圖"><polygon class="cls-1" points="182.63 0 60.88 0 0 105.44 60.88 210.89 182.63 210.89 243.51 105.44 182.63 0"/><path class="cls-2" d="M81.88,101.18c1.37-.47,5.16-1.74,5.16-8.12s-4.21-8.73-11.63-8.73H64.89a.69.69,0,0,0-.69.66h0V112.3a.69.69,0,0,0,.68.67h5.19a.67.67,0,0,0,.68-.66h0V101.79h4L82,112.17a1.82,1.82,0,0,0,1.54.81h5.52a.53.53,0,0,0,.52-.54.62.62,0,0,0-.09-.27Zm-7.22-3.94H70.75V88.88h3.91c3.18,0,5.82.54,5.82,4.18S77.84,97.24,74.66,97.24Z"/><path class="cls-2" d="M94.91,82.88a3.39,3.39,0,1,1-3.39,3.39A3.39,3.39,0,0,1,94.91,82.88Z"/><rect class="cls-2" x="91.64" y="91.16" width="6.53" height="21.8" rx="0.68"/><path class="cls-2" d="M115.32,90.63c-4.85,0-6.27,2-7.11,2.86V91.86a.68.68,0,0,0-.68-.69h-5.06a.68.68,0,0,0-.68.69v20.41a.7.7,0,0,0,.68.7h5.16a.68.68,0,0,0,.67-.7h0V100.73c0-3,1.8-5.16,4.8-5.16,3.21,0,4.78,2.26,4.78,5.16v11.54a.7.7,0,0,0,.68.7h5.16a.7.7,0,0,0,.68-.7V99.13C124.43,92.75,120,90.63,115.32,90.63Z"/><path class="cls-2" d="M141.5,90.63c-4.85,0-6.26,2-7.1,2.86V91.86a.68.68,0,0,0-.68-.69h-5.07a.68.68,0,0,0-.67.69v20.41a.69.69,0,0,0,.67.7h5.16a.7.7,0,0,0,.68-.7h0V100.73c0-3,1.79-5.16,4.79-5.16,3.21,0,4.78,2.26,4.78,5.16v11.54a.7.7,0,0,0,.68.7h5.16a.7.7,0,0,0,.68-.7V99.13C150.61,92.75,146.16,90.63,141.5,90.63Z"/><path class="cls-2" d="M160.68,91.24A9.36,9.36,0,0,0,154,96.86a.49.49,0,0,0,.26.64.53.53,0,0,0,.25,0l5.82,0a.71.71,0,0,0,.57-.23,5.33,5.33,0,0,1,4.76-1.79c4.2.24,3.87,3.65,3.87,3.93-14.11-1.29-17.63,5-15.85,9.63,2.05,5.31,12.38,5.94,15.74,2.23.43,1.17.51,1.7,1.44,1.7h4.37a.7.7,0,0,0,.7-.7V99.4C176,90.09,165.52,89.9,160.68,91.24Zm8.84,13.11c0,3.15-2,5-5.48,5.12-2.58.07-4.73-1-4.78-2.71-.13-3.82,7.82-3.67,9.61-3.55.62,0,.65,0,.65.36Z"/><path class="cls-2" d="M179.31,86a3.39,3.39,0,1,1,3.09,3.66A3.38,3.38,0,0,1,179.31,86Z"/><rect class="cls-2" x="179.43" y="91.16" width="6.53" height="21.8" rx="0.68"/></g></g></svg>