<svg xmlns="http://www.w3.org/2000/svg" viewBox="0 0 243.51 210.89"><defs><style>.cls-1{fill:#9a6525;}.cls-2{fill:#fff;}</style></defs><g id="圖層_2" data-name="圖層 2"><g id="字_圖" data-name="字+圖"><polygon class="cls-1" points="182.64 0 60.88 0 0 105.44 60.88 210.89 182.64 210.89 243.51 105.44 182.64 0"/><path class="cls-2" d="M100.89,102.48a2.55,2.55,0,0,1-2,.84,2.48,2.48,0,0,1-1.83-.72c-.69-.69-.74-1.33-.74-3s0-2.32.74-3a2.48,2.48,0,0,1,1.83-.72,2.52,2.52,0,0,1,2.57,2.19h-.78a1.76,1.76,0,0,0-1.79-1.49,1.72,1.72,0,0,0-1.27.51c-.46.48-.51,1-.51,2.52s0,2,.51,2.52a1.72,1.72,0,0,0,1.27.51,1.78,1.78,0,0,0,1.4-.63,2,2,0,0,0,.41-1.33v-.56H98.93v-.67h2.59v1.16A2.47,2.47,0,0,1,100.89,102.48Z"/><path class="cls-2" d="M107.57,103.26,105.9,100h-1.77v3.26h-.78V95.92h2.81a2,2,0,0,1,2.18,2,1.91,1.91,0,0,1-1.6,2l1.74,3.33Zm-1.48-6.64h-2v2.69h2a1.35,1.35,0,1,0,0-2.69Z"/><path class="cls-2" d="M110.11,103.26V95.92h4.56v.7H110.9v2.59h3.22v.7H110.9v2.65h3.77v.7Z"/><path class="cls-2" d="M116.3,103.26V95.92h4.56v.7h-3.77v2.59h3.22v.7h-3.22v2.65h3.77v.7Z"/><path class="cls-2" d="M127.18,103.26l-3.9-5.89v5.89h-.79V95.92h.75l3.9,5.87V95.92h.78v7.34Z"/><path class="cls-2" d="M136.93,102.49a2.94,2.94,0,0,1-4,.06c-.73-.73-.74-1.56-.74-3s0-2.23.74-3a2.83,2.83,0,0,1,4.73,1.58h-1.45a1.24,1.24,0,0,0-1.32-1.07,1.21,1.21,0,0,0-.92.39c-.26.31-.35.66-.35,2.06s.09,1.76.35,2.07a1.21,1.21,0,0,0,.92.39,1.31,1.31,0,0,0,1-.42,1.41,1.41,0,0,0,.33-1v-.27h-1.35v-1.2h2.78v1.07A2.86,2.86,0,0,1,136.93,102.49Z"/><path class="cls-2" d="M141.8,100.25v3h-1.42v-3l-2.21-4.33h1.56l1.37,3,1.35-3H144Z"/><path class="cls-2" d="M147.75,100.5h-1.42v2.76H144.9V95.92h2.85a2.29,2.29,0,1,1,0,4.58Zm-.08-3.3h-1.34v2h1.34a1,1,0,1,0,0-2Z"/><path class="cls-2" d="M153.4,103.32a3.44,3.44,0,0,1-2.68-1l.92-.93a2.44,2.44,0,0,0,1.77.62c.85,0,1.31-.33,1.31-.92a.8.8,0,0,0-.23-.61,1,1,0,0,0-.66-.25l-.88-.13a2.46,2.46,0,0,1-1.42-.61,1.94,1.94,0,0,1-.52-1.45,2.25,2.25,0,0,1,2.55-2.22,3.16,3.16,0,0,1,2.38.85l-.91.9a2.06,2.06,0,0,0-1.51-.51c-.76,0-1.12.43-1.12.93a.71.71,0,0,0,.2.53,1.23,1.23,0,0,0,.67.28l.88.13a2.3,2.3,0,0,1,1.4.58,2,2,0,0,1,.57,1.55C156.12,102.52,155,103.32,153.4,103.32Z"/><path class="cls-2" d="M160.06,103.32a2.55,2.55,0,0,1-2.7-2.57V95.92h1.43v4.77a1.28,1.28,0,1,0,2.55,0V95.92h1.42v4.83A2.55,2.55,0,0,1,160.06,103.32Z"/><path class="cls-2" d="M169.58,103.26V99l-1.4,2.79h-1L165.8,99v4.28h-1.44V95.92h1.42l1.92,4,1.9-4H171v7.34Z"/><path class="cls-2" d="M178.36,103.26H175.5V95.92h2.77a1.93,1.93,0,0,1,2.16,2,1.69,1.69,0,0,1-1.08,1.61,1.78,1.78,0,0,1,1.2,1.74A2,2,0,0,1,178.36,103.26Zm-.15-6.64h-1.92v2.55h1.92c.81,0,1.44-.4,1.44-1.28S179,96.62,178.21,96.62Zm.08,3.25h-2v2.69h2a1.35,1.35,0,1,0,0-2.69Z"/><path class="cls-2" d="M182.4,103.26V95.92h.78v6.64h3.75v.7Z"/><path class="cls-2" d="M192,102.6a2.69,2.69,0,0,1-3.66,0c-.69-.69-.74-1.33-.74-3s0-2.32.74-3a2.69,2.69,0,0,1,3.66,0c.69.69.74,1.33.74,3S192.7,101.91,192,102.6Zm-.56-5.53a1.84,1.84,0,0,0-2.54,0c-.46.48-.51,1-.51,2.52s0,2,.51,2.52a1.84,1.84,0,0,0,2.54,0c.47-.48.52-1,.52-2.52S191.92,97.55,191.45,97.07Z"/><path class="cls-2" d="M196.78,103.32a2.48,2.48,0,0,1-1.83-.72c-.69-.69-.73-1.33-.73-3s0-2.32.73-3A2.61,2.61,0,0,1,199.33,98h-.8a1.79,1.79,0,0,0-3-1c-.47.48-.52,1-.52,2.52s.05,2,.52,2.52a1.73,1.73,0,0,0,1.26.51,1.75,1.75,0,0,0,1.77-1.48h.78A2.48,2.48,0,0,1,196.78,103.32Z"/><path class="cls-2" d="M205.64,103.26l-2.24-3.91-1.55,1.86v2.05h-.78V95.92h.78v4.22l3.42-4.22h1l-2.31,2.83,2.64,4.51Z"/><path class="cls-2" d="M92.52,88.59a13.1,13.1,0,0,0-.24-1.37s-.08-.09-.12-.14a1.5,1.5,0,0,0-.11.13c0,.05,0,.11-.06.16-.31.71-.58,1.44-.93,2.13a13.73,13.73,0,0,1-2.21,2.94,8.33,8.33,0,0,1-4.57,2.63,12.14,12.14,0,0,1-1.35.17c-.06,0-.19-.06-.19-.1a.32.32,0,0,1,.1-.21c0-.05.1-.07.15-.1a8,8,0,0,0,2.78-2.94c.1-.17.12-.33,0-.45s-.29,0-.41.08a6.11,6.11,0,0,1-1.69,1.2,2.21,2.21,0,0,1-1.47.23,1.81,1.81,0,0,1-1.38-.86,13.1,13.1,0,0,1-1.38-4.82,10.44,10.44,0,0,0-2.31-5.72,7.92,7.92,0,0,0-2.33-2.1,10.62,10.62,0,0,0-6.58-1.25,8.19,8.19,0,0,0-2.83.79,41,41,0,0,0-6.48,4.2,9.4,9.4,0,0,1-1.07.84,12.05,12.05,0,0,1-3.61,1.36c-.7.14-1.42.23-2.1.34a9.55,9.55,0,0,1,7,4.19A5.86,5.86,0,0,1,60.29,93,3.86,3.86,0,0,1,60,95a.76.76,0,0,0,.11.85c.08.11.19.23.27.35a7.41,7.41,0,0,1,.43,7.81c-.13.27-.1.34.2.34H76.39c.09,0,.18-.08.27-.13-.07-.07-.12-.17-.21-.21A8.49,8.49,0,0,1,74,102.27a4.14,4.14,0,0,1-1.15-1.69,9.26,9.26,0,0,0-.79-1.65,10.19,10.19,0,0,0-1.74-2.29.38.38,0,0,1-.08-.23.24.24,0,0,1,.18-.08,3.06,3.06,0,0,1,2.1,1.06,13.12,13.12,0,0,0,5.27,3.93c.51.2,1,.42,1.5.67a4.24,4.24,0,0,0,3.22.3,1.3,1.3,0,0,0,.25-.18,1.34,1.34,0,0,0-.2-.21,1.13,1.13,0,0,1-.63-1.12.45.45,0,0,1,.34-.42c.2-.08.25.09.35.19.4.4.79.8,1.21,1.18.22.21.28.18.46-.06a5.45,5.45,0,0,0,1.19-3.08c0-.18.08-.25.25-.33a17.86,17.86,0,0,0,2-.93,10.38,10.38,0,0,0,3.22-3.11A8.31,8.31,0,0,0,92.52,88.59Z"/><path class="cls-2" d="M56.93,97.05a.58.58,0,0,1-.23-.89,2.22,2.22,0,0,0,.19-.27A5.77,5.77,0,0,0,55,88.12,10.6,10.6,0,0,0,40.7,91a7.56,7.56,0,0,0-1.45,5.39,2.89,2.89,0,0,1,0,1.24,7.28,7.28,0,0,1-.67,2,12.25,12.25,0,0,0-.83,1.61,10.72,10.72,0,0,0-.35,1.38s0,.11.07.12a.16.16,0,0,0,.12,0,.83.83,0,0,0,.09-.16,6.54,6.54,0,0,1,1.26-1.91,2,2,0,0,0,.17-.23,8.88,8.88,0,0,0,1-2.13c.1-.34.25-.67.38-1,0-.06.1-.1.14-.15a1.76,1.76,0,0,1,.09.2.54.54,0,0,1,0,.18c0,1.8,0,3.59,0,5.39a1.27,1.27,0,0,1-.39,1l-.14.14a.2.2,0,0,0,.12.34.81.81,0,0,0,.22,0H57.23a.65.65,0,0,0,.38-.13A4.22,4.22,0,0,0,56.93,97.05Zm-4.82,4.57a3.64,3.64,0,0,1-3.23,1.18h-.06c-.38-.09-.38-.09-.38-.47V98.2c0-1.39,0-2.79,0-4.18a.83.83,0,0,1,.13-.43,1.88,1.88,0,0,1,3.05,0,2.26,2.26,0,0,1-.19,2.56,1.73,1.73,0,0,1-.23.24,1.31,1.31,0,0,0,.26,2.14,2.14,2.14,0,0,1,1.15,1.93A1.54,1.54,0,0,1,52.11,101.62Z"/><path class="cls-2" d="M36.11,130V128a1.1,1.1,0,0,0,.45-.85l.27-3.26v-.12H38v.12l-.21,4.63a1.8,1.8,0,0,1-.1.33,1.94,1.94,0,0,1-.92,1.17l-.2.05Zm5.32-16.67H44l0,2.8a.26.26,0,0,1-.12.21l-1.38,2a7,7,0,0,0,1.52.08v2.94c0,1.28-1.16,1.42-2.18,1.4v7.62H38.44v-7.62H36.76v-3.25a.46.46,0,0,1,.11-.29c.15-.21,1.81-2.63,1.81-2.66a19.7,19.7,0,0,0-2.35,0v-3.23a.24.24,0,0,1,.12-.24l2.3-3.06A.46.46,0,0,1,39,110H43.5s.12,0,.12,0c-.26.31-2.28,3.23-2.28,3.3S41.41,113.35,41.43,113.35Zm.69,5.7s0-.1-.09-.08l-.62.84s0,0,0,0h.67Zm2.49,8,0,.64a1.16,1.16,0,0,0,.9-1l.57-2.11a.21.21,0,0,1,.22-.17h2.23c.07,0,.12,0,.12.09,0,.22-.76,3.59-.86,4a2.12,2.12,0,0,1-1.42,1.71c-.1,0-.41.12-.48.12H44.4v-.65h-.83a.77.77,0,0,1-.29-.14,2,2,0,0,1-.71-1.64l-.19-4.25v-.14h1.31v.14l.16,2.81A.81.81,0,0,0,44.61,127.05Zm4-3.37-1.48,0A2.45,2.45,0,0,1,45.21,122c-.22-.73-.41-1.47-.6-2.2,0-.12.08-.12.15-.12H47.2c.36,0,.29.42.33.66.08.41.72.74,1.1.81Zm1.68-13.49h6.91l0,2.25a.63.63,0,0,1-.1.31c-.14.31-1.66,3.61-1.68,3.68s.07,0,.12,0H57.6v2.42H53l0,9.64a3,3,0,0,1-.09.41,2.13,2.13,0,0,1-1.59,1.37,2.83,2.83,0,0,1-.48.08H48.39v-2.59h.69V118.9H44.76v-2.42h6.38a.42.42,0,0,0,.27-.12,4.47,4.47,0,0,0,.09-.45.08.08,0,0,0-.09-.09H44.78l0-2.54a.54.54,0,0,1,.1-.31l1.69-3.42a.28.28,0,0,1,.28-.17h3.44s.15,0,.15.05c0,.21-.27.45-.27.69C50.19,110.17,50.27,110.19,50.31,110.19Zm2.61,2.44s-.07,0-.11,0h-3.4c-.07,0-.24.07-.26.14l-.29.66c0,.12,0,.15,0,.15H52.4c.12,0,.17-.05.22-.17l.28-.64Zm.57,10.88,0-2.59c.55,0,.78-.74.9-1.19h2.85a.11.11,0,0,1,.12.1s-.71,2.16-.78,2.37a2.07,2.07,0,0,1-2,1.31Zm4.18,6.84H56.44a1.84,1.84,0,0,1-.52-.1,2.11,2.11,0,0,1-1.57-1.75c-.1-.43-.86-3.8-.88-4s.07-.12.14-.12h2.33c.1,0,.24,0,.26.16l.48,2.31a1.25,1.25,0,0,0,1,1Z"/><path class="cls-2" d="M68.26,112.61s.14,0,.17-.07c0-.52-.33-1.14-.33-1.66,0-.07.07-.07.11-.07h3c.09,0,.26,0,.29.11l.64,1.41a3.45,3.45,0,0,1,.33,1.44,3.75,3.75,0,0,1-.07.69,3.71,3.71,0,0,1-2.85,1H61.16v-2.49c0-.14.07-.17.12-.29L63,109.31a.37.37,0,0,1,.31-.14h4s.12,0,.12.07-1.68,3.23-1.68,3.35Zm4.09,16.17c-.79,1.45-2.76,1.69-4.21,1.69H67v-2.78l1.42,0c.5,0,.69-.71.64-1.11H65.25v4h-3.8V116.29H72.61v11.85A2.1,2.1,0,0,1,72.35,128.78Zm-3.4-10h-3.7V120H69Zm0,3.73h-3.7V124H69Zm9.9-11.31v-1.47h3.56v2.66a2.2,2.2,0,0,1-.23.74c-.69,1.35-2.69,1.52-4,1.52h-.83v.92c0,.45.47.55.83.55h4.32v3.23l-5.72,0a4.17,4.17,0,0,1-1.12-.19A3,3,0,0,1,73.53,116v-6.84h3.83v2.06Zm-.57,11.26a.82.82,0,0,0,.74-.88v-1.19h3.49v2.92c0,.07-.12.45-.14.55a2.74,2.74,0,0,1-2,1.71c-.12,0-.48.12-.6.12H77.4v1a1,1,0,0,0,.86.46h4.25v3.3l-6.58,0a2.51,2.51,0,0,1-.69-.26c-1.3-.69-1.56-2.38-1.56-3.73v-6.36H77.4v2.35Z"/><path class="cls-2" d="M94,119.45a3,3,0,0,1,.71,1.54l0,6a2.69,2.69,0,0,1-.72,1.21,2.74,2.74,0,0,1-1.61.5H89.87v2H86.12V109.57H92a5.54,5.54,0,0,1,1.71.52,3.07,3.07,0,0,1,.88,2l0,5.28a2.28,2.28,0,0,1-.59,1.25c-.1.12-.19.27-.29.41S94,119.4,94,119.45Zm-3.25-6.39h-.88v4.51h.88Zm0,7.86h-.88v4.58h.88Zm12.63-10h4v3.25H100v2.64H107V128c0,1.78-1.33,2.42-2.94,2.42h-2.45v-3.3l.71,0a1,1,0,0,0,.86-.67,1.25,1.25,0,0,0,.12-.31v-6.1H100v8.38a2.2,2.2,0,0,1-.74,1.47,3.21,3.21,0,0,1-1.75.5H95.33v-3.18c.47,0,.71-.73.71-1.09v-12H95V110.9h4.09v-1.78h4.25Z"/><path class="cls-2" d="M110.9,130.54l0-3a1.25,1.25,0,0,0,.83-1l.83-4.68a.23.23,0,0,1,.24-.17h2.87s.15,0,.15.1l-1,6.72a2.74,2.74,0,0,1-.16.45,2.8,2.8,0,0,1-2,1.45,5,5,0,0,1-.54.07Zm4.66-9.6-2,0a2.3,2.3,0,0,1-.43-.12,2.66,2.66,0,0,1-1.52-1.92c-.07-.29-.71-2.8-.71-2.94s.07-.1.14-.1h3c.66,0,.14,2.14,1.45,2.14Zm-1.9-5.81a2,2,0,0,1-.36-.1,2.5,2.5,0,0,1-1.52-1.71c-.26-1.16-.52-2.32-.8-3.46,0-.15.09-.15.14-.15l3,0c.07,0,.22,0,.24.14.14.64.26,1.28.38,1.93a1.1,1.1,0,0,0,1,.87v2.5Zm10.47,13.15H122v2.19h-3.66v-2.19h-2.47V125.5h2.47v-.66h-2v-11h2.07V113h-2.12V110.5h2.12v-1.24H122v1.24h2.09V113H122v.81h2.09l0,9.35a.93.93,0,0,1,0,.24,2,2,0,0,1-1,1.31,2.41,2.41,0,0,1-.43.14c-.21,0-.42,0-.64,0v.66h2.14v1.6h.81V109.55h7.52v18.38a2.34,2.34,0,0,1-.07.45,2.45,2.45,0,0,1-2.4,1.94h-1.42V127.1h1l0-2.19h-1.69c0,1,0,2,0,3.09,0,.07-.07.38-.07.47a2.44,2.44,0,0,1-1.76,1.85,2.23,2.23,0,0,1-.43.1c-.5,0-1,0-1.47,0Zm-3-11.68h-2v1.33h2Zm0,4.2h-2v1.4h2Zm8.43-7.88h-1.73v2.59h1.71Zm-1.73,6v2.8h1.71v-2.82Z"/><path class="cls-2" d="M157.16,116.41V128a1.47,1.47,0,0,1-.15.43,2.52,2.52,0,0,1-1.44,1.66c-.08,0-.36.12-.41.12H137.07v-8.69h-1.16v-3.21a2.89,2.89,0,0,0,2.11-1.18,1.35,1.35,0,0,0,.28-.36c.72-1.35,1.4-2.71,2.12-4.08a35.86,35.86,0,0,0-4.13-.1v-3h21v3H145.57c-.07,0-.29,0-.31.12l-1.66,3.49s-.07.07-.07.14Zm-4,3.37H141.51v7.15h11.68Z"/><path class="cls-2" d="M181.75,120.09v1a1.5,1.5,0,0,1-1.61,1.59H161.45v-2.59h-.78v-3.3h21.75v3.3ZM161,112.3v-2h8.35v-1h4.51v1h8.24v2Zm18.68,18.24-5.82,0v-1.16h3.21a.63.63,0,0,0,.57-.5h-12v1.66h-4.23v-7.24h20.28v5.2A2.08,2.08,0,0,1,179.71,130.54Zm.24-14.25-18.45,0V112.9h20.25v1.78A1.57,1.57,0,0,1,180,116.29Zm-1.45,2.33H164.8v.66h13.7Zm-1-4.39h-11.8v.59h11.8Zm-.09,6.53H165.68v.45h11.71Zm.28,4.27h-12v.74h12Zm0,2.07h-12v.71h12Z"/><path class="cls-2" d="M193.55,129.37a2.06,2.06,0,0,1-2,1.14h-5.1V119.78h-.84v-2.71c.88,0,2-3.49,2.19-4.1h-1.88v-3h7.7v3l-2,0a.27.27,0,0,0-.24.19c-.09.22-1.07,2.33-1.07,2.4s.1.07.15.07h3.34v13.25A2.18,2.18,0,0,1,193.55,129.37Zm-3-10.75h-.86v8.62h.86ZM206,126.69V129a1.61,1.61,0,0,1-.09.29,2,2,0,0,1-1.17,1.11l-.21.07-3.66,0a.72.72,0,0,1-.28-.07c-.14-.24-.26-.67-.57-.67h-2.76a1,1,0,0,1-.28-.14,4.46,4.46,0,0,1-1.66-2.07h3.63c.14,0,.26.07.21.22a.28.28,0,0,0,.24.14h1.78a1.3,1.3,0,0,0,.86.31h.19v-1.48h-7.58v-1.89h7.65v-1h-7.81v-2h4.39v-.74h-4.39v-7.67h4.22v-.78h-4.34v-2.42h4.34v-.88h3.94v.88h4.49c0,.73,0,1.47,0,2.21h-4.52v1H207v6.46a1.74,1.74,0,0,1-.73.83v.53h.83v2.13a3.37,3.37,0,0,0-1.12.6v.88h1.4v1.89Zm-7.29-11.21h-1v.88h1Zm0,2.54h-1v.84h1Zm5.11-2.54h-1v.88h1Zm0,2.54h-1v.84h1Zm.42,3h-1.35v.81h1.35Z"/></g></g></svg>