<svg xmlns="http://www.w3.org/2000/svg" viewBox="0 0 243.51 210.89"><defs><style>.cls-1{fill:#9a6525;}.cls-2{fill:#fff;}</style></defs><g id="圖層_2" data-name="圖層 2"><g id="字_圖" data-name="字+圖"><polygon class="cls-1" points="182.63 0 60.88 0 0 105.44 60.88 210.89 182.63 210.89 243.51 105.44 182.63 0"/><g id="layer1"><path id="path5840" class="cls-2" d="M81.5,121.69v-3.27H77.72c-.93,0-1.71-.43-1.71-1.53V98.3h2.06c3.7,0,5.42,2.85,5.42,6.49v.45h3.66V95H58.06v10.28h3.66v-.44c0-3.65,1.73-6.49,5.44-6.49h2.08v18.59c0,1.1-.82,1.53-1.75,1.53H63.7v3.27Zm33.65-25.26c-2.67-2.09-7.41-2.72-10.22-2.72s-7.51.63-10.21,2.72-5.34,5.78-5.34,11.77S92,117.87,94.72,120s7.43,2.74,10.21,2.74,7.54-.66,10.22-2.74,5.39-5.8,5.39-11.79-2.67-9.68-5.39-11.77m-4.27,20a7.69,7.69,0,0,1-11.89,0c-1.39-1.84-2-5.42-2-8.23s.66-6.38,2-8.21a7.68,7.68,0,0,1,11.89,0c1.39,1.83,2,5.43,2,8.21s-.65,6.39-2,8.23m35.57,5.26v-3.27h-3.79c-.93,0-1.71-.43-1.71-1.53V98.3H143c3.7,0,5.41,2.85,5.41,6.49v.45h3.67V95H123v10.28h3.67v-.44c0-3.65,1.71-6.49,5.44-6.49h2v18.59c0,1.1-.78,1.53-1.71,1.53h-3.79v3.27Zm33.69-25.26c-2.69-2.09-7.43-2.72-10.24-2.72s-7.56.63-10.27,2.72-5.32,5.78-5.32,11.77,2.66,9.67,5.32,11.79,7.45,2.74,10.27,2.74,7.55-.66,10.24-2.74,5.31-5.8,5.31-11.79-2.61-9.68-5.31-11.77m-4.29,20a7.73,7.73,0,0,1-11.92,0c-1.39-1.84-2-5.42-2-8.23s.64-6.38,2-8.21a7.71,7.71,0,0,1,11.92,0c1.4,1.83,2.06,5.43,2.06,8.21s-.66,6.39-2.06,8.23"/></g></g></g></svg>