<svg xmlns="http://www.w3.org/2000/svg" viewBox="0 0 18.83 18.06"><defs><style>.cls-1{fill:#fff;}</style></defs><g id="圖層_2" data-name="圖層 2"><g id="字2"><path class="cls-1" d="M6.42,6.41,7,5.72a2.9,2.9,0,0,0,.74-2.06,2.82,2.82,0,0,0-.94-2l-1-.95A2.81,2.81,0,0,0,3.88,0,2.85,2.85,0,0,0,1.76.94l-.62.69a1.73,1.73,0,0,0-.23.29l0,0a3.48,3.48,0,0,0-.8,3.21A16,16,0,0,0,14.32,18a4.1,4.1,0,0,0,2.46-.51,3.19,3.19,0,0,0,.7-.56l.62-.69a2.86,2.86,0,0,0-.21-4l-1-.95a2.86,2.86,0,0,0-4,.2l-.62.69a3,3,0,0,0-.59,1l0,.17-.17-.07A12,12,0,0,1,5,7.46l-.09-.18.19-.06A2.87,2.87,0,0,0,6.42,6.41Z"/></g></g></svg>