<svg xmlns="http://www.w3.org/2000/svg" viewBox="0 0 233.75 439.13"><defs><style>.cls-1{fill:#412520;}.cls-2{fill:#956425;}.cls-3{fill:#fff;}</style></defs><g id="圖層_2" data-name="圖層 2"><g id="字_圖" data-name="字+圖"><path class="cls-1" d="M162.17,37.72l-11.08-7.25c-.85-.63-2.55-1.7-3.62-1.7-1.92,0-7.46,6.82-8.1,7.67H127c-3.62-1.7-18.33-8.31-22-8.31-.64,0-1.06.21-1.06.85a5.72,5.72,0,0,0,1.06,3.2,19.2,19.2,0,0,1,.85,6c0,3.19.22,6.18.22,9.37V174.75c0,.61,0,1.24,0,1.86v24.53c5.47-1.09,10.78-2.11,15.78-4.28V149h0V102.85h0V43.91h19.83v91c0,6.18-.43,7.88-7,7.88a49,49,0,0,1-5.54-.21,44.94,44.94,0,0,0-4.9-.64,1.38,1.38,0,0,0-1.28,1.28c0,1.49,4.26,3.19,5.33,3.83,5.33,2.77,6.39,9.59,6.82,14.92,4.69,0,13.21-.64,17-3.62,3.83-3.2,6.39-6.82,6.39-11.94V47.74c1.28-1.07,6.18-4.48,6.18-6.82C164.73,39.64,163.24,38.36,162.17,37.72Z"/><path class="cls-1" d="M46.46,170.27V72.88C48.16,72,52,70.11,52,67.77c0-2.56-9.38-7-11.94-8.31C47.52,46,54.34,32.18,60.74,18.11c1.49-.42,6-1.27,6-3.62C66.7,10.23,47.1,0,43.05,0c-.86,0-.86.85-.86,1.49,0,17.69-20.67,65.43-28.76,82.05C11.72,87,0,108.47,0,109.32c0,.43.43,1.28,1.07,1.28,3.19,0,25.78-29.83,29-34.52,0,30.05.18,60.09-.15,90.14v32.25A64.19,64.19,0,0,0,46.59,195V176C46.51,174.09,46.46,172.16,46.46,170.27Z"/><path class="cls-1" d="M103.14,113.59c-.64,0-2.13,1.27-2.77,1.7-6.18,4.48-12.78,8.53-19.39,12.57V41.34a26.51,26.51,0,0,0,4.69-5.11C97,30.47,108,23.65,118.91,17.05c1.07,0,9-.85,9-2.35,0-1.7-1.06-2.55-2.34-3.41C123.6,9.59,107,1.07,105.7,1.07c-1.06,0-1.49,1.27-1.7,2.13-1.07,2.34-2.35,4.47-3.63,6.82-4.9,8.09-11.72,15.13-18.32,22a163.67,163.67,0,0,0-17.69-3.84,2.05,2.05,0,0,0-1.49,1.71,7.6,7.6,0,0,0,1.06,2.77C65.42,35.8,65.42,44.75,65.42,48v77.57c0,5.75-.64,9.38-5.54,12.79l12.58,20.45a214.63,214.63,0,0,1,19.6-28.13c1.07-1.27,12.36-14.27,12.36-16A1.19,1.19,0,0,0,103.14,113.59Z"/><path class="cls-1" d="M174.43,384.55c-9-8.31-15.35-16.62-22.17-26.43-11.5-17.05-20.88-33.45-26.63-53.27h42.19c.85,0,3,0,3-1.5a4.52,4.52,0,0,0-1.07-2.77C167.82,298.45,159.3,288,157,288c-1.49,0-10.23,8.1-11.5,9.16H119v-48.8c1.49-1.06,6.39-4.05,6.39-6.18,0-4.69-22.16-9.59-25.78-9.59-.43,0-1.28,0-1.28.64,0,1.92,1.92,4.9,2.34,7.25a53.83,53.83,0,0,1,.43,8.31v48.37h-32c-4.05,0-8.52-.64-12.78-.85l7.24,11.3,3.84-2.77H94.51a432.37,432.37,0,0,1-33.88,73.31c-3.41,5.75-6.61,11.72-10.44,17-.86,1.07-4.48,5.12-4.48,6.4,0,.64.85,1.28,1.49,1.28.86,0,4.48-3.41,5.33-4.27,23-18.75,35-35.59,48.59-61.16v69.9c0,.74,0,1.48,0,2.22v25.11a112.37,112.37,0,0,0,17.92-3.5V379.9h0v-75h2.56c2.34,20.88,7,42.19,15.55,61.58,4.69,10.23,10.45,20,16.2,29.63,5.75-2.77,14.28-5.12,20.67-5.12.85,0,5.54.43,5.54-.64C179.54,388.81,175.49,385.4,174.43,384.55Z"/><path class="cls-1" d="M54,300.16c1.49-5.33,3-10.87,4.26-16.2,1.07-4.26,1.92-8.52,3-12.79.42-1.91,1.7-4.9,1.7-6.81,0-.86-.42-1.07-1.28-1.07-.63,0-1.06,1.28-1.27,1.7-2.35,5.33-4.27,10.66-6.4,16L43.15,308.26c-3.83,9.59-16.4,46.88-22.16,52.63C18.22,363.66,14.6,363,11,363c-.42,0-2.77,0-2.77,1.07,0,1.7,2.14,1.92,3.63,2.56a14.1,14.1,0,0,1,5.32,4.05c3.41,4.05,4.27,8.73,4.27,13.85A88.22,88.22,0,0,1,21,395.2a54.45,54.45,0,0,0-.85,8.31c0,6,3.41,14.28,10.44,14.28,3,0,5.75-1.49,8.1-3.19,3.41-2.35,4.26-7,4.26-10.87,0-9.81-5.54-20.89-5.54-29.84,0-11.72,4.69-26.64,7.46-37.93C47.84,324,50.83,312.09,54,300.16Z"/><path class="cls-1" d="M21.42,317a7.84,7.84,0,0,0,5.75,1.92c6.18,0,9.59-5.11,9.59-10.87,0-10.87-8.74-15.77-18.11-18.54-1.28-.42-7.25-2.34-8.53-2.34-.42,0-1.49.21-1.49,1.06,0,.22,5.33,6.82,6,7.89C18.43,302.5,16.73,312.73,21.42,317Z"/><path class="cls-1" d="M28.88,272.45c1.49,3,4.9,4.05,8.09,4.05,5.76,0,9.81-5.54,9.81-10.87,0-11.5-10.45-17.26-20-20a44.14,44.14,0,0,0-8.53-1.92c-.64,0-.64.22-.85.64,0,1.28,5.54,4.91,7,10.23C25.89,260.31,26.11,266.91,28.88,272.45Z"/><path class="cls-2" d="M204.69,145.16c-2.34.06-3.08.35-3.3,1.12a5.94,5.94,0,0,0-.18,1.42c0,.14-.05.23-.17.23s-.22-.17-.22-.51c0-1.63.08-2.77.08-3s-.08-1.45-.08-2.73c0-.29,0-.46.22-.46s.17.09.17.23a3.91,3.91,0,0,0,.18,1.17c.19.71,1,.85,3.61.85l16.34,0c1.11,0,1.43.09,1.43.32s-.63.71-.92,1c-.48.43-5.07,4.68-9.78,9.07-3,2.82-6.5,5.93-7.44,6.84l14.49-.31c1.85,0,2.48-.23,2.71-1.11a8,8,0,0,0,.14-1.4c0-.2.08-.23.2-.23s.2.23.2.57c0,1.28-.09,2.65-.09,3s.09,1.25.09,2.42c0,.31,0,.51-.2.51s-.2-.11-.2-.31a2.47,2.47,0,0,0-.09-.69c-.2-.94-.83-1.05-2.53-1.05L202.64,162c-1.88,0-2-.06-2-.25s.32-.57,1.83-2.08c.28-.32,4.47-4.42,7.73-7.45,3.56-3.3,7.15-6.52,8.18-7.44Z"/><path class="cls-2" d="M218.66,183.71c.8.31.94.43.94.6s-.34.34-.88.6c-1,.45-11,4.47-14.71,6-2.17.91-2.48,1.6-2.65,2.14a3.3,3.3,0,0,0-.15,1c0,.15-.05.32-.19.32s-.2-.29-.2-.57,0-2.23.05-4c0-.49,0-.89.17-.89s.12.06.17.17a.46.46,0,0,0,.66.23l5.56-2.25a.2.2,0,0,0,.14-.23v-5.79a.25.25,0,0,0-.2-.25l-3.87-1.43a5.31,5.31,0,0,0-1.63-.37c-.48,0-.66.43-.66.86v.22c0,.21-.08.26-.19.26s-.2-.14-.2-.37c0-.6.08-2,.08-2.25s-.08-1.51-.08-2.54c0-.31.05-.48.2-.48a.21.21,0,0,1,.19.23,6.68,6.68,0,0,0,.06.74c.14,1.14,1,1.62,2.23,2.11Zm-10.09,2.79c0,.11.06.11.17.09l6.64-2.48c.37-.15.37-.29,0-.43l-6.64-2.34c-.11,0-.17,0-.17.09Z"/><path class="cls-2" d="M207.85,210.47c-2.33,0-4.24,0-5.24.11-.71.09-1.17.2-1.28,1a9.05,9.05,0,0,0-.12,1.14.17.17,0,0,1-.19.2c-.12,0-.2-.12-.2-.4,0-1.37.08-3,.08-3.11s-.08-1.85-.08-2.59c0-.29.05-.4.2-.4a.18.18,0,0,1,.17.2,3.15,3.15,0,0,0,.11.74c.11.51.6.66,1.31.74,1,.12,2.91.12,5.24.12H218l-.05-3.63c0-1.56-.2-2.16-.78-2.53a3.28,3.28,0,0,0-.76-.4c-.2-.06-.23-.14-.23-.26a.19.19,0,0,1,.2-.17c.25,0,2.42.51,2.62.54s.46.17.46.26a9.3,9.3,0,0,0-.29,1.11c-.08.71-.11,1.68-.11,2v9.46a13.81,13.81,0,0,0,.11,1.8c.06.37.11.6.11.71s-.14.12-.28.12c-.74,0-2.48-.09-2.76-.09s-.32-.11-.32-.23.09-.17.43-.2l.26,0c.74-.08,1.28-.62,1.34-3l.05-3.13Z"/><path class="cls-2" d="M212.13,230.24c3.76,0,4.45,0,5.22-.06s1.22-.19,1.34-1a7.74,7.74,0,0,0,.06-.86.25.25,0,0,1,.19-.2c.15,0,.21.12.21.4,0,1.14-.06,2.65-.06,2.88s.06,1.8.06,2.54c0,.29-.06.43-.21.43a.25.25,0,0,1-.19-.23,2.84,2.84,0,0,0-.06-.63c-.12-.65-.54-.8-1.34-.85s-1.46-.06-5.22-.06h-3.39c-3.51,0-5,.77-5.93,1.85a4.9,4.9,0,0,0-1.31,3.74,5.11,5.11,0,0,0,1.71,3.87c1.4,1.17,3.39,1.43,5.87,1.43h3c3.76,0,4.45,0,5.22-.06s1.22-.17,1.34-1a7.91,7.91,0,0,0,.06-.86.21.21,0,0,1,.19-.2c.15,0,.21.11.21.4,0,1.11-.06,2.56-.06,2.71s.06,1.36.06,2.11c0,.28-.06.4-.21.4a.21.21,0,0,1-.19-.2,2.75,2.75,0,0,0-.06-.63c-.14-.69-.54-.83-1.34-.88s-1.46,0-5.22,0h-2.59c-2.63,0-5.56-.34-7.27-2.34a7.58,7.58,0,0,1-1.77-5.25,7.84,7.84,0,0,1,1.71-5.21c1.14-1.23,2.82-2.2,6.36-2.2Z"/><path class="cls-2" d="M212.13,261.54c3.76,0,4.45,0,5.22-.06s1.22-.2,1.34-1a7.39,7.39,0,0,0,.06-.85.23.23,0,0,1,.19-.2c.15,0,.21.11.21.4,0,1.14-.06,2.82-.06,3s.06,2.37.06,3.14a8.26,8.26,0,0,1-1.06,4.68,4.28,4.28,0,0,1-3.31,1.73c-1.79,0-3.53-.74-5.53-3.07-2.56,2.05-4.76,3.79-6.27,5.24a4.61,4.61,0,0,0-1.68,2.79,4.48,4.48,0,0,0-.09.89.22.22,0,0,1-.19.23c-.15,0-.2-.15-.2-.6v-1.57a5.08,5.08,0,0,1,.48-2.68c.57-1.08,1.74-2,3.56-3.42,1.31-1.06,2.88-2.17,3.54-2.71a.38.38,0,0,0,.14-.34l.06-3.19c0-.12-.06-.18-.2-.18h-.57c-2.34,0-4.22,0-5.22.12-.71.08-1.17.23-1.28,1a8.64,8.64,0,0,0-.12,1.11.17.17,0,0,1-.19.2c-.12,0-.2-.12-.2-.4,0-1.37.08-3,.08-3.08s-.08-1.71-.08-2.48c0-.26.05-.4.2-.4a.19.19,0,0,1,.19.2,3.43,3.43,0,0,0,.12.77c.11.48.57.54,1.28.66a50.35,50.35,0,0,0,5.24.14Zm-2,2.16a.37.37,0,0,0-.32.18,8.75,8.75,0,0,0-.37,2.76,3.25,3.25,0,0,0,.43,1.88,4.32,4.32,0,0,0,3.71,1.51c3,0,4.76-1.65,4.76-4.33a12,12,0,0,0-.14-1.8.33.33,0,0,0-.29-.2Z"/><path class="cls-2" d="M218.66,293.8c.8.32.94.43.94.6s-.34.35-.88.6c-1,.46-11,4.48-14.71,6-2.17.91-2.48,1.59-2.65,2.13a3.32,3.32,0,0,0-.15,1c0,.14-.05.32-.19.32s-.2-.29-.2-.58,0-2.22.05-4c0-.48,0-.88.17-.88s.12.06.17.17a.46.46,0,0,0,.66.23l5.56-2.25a.2.2,0,0,0,.14-.23v-5.79a.27.27,0,0,0-.2-.26l-3.87-1.42a5,5,0,0,0-1.63-.37c-.48,0-.66.43-.66.85v.23c0,.2-.08.26-.19.26s-.2-.15-.2-.37c0-.6.08-2,.08-2.25s-.08-1.52-.08-2.54c0-.32.05-.49.2-.49a.22.22,0,0,1,.19.23,6.68,6.68,0,0,0,.06.74c.14,1.14,1,1.63,2.23,2.11Zm-10.09,2.8c0,.11.06.11.17.08l6.64-2.48q.56-.21,0-.42l-6.64-2.34c-.11,0-.17,0-.17.08Z"/><path class="cls-2" d="M207.8,319.2c-3.56,0-5,.05-5.45.51s-.57,1.37-.57,3.33c0,1.32,0,2.43.74,3a3,3,0,0,0,1.37.59c.17,0,.32.12.32.26s-.12.17-.37.17a15.36,15.36,0,0,1-2.43-.37c-.57-.17-.65-.25-.65-1.59,0-1.8,0-3.2.08-4.37s.06-2,.06-2.73c0-.12,0-.54,0-1s-.05-1.05-.05-1.45.05-.4.2-.4a.19.19,0,0,1,.19.2,3.52,3.52,0,0,0,.12.77c.11.48.57.54,1.28.65a50.35,50.35,0,0,0,5.24.14h4.28c3.76,0,4.45,0,5.22-.05s1.22-.2,1.34-1a7.73,7.73,0,0,0,.06-.85.23.23,0,0,1,.19-.2c.15,0,.21.11.21.4,0,1.14-.06,2.71-.06,2.85s.06,2,.06,2.76c0,.26-.06.4-.21.4a.21.21,0,0,1-.17-.2c0-.17,0-.54-.05-.83-.15-.74-.52-.88-1.37-.94s-1.46,0-5.22,0Z"/><path class="cls-2" d="M209,362.76c-4.19,0-6,.12-6.52.63s-.66,1.2-.66,3.42c0,1.51,0,2.76.86,3.45a4,4,0,0,0,1.71.74c.22,0,.37.09.37.26s-.12.17-.43.17a18.13,18.13,0,0,1-2.85-.43c-.66-.2-.77-.28-.77-1.8,0-2.05.05-3.53.09-4.73s.08-2.08.08-2.91c0-.11,0-.6,0-1.16s-.05-1.2-.05-1.63.05-.46.22-.46.17.06.17.23a4.24,4.24,0,0,0,.12.86c.11.57.74.71,1.56.82,1.2.15,3.46.15,6.19.15h5c4.45,0,5.25,0,6.16-.06s1.42-.28,1.62-1.23a5,5,0,0,0,.09-1c0-.11.05-.22.17-.22s.23.14.23.45c0,1.29-.09,3.08-.09,3.22s.09,2.23.09,3.08c0,.32-.06.46-.23.46s-.17-.11-.17-.23a6.33,6.33,0,0,0-.09-.94c-.14-.83-.62-1.05-1.62-1.11s-1.71-.06-6.16-.06Z"/><path class="cls-2" d="M207.85,388c-2.33,0-4.24,0-5.24.12-.71.08-1.17.17-1.28.91a9.65,9.65,0,0,0-.12,1.14.19.19,0,0,1-.19.2c-.12,0-.2-.12-.2-.4,0-1.4.08-3,.08-3.14s-.08-1.71-.08-2.48c0-.25.05-.4.2-.4a.19.19,0,0,1,.19.2,3.43,3.43,0,0,0,.12.77c.11.49.57.57,1.28.66,1,.11,2.91.14,5.24.14h4.28c3.76,0,4.45,0,5.22-.06s1.2-.25,1.31-.79a4.33,4.33,0,0,0,.09-.77.21.21,0,0,1,.19-.2c.15,0,.21.11.21.4,0,.82-.06,2.39-.06,2.53s.06,1.74.06,2.51c0,.29-.06.4-.21.4a.23.23,0,0,1-.19-.2,2.71,2.71,0,0,0-.06-.63c-.14-.68-.49-.82-1.34-.88s-1.46,0-5.22,0Z"/><path class="cls-2" d="M212.13,405.39c3.76,0,4.45,0,5.22-.06s1.22-.2,1.34-1a7.73,7.73,0,0,0,.06-.85.23.23,0,0,1,.19-.2c.15,0,.21.11.21.4,0,1.14-.06,2.71-.06,2.85,0,.48,0,5.93,0,6.5a5.79,5.79,0,0,0,.11,1.14c0,.14.15.25.15.34s-.12.17-.23.17-.46-.11-1.14-.2c-.23,0-1.32-.06-1.6-.11-.11,0-.26-.12-.26-.23s.12-.2.29-.2a2.69,2.69,0,0,0,.91-.23A1.89,1.89,0,0,0,218,412l.06-4.1c0-.15-.06-.2-.26-.2h-6.61c-.14,0-.23,0-.23.17l0,3.42c0,.43,0,.8,0,1.14.06.6.14.94.43,1.17s.25.23.25.31-.08.14-.2.14a9.27,9.27,0,0,0-1.34-.22c-.48-.06-1.45-.09-1.62-.09s-.49-.06-.49-.23.12-.17.23-.17a3.76,3.76,0,0,0,.89-.17c.34-.12.65-.51.76-1.28s.06-3.6.06-4c0-.15-.06-.17-.23-.17h-1.94c-2.39,0-4.3,0-5.24.11-.71.09-1.17.23-1.28.91a9.65,9.65,0,0,0-.12,1.14.19.19,0,0,1-.19.2c-.12,0-.2-.11-.2-.4,0-1.39.08-3,.08-3.13s-.08-1.71-.08-2.48c0-.26.05-.4.2-.4a.19.19,0,0,1,.19.2,7.21,7.21,0,0,0,.12.77c.08.48.57.54,1.28.65a47,47,0,0,0,5.24.15Z"/><path class="cls-2" d="M212.13,429.78c3.76,0,4.45,0,5.22-.06s1.22-.2,1.34-1a7.39,7.39,0,0,0,.06-.85.25.25,0,0,1,.19-.2c.15,0,.21.12.21.4,0,1.14-.06,2.76-.06,2.91s0,5.42,0,6,.11.95.14,1.14.12.23.12.35-.12.11-.23.11-.46-.14-1.14-.2c-.23,0-1.32-.08-1.6-.14-.11,0-.26-.12-.26-.23s.12-.2.32-.2a2.71,2.71,0,0,0,.85-.14c.4-.17.57-.43.74-1.8.06-.43.09-3.33.09-3.62,0-.11-.09-.14-.26-.14h-6.58c-.17,0-.26,0-.26.14,0,.32,0,3.62.06,4.19s.08,1,.34,1.23.31.28.31.37,0,.14-.2.14-.54-.14-1.34-.2c-.48-.05-1.39-.11-1.56-.11s-.46-.06-.46-.23.09-.17.23-.17a2.07,2.07,0,0,0,.8-.12c.34-.08.62-.31.74-1.28.08-.68.11-3.36.11-3.79a.15.15,0,0,0-.17-.17h-2c-.82,0-3.64,0-4.13,0-1.62.06-1.94.51-1.94,3a8.22,8.22,0,0,0,.26,2.51,1.83,1.83,0,0,0,1.68,1.14c.29.06.37.12.37.26s-.2.17-.37.17a20.41,20.41,0,0,1-2.33-.34c-.63-.17-.63-.43-.63-1.4,0-1.88.06-3.34.08-4.36s.06-1.71.06-2.08c0-.06,0-.54,0-1.09s-.05-1.05-.05-1.45.05-.4.2-.4a.19.19,0,0,1,.19.2,6.83,6.83,0,0,0,.12.77c.08.49.57.54,1.28.66a50.35,50.35,0,0,0,5.24.14Z"/><path class="cls-2" d="M211.94,111.06h0a21.81,21.81,0,0,1-21.81-21.8V36.34a21.82,21.82,0,0,1,21.81-21.81h0a21.82,21.82,0,0,1,21.81,21.81V89.26A21.81,21.81,0,0,1,211.94,111.06Z"/><path class="cls-3" d="M201.32,43a23.15,23.15,0,0,0-5.23-3.83l1-1.19a22.57,22.57,0,0,1,5.26,3.69Zm-4.66,16a109.26,109.26,0,0,0,4.48-11.38l1.4.89c-1.18,3.69-2.91,8.23-4.3,11.42ZM198,28.43a22,22,0,0,1,5,3.83l-1,1.36a20.07,20.07,0,0,0-5-4Zm17,7.31h-12V34.2h12Zm-1.18,21.91h-7.73V60h-1.61V48.59h9.34Zm-.25-17.08h-8.91v-1.5h8.91Zm-8.91,3.26h8.91v1.5h-8.91Zm8.74-12.89h-8.53V29.47h8.53Zm-7.31,19.15v6.09h6.13V50.09Zm22.48-4.76h-5.87v15h-1.68v-15h-6.37V43.68h6.37V35h-2.86a31.36,31.36,0,0,1-2.47,5.84,7.23,7.23,0,0,0-1.47-.76c1.93-3,3.18-7.66,4-12.17l1.65.29c-.36,1.75-.79,3.51-1.26,5.19H228V35h-5.23v8.66h5.87Z"/><path class="cls-3" d="M204.86,89.28c1.26.93,4.69,3.61,5.52,4.36L209.3,94.9a52.38,52.38,0,0,0-4.44-4.08v9h-1.61v-10a25.34,25.34,0,0,1-6.16,7.84A6.38,6.38,0,0,0,196,96.44c2.51-1.72,5.19-5.3,6.77-8.85h-6.13v-1.5h6.59V82.4h1.61v3.69h6v1.5h-6Zm-5.62-10.35h-1.61V72.88h13.85V70.41h-12V68.94h25.88v1.47h-12.2v2.47h14.07v6.05h-1.65V74.28H213.17V82.4h-1.69V74.28H199.24Zm1.33,1h8.73v1.29h-8.73Zm8.7-3.43v1.32h-8V76.5Zm12.17,11.09c1.57,3.62,4.4,7.13,7.34,8.7a5.61,5.61,0,0,0-1.15,1.29c-2.9-1.79-5.65-5.33-7.3-9V99.8h-1.65V88.35a25.32,25.32,0,0,1-7.45,9.16,13.25,13.25,0,0,0-1.14-1.22c2.79-1.68,5.69-5.19,7.41-8.7H212v-1.5h6.69V82.4h1.65v3.69h7.88v1.5Zm2.11-11.09v1.32h-8.24V76.5Zm-8.24,3.43h9.1v1.29h-9.1Z"/></g></g></svg>