<svg xmlns="http://www.w3.org/2000/svg" xmlns:xlink="http://www.w3.org/1999/xlink" viewBox="0 0 456.37 251.69"><defs><style>.cls-1{fill:none;}.cls-2{clip-path:url(#clip-path);}.cls-3{fill:#a18978;}</style><clipPath id="clip-path" transform="translate(0 -30.53)"><rect class="cls-1" width="259.07" height="310.24"/></clipPath></defs><g id="圖層_2" data-name="圖層 2"><g id="飄移"><g class="cls-2"><path class="cls-3" d="M448.37,180.4c-7.38-.1-14.08-2.05-19.76-7a21.38,21.38,0,0,0-1.9-1.32l-.41-.34c-4.33-3.55-9.72-4.95-15.1-7,1.33-.59,2.33,0,3.32.08s2.19.31,3.29.47c5.29.31,9.58,3,13.78,5.85a31.28,31.28,0,0,0,21.46,5.65c1-.09,2.09.19,3.32-1.62-12.29,2.66-21.62-2.73-31-9.22a.88.88,0,0,0,.05-.15l3,.39c6.58,2.42,12.87,5.78,20,6.41a12.12,12.12,0,0,0,6-.9c.4-.18.8-.41.55-1s-.54-.23-.84-.11c-4.29,1.73-8.48.67-12.57-.67-2.82-.92-5.51-2.2-8.47-3.4a20.75,20.75,0,0,1,6.62.42,51.46,51.46,0,0,0,11,1.14,24.23,24.23,0,0,0,2.81-.35c.48-.07,1.14-.13,1-.85s-.72-.49-1.21-.38c-5.63,1.14-11.07-.74-16.61-1.07-.76,0-.41-.51-.24-.87,4.51-1.26,9.26-.69,13.79-1.77a8.41,8.41,0,0,0,4.12-1.9c-2.08-.15-3.43.86-5,.46l0-.16c1-1.72,3.51-1.76,4-4.37a33.92,33.92,0,0,1-7.28,3.88l0,0c1.95-3,5.85-3.81,6.86-7.82-1.49,1-2,2.26-3.34,2.62.29-2.49,2.79-4.13,2.49-7.31-3.43,5.17-4.62,11.72-12,12.9a44.68,44.68,0,0,0,10.73-19.53c-1.85,3.6-3.64,7.24-5.56,10.81a48.24,48.24,0,0,1-6.39,8.4A9.41,9.41,0,0,1,434,163.5c-.43-.78-2.29,1.73-2-.85,5.64-3.49,9.44-8.69,12.93-14.12,1.9-3,3.43-6.16,5.11-9.26.41-.76.84-1.54,0-2.54-3.12,6.14-6.25,12.18-10.59,17.49a47.92,47.92,0,0,1-9.39,8.77,8.75,8.75,0,0,1-7.47,1.26c7.63-3.29,12.87-9.17,17.52-15.67s8.41-13.2,8.91-21.31c-1.32,4-2.5,8.13-4.53,11.9-4.58,8.46-9.92,16.31-18.21,21.65a18.71,18.71,0,0,1-9.9,3.33c-.77-.46-.7-.79.11-1.14,14.15-6,20.92-18.17,26.16-31.57,4-10.24,3.57-20.87,2.68-31.52a2,2,0,0,0-.81-1.84c.05,1.62.12,3,.14,4.28.11,7.56.65,15.2-1.06,22.59A62.89,62.89,0,0,1,425,157,28.31,28.31,0,0,1,415,162.62a6.22,6.22,0,0,1-4.21.29c.28-.27.4-.48.57-.53,8.48-2.69,14.47-8.25,18.83-15.89,5.13-9,8.14-18.74,10.12-28.83a18,18,0,0,0,.12-2.55c.76-5.21.08-10.45.18-15.67a73.27,73.27,0,0,1,2-17.09,4.07,4.07,0,0,0-.34-3.13,54.92,54.92,0,0,0-2.87,18q0,9.39.06,18.78c-1.35,7.35-3,14.64-6,21.5-3.15,7.15-6.55,14.22-13.14,19-4.88,3.56-10.08,6.18-16.36,5.69a.8.8,0,0,0-.86.38c4.48,1.74,9,3.51,13.43,5.22A79.57,79.57,0,0,1,425,172c6.94,6.37,15,9.8,24.55,9.48.62,0,1.37-.42,1.9.39-1.61,1.61-3.68,2.1-5.81,2.46-1.28,0-2.56-.1-3.84-.07a27,27,0,0,1-19.07-7.16,69.23,69.23,0,0,0-16.88-11.27,14.65,14.65,0,0,0-3.72-2c-.75-.37-.52-.65-.05-1l.79-.35c0-1.23,1-1.12,1.78-1.31,7.53-1.73,14.24-4.81,18.21-11.9,2.41-4.3,3.67-9,4.79-13.83h0c2.3-6.71,3.14-13.72,4.13-20.69,1.71-12,3.38-24,5.21-36,.5-3.29,1.27-6.61,3.7-9.19.89-.93.13-1.87,0-3.24-4.63,4.3-9.78,7.49-13.47,12.32-1.51,2-3.54,2.67-5.91,3.12a35.46,35.46,0,0,1-10.72.69c-4.29-.3-6.87-3.1-9.19-6.26q-7.17-9.72-14.31-19.47c-.95-1.22-2.5-1.9-3.12-3.44C368.89,38.49,351.12,35,331.23,41a94.82,94.82,0,0,0-9.52,4c-1.11.47-2.2,1-3.33,1.4-.34.14-.71,0-.3-.45a2.6,2.6,0,0,1,.42-.29l-.3-.67-4.73,3c-4.81,2.27-9.46,5.05-14.49,6.64s-9.4,4.13-13.84,6.69c-7.82,4.51-13.87,10.91-18.92,18.3a41.63,41.63,0,0,1-10,9.3c-5.43,3-11.45,4.33-17.41,5.76a15.2,15.2,0,0,1-3.07.21c-8.85-1.12-15.93,2.38-22.11,8.32-5.08,4.88-10.07,9.85-13.91,15.82a24.76,24.76,0,0,0-2.55,5.62c-1.22,1.24-2.79,1-4.31,1.08-2.49.08-5,.2-7.45.3-2-.63-3.8,1.3-5.8.34-1.7-.12-3.41-.17-5.11-.37-8.25-1-15.76-4.33-23.39-7.33h0c-8.85-4.87-17.73-9.71-26.56-14.62a80.42,80.42,0,0,1-11.35-8,49.63,49.63,0,0,0-11.4-7.36,25.19,25.19,0,0,1-3.64-3.59A87.63,87.63,0,0,1,82.51,56.83a29.41,29.41,0,0,1,4.69-22.6l.46-.1a1.53,1.53,0,0,1,0,.48,39.21,39.21,0,0,0-1,23.1c3.11,12.13,10.56,21.81,20.06,29.56,6.68,5.45,14.35,9.68,21.58,14.46a98.38,98.38,0,0,0,11,7c12.25,7.32,24.91,13.71,39,16.58h0a.14.14,0,0,0,0-.06c-.16-.67-.88-.7-1.3-1.07-16.61-4.17-31.49-12-45.56-21.57-.35-.23-.74-.4-1.11-.61-6.14-4.57-12.68-8.56-19-12.82a58.55,58.55,0,0,1-23-30C86,52.3,86.4,45,87.55,37.75c.47-2.9,2.92-4.06,5.29-5.16l3.65-.73c.45,0,.89.05,1.33.09l-.28-1.42-4,.69-1.08.57c-.55,0-1.09-.07-1.64-.1l-4.72.81h0l-1.46,1,.53-.06a.35.35,0,0,1,0,.08,1.06,1.06,0,0,1,.1.26c-1.21,1.09-2,1.83-2.86,2.58l-.3.84c-1.74,1.34-1.74,3.81-3.38,5.22-2,.17-1.59,2.65-3.11,3.3A8.63,8.63,0,0,1,73,48.58l-3.36,4.16c0,.58-.39.87-.74,1.21l0,0-.49.37h0c-1.15,1-1.12,2.58-1.94,3.73C65.05,63.56,63.65,69,62.35,74.49c-1.47,6.2-2,12.44-.28,18.7-.77,7.44,1.38,14.39,3.56,21.34.37,1.2,1.12,2.36.3,3.66-.59.75.48,1.15.37,1.8,0,3.84,1.84,7,3.55,10.24A23.07,23.07,0,0,0,75,136.9,18.22,18.22,0,0,0,80.44,142c5.15,3,9.53,7.08,14.22,10.7,3.93,3,7.81,6.06,12,8.82a58,58,0,0,0,21.77,8.75c2.43,2.09,5.34,2,8.26,1.82,7.17-.46,14.25-1,20.7-4.81a73.76,73.76,0,0,0,25.78-26c3.17-4.63,6.25-9.34,10.83-12.78.72,1.1-.33,1.73-.76,2.42-1.58,2.51-3.29,5-5,7.42-5.09,6-9.55,12.45-15.09,18.1a76,76,0,0,1-20.6,14.75,34.66,34.66,0,0,0-6.27,2c-2,.41-4.05.72-6,1.24-7.33,1.93-14.3-.3-21.29-1.84-9.92-2.17-18.34-7.63-26.92-12.72a23.83,23.83,0,0,0-5.06-2.5,6.64,6.64,0,0,0-.65-.43,26.19,26.19,0,0,0-5.09-2.37l-1-.4c-5.76-2.95-12-3.6-18.31-3.46a69.7,69.7,0,0,0-40.11,13.1c-7.17,5.16-11.3,12.81-15.7,20.18-3.59,6-6,12.38-6.09,19.45,0,2.9-.54,5.87,1.77,8.42,1.37,1.51,1.22,3.66,1.1,5.67-.06.86-.41,2,1.08,2.13A40.41,40.41,0,0,0,7.13,231,3,3,0,0,0,8,233.07c1.26,2.23,1.09,5.5,4.54,6.18.31.06.47.86.7,1.32,2.19,4.38,5.1,8.38,6.45,13.2a8.11,8.11,0,0,0,6.28,6.11c.77,1.3,1.48,2.61,3.36,2.47,1.13-.08,1.32,1.06,1.84,1.75,3.08,1.49,6.09,3.18,9.17,4.56,2.4,1.07,4.54,2.51,6.85,3.66,2.71,1.34,4.45.66,4.87-2.27,2.33-16.26,10.69-29.18,22.11-40.45.61-.6,1.2-1.23,1.78-1.86s1-1.08,1.8-2l.11.06,0,0a39.23,39.23,0,0,1-4.95,8.94c-6.29,9.63-9.77,20-9.45,31.61a19.54,19.54,0,0,1-.71,6.39,3.34,3.34,0,0,1-4.08,2.63,16.32,16.32,0,0,1-3.7-1.06c-1.18-.45-1.85-1.79-3.75-1.93A9,9,0,0,0,58,276.49a42.32,42.32,0,0,1,5.1,1.31c3,.87,5.86,3,9.27,2,1.36,1.92,3.15,1.19,4.72.5a10.46,10.46,0,0,1,5.82-.51c.92.12,1.15.91,1.58,1.51,2.9,1.65,5.44,1,7.74-1.21l4.25-1.17c1.44-1.42,3.53-2.24,4.11-4.45,2.47.29,4.91-.41,7.34-.38,4.54.07,8-2.32,9.2-6.7a18.68,18.68,0,0,0,.08-9.45,46.25,46.25,0,0,0-3.28-8.41c-2.87-6.35-6-12.58-7.53-19.47-1.65-7.58-.8-14.95,1.35-22.39.77.6.55,1.28.56,1.83A52.58,52.58,0,0,0,116.75,237a44.92,44.92,0,0,1,5.42,11.67,36.87,36.87,0,0,1,.32,11c-.61,4-2.56,7.17-6.21,10.11,6.31-1.78,9.38-12.79,6.71-21.5a25.9,25.9,0,0,0-2.86-7.65c-2.59-5.1-6.24-9.67-7.65-15.35-5.9-16.41-3.42-29.14,7.73-41,.86-.92,2-1.6,2.48-2.87,1-.71,1.89-1.46,2.88-2.11,2.92-1.89,6-1,7.45,2.14,3.64,7.6,4.77,15.77,5.08,24.05.26,7.19,1,14.17,4.13,20.79,5.39,11.34,11.73,15.27,24.22,14.91a35.87,35.87,0,0,0,14-2.76c7.37-1.81,11.94-7,15.8-13.06,3.6-5.63,7.43-11.1,11.34-16.52h0c3.59-3,8-4,12.41-4.92,1.9-.38,3.93-.2,5.7-1.22,8.83.63,13.65-4.71,12.66-13.35-.4-3.45,0-7-1.16-10.4-.2-.58.08-.94.6-1.23a2.32,2.32,0,0,0,1.09-1.7c.74-4.52,2.83-9,.37-13.65-.76-1.44,1-2.7.53-4.19l.24-3.26c.55-.27,1.4,0,1.57-1,1.26-6.92,6.77-10.53,11.63-14.5,3.19-2.6,5.74-5.35,6.5-9.48,1.22-3.52-.16-6.76-1.3-9.94a79.51,79.51,0,0,0-7.18-14.68,14.71,14.71,0,0,0-4.75-5.25c-.89-.69-1-1.13.11-1.59a38.11,38.11,0,0,0,9.6-6.27c.19-.17.62,0,.94-.07,2.59-.29,4.74-1.79,7.13-2.62a29.1,29.1,0,0,1,12.62-1.67c7.82.79,15.47,2,22,6.82a.94.94,0,0,0,.24.19l7.92,6.3c8.21,7.87,14.52,17.26,21.07,26.47.64.9,1.35,1.75,2,2.63,1.28,2.82,3.62,5,4.69,8,2.76,8.74,6.58,16.76,15,21.51a20.52,20.52,0,0,0,14.3,2.69,8.08,8.08,0,0,0,1.77,0c8.5-1.87,14.29,2.56,19.32,8.46a27,27,0,0,1,3.26,5.84c5.47,11.39,14.81,16.55,27.15,16.7a63.75,63.75,0,0,0,38.06-11.68c1.18-.83,3.37-1.17,2.26-3.77C454,180.63,451.2,180.44,448.37,180.4ZM172.53,127.71c-3.14.66-5.75,2.82-9,2.9a18.23,18.23,0,0,1-13.28.18,9.69,9.69,0,0,1-5.1-1.66c.3-1.33-.84-1.23-1.55-1.56-2.22-1-4.65-1.63-6.74-3.62l3,.57a3.06,3.06,0,0,0,1,.19,73.55,73.55,0,0,0,28,2.55A6,6,0,0,1,172.53,127.71ZM105.67,91.77c5.93,3.8,10.87,9,17.06,12.39,8.11,4.46,16,9.39,24.31,13.44a210,210,0,0,0,19.7,8.19c-2.94.69-6,1.12-8.78.08-7.9-2.91-16-5.41-22.68-10.9a81,81,0,0,0-11.74-8,86.75,86.75,0,0,1-20.32-16.1C104.31,90.41,104.93,91.3,105.67,91.77Zm-23-54.32h0l3-2.55a27,27,0,0,0-4,22.31,59.06,59.06,0,0,0,6,14.47c7.67,13.77,17.78,25.33,31.19,33.75,6.2,3.89,12.41,7.73,18.21,12.2a32.38,32.38,0,0,0,8.33,4.59c2.59,1,5.13,2.07,7.7,3.11l-.15.61c-1-.11-1.95-.2-2.92-.34-9.41-1.44-17.89-5.12-26.08-10C107.74,106,93.83,94.23,84.9,77.27c-1.64-4.7-3.34-9.39-4.9-14.11C77,54.21,77.39,45.56,82.67,37.45ZM78.2,44h0c-.73,5.95-1.45,11.9.41,17.8a14.34,14.34,0,0,1,1.13,4.47C81.2,70.05,82,74.07,84,77.6h0c5.54,11.52,13.82,20.77,23.75,28.62,5.22,4.13,11,7.45,16.63,11,3.14,1.8,6.46,3.31,9.25,5.68.61,1.19,2.12,1.45,3.09,2.93l-12-7.09h0c-.68-.58-1.74-.58-2.18-1.49h0l-1.34-.66c-3.12-1.38-6.38-2.44-9.37-4.11-.22-.12-.44-.24-.65-.37a33,33,0,0,1-14.48-10.78c-4.7-5.9-9.58-11.68-13.13-18.41-2.65-5-3.44-10.47-4.68-15.85C77.19,59.43,74.9,51.82,78.2,44Zm-2.64,7.78c0,6,1.5,11.74,2.66,17.55,1,4.82,1.9,9.62,4.54,13.88C89,94,95.71,104.42,106.68,111c5.29,3.18,11.45,4.7,16.84,7.79l0,0c1.5,1.39,3.51,2,5.1,3.22s3.71,1.31,4.54,3.33c-1.43-.9-3.13-.73-4.68-1.21-6.69-2-13-5-19.51-7.52a37.39,37.39,0,0,1-17-13.38A108.26,108.26,0,0,1,75.16,66.67c-.42-4.2-1.43-8.37-.65-12.63C74.66,53.22,74.33,52.13,75.56,51.81Zm-6.8,6a9.68,9.68,0,0,0,.82-3.43,29.6,29.6,0,0,1,4.94-6.08c.39,1.17-.27,2-.32,2.93A31.07,31.07,0,0,0,74.3,67C75.72,76.29,80,84.47,84,92.77a70.8,70.8,0,0,0,8.2,12.79,35.07,35.07,0,0,0,14.3,11.14c8.26,3.44,16.41,7.16,25.12,9.42.77.2,1.54.86,2.41.22,4.06,1.9,8.57,2.75,12.43,5.29l-2.29,0c-5.46-1.15-10.92-2.27-16.37-3.46a86.16,86.16,0,0,1-33.84-15.81c-5.26-5-9.63-10.73-14-16.48a26.66,26.66,0,0,1-3.75-7c-1.62-4.44-3.44-8.81-4.94-13.28a50.07,50.07,0,0,1-2.59-16.48A1.3,1.3,0,0,0,68.76,57.8Zm-2.69,6.9c.15-1.65-.12-3.62,1.66-4.78C67,66.68,68.85,73,71.08,79.21c1.27,3.55,2.74,7,4.09,10.54a27.22,27.22,0,0,0,4.19,7.35c4.25,5.25,8.13,10.83,13.32,15.27a70.39,70.39,0,0,0,22.07,12.87c7.19,2.56,14.48,4.82,22.1,5.72a9.19,9.19,0,0,1,1.71.55c1.42,0,2.87-.11,4,1-1.09.06-2.2.42-3.24-.22-8.38,0-16.66-.45-24.69-3.39A87.17,87.17,0,0,1,74.34,99.18c-.8-1.42-1.51-2.89-2.41-4.24a35.88,35.88,0,0,1-6.16-20.71C65.81,71.05,65.77,67.86,66.07,64.7ZM64.7,69.8a42.49,42.49,0,0,0,8.81,29.65c.5.8,1,1.61,1.5,2.39,4.6,6.84,11,11.74,17.48,16.64a72.06,72.06,0,0,0,43.05,15.09c5.77.14,11.5-.88,17.26-.25l6.73-.51.06.43-2.71,1.27a7.86,7.86,0,0,0-3.3-.33c-2.12.65-4.39.81-6.38,1.88a53.34,53.34,0,0,1-25.46-.24c-7.35-2.07-13.8-6.22-20.82-9.06l-.69.3,15,7.69c.4.21.89.34.91.88l-.24.13-6.08-.87h0A129.27,129.27,0,0,1,81,117.64c-6.41-5.08-9.9-12.16-13.07-19.44-.94-.88-1.08-2.14-1.52-3.26,1.65.48,1.79,2.11,2.52,3.28,3.82,6.54,8.15,12.67,14.12,17.46l1.07-.06c-6.26-5.3-10.83-11.94-15-18.93-.66-1.11-1.4-2.16-2.1-3.24C60.28,86.21,62,78.08,64.7,69.8Zm36.76,63.25c-3.24-1.09-6.46-2.27-9.75-3.24C80.32,126.42,73.25,118.49,68.52,108c-.21-.47-.43-.93-.65-1.39q-1.58-5.12-3.14-10.23a16.46,16.46,0,0,1-1.65-5.91,11.4,11.4,0,0,1,2.44,5.2c.52,1.17,1.07,2.34,1.55,3.54,4.33,10.69,11.17,19.27,21.22,25.14,4.08,2.38,8.19,4.71,12.22,7.17C100.87,131.78,102.69,131.63,101.46,133.05ZM62.88,97.87c-.05-.81-.72-1.84.49-2.42L67.05,107c1.06,4.42,3.48,8.13,6.31,11.57a48.48,48.48,0,0,0,10.23,9.58c3.2,1.86,7,2.15,10.26,3.67,4.54,1.31,9,3,13.67,3.76,3.66.57,7.27,1.76,11,1.27h0l4,1c1.25,1.32-.19.84-.61.85-3.63.05-7.27.06-10.9.08-.08.61.47.68.8.93,5.09.06,10.2.33,15.27-.45,4.14-.06,8.3.15,12.4-.69l8-1.71a21.46,21.46,0,0,1,2.89-.73c1-.13,1.92-1.34,3-.28h0l-8.88,2.84h0l-.24,0c-1.36.14-2.55,1.16-4,.75-1,.33-1.9.75-2.88,1-12,2.93-24,3.43-35.87-.28a67.65,67.65,0,0,1-34-23.11C65.5,110.79,63.31,104.54,62.88,97.87ZM142.93,140c-1.06,1.47-2.76,1.63-4.28,2.14-3.78,1.94-8,2.36-12,3.51-1.27.16-2.55.31-3.82.48A67.38,67.38,0,0,1,99,145.49c-12.59-2.75-20.81-11.12-27.66-21.29-.9-.77-2-1.41-1.64-2.91.7.95,1.87,1.48,2.35,2.62a74.52,74.52,0,0,0,15.19,11.36c16.18,9.28,33.35,10.57,51.19,6.08C139.74,140.39,141.41,140.41,142.93,140ZM75.87,136.6c-3.73-4.58-7.2-9.3-8.71-15.85L76,132.08a37.23,37.23,0,0,0,11.17,9.81c12.65,7.14,26.11,7,39.85,4.36,6.91-.6,12.93-4,19.36-6.08,1.61-.53,3.12-1.51,4.93-1.28-2.32,1.45-4.64,2.92-7,4.35C124.33,155.39,93,154.58,75.87,136.6Zm15.56,12.24a3.25,3.25,0,0,1,2.39.37c16.1,5.31,31.82,4.43,47.16-2.84,5.54-2.62,10.4-6.39,15.83-9.2a7.52,7.52,0,0,1,3.49-1.82,6.33,6.33,0,0,1-3.11,2.7c-7.2,5.75-14.44,11.43-23,15.14-13,5.66-25.85,5.77-38.42-1.3A13.27,13.27,0,0,1,91.43,148.84Zm11.92,9a6.37,6.37,0,0,1-3-2l.3-.64,6.08,2.47A45.53,45.53,0,0,0,133,155.11c10.79-4.33,19.75-11.44,28.44-18.84a35.13,35.13,0,0,1,20.61-8.79,5.51,5.51,0,0,1,3.47-.22,10.61,10.61,0,0,1-3.43,1.18h0c-3.13,1.17-6.24,2.43-9.41,3.51-6.73,2.3-11.29,7.35-15.88,12.35-6.58,7.17-13.68,13.48-23.35,16.28C123,163.61,112.88,164.45,103.35,157.86Zm10.3,5.78c2.7.18,5.06.5,7.42.46,8.6-.16,16.42-3.07,23.89-7.11,3.6-2.69,6.83-5.82,10.19-8.8h0l3.66-3.94c3.8-4.08,7.54-8.22,12.85-10.43l2.69-1.14c-.31,1.22-1.39,1.49-2.36,1.9h0a5.39,5.39,0,0,0-1.36.67q-7.74,7-15.43,14.12c-3.26,2.86-6.29,6-9.93,8.4h0a25.89,25.89,0,0,1-8.9,5.19,62,62,0,0,1-17.89,2.67C116.86,165.28,115.16,165.11,113.65,163.64ZM123.78,168a1.57,1.57,0,0,1-.65,0c.21,0,.43,0,.65,0l-2.57-1c5.31-.61,10.52-1.24,15.46-3.25,5.41-1.48,9.41-5.17,13.5-8.68,5.92-5.08,11.73-10.27,17.33-15.7A30.61,30.61,0,0,1,182.68,131c.68-.14,1.56-.88,2.15.25-.31,0-.5.08-.53.41-10.45,5.48-20.14,12-28.14,20.79-4.19,3.24-8.36,6.49-12.57,9.7a36.72,36.72,0,0,1-13.51,6.57A17,17,0,0,1,123.78,168Zm10.31,1.68h-.16c-.12-.32-1.69-.29-.25-1,1.71-.8,3.5-1.44,5.16-2.31,4.67-2.46,8.42-6.19,12.62-9.29,1-.7,1.68-1.89,3.12-1.76C149.72,162.94,143.71,168.89,134.09,169.63Zm11.17.36c0-.15-.16-.41-.12-.44,9.25-6.8,15.64-16.45,24.05-24.09l5.32-4.81c.11-.55,1.36-.67.58-1.54-7.37,5.7-13.38,12.75-19.7,19.5l-2.08,2.28a30.06,30.06,0,0,1-11.4,9.43,20.4,20.4,0,0,1-5.58,1l-.33-.66a26.45,26.45,0,0,0,9.28-3.45c3.35-2,5.66-5.08,8.18-7.94h0a64.8,64.8,0,0,1,21.31-20.87,27.57,27.57,0,0,1,8-4.08l-7.91,7A98.37,98.37,0,0,0,163.57,155C159,161.89,153.71,167.87,145.26,170Zm12.17-5.1Zm22.31-20.52c-6,8.61-13.14,16.11-22.29,21.49l0-1a36.17,36.17,0,0,0,8.28-8.24c3.93-5,9.57-8.22,13.81-12.91,0,0,.2.05.2.1A2.86,2.86,0,0,1,179.74,144.37Zm7.22-11-3,4.17c-.6.22-.8.79-1.09,1.27-4.79,5.73-10.88,10.07-16.2,15.22a40,40,0,0,1-3.39,4.13c-.55.52-.12-.4-.29-.59l3.24-4.39a2.48,2.48,0,0,1,.57-.77,54,54,0,0,1,5-6.23c4-4.84,9.19-8.43,13.41-13l1.59-1.11a6.52,6.52,0,0,1,3.47-1.92Zm-.33-3.61c-1.22-.47-2.62.84-3.77-.37a36,36,0,0,1,8.06-1.81C189.64,129.21,188,129.26,186.63,129.78Zm-185,73.58c-.48-.82-.13-1.66-.06-2.48.65-8.61,5.43-15.41,9.63-22.54a45,45,0,0,1,20.56-18.86c3.12-1.41,6.32-2.67,9.49-4l.39.85C24.88,169.11,8.58,182.25,1.59,203.36Zm1.55,7.21a15.74,15.74,0,0,1,.77-9.85c5.28-13.39,14.19-24,25.53-32.66,6.56-3.22,13-6.62,19.77-9.45,11.1-4.64,21.65-3.53,31.83,2.65,1.1.67-.09.55-.19.81-15.69-5.88-30.34-3.34-44.4,5.17-4.77,2.88-8.74,6.65-12.9,10.23-9,7.78-16.11,16.89-19.16,28.7C4,207.62,4.07,209.21,3.14,210.57Zm51.39-33.29c7.88-3.5,16.07-3.95,24.48-2.38s16.58,2.92,24.88,4.32c.8.13,1.65.58,2.48,0l2.51.53c-.48,1.43-1.74,1.19-2.79,1.24a102.89,102.89,0,0,1-19.76-1.11,110.1,110.1,0,0,0-28.5-.55A33.3,33.3,0,0,0,47.65,182c-11,5-22.32,9.48-31.25,18.07a8.71,8.71,0,0,1-3.17,2.7l.23-.38,0,0a9.89,9.89,0,0,1,2.81-3.47c.72-.8,1.44-1.61,2.17-2.41C29.53,188.32,42.05,182.82,54.53,177.28Zm-8.84,3h0c.42-1.37.42-1.37,3.25-2.67L52,175.54c7.3-3.57,14.77-6.4,23.11-6.1a69.57,69.57,0,0,1,15.33,2.33l.1,0,9.78,4,.27.17,3.29,2.08c-5.34-.9-10-1.71-14.58-2.45-5.41-.87-10.82-1.81-16.26-2.46-8.51-1-16.23,1.8-23.78,5.26h0ZM106,177.33l-.46-.16c-5.63-2.63-11.15-5.51-17.27-6.92-9.71-2.71-19.35-2.71-28.84,1a36.37,36.37,0,0,0-7.65,3.67c-3.91,1.86-7.41,4.39-11.07,6.67C34,185.32,27.18,189,20.81,193.32a7,7,0,0,0-2.68,2.34A29.7,29.7,0,0,0,11,204.07l-3.14,4.65c-.41-1.19.29-2.17.67-3.19a46.31,46.31,0,0,1,13.05-18.29c9.47-8.38,21.26-12.33,32.72-17,11-4.52,21.9-4.11,33.11-1.59A145.29,145.29,0,0,1,107,175h0a55.11,55.11,0,0,0,9.47,3.5C112.78,179.38,109.43,177.92,106,177.33Zm-32.47-12c-2.44-1.65-5.23-1.41-8-1.44-11.82-.12-22,4.62-31.64,10.86a117.25,117.25,0,0,1-10.81,6c-.49.25-1,1-1.68.26,2.77-2.44,5.51-4.92,8.34-7.3,9-7.55,19.1-12.54,31-13.33,12.9-.87,24.36,4.29,36,8.8A9.12,9.12,0,0,1,98,170C89.61,167.78,81.71,165.75,73.51,165.31ZM4.22,212.58c2.2-11.86,6.6-21.9,15.9-29.31,8.12-3.73,15.61-8.59,23.4-12.93a46.43,46.43,0,0,1,20.69-5.44c1.43-.21,2.89-.74,4.15.5-1.15-.1-2.25.58-3.42.23a167,167,0,0,0-27.28,10.13c-15.47,7-27.13,17.7-32,34.58A3.57,3.57,0,0,1,4.22,212.58Zm6.68-5.74c3.87-3.52,7.25-7.63,11.6-10.53,9.83-6.56,20.11-12.41,31.69-15.2,10-2.42,20.34-1.69,30.51-.35,8.2,1.09,16.38,1.88,24.64.82.37,0,.88-.26,1,.4a19.14,19.14,0,0,1-6.82,2.23c-6.22.9-12.35,0-18.49-.84-7.4-1-14.77-2.28-22.3-.7A113,113,0,0,0,30.31,195C23.46,198.9,17,203.3,12.24,209.74A92.21,92.21,0,0,0,5.83,220.3C5.58,215.09,7.62,210.73,10.9,206.84ZM8,230.59c-2.07-4.49-1.56-8.77.77-13.06C12.36,211,16.87,205.3,23,201.11A111.19,111.19,0,0,1,51.29,187c9.59-3.12,19.23-4.9,29.4-3,8.13,1.52,16.36,2.8,24.8,1.39-.69,2.09-2.61,1.63-3.82,2.41a40.65,40.65,0,0,1-18.34-1.28A40.3,40.3,0,0,0,62,186.27a118.87,118.87,0,0,0-31.4,12.82c-12.1,6.95-20,16.87-21.62,31.1C8.86,230.84,8.47,230.76,8,230.59Zm4.26-1a61.59,61.59,0,0,0-.44,7.74c-1.46-1.47-1.45-3.19-1.94-4.73.51-11.63,5.38-21.18,14.58-28.1,12.14-9.12,26-14.74,40.8-17.92,6.67-1.42,13.17-.48,19.61,1.37.74.21,1.49.45.14,1-6.42-.77-12.85-1.33-19.24.11-17.4,3.92-32.48,12-44.82,25C16.78,218.52,13.42,223.49,12.3,229.61Zm5.22-9.07a52.46,52.46,0,0,1,13.18-13.6c15.21-11.47,31.75-19.09,51.47-17.15,5.3.52,10.57,1.25,16.09,1.14-.66,1.22-1.81,1.13-2.46,1.81-8.27,1.85-16.72,1.9-25.13,2.31-22.44,1.08-40.4,10.51-53.79,28.58h-.09s0,.05,0,.08c-1.12,2.13-1.69,4.57-3.57,6.27C14.27,226.65,15.28,223.32,17.52,220.54ZM17.4,245c-2.39-3.07-4-6.39-3.85-10.38,2.72-12.61,11.91-20.07,21.53-27.26,8.63-6.44,18.63-9.05,29-10.72,1.15-.19,2.31-.71,3.52-.29l22.33-1.58h0c1.39-.32,2.73-1.12,4.23-.43-1.28.46-2.44,1.35-3.93,1.09a18.77,18.77,0,0,1-5.72,1.33c-5.38.58-10.78.19-16.16.46-3.23.75-6.46,1.48-9.68,2.27C48.37,202,39.94,208,31.82,214.36,22.42,221.76,18,231.62,18,243.5,18,244.11,18,244.63,17.4,245ZM91.31,197.7c-5.44,3-11.19,4.78-17.48,4.45-4.68-.24-9.36-.42-14-.63-1.63.37-3.23,1.41-5,.31l4.25-1.18A58,58,0,0,1,74,198.3c6.16,0,12.31.12,18.21-2.08C93.08,197.39,91.75,197.46,91.31,197.7Zm-69,57.81c-1.83-1.33-2.32-3.43-2.6-5.4-1.83-12.78.92-24.2,10.93-33a78.76,78.76,0,0,1,18.56-12.45c7.26-2.33,14.69-2.43,22.18-1.64a36,36,0,0,0,9.21-.24l5-1.37h0l.27.65c-1.47.58-2.82,1.55-4.49,1.52-4.42,1.72-9.11,1.7-13.71,2a64.78,64.78,0,0,0-15.94,3c-18.22,6-29.12,25.48-29.62,40.84a26.62,26.62,0,0,0,.52,5.64Zm1.14-2.5c-.62-23.84,16-43,39.77-45.7,1-.11,2.05-.23,3.08-.3,7-.46,13.89-.91,20.32-4l1.56-1c.83.44,1.42-1.47,2.33-.23-1.25.56-2.17,1.72-3.56,2-2.76.93-5.08,2.8-7.9,3.62-4,1.19-8,2.5-12.09,3.71-7.94,2.37-16,4.73-22.42,10.17-9.82,8.37-17.86,18.15-20.27,31.4C24.11,253.69,23.9,253.45,23.46,253Zm6.27,5.79c-.15.83-.14,2-1,2.26s-1.25-1-1.95-1.45l0,0c-1.07-3.56-1.9-7.16-.51-10.81C30.81,236.9,38,227,48.68,220c7.52-4.93,16.3-6.77,24.65-9.62,1.22-.41,2.42-1.32,3.33-1l-3.89,1.8-.47.21c-4,1.85-8,3.75-12.17,5.52-4.3,1.85-8.45,3.88-11.77,7.28C38.81,233.87,32.18,245.21,29.73,258.8Zm5.08,5.73a4.47,4.47,0,0,1-4-5.43,62.14,62.14,0,0,1,9.67-23.44c5.73-8.6,12.59-15.55,22.8-18.78,6-1.89,11.7-4.52,17.54-6.82,4.23-2.58,8.76-4.69,12.45-8.1.33-.25.86-.43,1-.75.88-2.75,3.45-3.85,5.37-5.55.94-.83.31.33.44.54a48.91,48.91,0,0,1-11.91,11.23L81,211.21c-4.6,3.11-9.93,4.71-14.84,7.18-8.29,4.16-15.76,9.18-19.77,18.05a121.72,121.72,0,0,0-6.56,17.64c-.8,2.9-1.7,5.77-2.62,8.63A2.17,2.17,0,0,1,34.81,264.53Zm3.7,2c-1.25-.74-1.39-1.23-.67-2.54a22.45,22.45,0,0,0,1.83-5.06,144.24,144.24,0,0,1,5.76-17.37c2.6-6.15,5.61-12,11.24-16a70.16,70.16,0,0,1,14.85-8.24A71.49,71.49,0,0,0,82.11,212c1.45-.87,2.79-2.28,4.74-2.23-1.26,2.34-4.1,3-5.56,5.08-3.41,2.3-6.84,4.57-10.23,6.92a57.42,57.42,0,0,0-15.14,15.62A84.88,84.88,0,0,0,44.47,264C43.26,268.83,42.6,268.94,38.51,266.49Zm33.83-36.85c-10.85,10.9-18.76,23.41-21.3,38.9-.63,3.88-1.45,4.08-4.86,1.88-.5-.33-1-.65-1.5-1s-.86-.74-.5-1.49c2.51-5.21,3.21-11,5.49-16.34,5.56-13,13.44-23.91,25.78-31.25a22,22,0,0,0,5.9-4.44L83,214.78c.84.63-.11,1.17-.09,1.75l-.45.79A114.25,114.25,0,0,1,72.34,229.64ZM65,276.89a1.94,1.94,0,0,1-2.14-.45c-.41-.4-.22-.77,0-1.13,1.87-2.53,1.87-5.54,1.82-8.42a53.79,53.79,0,0,1,9.22-31.18c2.33-3.55,4.44-7.24,6.65-10.87l.28.18c-.74,1.81-1.44,3.64-2.22,5.44-4.56,10.55-8.56,21.2-7.91,33,.18,3.23-.93,6.45-2.22,9.49A6.32,6.32,0,0,1,65,276.89Zm7.31,2.84s0,0,0,.06l0-.05h0c-.16-.51,0-1.28-.85-1.25-1.34,0-3,.7-3.74-.78s1.13-2.21,1.69-3.37c1.09-2.29,1.42-4.82,2.67-7.86.78,3.52,1.56,6.31,2,9.15C74.22,277.13,74.29,279,72.3,279.73Zm2.16-.3c1.33-2.93.65-5.77-.15-8.61-3.09-11.05-1.85-21.78,2.38-32.29,2.31-5.74,4.67-11.46,7-17.19l.16-.09,0-.18a3.81,3.81,0,0,0,.41-.58,44.69,44.69,0,0,0,2.31-4.65c4.07-6.52,9.86-11.58,14.58-17.55-.2,2.05-1.66,3.39-2.41,5.11-1,1.18-1.9,2.42-3,3.53-4.26,4.41-6.39,10.28-10.35,15-2,2.39-2.66,5.92-4,8.92-4.33,10.05-5.7,20.3-2.29,30.92,1.11,3.44,2.27,6.89,2.42,10.53C81.84,278.46,80,278.61,74.46,279.43Zm6.29-.65a7.22,7.22,0,0,0,2.12-6.16,28,28,0,0,0-1.29-7.08,85.26,85.26,0,0,1-2.74-11.24c-1.24-6.89.13-13.38,3.07-19.66l-.12,3.75a47.55,47.55,0,0,0,2.75,20.15c1.56,4.6,2.89,9.34,2.09,14.33C85.64,275.44,85.21,278.53,80.75,278.78Zm5.32,1.86c-1-.52-2-1.1-.72-2.49A9.68,9.68,0,0,0,87.66,272c1.08-4-.19-7.92-1.43-11.56a59.81,59.81,0,0,1-3.5-22.93c.81-4.13.81-8.46,3.06-12.57a17.07,17.07,0,0,1-.15,2.06c-2.58,12.28-1.11,24.22,2.82,36a51.9,51.9,0,0,1,3.09,14A3.92,3.92,0,0,1,86.07,280.64Zm8.74-2.26c-.82.39-1.8.81-2.28-.54.3-4.3-.88-8.35-2.12-12.37-2.45-8-4.71-16-4.85-24.44-.2-12.39,2.69-23.68,11.1-33.15.54-.61.79-1.62,1.91-1.51l-.44,1.29v0c-.24.55-.51,1.08-.72,1.64-4.11,11.24-5.34,23-4.82,34.75.44,10.1,1.58,20.28,7.5,29.08C99.17,275.75,97.16,277.25,94.81,278.38Zm11-5.37a3.06,3.06,0,0,1-4-.33,14.56,14.56,0,0,1-4-6.51,82.69,82.69,0,0,1-4-27.46A98.05,98.05,0,0,1,102,200.86a5.13,5.13,0,0,0,.88-1.82c2.59-6,5.64-11.73,11.23-15.61,1.26-1.41,3.11-1.88,4.64-2.85-.85,2.09-3,2.77-4.52,4.08a48.69,48.69,0,0,0-3.26,3.64c-11.37,15.49-15.73,32.82-13.49,51.86,1.21,10.37,4.92,20,8.51,29.7C106.32,270.86,107.43,272,105.84,273Zm1.5-35.3c2.1,5.83,5.15,11.24,7.41,17,1.81,4.61,2.51,9.29.47,14a6.19,6.19,0,0,1-6.12,3.89,14.47,14.47,0,0,0-.26-11c-2.1-5.54-4.78-10.88-6.13-16.67-1.84-7.87-.68-15.72.42-23.56a10.52,10.52,0,0,1,1.79-6.08l-.48,3.94A43.88,43.88,0,0,0,107.34,237.71Zm8.45-50.2c-10.22,14.73-15,31.16-15.23,49A38.16,38.16,0,0,0,103.74,252c1.53,3.65,3,7.31,4.36,11a11.21,11.21,0,0,1,.12,8.63c-2.31-4.69-3.51-9.24-5.09-13.64-7.68-21.47-6.74-42.39,4.36-62.54a35,35,0,0,1,12.12-13.32C118.71,184.59,117,185.84,115.79,187.51Zm-.71-12-11-4.45-.47-.22-5-2.66c-.71-1.11-1.94-1.37-3-1.79a148.42,148.42,0,0,1-17.36-7.8c-9.74-5.17-19.59-4.87-29.57-.83-4.94,2-9.65,4.47-14.38,6.89-.61.32-1.16,1.09-2,.59,2.34-1.9,4.63-3.85,7-5.68a34.3,34.3,0,0,1,17.6-7.38,50,50,0,0,1,22.58,2.67c6.08,3,12.16,6,18,9.63,6.08,3.77,12.43,7.07,19.42,8.88,3.56.92,7.19,1.61,11.31,2.52C123.37,177.72,119.23,176.29,115.08,175.55ZM179,156.78c7.18-5.4,14.73-10.2,23.14-13.46,8.6-3.33,17.28-5.52,26.19-.95a.58.58,0,0,0,.32.35l.81.88c-.95-.1-1.64-.12-2.31-.25a31.54,31.54,0,0,0-24.33,4.75c-8.74,5.79-17.69,11.24-28.13,13.51-.74.16-1.87,1.47-2.51-.26A46.11,46.11,0,0,0,179,156.78Zm-8.26,6.78a66.48,66.48,0,0,0,24-9.08c3-1.8,6.05-3.65,9-5.61,9.68-6.5,19.89-6.18,30.4-2.53,1.16,1.74,3.5,2.73,3.42,5.28a53.08,53.08,0,0,0-5.76-3.37c-8.81-3.8-17.19-1.92-25.24,2.36-4.71,2.49-8.83,5.95-13.68,8.25-9.41,4.46-19.54,6.57-29.45,9.41-.44.13-1,.48-1.16-.39C165.05,166.46,167.61,164.47,170.73,163.56Zm-18.84,9,1.05-.53h0c2.3-.36,4.63-.6,6.7-1.82,5.31-1.38,10.62-2.78,15.93-4.15,10-2.57,19.48-6.2,27.91-12.28A28.88,28.88,0,0,1,210,150c8.17-3.11,16.27-4.35,24.19.83,3,2,5,4.37,4.68,8.2-.61,2.33-1.86,1.81-3.11.61-6.63-6.39-14.52-6.79-22.87-4.79-6.51,1.56-12.37,4.74-18.15,7.93-9.31,5.15-18.58,10.2-29.62,10.33-4.27.05-8.53.18-12.8.27a5.4,5.4,0,0,1-3.28.08A6.83,6.83,0,0,1,151.89,172.54Zm80.19-14.16a3,3,0,0,1-.78.14,14.93,14.93,0,0,1-1.49-.42c-5-1.75-9.93-1.21-15,.08-7.17,1.84-13.08,6-19.19,9.83-8.72,5.47-18.09,8.74-28.5,8.42-3.21-.11-6.42-.59-9.62-.89a8.15,8.15,0,0,1-5.3-1.06l4-.14c.15-.06.3-.19.45-.18,10.11.64,19.87-.45,29-5.27,6.38-3.37,12.66-6.94,19.24-9.95,5.89-2.69,12-4.34,18.47-3.81A15.33,15.33,0,0,1,232.08,158.38Zm-95.45,20.49c2.39,1,4.79,1.92,7.17,2.9a18.89,18.89,0,0,1,7.89,6.44c5,6.66,10.07,13.27,15.1,19.9,4.41,5.82,10.14,8.88,17.56,8.37l-.22-.25a.67.67,0,0,1,.22.25c5,.16,9.58-1.69,14.14-3.48.85-.33,1.6-1.06,2.64-.83-2.75,2.3-5,5.2-8.2,7-9.17,5.05-23.28,4.06-31.84-5.67-4.54-5.17-7.58-11.26-11.23-17-3.87-6.07-7.36-12.49-13.4-16.86C136.52,179.38,136.57,179.13,136.63,178.87Zm55.75,43.83c-1.29,1.73-3.24,2.71-4.92,4-18.42,7.25-34.07-3.27-35.57-24.36a9.49,9.49,0,0,1,1.05,1.43A43.67,43.67,0,0,0,161.87,216c8,7.94,22.34,9.84,31.57,4.24C194.18,221.51,192.91,222,192.38,222.7Zm-12.15,15h0c-1-.09-2,.68-3,.3-5.45,2.05-11.11,2-16.78,1.55a17.08,17.08,0,0,1-13.31-7.78,41.32,41.32,0,0,1-7.56-23.17c-.12-8.52-1.11-17-4.2-25a3.54,3.54,0,0,1-1-2.24,2.24,2.24,0,0,1,1.77,1.59c3.76,7.66,8.17,15.06,9.76,23.62.53,2.88,1.07,5.75,1.73,8.6,1.66,7.17,4.15,13.83,11,17.86,5.55,3.26,11.36,5.23,17.89,4.32l1.8-.5c2.19.12,4.2-1,6.71-1.18C183.43,237.07,181.65,237,180.23,237.71Zm23.11-24.77a2,2,0,0,1-.43.54c-3,4.4-6,8.77-8.94,13.19a19.3,19.3,0,0,1-12.83,8.69c-1.08.21-2.15.5-3.22.76-.43,0-.86,0-1.28.06-13.17,1.24-23.17-5.52-26.88-18.19a25.4,25.4,0,0,1-1.06-4.25c-1.21-10.45-5.37-19.88-10-29.15a2.68,2.68,0,0,1-1.18-2.51,5.11,5.11,0,0,1,2.32,2.43c4,5.53,7.77,11.17,9.9,17.72,1.19,3.68,2.43,7.36,3.33,11.11,3.75,15.67,24.59,20.69,34.69,14.2a15.37,15.37,0,0,0,8-7.54l7.12-7.64a5.67,5.67,0,0,1,2.08-2.49C205.41,211.46,204.17,212.09,203.34,212.94Zm4.47-5.84a28.56,28.56,0,0,0-5.86,3.22c-4.27,1.79-8.47,3.77-13.07,4.62-1.76.32-3.56.42-5.35.62a18.45,18.45,0,0,1-15.68-8.43c-4.62-6.74-10.09-12.83-14.83-19.47-1.61-2.26-3.26-4.56-5.9-5.82l-8.64-3.4-1.57-.87c1.51-.56,2.78.5,4.14.24a36.1,36.1,0,0,1,8.75,4.51,41.2,41.2,0,0,1,9.52,8.09c4.18,4.51,7.55,9.78,12.69,13.37h0c4.35,3.43,9.36,4,14.62,3.3a100,100,0,0,0,14.07-3.25c6.32-1.83,12.71-3.06,19.34-2.41l2.66,1.09C217.05,203.11,212.18,204.36,207.81,207.1ZM161,189.92c3.45,1.2,6.2,3.47,9,5.57,5.39,4,11.3,6.52,18.1,6.57a72.48,72.48,0,0,0,16.85-2c3.59-.82,7.16-2,10.91-.88l1.3.9,0,.09A56.89,56.89,0,0,0,203.65,202c-4.14,1.12-8.31,2.12-12.48,3.16-5.54,1.38-11,1.58-16.37-.85C168.93,200.73,165.31,195,161,189.92Zm72.06,9.91c-.41.93-1.68,1.1-2.7,1.28a14.47,14.47,0,0,1-8.09-1c-5.63-2.27-11.3-3.43-17.29-1.28-3.33,1.2-6.89,1.43-10.39,1.86-8.61,1.07-16.62-.4-23.61-5.84-1-.82-2.52-1.21-3.17-2.77l6.54,1.9.11,0a30.3,30.3,0,0,0,13.25.95c7-.92,14-1.93,21-2.76a38.93,38.93,0,0,1,12.09.27,25.37,25.37,0,0,1,10.79,5.25C231.92,198.59,233.56,198.77,233.09,199.83Zm1.72-1.92c-.75.5-1-.37-1.23-.85-4.36-9.06-12.49-11.7-21.58-12.75-6.62-.76-13,.6-19.39,2-5.85,1.77-11.72,3.38-17.92,1.85-.36-.09-1-.25-1.31.37l0,0h0c1.72,1.14,3.68,1.23,5.65,1.28A44,44,0,0,0,191.18,188c7.24-1.9,14.52-3.54,22.08-2.35,7.17,1.12,13.93,3.06,18,9.84-.51.49-1,.17-1.38-.12-5.63-4-12-4.66-18.69-4.32a151.26,151.26,0,0,0-17.14,2.06c-7.36,1.23-14.66,1.65-21.91-.61h0c-7.63-2.13-14.24-6.2-21.12-11.28a67.05,67.05,0,0,1,15.31,5.2,8.71,8.71,0,0,0,4.5,1.85c.54.24,1.07.76,1.62,0a1.33,1.33,0,0,0,.43.17c0-1.13-1.23-.79-1.66-1.48l1.4-.22h0c.67.13,1.33.29,2,.39,5.88.92,11.58-.09,17.22-1.68a109,109,0,0,1,16.52-5.54,36.12,36.12,0,0,1,11.22-.31h0a25.44,25.44,0,0,1,14.8,10.55,14.63,14.63,0,0,1,2.21,4.63C237,196.27,235.89,197.2,234.81,197.91Zm2.59-6.52c0,.15-.21.38-.38.66-4.26-7.11-9.85-12.23-18.3-13.43-6.34-1.44-12.28.37-18.17,2.32-3.26,1.08-6.44,2.43-9.69,3.57-6.24,2.21-12.64,2.29-19.11,1.23a19.23,19.23,0,0,0-4.69-.88c0-1.59,1.2-.75,1.76-.78,3.48-.24,7-.13,10.45-.5,6.55-.7,12.53-3.2,18.27-6.33,2.38-.47,4.5-1.65,6.74-2.52,10.36-4,19.47-1.94,27.69,5.32C235.45,183.12,236.24,187.31,237.4,191.39Zm-24.18-23.34c-2.36,1.16-4.83,2.08-6.91,3.74-3,1.62-6.26,2.74-9.08,4.71-4.13,1.84-8.15,3.92-12.55,5.07a4.38,4.38,0,0,1-2.74.74c-.08-.25-.16-.51-.23-.76l2.63-.77.91-.71a25.54,25.54,0,0,0,3.06-1.26c4.76-2.69,9.53-5.36,14.21-8.18a28.78,28.78,0,0,1,12.06-3.88C215,168.05,213.74,167.8,213.22,168.05Zm3.62-.32c8-2.74,20.71,5.06,19.75,15.93a28.24,28.24,0,0,0-13.13-10.46A24.16,24.16,0,0,0,209.15,172c.71-2,2.77-1.92,4.22-2.75A32.47,32.47,0,0,1,216.84,167.73Zm21.39,7c-.67,1.79-1.26,1.75-2.26.3-5.23-7.6-12.76-9.9-21.52-9.34a6.28,6.28,0,0,1-3.58.29c1.1-.7,1.8-1.29,2.8-1.2,7.47-2.87,14.67-2.93,21.65,1.58C238.84,168.62,239.71,170.73,238.23,174.71Zm.87-8c-.85.78-1.34-.35-1.9-.71-6.39-4.13-13.08-5.76-20.62-3.33-11.52,3.71-21.54,10.2-31.67,16.54-6.77,3.82-14.16,3.87-21.61,3.49a112.18,112.18,0,0,1-19.05-5.07,30.35,30.35,0,0,0-4.49-1c-.55-.23-1.17-.38-1.24-1.13l9.49,0c3.66.45,7.34.8,11,1.38a51.46,51.46,0,0,0,35.94-7c4-2.42,7.83-5.06,11.93-7.21,8.57-4.5,17.46-6.53,26.68-1.91,1.92,1,4.23,1.52,5.43,3.59C239.4,165.1,239.87,166,239.1,166.74ZM207,140.06c-10.59,3.3-19.91,8.87-28.72,15.44-1,.75-1.84,1.81-3.88,1.85,3-3.24,5.76-6.12,8.44-9a47.82,47.82,0,0,1,21.56-13.64c10.33-3.17,20.23-2.88,28.9,4.66,3,2.6,5.87,7.68,5.81,10.34C230.41,138.91,220.23,135.94,207,140.06Zm33.87,8c-3.73-9.18-10.21-14.27-19-16.11-8.46-1.77-16.61.16-24.5,3.48,6.47-5.64,13.7-9.4,22.45-9.62,10.08-.26,17.71,5.06,20.72,14.53A14.25,14.25,0,0,1,240.89,148Zm2.17-1c-.12-14.76-10.72-23.18-24.64-23.12a25.83,25.83,0,0,1,9.42-2.59c7.17-.65,13,2.28,17.65,7.39C250.29,134,249.2,140.8,243.06,147Zm6.46-7.28c1.16-5.26-.07-9.78-3.94-13.26-6.41-5.77-13.8-8.28-22.39-5.89a76.47,76.47,0,0,0-21.47,9.25,8.45,8.45,0,0,1-3.44,2.14c1-1.22,1.84-2.61,3.33-3.32,8.19-6.37,17.17-11.19,27.4-13.17a21.58,21.58,0,0,1,22.77,10.7C254.32,130.79,253.41,136.74,249.52,139.75Zm3.95-2.76c2.54-5.76,1-10.67-3-15-6.15-6.79-13.67-9.59-22.76-7.66-9.43,2-17.59,6.75-25.6,11.82l-3.88,3.93c.26-2.44,2.24-3.61,3.77-5.12,8-8.55,17.32-14.57,29.31-15.67,2.43-.22,4.78.34,7.17.48l1.34.39,5.27,2.15c5.72,3.72,10.44,8.31,12.81,14.91C258.28,132.57,256.84,135.84,253.47,137Zm5.19-11.21c-.51-1.14-1-2.28-1.55-3.42a34.71,34.71,0,0,0-7.52-8.33,23.74,23.74,0,0,0-12.45-5.41c-8.94-1.56-16.79,1.47-24.21,6-6.84,4.15-12.31,9.86-17.21,16.13h0c-.92,1.28-1.83,2.57-2.75,3.86h0c-.52,0-.54,1-1.22.61h0l3.39-5.8.86-.84c.24-1.25,1.87-1.65,1.89-3,4.87-8.51,12.05-14.74,20.31-19.64a19.75,19.75,0,0,1,18.08-1.57c2.94,1.19,5.89,2.37,8.74,3.76A24.71,24.71,0,0,1,258,122,5.83,5.83,0,0,1,258.66,125.78Zm-8.21-20.14h0q1.53,3.18,3.08,6.35c-5-4.31-11-6.45-16.94-8.75a21.79,21.79,0,0,0-13.91-.41c-6,1.62-10.35,5.63-15,9.34l-2.79,2.74c-.12-.23-.23-.46-.34-.7h0c1-1.1,1.73-2.43,3.05-3.22a77.92,77.92,0,0,1,8.94-8.86c7.64-6.44,16-8.26,25.32-4C245,100.4,248.25,102.41,250.45,105.64Zm-6.26-7.57h0c-1.69-.85-3.61-1.27-5.05-2.61a56.43,56.43,0,0,0,15.75-4.75c.23-.11.5-.16.6.2A42.3,42.3,0,0,1,244.19,98.07Zm193-25.75c-5.34,21.92-5.29,44.74-11.48,66.46l0,.07c-.51,1.45-1.07,2.9-1.51,4.38a22.08,22.08,0,0,1-11.4,14,46.22,46.22,0,0,1-12.27,3.74,4.68,4.68,0,0,1-.5-.2c-.36-.21-.23-.44.44-.76,2.48-1.18,4.95-2.4,7.41-3.61a23.76,23.76,0,0,0,12.87-15.32c2-7,4.16-14,4.92-21.28h0a69.36,69.36,0,0,0,.61-13.88c-.59-11.49,3.37-21.61,8.89-31.32C435.62,73.7,436.09,72.58,437.16,72.32Zm-4,2.33A46.74,46.74,0,0,1,430.81,80a51.93,51.93,0,0,0-5.79,24.6,161.79,161.79,0,0,1-.46,16.48h0c-1.29,5.35-2.66,10.67-3.85,16-2.11,9.41-7.41,16.11-16.4,19.78l-2.89,1.59-.31-.67,2.88-1.67a42,42,0,0,0,6.32-6.32c3.07-3.9,5.89-7.94,6.75-13a33.36,33.36,0,0,0,2.55-11,168.8,168.8,0,0,0-.36-20.37,35.42,35.42,0,0,1,4.83-20.27A34.17,34.17,0,0,1,433.16,74.65Zm-33.76,4A65.39,65.39,0,0,1,383.74,67a123.3,123.3,0,0,0-16.06-13.69c-9.07-6.21-19.49-6.64-29.9-7.1-1-1.06.14-.82.57-.92a44.88,44.88,0,0,1,16.33-1c.58.08,1.18.07,1.77.11A52.09,52.09,0,0,1,382.7,59c6,6,11.29,12.7,16.88,19.1C399.63,78.12,399.5,78.33,399.4,78.62ZM326.56,44a47.94,47.94,0,0,1,28.09-4.12c11.54,1.7,21.32,6.21,29.14,14.91a137.05,137.05,0,0,1,11,14.52l2.48,3.33-.74.34h0c-.85-1.12-2-2-2.6-3.31-4.77-5.36-9.15-11.07-15-15.44-6.88-5.17-14.15-9.42-22.86-10.61a37.7,37.7,0,0,0-16.24.28c-1.9.4-3.79.9-5.69,1.36-5.11.7-10.06,2.37-15.32,2.48C321.37,46.36,324,45.24,326.56,44Zm1.9,3.75c2.48-.52,5.07-.26,7.49-1.09H336l-.06,0c2.3.87,4.73.55,7.1.77,7.35.69,14.69,1.17,21.33,5.07A80.31,80.31,0,0,1,379,63.88c7,6.71,14,13.42,23.31,17,.41.16,1,.29.92,1.07l-2,0h0c-3.26-1.07-6.49-2.22-9.78-3.2A40,40,0,0,1,375,69c-3.89-3.74-7.7-7.59-12.21-10.63-.77-.52-1.62-.93-2.44-1.39l-.12-.08c-8.53-5.23-17.93-7.23-27.8-7.48-4.69-.13-9.31.85-14,1C321.64,49,325.07,48.5,328.46,47.79ZM309.33,54c16.37-4.51,32.54-5.23,48.26,2.54,6.5,3.49,11.74,8.58,16.92,13.67,7.7,7.56,17.41,10.56,27.56,12.73l2.09.3,1.34.79v0a.08.08,0,0,1,0,0c-6.14.51-11.64-.8-17.12-2.23-1.15-.3-2.21-.94-3.45-.88-6.55-2.42-12.16-6.35-17.36-10.9C354.48,58.58,339,54.54,322,54.91a16.84,16.84,0,0,0-5.11.11c-3.69-.12-7.37.82-11.11.19A18.1,18.1,0,0,1,309.33,54ZM285.82,64.1a11.07,11.07,0,0,1,2.36-1.49,108.82,108.82,0,0,1,13.35-5.43l16.12-1.3,5.15-.06A72.22,72.22,0,0,1,355.67,63c5.07,2.47,9.16,6.29,13.52,9.75,5.41,4.28,11.12,8.06,18,9.66,7.64,2.5,15.38,3.71,23.36,1.8l1.06-.22,2.36-.11c.19.26,1.26.28.24.86-.49.28-1,.52-1.53.78-15.85,4.77-31.26,3.84-46.12-3.65-4.86-2.45-9-6-13.39-9.15-13.81-9.89-28.77-16.21-46.24-14a64,64,0,0,0-16.36,4.45,13.26,13.26,0,0,0-4.5,1.53,3.53,3.53,0,0,1-3.2,1.07ZM413.33,87c-7.21,4.17-14.65,7.56-23.29,6.91l-7.37-.53h-.05c-4.35-1-8.82-1.44-12.86-3.6C358.84,84,347.84,78.26,337.22,71.87c-6.2-3.72-12.6-7.13-19.91-8.25a48.68,48.68,0,0,0-15.42-1.84,6.89,6.89,0,0,1-4.21-.07l3.43-.82c14-3.78,27-.55,39.69,5.38,6.79,3.16,12.22,8.24,18.35,12.33,16.7,11.14,34.62,14,53.83,7.73C413.1,86.56,413.21,86.79,413.33,87Zm-136-18.53.34.78c-2,1.88-3.63,4.15-6.12,5.5A22.92,22.92,0,0,1,277.36,68.5ZM274.14,75c4.94-4.67,10.81-7.78,17.08-10.21,9-2.91,18-2.12,27-.14,11.63,2.82,21,10.12,31.27,15.66,6.36,3.43,12.71,6.88,19.09,10.3,4.64,2.49,9.72,3.37,14.9,3.79a41.14,41.14,0,0,0,28.31-5.12c2-1.17,3.81-2.86,6.29-3.12h0a62.54,62.54,0,0,1-18.31,12.62,33.65,33.65,0,0,1-26.83.79A93,93,0,0,1,353.4,89.16c-5.54-3.76-10.65-8.16-16.73-11.08-.87-.54-1.72-1.09-2.6-1.61-8.45-5-17.83-7.09-27.41-8.27a46.88,46.88,0,0,0-32.26,7.46c-.8,1.2-2.15,1.56-3.31,2.24A9.31,9.31,0,0,1,274.14,75Zm-7.48,7.75,2.83-1.83C281.86,70.4,295.91,67,311.85,70.11A79.56,79.56,0,0,1,334,77.59h0a164.4,164.4,0,0,1,15.28,10.07,111.37,111.37,0,0,0,20.23,11.82c13.8,6.08,26.64,4.31,38.88-4l3.87-2.6c-1.63,2.8-4.14,4.61-6.43,6.63a63.73,63.73,0,0,1-14.08,6.73c-15.25,5.06-28.72,1.87-40.85-8.29-3.73-3.14-7.32-6.46-11.45-9.11a.56.56,0,0,1-.34,0l.34,0c-9.33-6.64-18.76-13-30.74-13.75-11-.64-22-.62-32.48,3.5-1.27.49-2.46,1.19-3.68,1.8h0a3.43,3.43,0,0,0-1.94,1.08l-.73.23a6.15,6.15,0,0,1-2.9,1.81C265.82,83.83,266.67,83,266.66,82.71Zm123.66,33.15a66.69,66.69,0,0,1-19.46,3.35c-13.7.64-25.68-3-35.87-12.57a139.29,139.29,0,0,0-26.43-19.21c-4.92-2.81-9.95-5.49-15.8-5.92a33.39,33.39,0,0,0-12.48.5l-4.23.46c-.69.63-1.65.31-2.41.68-.16-.22-1.06-.22-.31-.7a9.9,9.9,0,0,1,2.06-.75,1.9,1.9,0,0,0,.23-.39,4.85,4.85,0,0,0,2.74-.33,48.76,48.76,0,0,1,27.32,1.92c4,1.42,8.09,2.81,12.13,4.21,8,3.32,14.3,9.12,21.11,14.2,11,8.23,23.38,13.16,37.32,13A40.44,40.44,0,0,0,402,105.12a15.75,15.75,0,0,1,1.6-1.05l0,0,.34.27C400.61,109.62,396.37,113.72,390.32,115.86Zm2.32,1.22c-2.61.23-4.54,2.4-7.19,2.53l-3.38,1.55c-4.69,1.27-9.36,2.57-14.12,3.61a27.58,27.58,0,0,1-16.55-1.7c-1.19-.48-2.4-.9-3.6-1.34-10.9-5.26-19.59-13.56-28.63-21.27s-18.94-13.88-30.62-16.74a12.44,12.44,0,0,0-5.4-.52c1.14-1.41,2.75-.73,4.13-.83,2.08-.14,4.18,0,6.27.07A34.78,34.78,0,0,1,303,85.67a144.73,144.73,0,0,1,31.5,22.17c8.51,7.69,18.25,12.09,29.7,12.51a80.62,80.62,0,0,0,20.44-1.52c2.44-.79,4.89-1.57,7.31-2.39C392.77,116.17,392.81,116.48,392.64,117.08ZM272.78,81.18a10,10,0,0,1,3.37-1.43c12.38-4.8,25.22-5,38-2.8,9,1.52,16.36,7.08,23.9,11.93l.12.1c4.4,3.6,8.72,7.3,13.22,10.76a50,50,0,0,0,10.47,6.49c14.13,6.17,27.47,3.16,40.46-3.6a3.32,3.32,0,0,1-1.63,2.19A41.44,41.44,0,0,1,370.81,113c-13.22-1.3-24.57-6.94-34.64-15.36-6.59-5.51-13.56-10.31-21.85-12.91-2.26-.79-4.54-1.55-6.79-2.38-10.17-3.74-20.51-4.71-31.07-1.89l-.87.77C274.67,80.55,273.71,82,272.78,81.18Zm8.68,6.28h0l-5.91-.78c-4.83-.31-9.33.94-13.73,2.77-.84.35-1.63,1.25-2.72.66,3.73-2.89,8.14-4,12.66-4.77l2.56.33A14.94,14.94,0,0,1,280.91,87c.18.08.36.18.54.28l.36.18Zm-5.73-2.55c-.6-.07-1.23-.1-1.38-.88,4.45-.61,8.85,0,13.18.86,11.75,2.26,21.33,8.54,30.24,16.24,7.2,6.22,14.43,12.43,22.37,17.73a35.32,35.32,0,0,0,3.4,1.77h0l1.47.8a6.15,6.15,0,0,0,.76.4c6.36,3.31,13,5.69,20.47,4.26,5.46-1,10.95-2,16.06-4.33,3.56-1.31,7.21-2.41,10.35-4.65.76.33,1.23-.89,2.07-.38a6.89,6.89,0,0,1-2.56,2.47c-3.4,2.19-6.92,4.21-10.21,6.55-6.67,4.75-14.11,6.9-22.21,7.42-9,.59-17.08-1.14-23.58-7.95-5.11-5.35-10.36-10.56-15.54-15.84S310.31,99,304.17,95a34.25,34.25,0,0,0-11.25-5.91A82.72,82.72,0,0,0,275.73,84.91ZM316.47,110c-2.59-3.14-5.4-6.11-8.1-9.15-1.54-1.26-2.85-2.8-4.63-3.75l-4-2.56-3-2.19c2.45.47,4,1.7,5.69,2.46,1,.8,2,1.6,3.05,2.41,3.15,1.65,5.44,4.34,7.89,6.77,7.28,7.19,14.33,14.61,21.59,21.81,4,4,8.45,7.37,14.33,8.1,11.7,1.44,22.81.18,32.8-6.79,3.27-2.27,6.77-4.21,10.62-6.59a10.19,10.19,0,0,1-.8,1.92c-6.12,7.72-13.31,14.46-22.69,17.58-14.31,4.77-26.86,1-36.78-10.44C326.92,123.2,321.84,116.47,316.47,110Zm17.22,23.66c-.17-.26-.3-.65.15-.87a4.87,4.87,0,0,1,1.06.66c5.17,5.68,11.79,8.46,19.23,9.33,16.44,1.93,27.54-7.34,37.78-18.29a7.76,7.76,0,0,0,1.32-2.2,23.44,23.44,0,0,1,3.6-5.61l-.12,1.54c-3.28,6.42-6.1,13.08-10.14,19.09-.54.54-1.12,1.05-1.61,1.62-6.11,7.14-14,11-23.19,12-5.48.64-10.87.11-15.55-3.14C340.9,144.13,337.33,138.84,333.69,133.63Zm63.62-16.29a2.41,2.41,0,0,1-.52.73C397,117.83,397.14,117.59,397.31,117.34ZM337.74,141c3.65,4.64,7.49,9.06,13.67,10.34,12.13,2.49,22.59-.89,31.67-9.08a5.73,5.73,0,0,1,2.68-2.28c-1.16,1.52-1.63,2.91-2.82,3.84h0l-2.35,2.91c-3.84,2.54-7.4,5.51-11.72,7.29-7.13,2.93-14.24,3.32-21.37,0a32.27,32.27,0,0,1-9.13-10.22C337.92,143.05,336.73,142.21,337.74,141Zm32,18.62-5.87,2.05a44.83,44.83,0,0,1-6.12-.26c-5.68-.86-10-4.05-13.91-7.92a6,6,0,0,1-2.16-3,10.08,10.08,0,0,1,3.29,2.91c2,.94,3.59,2.65,5.9,2.91H351a28.31,28.31,0,0,0,20.59-2.53,40.09,40.09,0,0,0,6.45-4.16c.44-.35.81-1.16,1.61-.54A43.32,43.32,0,0,1,369.77,159.64Zm2.79-.85c6-5.4,10.29-12.07,14.2-19,1.24-1,1.66-2.57,2.4-3.9,4.43-7.94,8.18-16.25,12.88-24.05,2.53-4.18,4-8.91,7.37-12.66s6.55-7.93,9.94-11.79c1.19-1.35,2.09-3.1,4.23-4a11.55,11.55,0,0,1-.6,1.45c-3.92,6.65-5.24,13.79-4.86,21.51.54,10.86,1.77,21.84-2.4,32.37-5,10.71-11.78,19.32-24.37,21.33-6.55.1-13.12-.63-19.67.19C371.16,159.27,372.15,159.15,372.56,158.79Zm26.2,28.53c-4.76-3.55-7.73-8.43-10.25-13.66a21.86,21.86,0,0,0-7.44-8.87,8.31,8.31,0,0,1-3.95-2.41c2.05.5,4.08,1,5.67,2.49,5.25,2.79,9.29,6.91,12.89,11.55,4.46,5.74,8.73,11.7,15.67,15A21.39,21.39,0,0,1,398.76,187.32Zm16.94,4c-6.65-1.73-11.52-6-15.54-11.33-5.93-7.92-12.35-15.25-22.09-18.74a3.76,3.76,0,0,1,2.88-.12,44.77,44.77,0,0,1,21.11,14.62A48.21,48.21,0,0,0,414,187a59.73,59.73,0,0,0,9.79,4.64A16.28,16.28,0,0,1,415.7,191.28Zm3.06-3c-6.67-3.28-11.67-8.39-16.32-14-4.31-5.16-9.33-9.35-15.66-11.83-.32-.13-.65-.25-.45-.77a8.2,8.2,0,0,1,3.75.08l9,5.3A155,155,0,0,1,412.48,178c5.07,4.5,10.66,8.16,17.47,9.45,2.32.44,4.7.64,7.31,1C430.88,191.57,424.88,191.27,418.76,188.25ZM434.67,187c-8.83-.69-15.87-5-22.28-10.76a76.69,76.69,0,0,0-11.51-9c-2.07-2-5-2.82-7.35-4.64,1.38-.88,2.32.26,3.39.24l.84.24a1.79,1.79,0,0,1-.46-.09l4.93,2h0a79.5,79.5,0,0,1,19.93,13.18,27.48,27.48,0,0,0,19.6,7.17c.83,0,2.07-.79,2.57.7A25.24,25.24,0,0,1,434.67,187Z" transform="translate(0 -30.53)"/></g></g></g></svg>