<svg xmlns="http://www.w3.org/2000/svg" xmlns:xlink="http://www.w3.org/1999/xlink" viewBox="0 0 308.81 173.35"><defs><style>.cls-1{fill:none;}.cls-2{clip-path:url(#clip-path);}.cls-3{fill:#9f8778;}</style><clipPath id="clip-path" transform="translate(119.82 -21.92)"><rect id="SVGID" class="cls-1" width="226.63" height="209.05"/></clipPath></defs><g id="圖層_2" data-name="圖層 2"><g id="圖層_2-2" data-name="圖層 2"><g class="cls-2"><path class="cls-1" d="M45.68,65.86a25.64,25.64,0,0,0,7.58,2.71c4.6.94,9.23,1.77,13.84,2.65a20.33,20.33,0,0,1,8.18,3.38l.06.05,3.74,2.57c-.09-1.12-.93-1.68-1.42-2.41-3.29-4.92-8-7.52-13.71-8.65a31.61,31.61,0,0,0-7-1c-4.24.11-7.58-1.81-10.67-4.43a9.6,9.6,0,0,0-4.9-2.32c-.68-.1-1.53-.26-2,.24s.48,1,.51,1.64A16.72,16.72,0,0,0,45.68,65.86Z" transform="translate(119.82 -21.92)"/><path class="cls-1" d="M67.06,64.08c-2.85-.22-5.7-.46-8.55-.62a37.47,37.47,0,0,1-8.94-1.71l0,.06.63.84c2.14,1.49,4.64,1.5,7.09,1.73a48.61,48.61,0,0,1,11.07,2.27A20.17,20.17,0,0,1,78.39,74.6,22.85,22.85,0,0,0,82.93,80c-1.64-4.13-2.73-8.49-5.7-12C74.36,65.4,70.85,64.37,67.06,64.08Z" transform="translate(119.82 -21.92)"/><path class="cls-1" d="M-70.9,122.34l-.07-.07c-.41-.46-.87-.9-1.25-1.39a63.33,63.33,0,0,1-5.49-9.29A26.52,26.52,0,0,0-86.06,102c-1.87-1.31-3.67-2.71-5.51-4.07h0l-1.25-.4c-.24.47.12.69.35.87,5.12,4.22,8.14,9.93,11.17,15.65a52.91,52.91,0,0,0,6.85,10.22c3.37,3.87,7.92,5.71,12.42,7.69,1.45.63,3,.94,4.32,2,1.71,0,3.29.7,5,.89a34,34,0,0,0,6.91.42c-3-.88-6.12-1.23-9-2.29C-61.08,130.68-66.61,127.44-70.9,122.34Z" transform="translate(119.82 -21.92)"/><path class="cls-1" d="M60.76,62.91a65.38,65.38,0,0,1,9.58.89c3.48.65,6.52,2.07,8.55,5.15h0c2.5,3.35,3.53,7.39,5.22,11.12a27.76,27.76,0,0,0,4.33,7.12A24.46,24.46,0,0,0,93,91.87c.92.12,1.5,1.06,2.57,1L94.78,92l-4.75-4a10.86,10.86,0,0,1-2.51-4.92c-1.61-5.2-3.79-10.19-5.29-15.42a12.31,12.31,0,0,0-8.15-8.62c-1.17-.25-2.33-.56-3.51-.73a42.61,42.61,0,0,0-9.24.18,19.11,19.11,0,0,1-4.38.8,22.57,22.57,0,0,1-10.38-.21L48,60.37A33.89,33.89,0,0,0,60.76,62.91Z" transform="translate(119.82 -21.92)"/><path class="cls-1" d="M61.19,57.06l6.11-3.34a10.18,10.18,0,0,1,6.61-3.09c7.75-2,19.87,5.55,19,16.25-.22,2.56-.21,5.15-.22,7.72,0,4.59,1.18,9,2.54,13.28a3.31,3.31,0,0,0,1,2,1.82,1.82,0,0,0-.22-1.83c-1-6.83-1.64-13.66-.21-20.52a16.67,16.67,0,0,0,.22-2.92c.31-8.78-4.59-15.16-13.18-17.14-.27-.06-.55-.15-.82-.22-.73-.07-1.47-.1-2.2-.2a12.85,12.85,0,0,0-9.93,2.81c-2.79,2.18-5.61,4.31-8.42,6.46a1.46,1.46,0,0,0-.39.25c-.7.36-1.62.5-1.64,1.61A3.83,3.83,0,0,0,61.19,57.06Z" transform="translate(119.82 -21.92)"/><path class="cls-1" d="M52.4,80.55a27.35,27.35,0,0,1,4.79-.18,32.66,32.66,0,0,1,12.88-.16c2.26.49,4.46,1.29,6.71,1.87.36.1,1,.89,1.28-.12a13.3,13.3,0,0,1-2.79-1.54,25.29,25.29,0,0,0-12.34-3.24c-2.29,0-4.58.23-6.88.23-4.13,0-8.26-.1-12-2.35-5.09-2.53-7.55-6.94-8.75-12.32-.17.14-.38.23-.38.33-.12,2.83-.5,5.64,1,8.31C39.68,77.7,45,80.92,52.4,80.55Z" transform="translate(119.82 -21.92)"/><path class="cls-1" d="M44.36,84.89c.62.26,1.18,0,2-.17a4.22,4.22,0,0,0-2.32-.57c-5.67-1.48-9.94-4.52-11.65-10.42-.33-1.13-.7-1.28-1.49-.28-1.78,2.2-1.67,3.72.08,5.9C34.48,83.67,39,85.14,44.36,84.89Z" transform="translate(119.82 -21.92)"/><path class="cls-1" d="M43.71,74.25h0a23.91,23.91,0,0,0,7.16,2.16,71.44,71.44,0,0,0,11.61,0,26.81,26.81,0,0,1,11.24,2.55c.4.21.79.45,1.19.67h0l.93.16c-.13-.53-1-.58-.74-1.29a1.16,1.16,0,0,1,.24.2c.5-.35.72.1,1,.36a5.8,5.8,0,0,1,2.46,2.11,44.91,44.91,0,0,0,8.59,6.5C84.12,83,80.79,79,76.41,76.07h0c-4.1-2.95-8.81-4.22-13.72-5A100.89,100.89,0,0,1,51.42,68.8c-4.28-1.18-8.2-2.92-10.92-6.65-.2-.28-.42-.57-.84-.37,1.17,5.15,5,7.79,9.34,10,4.53,2.33,9.48,2.82,14.46,3.14a29.27,29.27,0,0,1,8.09,1.33,6.65,6.65,0,0,1,3.3,2h0l0,0c-.31.32-.7.09-.91,0-3.6-2.28-7.65-2.49-11.72-2.6-4.34-.42-8.66-.9-12.69-2.77-5.52-2.57-10.11-5.95-11-12.59,0-.35,0-1-.6-.8-.83.23-1.72.58-1.81,1.6a9.59,9.59,0,0,0,.43,3.39A16.88,16.88,0,0,0,43.71,74.25Z" transform="translate(119.82 -21.92)"/><path class="cls-1" d="M31,83.25c4.87,4.85,10.92,5.43,17.27,4.38,3.05-.5,6-1.35,9.06-2a34.26,34.26,0,0,1,24.2,3.1c2.18,1.13,4.44,2.12,6.66,3.17l6,2c.11-.49-.25-.72-.54-1A19.65,19.65,0,0,1,91,91.29a74.93,74.93,0,0,0-11-7.2c-4.64-1.8-9.32-3.32-14.4-2.33-7.73,1.89-15.43,3.89-23.5,3.82-5.28,0-9.16-2.48-12.33-6.43-.28-.35-.36-1.16-1.06-.85s-.53,1-.42,1.53C28.61,81.4,30,82.23,31,83.25Z" transform="translate(119.82 -21.92)"/><path class="cls-1" d="M43,82.35a23.17,23.17,0,0,0,2.51-.23c1.1-.22,2.39.24,3.25-.85A16.06,16.06,0,0,1,40,77.5a18.88,18.88,0,0,1-6.12-9.37C31,74.8,37.33,82.39,43,82.35Z" transform="translate(119.82 -21.92)"/><path class="cls-1" d="M87.86,63.36A29.2,29.2,0,0,1,91,73a5.68,5.68,0,0,0,.36,1.13C94.79,60.44,87.1,50.5,73.93,51.23a15.31,15.31,0,0,0-4,1.49c-.49.34-1.39.37-1.19,1.33C75.8,52.46,84.49,56.67,87.86,63.36Z" transform="translate(119.82 -21.92)"/><path class="cls-1" d="M57.23,80.91A59.09,59.09,0,0,1,50.49,82a23.67,23.67,0,0,1-5.15.91c-.38,0-1.11-.37-1.13.54a19.18,19.18,0,0,0,8.43.08c3.56-.81,7.14-1.5,10.71-2.2a17.93,17.93,0,0,1,2.2-.15l.72-.26L68.1,81c0-.18,0-.36,0-.53a2.9,2.9,0,0,0-1.89-.11A55.19,55.19,0,0,0,57.23,80.91Z" transform="translate(119.82 -21.92)"/><path class="cls-1" d="M76.22,87.27C69.71,84.88,63.1,85,56.44,86.61c-4.67,1.14-9.28,2.53-14.2,2.19-3.45-.24-6.68-.93-9.47-3.09-.28-.21-.57-.39-.86-.57-.07,0-.18,0-.52-.08a10.35,10.35,0,0,0,4.79,3.88A24.57,24.57,0,0,0,48.66,90.4c4.79-.53,9.51-1.47,14.25-2.26,6.8-1.13,13.2.23,19.46,2.76a.89.89,0,0,0,.32,0l2.56.75a5.42,5.42,0,0,0-3.13-1.78C80.16,89,78.23,88,76.22,87.27Z" transform="translate(119.82 -21.92)"/><path class="cls-1" d="M87.83,65.12a17.66,17.66,0,0,0-19-10.27c-2.4.44-4.42,1.81-6.64,2.69.61.36,1.23.06,1.85,0,3.25-.18,6.51-.39,9.66.76,4.81,1.24,7.78,4.38,9.35,9,1.79,5.25,3.61,10.49,5.37,15.75a12.6,12.6,0,0,0,3.64,5.72c1.3,1.13,2.62,2.23,3.93,3.34l.27-.44c-2.91-4-3.76-8.82-4.94-13.47C90.26,73.83,89.62,69.34,87.83,65.12Z" transform="translate(119.82 -21.92)"/><path class="cls-1" d="M-34.69,126.44c-5.81-2.75-11.31-6-15.59-11-.45-.51-.87-1-1.31-1.56-3.23-3.12-5.54-7-8.25-10.51A61.54,61.54,0,0,0-70,92.73,22.42,22.42,0,0,0-87.15,87.6a41.72,41.72,0,0,0-14.22,4.14c1.62.36,3.12-.33,4.63-.65a27.35,27.35,0,0,1,19,2.7,24.71,24.71,0,0,1,8.63,5.52q5,5.25,9.91,10.52c5.33,5.66,9.73,12.24,16.49,16.46,5.28,3.14,10.8,5.53,17.09,5.57A33.94,33.94,0,0,0-12.71,129a6.28,6.28,0,0,0,2.55-1.22,5.63,5.63,0,0,0-2.56.72A31.25,31.25,0,0,1-34.69,126.44Z" transform="translate(119.82 -21.92)"/><path class="cls-1" d="M-16.1,132.4a15.41,15.41,0,0,0,5-2.76c-1.86.33-3.37,1.42-5,2.19C-16.13,132-16.11,132.21-16.1,132.4Z" transform="translate(119.82 -21.92)"/><path class="cls-1" d="M-22.37,132.94a8.89,8.89,0,0,1-3.17,0,42.19,42.19,0,0,1-11.28-.62c-11.51-2.24-19.65-9.38-26.31-18.53-2.12-2.91-4-6-6.54-8.59-7.83-7.85-17.38-11.68-28.4-12-.38.05-.76.09-1.13.17-.77.15-.1.39,0,.59l1.51.43.72.08c5.45.47,10.09,2.86,14.39,6,4,2.45,6.82,6,9.35,9.88,2,3.1,3.81,6.37,6.5,9a48,48,0,0,0,19.28,11.45l3.26,1.05,10.47,2.56a75,75,0,0,0,9.58-.64,6.89,6.89,0,0,0,1.8-.45l2.24-.47A2.34,2.34,0,0,0-22.37,132.94Z" transform="translate(119.82 -21.92)"/><path class="cls-1" d="M-47.16,131.63c-10.82-3.33-19.78-9.14-25.65-19.12A37.22,37.22,0,0,0-81.5,102a7.75,7.75,0,0,1-2-1.28c-3.16-2.06-6.36-4-10.36-5,0,0,0,0,0,0h0l.67.78,1.27.63c6,3.5,11.47,7.43,14.75,13.83,2.21,4.31,4.46,8.62,7.83,12.19,8.31,8.21,18.69,11.15,30,11.73a11.24,11.24,0,0,0,2.52,0c-2.23-1.18-4.76-1.36-7.07-2.21A11.24,11.24,0,0,1-47.16,131.63Z" transform="translate(119.82 -21.92)"/><path class="cls-1" d="M-65.7,108.85c3,3.88,5.39,8.23,9,11.65,6.79,6.41,14.33,11.18,24,11.73l2.34.19A4.61,4.61,0,0,0-33,131.5a32.15,32.15,0,0,1-9.37-4.4c-4.39-2.24-7.72-5.74-10.86-9.39-5.38-6.27-11.13-12.18-16.81-18.17-2.1-2.21-4.83-3.45-7.38-5h0L-82,92.68c-5.33-2.22-10.74-1.64-16.18-.52l.08.52C-84.64,92.73-73.92,98.31-65.7,108.85Z" transform="translate(119.82 -21.92)"/><path class="cls-1" d="M73.75,58.33a.5.5,0,0,0,.09.21Z" transform="translate(119.82 -21.92)"/><path class="cls-1" d="M-51.06,106.53l.22.07A.47.47,0,0,0-51.06,106.53Z" transform="translate(119.82 -21.92)"/><path class="cls-1" d="M68.36,95.06c-7.08-.76-13.88.82-20.62,2.64a21,21,0,0,1-16.38-2.1c-.4-.22-.83-.38-1.41-.64l.33.73a.43.43,0,0,1,.13.28c4.67,4.76,10.62,5.2,16.76,4.9a64.79,64.79,0,0,0,17.45-3.66,30,30,0,0,1,5.27-1.46C69.85,94.52,68.86,95.11,68.36,95.06Z" transform="translate(119.82 -21.92)"/><path class="cls-1" d="M-6.36,125.11a4.06,4.06,0,0,0-2.21.53h-.51a2.36,2.36,0,0,1-1.45.27h0c-.9.13-1.8.32-2.71.37-7.5.4-14.43-1.89-21.27-4.6-7.43-3-12.05-9-16.55-15.15a75.64,75.64,0,0,1-5.34-8.15c-5.53-9-13.38-13.81-24.08-13.81A42.66,42.66,0,0,0-90.8,85.86c-1.87.8-3.84,1.42-5.45,2.85l3-.83c9.48-2.7,18-1.13,25.43,5.61a74.06,74.06,0,0,1,10.31,11.72A108.69,108.69,0,0,0-50,114.78h0a52.66,52.66,0,0,0,12.4,9.36c9.44,5.3,19,6.11,29.05,2.08l2.17-.57C-6.29,125.46-5.58,125.12-6.36,125.11Z" transform="translate(119.82 -21.92)"/><path class="cls-1" d="M-1.86,122.42a20.13,20.13,0,0,1-9.26-1.13l-3.57-1.73h0l-.21-.1.18.19c.1.1.19.2.29.29a10.09,10.09,0,0,0,3.89,2.26l1.55.74c3,.45,6,.69,9-.36C-.57,122-1.26,122.37-1.86,122.42Z" transform="translate(119.82 -21.92)"/><path class="cls-1" d="M83.1,46.81c4.31.79,7.58,3.25,10.4,6.48,3.49,4,3.67,8.72,3.21,13.6-.18,1.94-.44,3.87-.71,5.8-.79,5.75.45,11.35,1.22,17A1.48,1.48,0,0,0,98,91.05a2.36,2.36,0,0,0-.16-1.62,48.12,48.12,0,0,1,2.6-16.72,27.42,27.42,0,0,0,.07-16.24,11.36,11.36,0,0,0-6.78-7.71c-3.49-1.47-7.06-2.69-10.93-2.54-.59-.46-1.35-.17-2-.44h0c-1,.18-2.15-.27-3.45.31,1.62.41,3.13.12,4.49.65Z" transform="translate(119.82 -21.92)"/><path class="cls-1" d="M124.25,151.2c-.8-7.6-3.61-14.1-10.1-18.63-1.87-1.3-3.66-2.73-5.49-4.1-1.07.65.11.94.29,1.15,2,2.4,4.15,4.73,6.23,7.1a33.06,33.06,0,0,1,8.14,20.34c.06.86.16,1.71.24,2.57a7.56,7.56,0,0,0,.45,3.79,11,11,0,0,0,.2-4.08c.05-2.37.11-4.75.16-7.13Z" transform="translate(119.82 -21.92)"/><path class="cls-1" d="M83.73,113.05c-1.78.41-3.55.86-5.33,1.29,1.1.52,2.26.22,3.39.23,4.5,0,9-.86,13.51.21h0c9.25,1.18,17.79,4,24.29,11.12a24.87,24.87,0,0,1,5,8.54l3.18,9c.41-4.45-.79-8.16-2.19-11.84C118.51,116.63,98.89,109.55,83.73,113.05Z" transform="translate(119.82 -21.92)"/><path class="cls-1" d="M87.06,115.48c12.22.91,22.81,5.32,31.1,14.58a50.29,50.29,0,0,1,7.22,10.37c.06.83.69,1.4.93,2.15.56-.86,0-1.5-.42-2.18-2.2-7.87-5.64-14.88-13-19.27a45,45,0,0,0-15-5.37l-2.52-.5c-2.77-.12-5.53-.73-8.33-.3-1.07,0-2.18-.25-3.15.45A9.58,9.58,0,0,0,87.06,115.48Z" transform="translate(119.82 -21.92)"/><path class="cls-1" d="M110.08,124c-6.74-4.84-14.43-7-22.62-7.7-.67-.06-1.35,0-2,0-.83-.56-1.8-.16-2.69-.36l-.16,0h0l-6.21-.07h0c.48.9,1.31.33,2,.46a16.18,16.18,0,0,0,2,.15l5.42.59a43.52,43.52,0,0,1,8,2.17,62.64,62.64,0,0,1,9.74,2.91c.16.23.49.39.32.76-2.31-.75-4.61-1.51-6.92-2.23-.26-.09-1.07-.69-.56.4l2.32,1.48h0c2.5.49,4.53,2,6.73,3.12a75.56,75.56,0,0,1,7.85,5.25c1.78,1.65,4.09,2.62,5.72,4.47a32.63,32.63,0,0,1,4.46,8.2,19.38,19.38,0,0,1,1.56,8.64l-.09,8.07c.88-.12.68-.91.81-1.43,1.13-4.31,1-8.72,1-13.12A45,45,0,0,0,110.08,124Z" transform="translate(119.82 -21.92)"/><path class="cls-1" d="M115.37,161.75a17.44,17.44,0,0,0-.9-5.22,87.15,87.15,0,0,0-5.38-13.36A57.32,57.32,0,0,0,91,126.08c-3.19-1.9-6.42-3.75-9.63-5.62L80,120c1.91,2.41,4.58,3.89,6.75,6,.68-.23,1,.36,1.48.65,5,3.25,9.4,7.31,13.91,11.22a23.38,23.38,0,0,1,6.7,10,47.24,47.24,0,0,1,2.5,9.81c.77,6.08,1.75,12.14.7,18.29a20.72,20.72,0,0,1-3.25,10c-.22.57-.82,1-.82,1.78a19.53,19.53,0,0,0,4.4-2.81,6.78,6.78,0,0,1,1.24-2,.86.86,0,0,1,.33-.76,33.08,33.08,0,0,0,1.82-11C115.7,168,115.46,164.9,115.37,161.75Z" transform="translate(119.82 -21.92)"/><path class="cls-1" d="M121.47,158.24c-1.15-5.28-2.65-10.44-5.5-15.1l.69.18-.13-.27.13.27a40.63,40.63,0,0,1,5.27,14c.22.9,0,2,.9,2.6a5.21,5.21,0,0,0-.27-2.38c-.48-5.26-1.2-10.47-4.19-15a86.18,86.18,0,0,0-14.6-16.94l0,0-3.67-1.82-.17,0c-.11.35.18.53.39.74l7.89,8-.5,0,.15.17a.65.65,0,0,1-.15-.17c-3.85-3.27-7-7.25-11.27-10.1a35.38,35.38,0,0,0-16-5.49,22.62,22.62,0,0,1-4.43-.15,5.41,5.41,0,0,1-2-.9l-2,.23,0,.29,4.36,1.08c3.51,1.61,7.35,2.17,11,3.47a48,48,0,0,1,24,18.57c3,4.45,6.09,8.9,7.57,14.19.16.6.29,1.21.44,1.82a28.3,28.3,0,0,1-.65,20.6c3.47-4.66,6.24-9.45,3.47-15.45C121.89,159.9,121.65,159.08,121.47,158.24Z" transform="translate(119.82 -21.92)"/><path class="cls-1" d="M119.35,158.77c-.29-1-.43-2.13-.64-3.19a58.08,58.08,0,0,0-19.23-27.27c-4.46-3.54-9.6-5.54-14.9-7.32-.52-.62-1.3-.62-2-.82.47,1,1.41,1.2,2.31,1.5a6.35,6.35,0,0,0,1,.7,67.36,67.36,0,0,1,12.77,8.26,46.76,46.76,0,0,1,11.26,12.76c2.35,3.9,3.63,8.24,5.22,12.45a18.38,18.38,0,0,1,1.11,5.53c.12,2.5.31,5,.37,7.52.11,4.4,0,8.79-1.92,12.9,1.36-.36,1.61-1.66,2-2.67.85-1.94,1.5-4,2.18-6A24,24,0,0,0,119.35,158.77Z" transform="translate(119.82 -21.92)"/><path class="cls-1" d="M78.16,104.72c-6.91,3.88-14.4,6-22.16,7.24a.27.27,0,0,1-.42.15c.13.83.85.55,1.31.6a20.48,20.48,0,0,0,11.33-2c4.68-2.27,9.44-4.33,14.25-6.3,3.32-1.36,6.63-2.86,10.36-2.66a39,39,0,0,1,10.45,1.19l-1.4-1.2a11.5,11.5,0,0,0-3.82-1.82,24.4,24.4,0,0,0-9.92,1.32C84.8,102.36,81.48,103.55,78.16,104.72Z" transform="translate(119.82 -21.92)"/><path class="cls-1" d="M79.75,103.25c.89.38,1.59-.22,2.34-.46,3.31-1.08,6.46-2.66,9.93-3.23,1.24-.2,2.5-.23,3.75-.38,1-.12,0-.43,0-.66l-.09,0h0C89.47,97,84.42,99.45,79.75,103.25Z" transform="translate(119.82 -21.92)"/><path class="cls-1" d="M92.18,108.87c-6.18.56-11.94,2.63-17.7,4.75a4.21,4.21,0,0,0-2.54,1.06,5,5,0,0,0,2.59-.42c4-.64,7.89-2,11.94-2.5a40.93,40.93,0,0,1,30.42,8.1c.4.29.72.75,1.43.73a9,9,0,0,0-2.11-2.84C109.74,110.65,101.6,108,92.18,108.87Z" transform="translate(119.82 -21.92)"/><path class="cls-1" d="M86.15,103.66h0a62.7,62.7,0,0,0-8,3.22q-6.36,2.85-12.72,5.7a4.09,4.09,0,0,1-1,.14h0c-.7,0-1.44,0-1.89.7l1.94-.15c3.82-.29,7.06-2.12,10.31-3.91l3.15-1.72h0c2.74-1.18,5.44-2.48,8.28-3.43,5.57-1,11.13-1.19,16.6.52,1.5.47,2.92,1.17,4.6,1.84a5.8,5.8,0,0,0-2.64-2.27,41.32,41.32,0,0,0-11.87-2.06A17.23,17.23,0,0,0,86.15,103.66Z" transform="translate(119.82 -21.92)"/><path class="cls-1" d="M101.88,101.72l.4.17A1.1,1.1,0,0,0,101.88,101.72Z" transform="translate(119.82 -21.92)"/><path class="cls-1" d="M32.26,108.24c5.58,1.7,10.94.83,16.21-1.37-5.68.44-11.24-.05-16.22-2.94-5.14-3-8.17-7.58-8.6-14.17a9.47,9.47,0,0,0-1.44,4.95C22.12,101.32,25.84,106.29,32.26,108.24Z" transform="translate(119.82 -21.92)"/><path class="cls-1" d="M16.68,101c1.87,4.2,4.95,7.28,9.61,8.37a17.12,17.12,0,0,0,6.5.34C24,106.84,19,99.3,22.06,89.93,16.87,92.59,14.75,96.68,16.68,101Z" transform="translate(119.82 -21.92)"/><path class="cls-1" d="M108,185.28c.85.05.87-.71,1.14-1.19,1.38-2.53,1.62-5.38,2.23-8.12a72,72,0,0,0-3-26.67,24.89,24.89,0,0,0-8-12c-3.57-3-7-6.15-10.75-8.85-.88-.62-2-.87-2.71-1.74.1,1.45,1.46,2,2.17,3.06s1.89,1.9,2.55,3.1v0c2.76,3.08,6.33,5.33,9,8.46,5.55,6.47,7.59,14.47,9.3,22.57.77,3.25.35,6.49,0,9.73C109.52,177.54,109.29,181.5,108,185.28Z" transform="translate(119.82 -21.92)"/><path class="cls-1" d="M12.18,101.27a14.37,14.37,0,0,0,12.15,11.55,43,43,0,0,0,20.09-2.58,7.15,7.15,0,0,0,2.81-1.4,5.58,5.58,0,0,0-2.63.63,50.66,50.66,0,0,1-15.52,1.34c-5.93-.29-10.08-3.42-12.92-8.41a8.66,8.66,0,0,1,.29-9.22A7.16,7.16,0,0,0,12.18,101.27Z" transform="translate(119.82 -21.92)"/><path class="cls-1" d="M43.9,105.86a31.77,31.77,0,0,0,16.49-4.1c2.32-1.29,4.65-2.54,7.24-4a3.84,3.84,0,0,0-2.84.35,63.92,63.92,0,0,1-21.4,3.74c-9.22-.16-15-4.18-18.29-12.8-.59,1.67.16,5.48,1.51,7.75C30.51,103.44,36.7,105.7,43.9,105.86Z" transform="translate(119.82 -21.92)"/><path class="cls-1" d="M47.36,97c2.26-.63,4.56-1.17,6.85-1.67a44.54,44.54,0,0,1,17.06-.72c2.16.09,4.2-.64,6.3-.94.1-.58-.34-.48-.65-.49-6.86-.28-13.71-1.07-20.59-.22-3.55.43-6.88,1.76-10.38,2.35-6,1-11.69.44-16.46-3.81a33.5,33.5,0,0,1-2.93-3.34c-.59,1.6.68,2.71,1.05,4.06C33.49,96.77,39.88,99.11,47.36,97Z" transform="translate(119.82 -21.92)"/><path class="cls-1" d="M43.63,95a19.44,19.44,0,0,0,4.87-1c6.61-2.08,13.37-2.38,20.22-1.91,3.65.25,7.29.48,10.94.71a12,12,0,0,1,4.62.26h0l.77-.11a4.59,4.59,0,0,0,2,0A3.48,3.48,0,0,0,85,92.3c-2.72-.84-5.45-1.65-8.16-2.52-7-2.23-13.93-1-20.89.32-4.33.81-8.7,1.59-13.14,1.21-5.7-.49-10.61-2.4-13.46-7.83-.53-1-1.22-1.6-2.09-.26-1,2.34-.25,4.29,1.24,6.16C32.43,94.32,37.81,95.24,43.63,95Z" transform="translate(119.82 -21.92)"/><path class="cls-1" d="M109.45,163.93c-.83-5-2.7-9.68-4.44-14.4a22,22,0,0,0-6.89-9.85l-.33-.37c-1.54-1.68-3.38-3-5.07-4.56l-.7-.7c-.09-.67-.76-.9-1.07-1.4h0l-6.11-7c.3,1.14,1.2,1.62,1.33,2.51a40.36,40.36,0,0,0,4.66,5.53A122.54,122.54,0,0,1,99,144.11a54.4,54.4,0,0,1,9,23.08h0c.56,2.67.2,5.37.34,8.05a9.28,9.28,0,0,0-.22,3.06c-.06,4.12-1.76,7.73-3.47,11.34h0c3.72-4.23,3.86-9.52,4.38-14.71C109.44,171.27,110.09,167.62,109.45,163.93Z" transform="translate(119.82 -21.92)"/><path class="cls-1" d="M52,108.19c-.36-.36-.57.26-.9.13h0l-2.55,1.87h0a43.38,43.38,0,0,1-14.26,6.58c-5.63,1.28-11.23,1.56-16.56-1.3a15.82,15.82,0,0,1-6.74-6,23.13,23.13,0,0,1-3-6.84c-.08-.83-.17-1.66-.26-2.49a4,4,0,0,0-.39,2.54,16.48,16.48,0,0,0,5.3,11.53c1.51,1.48,3.13,2.84,4.74,4.21a13.14,13.14,0,0,0,11.76,2.8c6.25-1.37,12.1-3.8,17-8.16.3-.87,1.42-.78,1.83-1.52l.72-.35,3.36-3Z" transform="translate(119.82 -21.92)"/><path class="cls-1" d="M37.1,119.38c-3.7,1.38-7.32,3-11.42,2.77A14.56,14.56,0,0,1,17,119c-3.26-2.69-6.61-5.3-8.87-9.08.21,1.55.41,3.1.62,4.66h0c.71,2.51,2.35,4.47,3.84,6.51,5,4.68,10.65,5.28,16.84,2.81a51.46,51.46,0,0,0,7.51-3.73,9.44,9.44,0,0,0,2.6-1.39c0-.17,0-.34-.07-.52Z" transform="translate(119.82 -21.92)"/><path class="cls-1" d="M16.36,113.94l.77.53a31.17,31.17,0,0,0,4.43,1.81c7.81,1.81,15,0,21.82-3.76,1.28-.63,2.78-1,3.46-2.45l-3.28,1.68c-6.13,1.52-12.29,2.81-18.67,2.1-6.15-.69-10.32-4-12.78-9.62-1.59-3.59-1.55-7,1.26-10.13-2.37,0-4,1.79-4.86,5.26.11,4.68,2.13,8.56,5,12.12Z" transform="translate(119.82 -21.92)"/><path class="cls-1" d="M11.08,120.66h0a28.12,28.12,0,0,0-8.65,2.16c0,.25.17.28.34.25a37.92,37.92,0,0,1,11,.3A13.3,13.3,0,0,0,11.08,120.66Z" transform="translate(119.82 -21.92)"/><path class="cls-1" d="M176.47,60c-1.19,1.61-2.36,3.24-3.47,4.9a81.2,81.2,0,0,1-7.85,9.78c-4.4,4.77-10.17,6.38-16.29,7.27-3.62.53-7.32.42-10.88,1.43l-5.29.9a32.24,32.24,0,0,0-9.89,4.6c0,.16-.6.76.16.43,1.57-.67,3.43-.83,4.56-2.38.13-.18.51-.18.77-.27,3-1.38,6.35-1.77,9.57-2.51,4.17-.23,8.35-.7,12.52-.64,7.13.1,12.93-2.85,18.36-7.09a41.44,41.44,0,0,0,11-12.79,3,3,0,0,0-1.38-4.27A1.44,1.44,0,0,0,176.47,60Z" transform="translate(119.82 -21.92)"/><path class="cls-1" d="M64,107.88l-6.47,2.78a18.42,18.42,0,0,0,5.89-.91A43.23,43.23,0,0,0,81.27,101h0c2.2-1.28,4.3-2.73,6.84-3.31a17.82,17.82,0,0,1,6.59-.23L94.64,97a13.49,13.49,0,0,0-3.73-.57A20,20,0,0,0,81.72,100l-1.79,1c-5.41,2.94-10.7,6.14-16.55,8.2-.31-.71.51-.53.69-.85l4.37-1.93c6.92-3.06,13-7.83,20.26-10.19,0,0,0-.19,0-.3-5.79-.43-10.41,2.23-14.72,5.63A65.81,65.81,0,0,1,64,107.88Z" transform="translate(119.82 -21.92)"/><path class="cls-1" d="M161.34,82a23.69,23.69,0,0,1-9,2.13c-3,.25-6,.6-8.85.93l-.34,0-2.84.33c.52.37,1.47,0,2.32,0,5.88-.05,11.82.63,17.61-.92,8.26-2.2,14.85-7,20.21-13.52,1.65-2,1.88-4.47,2-6.94v0c-.34-.44-.28-1.31-.93-1.32s-.83.73-1.09,1.22C176,72.09,169.43,77.87,161.34,82Z" transform="translate(119.82 -21.92)"/><path class="cls-1" d="M172.17,57.63a56.36,56.36,0,0,1-12.83,14.44,38,38,0,0,1-12.85,6.69c-2.63.78-5.28,1.49-7.92,2.24-1.37,1-3.29.82-4.57,2,1.21.44,2.36-.17,3.46-.41a47.89,47.89,0,0,1,7.8-1.11,47.09,47.09,0,0,0,11.11-2.09c4.4-1.36,7.54-4.45,10.47-7.79a95,95,0,0,0,7.29-9.77,15.34,15.34,0,0,1,2.22-2.82c.73-.68.74-1,.11-1.75C174.39,54.9,173.94,54.83,172.17,57.63Z" transform="translate(119.82 -21.92)"/><path class="cls-1" d="M139.73,93a38.27,38.27,0,0,0,9.92,1.64l2.93.15c-.86-1.07-2.09-.74-3.2-.85-2.92-1.11-5.84-2.21-8.75-3.35a21.56,21.56,0,0,0-12-.84c-.33.06-1.19-.18-.86.75C132,90.33,135.83,91.71,139.73,93Z" transform="translate(119.82 -21.92)"/><path class="cls-1" d="M137.94,79.59c-.12.37-.83.51-.43,1.08l1.26-.37a14.61,14.61,0,0,1,4.65-1.57c9.35-2,16.63-7.32,22.86-14.35,2.56-2.88,4.22-6.41,6.9-9.19.38-.39.25-.7,0-1s-.5-.63-.75-.94c-1.69-2.11-2.25-2.15-3.46.17-4.86,9.26-12.48,15.51-21.63,20.13a76.44,76.44,0,0,0-9,5.67Z" transform="translate(119.82 -21.92)"/><path class="cls-1" d="M163.17,84.58c-5.18,2.1-10.79,1.9-16.31,1.73-2.8-.09-5.61-.1-8.42-.2-1.95-.06-3.81.63-5.75.64-.95-.09-1.77.45-2.69.54.32,1,1.1-.11,1.53.34l1.19-.27c4.71-.62,9.2.55,13.69,1.72.66.17,1.34.32,2,.46A29.31,29.31,0,0,0,183.15,69c-.18-.38-.27-.57-.57,0C178.27,76.85,171.14,81.34,163.17,84.58Z" transform="translate(119.82 -21.92)"/><path class="cls-1" d="M156,91.14a43,43,0,0,1-10.7-1.45c-3-.77-5.94-1.77-9.09-1.61a7.82,7.82,0,0,0-3.16,0l0,.47,3.43.18a23.64,23.64,0,0,1,5.88,1.78,35.51,35.51,0,0,0,14.37,3.61,52.32,52.32,0,0,0,14.35-4c8.17-3.45,12.31-10.09,13.83-18.56a5,5,0,0,0-.51-4l-.28.21a17.24,17.24,0,0,1-.85,3.68C179.73,81.14,168.75,91.17,156,91.14Z" transform="translate(119.82 -21.92)"/><path class="cls-1" d="M147.37,43.18c-1.55,3-1.7,6.26-1.68,9.49A31.61,31.61,0,0,1,143.2,66c-.29.78-.58,1.57-.86,2.35a21.38,21.38,0,0,0,6.06-11.79,56.41,56.41,0,0,0,.63-7.68,18.16,18.16,0,0,1,.67-4.75,4.83,4.83,0,0,1,2.63-3.45C149.46,39.89,148.54,41.76,147.37,43.18Z" transform="translate(119.82 -21.92)"/><path class="cls-1" d="M138.38,72.38a12,12,0,0,0-.53,1.28c2.29-2.13,3.19-4.87,4.57-7.31A39.94,39.94,0,0,0,145,51.11c0-2.56,0-5.28,1.52-7.61a6.46,6.46,0,0,1,2.75-3.39c1.09-.62.62-1.18.06-1.73a2.62,2.62,0,0,0-4.22,1.13,34.3,34.3,0,0,0-1,9.52C144.16,57.3,142.59,65.16,138.38,72.38Z" transform="translate(119.82 -21.92)"/><path class="cls-1" d="M150.44,44.62a26.5,26.5,0,0,0-.68,7.16c-.07,7.43-3.09,13.63-7.94,19.08-1.44,1.62-2.59,3.72-4.37,4.81-3.48,2.13-6.06,5.39-9.68,7.29-.9.47-1.75,1.07-2.62,1.61-.83.93-2,1.47-2.59,2.72,4.24-2.78,9-4.77,12.9-8a29.7,29.7,0,0,1,2.43-2.46,2.82,2.82,0,0,1,.39-.29v-.12l.12,0c2.69-3.13,5.38-6.25,8-9.4,4.88-5.75,7.92-12.28,8.28-19.91.09-2,.25-3.9,1.71-5.48C152.75,40.93,151.57,40.65,150.44,44.62Z" transform="translate(119.82 -21.92)"/><path class="cls-1" d="M155.24,50.28c1.42-1.66,2.16-3.2,3.33-4.41.6-.62,1.93-.71,1.78-1.78s-1.35-1-2.2-1.28c-.57-.16-.28-.61-.28-1-1.42.07-1.76,1.25-2,2.24C155.57,46,155.48,47.89,155.24,50.28Z" transform="translate(119.82 -21.92)"/><path class="cls-1" d="M157.87,41.8v0h0Z" transform="translate(119.82 -21.92)"/><path class="cls-1" d="M158.85,46.89a14.63,14.63,0,0,0-3.4,5.54c-2.07,7.63-6.83,13.52-11.93,19.23-.87,1-1.7,2-2.54,3l.13.17c2.16-1.83,4.27-3.72,6.49-5.48A35.74,35.74,0,0,0,160,51.55c.57-1.83,1.2-3.73,2.92-4.94.24-.17.45-.37.27-.7a1.27,1.27,0,0,0-1.26-.73A4.18,4.18,0,0,0,158.85,46.89Z" transform="translate(119.82 -21.92)"/><path class="cls-1" d="M176.34,104.69a6.52,6.52,0,0,0,2.5-1.61l0,0,.22-.19a5.81,5.81,0,0,0-2.57,1C169.07,107.47,161,108,153,108.79a22.29,22.29,0,0,1-7-.44A73.86,73.86,0,0,1,128.06,102a69.19,69.19,0,0,0-12.26-4.85c-.67-.19-1.42-.6-2,.2l1.47.86c.64-.17,1.09.29,1.56.54,5,2.63,9.92,5.24,14.83,8a27,27,0,0,0,16,3.63c9.06-.88,18.12-1.74,26.84-4.59Z" transform="translate(119.82 -21.92)"/><path class="cls-1" d="M135,109.11c-3.3-1.55-6.52-3.28-9.76-5-2.77-1.44-5.52-2.93-8.71-4.62l1.65,2,.13.17,5.35,4.55.06,0A46.62,46.62,0,0,0,133,111c5.22,1.94,10.53,1.72,15.9,1l2.37-.65c2.06-.23,2.06-.23,2.61-1h0l-2.66.45h0C145.67,111.38,140.2,111.54,135,109.11Z" transform="translate(119.82 -21.92)"/><path class="cls-1" d="M185.38,102.6c-4.4,6.83-10.78,11.11-18.13,14.13a65,65,0,0,1-10.3,3.76c-10.68,2.43-20.48,1-29.16-6-.12.14-.85-.18-.29.47,5.14,6,11.57,9,19.57,8.35,4.86-.37,9.66-1.17,14.48-1.82,9-3.11,16.84-7.94,23-15.3a10.49,10.49,0,0,0,2.56-6.07A8.31,8.31,0,0,0,185.38,102.6Z" transform="translate(119.82 -21.92)"/><path class="cls-1" d="M184.62,76.14c-2.52,7.51-7.37,12.82-14.86,15.53C163.28,94,156.7,96,149.67,95.42c-2.2-.18-4.39-.4-6.59-.6-3.46-.95-6.8-2.34-10.32-3.1a12.43,12.43,0,0,0-3.89-.36c-.89-.47-1.81-.16-2.72-.13.8.75,1.82.53,2.77.61h0l14.45,3.69a4.59,4.59,0,0,0,2.29.55c6.9,1.12,13.77,1.57,20.58-.7,7.59-2.52,15-5.31,19.33-12.72a10.41,10.41,0,0,0-.26-7.37C184.82,75.42,184.75,75.76,184.62,76.14Z" transform="translate(119.82 -21.92)"/><path class="cls-1" d="M114,100.8h0a94.88,94.88,0,0,0,11,8.14c6.56,3.94,13.35,6.48,21.26,5.94,8.24-.57,16.52-.59,24.27-3.91a30.85,30.85,0,0,0,12.09-8.83c.45-.56,1.1-1,1.09-1.87l-3,2.28a19.54,19.54,0,0,1-6.3,3.81,4.58,4.58,0,0,1-2.19.92c-4.94,1.42-10,2.3-15,3.27a75.37,75.37,0,0,1-8.39,1.9,24.23,24.23,0,0,1-5.61.72,29.71,29.71,0,0,1-18.44-5.45c-3.57-2.17-6.46-5.15-9.46-8l-.26-.2c-2.06-1.1-3.87-2.72-6.37-2.93A36.3,36.3,0,0,1,114,100.8Z" transform="translate(119.82 -21.92)"/><path class="cls-1" d="M151.4,126.31c0,.21,0,.42.07.62,2.28-.17,4.57-.3,6.84-.54a30.1,30.1,0,0,0,17-7.61c4.15-3.63,8.59-6.93,10.82-12.24.21-.5.61-1,.47-1.57C177.72,116.85,164.66,121.74,151.4,126.31Z" transform="translate(119.82 -21.92)"/><path class="cls-1" d="M141.14,95.73c-5.4-1.51-10.75-3.25-16.37-3.81-.55.29-1.27,0-1.94.63a88.52,88.52,0,0,1,9.94,4.1c12.06,5.35,24.12,4,36.14-.05a35.06,35.06,0,0,0,11.18-5.84,17.86,17.86,0,0,0,4.68-5.08c-1.55.68-2.42,2.11-3.57,3.22V89l-.06,0C168.89,97.56,155.56,99.76,141.14,95.73Z" transform="translate(119.82 -21.92)"/><path class="cls-1" d="M176.55,94.12A57.62,57.62,0,0,1,143,100.54c-4.35-.43-8.3-2.13-12.19-4-1,0-.54.35-.12.64a26.58,26.58,0,0,0,12.11,5,68.3,68.3,0,0,0,29.56-2.78,23.7,23.7,0,0,0,15.11-14.71c0-1.07.38-2.15-.23-3.39a40,40,0,0,1-1.9,4.8C183.31,89.76,180.14,92.19,176.55,94.12Z" transform="translate(119.82 -21.92)"/><path class="cls-1" d="M158,114.85a112,112,0,0,1-19.38.69c-.66-.47-1.5-.27-2.21-.58.54,1.05,1.58,1,2.52,1.19a30.85,30.85,0,0,0,14.22.9c5.84-1.11,11.6-2.61,17.52-3.27,7.43-2.73,12.32-8.16,16.19-15.2a2.33,2.33,0,0,0-1.35,1.13C178.83,109.35,169.22,113.65,158,114.85Z" transform="translate(119.82 -21.92)"/><path class="cls-1" d="M140.14,119.77c7.68,2,15.13,1,22.39-1.94,2.28-.91,4.53-1.91,6.8-2.87-.28-.6-.75-.24-1.12-.18a76.6,76.6,0,0,0-8.08,1.51c-7.41,1.92-14.84,2.79-22.29.23-1.72-.59-3.54-1-4.73-2.58-5.09-2-9.67-4.94-14.48-8.12a6.38,6.38,0,0,0,.62.84C125.64,111.94,131.81,117.61,140.14,119.77Z" transform="translate(119.82 -21.92)"/><path class="cls-1" d="M167.35,101.59a79,79,0,0,1-22.54,1.52,26.81,26.81,0,0,1-13.46-4.65A27.18,27.18,0,0,0,120,93.8c-.93.24-2-.45-2.92.73,5.63.88,10.57,3.41,15.39,6.08,6,3.33,12.5,4.23,19.22,4.26a74.21,74.21,0,0,0,20.85-3A30.58,30.58,0,0,0,185,94.49a9.21,9.21,0,0,0,3.23-8.09c-.24-.2-.47-.33-.65.06C183.51,95.11,176.47,99.73,167.35,101.59Z" transform="translate(119.82 -21.92)"/><path class="cls-1" d="M133.83,49.09a79,79,0,0,0-.36-9.7,7.46,7.46,0,0,0-1.73,5.48c.06,2.63.24,5.27.44,7.89a25.28,25.28,0,0,1-1.25,10.5A57.38,57.38,0,0,1,111,91c-1.09.82-2.46,1.24-3.53,2.56A23.24,23.24,0,0,0,118,87.71C129.2,77.31,134.19,64.27,133.83,49.09Z" transform="translate(119.82 -21.92)"/><path class="cls-1" d="M-77.67,28.82a32.27,32.27,0,0,1,5.21,9.63A29.79,29.79,0,0,0-62.17,52.12a2.44,2.44,0,0,0,1.84.53c-5.43-4.25-8-10.23-10-16.48-1.42-4.23-3.6-7.93-7.45-10.42a10.82,10.82,0,0,0-5.06-1.92A40.35,40.35,0,0,1-77.67,28.82Z" transform="translate(119.82 -21.92)"/><path class="cls-1" d="M-78.57,34.84a102.32,102.32,0,0,0,6.17,9.69l4.59,5.25a5.48,5.48,0,0,0,2.36.83c.23-.28,0-.43-.13-.57A26,26,0,0,1-73,39.27c-1.77-4.5-3.86-8.78-7.39-12.25a13.07,13.07,0,0,0-11.67-4c1.59.77,3,1.39,4.42,2.16C-83.6,27.44-80.84,30.93-78.57,34.84Z" transform="translate(119.82 -21.92)"/><path class="cls-1" d="M-62.71,60a25.73,25.73,0,0,1,5-1.28,18.86,18.86,0,0,1,13.55,2.71l0,0c1.41.66,2.07,2.07,3.12,3.09A6.68,6.68,0,0,0-39.58,67a4,4,0,0,0-.74-2.32C-42,61.42-44,58.5-47.46,56.77a29.81,29.81,0,0,0-3.81-1.45l-4.14.07A28.4,28.4,0,0,0-63.84,60C-63.47,60.52-63.07,60.08-62.71,60Z" transform="translate(119.82 -21.92)"/><path class="cls-1" d="M-72.4,47.37l.48.33c.68.21,1,1.13,2.1.86-1.12-1.64-2.8-2.75-3.68-4.47A50.43,50.43,0,0,1-78.88,36c-2.86-4.95-6.4-9.19-11.84-11.48A16.9,16.9,0,0,0-97,23.07c0,1.05,1,.81,1.47,1A18.27,18.27,0,0,1-84.66,32.7a52.74,52.74,0,0,0,9.84,12.51h0l2.7,2.31A1.51,1.51,0,0,0-72.4,47.37Z" transform="translate(119.82 -21.92)"/><path class="cls-1" d="M-62.55,49.35a7.87,7.87,0,0,0,3.07,2.76,5.56,5.56,0,0,0-2-2.35,14.59,14.59,0,0,1-2.84-7.17c-.5-3.84-1.35-7.55-3.62-10.79A14.14,14.14,0,0,0-75,26.6c3.7,3.51,5.15,8.17,6.76,12.74A27.35,27.35,0,0,0-62.55,49.35Z" transform="translate(119.82 -21.92)"/><path class="cls-1" d="M-98.06,79.26a113.63,113.63,0,0,1,4-13,22.29,22.29,0,0,1,3.92-6.42c1.61-3,4.24-5,7-6.8a28.52,28.52,0,0,1,5.32-2.68l2.17-.44c0-.17,0-.33,0-.49l-2.16.4c-6.46.43-11.22,3.56-14.52,9.07-1.88,3.14-3.87,6.22-5.8,9.33h0a105.07,105.07,0,0,0-3.75,10.32,34.56,34.56,0,0,1-8.82,14.34,30.1,30.1,0,0,0-2.61,2.9,22.69,22.69,0,0,0,7.95-4.77A23.57,23.57,0,0,0-98.06,79.26Z" transform="translate(119.82 -21.92)"/><path class="cls-1" d="M-60.78,134.82a25.24,25.24,0,0,1-10.32-3.23c-5.26-2.59-9-6.8-12.23-11.51-2.76-4-4.33-8.51-6.22-12.9a11.42,11.42,0,0,0-1-2.64h0l-.54.06.87,2.63a91.3,91.3,0,0,0,3.91,11.48c3.12,7.15,8.36,12,15.3,15.55a32,32,0,0,0,18.63,3.29c1.88-.22,3.76-.39,5.65-.76-3.35-1-6.83-1-10.21-1.64C-58.19,135-59.49,135-60.78,134.82Z" transform="translate(119.82 -21.92)"/><path class="cls-1" d="M-71.16,131c.37.15.75.27,1.1.44a29.66,29.66,0,0,0,10.53,2.81c.29,0,1,.43.55-.46-6.49-2.48-13-4.93-17.42-10.76a83,83,0,0,1-7.28-12,43.67,43.67,0,0,0-7.46-10.65c-.12.16-.25.27-.23.31,2.19,5.22,4.13,10.57,6.67,15.62A34.63,34.63,0,0,0-71.16,131Z" transform="translate(119.82 -21.92)"/><path class="cls-1" d="M-85.85,78.85c4.61-3.94,8.72-8.41,13.19-12.5a8.22,8.22,0,0,1,2.34-2c3.93-3.57,8-6.89,13-9,.33-.15,1,0,.85-.73-4.31-.85-8.31-2.69-12.47-4-8.39-1.37-14.5,2.65-19.89,8.38-4.85,5.79-6.37,13-8.3,20a25,25,0,0,1-7.59,12.59,7.64,7.64,0,0,0-.68.79c1.54-.12,2.47-1,3.51-1.63,3-1.73,5.8-3.65,8.76-5.37S-88.32,81-85.85,78.85Z" transform="translate(119.82 -21.92)"/><path class="cls-1" d="M-102.39,77.53a46.71,46.71,0,0,1,3.3-8.65h0c2-4.45,4.85-8.41,7.58-12.43a15.81,15.81,0,0,1,11.34-7c1.82-.25,3.63-.5,5.45-.73.49-.06.62-.18.44-.39a2.66,2.66,0,0,0-.28-.23,30.93,30.93,0,0,0-8.54-.21,14.68,14.68,0,0,0-10.14,6.45c-.59.84-1.25,1.63-1.87,2.45l0,0c-8.47,12.43-13.22,26.87-21.2,39.61.73.07,1.27-.55,1.76-1C-109,90.49-104.43,84.92-102.39,77.53Z" transform="translate(119.82 -21.92)"/><path class="cls-1" d="M-56,59.11c-3.1.22-6,1.36-8.94,2.16L-67,62.61h0a13.34,13.34,0,0,0-2.59,1.84,3.9,3.9,0,0,0,2.17-.88c7.46-3.27,14.79-3.22,21.93.9,3.64,2.1,5.14,5.7,6.47,9.41.89-.54.32-1.32.19-1.9a21.57,21.57,0,0,0-3.63-8.38C-46.31,60-50.89,58.76-56,59.11Z" transform="translate(119.82 -21.92)"/><path class="cls-1" d="M126.15,72.24c2.34-4.72,4.72-9.45,5.21-14.81.35-3.94-.22-7.88-.39-11.82a9.7,9.7,0,0,1,2.14-7,4.13,4.13,0,0,0-4.69,1.18c-2.28,2.56-2.82,5.66-2.64,9,.23,4.12,1,8.18,1.12,12.3a29.3,29.3,0,0,1-2,12.26c-.38.8-.75,1.6-1.13,2.39A7,7,0,0,0,126.15,72.24Z" transform="translate(119.82 -21.92)"/><path class="cls-1" d="M-57.71,133.9h0Z" transform="translate(119.82 -21.92)"/><path class="cls-1" d="M117.85,109.43c2.91,3.49,6.13,6.67,9.34,9.86a33.16,33.16,0,0,0,13.71,6.42,22.83,22.83,0,0,0,12.68-1c1.89-.66,3.75-1.41,5.62-2.12-.44-.5-.95-.13-1.4-.06-3.51.54-7,1.12-10.54,1.35-7.16.46-13.45-1.42-18.52-6.73a100,100,0,0,0-9.35-8.58c-.6-.49-1.33-.91-1.55-1.76l-2.59-2.73-.25-.24-6-5.13c-2.47-1.34-4.79-3.1-8.16-3,2.41,1.44,4.56,2.63,6.62,4A47.26,47.26,0,0,1,117.85,109.43Z" transform="translate(119.82 -21.92)"/><path class="cls-1" d="M114.27,91.55a29.18,29.18,0,0,1-2.83,1.62c-1.25.5-2.74.49-3.71,1.63,1.17-.29,2.44-.2,3.53-.83,4.35-1.27,7.48-4.24,10.38-7.51.3-.34.51-.76.94-1a65.45,65.45,0,0,0,13.11-22.21,55,55,0,0,0,3.22-18.21,9.69,9.69,0,0,0-1.18-5,2,2,0,0,0-2.47-1c-1.22.28-.76,1.26-.74,2,.24,6.87.57,13.75-.84,20.56A47.09,47.09,0,0,1,114.27,91.55Z" transform="translate(119.82 -21.92)"/><path class="cls-1" d="M-27.5,110a68.82,68.82,0,0,1-7.38-12.56c-2.16-4.43-4.39-8.83-6.5-13.28-2.68-5.67-7.43-8.46-13.24-10a28,28,0,0,0-15.6,0c-2.57.79-5.22,1.33-7.83,2a4.55,4.55,0,0,0-2.14,1c.42.49,1-.18,1.39.19a28,28,0,0,1,7.52-.77c3.72-.43,7.39.14,11.07.63,5.05.67,8.71,3.56,12,7a3.89,3.89,0,0,1,.4.41l.76.81h0a22,22,0,0,1,1.78,1.84,153.16,153.16,0,0,1,10.43,15.9C-30.78,110-26,116-19.09,119.9a27.15,27.15,0,0,0,8.16,3.31c.07-.53-.33-.68-.69-.84a55.07,55.07,0,0,1-10-6.23A22.64,22.64,0,0,1-27.5,110Z" transform="translate(119.82 -21.92)"/><path class="cls-1" d="M-81.7,76.35l.48-.35A1.66,1.66,0,0,0-81.7,76.35Z" transform="translate(119.82 -21.92)"/><path class="cls-1" d="M127.22,81.09c-.24.32-.53.6-.79.9h0c-.18.25-.36.49-.55.73.69.3,1.06-.28,1.53-.55,7.3-4.23,11.5-10.76,14-18.64,1.69-5.38,1.93-10.9,2.06-16.47a22.55,22.55,0,0,1,1.25-8.26c0-1-.72-.9-1.33-.82a6.18,6.18,0,0,0-4.43,2.2c1.9,6.8.48,13.48-1.36,20A58.91,58.91,0,0,1,127.22,81.09Z" transform="translate(119.82 -21.92)"/><path class="cls-1" d="M-10.67,123.91c-.56.08-1.1-.33-1.67-.07l-2.77-.6a22.23,22.23,0,0,1-8-2.3c-3.6-1.5-6.22-4.25-8.75-7.06A92.24,92.24,0,0,1-44.53,96.19c-4.44-8.19-11.25-13-20-15.47a44.5,44.5,0,0,0-13-2,17.68,17.68,0,0,0-11,4.4l.15.24,0,0a10.63,10.63,0,0,0,1.23-.33A27,27,0,0,1-69,82.7c8.85,2.81,15.62,8.52,20.87,16,3.24,4.64,6,9.63,10.37,13.4,2.26,1.74,4.53,3.46,6.79,5.21a32.41,32.41,0,0,0,16.87,6.94,3.24,3.24,0,0,1,1.8.37l.23-.2a5.91,5.91,0,0,0,1.46,0C-10,124.28-10.62,124.09-10.67,123.91Z" transform="translate(119.82 -21.92)"/><path class="cls-1" d="M-59.19,67.92c-6.59,0-12.54,2.76-18,6.36a6.45,6.45,0,0,0-.9,1c2.93-.7,5.55-1.19,8.09-2,7.78-2.3,15.07-.77,22.16,2.59,3.57,1.7,5.67,4.77,7.37,8.13,3.08,6.08,6,12.25,9.07,18.32,1.05,2,1.93,4.23,3.57,5.94.48.72.95,1.44,1.42,2.16a15.78,15.78,0,0,0,3.09,2.75l-1.42-2-2-2.46a20.11,20.11,0,0,1-2.13-3.34c-1.08-2.5-2.22-5-3.21-7.49-2-5.23-3.83-10.56-6-15.73C-42,72.94-49.14,67.91-59.19,67.92Z" transform="translate(119.82 -21.92)"/><path class="cls-1" d="M-52.18,62.56a23.11,23.11,0,0,0-17.18,2.75c-.44.26-.91.46-1.36.69-3.82,3-7,6.57-10.42,10l-.4.94a15.47,15.47,0,0,0,3.46-2.79A5,5,0,0,1-76.79,73C-68,68.21-59,64.68-49.07,69.34a19.78,19.78,0,0,1,10.21,9.93,2.91,2.91,0,0,0,.53.65c.33,0,.33-.32.27-.52-1.2-4.06-2.35-8.16-4.94-11.6C-45.28,64.77-48.58,63.3-52.18,62.56Z" transform="translate(119.82 -21.92)"/><path class="cls-1" d="M-73.39,78.07a53.79,53.79,0,0,1,13.24,3.32A30.39,30.39,0,0,1-44,95.53a96.56,96.56,0,0,0,15.27,20.63,23.19,23.19,0,0,0,5.31,4c1.31.46,2.61,1,3.95,1.35.89.23,1.77,1,2.78.35a8.4,8.4,0,0,1-3.3-1.46c-6.78-4.26-11.72-10.19-15.85-17S-43.68,89.58-49.47,84c-.67-.53-1.35-1-2-1.6a18.35,18.35,0,0,0-10.1-4.54c-3.23-.34-6.46-.5-9.69-.68l-2.46.27c-1.71-.47-3.38.49-5.08.09-.23.34-.27.55.29.54C-76.8,78-75.1,78.06-73.39,78.07Z" transform="translate(119.82 -21.92)"/><path class="cls-1" d="M-12.31,124.71l-.7.31a33.56,33.56,0,0,1-19.26-7.72c-1.25-1-2.53-2-3.79-2.92-4.7-3.39-8.1-7.89-11.11-12.75-4.6-7.44-10.59-13.38-18.68-17a27.62,27.62,0,0,0-20.62-1.09,2.24,2.24,0,0,0-1.49,1c9.63-1.55,18.7-.65,26.34,6.21a33.4,33.4,0,0,1,5.26,6.3c2.12,3.14,4.08,6.38,6.1,9.58l.06.09c3.75,4.65,7.24,9.71,12.61,12.55,7.63,4,15.78,6.65,24.62,6.21a6.65,6.65,0,0,0,2.43-.2C-11,124.65-11.87,125.34-12.31,124.71Z" transform="translate(119.82 -21.92)"/><path class="cls-1" d="M166.66,104.21a75.25,75.25,0,0,1-23.1,1c-5.1-.58-9.49-2.92-14-5.12-3.7-1.83-7.39-3.67-11.51-4.41a12.81,12.81,0,0,0-4.78,0c-.06.45.31.42.55.46a63.31,63.31,0,0,1,15.41,5.69c6.15,3,12.5,5.6,19.37,6.18,7.9.67,15.63-.88,23.22-3,3.36-.93,6.36-2.82,9.54-4.23a12.65,12.65,0,0,0,6-7.45,62.47,62.47,0,0,1-6.27,5.34C176.78,101.76,171.8,103.2,166.66,104.21Z" transform="translate(119.82 -21.92)"/><path class="cls-1" d="M100.5,192.86c5-4,7.07-9.41,7.08-15.69,0-3.32-.09-6.63-.14-9.95-2.09-12.6-8.42-23-16.66-32.44A48.25,48.25,0,0,0,76.38,123c-.58-.29-1.18-.55-1.77-.82l-.23.35c1.4,1.2,2.78,2.42,4.22,3.58a21.33,21.33,0,0,1,4.3,4.65c2.73,4,5.85,7.77,9,11.53a60.79,60.79,0,0,1,12.64,27.88,39.62,39.62,0,0,1,.78,10.42,18,18,0,0,1-7.23,13.26l2.44-1Z" transform="translate(119.82 -21.92)"/><path class="cls-1" d="M82.62,125.82l1.76,1c-.9-1.69-2.31-2.59-3.5-3.7-.38-.35-1.12-.53-.65-1.31a6.6,6.6,0,0,0-2.88-2.12A12.14,12.14,0,0,0,68.92,117c-2.08-.63-4.19.19-6.31,0A4,4,0,0,0,64.86,118,48.93,48.93,0,0,1,82,125.49,2.34,2.34,0,0,1,82.62,125.82Zm-4.48-5.06.17.07a.86.86,0,0,1,.13.14Z" transform="translate(119.82 -21.92)"/><path class="cls-1" d="M83.49,132.82c-3.07-4.88-7.67-8.16-12-11.66a10.21,10.21,0,0,0-5.57-1.79,138.44,138.44,0,0,1,10.74,9.32C81,133,85,137.76,89.16,142.28c3.2,3.45,5.23,7.77,8.19,11.41.37.46.57,1.15,1.36,1.06a57.57,57.57,0,0,0-9.47-14.44A54.33,54.33,0,0,1,83.49,132.82Z" transform="translate(119.82 -21.92)"/><path class="cls-1" d="M61.56,105.33c3.66-2.07,7.89-2.91,11.44-5.27a24,24,0,0,1,7-3.47l.18-.61a48.17,48.17,0,0,0-18.6,8.92,2,2,0,0,0-.09.33S61.54,105.34,61.56,105.33Z" transform="translate(119.82 -21.92)"/><path class="cls-1" d="M54.13,112.68c-1,0-2-.27-3.17.48a24,24,0,0,0,5.47.54C56,112.7,54.8,113.23,54.13,112.68Z" transform="translate(119.82 -21.92)"/><path class="cls-1" d="M54.5,111.2l1.24-.37c3.63-2,7.67-3.2,11.21-5.42a36.41,36.41,0,0,0,4.44-2.9,1.92,1.92,0,0,0,.53-.37l3-2.09c-.06-.16.4-.65-.06-.44a25.63,25.63,0,0,0-3,1.9c-4.45,2.14-9.21,3.61-13.44,6.23-.29.24-.53.56-1,.57l-2.74,2-2.78,1.36A4.37,4.37,0,0,0,54.5,111.2Z" transform="translate(119.82 -21.92)"/><path class="cls-1" d="M93.34,107.91a30.24,30.24,0,0,1,17.14,3.9l3.33,2.84c.1-.12.21-.23.32-.34a4.21,4.21,0,0,0-1.45-1.92c-4.65-6.16-11.24-7.76-18.48-8-6.7-.25-12.51,2.25-18.17,5.4-4,2.2-7.9,4.44-12.64,4.48-2.23,0-4.46.16-6.69.25h0a6.74,6.74,0,0,0-2.41,0,3.62,3.62,0,0,0,2.24.59,23.35,23.35,0,0,0,14.87-1.24C78.45,111,85.61,108.38,93.34,107.91Z" transform="translate(119.82 -21.92)"/><path class="cls-3" d="M78.14,120.76l.3.21a.86.86,0,0,0-.13-.14Z" transform="translate(119.82 -21.92)"/><path class="cls-3" d="M128.53,38v0l-.59.28h0A.71.71,0,0,0,128.53,38Z" transform="translate(119.82 -21.92)"/><path class="cls-3" d="M97.28,195.27l1.12-.33-.33-.07a.25.25,0,0,0,0-.07,1.08,1.08,0,0,1,0-.18l2.34-1c.13-.15.25-.31.37-.47,1.39-.48,1.9-2,3.24-2.59,1.31.32,1.55-1.34,2.65-1.43a5.79,5.79,0,0,1,2.3-1.24l3-1.93c.1-.37.43-.46.72-.6l0,0,.39-.14h0c.93-.38,1.24-1.39,2-1.95,2-3.17,4-6.32,6-9.51a25.09,25.09,0,0,0,4.1-11.77c2.05-4.54,2.15-9.39,2.23-14.24,0-.83-.22-1.73.58-2.37.53-.35-.06-.83.14-1.22.84-2.42.31-4.84-.09-7.22a15.49,15.49,0,0,0-1.88-5.3,12.29,12.29,0,0,0-2.36-4.34c-2.62-3-4.54-6.48-6.75-9.75-1.85-2.73-3.67-5.47-5.7-8.08a38.78,38.78,0,0,0-11.94-10.1c-1.09-1.83-3-2.39-4.84-2.88-4.63-1.21-9.22-2.35-14.1-1.31a49.32,49.32,0,0,0-21.75,11c-3,2.26-5.91,4.6-9.52,5.81-.23-.85.57-1,1-1.37,1.53-1.26,3.12-2.44,4.69-3.65,4.47-2.71,8.65-5.87,13.34-8.28a50.8,50.8,0,0,1,16.12-5,22.2,22.2,0,0,0,4.39,0c1.36.17,2.71.4,4.07.48,5,.32,9,3.2,13.08,5.63,5.81,3.46,10,8.68,14.35,13.69a15.63,15.63,0,0,0,2.68,2.65,2.44,2.44,0,0,0,.32.4,17.36,17.36,0,0,0,2.71,2.57l.52.45c3,3.08,6.85,4.8,10.85,6a46.46,46.46,0,0,0,28.12.13c5.61-1.76,9.82-5.73,14.16-9.47a25.67,25.67,0,0,0,7.93-11c.63-1.83,1.57-3.6.64-5.69-.54-1.25,0-2.58.5-3.82.21-.53.67-1.18-.24-1.57a26.81,26.81,0,0,0,.41-7.84,2,2,0,0,0-.09-1.49c-.33-1.67.46-3.7-1.57-4.86-.18-.1-.12-.64-.17-1-.47-3.23-1.47-6.37-1.31-9.7A5.4,5.4,0,0,0,183,64.12c-.21-1-.39-2-1.6-2.27-.73-.18-.62-.94-.8-1.49-1.63-1.59-3.18-3.29-4.84-4.8-1.3-1.19-2.34-2.54-3.57-3.76-1.43-1.41-2.67-1.35-3.55.42-4.89,9.79-12.88,16.21-22.47,20.93-.51.26-1,.53-1.51.81s-.84.48-1.57.9l-.05,0,0,0a25.8,25.8,0,0,1,5-4.61,35.83,35.83,0,0,0,12.6-18,13.21,13.21,0,0,1,1.79-3.89,2.23,2.23,0,0,1,3.13-.81,10.74,10.74,0,0,1,2.12,1.45c.66.53.8,1.52,2,2a6,6,0,0,0-3.39-4,29.09,29.09,0,0,1-2.95-1.9c-1.69-1.17-3.06-3.14-5.44-3.2-.46-1.51-1.74-1.42-2.88-1.31a7,7,0,0,1-3.78-.9c-.56-.27-.54-.82-.69-1.29-1.48-1.65-3.23-1.76-5.14-.85l-2.94-.16c-1.2.6-2.7.68-3.53,2-1.5-.7-3.19-.76-4.72-1.3A5.87,5.87,0,0,0,127,40.25a12.5,12.5,0,0,0-2,6,31.8,31.8,0,0,0,.31,6c.49,4.61,1.17,9.22.68,13.89A29.85,29.85,0,0,1,120.38,80c-.37-.54-.09-.92,0-1.27a35.06,35.06,0,0,0,.41-19.19,30.13,30.13,0,0,1-1-8.51,25.07,25.07,0,0,1,2.11-7,10.32,10.32,0,0,1,6-5.09c-4.36-.2-8.61,6.12-8.76,12.18a17.72,17.72,0,0,0,.21,5.44c.57,3.77,1.92,7.42,1.61,11.31.3,11.62-3.94,19.14-13.49,24.33a6.1,6.1,0,0,0-2.17,1.3c-.75.24-1.5.52-2.26.72a3.2,3.2,0,0,1-4.26-2.91c-.71-5.57.29-11,1.83-16.27,1.34-4.6,2.36-9.17,1.75-14-1-8.3-4.21-12.12-12.19-14.51a23.76,23.76,0,0,0-9.46-1.2c-5-.4-9,1.94-12.72,4.94-3.46,2.81-7,5.46-10.64,8.07h0c-2.9,1.15-5.89.87-8.88.51-1.28-.16-2.53-.7-3.86-.43-5.45-2.24-9.62.12-10.8,5.79-.48,2.27-1.5,4.42-1.46,6.82,0,.41-.24.58-.63.65a1.53,1.53,0,0,0-1,.84c-1.42,2.71-3.68,5.11-3.1,8.56.18,1.07-1.22,1.49-1.22,2.54-.27.67-.55,1.34-.83,2-.41,0-.9-.27-1.2.28C22.16,90,17.92,91.1,14,92.59c-2.56,1-4.74,2.18-6.09,4.63-1.51,2-1.32,4.31-1.27,6.56a53.17,53.17,0,0,0,1.47,10.79,9.79,9.79,0,0,0,1.9,4.32c.41.62.37.91-.4,1a25.23,25.23,0,0,0-7.39,1.95c-.16.06-.4-.1-.61-.16-1.7-.35-3.37.14-5.06.16a19.26,19.26,0,0,1-8.33-1.58c-4.78-2.14-9.36-4.5-12.49-8.93a.45.45,0,0,0-.11-.17l-3.69-5.65c-3.53-6.7-5.56-14-7.76-21.15-.22-.71-.49-1.4-.73-2.09-.22-2.06-1.24-3.94-1.3-6,.09-6.11-.64-12-5-16.76a13.65,13.65,0,0,0-8.48-4.7,5.21,5.21,0,0,0-1.11-.38c-5.77-.6-8.5-4.62-10.44-9.4a17.69,17.69,0,0,1-.84-4.38C-64.78,32.25-69.6,27-77.37,24.35a42.49,42.49,0,0,0-26.52-.59c-.93.27-2.38,0-2.22,1.9,1.82-1.22,3.57-.51,5.35.11a19.74,19.74,0,0,1,11,8.54,13.57,13.57,0,0,0,.92,1.23l.19.3c2,3.16,5.11,5.17,8.07,7.63-1,.09-1.48-.47-2.08-.74s-1.32-.66-2-1c-3.28-1.31-5.43-3.9-7.49-6.6a20.89,20.89,0,0,0-12.38-8.07,2.25,2.25,0,0,0-2.44.33c8.32.9,13.09,6.26,17.66,12.33l-.07.08-1.83-.88c-3.66-2.91-6.93-6.35-11.32-8.26a8.16,8.16,0,0,0-4-.69c-.29,0-.6.09-.55.49s.29.26.51.25c3.07-.2,5.5,1.35,7.81,3.06,1.58,1.17,3,2.54,4.63,3.92a13.82,13.82,0,0,1-4.09-1.65,34.59,34.59,0,0,0-6.71-3,16.82,16.82,0,0,0-1.85-.37c-.32,0-.75-.15-.83.33s.36.46.69.5c3.8.45,6.85,2.78,10.28,4.15.47.19.15.41,0,.61-3.11-.15-6-1.51-9.09-1.78a5.58,5.58,0,0,0-3,.34c1.28.53,2.34.17,3.27.76,0,0,0,.07,0,.11-1,.88-2.6.37-3.46,1.92a22.54,22.54,0,0,1,5.42-.93v0c-1.86,1.5-4.5,1.19-6,3.51,1.16-.32,1.72-1,2.66-1-.7,1.51-2.62,2-3.1,4.1,3.25-2.55,5.38-6.45,10.29-5.64a29.67,29.67,0,0,0-10.87,10.1c1.92-1.89,3.81-3.82,5.78-5.67a31.51,31.51,0,0,1,5.8-4,6.28,6.28,0,0,1,3.66-.71c.11.59,1.81-.61,1.06.95-4.3,1-7.79,3.52-11.14,6.22-1.82,1.47-3.46,3.17-5.17,4.78-.42.39-.86.8-.55,1.6a64.07,64.07,0,0,1,10.37-8.84,31.88,31.88,0,0,1,7.78-3.57,5.81,5.81,0,0,1,5,.77c-5.51.48-10.06,3.1-14.36,6.24s-8.09,6.58-10.11,11.6A47.6,47.6,0,0,1-107,52.64c4.67-4.39,9.7-8.24,16.06-9.88a12.48,12.48,0,0,1,7,0c.39.45.28.64-.31.69-10.21.84-17,7.11-23.17,14.48-4.68,5.63-6.63,12.44-8.3,19.37a1.29,1.29,0,0,0,.13,1.33c.3-1,.54-1.89.81-2.74,1.51-4.8,2.77-9.74,5.4-14.06A42,42,0,0,1-90.91,45.47,19.12,19.12,0,0,1-83.36,44a4.16,4.16,0,0,1,2.73.7c-.25.12-.36.22-.48.22C-87,44.86-92,47.12-96.35,51A62.49,62.49,0,0,0-108.8,67.15a11.49,11.49,0,0,0-.61,1.58c-1.57,3.14-2.24,6.59-3.39,9.87A49.14,49.14,0,0,1-117.66,89,2.7,2.7,0,0,0-118.1,91a36.7,36.7,0,0,0,5.58-10.78c1.31-4,2.6-7.92,3.9-11.88a63.72,63.72,0,0,1,8.33-12.33c3.5-3.87,7.13-7.62,12.3-9.28,3.83-1.23,7.68-1.79,11.54-.16a.56.56,0,0,0,.63-.07c-2.47-2-4.92-4.09-7.4-6.11A54.37,54.37,0,0,1-87.74,36a22.35,22.35,0,0,0-13.53-11.14c-.4-.12-1,0-1.12-.64a6.69,6.69,0,0,1,4.19-.34c.8.28,1.6.6,2.41.85a18,18,0,0,1,10.56,8.52,46,46,0,0,0,8.31,10.67,9.58,9.58,0,0,0,1.93,2c.4.39.19.52-.18.65l-.57.06c-.27.77-.85.5-1.4.45-5.12-.48-10,0-14,3.7a34.69,34.69,0,0,0-5.93,7.74h0c-2.87,3.76-4.87,8-7,12.22-3.59,7.23-7.17,14.48-10.84,21.67a10.83,10.83,0,0,1-4.27,5c-.75.41-.47,1.16-.67,2.06,3.82-1.75,7.75-2.69,11.09-5a5.88,5.88,0,0,1,4.4-.73,23.34,23.34,0,0,1,6.92,1.81c2.65,1.09,3.69,3.4,4.5,5.89q2.49,7.65,5,15.31c.35,1,1.19,1.73,1.25,2.82,6.44,12.54,16.94,18.45,30.78,18.82a63.53,63.53,0,0,0,6.86-.52c.8-.06,1.59-.15,2.39-.19.25,0,.46.13.1.35a1.15,1.15,0,0,1-.33.1l0,.49,3.62-.91c3.52-.42,7-1.21,10.56-1.16a47.05,47.05,0,0,0,10.15-1.33,38.91,38.91,0,0,0,15.81-7.6,27.6,27.6,0,0,1,8.25-3.79c4.08-.77,8.15-.33,12.22,0a10.75,10.75,0,0,1,2,.51c5.36,2.57,10.57,1.84,15.72-.62a60.51,60.51,0,0,0,12.12-7.08,17.34,17.34,0,0,0,2.79-3c1-.53,2-.07,2.95.22,1.59.47,3.18.91,4.77,1.37,1.12.82,2.68,0,3.74,1,1,.43,2.13.82,3.15,1.3,5,2.35,9.06,6,13.26,9.55h0C78.82,132.07,83.42,137,88,142a52.44,52.44,0,0,1,5.51,7.42,32.93,32.93,0,0,0,5.67,7,16.91,16.91,0,0,1,1.54,3,58.47,58.47,0,0,1,4,21.2A19.56,19.56,0,0,1,97,194l-.31,0a1,1,0,0,1,.1-.3,26.14,26.14,0,0,0,5.47-14.4c.58-8.33-2.1-16-6.48-22.9-3.08-4.85-7-9.13-10.61-13.67a67.46,67.46,0,0,0-5.5-6.75c-6.22-7.2-12.88-13.9-21.22-18.68h0v0c0,.46.41.63.59,1,9.63,6.12,17.4,14.2,24.29,23.19a8.37,8.37,0,0,0,.57.62c2.93,4.18,6.23,8.08,9.35,12.1a39,39,0,0,1,8.23,23.78c.09,4.89-1.71,9.45-4,13.76-.84,1.63-2.47,1.92-4.09,2.11l-.27.63Zm88.81-88.73c-2.23,5.31-6.67,8.61-10.82,12.24a30.1,30.1,0,0,1-17,7.61c-2.27.24-4.56.37-6.84.54,0-.2,0-.41-.07-.62,13.26-4.57,26.32-9.46,35.16-21.34C186.7,105.59,186.3,106,186.09,106.54Zm-1.55-.39c-6.15,7.36-14,12.19-23,15.3-4.82.65-9.62,1.45-14.48,1.82-8,.61-14.43-2.3-19.57-8.35-.56-.65.17-.33.29-.47,8.68,7,18.48,8.47,29.16,6a65,65,0,0,0,10.3-3.76c7.35-3,13.73-7.3,18.13-14.13a8.31,8.31,0,0,1,1.72-2.52A10.49,10.49,0,0,1,184.54,106.15Zm-36.92,4.2a27,27,0,0,1-16-3.63c-4.91-2.71-9.87-5.32-14.83-8-.47-.25-.92-.71-1.56-.54l-1.47-.86c.6-.8,1.35-.39,2-.2A69.19,69.19,0,0,1,128.06,102,73.86,73.86,0,0,0,146,108.35a22.29,22.29,0,0,0,7,.44c8-.82,16.1-1.32,23.55-4.88a5.81,5.81,0,0,1,2.57-1l-.22.19,0,0a6.52,6.52,0,0,1-2.5,1.61l-1.88,1.07C165.74,108.61,156.68,109.47,147.62,110.35Zm6.21,0h0c-.55.78-.55.78-2.61,1l-2.37.65c-5.37.73-10.68,1-15.9-1a46.62,46.62,0,0,1-9.2-4.69l-.06,0-5.35-4.55-.13-.17-1.65-2c3.19,1.69,5.94,3.18,8.71,4.62,3.24,1.68,6.46,3.41,9.76,5,5.17,2.43,10.64,2.27,16.14,1.66h0ZM115.1,99.53l.26.2c3,2.84,5.89,5.82,9.46,8a29.71,29.71,0,0,0,18.44,5.45,24.23,24.23,0,0,0,5.61-.72,75.37,75.37,0,0,0,8.39-1.9c5-1,10.1-1.85,15-3.27a4.58,4.58,0,0,0,2.19-.92,19.54,19.54,0,0,0,6.3-3.81l3-2.28c0,.84-.64,1.31-1.09,1.87A30.85,30.85,0,0,1,170.57,111c-7.75,3.32-16,3.34-24.27,3.91-7.91.54-14.7-2-21.26-5.94a94.88,94.88,0,0,1-11-8.14h0a36.3,36.3,0,0,0-5.26-4.2C111.23,96.81,113,98.43,115.1,99.53Zm70.38.18a2.33,2.33,0,0,1,1.35-1.13c-3.87,7-8.76,12.47-16.19,15.2-5.92.66-11.68,2.16-17.52,3.27a30.85,30.85,0,0,1-14.22-.9c-.94-.17-2-.14-2.52-1.19.71.31,1.55.11,2.21.58a112,112,0,0,0,19.38-.69C169.22,113.65,178.83,109.35,185.48,99.71Zm-52.37,14.23c1.19,1.56,3,2,4.73,2.58,7.45,2.56,14.88,1.69,22.29-.23a76.6,76.6,0,0,1,8.08-1.51c.37-.06.84-.42,1.12.18-2.27,1-4.52,2-6.8,2.87-7.26,2.89-14.71,3.92-22.39,1.94-8.33-2.16-14.5-7.83-20.89-13.11a6.38,6.38,0,0,1-.62-.84C123.44,109,128,111.94,133.11,113.94Zm48.29-13.13c-3.18,1.41-6.18,3.3-9.54,4.23-7.59,2.08-15.32,3.63-23.22,3-6.87-.58-13.22-3.19-19.37-6.18a63.31,63.31,0,0,0-15.41-5.69c-.24,0-.61,0-.55-.46a12.81,12.81,0,0,1,4.78,0c4.12.74,7.81,2.58,11.51,4.41,4.47,2.2,8.86,4.54,14,5.12a75.25,75.25,0,0,0,23.1-1c5.14-1,10.12-2.45,14.51-5.51a62.47,62.47,0,0,0,6.27-5.34A12.65,12.65,0,0,1,181.4,100.81Zm6.8-14.41A9.21,9.21,0,0,1,185,94.49a30.58,30.58,0,0,1-12.41,7.41,74.21,74.21,0,0,1-20.85,3c-6.72,0-13.19-.93-19.22-4.26-4.82-2.67-9.76-5.2-15.39-6.08.87-1.18,2-.49,2.92-.73a27.18,27.18,0,0,1,11.33,4.66,26.81,26.81,0,0,0,13.46,4.65,79,79,0,0,0,22.54-1.52c9.12-1.86,16.16-6.48,20.2-15.13C187.73,86.07,188,86.2,188.2,86.4Zm-7,2.5c1.15-1.11,2-2.54,3.57-3.22a17.86,17.86,0,0,1-4.68,5.08,35.06,35.06,0,0,1-11.18,5.84c-12,4.06-24.08,5.4-36.14.05a88.52,88.52,0,0,0-9.94-4.1c.67-.63,1.39-.34,1.94-.63,5.62.56,11,2.3,16.37,3.81,14.42,4,27.75,1.83,40-6.79l.06,0Zm6-7.58c.61,1.24.25,2.32.23,3.39a23.7,23.7,0,0,1-15.11,14.71,68.3,68.3,0,0,1-29.56,2.78,26.58,26.58,0,0,1-12.11-5c-.42-.29-.85-.6.12-.64,3.89,1.83,7.84,3.53,12.19,4a57.62,57.62,0,0,0,33.59-6.42c3.59-1.93,6.76-4.36,8.75-8A40,40,0,0,0,187.2,81.32Zm-1.63,1.34c-4.36,7.41-11.74,10.2-19.33,12.72-6.81,2.27-13.68,1.82-20.58.7a4.59,4.59,0,0,1-2.29-.55l-14.45-3.69h0c-.95-.08-2,.14-2.77-.61.91,0,1.83-.34,2.72.13a12.43,12.43,0,0,1,3.89.36c3.52.76,6.86,2.15,10.32,3.1,2.2.2,4.39.42,6.59.6,7,.57,13.61-1.4,20.09-3.75,7.49-2.71,12.34-8,14.86-15.53.13-.38.2-.72.69-.85A10.41,10.41,0,0,1,185.57,82.66Zm-56.92,7.07a21.56,21.56,0,0,1,12,.84c2.91,1.14,5.83,2.24,8.75,3.35,1.11.11,2.34-.22,3.2.85l-2.93-.15A38.27,38.27,0,0,1,139.73,93c-3.9-1.27-7.75-2.65-11.94-2.5C127.46,89.55,128.32,89.79,128.65,89.73Zm55.47-21.88.28-.21a5,5,0,0,1,.51,4c-1.52,8.47-5.66,15.11-13.83,18.56a52.32,52.32,0,0,1-14.35,4,35.51,35.51,0,0,1-14.37-3.61,23.64,23.64,0,0,0-5.88-1.78l-3.43-.18,0-.47a7.82,7.82,0,0,1,3.16,0c3.15-.16,6.11.84,9.09,1.61A43,43,0,0,0,156,91.14c12.78,0,23.76-10,27.3-19.61A17.24,17.24,0,0,0,184.12,67.85Zm-1,1.14a29.31,29.31,0,0,1-34.73,20.55c-.67-.14-1.35-.29-2-.46-4.49-1.17-9-2.34-13.69-1.72l-1.19.27c-.43-.45-1.21.64-1.53-.34.92-.09,1.74-.63,2.69-.54,1.94,0,3.8-.7,5.75-.64,2.81.1,5.62.11,8.42.2,5.52.17,11.13.37,16.31-1.73,8-3.24,15.1-7.73,19.41-15.61C182.88,68.42,183,68.61,183.15,69Zm-1.66-6.2c.65,0,.59.88.93,1.32v0c-.07,2.47-.3,4.92-2,6.94-5.36,6.56-11.95,11.32-20.21,13.52-5.79,1.55-11.73.87-17.61.92-.85,0-1.8.33-2.32,0l2.84-.33.34,0c2.89-.33,5.87-.68,8.85-.93a23.69,23.69,0,0,0,9-2.13c8.09-4.17,14.66-10,19.06-18C180.66,63.52,180.91,62.78,181.49,62.79Zm-3.1-3.47a3,3,0,0,1,1.38,4.27,41.44,41.44,0,0,1-11,12.79c-5.43,4.24-11.23,7.19-18.36,7.09-4.17-.06-8.35.41-12.52.64-3.22.74-6.53,1.13-9.57,2.51-.26.09-.64.09-.77.27-1.13,1.55-3,1.71-4.56,2.38-.76.33-.12-.27-.16-.43a32.24,32.24,0,0,1,9.89-4.6l5.29-.9c3.56-1,7.26-.9,10.88-1.43,6.12-.89,11.89-2.5,16.29-7.27A81.2,81.2,0,0,0,173,64.86c1.11-1.66,2.28-3.29,3.47-4.9A1.44,1.44,0,0,1,178.39,59.32Zm-1.93-2c.63.74.62,1.07-.11,1.75a15.34,15.34,0,0,0-2.22,2.82,95,95,0,0,1-7.29,9.77c-2.93,3.34-6.07,6.43-10.47,7.79a47.09,47.09,0,0,1-11.11,2.09,47.89,47.89,0,0,0-7.8,1.11c-1.1.24-2.25.85-3.46.41,1.28-1.22,3.2-1,4.57-2,2.64-.75,5.29-1.46,7.92-2.24a38,38,0,0,0,12.85-6.69,56.36,56.36,0,0,0,12.83-14.44C173.94,54.83,174.39,54.9,176.46,57.3ZM147.34,73.51c9.15-4.62,16.77-10.87,21.63-20.13,1.21-2.32,1.77-2.28,3.46-.17.25.31.51.62.75.94s.38.65,0,1c-2.68,2.78-4.34,6.31-6.9,9.19-6.23,7-13.51,12.3-22.86,14.35a14.61,14.61,0,0,0-4.65,1.57l-1.26.37c-.4-.57.31-.71.43-1.08l.44-.41A76.44,76.44,0,0,1,147.34,73.51Zm15.82-27.6c.18.33,0,.53-.27.7-1.72,1.21-2.35,3.11-2.92,4.94A35.74,35.74,0,0,1,147.6,69.33c-2.22,1.76-4.33,3.65-6.49,5.48l-.13-.17c.84-1,1.67-2,2.54-3,5.1-5.71,9.86-11.6,11.93-19.23a14.63,14.63,0,0,1,3.4-5.54,4.18,4.18,0,0,1,3.05-1.71A1.27,1.27,0,0,1,163.16,45.91Zm-5.29-4.07v0l0,0h0c0,.36-.29.81.28,1,.85.26,2,.19,2.2,1.28s-1.18,1.16-1.78,1.78c-1.17,1.21-1.91,2.75-3.33,4.41.24-2.39.33-4.32.68-6.2C156.11,43.09,156.45,41.91,157.87,41.84Zm-1.43-.26c-1.46,1.58-1.62,3.51-1.71,5.48-.36,7.63-3.4,14.16-8.28,19.91-2.66,3.15-5.35,6.27-8,9.4l-.12,0v.12a2.82,2.82,0,0,0-.39.29,29.7,29.7,0,0,0-2.43,2.46c-3.94,3.26-8.66,5.25-12.9,8,.55-1.25,1.76-1.79,2.59-2.72.87-.54,1.72-1.14,2.62-1.61,3.62-1.9,6.2-5.16,9.68-7.29,1.78-1.09,2.93-3.19,4.37-4.81,4.85-5.45,7.87-11.65,7.94-19.08a26.5,26.5,0,0,1,.68-7.16C151.57,40.65,152.75,40.93,156.44,41.58Zm-4.11-.91a4.83,4.83,0,0,0-2.63,3.45,18.16,18.16,0,0,0-.67,4.75,56.41,56.41,0,0,1-.63,7.68,21.38,21.38,0,0,1-6.06,11.79c.28-.78.57-1.57.86-2.35a31.61,31.61,0,0,0,2.49-13.32c0-3.23.13-6.5,1.68-9.49C148.54,41.76,149.46,39.89,152.33,40.67Zm-3-2.29c.56.55,1,1.11-.06,1.73a6.46,6.46,0,0,0-2.75,3.39c-1.53,2.33-1.54,5-1.52,7.61a39.94,39.94,0,0,1-2.6,15.24c-1.38,2.44-2.28,5.18-4.57,7.31a12,12,0,0,1,.53-1.28c4.21-7.22,5.78-15.08,5.77-23.35a34.3,34.3,0,0,1,1-9.52A2.62,2.62,0,0,1,149.35,38.38Zm-10.43,1.8a6.18,6.18,0,0,1,4.43-2.2c.61-.08,1.31-.14,1.33.82a22.55,22.55,0,0,0-1.25,8.26c-.13,5.57-.37,11.09-2.06,16.47-2.47,7.88-6.67,14.41-14,18.64-.47.27-.84.85-1.53.55.19-.24.37-.48.55-.73h0c.26-.3.55-.58.79-.9a58.91,58.91,0,0,0,10.34-21C139.4,53.66,140.82,47,138.92,40.18Zm-4.4.85c0-.71-.48-1.69.74-2a2,2,0,0,1,2.47,1,9.69,9.69,0,0,1,1.18,5,55,55,0,0,1-3.22,18.21,65.45,65.45,0,0,1-13.11,22.21c-.43.21-.64.63-.94,1-2.9,3.27-6,6.24-10.38,7.51-1.09.63-2.36.54-3.53.83,1-1.14,2.46-1.13,3.71-1.63a29.18,29.18,0,0,0,2.83-1.62,47.09,47.09,0,0,0,19.41-30C135.09,54.78,134.76,47.9,134.52,41Zm-9.65,32.29a29.3,29.3,0,0,0,2-12.26c-.1-4.12-.89-8.18-1.12-12.3-.18-3.3.36-6.4,2.64-9a4.13,4.13,0,0,1,4.69-1.18,9.7,9.7,0,0,0-2.14,7c.17,3.94.74,7.88.39,11.82-.49,5.36-2.87,10.09-5.21,14.81a7,7,0,0,1-2.41,3.47C124.12,74.92,124.49,74.12,124.87,73.32ZM111,91a57.38,57.38,0,0,0,19.9-27.77,25.28,25.28,0,0,0,1.25-10.5c-.2-2.62-.38-5.26-.44-7.89a7.46,7.46,0,0,1,1.73-5.48,79,79,0,0,1,.36,9.7c.36,15.18-4.63,28.22-15.88,38.62a23.24,23.24,0,0,1-10.45,5.88C108.57,92.27,109.94,91.85,111,91ZM109,98.74l6,5.13.25.24,2.59,2.73c.22.85,1,1.27,1.55,1.76a100,100,0,0,1,9.35,8.58c5.07,5.31,11.36,7.19,18.52,6.73,3.54-.23,7-.81,10.54-1.35.45-.07,1-.44,1.4.06-1.87.71-3.73,1.46-5.62,2.12a22.83,22.83,0,0,1-12.68,1,33.16,33.16,0,0,1-13.71-6.42c-3.21-3.19-6.43-6.37-9.34-9.86a47.26,47.26,0,0,0-10.42-9.69c-2.06-1.33-4.21-2.52-6.62-4C104.18,95.64,106.5,97.4,109,98.74Zm-130.59,17.4a55.07,55.07,0,0,0,10,6.23c.36.16.76.31.69.84a27.15,27.15,0,0,1-8.16-3.31C-26,116-30.78,110-34.8,103.29a153.16,153.16,0,0,0-10.43-15.9A22,22,0,0,0-47,85.55h0l-.76-.81a3.89,3.89,0,0,0-.4-.41c-3.33-3.43-7-6.32-12-7-3.68-.49-7.35-1.06-11.07-.63a28,28,0,0,0-7.52.77c-.41-.37-1,.3-1.39-.19a4.55,4.55,0,0,1,2.14-1c2.61-.67,5.26-1.21,7.83-2a28,28,0,0,1,15.6,0c5.81,1.52,10.56,4.31,13.24,10,2.11,4.45,4.34,8.85,6.5,13.28A68.82,68.82,0,0,0-27.5,110,22.64,22.64,0,0,0-21.62,116.14Zm11,8.28a5.91,5.91,0,0,1-1.46,0l-.23.2a3.24,3.24,0,0,0-1.8-.37A32.41,32.41,0,0,1-31,117.35c-2.26-1.75-4.53-3.47-6.79-5.21-4.36-3.77-7.13-8.76-10.37-13.4-5.25-7.52-12-13.23-20.87-16a27,27,0,0,0-18.21.4,10.63,10.63,0,0,1-1.23.33l0,0-.15-.24a17.68,17.68,0,0,1,11-4.4,44.5,44.5,0,0,1,13,2c8.8,2.47,15.61,7.28,20,15.47a92.24,92.24,0,0,0,12.67,17.69c2.53,2.81,5.15,5.56,8.75,7.06a22.23,22.23,0,0,0,8,2.3l2.77.6c.57-.26,1.11.15,1.67.07C-10.62,124.09-10,124.28-10.62,124.42Zm.08.92a6.65,6.65,0,0,1-2.43.2c-8.84.44-17-2.16-24.62-6.21-5.37-2.84-8.86-7.9-12.61-12.55l-.06-.09c-2-3.2-4-6.44-6.1-9.58a33.4,33.4,0,0,0-5.26-6.3C-69.26,84-78.33,83.05-88,84.6a2.24,2.24,0,0,1,1.49-1,27.62,27.62,0,0,1,20.62,1.09c8.09,3.6,14.08,9.54,18.68,17,3,4.86,6.41,9.36,11.11,12.75,1.26,1,2.54,1.93,3.79,2.92A33.56,33.56,0,0,0-13,125l.7-.31C-11.87,125.34-11,124.65-10.54,125.34ZM-78.8,77.5c1.7.4,3.37-.56,5.08-.09l2.46-.27c3.23.18,6.46.34,9.69.68a18.35,18.35,0,0,1,10.1,4.54c.65.55,1.33,1.07,2,1.6,5.79,5.62,9.54,12.68,13.64,19.46s9.07,12.75,15.85,17a8.4,8.4,0,0,0,3.3,1.46c-1,.65-1.89-.12-2.78-.35-1.34-.34-2.64-.89-3.95-1.35a23.19,23.19,0,0,1-5.31-4A96.56,96.56,0,0,1-44,95.53,30.39,30.39,0,0,0-60.15,81.39a53.79,53.79,0,0,0-13.24-3.32c-1.71,0-3.41,0-5.12,0C-79.07,78.05-79,77.84-78.8,77.5ZM-32.13,98c1,2.53,2.13,5,3.21,7.49a20.11,20.11,0,0,0,2.13,3.34l2,2.46,1.42,2a15.78,15.78,0,0,1-3.09-2.75c-.47-.72-.94-1.44-1.42-2.16-1.64-1.71-2.52-3.89-3.57-5.94-3.09-6.07-6-12.24-9.07-18.32-1.7-3.36-3.8-6.43-7.37-8.13C-55,72.61-62.26,71.08-70,73.38c-2.54.76-5.16,1.25-8.09,2a6.45,6.45,0,0,1,.9-1c5.5-3.6,11.45-6.35,18-6.36,10,0,17.19,5,21.07,14.32C-36,87.41-34.16,92.74-32.13,98Zm-6.2-18a2.91,2.91,0,0,1-.53-.65,19.78,19.78,0,0,0-10.21-9.93C-59,64.68-68,68.21-76.79,73a5,5,0,0,0-1.29,1.11,15.47,15.47,0,0,1-3.46,2.79l.4-.94c3.42-3.38,6.6-7,10.42-10,.45-.23.92-.43,1.36-.69a23.11,23.11,0,0,1,17.18-2.75c3.6.74,6.9,2.21,9.18,5.24,2.59,3.44,3.74,7.54,4.94,11.6C-38,79.6-38,79.87-38.33,79.92ZM-81.7,76.35a1.66,1.66,0,0,1,.48-.35Zm42.63-2.47c-1.33-3.71-2.83-7.31-6.47-9.41-7.14-4.12-14.47-4.17-21.93-.9a3.9,3.9,0,0,1-2.17.88A13.34,13.34,0,0,1-67,62.61h0L-65,61.27c3-.8,5.84-1.94,8.94-2.16,5.13-.35,9.71.89,13.51,4.49A21.57,21.57,0,0,1-38.88,72C-38.75,72.56-38.18,73.34-39.07,73.88Zm-12.2-18.56a29.81,29.81,0,0,1,3.81,1.45C-44,58.5-42,61.42-40.32,64.7A4,4,0,0,1-39.58,67,6.68,6.68,0,0,1-41,64.5c-1.05-1-1.71-2.43-3.12-3.09l0,0a18.86,18.86,0,0,0-13.55-2.71,25.73,25.73,0,0,0-5,1.28c-.36.12-.76.56-1.13,0a28.4,28.4,0,0,1,8.43-4.57ZM-67.94,31.8c2.27,3.24,3.12,7,3.62,10.79a14.59,14.59,0,0,0,2.84,7.17,5.56,5.56,0,0,1,2,2.35,7.87,7.87,0,0,1-3.07-2.76,27.35,27.35,0,0,1-5.73-10c-1.61-4.57-3.06-9.23-6.76-12.74A14.14,14.14,0,0,1-67.94,31.8Zm-9.88-6.05c3.85,2.49,6,6.19,7.45,10.42,2.09,6.25,4.61,12.23,10,16.48a2.44,2.44,0,0,1-1.84-.53A29.79,29.79,0,0,1-72.46,38.45a32.27,32.27,0,0,0-5.21-9.63,40.35,40.35,0,0,0-5.21-5A10.82,10.82,0,0,1-77.82,25.75ZM-80.39,27c3.53,3.47,5.62,7.75,7.39,12.25A26,26,0,0,0-65.58,50c.18.14.36.29.13.57a5.48,5.48,0,0,1-2.36-.83l-4.59-5.25a102.32,102.32,0,0,1-6.17-9.69c-2.27-3.91-5-7.4-9.07-9.64-1.37-.77-2.83-1.39-4.42-2.16A13.07,13.07,0,0,1-80.39,27Zm5.57,18.19h0A52.74,52.74,0,0,1-84.66,32.7a18.27,18.27,0,0,0-10.89-8.65c-.52-.17-1.47.07-1.47-1a16.9,16.9,0,0,1,6.3,1.41c5.44,2.29,9,6.53,11.84,11.48a50.43,50.43,0,0,0,5.38,8.13c.88,1.72,2.56,2.83,3.68,4.47-1.06.27-1.42-.65-2.1-.86l-.48-.33a1.51,1.51,0,0,1,.28.15Zm-41.52,51.25c8-12.74,12.73-27.18,21.2-39.61l0,0c.62-.82,1.28-1.61,1.87-2.45A14.68,14.68,0,0,1-83.1,47.91a30.93,30.93,0,0,1,8.54.21,2.66,2.66,0,0,1,.28.23c.18.21,0,.33-.44.39-1.82.23-3.63.48-5.45.73a15.81,15.81,0,0,0-11.34,7c-2.73,4-5.57,8-7.58,12.43h0a46.71,46.71,0,0,0-3.3,8.65c-2,7.39-6.66,13-12.19,17.94C-115.07,95.91-115.61,96.53-116.34,96.46Zm3-.63a30.1,30.1,0,0,1,2.61-2.9,34.56,34.56,0,0,0,8.82-14.34,105.07,105.07,0,0,1,3.75-10.32h0c1.93-3.11,3.92-6.19,5.8-9.33,3.3-5.51,8.06-8.64,14.52-9.07l2.16-.4c0,.16,0,.32,0,.49l-2.17.44a28.52,28.52,0,0,0-5.32,2.68c-2.76,1.82-5.39,3.79-7,6.8A22.29,22.29,0,0,0-94,66.3a113.63,113.63,0,0,0-4,13,23.57,23.57,0,0,1-7.31,11.8A22.69,22.69,0,0,1-113.32,95.83Zm7.89-3.51a7.64,7.64,0,0,1,.68-.79,25,25,0,0,0,7.59-12.59c1.93-7,3.45-14.17,8.3-20,5.39-5.73,11.5-9.75,19.89-8.38,4.16,1.32,8.16,3.16,12.47,4,.13.72-.52.58-.85.73-4.93,2.15-9,5.47-13,9a8.22,8.22,0,0,0-2.34,2c-4.47,4.09-8.58,8.56-13.19,12.5-2.47,2.12-4.43,4.79-7.31,6.47S-99,89-101.92,90.69C-103,91.29-103.89,92.2-105.43,92.32Zm53.1,45.23A32,32,0,0,1-71,134.26c-6.94-3.5-12.18-8.4-15.3-15.55a91.3,91.3,0,0,1-3.91-11.48L-91,104.6l.54-.06h0a11.42,11.42,0,0,1,1,2.64c1.89,4.39,3.46,8.92,6.22,12.9,3.27,4.71,7,8.92,12.23,11.51a25.24,25.24,0,0,0,10.32,3.23c1.29.14,2.59.22,3.89.33,3.38.63,6.86.61,10.21,1.64C-48.57,137.16-50.45,137.33-52.33,137.55Zm-39-36.84s.11-.15.23-.31a43.67,43.67,0,0,1,7.46,10.65,83,83,0,0,0,7.28,12C-72,128.9-65.47,131.35-59,133.83c.44.89-.26.49-.55.46a29.66,29.66,0,0,1-10.53-2.81c-.35-.17-.73-.29-1.1-.44A34.63,34.63,0,0,1-84.7,116.33C-87.24,111.28-89.18,105.93-91.37,100.71Zm38.62,34.07c-1.68-.19-3.26-.9-5-.89h0c-1.27-1-2.87-1.34-4.32-2-4.5-2-9.05-3.82-12.42-7.69A52.91,52.91,0,0,1-81.31,114c-3-5.72-6-11.43-11.17-15.65-.23-.18-.59-.4-.35-.87l1.25.4h0c1.84,1.36,3.64,2.76,5.51,4.07a26.52,26.52,0,0,1,8.35,9.62,63.33,63.33,0,0,0,5.49,9.29c.38.49.84.93,1.25,1.39l.07.07c4.29,5.1,9.82,8.34,16,10.57,2.93,1.06,6.06,1.41,9,2.29A34,34,0,0,1-52.75,134.78Zm13.39.11c-11.3-.58-21.68-3.52-30-11.73-3.37-3.57-5.62-7.88-7.83-12.19-3.28-6.4-8.79-10.33-14.75-13.83l-1.27-.63-.67-.78h0s0,0,0,0c4,1,7.2,2.94,10.36,5a7.75,7.75,0,0,0,2,1.28,37.22,37.22,0,0,1,8.69,10.53c5.87,10,14.83,15.79,25.65,19.12a11.24,11.24,0,0,0,3.25,1c2.31.85,4.84,1,7.07,2.21A11.24,11.24,0,0,1-39.36,134.89Zm17-1.49a6.89,6.89,0,0,1-1.8.45,75,75,0,0,1-9.58.64l-10.47-2.56-3.26-1.05a48,48,0,0,1-19.28-11.45c-2.69-2.63-4.47-5.9-6.5-9-2.53-3.84-5.34-7.43-9.35-9.88-4.3-3.18-8.94-5.57-14.39-6l-.72-.08L-99.23,94c-.07-.2-.74-.44,0-.59.37-.08.75-.12,1.13-.17,11,.3,20.57,4.13,28.4,12,2.56,2.57,4.42,5.68,6.54,8.59,6.66,9.15,14.8,16.29,26.31,18.53a42.19,42.19,0,0,0,11.28.62,8.89,8.89,0,0,0,3.17,0,2.34,2.34,0,0,1,2.24,0ZM-98.19,92.16c5.44-1.12,10.85-1.7,16.18.52l4.55,1.88h0c2.55,1.52,5.28,2.76,7.38,5,5.68,6,11.43,11.9,16.81,18.17,3.14,3.65,6.47,7.15,10.86,9.39A32.15,32.15,0,0,0-33,131.5a4.61,4.61,0,0,1,2.64.92l-2.34-.19c-9.64-.55-17.18-5.32-24-11.73-3.63-3.42-6-7.77-9-11.65-8.22-10.54-18.94-16.12-32.41-16.17ZM-16.1,132.4c0-.19,0-.38,0-.57,1.65-.77,3.16-1.86,5-2.19A15.41,15.41,0,0,1-16.1,132.4Zm3.39-3.41a33.94,33.94,0,0,1-12.94,2.87c-6.29,0-11.81-2.43-17.09-5.57-6.76-4.22-11.16-10.8-16.49-16.46q-5-5.26-9.91-10.52a24.71,24.71,0,0,0-8.63-5.52,27.35,27.35,0,0,0-19-2.7c-1.51.32-3,1-4.63.65A41.72,41.72,0,0,1-87.15,87.6,22.42,22.42,0,0,1-70,92.73a61.54,61.54,0,0,1,10.18,10.66c2.71,3.53,5,7.39,8.25,10.51.44.52.86,1,1.31,1.56,4.28,5,9.78,8.23,15.59,11a31.25,31.25,0,0,0,22,2.05,5.63,5.63,0,0,1,2.56-.72A6.28,6.28,0,0,1-12.71,129Zm6.36-3.34-2.17.57c-10,4-19.61,3.22-29-2.08A52.66,52.66,0,0,1-50,114.78h0a108.69,108.69,0,0,1-7.55-9.57A74.06,74.06,0,0,0-67.83,93.49c-7.46-6.74-16-8.31-25.43-5.61l-3,.83c1.61-1.43,3.58-2,5.45-2.85a42.66,42.66,0,0,1,10.32-1.29c10.7,0,18.55,4.83,24.08,13.81a75.64,75.64,0,0,0,5.34,8.15.47.47,0,0,1,.22.07l-.22-.07c4.5,6.16,9.12,12.19,16.55,15.15,6.84,2.71,13.77,5,21.27,4.6.91,0,1.81-.24,2.71-.37h0a2.36,2.36,0,0,0,1.45-.27h.51a4.06,4.06,0,0,1,2.21-.53C-5.58,125.12-6.29,125.46-6.35,125.65ZM-9,122.93l-1.55-.74a10.09,10.09,0,0,1-3.89-2.26c-.1-.09-.19-.19-.29-.29l-.18-.19.21.1h0l3.57,1.73a20.13,20.13,0,0,0,9.26,1.13c.6,0,1.29-.45,1.86.15C-3,123.62-6,123.38-9,122.93ZM64.62,97.21a64.79,64.79,0,0,1-17.45,3.66c-6.14.3-12.09-.14-16.76-4.9a.43.43,0,0,0-.13-.28L30,95c.58.26,1,.42,1.41.64a21,21,0,0,0,16.38,2.1c6.74-1.82,13.54-3.4,20.62-2.64.5,0,1.49-.54,1.53.69A30,30,0,0,0,64.62,97.21ZM96,92.12c-1.31-1.11-2.63-2.21-3.93-3.34a12.6,12.6,0,0,1-3.64-5.72c-1.76-5.26-3.58-10.5-5.37-15.75-1.57-4.6-4.54-7.74-9.35-9l.09.21a.5.5,0,0,1-.09-.21c-3.15-1.15-6.41-.94-9.66-.76-.62,0-1.24.33-1.85,0,2.22-.88,4.24-2.25,6.64-2.69a17.66,17.66,0,0,1,19,10.27c1.79,4.22,2.43,8.71,3.54,13.09,1.18,4.65,2,9.44,4.94,13.47ZM70,52.72a15.31,15.31,0,0,1,4-1.49c13.17-.73,20.86,9.21,17.38,22.86A5.68,5.68,0,0,1,91,73a29.2,29.2,0,0,0-3.09-9.6c-3.37-6.69-12.06-10.9-19.07-9.31C68.59,53.09,69.49,53.06,70,52.72Zm10.83-6.94h0c.64.27,1.4,0,2,.44,3.87-.15,7.44,1.07,10.93,2.54a11.36,11.36,0,0,1,6.78,7.71,27.42,27.42,0,0,1-.07,16.24,48.12,48.12,0,0,0-2.6,16.72A2.36,2.36,0,0,1,98,91.05a1.48,1.48,0,0,1-.78-1.37c-.77-5.64-2-11.24-1.22-17,.27-1.93.53-3.86.71-5.8.46-4.88.28-9.62-3.21-13.6-2.82-3.23-6.09-5.69-10.4-6.48l-1.25-.07c-1.36-.53-2.87-.24-4.49-.65C78.66,45.51,79.76,46,80.81,45.78ZM61,56.59a1.46,1.46,0,0,1,.39-.25c2.81-2.15,5.63-4.28,8.42-6.46a12.85,12.85,0,0,1,9.93-2.81c.73.1,1.47.13,2.2.2.27.07.55.16.82.22,8.59,2,13.49,8.36,13.18,17.14a16.67,16.67,0,0,1-.22,2.92c-1.43,6.86-.77,13.69.21,20.52a1.82,1.82,0,0,1,.22,1.83,3.31,3.31,0,0,1-1-2c-1.36-4.33-2.58-8.69-2.54-13.28,0-2.57,0-5.16.22-7.72.91-10.7-11.21-18.24-19-16.25a10.18,10.18,0,0,0-6.61,3.09l-6.11,3.34a3.83,3.83,0,0,1-1.83,1.14C59.38,57.09,60.3,57,61,56.59Zm-4,2.75a19.11,19.11,0,0,0,4.38-.8,42.61,42.61,0,0,1,9.24-.18c1.18.17,2.34.48,3.51.73a12.31,12.31,0,0,1,8.15,8.62c1.5,5.23,3.68,10.22,5.29,15.42A10.86,10.86,0,0,0,90,88.05l4.75,4,.81.88c-1.07,0-1.65-.9-2.57-1a24.46,24.46,0,0,1-4.58-4.68,27.76,27.76,0,0,1-4.33-7.12C82.42,76.34,81.39,72.3,78.89,69h0c-2-3.08-5.07-4.5-8.55-5.15a65.38,65.38,0,0,0-9.58-.89A33.89,33.89,0,0,1,48,60.37l-1.46-1.24A22.57,22.57,0,0,0,57,59.34ZM82.93,80a22.85,22.85,0,0,1-4.54-5.42,20.17,20.17,0,0,0-10.07-7.95,48.61,48.61,0,0,0-11.07-2.27c-2.45-.23-5-.24-7.09-1.73l-.63-.84,0-.06a37.47,37.47,0,0,0,8.94,1.71c2.85.16,5.7.4,8.55.62,3.79.29,7.3,1.32,10.17,4C80.2,71.53,81.29,75.89,82.93,80ZM39.44,58.64c.45-.5,1.3-.34,2-.24a9.6,9.6,0,0,1,4.9,2.32c3.09,2.62,6.43,4.54,10.67,4.43a31.61,31.61,0,0,1,7,1c5.67,1.13,10.42,3.73,13.71,8.65.49.73,1.33,1.29,1.42,2.41l-3.74-2.57-.06-.05a20.33,20.33,0,0,0-8.18-3.38c-4.61-.88-9.24-1.71-13.84-2.65a25.64,25.64,0,0,1-7.58-2.71A16.72,16.72,0,0,1,40,60.28C39.92,59.67,38.93,59.21,39.44,58.64Zm-3.3,2.45c.09-1,1-1.37,1.81-1.6.58-.16.56.45.6.8.86,6.64,5.45,10,11,12.59,4,1.87,8.35,2.35,12.69,2.77,4.07.11,8.12.32,11.72,2.6.21.13.6.36.91,0l0,0h0a6.65,6.65,0,0,0-3.3-2,29.27,29.27,0,0,0-8.09-1.33c-5-.32-9.93-.81-14.46-3.14-4.3-2.22-8.17-4.86-9.34-10,.42-.2.64.09.84.37,2.72,3.73,6.64,5.47,10.92,6.65a100.89,100.89,0,0,0,11.27,2.29c4.91.76,9.62,2,13.72,5h0c4.38,3,7.71,6.91,11,11.56a44.91,44.91,0,0,1-8.59-6.5A5.8,5.8,0,0,0,76.35,79c-.29-.26-.51-.71-1-.36a1.16,1.16,0,0,0-.24-.2c-.26.71.61.76.74,1.29l-.93-.16h0c-.4-.22-.79-.46-1.19-.67a26.81,26.81,0,0,0-11.24-2.55,71.44,71.44,0,0,1-11.61,0,23.91,23.91,0,0,1-7.16-2.16h0a16.88,16.88,0,0,1-7.14-9.77A9.59,9.59,0,0,1,36.14,61.09Zm-1.19,2c0-.1.21-.19.38-.33,1.2,5.38,3.66,9.79,8.75,12.32,3.71,2.25,7.84,2.34,12,2.35,2.3,0,4.59-.18,6.88-.23a25.29,25.29,0,0,1,12.34,3.24A13.3,13.3,0,0,0,78.06,82c-.31,1-.92.22-1.28.12-2.25-.58-4.45-1.38-6.71-1.87a32.66,32.66,0,0,0-12.88.16,27.35,27.35,0,0,0-4.79.18C45,80.92,39.68,77.7,36,71.38,34.45,68.71,34.83,65.9,35,63.07ZM68.11,80.45c0,.17,0,.35,0,.53l-1.83-.07-.72.26a17.93,17.93,0,0,0-2.2.15c-3.57.7-7.15,1.39-10.71,2.2a19.18,19.18,0,0,1-8.43-.08c0-.91.75-.49,1.13-.54A23.67,23.67,0,0,0,50.49,82a59.09,59.09,0,0,0,6.74-1.08,55.19,55.19,0,0,1,9-.57A2.9,2.9,0,0,1,68.11,80.45ZM33.83,68.13A18.88,18.88,0,0,0,40,77.5a16.06,16.06,0,0,0,8.79,3.77c-.86,1.09-2.15.63-3.25.85a23.17,23.17,0,0,1-2.51.23C37.33,82.39,31,74.8,33.83,68.13Zm-2.9,5.32c.79-1,1.16-.85,1.49.28,1.71,5.9,6,8.94,11.65,10.42a4.22,4.22,0,0,1,2.32.57c-.85.21-1.41.43-2,.17C39,85.14,34.48,83.67,31,79.35,29.26,77.17,29.15,75.65,30.93,73.45ZM28.7,78.3c.7-.31.78.5,1.06.85,3.17,3.95,7.05,6.38,12.33,6.43,8.07.07,15.77-1.93,23.5-3.82,5.08-1,9.76.53,14.4,2.33a74.93,74.93,0,0,1,11,7.2,19.65,19.65,0,0,0,2.64,1.55c.29.26.65.49.54,1l-6-2c-2.22-1-4.48-2-6.66-3.17a34.26,34.26,0,0,0-24.2-3.1c-3,.7-6,1.55-9.06,2-6.35,1.05-12.4.47-17.27-4.38-1-1-2.35-1.85-2.68-3.42C28.17,79.28,28.07,78.58,28.7,78.3ZM85.25,91.63l-2.56-.75a.89.89,0,0,1-.32,0C76.11,88.37,69.71,87,62.91,88.14c-4.74.79-9.46,1.73-14.25,2.26a24.57,24.57,0,0,1-12.48-1.46,10.35,10.35,0,0,1-4.79-3.88c.34,0,.45,0,.52.08.29.18.58.36.86.57,2.79,2.16,6,2.85,9.47,3.09,4.92.34,9.53-1,14.2-2.19,6.66-1.63,13.27-1.73,19.78.66,2,.74,3.94,1.71,5.9,2.58A5.42,5.42,0,0,1,85.25,91.63Zm-58-8.41c.87-1.34,1.56-.76,2.09.26,2.85,5.43,7.76,7.34,13.46,7.83,4.44.38,8.81-.4,13.14-1.21,7-1.3,13.89-2.55,20.89-.32,2.71.87,5.44,1.68,8.16,2.52a3.48,3.48,0,0,1,2.08.64,4.59,4.59,0,0,1-2,0l-.77.11h0a12,12,0,0,0-4.62-.26c-3.65-.23-7.29-.46-10.94-.71C61.87,91.6,55.11,91.9,48.5,94a19.44,19.44,0,0,1-4.87,1c-5.82.26-11.2-.66-15.12-5.6C27,87.51,26.24,85.56,27.27,83.22Zm-.71,5a33.5,33.5,0,0,0,2.93,3.34C34.26,95.79,40,96.36,46,95.35c3.5-.59,6.83-1.92,10.38-2.35,6.88-.85,13.73-.06,20.59.22.31,0,.75-.09.65.49-2.1.3-4.14,1-6.3.94a44.54,44.54,0,0,0-17.06.72c-2.29.5-4.59,1-6.85,1.67-7.48,2.07-13.87-.27-19.75-4.78C27.24,90.91,26,89.8,26.56,88.2Zm-1.46.9c3.26,8.62,9.07,12.64,18.29,12.8a63.92,63.92,0,0,0,21.4-3.74,3.84,3.84,0,0,1,2.84-.35c-2.59,1.41-4.92,2.66-7.24,4a31.77,31.77,0,0,1-16.49,4.1c-7.2-.16-13.39-2.42-17.29-9C25.26,94.58,24.51,90.77,25.1,89.1Zm-1.45.66c.43,6.59,3.46,11.17,8.6,14.17,5,2.89,10.54,3.38,16.22,2.94-5.27,2.2-10.63,3.07-16.21,1.37-6.42-1.95-10.14-6.92-10-13.53A9.47,9.47,0,0,1,23.65,89.76Zm-1.59.17C19,99.3,24,106.84,32.79,109.72a17.12,17.12,0,0,1-6.5-.34c-4.66-1.09-7.74-4.17-9.61-8.37S16.87,92.59,22.06,89.93Zm-5.61,3.25a8.66,8.66,0,0,0-.29,9.22c2.84,5,7,8.12,12.92,8.41a50.66,50.66,0,0,0,15.52-1.34,5.58,5.58,0,0,1,2.63-.63,7.15,7.15,0,0,1-2.81,1.4,43,43,0,0,1-20.09,2.58,14.37,14.37,0,0,1-12.15-11.55A7.16,7.16,0,0,1,16.45,93.18Zm-3.08.92c-2.81,3.11-2.85,6.54-1.26,10.13,2.46,5.58,6.63,8.93,12.78,9.62,6.38.71,12.54-.58,18.67-2.1l3.28-1.68c-.68,1.49-2.18,1.82-3.46,2.45-6.85,3.73-14,5.57-21.82,3.76a31.17,31.17,0,0,1-4.43-1.81l-.77-.53-2.88-2.46c-2.84-3.56-4.86-7.44-5-12.12C9.41,95.89,11,94.12,13.37,94.1Zm-10.6,29c-.17,0-.35,0-.34-.25a28.12,28.12,0,0,1,8.65-2.16h0a13.3,13.3,0,0,1,2.64,2.71A37.92,37.92,0,0,0,2.77,123.07Zm36.73-4.32a9.44,9.44,0,0,1-2.6,1.39,51.46,51.46,0,0,1-7.51,3.73c-6.19,2.47-11.85,1.87-16.84-2.81-1.49-2-3.13-4-3.84-6.51h0c-.21-1.56-.41-3.11-.62-4.66,2.26,3.78,5.61,6.39,8.87,9.08a14.56,14.56,0,0,0,8.72,3.18c4.1.23,7.72-1.39,11.42-2.77l2.33-1.15c0,.18,0,.35.07.52Zm8.44-7.25c-.41.74-1.53.65-1.83,1.52-4.86,4.36-10.71,6.79-17,8.16a13.14,13.14,0,0,1-11.76-2.8c-1.61-1.37-3.23-2.73-4.74-4.21a16.48,16.48,0,0,1-5.3-11.53,4,4,0,0,1,.39-2.54c.09.83.18,1.66.26,2.49a23.13,23.13,0,0,0,3,6.84,15.82,15.82,0,0,0,6.74,6c5.33,2.86,10.93,2.58,16.56,1.3a43.38,43.38,0,0,0,14.26-6.58h0l2.55-1.87h0c.33.13.54-.49.9-.13h0l-3.36,3Zm56.77,78.14h0c1.71-3.61,3.41-7.22,3.47-11.34a9.28,9.28,0,0,1,.22-3.06c-.14-2.68.22-5.38-.34-8.05h0a54.4,54.4,0,0,0-9-23.08,122.54,122.54,0,0,0-8.21-10.43,40.36,40.36,0,0,1-4.66-5.53c-.13-.89-1-1.37-1.33-2.51l6.11,7h0c.31.5,1,.73,1.07,1.4l.7.7c1.69,1.53,3.53,2.88,5.07,4.56l.33.37a22,22,0,0,1,6.89,9.85c1.74,4.72,3.61,9.4,4.44,14.4.64,3.69,0,7.34-.36,11C108.57,180.12,108.43,185.41,104.71,189.64Zm5.34-25.75c-1.71-8.1-3.75-16.1-9.3-22.57-2.69-3.13-6.26-5.38-9-8.46v0c-.66-1.2-1.8-2-2.55-3.1s-2.07-1.61-2.17-3.06c.71.87,1.83,1.12,2.71,1.74,3.79,2.7,7.18,5.9,10.75,8.85a24.89,24.89,0,0,1,8,12,72,72,0,0,1,3,26.67c-.61,2.74-.85,5.59-2.23,8.12-.27.48-.29,1.24-1.14,1.19,1.29-3.78,1.52-7.74,2-11.66C110.4,170.38,110.82,167.14,110.05,163.89Zm3.51,19a6.78,6.78,0,0,0-1.24,2,19.53,19.53,0,0,1-4.4,2.81c0-.82.6-1.21.82-1.78a20.72,20.72,0,0,0,3.25-10c1.05-6.15.07-12.21-.7-18.29a47.24,47.24,0,0,0-2.5-9.81,23.38,23.38,0,0,0-6.7-10c-4.51-3.91-8.88-8-13.91-11.22-.45-.29-.8-.88-1.48-.65-2.17-2.06-4.84-3.54-6.75-6l1.43.51c3.21,1.87,6.44,3.72,9.63,5.62a57.32,57.32,0,0,1,18.08,17.09,87.15,87.15,0,0,1,5.38,13.36,17.44,17.44,0,0,1,.9,5.22c.09,3.15.33,6.29.34,9.44a33.08,33.08,0,0,1-1.82,11A.86.86,0,0,0,113.56,182.91Zm1.1-1.12c1.9-4.11,2-8.5,1.92-12.9-.06-2.51-.25-5-.37-7.52a18.38,18.38,0,0,0-1.11-5.53c-1.59-4.21-2.87-8.55-5.22-12.45a46.76,46.76,0,0,0-11.26-12.76,67.36,67.36,0,0,0-12.77-8.26,6.35,6.35,0,0,1-1-.7c-.9-.3-1.84-.53-2.31-1.5.7.2,1.48.2,2,.82,5.3,1.78,10.44,3.78,14.9,7.32a58.08,58.08,0,0,1,19.23,27.27c.21,1.06.35,2.15.64,3.19a24,24,0,0,1-.46,14.39c-.68,2-1.33,4-2.18,6C116.27,180.13,116,181.43,114.66,181.79Zm4-5.61a28.3,28.3,0,0,0,.65-20.6c-.15-.61-.28-1.22-.44-1.82-1.48-5.29-4.52-9.74-7.57-14.19a48,48,0,0,0-24-18.57c-3.62-1.3-7.46-1.86-11-3.47l-4.36-1.08,0-.29,2-.23a5.41,5.41,0,0,0,2,.9,22.62,22.62,0,0,0,4.43.15,35.38,35.38,0,0,1,16,5.49c4.22,2.85,7.42,6.83,11.27,10.1l.5,0-7.89-8c-.21-.21-.5-.39-.39-.74l.17,0,3.67,1.82,0,0a86.18,86.18,0,0,1,14.6,16.94c3,4.56,3.71,9.77,4.19,15a5.21,5.21,0,0,1,.27,2.38c-.94-.64-.68-1.7-.9-2.6a40.63,40.63,0,0,0-5.27-14l-.69-.18c2.85,4.66,4.35,9.82,5.5,15.1.18.84.42,1.66.64,2.49C124.88,166.73,122.11,171.52,118.64,176.18ZM124,163.42a7.56,7.56,0,0,1-.45-3.79c-.08-.86-.18-1.71-.24-2.57a33.06,33.06,0,0,0-8.14-20.34c-2.08-2.37-4.19-4.7-6.23-7.1-.18-.21-1.36-.5-.29-1.15,1.83,1.37,3.62,2.8,5.49,4.1,6.49,4.53,9.3,11,10.1,18.63l.12,1c-.05,2.38-.11,4.76-.16,7.13A11,11,0,0,1,124,163.42Zm1.67-4.61c-.13.52.07,1.31-.81,1.43l.09-8.07a19.38,19.38,0,0,0-1.56-8.64,32.63,32.63,0,0,0-4.46-8.2c-1.63-1.85-3.94-2.82-5.72-4.47a75.56,75.56,0,0,0-7.85-5.25c-2.2-1.13-4.23-2.63-6.73-3.12h0L96.31,121c-.51-1.09.3-.49.56-.4,2.31.72,4.61,1.48,6.92,2.23.17-.37-.16-.53-.32-.76a62.64,62.64,0,0,0-9.74-2.91,43.52,43.52,0,0,0-8-2.17l-5.42-.59a16.18,16.18,0,0,1-2-.15c-.66-.13-1.49.44-2-.46h0l6.21.07h0l.16,0c.89.2,1.86-.2,2.69.36.68,0,1.36-.07,2,0,8.19.66,15.88,2.86,22.62,7.7a45,45,0,0,1,16.63,21.73C126.73,150.09,126.81,154.5,125.68,158.81ZM83.9,115.41c1-.7,2.08-.45,3.15-.45,2.8-.43,5.56.18,8.33.3l2.52.5a45,45,0,0,1,15,5.37c7.38,4.39,10.82,11.4,13,19.27.4.68,1,1.32.42,2.18-.24-.75-.87-1.32-.93-2.15a50.29,50.29,0,0,0-7.22-10.37c-8.29-9.26-18.88-13.67-31.1-14.58A9.58,9.58,0,0,1,83.9,115.41Zm41.69,16.19c1.4,3.68,2.6,7.39,2.19,11.84l-3.18-9a24.87,24.87,0,0,0-5-8.54c-6.5-7.17-15-9.94-24.29-11.12h0c-4.49-1.07-9-.2-13.51-.21-1.13,0-2.29.29-3.39-.23,1.78-.43,3.55-.88,5.33-1.29C98.89,109.55,118.51,116.63,125.59,131.6Zm-9.38-13.85a9,9,0,0,1,2.11,2.84c-.71,0-1-.44-1.43-.73a40.93,40.93,0,0,0-30.42-8.1c-4,.5-7.92,1.86-11.94,2.5a5,5,0,0,1-2.59.42,4.21,4.21,0,0,1,2.54-1.06c5.76-2.12,11.52-4.19,17.7-4.75C101.6,108,109.74,110.65,116.21,117.75Zm-8.83-11.18c-1.68-.67-3.1-1.37-4.6-1.84-5.47-1.71-11-1.51-16.6-.52-2.84,1-5.54,2.25-8.28,3.43h0l-3.15,1.72c-3.25,1.79-6.49,3.62-10.31,3.91l-1.94.15c.45-.71,1.19-.65,1.89-.7h0a4.09,4.09,0,0,0,1-.14q6.38-2.83,12.72-5.7a62.7,62.7,0,0,1,8-3.22h0a17.23,17.23,0,0,1,6.72-1.42,41.32,41.32,0,0,1,11.87,2.06A5.8,5.8,0,0,1,107.38,106.57ZM98.06,99.9a11.5,11.5,0,0,1,3.82,1.82,1.1,1.1,0,0,1,.4.17l-.4-.17,1.4,1.2a39,39,0,0,0-10.45-1.19c-3.73-.2-7,1.3-10.36,2.66-4.81,2-9.57,4-14.25,6.3a20.48,20.48,0,0,1-11.33,2c-.46,0-1.18.23-1.31-.6A.27.27,0,0,0,56,112c7.76-1.27,15.25-3.36,22.16-7.24,3.32-1.17,6.64-2.36,10-3.5A24.4,24.4,0,0,1,98.06,99.9Zm-2.34-1.4.09,0c0,.23,1,.54,0,.66-1.25.15-2.51.18-3.75.38-3.47.57-6.62,2.15-9.93,3.23-.75.24-1.45.84-2.34.46,4.67-3.8,9.72-6.3,16-4.75Zm-7-2.57c0,.11,0,.29,0,.3-7.27,2.36-13.34,7.13-20.26,10.19l-4.37,1.93c-.18.32-1,.14-.69.85,5.85-2.06,11.14-5.26,16.55-8.2l1.79-1a20,20,0,0,1,9.19-3.57,13.49,13.49,0,0,1,3.73.57l.06.48a17.82,17.82,0,0,0-6.59.23c-2.54.58-4.64,2-6.84,3.31h0a43.23,43.23,0,0,1-17.85,8.73,18.42,18.42,0,0,1-5.89.91L64,107.88a65.81,65.81,0,0,0,10-6.32C78.31,98.16,82.93,95.5,88.72,95.93ZM80,96.6Zm-18.42,8.3A48.17,48.17,0,0,1,80.14,96l-.18.61a24,24,0,0,0-7,3.47c-3.55,2.36-7.78,3.2-11.44,5.27,0,0-.12-.07-.11-.1A2,2,0,0,1,61.54,104.9Zm-6.86,5.43,2.74-2c.43,0,.67-.33,1-.57,4.23-2.62,9-4.09,13.44-6.23a25.63,25.63,0,0,1,3-1.9c.46-.21,0,.28.06.44l-3,2.09a1.92,1.92,0,0,1-.53.37,36.41,36.41,0,0,1-4.44,2.9c-3.54,2.22-7.58,3.4-11.21,5.42l-1.24.37a4.37,4.37,0,0,1-2.6.49ZM51,113.16c1.15-.75,2.18-.45,3.17-.48.67.55,1.83,0,2.3,1A24,24,0,0,1,51,113.16Zm5.57,1.93a3.62,3.62,0,0,1-2.24-.59,6.74,6.74,0,0,1,2.41,0h0c2.23-.09,4.46-.23,6.69-.25,4.74,0,8.68-2.28,12.64-4.48,5.66-3.15,11.47-5.65,18.17-5.4,7.24.28,13.83,1.88,18.48,8a4.21,4.21,0,0,1,1.45,1.92c-.11.11-.22.22-.32.34l-3.33-2.84a30.24,30.24,0,0,0-17.14-3.9c-7.73.47-14.89,3.08-21.94,5.94A23.35,23.35,0,0,1,56.53,115.09ZM62.61,117c2.12.24,4.23-.58,6.31,0a12.14,12.14,0,0,1,8.43,2.67,6.6,6.6,0,0,1,2.88,2.12c-.47.78.27,1,.65,1.31,1.19,1.11,2.6,2,3.5,3.7l-1.76-1a2.34,2.34,0,0,0-.6-.33A48.93,48.93,0,0,0,64.86,118,4,4,0,0,1,62.61,117Zm34.74,36.74c-3-3.64-5-8-8.19-11.41C85,137.76,81,133,76.61,128.69a138.44,138.44,0,0,0-10.74-9.32,10.21,10.21,0,0,1,5.57,1.79c4.38,3.5,9,6.78,12,11.66a54.33,54.33,0,0,0,5.75,7.49,57.57,57.57,0,0,1,9.47,14.44C97.92,154.84,97.72,154.15,97.35,153.69Zm7.93,26.9a39.62,39.62,0,0,0-.78-10.42,60.79,60.79,0,0,0-12.64-27.88c-3.11-3.76-6.23-7.49-9-11.53a21.33,21.33,0,0,0-4.3-4.65c-1.44-1.16-2.82-2.38-4.22-3.58l.23-.35c.59.27,1.19.53,1.77.82a48.25,48.25,0,0,1,14.4,11.78c8.24,9.47,14.57,19.84,16.66,32.44,0,3.32.14,6.63.14,9.95,0,6.28-2,11.67-7.08,15.69h0l-2.44,1A18,18,0,0,0,105.28,180.59Z" transform="translate(119.82 -21.92)"/><path class="cls-3" d="M107.84,132.74l-.15-.17A.65.65,0,0,0,107.84,132.74Z" transform="translate(119.82 -21.92)"/></g></g></g></svg>