<svg xmlns="http://www.w3.org/2000/svg" xmlns:xlink="http://www.w3.org/1999/xlink" viewBox="0 0 591.24 331.89"><defs><style>.cls-1{fill:none;}.cls-2{clip-path:url(#clip-path);}.cls-3{fill:#a18978;}</style><clipPath id="clip-path" transform="translate(229.41 -41.97)"><rect class="cls-1" width="433.9" height="400.24"/></clipPath></defs><g id="圖層_2" data-name="圖層 2"><g id="飄移"><g class="cls-2"><path class="cls-1" d="M87.45,126.1A49.13,49.13,0,0,0,102,131.28c8.81,1.81,17.66,3.4,26.5,5.08a38.8,38.8,0,0,1,15.66,6.48l.12.08,7.15,4.92c-.16-2.15-1.78-3.21-2.72-4.62-6.29-9.4-15.39-14.39-26.25-16.55-4.4-.88-8.8-2-13.32-1.93-8.12.21-14.52-3.48-20.42-8.49a18.42,18.42,0,0,0-9.39-4.45c-1.3-.19-2.92-.49-3.78.47s.91,2,1,3.14A32.12,32.12,0,0,0,87.45,126.1Z" transform="translate(229.41 -41.97)"/><path class="cls-1" d="M128.39,122.69c-5.46-.42-10.91-.88-16.38-1.19a71.89,71.89,0,0,1-17.1-3.27,1,1,0,0,0-.08.11l1.21,1.6c4.09,2.87,8.89,2.87,13.56,3.32a92.43,92.43,0,0,1,21.21,4.35c8.21,2.8,14.35,8.21,19.27,15.22,2.59,3.69,5,7.55,8.7,10.37-3.14-7.9-5.23-16.26-10.91-22.91C142.37,125.21,135.65,123.24,128.39,122.69Z" transform="translate(229.41 -41.97)"/><path class="cls-1" d="M-135.75,234.23l-.12-.14c-.8-.88-1.66-1.72-2.39-2.67-4.24-5.49-7.31-11.68-10.52-17.77a50.86,50.86,0,0,0-16-18.42c-3.59-2.5-7-5.19-10.56-7.8h0l-2.4-.77c-.44.91.24,1.32.68,1.68,9.8,8.07,15.58,19,21.39,29.94a102.09,102.09,0,0,0,13.1,19.59c6.47,7.39,15.17,10.91,23.78,14.7,2.78,1.22,5.85,1.81,8.28,3.79,3.27,0,6.3,1.32,9.51,1.69,4.4.5,8.77,1.22,13.24.81-5.74-1.68-11.71-2.36-17.34-4.39C-116.95,250.19-127.53,244-135.75,234.23Z" transform="translate(229.41 -41.97)"/><path class="cls-1" d="M116.33,120.44a128.15,128.15,0,0,1,18.34,1.71c6.66,1.24,12.49,4,16.38,9.86h0c4.78,6.41,6.74,14.15,10,21.28a53.06,53.06,0,0,0,8.28,13.63,46,46,0,0,0,8.78,9c1.75.24,2.86,2,4.91,2l-1.55-1.68-9.09-7.58c-2.69-2.59-3.77-6.05-4.81-9.42-3.07-9.95-7.24-19.51-10.13-29.52a23.59,23.59,0,0,0-15.6-16.52c-2.24-.47-4.47-1.07-6.73-1.38-5.9-.83-11.79-.12-17.67.34a36.92,36.92,0,0,1-8.39,1.54c-6.39,1.56-12.79,1.12-19.87-.42L92,115.58C99.72,119,107.94,120.11,116.33,120.44Z" transform="translate(229.41 -41.97)"/><path class="cls-1" d="M117.16,109.24l11.68-6.38a19.56,19.56,0,0,1,12.66-5.93c14.84-3.8,38.06,10.64,36.31,31.12-.42,4.9-.4,9.85-.43,14.78-.07,8.79,2.26,17.14,4.86,25.43a6.49,6.49,0,0,0,1.84,3.87,3.44,3.44,0,0,0-.42-3.51c-1.87-13.08-3.13-26.16-.39-39.29a33.42,33.42,0,0,0,.42-5.58c.59-16.83-8.8-29-25.23-32.82-.53-.12-1.05-.29-1.58-.44-1.4-.12-2.81-.19-4.21-.37a24.54,24.54,0,0,0-19,5.37c-5.34,4.17-10.75,8.25-16.13,12.37a2.64,2.64,0,0,0-.73.48c-1.35.7-3.11,1-3.16,3.09C114.92,110.88,116.3,110.48,117.16,109.24Z" transform="translate(229.41 -41.97)"/><path class="cls-1" d="M100.32,154.22c3.05-.15,6.09-.73,9.17-.34,8.2-1.48,16.44-2.11,24.65-.32,4.34.94,8.55,2.48,12.86,3.59.69.18,1.85,1.7,2.44-.24a24.35,24.35,0,0,1-5.33-2.95c-7.4-3.88-15.18-6.36-23.63-6.19-4.39.09-8.77.43-13.16.43-7.91,0-15.83-.19-22.92-4.48-9.75-4.85-14.47-13.3-16.76-23.61-.32.27-.73.45-.73.65-.23,5.41-1,10.79,2,15.9C76,148.76,86.16,154.93,100.32,154.22Z" transform="translate(229.41 -41.97)"/><path class="cls-1" d="M84.94,162.53c1.18.5,2.25.08,3.88-.33a7.89,7.89,0,0,0-4.45-1.08c-10.84-2.85-19-8.66-22.31-20-.63-2.17-1.32-2.45-2.85-.55-3.4,4.22-3.19,7.12.15,11.29C66,160.19,74.75,163,84.94,162.53Z" transform="translate(229.41 -41.97)"/><path class="cls-1" d="M83.69,142.16h0a46.12,46.12,0,0,0,13.7,4.14c7.42.78,14.82.33,22.22-.08,7.47.34,14.78,1.41,21.53,4.88.78.4,1.52.85,2.27,1.28h0l1.78.31c-.24-1-1.91-1.11-1.42-2.47a1.9,1.9,0,0,1,.46.38c1-.67,1.39.19,1.94.68a11.15,11.15,0,0,1,4.7,4.06,86.5,86.5,0,0,0,16.46,12.44c-6.29-8.91-12.67-16.49-21-22.14h0c-7.87-5.64-16.87-8.07-26.28-9.54a193.45,193.45,0,0,1-21.57-4.38c-8.2-2.26-15.7-5.59-20.9-12.74-.39-.52-.81-1.08-1.62-.69,2.25,9.85,9.65,14.91,17.88,19.15,8.68,4.47,18.15,5.41,27.68,6,5.25.33,10.48.76,15.49,2.55,2.38.84,4.71,1.74,6.33,3.82l0,0-.05,0c-.59.62-1.33.17-1.73-.08-6.9-4.35-14.65-4.76-22.44-5-8.31-.81-16.59-1.73-24.29-5.31-10.59-4.92-19.37-11.38-21-24.1-.09-.67,0-1.83-1.15-1.53-1.59.44-3.29,1.11-3.47,3.06a18.43,18.43,0,0,0,.82,6.49C72.17,131.46,76.93,137.54,83.69,142.16Z" transform="translate(229.41 -41.97)"/><path class="cls-1" d="M59.28,159.38c9.32,9.3,20.89,10.4,33.07,8.4,5.83-1,11.56-2.6,17.33-3.94A65.68,65.68,0,0,1,156,169.78c4.18,2.16,8.49,4.06,12.74,6.08l11.5,3.76c.21-.94-.48-1.37-1-1.87a40.13,40.13,0,0,1-5.06-3,142.24,142.24,0,0,0-21-13.79c-8.87-3.46-17.83-6.36-27.57-4.46-14.8,3.62-29.54,7.45-45,7.31-10.11-.09-17.54-4.75-23.62-12.31-.54-.67-.68-2.22-2-1.63s-1,1.87-.8,2.94C54.78,155.84,57.34,157.44,59.28,159.38Z" transform="translate(229.41 -41.97)"/><path class="cls-1" d="M82.3,157.66a45.05,45.05,0,0,0,4.8-.44c2.1-.42,4.56.47,6.22-1.63a30.83,30.83,0,0,1-16.84-7.21c-5.49-4.81-9.7-10.55-11.7-17.94C59.26,143.21,71.46,157.75,82.3,157.66Z" transform="translate(229.41 -41.97)"/><path class="cls-1" d="M168.22,121.3a55.64,55.64,0,0,1,5.9,18.39,12.4,12.4,0,0,0,.7,2.17c6.66-26.14-8.06-45.17-33.28-43.78-2.55.88-5.3,1.28-7.56,2.85-.93.65-2.65.72-2.28,2.56C145.13,100.43,161.77,108.5,168.22,121.3Z" transform="translate(229.41 -41.97)"/><path class="cls-1" d="M109.56,154.91c-4.2,1.26-8.6,1.3-12.89,2.06-3.18,1.18-6.54,1.3-9.86,1.75-.73.1-2.13-.71-2.17,1a36.67,36.67,0,0,0,16.15.15c6.8-1.54,13.65-2.86,20.5-4.2a32.59,32.59,0,0,1,4.21-.3l1.38-.49,3.5.12,0-1a5.65,5.65,0,0,0-3.62-.21C121,153.44,115.29,154.35,109.56,154.91Z" transform="translate(229.41 -41.97)"/><path class="cls-1" d="M145.93,167.08c-12.46-4.57-25.12-4.38-37.88-1.26C99.12,168,90.29,170.66,80.87,170c-6.61-.45-12.79-1.77-18.14-5.91-.52-.4-1.07-.75-1.63-1.1-.14-.09-.35-.06-1-.15a19.48,19.48,0,0,0,9.17,7.42C77,173.53,85,174,93.16,173.07c9.17-1,18.21-2.8,27.29-4.31,13-2.17,25.27.44,37.25,5.27.17.07.41,0,.62,0l4.89,1.44a10.32,10.32,0,0,0-6-3.41C153.47,170.36,149.78,168.49,145.93,167.08Z" transform="translate(229.41 -41.97)"/><path class="cls-1" d="M168.15,124.67C161.7,109.45,145,102.59,131.88,105c-4.6.86-8.46,3.48-12.71,5.16,1.16.69,2.36.11,3.53,0,6.24-.33,12.47-.75,18.51,1.47,9.19,2.36,14.89,8.37,17.89,17.18,3.43,10,6.92,20.09,10.29,30.16a24,24,0,0,0,7,10.95c2.48,2.16,5,4.27,7.51,6.4l.51-.85c-5.55-7.71-7.2-16.89-9.45-25.79C172.81,141.34,171.58,132.75,168.15,124.67Z" transform="translate(229.41 -41.97)"/><path class="cls-1" d="M-66.41,242.08c-11.12-5.28-21.65-11.54-29.86-21-.85-1-1.67-2-2.5-3-6.19-6-10.61-13.36-15.8-20.13A118.35,118.35,0,0,0-134,177.54c-9.61-7.76-20.54-11.18-32.8-9.82a79.69,79.69,0,0,0-27.24,7.93c3.11.67,6-.64,8.87-1.25a52.46,52.46,0,0,1,36.33,5.17c6.11,2.59,11.89,5.69,16.52,10.57q9.51,10.05,19,20.14c10.2,10.83,18.63,23.42,31.56,31.51,10.11,6,20.69,10.58,32.73,10.67,8.57-.43,16.93-1.83,24.78-5.5a12,12,0,0,0,4.88-2.34c-1.67.36-3.45.25-4.91,1.38A59.75,59.75,0,0,1-66.41,242.08Z" transform="translate(229.41 -41.97)"/><path class="cls-1" d="M-30.82,253.48a29.1,29.1,0,0,0,9.52-5.28c-3.55.63-6.44,2.73-9.61,4.2Z" transform="translate(229.41 -41.97)"/><path class="cls-1" d="M-42.83,254.52a17.19,17.19,0,0,1-6.07,0,81.83,81.83,0,0,1-21.6-1.19c-22-4.3-37.62-18-50.36-35.47-4.06-5.59-7.63-11.55-12.54-16.47-15-15-33.27-22.34-54.37-22.93-.72.11-1.45.18-2.17.33-1.46.29-.17.75-.05,1.14l2.9.8,1.37.17c10.43.89,19.32,5.47,27.57,11.57,7.66,4.69,13.05,11.54,17.88,18.91,3.89,5.93,7.3,12.2,12.46,17.23a92,92,0,0,0,36.9,21.93l6.25,2,20,4.91a142.41,142.41,0,0,0,18.34-1.22,13.53,13.53,0,0,0,3.45-.86l4.29-.91A4.52,4.52,0,0,0-42.83,254.52Z" transform="translate(229.41 -41.97)"/><path class="cls-1" d="M-90.29,252c-20.72-6.36-37.87-17.49-49.11-36.6-4.46-7.6-9.69-14.6-16.65-20.16-1.52-.44-2.54-1.64-3.81-2.46-6.06-3.93-12.19-7.72-19.84-9.57a.05.05,0,0,0,0,0,0,0,0,0,0,0,0l1.3,1.49L-176,186c11.41,6.69,22,14.23,28.25,26.47,4.23,8.25,8.53,16.51,15,23.34,15.91,15.73,35.78,21.35,57.4,22.46a23.72,23.72,0,0,0,4.83-.09c-4.27-2.26-9.1-2.61-13.53-4.23A21.61,21.61,0,0,1-90.29,252Z" transform="translate(229.41 -41.97)"/><path class="cls-1" d="M-125.78,208.41c5.78,7.41,10.32,15.74,17.27,22.3,13,12.27,27.43,21.41,45.88,22.45l4.49.38a8.78,8.78,0,0,0-5.07-1.77,62,62,0,0,1-17.93-8.43c-8.4-4.29-14.78-11-20.78-18-10.31-12-21.32-23.32-32.2-34.77-4-4.24-9.24-6.62-14.13-9.52l-.06,0-8.7-3.61c-10.2-4.25-20.57-3.13-31-1,0,.33.09.66.14,1C-162,177.54-141.52,188.22-125.78,208.41Z" transform="translate(229.41 -41.97)"/><path class="cls-1" d="M141.21,111.69a.72.72,0,0,0,.17.39Z" transform="translate(229.41 -41.97)"/><path class="cls-1" d="M-97.76,204l.42.12A.84.84,0,0,0-97.76,204Z" transform="translate(229.41 -41.97)"/><path class="cls-1" d="M130.88,182c-13.55-1.44-26.57,1.57-39.48,5.07A40.24,40.24,0,0,1,60,183c-.76-.42-1.59-.72-2.7-1.22L58,183.2a.76.76,0,0,1,.25.54c8.94,9.12,20.34,10,32.09,9.37,11.49-.57,22.55-3.35,33.41-7a58.73,58.73,0,0,1,10.09-2.8C133.74,181,131.85,182.1,130.88,182Z" transform="translate(229.41 -41.97)"/><path class="cls-1" d="M-12.17,239.53a7.66,7.66,0,0,0-4.24,1h-1a4.37,4.37,0,0,1-2.79.52h0c-1.72.25-3.44.62-5.17.71-14.37.76-27.65-3.61-40.73-8.81-14.22-5.66-23.07-17.21-31.69-29-3.94-4.85-6.95-10.32-10.21-15.61-10.6-17.18-25.63-26.44-46.12-26.44a81,81,0,0,0-19.75,2.48c-3.59,1.53-7.35,2.72-10.44,5.45,1.91-.53,3.82-1.05,5.72-1.6,18.16-5.16,34.42-2.15,48.69,10.75a142.14,142.14,0,0,1,19.74,22.44,207.4,207.4,0,0,0,14.46,18.32h0a101.08,101.08,0,0,0,23.75,17.93c18.05,10.14,36.42,11.7,55.61,4l4.16-1.09C-12,240.2-10.68,239.56-12.17,239.53Z" transform="translate(229.41 -41.97)"/><path class="cls-1" d="M-3.56,234.38c-6.07.45-12,.16-17.73-2.16l-6.84-3.31,0,0-.41-.2.36.37c.18.19.35.38.54.56A19.37,19.37,0,0,0-20.21,234l3,1.41c5.79.86,11.56,1.31,17.24-.68C-1.09,233.52-2.41,234.29-3.56,234.38Z" transform="translate(229.41 -41.97)"/><path class="cls-1" d="M159.1,89.61c8.26,1.53,14.51,6.24,19.91,12.41,6.68,7.63,7,16.7,6.15,26.05-.35,3.71-.85,7.41-1.36,11.1-1.52,11,.86,21.73,2.33,32.52a2.84,2.84,0,0,0,1.51,2.63,4.6,4.6,0,0,0-.32-3.11c-.51-11,1.7-21.64,5-32a52.45,52.45,0,0,0,.15-31.08,21.76,21.76,0,0,0-13-14.76c-6.68-2.83-13.51-5.16-20.93-4.86-1.13-.89-2.58-.34-3.79-.85h0c-2,.34-4.14-.52-6.61.58,3.1.8,6,.24,8.59,1.26Z" transform="translate(229.41 -41.97)"/><path class="cls-1" d="M237.89,289.49c-1.53-14.56-6.91-27-19.34-35.68-3.59-2.49-7-5.22-10.5-7.84-2.05,1.23.21,1.79.55,2.19,3.9,4.6,7.94,9.07,11.92,13.6,9.8,11.13,14.64,24.26,15.59,38.95.1,1.64.3,3.27.45,4.91a14.61,14.61,0,0,0,.87,7.27,21,21,0,0,0,.38-7.82l.3-13.65C238,290.78,238,290.13,237.89,289.49Z" transform="translate(229.41 -41.97)"/><path class="cls-1" d="M160.3,216.44c-3.41.79-6.8,1.65-10.2,2.47,2.11,1,4.33.43,6.49.43,8.63,0,17.28-1.64,25.88.41h0c17.7,2.27,34,7.56,46.49,21.29a47.5,47.5,0,0,1,9.59,16.35l6.09,17.24c.8-8.52-1.5-15.63-4.19-22.68C226.9,223.3,189.34,209.75,160.3,216.44Z" transform="translate(229.41 -41.97)"/><path class="cls-1" d="M166.69,221.1c23.39,1.73,43.66,10.18,59.53,27.92a95.53,95.53,0,0,1,13.83,19.85c.12,1.58,1.32,2.68,1.79,4.11,1.06-1.65,0-2.88-.82-4.17-4.21-15.07-10.8-28.5-24.93-36.89a86.1,86.1,0,0,0-28.64-10.3c-1.62-.3-3.22-.63-4.83-1-5.32-.22-10.6-1.4-16-.57-2,0-4.17-.48-6,.87C162.65,221,164.65,221.71,166.69,221.1Z" transform="translate(229.41 -41.97)"/><path class="cls-1" d="M210.76,237.32c-12.91-9.26-27.63-13.48-43.31-14.74-1.29-.1-2.59,0-3.88,0-1.6-1.09-3.46-.33-5.16-.7l-.3-.08h0l-11.89-.12h0c.91,1.72,2.51.63,3.76.87a28.18,28.18,0,0,0,3.79.28L164.15,224c5.3.63,10.26,2.55,15.3,4.14,6.45,1.1,12.51,3.47,18.66,5.59.3.44.93.74.59,1.44-4.4-1.43-8.81-2.88-13.23-4.27-.5-.16-2.06-1.32-1.08.78l4.44,2.82h0c4.79.92,8.68,3.81,12.88,6,5.38,2.77,10.06,6.63,15,10,3.41,3.17,7.83,5,11,8.56a62,62,0,0,1,8.54,15.72c2.05,5.29,3.49,10.75,3,16.53q-.09,7.73-.19,15.45c1.71-.22,1.31-1.73,1.57-2.73,2.16-8.25,2-16.69,2-25.12C236.42,261.67,225.54,248,210.76,237.32Z" transform="translate(229.41 -41.97)"/><path class="cls-1" d="M220.89,309.69a33.91,33.91,0,0,0-1.72-10c-3-8.72-5.94-17.43-10.31-25.57a109.75,109.75,0,0,0-34.61-32.73c-6.12-3.63-12.29-7.18-18.43-10.77l-2.76-1c3.66,4.61,8.77,7.45,12.93,11.39,1.3-.43,2,.69,2.83,1.24,9.63,6.22,18,14,26.63,21.48A44.69,44.69,0,0,1,208.28,283a89.88,89.88,0,0,1,4.79,18.78c1.47,11.64,3.34,23.26,1.35,35-.61,6.87-2.31,13.39-6.23,19.19-.43,1.09-1.57,1.84-1.56,3.41,3.23-1.3,5.78-3.4,8.42-5.37a12.66,12.66,0,0,1,2.37-3.83,1.67,1.67,0,0,1,.63-1.47,63.61,63.61,0,0,0,3.49-21C221.52,321.73,221.06,315.71,220.89,309.69Z" transform="translate(229.41 -41.97)"/><path class="cls-1" d="M232.56,303c-2.2-10.12-5.07-20-10.52-28.93l1.32.35-.25-.51.25.51c5.3,8.21,8.08,17.36,10.09,26.81.41,1.71-.08,3.75,1.72,5-.07-1.53.27-3.11-.53-4.56-.91-10.08-2.29-20.05-8-28.77a165.33,165.33,0,0,0-28-32.45l0,0-7-3.48-.34.06c-.2.66.35,1,.75,1.42q7.56,7.66,15.1,15.35l-.95.09.28.32a1.15,1.15,0,0,1-.28-.32c-7.36-6.26-13.5-13.87-21.57-19.33-9.44-5.84-19.58-9.64-30.72-10.52-2.85.5-5.65-.21-8.48-.29a10,10,0,0,1-3.86-1.71l-3.8.44-.09.55L146,225c6.71,3.08,14.06,4.15,21,6.63a91.86,91.86,0,0,1,46.06,35.56c5.83,8.52,11.66,17,14.48,27.16.32,1.15.57,2.33.85,3.49a54.19,54.19,0,0,1-1.24,39.43c6.64-8.91,11.94-18.08,6.64-29.57C233.38,306.14,232.9,304.57,232.56,303Z" transform="translate(229.41 -41.97)"/><path class="cls-1" d="M228.5,304c-.55-2-.82-4.06-1.22-6.1a111.13,111.13,0,0,0-36.81-52.2c-8.54-6.79-18.4-10.61-28.53-14-1-1.2-2.49-1.2-3.83-1.57.89,1.84,2.7,2.29,4.41,2.86a11.35,11.35,0,0,0,1.85,1.35c8.87,4.16,16.78,9.81,24.45,15.8a89.7,89.7,0,0,1,21.55,24.45c4.5,7.45,7,15.76,10,23.83A34.51,34.51,0,0,1,222.49,309c.23,4.8.6,9.6.72,14.4.19,8.43-.05,16.83-3.69,24.7,2.62-.69,3.08-3.19,3.93-5.12,1.63-3.7,2.87-7.58,4.18-11.41A45.86,45.86,0,0,0,228.5,304Z" transform="translate(229.41 -41.97)"/><path class="cls-1" d="M149.64,200.49c-13.22,7.43-27.57,11.43-42.42,13.87a.53.53,0,0,1-.81.28c.26,1.6,1.63,1.06,2.51,1.16a39.18,39.18,0,0,0,21.69-3.88c9-4.34,18.08-8.28,27.28-12.06,6.36-2.61,12.69-5.47,19.83-5.09,6.78-.44,13.34.89,20,2.29l-2.69-2.3a21.36,21.36,0,0,0-7.31-3.49,46.58,46.58,0,0,0-19,2.52C162.36,196,156,198.25,149.64,200.49Z" transform="translate(229.41 -41.97)"/><path class="cls-1" d="M152.69,197.68c1.69.73,3.05-.42,4.48-.89,6.34-2.06,12.37-5.08,19-6.18,2.37-.39,4.79-.43,7.17-.72,2-.24.11-.83.08-1.26l-.16,0h0C171.3,185.62,161.63,190.4,152.69,197.68Z" transform="translate(229.41 -41.97)"/><path class="cls-1" d="M176.49,208.44c-11.83,1.07-22.87,5-33.89,9.1a8.05,8.05,0,0,0-4.86,2,9.57,9.57,0,0,0,5-.8c7.7-1.22,15.1-3.83,22.86-4.78,21.49-2.64,40.87,2.6,58.23,15.5.77.56,1.38,1.43,2.74,1.41-.85-2.29-2.56-3.82-4.05-5.44C210.1,211.84,194.53,206.82,176.49,208.44Z" transform="translate(229.41 -41.97)"/><path class="cls-1" d="M164.94,198.46h0c-5.38,1.44-10.29,4-15.39,6.17-8.11,3.64-16.22,7.3-24.35,10.9a6.7,6.7,0,0,1-1.92.27h0c-1.34.11-2.75,0-3.62,1.35l3.71-.29c7.32-.55,13.51-4.06,19.75-7.48l6-3.29h0c5.25-2.27,10.42-4.75,15.87-6.57,10.66-1.89,21.29-2.28,31.77,1,2.87.9,5.6,2.23,8.8,3.53-1.24-2.38-3.23-3.27-5.05-4.35-7.42-2.23-14.93-3.92-22.73-3.94A33.06,33.06,0,0,0,164.94,198.46Z" transform="translate(229.41 -41.97)"/><path class="cls-1" d="M195.05,194.76l.76.31A1.91,1.91,0,0,0,195.05,194.76Z" transform="translate(229.41 -41.97)"/><path class="cls-1" d="M61.77,207.23c10.68,3.25,20.94,1.6,31-2.62-10.89.84-21.53-.09-31.06-5.64-9.85-5.74-15.65-14.5-16.48-27.11a18.14,18.14,0,0,0-2.75,9.46C42.35,194,49.46,203.5,61.77,207.23Z" transform="translate(229.41 -41.97)"/><path class="cls-1" d="M31.94,193.39c3.58,8.05,9.47,14,18.4,16a33,33,0,0,0,12.45.66c-16.88-5.53-26.33-20-20.55-37.89C32.31,177.27,28.25,185.1,31.94,193.39Z" transform="translate(229.41 -41.97)"/><path class="cls-1" d="M206.77,354.73c1.63.11,1.67-1.35,2.18-2.28,2.65-4.84,3.1-10.3,4.28-15.55a137.63,137.63,0,0,0-5.68-51.06,47.67,47.67,0,0,0-15.21-23C185.5,257.16,179,251,171.75,245.88c-1.68-1.2-3.82-1.68-5.19-3.35.2,2.79,2.81,3.88,4.16,5.86s3.63,3.65,4.88,5.94c0,0,0,0,0,0,5.28,5.92,12.13,10.22,17.26,16.2,10.63,12.39,14.54,27.71,17.81,43.22,1.49,6.22.69,12.42-.08,18.63C209.68,339.91,209.25,347.49,206.77,354.73Z" transform="translate(229.41 -41.97)"/><path class="cls-1" d="M23.32,193.9A27.52,27.52,0,0,0,46.59,216c13.18,1.71,26-.52,38.46-4.94,2.09-.26,3.65-1.62,5.37-2.68a10.6,10.6,0,0,0-5,1.21c-9.76,2.56-19.7,3.06-29.72,2.57-11.35-.55-19.3-6.55-24.74-16.11-3.29-5.78-3-11.74.56-17.65C25.58,180.49,22.08,187.33,23.32,193.9Z" transform="translate(229.41 -41.97)"/><path class="cls-1" d="M84.05,202.68a61,61,0,0,0,31.58-7.85c4.42-2.47,8.89-4.87,13.85-7.57-2.48-.77-3.94.18-5.44.67-13.3,4.43-26.82,7.42-41,7.17-17.65-.32-28.78-8-35-24.51-1.14,3.19.31,10.5,2.88,14.84C58.41,198,70.27,202.37,84.05,202.68Z" transform="translate(229.41 -41.97)"/><path class="cls-1" d="M90.67,185.78c4.34-1.2,8.73-2.22,13.12-3.19,10.8-2.38,21.68-3.22,32.66-1.37,4.13.16,8-1.23,12.06-1.8.2-1.11-.65-.92-1.24-.94-13.13-.54-26.25-2-39.42-.43-6.81.83-13.18,3.37-19.88,4.5-11.47,1.94-22.37.85-31.51-7.28a67.42,67.42,0,0,1-5.61-6.4c-1.12,3,1.31,5.19,2,7.77C64.12,185.28,76.35,189.76,90.67,185.78Z" transform="translate(229.41 -41.97)"/><path class="cls-1" d="M83.53,181.85a36.71,36.71,0,0,0,9.32-1.92c12.65-4,25.61-4.55,38.72-3.66,7,.48,14,.92,21,1.37,3-.65,5.91,0,8.84.49h0l1.49-.21a8.69,8.69,0,0,0,3.88,0,6.79,6.79,0,0,0-4-1.22c-5.2-1.6-10.42-3.16-15.61-4.81-13.41-4.28-26.67-1.89-40,.6-8.28,1.55-16.65,3.05-25.15,2.32-10.91-.93-20.3-4.59-25.77-15-1-2-2.33-3.07-4-.5-2,4.49-.47,8.22,2.38,11.8C62.08,180.59,72.4,182.34,83.53,181.85Z" transform="translate(229.41 -41.97)"/><path class="cls-1" d="M209.56,313.85c-1.59-9.57-5.18-18.53-8.5-27.56a42,42,0,0,0-13.2-18.86c-.21-.24-.42-.47-.64-.7-2.95-3.23-6.47-5.82-9.7-8.74l-1.35-1.34c-.17-1.28-1.45-1.72-2-2.68h0l-11.7-13.41c.58,2.18,2.29,3.1,2.56,4.8,2.43,4,5.84,7.15,8.92,10.59,5.38,6.55,11.05,12.88,15.72,20,8.87,13.49,15.18,28,17.26,44.18h0c1.07,5.1.38,10.28.65,15.41-.67,1.91-.4,3.91-.43,5.86-.11,7.89-3.37,14.8-6.64,21.71h0c7.12-8.1,7.4-18.23,8.39-28.15C209.52,327.91,210.78,320.92,209.56,313.85Z" transform="translate(229.41 -41.97)"/><path class="cls-1" d="M99.6,207.13c-.69-.68-1.1.5-1.72.26h0L93,211h0c-8.45,5.62-17.36,10.33-27.31,12.61-10.78,2.45-21.51,3-31.71-2.5a30.38,30.38,0,0,1-12.89-11.55,44.31,44.31,0,0,1-5.77-13.11c-.17-1.58-.33-3.17-.5-4.76a7.47,7.47,0,0,0-.74,4.87c.31,8.76,3.94,16,10.13,22.07,2.9,2.82,6,5.44,9.08,8.06,6.59,5.59,14.42,7.14,22.52,5.36,12-2.62,23.16-7.27,32.47-15.62.58-1.68,2.71-1.5,3.51-2.92l1.38-.67,6.43-5.67Z" transform="translate(229.41 -41.97)"/><path class="cls-1" d="M71,228.57c-7.07,2.64-14,5.73-21.86,5.29-6.22-.35-11.86-2.1-16.68-6.08-6.24-5.16-12.66-10.16-17-17.39.4,3,.79,6,1.18,8.92h0c1.37,4.8,4.5,8.54,7.36,12.45,9.55,9,20.4,10.12,32.23,5.39A99.14,99.14,0,0,0,70.64,230c1.92-.43,3.36-1.74,5-2.68,0-.33-.08-.66-.13-1Z" transform="translate(229.41 -41.97)"/><path class="cls-1" d="M31.32,218.15l1.47,1c2.84,1.12,5.45,2.74,8.49,3.45,14.95,3.48,28.67-.05,41.77-7.2,2.46-1.2,5.33-1.83,6.63-4.68L83.4,214c-11.74,2.92-23.52,5.39-35.74,4-11.79-1.32-19.77-7.72-24.48-18.41-3-6.87-3-13.44,2.42-19.4-4.53,0-7.59,3.42-9.31,10.08.21,8.94,4.09,16.39,9.51,23.2Z" transform="translate(229.41 -41.97)"/><path class="cls-1" d="M21.21,231h0c-5.79.31-11.21,2.07-16.56,4.13,0,.48.33.53.66.49a72.19,72.19,0,0,1,21,.57C25.07,234,22.91,232.73,21.21,231Z" transform="translate(229.41 -41.97)"/><path class="cls-1" d="M337.86,114.79c-2.27,3.09-4.51,6.21-6.64,9.4a155.36,155.36,0,0,1-15,18.72c-8.41,9.13-19.48,12.21-31.18,13.91-6.94,1-14,.82-20.85,2.73L254,161.28a62,62,0,0,0-18.93,8.81c.07.31-1.15,1.45.31.83,3-1.28,6.56-1.59,8.73-4.57.25-.34,1-.35,1.47-.51,5.83-2.65,12.16-3.38,18.32-4.81,8-.44,16-1.33,24-1.22,13.66.2,24.76-5.46,35.15-13.57a79.29,79.29,0,0,0,21.11-24.49,5.69,5.69,0,0,0-2.63-8.18C339.88,112.8,338.74,113.59,337.86,114.79Z" transform="translate(229.41 -41.97)"/><path class="cls-1" d="M122.54,206.55l-12.4,5.31a35,35,0,0,0,11.29-1.74,82.56,82.56,0,0,0,34.17-16.71h0c4.19-2.45,8.22-5.23,13.09-6.33a33.71,33.71,0,0,1,12.62-.45c0-.31-.09-.62-.13-.93a26.18,26.18,0,0,0-7.14-1.09,38.46,38.46,0,0,0-17.59,6.84c-1.14.64-2.28,1.29-3.43,1.92-10.36,5.63-20.48,11.76-31.68,15.71-.59-1.38,1-1,1.31-1.64l8.38-3.68c13.24-5.88,24.85-15,38.78-19.51.07,0,0-.38.05-.58-11.09-.84-19.93,4.27-28.19,10.77A125.51,125.51,0,0,1,122.54,206.55Z" transform="translate(229.41 -41.97)"/><path class="cls-1" d="M308.9,157.06c-5.39,2.78-11.22,3.57-17.17,4.08-5.72.49-11.42,1.16-17,1.8l-.65.07-5.43.62c1,.72,2.8.1,4.44.08,11.26-.08,22.62,1.21,33.7-1.75,15.82-4.22,28.45-13.33,38.71-25.9,3.15-3.86,3.59-8.55,3.72-13.29v0c-.66-.83-.54-2.51-1.78-2.53s-1.58,1.4-2.09,2.33C337,138,324.39,149.08,308.9,157.06Z" transform="translate(229.41 -41.97)"/><path class="cls-1" d="M329.63,110.34A108.4,108.4,0,0,1,305.08,138a73.3,73.3,0,0,1-24.61,12.82c-5,1.48-10.11,2.85-15.16,4.27-2.62,2-6.3,1.59-8.77,3.92,2.33.84,4.52-.32,6.64-.8a92.07,92.07,0,0,1,14.93-2.11,89.89,89.89,0,0,0,21.28-4c8.42-2.59,14.43-8.51,20.05-14.91a184.22,184.22,0,0,0,13.94-18.71,29.94,29.94,0,0,1,4.25-5.4c1.41-1.29,1.43-1.94.22-3.34C333.88,105.11,333,105,329.63,110.34Z" transform="translate(229.41 -41.97)"/><path class="cls-1" d="M267.53,178a74.32,74.32,0,0,0,19,3.14l5.61.27c-1.65-2-4-1.4-6.13-1.61-5.58-2.14-11.17-4.24-16.74-6.41-7.49-2.92-15.17-3-22.94-1.62-.64.11-2.28-.34-1.66,1.44C252.68,172.94,260.07,175.58,267.53,178Z" transform="translate(229.41 -41.97)"/><path class="cls-1" d="M264.09,152.38c-.22.71-1.59,1-.82,2.08l2.41-.72c2.74-1.68,5.86-2.34,8.91-3,17.9-3.92,31.83-14,43.77-27.47,4.9-5.52,8.08-12.28,13.2-17.59.74-.76.49-1.34,0-2s-.95-1.21-1.43-1.8c-3.24-4-4.31-4.12-6.63.31-9.29,17.74-23.89,29.71-41.41,38.54-6.08,3.07-11.58,7-17.15,10.87Z" transform="translate(229.41 -41.97)"/><path class="cls-1" d="M312.4,161.93c-9.92,4-20.65,3.63-31.22,3.32-5.38-.17-10.75-.19-16.12-.38-3.75-.13-7.31,1.2-11,1.22-1.82-.17-3.39.86-5.14,1,.61,1.87,2.09-.21,2.93.65l2.27-.53c9-1.17,17.61,1.07,26.21,3.3,1.27.33,2.56.6,3.85.87,29.8,6.25,57.66-10.24,66.49-39.34-.35-.72-.51-1.09-1.09,0C341.31,147.14,327.66,155.74,312.4,161.93Z" transform="translate(229.41 -41.97)"/><path class="cls-1" d="M298.62,174.49a82.58,82.58,0,0,1-20.49-2.78c-5.71-1.47-11.38-3.38-17.41-3.07-2-.71-4-.08-6.05,0l.06.9,6.58.34a46.12,46.12,0,0,1,11.25,3.41c8.76,4,17.78,6.83,27.51,6.92a100.32,100.32,0,0,0,27.47-7.62c15.64-6.61,23.57-19.33,26.48-35.54.45-2.5.7-5.23-1-7.57l-.53.4a33.37,33.37,0,0,1-1.63,7C344.11,155.34,323.09,174.55,298.62,174.49Z" transform="translate(229.41 -41.97)"/><path class="cls-1" d="M282.15,82.67c-3,5.72-3.26,12-3.22,18.18.06,8.85-1.15,17.37-4.76,25.49l-1.66,4.5c6.09-6.43,10.35-13.73,11.62-22.56a110,110,0,0,0,1.2-14.72,35.35,35.35,0,0,1,1.27-9.09c.71-2.57,1.75-5,5-6.6C286.15,76.38,284.38,80,282.15,82.67Z" transform="translate(229.41 -41.97)"/><path class="cls-1" d="M264.93,138.58a22.9,22.9,0,0,0-1,2.44c4.37-4.08,6.11-9.32,8.74-14a76.35,76.35,0,0,0,5-29.16c0-4.9,0-10.12,2.92-14.57a12.29,12.29,0,0,1,5.25-6.51c2.09-1.17,1.2-2.25.13-3.3a5,5,0,0,0-8.08,2.16c-1.68,6-1.9,12.1-1.89,18.23C276,109.7,273,124.75,264.93,138.58Z" transform="translate(229.41 -41.97)"/><path class="cls-1" d="M288,85.43c-1.28,4.46-1.26,9.11-1.3,13.71-.13,14.23-5.91,26.09-15.19,36.52-2.77,3.11-5,7.13-8.37,9.21-6.66,4.09-11.6,10.33-18.53,14-1.74.91-3.35,2-5,3.08-1.58,1.78-3.9,2.82-5,5.22,8.11-5.34,17.15-9.14,24.7-15.39A56,56,0,0,1,264,147a6.56,6.56,0,0,1,.73-.54l0-.23.23,0c5.14-6,10.29-12,15.4-18,9.34-11,15.15-23.52,15.84-38.14.18-3.75.49-7.47,3.28-10.48C292.46,78.37,290.19,77.82,288,85.43Z" transform="translate(229.41 -41.97)"/><path class="cls-1" d="M297.21,96.26c2.73-3.18,4.15-6.12,6.39-8.44,1.14-1.18,3.69-1.37,3.4-3.4s-2.58-2-4.22-2.45c-1.07-.32-.53-1.18-.52-1.86-2.72.13-3.38,2.38-3.74,4.29C297.85,88,297.68,91.68,297.21,96.26Z" transform="translate(229.41 -41.97)"/><path class="cls-1" d="M302.26,80v.08h0S302.25,80,302.26,80Z" transform="translate(229.41 -41.97)"/><path class="cls-1" d="M304.13,89.78c-2.78,3.16-5.42,6.61-6.5,10.6-4,14.6-13.09,25.88-22.85,36.83-1.66,1.86-3.25,3.79-4.87,5.7.09.1.17.21.26.32,4.13-3.5,8.17-7.12,12.42-10.48a68.6,68.6,0,0,0,23.69-34c1.09-3.5,2.3-7.15,5.58-9.46.47-.33.86-.7.51-1.35a2.46,2.46,0,0,0-2.4-1.4C307.44,86.56,305.67,88,304.13,89.78Z" transform="translate(229.41 -41.97)"/><path class="cls-1" d="M337.62,200.43a12.46,12.46,0,0,0,4.79-3.07l0,0,.44-.37a11.2,11.2,0,0,0-4.93,2c-14.26,6.81-29.75,7.76-45.09,9.33a43,43,0,0,1-13.41-.84,140,140,0,0,1-34.27-12.12,131.33,131.33,0,0,0-23.48-9.27c-1.29-.38-2.73-1.16-3.88.38l2.83,1.64c1.22-.33,2.08.55,3,1,9.48,5,19,10,28.38,15.23,9.56,5.27,19.65,8,30.6,6.95,17.34-1.7,34.69-3.34,51.39-8.79Z" transform="translate(229.41 -41.97)"/><path class="cls-1" d="M258.53,208.9c-6.33-3-12.49-6.28-18.7-9.5-5.3-2.76-10.57-5.6-16.67-8.83l3.15,3.84c.09.11.18.21.26.32q5.13,4.35,10.24,8.72l.12.07a89.68,89.68,0,0,0,17.62,9c10,3.71,20.16,3.29,30.43,1.9l4.54-1.26c4-.43,4-.43,5-1.93h0l-5.1.86h0C278.9,213.24,268.41,213.56,258.53,208.9Z" transform="translate(229.41 -41.97)"/><path class="cls-1" d="M354.92,196.43c-8.42,13.08-20.63,21.27-34.71,27.06-6.48,2.65-12.8,5.63-19.73,7.2-20.43,4.65-39.19,1.84-55.82-11.57-.22.27-1.62-.35-.56.9,9.84,11.58,22.17,17.16,37.47,16,9.31-.71,18.5-2.24,27.72-3.49,17.22-6,32.26-15.2,44-29.29a20.09,20.09,0,0,0,4.89-11.62C356.53,192.88,356,194.83,354.92,196.43Z" transform="translate(229.41 -41.97)"/><path class="cls-1" d="M353.47,145.78c-4.83,14.36-14.11,24.54-28.46,29.73-12.4,4.49-25,8.27-38.45,7.17-4.21-.34-8.42-.75-12.63-1.13-6.62-1.84-13-4.48-19.74-5.94a23.77,23.77,0,0,0-7.47-.69c-1.69-.91-3.45-.3-5.19-.25,1.53,1.43,3.48,1,5.3,1.17h0l27.66,7.06c1.3,1,2.91.82,4.38,1.06,13.21,2.14,26.37,3,39.4-1.34,14.54-4.83,28.66-10.18,37-24.35,1.79-4.77,1.16-9.44-.5-14.12C353.86,144.39,353.71,145.05,353.47,145.78Z" transform="translate(229.41 -41.97)"/><path class="cls-1" d="M218.24,193v0c6.79,5.53,13.59,11,21.14,15.57C252,216.12,265,221,280.11,219.94c15.77-1.08,31.62-1.13,46.46-7.48a59,59,0,0,0,23.14-16.9c.87-1.07,2.1-2,2.09-3.59l-5.67,4.37a37.8,37.8,0,0,1-12.06,7.3c-1.15,1.15-2.73,1.34-4.18,1.76-9.46,2.72-19.15,4.4-28.8,6.26-5.34,1.3-10.6,3-16.08,3.63a46.28,46.28,0,0,1-10.73,1.38c-13,.63-24.63-3.24-35.3-10.43-6.84-4.16-12.37-9.87-18.12-15.31-.17-.12-.33-.25-.49-.38-3.94-2.1-7.42-5.21-12.19-5.61C211.67,187.48,215.27,189.85,218.24,193Z" transform="translate(229.41 -41.97)"/><path class="cls-1" d="M289.87,241.83c.05.4.09.79.13,1.19,4.37-.34,8.74-.58,13.1-1,12.41-1.3,23.06-6.38,32.46-14.58,7.95-6.94,16.46-13.27,20.71-23.42.41-1,1.18-1.84.92-3C340.25,223.71,315.25,233.07,289.87,241.83Z" transform="translate(229.41 -41.97)"/><path class="cls-1" d="M270.22,183.29c-10.34-2.89-20.58-6.22-31.35-7.3-1.05.56-2.41,0-3.7,1.2,6.72,2.08,12.82,5.09,19,7.85,23.09,10.25,46.18,7.67,69.2-.1,7.67-2.59,15.05-6,21.41-11.18,3.83-2.46,6.39-6.08,8.95-9.71-2.95,1.3-4.63,4-6.83,6.16v.11l-.11,0C323.35,186.78,297.83,191,270.22,183.29Z" transform="translate(229.41 -41.97)"/><path class="cls-1" d="M338,180.19C317.85,191,296.34,194.74,273.7,192.5c-8.32-.83-15.88-4.08-23.33-7.6-1.85.08-1,.68-.23,1.24,7.05,4.81,14.54,8.57,23.19,9.52,19.23,2.12,38.23.87,56.59-5.3,13.91-4.68,23.65-14.29,28.93-28.17,0-2.05.73-4.13-.44-6.5-1.27,3.25-2.11,6.41-3.64,9.2C351,171.85,344.89,176.51,338,180.19Z" transform="translate(229.41 -41.97)"/><path class="cls-1" d="M302.44,219.89c-12.31,1.32-24.68,2.14-37.09,1.31-1.27-.89-2.88-.51-4.24-1.1,1,2,3,2,4.83,2.27,9,2.51,18,3.47,27.23,1.72,11.17-2.12,22.19-5,33.53-6.25,14.22-5.23,23.59-15.62,31-29.1a4.47,4.47,0,0,0-2.6,2.16C342.39,209.35,324,217.59,302.44,219.89Z" transform="translate(229.41 -41.97)"/><path class="cls-1" d="M268.32,229.3c14.69,3.8,28.95,1.82,42.85-3.71,4.38-1.74,8.69-3.65,13-5.49-.53-1.15-1.44-.46-2.14-.35a145.42,145.42,0,0,0-15.48,2.89c-14.18,3.68-28.4,5.34-42.67.44-3.29-1.12-6.77-2-9-4.94-9.75-3.81-18.51-9.45-27.73-15.55a10.82,10.82,0,0,0,1.19,1.61C240.55,214.31,252.35,225.17,268.32,229.3Z" transform="translate(229.41 -41.97)"/><path class="cls-1" d="M320.41,194.5a151.39,151.39,0,0,1-43.15,2.91c-9.36-.79-18-3.46-25.78-8.9a52,52,0,0,0-21.7-8.92c-1.77.46-3.92-.86-5.59,1.4,10.79,1.68,20.24,6.53,29.47,11.63,11.55,6.38,23.94,8.1,36.8,8.16a142,142,0,0,0,39.91-5.69c9.1-2.61,16.85-7.7,23.76-14.18,4.55-4.26,6.88-9.23,6.19-15.5-.46-.38-.89-.63-1.25.13C351.35,182.09,337.86,191,320.41,194.5Z" transform="translate(229.41 -41.97)"/><path class="cls-1" d="M256.22,94c-.14-6,.24-12-.68-18.56-2.93,3.4-3.4,6.92-3.32,10.49.13,5,.46,10.08.86,15.11a48.72,48.72,0,0,1-2.4,20.09c-7.5,21.46-19.82,39.45-38.11,53.18-2.08,1.56-4.7,2.36-6.76,4.9,8.07-2,14.42-6.07,20-11.25C247.36,148,256.91,123.06,256.22,94Z" transform="translate(229.41 -41.97)"/><path class="cls-1" d="M-148.7,55.18a61.32,61.32,0,0,1,10,18.44C-134.82,84.39-128,92.9-119,99.79a4.81,4.81,0,0,0,3.54,1c-10.4-8.15-15.22-19.6-19.23-31.56-2.71-8.09-6.9-15.19-14.26-20a20.68,20.68,0,0,0-9.7-3.66A75.29,75.29,0,0,1-148.7,55.18Z" transform="translate(229.41 -41.97)"/><path class="cls-1" d="M-150.43,66.69a194.16,194.16,0,0,0,11.81,18.57l8.79,10c1.46.72,2.86,1.61,4.51,1.6.45-.55.1-.83-.23-1.1-6.66-5.55-11.06-12.64-14.2-20.62-3.4-8.61-7.4-16.8-14.15-23.45-6.21-6.11-13.34-8.88-22.35-7.61,3,1.46,5.82,2.65,8.46,4.12C-160.06,52.54-154.77,59.22-150.43,66.69Z" transform="translate(229.41 -41.97)"/><path class="cls-1" d="M-120.07,114.79a51,51,0,0,1,9.48-2.45c9.27-1.4,18,0,25.94,5.2l.09,0c2.69,1.25,4,4,6,5.9a12.5,12.5,0,0,0,2.82,4.84,7.72,7.72,0,0,0-1.43-4.46c-3.21-6.26-7.13-11.85-13.66-15.17a57.77,57.77,0,0,0-7.31-2.78l-7.91.13a55,55,0,0,0-16.15,8.75C-121.52,115.86-120.74,115-120.07,114.79Z" transform="translate(229.41 -41.97)"/><path class="cls-1" d="M-138.61,90.69l.91.63c1.31.4,2,2.17,4,1.66-2.14-3.16-5.35-5.28-7-8.58-4.11-4.73-7.19-10.16-10.31-15.55-5.47-9.48-12.24-17.59-22.65-22a32.48,32.48,0,0,0-12.08-2.7c0,2,1.82,1.56,2.83,1.88,9.06,2.89,16.12,8.15,20.85,16.55a100.88,100.88,0,0,0,18.83,24h0l5.16,4.43A2.7,2.7,0,0,0-138.61,90.69Z" transform="translate(229.41 -41.97)"/><path class="cls-1" d="M-119.75,94.48c1.32,2.44,3.58,3.87,5.87,5.29a10.66,10.66,0,0,0-3.83-4.5,28,28,0,0,1-5.43-13.73c-1-7.35-2.59-14.44-6.93-20.65a27.23,27.23,0,0,0-13.61-10c7.09,6.73,9.87,15.66,13,24.4C-128.22,82.38-125,89-119.75,94.48Z" transform="translate(229.41 -41.97)"/><path class="cls-1" d="M-187.74,151.75A212,212,0,0,1-180,126.94a42.68,42.68,0,0,1,7.5-12.3c3.08-5.77,8.11-9.53,13.4-13a55.14,55.14,0,0,1,10.18-5.12l4.16-.86c0-.31-.07-.62-.1-.93l-4.14.76c-12.36.84-21.47,6.82-27.79,17.37-3.61,6-7.4,11.91-11.11,17.86h0a208.34,208.34,0,0,0-7.18,19.77c-3.22,10.64-9.13,19.61-16.89,27.46a59.07,59.07,0,0,0-5,5.55,43.9,43.9,0,0,0,15.24-9.13A45.3,45.3,0,0,0-187.74,151.75Z" transform="translate(229.41 -41.97)"/><path class="cls-1" d="M-116.36,258.12a48.23,48.23,0,0,1-19.76-6.19c-10.07-4.94-17.17-13-23.42-22-5.28-7.61-8.29-16.29-11.92-24.69-.15-1.85-1.23-3.36-1.81-5.05h0l-1,.11,1.67,5a176.31,176.31,0,0,0,7.49,22c6,13.68,16,23.06,29.29,29.76a61.09,61.09,0,0,0,35.66,6.29c3.6-.42,7.21-.73,10.82-1.44-6.4-2-13.07-1.94-19.54-3.15C-111.4,258.54-113.89,258.39-116.36,258.12Z" transform="translate(229.41 -41.97)"/><path class="cls-1" d="M-136.24,250.89c.71.28,1.43.51,2.11.84A57.42,57.42,0,0,0-114,257.12c.55.05,1.89.8,1.06-.89-12.42-4.74-24.86-9.44-33.35-20.6-5.46-7.18-9.79-15-13.94-23a83.36,83.36,0,0,0-14.29-20.39c-.23.31-.47.51-.43.6,4.2,10,7.91,20.23,12.76,29.9A66.49,66.49,0,0,0-136.24,250.89Z" transform="translate(229.41 -41.97)"/><path class="cls-1" d="M-164.36,151c8.82-7.55,16.69-16.11,25.25-23.94,1.43-1.31,2.56-3,4.47-3.77,7.53-6.84,15.4-13.19,24.83-17.31.64-.28,1.88,0,1.64-1.39-8.26-1.64-15.91-5.16-23.89-7.68-16-2.62-27.74,5.07-38.06,16.05-9.29,11.07-12.2,24.86-15.91,38.21-2.64,9.5-7.11,17.61-14.52,24.1a15.84,15.84,0,0,0-1.31,1.51c3-.22,4.74-2,6.72-3.13,5.66-3.31,11.11-7,16.78-10.28S-169.1,155-164.36,151Z" transform="translate(229.41 -41.97)"/><path class="cls-1" d="M-196,148.43a88.83,88.83,0,0,1,6.32-16.56h0c3.85-8.52,9.28-16.1,14.5-23.78a30.29,30.29,0,0,1,21.73-13.38c3.47-.48,6.94-1,10.42-1.39.94-.11,1.19-.34.84-.74a4.23,4.23,0,0,0-.52-.44c-5.44-.69-10.89-1.26-16.37-.41a28.19,28.19,0,0,0-19.41,12.34c-1.12,1.62-2.38,3.14-3.58,4.7a.35.35,0,0,1-.05.08c-16.22,23.8-25.32,51.44-40.59,75.84,1.4.11,2.42-1.06,3.37-1.91C-208.78,173.25-199.93,162.58-196,148.43Z" transform="translate(229.41 -41.97)"/><path class="cls-1" d="M-107.26,113.18c-5.94.42-11.44,2.58-17.11,4.12l-4,2.58h0c-1.81.64-2.94,2.14-5,3.51a7.39,7.39,0,0,0,4.16-1.68c14.28-6.26,28.3-6.16,42,1.73,7,4,9.84,10.91,12.4,18,1.7-1,.6-2.54.35-3.64a41,41,0,0,0-6.94-16C-88.67,114.88-97.44,112.49-107.26,113.18Z" transform="translate(229.41 -41.97)"/><path class="cls-1" d="M241.53,138.31c4.47-9,9-18.09,10-28.35.69-7.56-.41-15.1-.73-22.64-.2-4.86.72-9.36,4.09-13.37-3.62-1.14-6.58-.43-9,2.25-4.38,4.9-5.41,10.84-5.06,17.16.43,7.87,1.94,15.65,2.15,23.55.21,8.08-.75,16-3.9,23.47L236.91,145A13.46,13.46,0,0,0,241.53,138.31Z" transform="translate(229.41 -41.97)"/><path class="cls-1" d="M-110.49,256.36h-.09Z" transform="translate(229.41 -41.97)"/><path class="cls-1" d="M225.63,209.52c5.57,6.67,11.74,12.75,17.88,18.87a63.54,63.54,0,0,0,26.26,12.29c8.3,1.83,16.35.91,24.27-1.85,3.62-1.27,7.17-2.71,10.76-4.07-.85-1-1.82-.24-2.69-.11-6.7,1-13.4,2.14-20.18,2.58-13.7.88-25.75-2.71-35.45-12.88a189.08,189.08,0,0,0-17.89-16.42c-1.17-1-2.55-1.76-3-3.38l-5-5.23-.48-.45-11.54-9.82c-4.73-2.56-9.17-6-15.62-5.67,4.61,2.75,8.73,5,12.68,7.59C213.42,196,219.78,202.5,225.63,209.52Z" transform="translate(229.41 -41.97)"/><path class="cls-1" d="M218.78,175.29c-1.69,1.19-3.61,2.07-5.41,3.1-2.41,1-5.25.93-7.12,3.12,2.25-.57,4.67-.39,6.77-1.59,8.32-2.45,14.31-8.13,19.86-14.39.58-.64,1-1.45,1.8-1.85,11.37-12.41,19.38-26.77,25.11-42.53A105,105,0,0,0,266,86.3a18.54,18.54,0,0,0-2.26-9.51,3.9,3.9,0,0,0-4.73-2c-2.33.54-1.45,2.41-1.4,3.77.45,13.17,1.07,26.33-1.62,39.37C251,141.86,238.76,161.1,218.78,175.29Z" transform="translate(229.41 -41.97)"/><path class="cls-1" d="M-52.64,210.68c-5.81-7.37-10-15.68-14.14-24.06s-8.41-16.89-12.44-25.42c-5.14-10.85-14.22-16.19-25.36-19.09-10-2.62-19.88-3-29.86.07-4.92,1.51-10,2.53-15,3.83a8.69,8.69,0,0,0-4.1,2c.81.95,1.88-.34,2.66.37,4.7-1.46,9.56-1.31,14.4-1.47,7.13-.82,14.15.27,21.19,1.2,9.67,1.29,16.69,6.81,23.06,13.38a7,7,0,0,1,.76.78l1.46,1.56h0a45.11,45.11,0,0,1,3.4,3.52c7.49,9.6,13.75,20,20,30.44,7.71,12.9,16.77,24.35,30.09,31.8,4.92,2.75,10,5.29,15.62,6.34.13-1-.63-1.3-1.32-1.61-6.92-3.11-13.13-7.47-19.15-11.92A43.59,43.59,0,0,1-52.64,210.68Z" transform="translate(229.41 -41.97)"/><path class="cls-1" d="M-156.42,146.18l.92-.67C-155.82,145.73-156.24,145.9-156.42,146.18Z" transform="translate(229.41 -41.97)"/><path class="cls-1" d="M243.58,155.26c-.47.6-1,1.14-1.53,1.71h0c-.35.47-.7.93-1,1.4,1.3.57,2-.55,2.91-1.06,14-8.09,22-20.6,26.75-35.68,3.23-10.3,3.71-20.89,3.94-31.54.12-5.36.32-10.74,2.4-15.82,0-1.83-1.39-1.72-2.54-1.57-3.3.41-6.34,1.43-8.48,4.21,3.62,13,.91,25.81-2.6,38.21C259.27,129.61,253.07,143.32,243.58,155.26Z" transform="translate(229.41 -41.97)"/><path class="cls-1" d="M-20.43,237.24c-1.07.15-2.1-.63-3.19-.14L-28.93,236a42.47,42.47,0,0,1-15.31-4.4c-6.9-2.87-11.91-8.14-16.75-13.52a176.78,176.78,0,0,1-24.27-33.86c-8.5-15.69-21.54-24.89-38.38-29.62-8.19-2.3-16.36-3.93-24.91-3.77-8.18.17-15,3.43-21.12,8.44.11.18.2.33.29.46l0,0a17.43,17.43,0,0,0,2.36-.62,51.55,51.55,0,0,1,34.86-.76c16.94,5.38,29.9,16.3,40,30.7,6.21,8.89,11.51,18.44,19.86,25.66,4.33,3.33,8.68,6.63,13,10,9.54,7.39,20.2,12.08,32.29,13.29,1.16.11,2.42-.08,3.45.71a2.67,2.67,0,0,1,.44-.39,11.87,11.87,0,0,0,2.8-.08C-19.23,237.94-20.32,237.57-20.43,237.24Z" transform="translate(229.41 -41.97)"/><path class="cls-1" d="M-113.33,130c-12.6,0-24,5.28-34.53,12.17a13.56,13.56,0,0,0-1.73,2c5.61-1.33,10.63-2.28,15.5-3.72,14.89-4.42,28.85-1.49,42.43,5,6.82,3.24,10.85,9.13,14.1,15.55,5.89,11.64,11.45,23.45,17.37,35.08,2,3.92,3.7,8.1,6.84,11.37q1.35,2.07,2.72,4.14c1.78,1.61,3.13,3.71,5.9,5.27-1.15-1.65-1.93-2.75-2.72-3.86l-3.84-4.7c-1.77-1.88-2.73-4.26-4.09-6.4-2-4.78-4.25-9.5-6.13-14.34-3.9-10-7.34-20.21-11.48-30.12C-80.42,139.64-94.09,130-113.33,130Z" transform="translate(229.41 -41.97)"/><path class="cls-1" d="M-99.9,119.77c-11.59-2.38-22.64-.91-32.9,5.27-.83.5-1.73.88-2.6,1.32-7.31,5.65-13.4,12.59-19.95,19l-.77,1.82a30.18,30.18,0,0,0,6.62-5.35,10.05,10.05,0,0,1,2.48-2.13c16.79-9.15,34-15.91,53.08-7,8.66,4,15.55,10.06,19.53,19a5.85,5.85,0,0,0,1,1.23c.64-.09.64-.61.53-1-2.31-7.77-4.51-15.62-9.46-22.2C-86.69,124-93,121.19-99.9,119.77Z" transform="translate(229.41 -41.97)"/><path class="cls-1" d="M-140.51,149.47a102.1,102.1,0,0,1,25.36,6.36c13.7,5.11,23.72,14.35,30.93,27.07,8.12,14.32,17.57,27.75,29.23,39.49a44.48,44.48,0,0,0,10.17,7.72c2.52.89,5,1.94,7.56,2.6,1.71.43,3.39,1.9,5.33.65a15.81,15.81,0,0,1-6.32-2.79c-13-8.16-22.44-19.51-30.34-32.57s-15-26.5-26.13-37.24c-1.27-1-2.57-2-3.82-3.07-5.62-4.75-11.85-7.9-19.35-8.7-6.18-.66-12.36-1-18.55-1.31l-4.71.52c-3.26-.9-6.47,1-9.72.18-.44.66-.52,1.05.55,1C-147,149.4-143.78,149.45-140.51,149.47Z" transform="translate(229.41 -41.97)"/><path class="cls-1" d="M-23.56,238.77l-1.36.59c-13.92-.84-26-6.16-36.86-14.77-2.39-1.91-4.84-3.74-7.26-5.61-9-6.47-15.5-15.09-21.26-24.4-8.81-14.24-20.29-25.62-35.77-32.5-12.86-5.72-26-6.59-39.48-2.09a4.23,4.23,0,0,0-2.86,2c18.45-3,35.81-1.25,50.44,11.89a64.31,64.31,0,0,1,10.07,12.06c4.05,6,7.8,12.21,11.68,18.34,0,0,.07.11.11.17,7.17,8.9,13.86,18.59,24.14,24,14.62,7.75,30.21,12.72,47.13,11.88,1.59.37,3.11-.17,4.66-.38C-21,238.64-22.72,240-23.56,238.77Z" transform="translate(229.41 -41.97)"/><path class="cls-1" d="M319.08,199.51a143.65,143.65,0,0,1-44.23,1.94c-9.75-1.11-18.17-5.58-26.72-9.8-7.08-3.5-14.15-7-22-8.44a24.33,24.33,0,0,0-9.16,0c-.11.85.6.79,1.06.88,10.43,2,20,6.28,29.5,10.89,11.77,5.72,23.94,10.73,37.08,11.84,15.13,1.27,29.93-1.68,44.46-5.68,6.44-1.77,12.18-5.38,18.27-8.09,5.54-3.39,9.76-7.85,11.56-14.26a120.18,120.18,0,0,1-12,10.21C338.46,194.83,328.93,197.58,319.08,199.51Z" transform="translate(229.41 -41.97)"/><path class="cls-1" d="M192.41,369.25c9.65-7.7,13.54-18,13.55-30,0-6.35-.16-12.7-.26-19-4-24.12-16.11-44-31.9-62.12-8-9.17-16.75-17-27.57-22.54-1.11-.57-2.26-1.06-3.39-1.59l-.43.68c2.69,2.29,5.33,4.64,8.07,6.86a41,41,0,0,1,8.24,8.9c5.22,7.74,11.2,14.88,17.14,22.08,12.85,15.57,20.46,33.63,24.21,53.37a75.9,75.9,0,0,1,1.5,19.95c-.83,10.53-5.6,18.91-13.85,25.39l4.68-1.88Z" transform="translate(229.41 -41.97)"/><path class="cls-1" d="M158.17,240.89l3.38,1.88c-1.73-3.23-4.43-5-6.7-7.08-.72-.68-2.15-1-1.25-2.51a12.44,12.44,0,0,0-5.51-4.06A23.25,23.25,0,0,0,131.94,224c-4-1.21-8,.36-12.08-.11,1.15,1.31,2.76,1.65,4.31,2,11.8,2.86,22.92,7.25,32.87,14.33A4.16,4.16,0,0,1,158.17,240.89Zm-8.57-9.68.33.12a2.18,2.18,0,0,1,.25.28Z" transform="translate(229.41 -41.97)"/><path class="cls-1" d="M159.85,254.28C154,245,145.16,238.67,136.77,232c-3-2.39-6.82-3.07-10.67-3.43,7.05,5.79,14.17,11.4,20.57,17.84,8.47,8.25,16,17.37,24,26,6.13,6.61,10,14.87,15.68,21.85.71.87,1.09,2.19,2.61,2a110.14,110.14,0,0,0-18.13-27.64A104.33,104.33,0,0,1,159.85,254.28Z" transform="translate(229.41 -41.97)"/><path class="cls-1" d="M117.85,201.67c7-4,15.12-5.58,21.91-10.09,4.15-2.76,8.44-5.34,13.33-6.65.12-.39.23-.78.35-1.16-13.24,2.84-24.85,9.07-35.61,17.07a4.89,4.89,0,0,0-.19.62C117.63,201.52,117.83,201.68,117.85,201.67Z" transform="translate(229.41 -41.97)"/><path class="cls-1" d="M103.63,215.74c-1.89.06-3.87-.52-6.07.91,3.7,1,7.1.9,10.48,1C107.14,215.77,104.92,216.79,103.63,215.74Z" transform="translate(229.41 -41.97)"/><path class="cls-1" d="M104.34,212.91l2.37-.71c7-3.88,14.7-6.13,21.47-10.39,2.87-1.8,5.92-3.33,8.51-5.55a3.45,3.45,0,0,0,1-.71l5.68-4c-.13-.29.76-1.24-.11-.83a49.74,49.74,0,0,0-5.76,3.64c-8.52,4.1-17.64,6.91-25.73,11.93-.55.46-1,1.07-1.83,1.09l-5.26,3.86-5.31,2.61A8.46,8.46,0,0,0,104.34,212.91Z" transform="translate(229.41 -41.97)"/><path class="cls-1" d="M178.7,206.59a58,58,0,0,1,32.82,7.48l6.37,5.43c.21-.22.42-.43.62-.65a8,8,0,0,0-2.78-3.67c-8.89-11.8-21.51-14.86-35.38-15.39-12.83-.49-23.95,4.3-34.79,10.33-7.57,4.21-15.12,8.5-24.19,8.58-4.27,0-8.54.31-12.81.47h0c-1.38-.38-2.74-.1-4.62.05a7,7,0,0,0,4.28,1.12c9.76,2.42,19.07,1.47,28.49-2.36C150.2,212.51,163.9,207.5,178.7,206.59Z" transform="translate(229.41 -41.97)"/><path class="cls-3" d="M149.6,231.21l.58.4a2.18,2.18,0,0,0-.25-.28Z" transform="translate(229.41 -41.97)"/><path class="cls-3" d="M246.08,72.67l0,0-1.13.53h0A1.3,1.3,0,0,0,246.08,72.67Z" transform="translate(229.41 -41.97)"/><path class="cls-3" d="M186.25,373.86l2.14-.64-.63-.14,0-.11a2.08,2.08,0,0,1,0-.35l4.49-2,.71-.9c2.65-.92,3.63-3.92,6.19-5,2.51.6,3-2.58,5.08-2.75a11.13,11.13,0,0,1,4.41-2.37l5.73-3.69c.2-.71.83-.89,1.39-1.16l.08,0,.74-.25h0c1.79-.72,2.39-2.66,3.84-3.73,3.84-6.07,7.72-12.11,11.49-18.21,4.27-6.92,7.37-14.27,7.85-22.53,3.92-8.7,4.11-18,4.26-27.27,0-1.59-.41-3.31,1.11-4.54,1-.67-.12-1.59.27-2.33,1.6-4.63.6-9.26-.18-13.83a29.49,29.49,0,0,0-3.59-10.15,23.6,23.6,0,0,0-4.52-8.3c-5-5.74-8.69-12.4-12.92-18.66-3.54-5.24-7-10.48-10.92-15.48a74,74,0,0,0-22.85-19.34c-2.1-3.51-5.65-4.57-9.27-5.52-8.86-2.31-17.65-4.5-27-2.49-15.78,3.39-29.45,10.74-41.65,21.11-5.7,4.33-11.31,8.8-18.23,11.12-.44-1.62,1.09-2,1.88-2.61,2.93-2.42,6-4.68,9-7,8.56-5.19,16.55-11.23,25.53-15.85a96.9,96.9,0,0,1,30.86-9.58,44.48,44.48,0,0,0,8.4.09c2.6.32,5.2.76,7.81.92,9.64.61,17.18,6.11,25,10.78,11.13,6.62,19.14,16.6,27.48,26.2a30,30,0,0,0,5.12,5.07,7.86,7.86,0,0,0,.62.78,33.59,33.59,0,0,0,5.19,4.92c.34.28.67.57,1,.86,5.79,5.89,13.1,9.19,20.77,11.54,17.87,5.5,35.9,5.88,53.83.25,10.75-3.37,18.81-11,27.11-18.13,6.75-5.82,12.24-12.57,15.18-21.1,1.21-3.5,3-6.89,1.24-10.9-1.05-2.38,0-4.93.95-7.3.41-1,1.29-2.26-.46-3a51.45,51.45,0,0,0,.8-15,3.78,3.78,0,0,0-.19-2.84c-.63-3.21.89-7.1-3-9.31-.35-.2-.23-1.23-.33-1.88-.89-6.18-2.8-12.19-2.5-18.57a10.35,10.35,0,0,0-5.16-9.92c-.4-1.88-.73-3.75-3.06-4.34-1.4-.35-1.18-1.81-1.53-2.85-3.13-3-6.1-6.3-9.27-9.2-2.48-2.27-4.49-4.87-6.83-7.19-2.74-2.71-5.11-2.58-6.8.8-9.35,18.74-24.66,31-43,40.08-1,.48-1.95,1-2.91,1.53-.8.45-1.6.93-3,1.74a.52.52,0,0,1-.1-.11.2.2,0,0,1,0-.09c3-3.93,6.43-6.33,9.58-8.83,11.49-9.13,19.87-20.31,24.13-34.48A25.25,25.25,0,0,1,311,92.38c1.59-2.22,3.5-2.77,6-1.55A20.65,20.65,0,0,1,321,93.6c1.25,1,1.53,2.91,3.77,3.85-1-4-3.49-6.08-6.49-7.65a55.46,55.46,0,0,1-5.64-3.64c-3.25-2.24-5.88-6-10.43-6.14-.87-2.87-3.33-2.71-5.5-2.5a13.34,13.34,0,0,1-7.25-1.72c-1.07-.51-1-1.57-1.31-2.46-2.85-3.16-6.19-3.38-9.85-1.65l-5.62-.29c-2.32,1.14-5.17,1.29-6.76,3.73-2.88-1.33-6.11-1.46-9-2.48-5.46-1.91-10.62-.41-13.82,4.42a23.89,23.89,0,0,0-3.9,11.41,60.54,60.54,0,0,0,.6,11.49c.93,8.84,2.23,17.66,1.29,26.6-1,9.84-5,18.42-10.61,26.57-.69-1-.16-1.78.05-2.45a67.14,67.14,0,0,0,.77-36.73,57.8,57.8,0,0,1-1.88-16.3c.85-4.63,1.85-9.19,4-13.44,2.34-4.57,6-7.65,11.58-9.75-8.36-.38-16.49,11.72-16.77,23.33a33.43,33.43,0,0,0,.4,10.42c1.09,7.21,3.67,14.2,3.09,21.65.56,22.24-7.56,36.65-25.83,46.58-1.41.77-3.09,1.12-4.16,2.48-1.44.47-2.87,1-4.34,1.39-4.28,1.13-7.59-1.17-8.15-5.57-1.36-10.67.55-21,3.51-31.16,2.57-8.81,4.51-17.55,3.35-26.83-2-15.89-8.07-23.19-23.34-27.78-5.94-1.78-11.89-2.94-18.11-2.29-9.65-.77-17.27,3.71-24.36,9.46-6.63,5.38-13.46,10.46-20.37,15.45h0c-5.56,2.2-11.27,1.67-17,1-2.46-.3-4.85-1.34-7.4-.81-10.43-4.3-18.42.22-20.68,11.07-.91,4.35-2.86,8.48-2.78,13.06,0,.79-.47,1.11-1.22,1.25a3,3,0,0,0-2,1.62c-2.71,5.18-7,9.77-5.93,16.38.35,2.05-2.33,2.86-2.32,4.86-.53,1.29-1.06,2.57-1.6,3.85-.78.1-1.72-.52-2.3.54-4.29,7.88-12.43,10-19.9,12.89-4.9,1.86-9.09,4.17-11.67,8.86-2.9,3.78-2.52,8.25-2.42,12.56a101.59,101.59,0,0,0,2.8,20.66c.35,3.13,2,5.73,3.64,8.26.8,1.19.7,1.75-.77,1.88a48.31,48.31,0,0,0-14.15,3.74c-.29.12-.77-.2-1.16-.31-3.25-.68-6.45.27-9.68.31a37,37,0,0,1-16-3c-9.14-4.1-17.92-8.61-23.9-17.1a1.48,1.48,0,0,0-.21-.32L-53.71,202c-6.78-12.84-10.65-26.74-14.87-40.51-.42-1.35-.94-2.67-1.41-4-.41-3.93-2.36-7.53-2.47-11.53.17-11.7-1.24-22.93-9.56-32.08-4.38-4.82-9.63-8.14-16.23-9a9.71,9.71,0,0,0-2.14-.74c-11-1.15-16.27-8.84-20-18-1.05-2.59-1.24-5.56-1.6-8.38-2-16-11.28-26-26.16-31.12a81.24,81.24,0,0,0-50.77-1.14c-1.77.52-4.55.06-4.25,3.65,3.49-2.36,6.84-1,10.25.2,8.9,3.08,16.23,8.14,21.14,16.35A26.77,26.77,0,0,0-170,68.05c.12.19.24.38.37.57,3.81,6,9.77,9.91,15.45,14.61-1.86.17-2.83-.91-4-1.43s-2.54-1.25-3.8-1.89c-6.28-2.5-10.4-7.46-14.34-12.63A39.94,39.94,0,0,0-200,51.83c-1.2-.27-2.46-1.06-4.67.62,15.94,1.73,25.07,12,33.81,23.62l-.12.16-3.52-1.69c-7-5.58-13.26-12.16-21.67-15.81a15.38,15.38,0,0,0-7.68-1.33c-.56.05-1.13.17-1,.94s.56.49,1,.47c5.89-.37,10.53,2.59,14.95,5.86,3,2.25,5.79,4.87,8.89,7.51A26.35,26.35,0,0,1-188,69a65.93,65.93,0,0,0-12.85-5.79,30.18,30.18,0,0,0-3.53-.7c-.62-.11-1.44-.3-1.58.62s.67.87,1.31,1c7.28.88,13.11,5.33,19.68,8,.9.36.28.79-.07,1.15-6-.28-11.48-2.88-17.4-3.39a10.82,10.82,0,0,0-5.74.64c2.45,1,4.49.33,6.26,1.46a1.49,1.49,0,0,1,0,.21c-1.86,1.7-5,.72-6.63,3.67,3.59-.85,6.64-1.76,10.38-1.77l0,.06c-3.56,2.86-8.61,2.27-11.45,6.72,2.22-.62,3.29-1.94,5.1-1.83-1.35,2.9-5,3.88-5.95,7.85,6.22-4.88,10.31-12.33,19.72-10.8-8.63,4.91-15.68,11.12-20.83,19.34,3.69-3.62,7.31-7.31,11.07-10.85,3.3-3.1,7.24-5.32,11.11-7.61a12,12,0,0,1,7-1.35c.22,1.13,3.48-1.17,2,1.82-8.22,2-14.91,6.74-21.32,11.91-3.49,2.82-6.63,6.07-9.91,9.15-.8.75-1.63,1.53-1,3.07,6.25-6.19,12.46-12.23,19.84-16.92a60.93,60.93,0,0,1,14.9-6.84,11.16,11.16,0,0,1,9.55,1.46c-10.56.92-19.26,5.93-27.51,12s-15.48,12.59-19.35,22.21c3.22-4.34,6.3-8.84,10.27-12.58,8.94-8.41,18.56-15.77,30.75-18.91a23.85,23.85,0,0,1,13.32-.05c.74.87.53,1.24-.6,1.33C-181,84.76-194,96.75-205.77,110.87c-9,10.78-12.7,23.82-15.9,37.09a2.47,2.47,0,0,0,.25,2.55c.58-2,1-3.63,1.55-5.25,2.89-9.19,5.3-18.65,10.35-26.92A80.29,80.29,0,0,1-174,87.06c4.56-2.12,9.49-2.63,14.45-2.78a8,8,0,0,1,5.22,1.34c-.46.22-.69.42-.91.42-11.35-.15-20.83,4.18-29.17,11.68-9.84,8.85-17.38,19.41-23.84,30.83a21,21,0,0,0-1.16,3c-3,6-4.29,12.62-6.51,18.9a93.62,93.62,0,0,1-9.31,19.88,5.24,5.24,0,0,0-.84,3.93,70.23,70.23,0,0,0,10.7-20.64q3.75-11.37,7.47-22.75c4.59-8.36,9.53-16.51,15.94-23.6,6.69-7.4,13.64-14.59,23.55-17.76,7.34-2.35,14.69-3.43,22.1-.32a1,1,0,0,0,1.19-.12c-4.72-3.91-9.42-7.84-14.17-11.71A102.17,102.17,0,0,1-168,68.88c-5.84-10.51-14.24-17.9-25.91-21.34-.76-.22-1.83,0-2.15-1.23,2.6-1.3,5.3-1.07,8-.66,1.54.55,3.06,1.15,4.62,1.63,8.92,2.74,15.51,8.29,20.21,16.33A88.38,88.38,0,0,0-147.28,84c.9,1.62,2.43,2.65,3.71,3.91.76.74.36,1-.34,1.24l-1.1.11c-.51,1.48-1.63,1-2.68.86-9.81-.92-19.18.11-26.83,7.1-4.64,4.23-8.08,9.48-11.35,14.81h0c-5.48,7.21-9.31,15.35-13.32,23.4-6.88,13.85-13.73,27.71-20.75,41.48-1.93,3.79-4.19,7.49-8.17,9.64-1.45.78-.91,2.22-1.3,3.93,7.32-3.35,14.84-5.14,21.25-9.5,2.62-1.79,5.35-1.82,8.41-1.41a44.78,44.78,0,0,1,13.25,3.47c5.07,2.08,7.07,6.51,8.62,11.27q4.77,14.66,9.5,29.31c.66,1.87,2.27,3.31,2.39,5.42,12.32,24,32.43,35.32,58.93,36,4.36.12,8.75-.64,13.12-1,1.53-.12,3.06-.29,4.6-.36.47,0,.87.25.18.66a2.56,2.56,0,0,1-.63.19l.09.93,6.94-1.74c6.74-.8,13.48-2.3,20.21-2.22s13-1.22,19.44-2.53c11.28-2.32,21.16-7.64,30.25-14.56A52.77,52.77,0,0,1,3,237.22c7.8-1.49,15.6-.64,23.4,0a20.56,20.56,0,0,1,3.8,1c10.26,4.92,20.25,3.52,30.11-1.19,8.1-3.87,16.14-7.87,23.19-13.56a31.79,31.79,0,0,0,5.34-5.78c2-1,3.8-.12,5.66.43,3,.89,6.09,1.75,9.14,2.62,2.13,1.56,5.12,0,7.15,1.92,2,.83,4.07,1.57,6,2.49,9.59,4.5,17.34,11.58,25.37,18.27h0c8.77,9.45,17.57,18.87,26.28,28.37A102.26,102.26,0,0,1,179,286c3.13,4.88,6.46,9.61,10.84,13.49a32.65,32.65,0,0,1,3,5.8,112.1,112.1,0,0,1,7.61,40.59c-1.37,10.55-6.45,18.95-14.76,25.48l-.59-.07a2.21,2.21,0,0,1,.2-.58,50,50,0,0,0,10.47-27.56c1.12-15.94-4-30.64-12.41-43.85C177.41,290,169.81,281.8,163,273.12c-3.07-4.67-6.9-8.73-10.53-12.94-11.89-13.77-24.65-26.6-40.62-35.75l0,0h0a.22.22,0,0,0,0,.08c-.08.88.78,1.2,1.14,1.82,18.43,11.73,33.3,27.19,46.49,44.41.33.42.73.79,1.1,1.18,5.6,8,11.92,15.46,17.9,23.17a74.73,74.73,0,0,1,15.76,45.53c.16,9.35-3.28,18.09-7.57,26.35-1.61,3.11-4.72,3.67-7.83,4l-.51,1.2ZM356.27,204c-4.25,10.15-12.76,16.48-20.71,23.42-9.4,8.2-20.05,13.28-32.46,14.58-4.36.45-8.73.69-13.1,1,0-.4-.08-.79-.13-1.19,25.38-8.76,50.38-18.12,67.32-40.86C357.45,202.15,356.68,203,356.27,204Zm-2.95-.76c-11.77,14.09-26.81,23.34-44,29.29-9.22,1.25-18.41,2.78-27.72,3.49-15.3,1.17-27.63-4.41-37.47-16-1.06-1.25.34-.63.56-.9,16.63,13.41,35.39,16.22,55.82,11.57,6.93-1.57,13.25-4.55,19.73-7.2,14.08-5.79,26.29-14,34.71-27.06,1-1.6,1.61-3.55,3.29-4.82A20.09,20.09,0,0,1,353.32,203.23Zm-70.69,8.05c-10.95,1.07-21-1.68-30.6-6.95-9.4-5.19-18.9-10.19-28.38-15.23-.91-.48-1.77-1.36-3-1l-2.83-1.64c1.15-1.54,2.59-.76,3.88-.38a131.33,131.33,0,0,1,23.48,9.27,140,140,0,0,0,34.27,12.12,43,43,0,0,0,13.41.84c15.34-1.57,30.83-2.52,45.09-9.33a11.2,11.2,0,0,1,4.93-2l-.44.37,0,0a12.46,12.46,0,0,1-4.79,3.07l-3.6,2.06C317.32,207.94,300,209.58,282.63,211.28Zm11.9-.07h0c-1.06,1.5-1.06,1.5-5,1.93L285,214.4c-10.27,1.39-20.45,1.81-30.43-1.9a89.68,89.68,0,0,1-17.62-9l-.12-.07q-5.12-4.37-10.24-8.72c-.08-.11-.17-.21-.26-.32l-3.15-3.84c6.1,3.23,11.37,6.07,16.67,8.83,6.21,3.22,12.37,6.53,18.7,9.5,9.88,4.66,20.37,4.34,30.9,3.17h0Zm-74.16-20.66c.16.13.32.26.49.38,5.75,5.44,11.28,11.15,18.12,15.31,10.67,7.19,22.33,11.06,35.3,10.43A46.28,46.28,0,0,0,285,215.29c5.48-.68,10.74-2.33,16.08-3.63,9.65-1.86,19.34-3.54,28.8-6.26,1.45-.42,3-.61,4.18-1.76a37.8,37.8,0,0,0,12.06-7.3L351.8,192c0,1.61-1.22,2.52-2.09,3.59a59,59,0,0,1-23.14,16.9c-14.84,6.35-30.69,6.4-46.46,7.48-15.15,1-28.16-3.82-40.72-11.37-7.55-4.54-14.35-10-21.14-15.57v0c-3-3.13-6.57-5.5-10.06-8C213,185.34,216.43,188.45,220.37,190.55Zm134.74.35a4.47,4.47,0,0,1,2.6-2.16c-7.42,13.48-16.79,23.87-31,29.1-11.34,1.26-22.36,4.13-33.53,6.25-9.22,1.75-18.27.79-27.23-1.72-1.81-.32-3.8-.26-4.83-2.27,1.36.59,3,.21,4.24,1.1,12.41.83,24.78,0,37.09-1.31C324,217.59,342.39,209.35,355.11,190.9ZM254.85,218.14c2.28,3,5.76,3.82,9,4.94,14.27,4.9,28.49,3.24,42.67-.44a145.42,145.42,0,0,1,15.48-2.89c.7-.11,1.61-.8,2.14.35-4.33,1.84-8.64,3.75-13,5.49-13.9,5.53-28.16,7.51-42.85,3.71-16-4.13-27.77-15-40-25.1a10.82,10.82,0,0,1-1.19-1.61C236.34,208.69,245.1,214.33,254.85,218.14ZM347.31,193c-6.09,2.71-11.83,6.32-18.27,8.09-14.53,4-29.33,7-44.46,5.68-13.14-1.11-25.31-6.12-37.08-11.84-9.49-4.61-19.07-8.85-29.5-10.89-.46-.09-1.17,0-1.06-.88a24.33,24.33,0,0,1,9.16,0c7.88,1.41,15,4.94,22,8.44,8.55,4.22,17,8.69,26.72,9.8a143.65,143.65,0,0,0,44.23-1.94c9.85-1.93,19.38-4.68,27.78-10.55a120.18,120.18,0,0,0,12-10.21C357.07,185.16,352.85,189.62,347.31,193Zm13-27.6c.69,6.27-1.64,11.24-6.19,15.5-6.91,6.48-14.66,11.57-23.76,14.18a142,142,0,0,1-39.91,5.69c-12.86-.06-25.25-1.78-36.8-8.16-9.23-5.1-18.68-10-29.47-11.63,1.67-2.26,3.82-.94,5.59-1.4a52,52,0,0,1,21.7,8.92c7.76,5.44,16.42,8.11,25.78,8.9a151.39,151.39,0,0,0,43.15-2.91c17.45-3.55,30.94-12.41,38.66-29C359.43,164.78,359.86,165,360.32,165.41Zm-13.4,4.8c2.2-2.13,3.88-4.86,6.83-6.16-2.56,3.63-5.12,7.25-8.95,9.71-6.36,5.22-13.74,8.59-21.41,11.18-23,7.77-46.11,10.35-69.2.1-6.2-2.76-12.3-5.77-19-7.85,1.29-1.21,2.65-.64,3.7-1.2,10.77,1.08,21,4.41,31.35,7.3,27.61,7.7,53.13,3.49,76.59-13l.11,0Zm11.49-14.52c1.17,2.37.47,4.45.44,6.5-5.28,13.88-15,23.49-28.93,28.17-18.36,6.17-37.36,7.42-56.59,5.3-8.65-.95-16.14-4.71-23.19-9.52-.81-.56-1.62-1.16.23-1.24,7.45,3.52,15,6.77,23.33,7.6,22.64,2.24,44.15-1.53,64.31-12.31,6.88-3.68,12.94-8.34,16.76-15.3C356.3,162.1,357.14,158.94,358.41,155.69Zm-3.12,2.58c-8.36,14.17-22.48,19.52-37,24.35-13,4.34-26.19,3.48-39.4,1.34-1.47-.24-3.08-.07-4.38-1.06l-27.66-7.06h0c-1.82-.17-3.77.26-5.3-1.17,1.74,0,3.5-.66,5.19.25a23.77,23.77,0,0,1,7.47.69c6.74,1.46,13.12,4.1,19.74,5.94,4.21.38,8.42.79,12.63,1.13,13.46,1.1,26.05-2.68,38.45-7.17,14.35-5.19,23.63-15.37,28.46-29.73.24-.73.39-1.39,1.32-1.63C356.45,148.83,357.08,153.5,355.29,158.27Zm-109,13.52c7.77-1.43,15.45-1.3,22.94,1.62,5.57,2.17,11.16,4.27,16.74,6.41,2.13.21,4.48-.42,6.13,1.61l-5.61-.27a74.32,74.32,0,0,1-19-3.14c-7.46-2.44-14.85-5.08-22.88-4.79C244,171.45,245.67,171.9,246.31,171.79Zm106.2-41.88.53-.4c1.68,2.34,1.43,5.07,1,7.57-2.91,16.21-10.84,28.93-26.48,35.54a100.32,100.32,0,0,1-27.47,7.62c-9.73-.09-18.75-3-27.51-6.92a46.12,46.12,0,0,0-11.25-3.41l-6.58-.34-.06-.9c2-.11,4-.74,6.05,0,6-.31,11.7,1.6,17.41,3.07a82.58,82.58,0,0,0,20.49,2.78c24.47.06,45.49-19.15,52.26-37.55A33.37,33.37,0,0,0,352.51,129.91Zm-1.86,2.17c-8.83,29.1-36.69,45.59-66.49,39.34-1.29-.27-2.58-.54-3.85-.87-8.6-2.23-17.19-4.47-26.21-3.3l-2.27.53c-.84-.86-2.32,1.22-2.93-.65,1.75-.18,3.32-1.21,5.14-1,3.71,0,7.27-1.35,11-1.22,5.37.19,10.74.21,16.12.38,10.57.31,21.3.71,31.22-3.32,15.26-6.19,28.91-14.79,37.16-29.88C350.14,131,350.3,131.36,350.65,132.08Zm-3.17-11.87c1.24,0,1.12,1.7,1.78,2.53v0c-.13,4.74-.57,9.43-3.72,13.29-10.26,12.57-22.89,21.68-38.71,25.9-11.08,3-22.44,1.67-33.7,1.75-1.64,0-3.46.64-4.44-.08l5.43-.62.65-.07c5.53-.64,11.23-1.31,17-1.8,5.95-.51,11.78-1.3,17.17-4.08,15.49-8,28.07-19.05,36.49-34.52C345.9,121.61,346.36,120.19,347.48,120.21Zm-5.94-6.64a5.69,5.69,0,0,1,2.63,8.18,79.29,79.29,0,0,1-21.11,24.49c-10.39,8.11-21.49,13.77-35.15,13.57-8-.11-16,.78-24,1.22-6.16,1.43-12.49,2.16-18.32,4.81-.5.16-1.22.17-1.47.51-2.17,3-5.72,3.29-8.73,4.57-1.46.62-.24-.52-.31-.83A62,62,0,0,1,254,161.28l10.12-1.73c6.82-1.91,13.91-1.71,20.85-2.73,11.7-1.7,22.77-4.78,31.18-13.91a155.36,155.36,0,0,0,15-18.72c2.13-3.19,4.37-6.31,6.64-9.4C338.74,113.59,339.88,112.8,341.54,113.57Zm-3.69-3.86c1.21,1.4,1.19,2.05-.22,3.34a29.94,29.94,0,0,0-4.25,5.4,184.22,184.22,0,0,1-13.94,18.71c-5.62,6.4-11.63,12.32-20.05,14.91a89.89,89.89,0,0,1-21.28,4,92.07,92.07,0,0,0-14.93,2.11c-2.12.48-4.31,1.64-6.64.8,2.47-2.33,6.15-1.94,8.77-3.92,5.05-1.42,10.12-2.79,15.16-4.27A73.3,73.3,0,0,0,305.08,138a108.4,108.4,0,0,0,24.55-27.64C333,105,333.88,105.11,337.85,109.71Zm-55.76,31c17.52-8.83,32.12-20.8,41.41-38.54,2.32-4.43,3.39-4.35,6.63-.31.48.59,1,1.19,1.43,1.8s.74,1.23,0,2c-5.12,5.31-8.3,12.07-13.2,17.59-11.94,13.45-25.87,23.55-43.77,27.47-3,.67-6.17,1.33-8.91,3l-2.41.72c-.77-1.11.6-1.37.82-2.08l.85-.78C270.51,147.75,276,143.8,282.09,140.73Zm30.28-52.84c.35.65,0,1-.51,1.35-3.28,2.31-4.49,6-5.58,9.46a68.6,68.6,0,0,1-23.69,34.05c-4.25,3.36-8.29,7-12.42,10.48-.09-.11-.17-.22-.26-.32,1.62-1.91,3.21-3.84,4.87-5.7,9.76-11,18.88-22.23,22.85-36.83,1.08-4,3.72-7.44,6.5-10.6,1.54-1.76,3.31-3.22,5.84-3.29A2.46,2.46,0,0,1,312.37,87.89Zm-10.11-7.78V80s0,.08,0,.08h0c0,.68-.55,1.54.52,1.86,1.64.49,3.93.36,4.22,2.45s-2.26,2.22-3.4,3.4c-2.24,2.32-3.66,5.26-6.39,8.44.47-4.58.64-8.27,1.31-11.86C298.88,82.49,299.54,80.24,302.26,80.11Zm-2.74-.5c-2.79,3-3.1,6.73-3.28,10.48-.69,14.62-6.5,27.12-15.84,38.14-5.11,6-10.26,12-15.4,18l-.23,0,0,.23a6.56,6.56,0,0,0-.73.54,56,56,0,0,0-4.66,4.71c-7.55,6.25-16.59,10-24.7,15.39,1.06-2.4,3.38-3.44,5-5.22,1.67-1,3.28-2.17,5-3.08,6.93-3.63,11.87-9.87,18.53-14,3.4-2.08,5.6-6.1,8.37-9.21,9.28-10.43,15.06-22.29,15.19-36.52,0-4.6,0-9.25,1.3-13.71C290.19,77.82,292.46,78.37,299.52,79.61Zm-7.88-1.74c-3.29,1.64-4.33,4-5,6.6a35.35,35.35,0,0,0-1.27,9.09,110,110,0,0,1-1.2,14.72c-1.27,8.83-5.53,16.13-11.62,22.56l1.66-4.5c3.61-8.12,4.82-16.64,4.76-25.49,0-6.19.25-12.46,3.22-18.18C284.38,80,286.15,76.38,291.64,77.87ZM286,73.48c1.07,1,2,2.13-.13,3.3a12.29,12.29,0,0,0-5.25,6.51c-2.94,4.45-3,9.67-2.92,14.57a76.35,76.35,0,0,1-5,29.16c-2.63,4.68-4.37,9.92-8.74,14a22.9,22.9,0,0,1,1-2.44C273,124.75,276,109.7,276,93.87c0-6.13.21-12.27,1.89-18.23A5,5,0,0,1,286,73.48Zm-20,3.44c2.14-2.78,5.18-3.8,8.48-4.21,1.15-.15,2.51-.26,2.54,1.57-2.08,5.08-2.28,10.46-2.4,15.82-.23,10.65-.71,21.24-3.94,31.54-4.73,15.08-12.77,27.59-26.75,35.68-.9.51-1.61,1.63-2.91,1.06.34-.47.69-.93,1-1.4h0c.51-.57,1.06-1.11,1.53-1.71,9.49-11.94,15.69-25.65,19.8-40.13C266.89,102.73,269.6,90,266,76.92Zm-8.42,1.63c-.05-1.36-.93-3.23,1.4-3.77a3.9,3.9,0,0,1,4.73,2A18.54,18.54,0,0,1,266,86.3a105,105,0,0,1-6.16,34.85c-5.73,15.76-13.74,30.12-25.11,42.53-.82.4-1.22,1.21-1.8,1.85-5.55,6.26-11.54,11.94-19.86,14.39-2.1,1.2-4.52,1-6.77,1.59,1.87-2.19,4.71-2.16,7.12-3.12,1.8-1,3.72-1.91,5.41-3.1,20-14.19,32.21-33.43,37.16-57.37C258.63,104.88,258,91.72,257.56,78.55Zm-18.49,61.83c3.15-7.52,4.11-15.39,3.9-23.47-.21-7.9-1.72-15.68-2.15-23.55-.35-6.32.68-12.26,5.06-17.16,2.39-2.68,5.35-3.39,9-2.25-3.37,4-4.29,8.51-4.09,13.37.32,7.54,1.42,15.08.73,22.64-.93,10.26-5.49,19.31-10,28.35a13.46,13.46,0,0,1-4.62,6.65Zm-26.5,33.91c18.29-13.73,30.61-31.72,38.11-53.18a48.72,48.72,0,0,0,2.4-20.09c-.4-5-.73-10.07-.86-15.11-.08-3.57.39-7.09,3.32-10.49.92,6.6.54,12.6.68,18.56.69,29.08-8.86,54-30.39,74-5.6,5.18-12,9.27-20,11.25C207.87,176.65,210.49,175.85,212.57,174.29Zm-3.94,14.76,11.54,9.82.48.45,5,5.23c.42,1.62,1.8,2.43,3,3.38a189.08,189.08,0,0,1,17.89,16.42c9.7,10.17,21.75,13.76,35.45,12.88,6.78-.44,13.48-1.54,20.18-2.58.87-.13,1.84-.85,2.69.11-3.59,1.36-7.14,2.8-10.76,4.07-7.92,2.76-16,3.68-24.27,1.85a63.54,63.54,0,0,1-26.26-12.29c-6.14-6.12-12.31-12.2-17.88-18.87-5.85-7-12.21-13.55-19.94-18.55-3.95-2.55-8.07-4.84-12.68-7.59C199.46,183.1,203.9,186.49,208.63,189.05Zm-250,33.31c6,4.45,12.23,8.81,19.15,11.92.69.31,1.45.6,1.32,1.61-5.64-1-10.7-3.59-15.62-6.34-13.32-7.45-22.38-18.9-30.09-31.8-6.21-10.41-12.47-20.84-20-30.44a45.11,45.11,0,0,0-3.4-3.52h0l-1.46-1.56a7,7,0,0,0-.76-.78c-6.37-6.57-13.39-12.09-23.06-13.38-7-.93-14.06-2-21.19-1.2-4.84.16-9.7,0-14.4,1.47-.78-.71-1.85.58-2.66-.37a8.69,8.69,0,0,1,4.1-2c5-1.3,10.07-2.32,15-3.83,10-3.07,19.85-2.69,29.86-.07,11.14,2.9,20.22,8.24,25.36,19.09,4,8.53,8.3,17,12.44,25.42s8.33,16.69,14.14,24.06A43.59,43.59,0,0,0-41.4,222.36Zm21.07,15.85a11.87,11.87,0,0,1-2.8.08,2.67,2.67,0,0,0-.44.39c-1-.79-2.29-.6-3.45-.71-12.09-1.21-22.75-5.9-32.29-13.29-4.32-3.35-8.67-6.65-13-10C-80.66,207.48-86,197.93-92.17,189c-10.06-14.4-23-25.32-40-30.7a51.55,51.55,0,0,0-34.86.76,17.43,17.43,0,0,1-2.36.62l0,0c-.09-.13-.18-.28-.29-.46,6.16-5,12.94-8.27,21.12-8.44,8.55-.16,16.72,1.47,24.91,3.77,16.84,4.73,29.88,13.93,38.38,29.62A176.78,176.78,0,0,0-61,218c4.84,5.38,9.85,10.65,16.75,13.52A42.47,42.47,0,0,0-28.93,236l5.31,1.15c1.09-.49,2.12.29,3.19.14C-20.32,237.57-19.23,237.94-20.33,238.21Zm.15,1.76c-1.55.21-3.07.75-4.66.38-16.92.84-32.51-4.13-47.13-11.88-10.28-5.44-17-15.13-24.14-24,0-.06-.07-.12-.11-.17-3.88-6.13-7.63-12.34-11.68-18.34A64.31,64.31,0,0,0-118,173.87C-132.6,160.73-150,159-168.41,162a4.23,4.23,0,0,1,2.86-2c13.44-4.5,26.62-3.63,39.48,2.09,15.48,6.88,27,18.26,35.77,32.5C-84.54,203.89-78,212.51-69,219c2.42,1.87,4.87,3.7,7.26,5.61,10.81,8.61,22.94,13.93,36.86,14.77l1.36-.59C-22.72,240-21,238.64-20.18,240Zm-130.69-91.59c3.25.77,6.46-1.08,9.72-.18l4.71-.52c6.19.35,12.37.65,18.55,1.31,7.5.8,13.73,3.95,19.35,8.7,1.25,1.05,2.55,2.05,3.82,3.07C-83.64,171.5-76.45,185-68.59,198s17.35,24.41,30.34,32.57a15.81,15.81,0,0,0,6.32,2.79c-1.94,1.25-3.62-.22-5.33-.65-2.57-.66-5-1.71-7.56-2.6A44.48,44.48,0,0,1-55,222.39c-11.66-11.74-21.11-25.17-29.23-39.49-7.21-12.72-17.23-22-30.93-27.07a102.1,102.1,0,0,0-25.36-6.36c-3.27,0-6.54-.07-9.81-.05C-151.39,149.43-151.31,149-150.87,148.38Zm89.36,39.19c1.88,4.84,4.08,9.56,6.13,14.34,1.36,2.14,2.32,4.52,4.09,6.4l3.84,4.7c.79,1.11,1.57,2.21,2.72,3.86-2.77-1.56-4.12-3.66-5.9-5.27q-1.36-2.07-2.72-4.14c-3.14-3.27-4.84-7.45-6.84-11.37-5.92-11.63-11.48-23.44-17.37-35.08-3.25-6.42-7.28-12.31-14.1-15.55-13.58-6.45-27.54-9.38-42.43-5-4.87,1.44-9.89,2.39-15.5,3.72a13.56,13.56,0,0,1,1.73-2c10.52-6.89,21.93-12.16,34.53-12.17,19.24,0,32.91,9.6,40.34,27.41C-68.85,167.36-65.41,177.55-61.51,187.57ZM-73.39,153a5.85,5.85,0,0,1-1-1.23c-4-8.95-10.87-15-19.53-19-19.12-8.94-36.29-2.18-53.08,7a10.05,10.05,0,0,0-2.48,2.13,30.18,30.18,0,0,1-6.62,5.35l.77-1.82c6.55-6.45,12.64-13.39,19.95-19,.87-.44,1.77-.82,2.6-1.32,10.26-6.18,21.31-7.65,32.9-5.27,6.89,1.42,13.21,4.24,17.58,10,4.95,6.58,7.15,14.43,9.46,22.2C-72.75,152.4-72.75,152.92-73.39,153Zm-83-6.83c.18-.28.6-.45.92-.67Zm81.63-4.73c-2.56-7.1-5.43-14-12.4-18-13.68-7.89-27.7-8-42-1.73a7.39,7.39,0,0,1-4.16,1.68c2-1.37,3.14-2.87,5-3.51h0l4-2.58c5.67-1.54,11.17-3.7,17.11-4.12,9.82-.69,18.59,1.7,25.88,8.59a41,41,0,0,1,6.94,16C-74.19,138.91-73.09,140.41-74.79,141.45Zm-23.38-35.54a57.77,57.77,0,0,1,7.31,2.78c6.53,3.32,10.45,8.91,13.66,15.17a7.72,7.72,0,0,1,1.43,4.46,12.5,12.5,0,0,1-2.82-4.84c-2-1.94-3.28-4.65-6-5.9l-.09,0c-8-5.17-16.67-6.6-25.94-5.2a51,51,0,0,0-9.48,2.45c-.67.24-1.45,1.07-2.16,0A55,55,0,0,1-106.08,106Zm-31.9-45c4.34,6.21,6,13.3,6.93,20.65a28,28,0,0,0,5.43,13.73,10.66,10.66,0,0,1,3.83,4.5c-2.29-1.42-4.55-2.85-5.87-5.29-5.23-5.49-8.47-12.1-11-19.16-3.09-8.74-5.87-17.67-13-24.4A27.23,27.23,0,0,1-130.07,60.89ZM-149,49.29c7.36,4.77,11.55,11.87,14.26,20,4,12,8.83,23.41,19.23,31.56a4.81,4.81,0,0,1-3.54-1c-9-6.89-15.78-15.4-19.69-26.17a61.32,61.32,0,0,0-10-18.44,75.29,75.29,0,0,0-10-9.55A20.68,20.68,0,0,1-149,49.29Zm-4.91,2.44c6.75,6.65,10.75,14.84,14.15,23.45,3.14,8,7.54,15.07,14.2,20.62.33.27.68.55.23,1.1-1.65,0-3.05-.88-4.51-1.6l-8.79-10a194.16,194.16,0,0,1-11.81-18.57c-4.34-7.47-9.63-14.15-17.36-18.45-2.64-1.47-5.43-2.66-8.46-4.12C-167.24,42.85-160.11,45.62-153.9,51.73Zm10.65,34.83h0a100.88,100.88,0,0,1-18.83-24c-4.73-8.4-11.79-13.66-20.85-16.55-1-.32-2.83.13-2.83-1.88a32.48,32.48,0,0,1,12.08,2.7c10.41,4.39,17.18,12.5,22.65,22,3.12,5.39,6.2,10.82,10.31,15.55,1.69,3.3,4.9,5.42,7,8.58-2,.51-2.71-1.26-4-1.66l-.91-.63a2.7,2.7,0,0,1,.52.3Zm-79.49,98.13c15.27-24.4,24.37-52,40.59-75.84a.35.35,0,0,0,.05-.08c1.2-1.56,2.46-3.08,3.58-4.7a28.19,28.19,0,0,1,19.41-12.34c5.48-.85,10.93-.28,16.37.41a4.23,4.23,0,0,1,.52.44c.35.4.1.63-.84.74-3.48.43-6.95.91-10.42,1.39a30.29,30.29,0,0,0-21.73,13.38c-5.22,7.68-10.65,15.26-14.5,23.78h0A88.83,88.83,0,0,0-196,148.43c-3.9,14.15-12.75,24.82-23.34,34.35C-220.32,183.63-221.34,184.8-222.74,184.69Zm5.77-1.21a59.07,59.07,0,0,1,5-5.55c7.76-7.85,13.67-16.82,16.89-27.46a208.34,208.34,0,0,1,7.18-19.77h0c3.71-5.95,7.5-11.85,11.11-17.86,6.32-10.55,15.43-16.53,27.79-17.37l4.14-.76c0,.31.07.62.1.93l-4.16.86a55.14,55.14,0,0,0-10.18,5.12c-5.29,3.49-10.32,7.25-13.4,13a42.68,42.68,0,0,0-7.5,12.3,212,212,0,0,0-7.74,24.81,45.3,45.3,0,0,1-14,22.6A43.9,43.9,0,0,1-217,183.48Zm15.11-6.73a15.84,15.84,0,0,1,1.31-1.51c7.41-6.49,11.88-14.6,14.52-24.1,3.71-13.35,6.62-27.14,15.91-38.21,10.32-11,22-18.67,38.06-16.05,8,2.52,15.63,6,23.89,7.68.24,1.37-1,1.11-1.64,1.39-9.43,4.12-17.3,10.47-24.83,17.31-1.91.76-3,2.46-4.47,3.77-8.56,7.83-16.43,16.39-25.25,23.94-4.74,4-8.48,9.17-14,12.37s-11.12,7-16.78,10.28C-197.12,174.78-198.91,176.53-201.86,176.75Zm101.66,86.59a61.09,61.09,0,0,1-35.66-6.29c-13.29-6.7-23.32-16.08-29.29-29.76a176.31,176.31,0,0,1-7.49-22l-1.67-5,1-.11h0c.58,1.69,1.66,3.2,1.81,5.05,3.63,8.4,6.64,17.08,11.92,24.69,6.25,9,13.35,17.09,23.42,22a48.23,48.23,0,0,0,19.76,6.19c2.47.27,5,.42,7.44.63,6.47,1.21,13.14,1.17,19.54,3.15C-93,262.61-96.6,262.92-100.2,263.34Zm-74.73-70.52c0-.09.2-.29.43-.6a83.36,83.36,0,0,1,14.29,20.39c4.15,8,8.48,15.84,13.94,23,8.49,11.16,20.93,15.86,33.35,20.6.83,1.69-.51.94-1.06.89a57.42,57.42,0,0,1-20.15-5.39c-.68-.33-1.4-.56-2.11-.84a66.49,66.49,0,0,1-25.93-28.17C-167,213.05-170.73,202.81-174.93,192.82ZM-101,258c-3.21-.37-6.24-1.72-9.51-1.69h0l-.09,0h.07c-2.43-2-5.5-2.57-8.28-3.79-8.61-3.79-17.31-7.31-23.78-14.7a102.09,102.09,0,0,1-13.1-19.59c-5.81-10.94-11.59-21.87-21.39-29.94-.44-.36-1.12-.77-.68-1.68l2.4.77h0c3.52,2.61,7,5.3,10.56,7.8a50.86,50.86,0,0,1,16,18.42c3.21,6.09,6.28,12.28,10.52,17.77.73,1,1.59,1.79,2.39,2.67l.12.14c8.22,9.77,18.8,16,30.65,20.23,5.63,2,11.6,2.71,17.34,4.39C-92.23,259.26-96.6,258.54-101,258Zm25.63.22c-21.62-1.11-41.49-6.73-57.4-22.46-6.46-6.83-10.76-15.09-15-23.34C-154,200.22-164.6,192.68-176,186l-2.42-1.21-1.3-1.49a0,0,0,0,1,0,0,.05.05,0,0,1,0,0c7.65,1.85,13.78,5.64,19.84,9.57,1.27.82,2.29,2,3.81,2.46,7,5.56,12.19,12.56,16.65,20.16,11.24,19.11,28.39,30.24,49.11,36.6a21.61,21.61,0,0,0,6.22,1.93c4.43,1.62,9.26,2,13.53,4.23A23.72,23.72,0,0,1-75.37,258.26Zm32.54-2.85a13.53,13.53,0,0,1-3.45.86,142.41,142.41,0,0,1-18.34,1.22l-20-4.91-6.25-2a92,92,0,0,1-36.9-21.93c-5.16-5-8.57-11.3-12.46-17.23-4.83-7.37-10.22-14.22-17.88-18.91-8.25-6.1-17.14-10.68-27.57-11.57l-1.37-.17-2.9-.8c-.12-.39-1.41-.85.05-1.14.72-.15,1.45-.22,2.17-.33,21.1.59,39.38,7.9,54.37,22.93,4.91,4.92,8.48,10.88,12.54,16.47,12.74,17.51,28.32,31.17,50.36,35.47a81.83,81.83,0,0,0,21.6,1.19,17.19,17.19,0,0,0,6.07,0,4.52,4.52,0,0,1,4.29,0Zm-145.15-79c10.4-2.15,20.77-3.27,31,1l8.7,3.61.06,0c4.89,2.9,10.11,5.28,14.13,9.52,10.88,11.45,21.89,22.77,32.2,34.77,6,7,12.38,13.69,20.78,18a62,62,0,0,0,17.93,8.43,8.78,8.78,0,0,1,5.07,1.77l-4.49-.38c-18.45-1-32.88-10.18-45.88-22.45-6.95-6.56-11.49-14.89-17.27-22.3-15.74-20.19-36.27-30.87-62.06-31C-187.89,177.11-187.94,176.78-188,176.45Zm157.16,77-.09-1.08c3.17-1.47,6.06-3.57,9.61-4.2A29.1,29.1,0,0,1-30.82,253.48Zm6.49-6.52c-7.85,3.67-16.21,5.07-24.78,5.5-12-.09-22.62-4.66-32.73-10.67-12.93-8.09-21.36-20.68-31.56-31.51q-9.48-10.08-19-20.14c-4.63-4.88-10.41-8-16.52-10.57a52.46,52.46,0,0,0-36.33-5.17c-2.89.61-5.76,1.92-8.87,1.25a79.69,79.69,0,0,1,27.24-7.93c12.26-1.36,23.19,2.06,32.8,9.82a118.35,118.35,0,0,1,19.48,20.4c5.19,6.77,9.61,14.15,15.8,20.13.83,1,1.65,2,2.5,3,8.21,9.48,18.74,15.74,29.86,21A59.75,59.75,0,0,0-24.36,246c1.46-1.13,3.24-1,4.91-1.38A12,12,0,0,1-24.33,247Zm12.18-6.39-4.16,1.09c-19.19,7.72-37.56,6.16-55.61-4a101.08,101.08,0,0,1-23.75-17.93h0a207.4,207.4,0,0,1-14.46-18.32A142.14,142.14,0,0,0-129.87,179c-14.27-12.9-30.53-15.91-48.69-10.75-1.9.55-3.81,1.07-5.72,1.6,3.09-2.73,6.85-3.92,10.44-5.45a81,81,0,0,1,19.75-2.48c20.49,0,35.52,9.26,46.12,26.44,3.26,5.29,6.27,10.76,10.21,15.61a.84.84,0,0,1,.42.12l-.42-.12c8.62,11.79,17.47,23.34,31.69,29,13.08,5.2,26.36,9.57,40.73,8.81,1.73-.09,3.45-.46,5.17-.71h0a4.37,4.37,0,0,0,2.79-.52h1a7.66,7.66,0,0,1,4.24-1C-10.68,239.56-12,240.2-12.15,240.57Zm-5.09-5.21-3-1.41a19.37,19.37,0,0,1-7.46-4.33c-.19-.18-.36-.37-.54-.56l-.36-.37.41.2,0,0,6.84,3.31c5.72,2.32,11.66,2.61,17.73,2.16,1.15-.09,2.47-.86,3.56.3C-5.68,236.67-11.45,236.22-17.24,235.36Zm141-49.24c-10.86,3.64-21.92,6.42-33.41,7-11.75.59-23.15-.25-32.09-9.37a.76.76,0,0,0-.25-.54l-.63-1.39c1.11.5,1.94.8,2.7,1.22a40.24,40.24,0,0,0,31.36,4c12.91-3.5,25.93-6.51,39.48-5.07,1,.11,2.86-1,2.93,1.33A58.73,58.73,0,0,0,123.72,186.12Zm60.15-9.74c-2.5-2.13-5-4.24-7.51-6.4a24,24,0,0,1-7-10.95C166,149,162.53,138.92,159.1,128.87c-3-8.81-8.7-14.82-17.89-17.18l.17.39a.72.72,0,0,1-.17-.39c-6-2.22-12.27-1.8-18.51-1.47-1.17.06-2.37.64-3.53,0,4.25-1.68,8.11-4.3,12.71-5.16,13.13-2.42,29.82,4.44,36.27,19.66,3.43,8.08,4.66,16.67,6.78,25.07,2.25,8.9,3.9,18.08,9.45,25.79ZM134,100.93c2.26-1.57,5-2,7.56-2.85,25.22-1.39,39.94,17.64,33.28,43.78a12.4,12.4,0,0,1-.7-2.17,55.64,55.64,0,0,0-5.9-18.39c-6.45-12.8-23.09-20.87-36.52-17.81C131.33,101.65,133.05,101.58,134,100.93Zm20.75-13.28h0c1.21.51,2.66,0,3.79.85,7.42-.3,14.25,2,20.93,4.86a21.76,21.76,0,0,1,13,14.76,52.45,52.45,0,0,1-.15,31.08c-3.27,10.37-5.48,21-5,32a4.6,4.6,0,0,1,.32,3.11,2.84,2.84,0,0,1-1.51-2.63c-1.47-10.79-3.85-21.51-2.33-32.52.51-3.69,1-7.39,1.36-11.1.87-9.35.53-18.42-6.15-26-5.4-6.17-11.65-10.88-19.91-12.41l-2.39-.12c-2.61-1-5.49-.46-8.59-1.26C150.59,87.13,152.7,88,154.73,87.65ZM116.8,108.34a2.64,2.64,0,0,1,.73-.48c5.38-4.12,10.79-8.2,16.13-12.37a24.54,24.54,0,0,1,19-5.37c1.4.18,2.81.25,4.21.37.53.15,1.05.32,1.58.44,16.43,3.79,25.82,16,25.23,32.82a33.42,33.42,0,0,1-.42,5.58c-2.74,13.13-1.48,26.21.39,39.29a3.44,3.44,0,0,1,.42,3.51,6.49,6.49,0,0,1-1.84-3.87c-2.6-8.29-4.93-16.64-4.86-25.43,0-4.93,0-9.88.43-14.78,1.75-20.48-21.47-34.92-36.31-31.12a19.56,19.56,0,0,0-12.66,5.93l-11.68,6.38c-.86,1.24-2.24,1.64-3.52,2.19C113.69,109.3,115.45,109,116.8,108.34ZM109,113.62a36.92,36.92,0,0,0,8.39-1.54c5.88-.46,11.77-1.17,17.67-.34,2.26.31,4.49.91,6.73,1.38a23.59,23.59,0,0,1,15.6,16.52c2.89,10,7.06,19.57,10.13,29.52,1,3.37,2.12,6.83,4.81,9.42l9.09,7.58,1.55,1.68c-2,.08-3.16-1.72-4.91-2a46,46,0,0,1-8.78-9A53.06,53.06,0,0,1,161,153.29c-3.25-7.13-5.21-14.87-10-21.28h0c-3.89-5.89-9.72-8.62-16.38-9.86a128.15,128.15,0,0,0-18.34-1.71c-8.39-.33-16.61-1.4-24.37-4.86l-2.79-2.38C96.25,114.74,102.65,115.18,109,113.62Zm49.74,39.58c-3.7-2.82-6.11-6.68-8.7-10.37-4.92-7-11.06-12.42-19.27-15.22a92.43,92.43,0,0,0-21.21-4.35c-4.67-.45-9.47-.45-13.56-3.32l-1.21-1.6a1,1,0,0,1,.08-.11A71.89,71.89,0,0,0,112,121.5c5.47.31,10.92.77,16.38,1.19,7.26.55,14,2.52,19.48,7.6C153.55,136.94,155.64,145.3,158.78,153.2ZM75.52,112.27c.86-1,2.48-.66,3.78-.47a18.42,18.42,0,0,1,9.39,4.45c5.9,5,12.3,8.7,20.42,8.49,4.52-.11,8.92,1.05,13.32,1.93,10.86,2.16,20,7.15,26.25,16.55.94,1.41,2.56,2.47,2.72,4.62l-7.15-4.92-.12-.08a38.8,38.8,0,0,0-15.66-6.48c-8.84-1.68-17.69-3.27-26.5-5.08a49.13,49.13,0,0,1-14.52-5.18,32.12,32.12,0,0,1-11-10.69C76.43,114.25,74.53,113.37,75.52,112.27ZM69.19,117c.18-1.95,1.88-2.62,3.47-3.06,1.11-.3,1.06.86,1.15,1.53,1.64,12.72,10.42,19.18,21,24.1,7.7,3.58,16,4.5,24.29,5.31,7.79.21,15.54.62,22.44,5,.4.25,1.14.7,1.73.08l.05,0,0,0c-1.62-2.08-3.95-3-6.33-3.82-5-1.79-10.24-2.22-15.49-2.55-9.53-.61-19-1.55-27.68-6-8.23-4.24-15.63-9.3-17.88-19.15.81-.39,1.23.17,1.62.69,5.2,7.15,12.7,10.48,20.9,12.74A193.45,193.45,0,0,0,120,136.1c9.41,1.47,18.41,3.9,26.28,9.54h0c8.37,5.65,14.75,13.23,21,22.14a86.5,86.5,0,0,1-16.46-12.44,11.15,11.15,0,0,0-4.7-4.06c-.55-.49-1-1.35-1.94-.68a1.9,1.9,0,0,0-.46-.38c-.49,1.36,1.18,1.45,1.42,2.47l-1.78-.31h0c-.75-.43-1.49-.88-2.27-1.28-6.75-3.47-14.06-4.54-21.53-4.88-7.4.41-14.8.86-22.22.08a46.12,46.12,0,0,1-13.7-4.14h0c-6.76-4.62-11.52-10.7-13.68-18.71A18.43,18.43,0,0,1,69.19,117Zm-2.28,3.8c0-.2.41-.38.73-.65,2.29,10.31,7,18.76,16.76,23.61,7.09,4.29,15,4.48,22.92,4.48,4.39,0,8.77-.34,13.16-.43,8.45-.17,16.23,2.31,23.63,6.19a24.35,24.35,0,0,0,5.33,2.95c-.59,1.94-1.75.42-2.44.24-4.31-1.11-8.52-2.65-12.86-3.59-8.21-1.79-16.45-1.16-24.65.32-3.08-.39-6.12.19-9.17.34-14.16.71-24.35-5.46-31.39-17.56C66,131.55,66.68,126.17,66.91,120.76ZM130.41,154l0,1-3.5-.12-1.38.49a32.59,32.59,0,0,0-4.21.3c-6.85,1.34-13.7,2.66-20.5,4.2a36.67,36.67,0,0,1-16.15-.15c0-1.74,1.44-.93,2.17-1,3.32-.45,6.68-.57,9.86-1.75,4.29-.76,8.69-.8,12.89-2.06,5.73-.56,11.44-1.47,17.23-1.1A5.65,5.65,0,0,1,130.41,154ZM64.78,130.44c2,7.39,6.21,13.13,11.7,17.94a30.83,30.83,0,0,0,16.84,7.21c-1.66,2.1-4.12,1.21-6.22,1.63a45.05,45.05,0,0,1-4.8.44C71.46,157.75,59.26,143.21,64.78,130.44Zm-5.57,10.18c1.53-1.9,2.22-1.62,2.85.55,3.28,11.29,11.47,17.1,22.31,20a7.89,7.89,0,0,1,4.45,1.08c-1.63.41-2.7.83-3.88.33C74.75,163,66,160.19,59.36,151.91,56,147.74,55.81,144.84,59.21,140.62ZM55,149.91c1.34-.59,1.48,1,2,1.63,6.08,7.56,13.51,12.22,23.62,12.31,15.44.14,30.18-3.69,45-7.31,9.74-1.9,18.7,1,27.57,4.46a142.24,142.24,0,0,1,21,13.79,40.13,40.13,0,0,0,5.06,3c.56.5,1.25.93,1,1.87l-11.5-3.76c-4.25-2-8.56-3.92-12.74-6.08a65.68,65.68,0,0,0-46.34-5.94c-5.77,1.34-11.5,3-17.33,3.94-12.18,2-23.75.9-33.07-8.4-1.94-1.94-4.5-3.54-5.13-6.53C53.92,151.78,53.73,150.45,55,149.91Zm108.26,25.52L158.32,174c-.21,0-.45.11-.62,0-12-4.83-24.24-7.44-37.25-5.27-9.08,1.51-18.12,3.31-27.29,4.31-8.21.9-16.21.46-23.89-2.8a19.48,19.48,0,0,1-9.17-7.42c.65.09.86.06,1,.15.56.35,1.11.7,1.63,1.1,5.35,4.14,11.53,5.46,18.14,5.91,9.42.65,18.25-2,27.18-4.19,12.76-3.12,25.42-3.31,37.88,1.26,3.85,1.41,7.54,3.28,11.3,4.94A10.32,10.32,0,0,1,163.21,175.43Zm-111-16.1c1.68-2.57,3-1.45,4,.5,5.47,10.4,14.86,14.06,25.77,15,8.5.73,16.87-.77,25.15-2.32,13.34-2.49,26.6-4.88,40-.6,5.19,1.65,10.41,3.21,15.61,4.81a6.79,6.79,0,0,1,4,1.22,8.69,8.69,0,0,1-3.88,0l-1.49.21h0c-2.93-.49-5.85-1.14-8.84-.49-7-.45-14-.89-21-1.37-13.11-.89-26.07-.32-38.72,3.66a36.71,36.71,0,0,1-9.32,1.92c-11.13.49-21.45-1.26-28.95-10.72C51.73,167.55,50.24,163.82,52.2,159.33Zm-1.35,9.54a67.42,67.42,0,0,0,5.61,6.4c9.14,8.13,20,9.22,31.51,7.28,6.7-1.13,13.07-3.67,19.88-4.5,13.17-1.62,26.29-.11,39.42.43.59,0,1.44-.17,1.24.94-4,.57-7.93,2-12.06,1.8-11-1.85-21.86-1-32.66,1.37-4.39,1-8.78,2-13.12,3.19-14.32,4-26.55-.5-37.81-9.14C52.16,174.06,49.73,171.92,50.85,168.87Zm-2.79,1.72c6.23,16.5,17.36,24.19,35,24.51,14.15.25,27.67-2.74,41-7.17,1.5-.49,3-1.44,5.44-.67-5,2.7-9.43,5.1-13.85,7.57a61,61,0,0,1-31.58,7.85c-13.78-.31-25.64-4.64-33.11-17.25C48.37,181.09,46.92,173.78,48.06,170.59Zm-2.79,1.27c.83,12.61,6.63,21.37,16.48,27.11,9.53,5.55,20.17,6.48,31.06,5.64-10.1,4.22-20.36,5.87-31,2.62C49.46,203.5,42.35,194,42.52,181.32A18.14,18.14,0,0,1,45.27,171.86Zm-3,.33c-5.78,17.92,3.67,32.36,20.55,37.89a33,33,0,0,1-12.45-.66c-8.93-2.08-14.82-8-18.4-16C28.25,185.1,32.31,177.27,42.24,172.19ZM31.5,178.4c-3.52,5.91-3.85,11.87-.56,17.65,5.44,9.56,13.39,15.56,24.74,16.11,10,.49,20,0,29.72-2.57a10.6,10.6,0,0,1,5-1.21c-1.72,1.06-3.28,2.42-5.37,2.68-12.47,4.42-25.28,6.65-38.46,4.94a27.52,27.52,0,0,1-23.27-22.1C22.08,187.33,25.58,180.49,31.5,178.4Zm-5.9,1.76c-5.38,6-5.45,12.53-2.42,19.4,4.71,10.69,12.69,17.09,24.48,18.41,12.22,1.37,24-1.1,35.74-4l6.28-3.21c-1.3,2.85-4.17,3.48-6.63,4.68-13.1,7.15-26.82,10.68-41.77,7.2-3-.71-5.65-2.33-8.49-3.45l-1.47-1-5.52-4.71c-5.42-6.81-9.3-14.26-9.51-23.2C18,183.58,21.07,180.2,25.6,180.16ZM5.31,235.63c-.33,0-.68,0-.66-.49,5.35-2.06,10.77-3.82,16.56-4.13h0c1.7,1.72,3.86,3,5.06,5.19A72.19,72.19,0,0,0,5.31,235.63Zm70.32-8.28c-1.63.94-3.07,2.25-5,2.68a99.14,99.14,0,0,1-14.38,7.13c-11.83,4.73-22.68,3.57-32.23-5.39-2.86-3.91-6-7.65-7.36-12.45h0c-.39-3-.78-5.95-1.18-8.92,4.33,7.23,10.75,12.23,17,17.39,4.82,4,10.46,5.73,16.68,6.08C57,234.3,64,231.21,71,228.57l4.48-2.2c0,.32.09.65.13,1Zm16.16-13.88c-.8,1.42-2.93,1.24-3.51,2.92-9.31,8.35-20.5,13-32.47,15.62-8.1,1.78-15.93.23-22.52-5.36-3.08-2.62-6.18-5.24-9.08-8.06-6.19-6-9.82-13.31-10.13-22.07a7.47,7.47,0,0,1,.74-4.87c.17,1.59.33,3.18.5,4.76a44.31,44.31,0,0,0,5.77,13.11A30.38,30.38,0,0,0,34,221.07c10.2,5.48,20.93,5,31.71,2.5,10-2.28,18.86-7,27.31-12.61h0l4.87-3.57h0c.62.24,1-.94,1.72-.26h0l-6.43,5.67ZM200.47,363.08h0c3.27-6.91,6.53-13.82,6.64-21.71,0-1.95-.24-3.95.43-5.86-.27-5.13.42-10.31-.65-15.41h0c-2.08-16.16-8.39-30.69-17.26-44.18-4.67-7.1-10.34-13.43-15.72-20-3.08-3.44-6.49-6.6-8.92-10.59-.27-1.7-2-2.62-2.56-4.8L174.13,254h0c.59,1,1.87,1.4,2,2.68l1.35,1.34c3.23,2.92,6.75,5.51,9.7,8.74.22.23.43.46.64.7a42,42,0,0,1,13.2,18.86c3.32,9,6.91,18,8.5,27.56,1.22,7.07,0,14.06-.7,21.08C207.87,344.85,207.59,355,200.47,363.08Zm10.22-49.3c-3.27-15.51-7.18-30.83-17.81-43.22-5.13-6-12-10.28-17.26-16.2,0,0,0,0,0,0-1.25-2.29-3.44-3.83-4.88-5.94s-4-3.07-4.16-5.86c1.37,1.67,3.51,2.15,5.19,3.35,7.27,5.16,13.75,11.28,20.59,16.94a47.67,47.67,0,0,1,15.21,23,137.63,137.63,0,0,1,5.68,51.06c-1.18,5.25-1.63,10.71-4.28,15.55-.51.93-.55,2.39-2.18,2.28,2.48-7.24,2.91-14.82,3.84-22.32C211.38,326.2,212.18,320,210.69,313.78Zm6.73,36.42a12.66,12.66,0,0,0-2.37,3.83c-2.64,2-5.19,4.07-8.42,5.37,0-1.57,1.13-2.32,1.56-3.41,3.92-5.8,5.62-12.32,6.23-19.19,2-11.77.12-23.39-1.35-35A89.88,89.88,0,0,0,208.28,283a44.69,44.69,0,0,0-12.83-19.23c-8.62-7.47-17-15.26-26.63-21.48-.85-.55-1.53-1.67-2.83-1.24-4.16-3.94-9.27-6.78-12.93-11.39l2.76,1c6.14,3.59,12.31,7.14,18.43,10.77a109.75,109.75,0,0,1,34.61,32.73c4.37,8.14,7.35,16.85,10.31,25.57a33.91,33.91,0,0,1,1.72,10c.17,6,.63,12,.65,18.06a63.61,63.61,0,0,1-3.49,21A1.67,1.67,0,0,0,217.42,350.2Zm2.1-2.15c3.64-7.87,3.88-16.27,3.69-24.7-.12-4.8-.49-9.6-.72-14.4a34.51,34.51,0,0,0-2.12-10.58c-3-8.07-5.5-16.38-10-23.83a89.7,89.7,0,0,0-21.55-24.45c-7.67-6-15.58-11.64-24.45-15.8a11.35,11.35,0,0,1-1.85-1.35c-1.71-.57-3.52-1-4.41-2.86,1.34.37,2.83.37,3.83,1.57,10.13,3.41,20,7.23,28.53,14a111.13,111.13,0,0,1,36.81,52.2c.4,2,.67,4.11,1.22,6.1a45.86,45.86,0,0,1-.87,27.55c-1.31,3.83-2.55,7.71-4.18,11.41C222.6,344.86,222.14,347.36,219.52,348.05Zm7.63-10.75a54.19,54.19,0,0,0,1.24-39.43c-.28-1.16-.53-2.34-.85-3.49-2.82-10.12-8.65-18.64-14.48-27.16A91.86,91.86,0,0,0,167,231.66c-6.93-2.48-14.28-3.55-21-6.63L137.66,223l.09-.55,3.8-.44a10,10,0,0,0,3.86,1.71c2.83.08,5.63.79,8.48.29,11.14.88,21.28,4.68,30.72,10.52,8.07,5.46,14.21,13.07,21.57,19.33l.95-.09Q199.58,246,192,238.37c-.4-.41-.95-.76-.75-1.42l.34-.06,7,3.48,0,0a165.33,165.33,0,0,1,28,32.45c5.71,8.72,7.09,18.69,8,28.77.8,1.45.46,3,.53,4.56-1.8-1.23-1.31-3.27-1.72-5-2-9.45-4.79-18.6-10.09-26.81L222,274c5.45,8.93,8.32,18.81,10.52,28.93.34,1.6.82,3.17,1.23,4.76C239.09,319.22,233.79,328.39,227.15,337.3Zm10.28-24.41a14.61,14.61,0,0,1-.87-7.27c-.15-1.64-.35-3.27-.45-4.91-1-14.69-5.79-27.82-15.59-38.95-4-4.53-8-9-11.92-13.6-.34-.4-2.6-1-.55-2.19,3.49,2.62,6.91,5.35,10.5,7.84,12.43,8.67,17.81,21.12,19.34,35.68.07.64.15,1.29.22,1.93l-.3,13.65A21,21,0,0,1,237.43,312.89Zm3.2-8.83c-.26,1,.14,2.51-1.57,2.73q.1-7.73.19-15.45c.49-5.78-.95-11.24-3-16.53a62,62,0,0,0-8.54-15.72c-3.12-3.52-7.54-5.39-11-8.56-5-3.41-9.65-7.27-15-10-4.2-2.16-8.09-5.05-12.88-6h0l-4.44-2.82c-1-2.1.58-.94,1.08-.78,4.42,1.39,8.83,2.84,13.23,4.27.34-.7-.29-1-.59-1.44-6.15-2.12-12.21-4.49-18.66-5.59-5-1.59-10-3.51-15.3-4.14l-10.38-1.14a28.18,28.18,0,0,1-3.79-.28c-1.25-.24-2.85.85-3.76-.87h0l11.89.12h0l.3.08c1.7.37,3.56-.39,5.16.7,1.29,0,2.59-.14,3.88,0,15.68,1.26,30.4,5.48,43.31,14.74,14.78,10.63,25.66,24.35,31.84,41.62C242.64,287.37,242.79,295.81,240.63,304.06Zm-80-83.09c1.86-1.35,4-.86,6-.87,5.36-.83,10.64.35,16,.57,1.61.32,3.21.65,4.83,1a86.1,86.1,0,0,1,28.64,10.3c14.13,8.39,20.72,21.82,24.93,36.89.78,1.29,1.88,2.52.82,4.17-.47-1.43-1.67-2.53-1.79-4.11A95.53,95.53,0,0,0,226.22,249c-15.87-17.74-36.14-26.19-59.53-27.92C164.65,221.71,162.65,221,160.63,221Zm79.82,31c2.69,7.05,5,14.16,4.19,22.68l-6.09-17.24A47.5,47.5,0,0,0,229,241c-12.45-13.73-28.79-19-46.49-21.29h0c-8.6-2.05-17.25-.39-25.88-.41-2.16,0-4.38.58-6.49-.43,3.4-.82,6.79-1.68,10.2-2.47C189.34,209.75,226.9,223.3,240.45,252Zm-18-26.5c1.49,1.62,3.2,3.15,4.05,5.44-1.36,0-2-.85-2.74-1.41-17.36-12.9-36.74-18.14-58.23-15.5-7.76,1-15.16,3.56-22.86,4.78a9.57,9.57,0,0,1-5,.8,8.05,8.05,0,0,1,4.86-2c11-4.06,22.06-8,33.89-9.1C194.53,206.82,210.1,211.84,222.48,225.45ZM205.58,204c-3.2-1.3-5.93-2.63-8.8-3.53-10.48-3.27-21.11-2.88-31.77-1-5.45,1.82-10.62,4.3-15.87,6.57h0l-6,3.29c-6.24,3.42-12.43,6.93-19.75,7.48l-3.71.29c.87-1.35,2.28-1.24,3.62-1.35h0a6.7,6.7,0,0,0,1.92-.27c8.13-3.6,16.24-7.26,24.35-10.9,5.1-2.15,10-4.73,15.39-6.17h0a33.06,33.06,0,0,1,12.86-2.71c7.8,0,15.31,1.71,22.73,3.94C202.35,200.77,204.34,201.66,205.58,204Zm-17.84-12.77a21.36,21.36,0,0,1,7.31,3.49,1.91,1.91,0,0,1,.76.31l-.76-.31,2.69,2.3c-6.68-1.4-13.24-2.73-20-2.29-7.14-.38-13.47,2.48-19.83,5.09-9.2,3.78-18.32,7.72-27.28,12.06a39.18,39.18,0,0,1-21.69,3.88c-.88-.1-2.25.44-2.51-1.16a.53.53,0,0,0,.81-.28c14.85-2.44,29.2-6.44,42.42-13.87,6.37-2.24,12.72-4.51,19.11-6.7A46.58,46.58,0,0,1,187.74,191.27Zm-4.47-2.68.16,0c0,.43,1.94,1-.08,1.26-2.38.29-4.8.33-7.17.72-6.64,1.1-12.67,4.12-19,6.18-1.43.47-2.79,1.62-4.48.89,8.94-7.28,18.61-12.06,30.55-9.1Zm-13.4-4.92c0,.2,0,.56-.05.58-13.93,4.51-25.54,13.63-38.78,19.51l-8.38,3.68c-.34.62-1.9.26-1.31,1.64,11.2-4,21.32-10.08,31.68-15.71,1.15-.63,2.29-1.28,3.43-1.92a38.46,38.46,0,0,1,17.59-6.84,26.18,26.18,0,0,1,7.14,1.09c0,.31.08.62.13.93a33.71,33.71,0,0,0-12.62.45c-4.87,1.1-8.9,3.88-13.09,6.33h0a82.56,82.56,0,0,1-34.17,16.71,35,35,0,0,1-11.29,1.74l12.4-5.31a125.51,125.51,0,0,0,19.14-12.11C149.94,187.94,158.78,182.83,169.87,183.67ZM153.08,185Zm-35.25,15.89c10.76-8,22.37-14.23,35.61-17.07-.12.38-.23.77-.35,1.16-4.89,1.31-9.18,3.89-13.33,6.65-6.79,4.51-14.89,6.11-21.91,10.09,0,0-.22-.15-.21-.21A4.89,4.89,0,0,1,117.83,200.84Zm-13.15,10.39,5.26-3.86c.81,0,1.28-.63,1.83-1.09,8.09-5,17.21-7.83,25.73-11.93a49.74,49.74,0,0,1,5.76-3.64c.87-.41,0,.54.11.83l-5.68,4a3.45,3.45,0,0,1-1,.71c-2.59,2.22-5.64,3.75-8.51,5.55-6.77,4.26-14.51,6.51-21.47,10.39l-2.37.71a8.46,8.46,0,0,1-5,.93Zm-7.12,5.42c2.2-1.43,4.18-.85,6.07-.91,1.29,1,3.51,0,4.41,1.95C104.66,217.55,101.26,217.63,97.56,216.65Zm10.66,3.69a7,7,0,0,1-4.28-1.12c1.88-.15,3.24-.43,4.62-.05h0c4.27-.16,8.54-.44,12.81-.47,9.07-.08,16.62-4.37,24.19-8.58,10.84-6,22-10.82,34.79-10.33,13.87.53,26.49,3.59,35.38,15.39a8,8,0,0,1,2.78,3.67c-.2.22-.41.43-.62.65l-6.37-5.43a58,58,0,0,0-32.82-7.48c-14.8.91-28.5,5.92-42,11.39C127.29,221.81,118,222.76,108.22,220.34Zm11.64,3.56c4.08.47,8.11-1.1,12.08.11a23.25,23.25,0,0,1,16.15,5.11,12.44,12.44,0,0,1,5.51,4.06c-.9,1.49.53,1.83,1.25,2.51,2.27,2.12,5,3.85,6.7,7.08l-3.38-1.88a4.16,4.16,0,0,0-1.13-.63c-9.95-7.08-21.07-11.47-32.87-14.33C122.62,225.55,121,225.21,119.86,223.9Zm66.52,70.36c-5.66-7-9.55-15.24-15.68-21.85-8-8.66-15.56-17.78-24-26-6.4-6.44-13.52-12-20.57-17.84,3.85.36,7.67,1,10.67,3.43,8.39,6.7,17.19,13,23.08,22.31a104.33,104.33,0,0,0,11,14.36A110.14,110.14,0,0,1,189,296.28C187.47,296.45,187.09,295.13,186.38,294.26Zm15.19,51.49a75.9,75.9,0,0,0-1.5-19.95c-3.75-19.74-11.36-37.8-24.21-53.37-5.94-7.2-11.92-14.34-17.14-22.08a41,41,0,0,0-8.24-8.9c-2.74-2.22-5.38-4.57-8.07-6.86l.43-.68c1.13.53,2.28,1,3.39,1.59,10.82,5.52,19.6,13.37,27.57,22.54,15.79,18.15,27.9,38,31.9,62.12.1,6.35.27,12.7.26,19,0,12-3.9,22.34-13.55,30h0l-4.68,1.88C196,364.66,200.74,356.28,201.57,345.75Z" transform="translate(229.41 -41.97)"/><path class="cls-3" d="M206.46,254.13l-.28-.32A1.15,1.15,0,0,0,206.46,254.13Z" transform="translate(229.41 -41.97)"/></g></g></g></svg>