<svg xmlns="http://www.w3.org/2000/svg" xmlns:xlink="http://www.w3.org/1999/xlink" viewBox="0 0 213.08 119.61"><defs><style>.cls-1{fill:none;}.cls-2{clip-path:url(#clip-path);}.cls-3{fill:#9f8778;}</style><clipPath id="clip-path" transform="translate(82.68 -15.13)"><rect id="SVGID" class="cls-1" width="156.38" height="144.24"/></clipPath></defs><g id="圖層_2" data-name="圖層 2"><g id="圖層_2-2" data-name="圖層 2"><g class="cls-2"><path class="cls-1" d="M31.52,45.45a17.76,17.76,0,0,0,5.23,1.86c3.17.65,6.37,1.23,9.55,1.84a13.81,13.81,0,0,1,5.64,2.33l.05,0,2.57,1.77c-.05-.77-.64-1.16-1-1.66a14.07,14.07,0,0,0-9.45-6A21.81,21.81,0,0,0,39.32,45C36.4,45,34.09,43.7,32,41.89a6.69,6.69,0,0,0-3.38-1.6c-.47-.06-1-.17-1.36.17s.33.71.35,1.13A11.58,11.58,0,0,0,31.52,45.45Z" transform="translate(82.68 -15.13)"/><path class="cls-1" d="M46.27,44.22c-2-.15-3.93-.32-5.9-.43a26.52,26.52,0,0,1-6.17-1.18l0,0,.43.58c1.48,1,3.21,1,4.89,1.19A33.15,33.15,0,0,1,47.14,46a13.91,13.91,0,0,1,7,5.49,15.92,15.92,0,0,0,3.13,3.73c-1.13-2.84-1.88-5.86-3.93-8.25A11.08,11.08,0,0,0,46.27,44.22Z" transform="translate(82.68 -15.13)"/><path class="cls-1" d="M-48.92,84.42s0,0,0,0c-.29-.32-.6-.63-.86-1A42.92,42.92,0,0,1-53.62,77a18.35,18.35,0,0,0-5.76-6.64c-1.29-.9-2.54-1.87-3.8-2.81h0l-.87-.28c-.16.33.09.47.25.6,3.53,2.91,5.61,6.85,7.71,10.8a36.78,36.78,0,0,0,4.72,7c2.33,2.67,5.46,3.94,8.57,5.3a12,12,0,0,1,3,1.37A26.79,26.79,0,0,1-36.4,93a23,23,0,0,0,4.77.29c-2.07-.61-4.22-.85-6.25-1.58A25,25,0,0,1-48.92,84.42Z" transform="translate(82.68 -15.13)"/><path class="cls-1" d="M41.92,43.41a45.63,45.63,0,0,1,6.61.61,8.48,8.48,0,0,1,5.91,3.56h0c1.72,2.31,2.43,5.1,3.6,7.67a19.42,19.42,0,0,0,3,4.91,17,17,0,0,0,3.17,3.23c.63.08,1,.73,1.77.7l-.56-.6-3.28-2.74a7.37,7.37,0,0,1-1.73-3.39c-1.11-3.59-2.61-7-3.65-10.64a8.51,8.51,0,0,0-5.63-5.95c-.8-.17-1.6-.39-2.42-.5a29.49,29.49,0,0,0-6.37.12,13.51,13.51,0,0,1-3,.56,15.67,15.67,0,0,1-7.16-.15l1,.86A23.62,23.62,0,0,0,41.92,43.41Z" transform="translate(82.68 -15.13)"/><path class="cls-1" d="M42.22,39.37l4.21-2.3A7.08,7.08,0,0,1,51,34.93c5.34-1.37,13.71,3.84,13.08,11.22-.15,1.77-.14,3.55-.15,5.33a29.63,29.63,0,0,0,1.75,9.16A2.31,2.31,0,0,0,66.34,62a1.23,1.23,0,0,0-.15-1.26c-.67-4.71-1.13-9.43-.14-14.16a11.2,11.2,0,0,0,.15-2c.22-6.06-3.17-10.46-9.09-11.83-.19,0-.38-.1-.57-.16-.51,0-1-.07-1.52-.13a8.85,8.85,0,0,0-6.85,1.93c-1.92,1.51-3.87,3-5.81,4.46a1.15,1.15,0,0,0-.27.18c-.48.25-1.12.34-1.13,1.11A2.58,2.58,0,0,0,42.22,39.37Z" transform="translate(82.68 -15.13)"/><path class="cls-1" d="M36.15,55.58a19.26,19.26,0,0,1,3.31-.12,22.74,22.74,0,0,1,8.89-.12c1.56.34,3.08.9,4.63,1.3.25.06.67.61.88-.09a8.77,8.77,0,0,1-1.92-1.06,17.42,17.42,0,0,0-8.52-2.23c-1.58,0-3.16.15-4.74.15-2.85,0-5.71-.07-8.26-1.62-3.52-1.74-5.22-4.79-6-8.5-.12.1-.26.16-.27.23-.08,1.95-.34,3.89.73,5.73C27.38,53.61,31.05,55.84,36.15,55.58Z" transform="translate(82.68 -15.13)"/><path class="cls-1" d="M30.61,58.57c.43.19.81,0,1.4-.12a2.92,2.92,0,0,0-1.6-.38c-3.91-1-6.86-3.13-8-7.19-.23-.78-.48-.89-1-.2-1.22,1.52-1.15,2.57.05,4.07C23.79,57.73,26.94,58.75,30.61,58.57Z" transform="translate(82.68 -15.13)"/><path class="cls-1" d="M30.16,51.24h0a17,17,0,0,0,4.94,1.49,49.82,49.82,0,0,0,8,0,18.45,18.45,0,0,1,7.76,1.76c.28.14.54.3.82.46h0l.64.11c-.09-.37-.69-.4-.51-.89a.54.54,0,0,1,.16.14c.35-.24.5.06.7.24A4,4,0,0,1,54.38,56a31.06,31.06,0,0,0,5.93,4.49,30.16,30.16,0,0,0-7.58-8h0a21.36,21.36,0,0,0-9.47-3.44,68.73,68.73,0,0,1-7.78-1.58c-2.95-.81-5.66-2-7.53-4.59-.14-.19-.29-.39-.58-.25.8,3.55,3.47,5.37,6.44,6.9,3.13,1.61,6.54,1.95,10,2.17a20,20,0,0,1,5.58.92A4.73,4.73,0,0,1,51.65,54h0s0,0,0,0c-.22.22-.48.06-.63,0-2.48-1.57-5.27-1.71-8.08-1.79a26.37,26.37,0,0,1-8.76-1.92c-3.81-1.77-7-4.1-7.57-8.68,0-.24,0-.66-.41-.55-.58.16-1.19.4-1.25,1.1a6.44,6.44,0,0,0,.29,2.34A11.69,11.69,0,0,0,30.16,51.24Z" transform="translate(82.68 -15.13)"/><path class="cls-1" d="M21.36,57.44c3.36,3.35,7.53,3.75,11.92,3,2.11-.35,4.17-.94,6.25-1.42a23.64,23.64,0,0,1,16.7,2.14c1.5.78,3.06,1.46,4.59,2.19L65,64.73c.08-.33-.17-.49-.37-.67A13.16,13.16,0,0,1,62.77,63a52.07,52.07,0,0,0-7.58-5c-3.2-1.24-6.42-2.29-9.93-1.6C39.92,57.72,34.61,59.1,29,59.05a10.6,10.6,0,0,1-8.51-4.44c-.19-.24-.24-.8-.73-.58s-.37.67-.29,1.06C19.74,56.16,20.67,56.74,21.36,57.44Z" transform="translate(82.68 -15.13)"/><path class="cls-1" d="M29.66,56.82a16.35,16.35,0,0,0,1.73-.16c.76-.15,1.65.17,2.24-.59a11.09,11.09,0,0,1-6.07-2.59A13,13,0,0,1,23.35,47C21.36,51.61,25.76,56.85,29.66,56.82Z" transform="translate(82.68 -15.13)"/><path class="cls-1" d="M60.63,43.72a20,20,0,0,1,2.12,6.63,4.37,4.37,0,0,0,.26.77c2.39-9.41-2.91-16.27-12-15.77a10,10,0,0,0-2.72,1c-.34.23-1,.25-.82.92C52.31,36.19,58.3,39.1,60.63,43.72Z" transform="translate(82.68 -15.13)"/><path class="cls-1" d="M39.49,55.83a40.88,40.88,0,0,1-4.65.74,15.93,15.93,0,0,1-3.55.63c-.27,0-.77-.25-.79.37a13.18,13.18,0,0,0,5.83.06c2.45-.56,4.92-1,7.38-1.52a12.79,12.79,0,0,1,1.52-.1l.5-.18,1.26,0v-.36a2,2,0,0,0-1.31-.08A39,39,0,0,0,39.49,55.83Z" transform="translate(82.68 -15.13)"/><path class="cls-1" d="M52.59,60.21a23,23,0,0,0-13.65-.45c-3.22.79-6.4,1.75-9.79,1.51a11.47,11.47,0,0,1-6.54-2.13c-.19-.14-.39-.27-.59-.39s-.13,0-.36-.06A7.15,7.15,0,0,0,25,61.37a16.87,16.87,0,0,0,8.62,1c3.3-.36,6.56-1,9.83-1.55a24.51,24.51,0,0,1,13.42,1.9c.07,0,.15,0,.23,0l1.76.51A3.69,3.69,0,0,0,56.66,62C55.31,61.4,54,60.72,52.59,60.21Z" transform="translate(82.68 -15.13)"/><path class="cls-1" d="M60.6,44.93a12.17,12.17,0,0,0-13.07-7.08c-1.66.3-3.05,1.25-4.58,1.85.42.25.85,0,1.27,0a16.33,16.33,0,0,1,6.67.53,8.88,8.88,0,0,1,6.45,6.19c1.24,3.63,2.49,7.24,3.71,10.87a8.6,8.6,0,0,0,2.51,3.95c.9.78,1.8,1.54,2.71,2.31l.18-.31c-2-2.78-2.59-6.09-3.4-9.29C62.28,50.94,61.84,47.84,60.6,44.93Z" transform="translate(82.68 -15.13)"/><path class="cls-1" d="M-23.93,87.24c-4-1.9-7.81-4.15-10.77-7.57l-.9-1.08c-2.23-2.15-3.82-4.81-5.69-7.25a42.92,42.92,0,0,0-7-7.36,15.46,15.46,0,0,0-11.82-3.53,28.67,28.67,0,0,0-9.82,2.85,7.39,7.39,0,0,0,3.2-.45,18.9,18.9,0,0,1,13.09,1.87,17,17,0,0,1,5.95,3.81c2.29,2.41,4.56,4.83,6.84,7.25,3.68,3.91,6.71,8.45,11.38,11.36C-25.85,89.31-22,91-17.7,91a23.5,23.5,0,0,0,8.93-2A4.35,4.35,0,0,0-7,88.16a4,4,0,0,0-1.77.5A21.51,21.51,0,0,1-23.93,87.24Z" transform="translate(82.68 -15.13)"/><path class="cls-1" d="M-11.11,91.35a10.32,10.32,0,0,0,3.43-1.9A14.42,14.42,0,0,0-11.14,91Z" transform="translate(82.68 -15.13)"/><path class="cls-1" d="M-15.44,91.73a6.2,6.2,0,0,1-2.19,0,29.38,29.38,0,0,1-7.78-.42C-33.35,89.77-39,84.85-43.56,78.53a47.34,47.34,0,0,0-4.52-5.93,27.75,27.75,0,0,0-19.59-8.27l-.78.12c-.53.11-.07.27,0,.41l1,.29.5.06A19.51,19.51,0,0,1-57,69.38a21.13,21.13,0,0,1,6.45,6.82,35,35,0,0,0,4.49,6.21,33.1,33.1,0,0,0,13.3,7.9l2.25.72,7.22,1.77a52.17,52.17,0,0,0,6.61-.44,5.24,5.24,0,0,0,1.24-.31l1.55-.33A1.63,1.63,0,0,0-15.44,91.73Z" transform="translate(82.68 -15.13)"/><path class="cls-1" d="M-32.54,90.83c-7.47-2.3-13.65-6.31-17.7-13.2a25.6,25.6,0,0,0-6-7.26,5.21,5.21,0,0,1-1.37-.89A23,23,0,0,0-64.76,66v0h0l.46.53.88.44c4.11,2.41,7.91,5.13,10.18,9.54A35,35,0,0,0-47.85,85c5.74,5.67,12.89,7.7,20.69,8.1a8.49,8.49,0,0,0,1.74,0c-1.54-.81-3.28-.94-4.88-1.52A7.66,7.66,0,0,1-32.54,90.83Z" transform="translate(82.68 -15.13)"/><path class="cls-1" d="M-45.33,75.11c2.08,2.67,3.72,5.67,6.22,8,4.69,4.42,9.89,7.71,16.54,8.09l1.62.13a3.19,3.19,0,0,0-1.83-.63,22.36,22.36,0,0,1-6.46-3,25.34,25.34,0,0,1-7.49-6.48c-3.72-4.32-7.69-8.4-11.61-12.53a21.78,21.78,0,0,0-5.09-3.43h0L-56.58,64c-3.68-1.53-7.42-1.13-11.17-.36l0,.36C-58.4,64-51,67.83-45.33,75.11Z" transform="translate(82.68 -15.13)"/><path class="cls-1" d="M50.89,40.25a.3.3,0,0,0,.06.14Z" transform="translate(82.68 -15.13)"/><path class="cls-1" d="M-35.23,73.51l.15,0A.21.21,0,0,0-35.23,73.51Z" transform="translate(82.68 -15.13)"/><path class="cls-1" d="M47.17,65.59c-4.88-.52-9.58.56-14.23,1.83A14.54,14.54,0,0,1,21.64,66a10.67,10.67,0,0,0-1-.45c.1.22.17.38.23.5a.31.31,0,0,1,.09.2c3.22,3.29,7.33,3.59,11.57,3.38a45.17,45.17,0,0,0,12-2.52,20.8,20.8,0,0,1,3.63-1C48.2,65.22,47.52,65.63,47.17,65.59Z" transform="translate(82.68 -15.13)"/><path class="cls-1" d="M-4.39,86.33a2.79,2.79,0,0,0-1.53.36h-.34a1.62,1.62,0,0,1-1,.19h0c-.62.09-1.24.22-1.86.25-5.18.28-10-1.3-14.68-3.17-5.13-2-8.31-6.2-11.42-10.45a50.86,50.86,0,0,1-3.68-5.63c-3.82-6.19-9.24-9.53-16.62-9.53a28.89,28.89,0,0,0-7.12.9,12.75,12.75,0,0,0-3.76,2l2.06-.57c6.54-1.87,12.4-.78,17.55,3.87a50.64,50.64,0,0,1,7.11,8.09,75.13,75.13,0,0,0,5.21,6.6h0a36.43,36.43,0,0,0,8.56,6.46,22.09,22.09,0,0,0,20,1.43l1.5-.39C-4.34,86.57-3.85,86.34-4.39,86.33Z" transform="translate(82.68 -15.13)"/><path class="cls-1" d="M-1.28,84.47a13.89,13.89,0,0,1-6.39-.78l-2.47-1.19h0l-.15-.07.13.13.2.2a6.87,6.87,0,0,0,2.69,1.56l1.07.51A12.69,12.69,0,0,0,0,84.58C-.39,84.16-.87,84.44-1.28,84.47Z" transform="translate(82.68 -15.13)"/><path class="cls-1" d="M57.34,32.3a12.47,12.47,0,0,1,7.18,4.47c2.4,2.75,2.52,6,2.21,9.39-.12,1.33-.31,2.67-.49,4-.55,4,.31,7.83.84,11.72a1,1,0,0,0,.54.94,1.65,1.65,0,0,0-.11-1.12A33.2,33.2,0,0,1,69.3,50.17,18.93,18.93,0,0,0,69.36,39a7.85,7.85,0,0,0-4.69-5.32,17.41,17.41,0,0,0-7.54-1.75c-.41-.33-.93-.13-1.37-.31h0c-.73.12-1.49-.19-2.38.21,1.12.29,2.16.08,3.1.45Z" transform="translate(82.68 -15.13)"/><path class="cls-1" d="M85.73,104.33c-.55-5.25-2.49-9.73-7-12.86-1.29-.9-2.52-1.88-3.78-2.82-.74.44.08.64.2.79,1.4,1.65,2.86,3.27,4.29,4.9a22.74,22.74,0,0,1,5.62,14c0,.59.11,1.18.17,1.77a5.21,5.21,0,0,0,.31,2.62,7.6,7.6,0,0,0,.14-2.81c0-1.64.07-3.28.1-4.92C85.79,104.8,85.76,104.56,85.73,104.33Z" transform="translate(82.68 -15.13)"/><path class="cls-1" d="M57.77,78c-1.23.28-2.45.59-3.67.89a5.11,5.11,0,0,0,2.33.15c3.11,0,6.23-.59,9.33.15h0C72.14,80,78,81.92,82.52,86.87A17.16,17.16,0,0,1,86,92.76L88.17,99a17.49,17.49,0,0,0-1.51-8.18C81.77,80.48,68.24,75.59,57.77,78Z" transform="translate(82.68 -15.13)"/><path class="cls-1" d="M60.07,79.68c8.44.63,15.74,3.67,21.46,10.06a34.11,34.11,0,0,1,5,7.16c0,.57.48,1,.65,1.48.38-.59,0-1-.3-1.5-1.52-5.43-3.89-10.27-9-13.3a31.21,31.21,0,0,0-10.33-3.71l-1.74-.34c-1.91-.08-3.82-.5-5.74-.21a3.43,3.43,0,0,0-2.18.32A6.65,6.65,0,0,0,60.07,79.68Z" transform="translate(82.68 -15.13)"/><path class="cls-1" d="M76,85.53a30.21,30.21,0,0,0-15.61-5.31,13.1,13.1,0,0,0-1.4,0c-.58-.39-1.25-.12-1.86-.25L57,80h0l-4.28,0h0c.33.62.9.22,1.35.31a10.4,10.4,0,0,0,1.37.1l3.74.41a29.93,29.93,0,0,1,5.51,1.5,42.67,42.67,0,0,1,6.73,2c.11.16.33.27.21.52-1.59-.52-3.17-1-4.77-1.54-.18-.06-.74-.48-.39.28l1.6,1h0c1.73.33,3.13,1.37,4.64,2.15a51.62,51.62,0,0,1,5.42,3.62c1.23,1.14,2.82,1.82,3.95,3.09A22.52,22.52,0,0,1,85.15,99a13.38,13.38,0,0,1,1.07,6l-.06,5.57c.61-.08.47-.63.56-1a34.36,34.36,0,0,0,.71-9A31,31,0,0,0,76,85.53Z" transform="translate(82.68 -15.13)"/><path class="cls-1" d="M79.61,111.61A12.47,12.47,0,0,0,79,108a60.25,60.25,0,0,0-3.72-9.22A39.45,39.45,0,0,0,62.8,87c-2.21-1.31-4.43-2.59-6.64-3.88l-1-.35c1.32,1.66,3.16,2.68,4.66,4.1.47-.15.72.25,1,.45a86.9,86.9,0,0,1,9.6,7.74A16.06,16.06,0,0,1,75.06,102a32.2,32.2,0,0,1,1.73,6.77c.53,4.19,1.21,8.38.49,12.62A14.22,14.22,0,0,1,75,128.3c-.15.39-.56.66-.56,1.23a13.74,13.74,0,0,0,3-1.94,4.51,4.51,0,0,1,.86-1.38.59.59,0,0,1,.22-.53,22.68,22.68,0,0,0,1.26-7.56C79.84,116,79.67,113.78,79.61,111.61Z" transform="translate(82.68 -15.13)"/><path class="cls-1" d="M83.81,109.19A32.92,32.92,0,0,0,80,98.76l.48.13-.09-.18.09.18a28.22,28.22,0,0,1,3.63,9.66c.15.62,0,1.35.63,1.8a3.72,3.72,0,0,0-.19-1.65c-.33-3.63-.83-7.22-2.89-10.37A59.21,59.21,0,0,0,71.6,86.64h0l-2.53-1.26-.12,0c-.07.23.12.36.27.51,1.81,1.84,3.63,3.68,5.44,5.53l-.34,0,.1.12a.32.32,0,0,1-.1-.12c-2.66-2.25-4.87-5-7.78-7a24.33,24.33,0,0,0-11.07-3.79,14.78,14.78,0,0,1-3.05-.11A3.6,3.6,0,0,1,51,80l-1.36.16,0,.2,3,.75c2.42,1.11,5.07,1.5,7.57,2.39A33.14,33.14,0,0,1,76.79,96.3c2.1,3.07,4.2,6.15,5.21,9.79.12.42.21.84.31,1.26a19.53,19.53,0,0,1-.44,14.21c2.39-3.21,4.3-6.51,2.39-10.65C84.11,110.33,83.94,109.77,83.81,109.19Z" transform="translate(82.68 -15.13)"/><path class="cls-1" d="M82.35,109.55c-.2-.72-.3-1.46-.44-2.2A40,40,0,0,0,68.64,88.54a32.41,32.41,0,0,0-10.28-5.05c-.36-.44-.89-.44-1.38-.57.32.66,1,.82,1.59,1a4,4,0,0,0,.67.49,46.69,46.69,0,0,1,8.81,5.69,32.41,32.41,0,0,1,7.77,8.81,50.5,50.5,0,0,1,3.6,8.59,12.41,12.41,0,0,1,.76,3.81c.09,1.73.22,3.46.26,5.19.07,3,0,6.07-1.33,8.91,1-.25,1.12-1.15,1.42-1.85.59-1.33,1-2.73,1.51-4.11A16.58,16.58,0,0,0,82.35,109.55Z" transform="translate(82.68 -15.13)"/><path class="cls-1" d="M53.93,72.26a46.2,46.2,0,0,1-15.29,5,.18.18,0,0,1-.29.09c.09.58.59.39.9.42a14.06,14.06,0,0,0,7.82-1.4c3.23-1.56,6.52-3,9.83-4.34,2.29-.94,4.58-2,7.15-1.83a26.82,26.82,0,0,1,7.22.82l-1-.83a7.85,7.85,0,0,0-2.64-1.26,16.9,16.9,0,0,0-6.84.91C58.52,70.63,56.22,71.45,53.93,72.26Z" transform="translate(82.68 -15.13)"/><path class="cls-1" d="M55,71.24c.61.26,1.1-.15,1.61-.32,2.29-.74,4.46-1.83,6.85-2.22.86-.14,1.73-.16,2.59-.26s0-.3,0-.46H66C61.73,66.9,58.25,68.62,55,71.24Z" transform="translate(82.68 -15.13)"/><path class="cls-1" d="M63.61,75.12c-4.27.39-8.25,1.82-12.22,3.28a2.87,2.87,0,0,0-1.75.73,3.55,3.55,0,0,0,1.79-.29c2.77-.44,5.44-1.38,8.24-1.72a28.24,28.24,0,0,1,21,5.58c.28.21.5.52,1,.51a6.1,6.1,0,0,0-1.46-2C75.72,76.35,70.11,74.54,63.61,75.12Z" transform="translate(82.68 -15.13)"/><path class="cls-1" d="M59.44,71.52h0a44.2,44.2,0,0,0-5.54,2.23c-2.93,1.31-5.85,2.63-8.78,3.93a2.56,2.56,0,0,1-.69.1h0c-.48,0-1,0-1.3.48l1.33-.11c2.64-.19,4.87-1.46,7.12-2.69l2.17-1.19h0c1.89-.81,3.76-1.71,5.72-2.36a23.85,23.85,0,0,1,11.45.35c1,.33,2,.81,3.17,1.28A4,4,0,0,0,72.27,72a28.17,28.17,0,0,0-8.19-1.42A11.94,11.94,0,0,0,59.44,71.52Z" transform="translate(82.68 -15.13)"/><path class="cls-1" d="M70.3,70.19l.27.11A.81.81,0,0,0,70.3,70.19Z" transform="translate(82.68 -15.13)"/><path class="cls-1" d="M22.26,74.69a16.09,16.09,0,0,0,11.19-1c-3.93.3-7.76,0-11.19-2a11.45,11.45,0,0,1-5.94-9.77,6.58,6.58,0,0,0-1,3.41A9.21,9.21,0,0,0,22.26,74.69Z" transform="translate(82.68 -15.13)"/><path class="cls-1" d="M11.51,69.7a9.49,9.49,0,0,0,6.63,5.78,12,12,0,0,0,4.49.23c-6.08-2-9.49-7.2-7.41-13.65C11.64,63.89,10.18,66.71,11.51,69.7Z" transform="translate(82.68 -15.13)"/><path class="cls-1" d="M74.52,127.84c.59,0,.6-.48.79-.82,1-1.74,1.11-3.71,1.54-5.6a49.59,49.59,0,0,0-2-18.4,17.16,17.16,0,0,0-5.48-8.3c-2.47-2-4.8-4.24-7.42-6.11-.61-.43-1.38-.6-1.87-1.2.07,1,1,1.4,1.5,2.11s1.3,1.32,1.76,2.14h0c1.91,2.13,4.38,3.68,6.22,5.84,3.84,4.46,5.24,10,6.42,15.58a18.46,18.46,0,0,1,0,6.71A39.1,39.1,0,0,1,74.52,127.84Z" transform="translate(82.68 -15.13)"/><path class="cls-1" d="M8.41,69.88a9.9,9.9,0,0,0,8.38,8,29.66,29.66,0,0,0,13.86-1.77,5.07,5.07,0,0,0,1.94-1,3.89,3.89,0,0,0-1.81.43,34.8,34.8,0,0,1-10.71.93c-4.09-.2-7-2.36-8.92-5.81a6,6,0,0,1,.2-6.35A4.93,4.93,0,0,0,8.41,69.88Z" transform="translate(82.68 -15.13)"/><path class="cls-1" d="M30.29,73.05a22,22,0,0,0,11.38-2.84l5-2.72a2.64,2.64,0,0,0-1.95.24,44.23,44.23,0,0,1-14.77,2.58c-6.36-.11-10.37-2.88-12.62-8.83-.41,1.15.11,3.78,1,5.35C21.05,71.37,25.33,72.93,30.29,73.05Z" transform="translate(82.68 -15.13)"/><path class="cls-1" d="M32.68,67c1.56-.44,3.14-.81,4.73-1.15a30.69,30.69,0,0,1,11.77-.5,23.57,23.57,0,0,0,4.34-.65c.07-.4-.23-.33-.44-.34-4.74-.19-9.46-.74-14.21-.15-2.45.3-4.75,1.21-7.17,1.62-4.13.7-8.06.31-11.35-2.62a24.74,24.74,0,0,1-2-2.31c-.41,1.1.47,1.87.72,2.8C23.11,66.77,27.52,68.39,32.68,67Z" transform="translate(82.68 -15.13)"/><path class="cls-1" d="M30.1,65.54a12.89,12.89,0,0,0,3.36-.7,37.6,37.6,0,0,1,14-1.31L55,64a8.37,8.37,0,0,1,3.19.18h0l.53-.08a3.12,3.12,0,0,0,1.4,0,2.53,2.53,0,0,0-1.44-.45C56.78,63.11,54.9,62.55,53,62c-4.84-1.54-9.61-.68-14.42.22a33.69,33.69,0,0,1-9.07.84c-3.93-.34-7.31-1.66-9.28-5.41-.37-.7-.84-1.11-1.45-.18-.7,1.62-.17,3,.86,4.26C22.37,65.08,26.09,65.71,30.1,65.54Z" transform="translate(82.68 -15.13)"/><path class="cls-1" d="M75.52,113.11a54.57,54.57,0,0,0-3.06-9.93,15.18,15.18,0,0,0-4.76-6.8,2.73,2.73,0,0,0-.23-.25C66.41,95,65.14,94,64,93l-.49-.48c-.06-.46-.52-.62-.73-1h0C61.4,90,60,88.41,58.54,86.69c.21.79.83,1.12.92,1.73a27.36,27.36,0,0,0,3.22,3.82,85.3,85.3,0,0,1,5.66,7.2,37.5,37.5,0,0,1,6.22,15.92h0a35.63,35.63,0,0,1,.24,5.56,6.53,6.53,0,0,0-.16,2.11c0,2.84-1.21,5.33-2.39,7.82h0c2.56-2.91,2.67-6.57,3-10.14C75.51,118.18,76,115.66,75.52,113.11Z" transform="translate(82.68 -15.13)"/><path class="cls-1" d="M35.9,74.65c-.25-.24-.4.18-.63.09h0L33.52,76h0a30,30,0,0,1-9.85,4.54c-3.88.89-7.75,1.08-11.42-.9A10.94,10.94,0,0,1,7.6,75.51a16.07,16.07,0,0,1-2.08-4.72l-.18-1.72a2.71,2.71,0,0,0-.27,1.76,11.37,11.37,0,0,0,3.66,8c1,1,2.16,2,3.27,2.9a9,9,0,0,0,8.11,1.94A25.19,25.19,0,0,0,31.82,78c.21-.61,1-.54,1.26-1.06l.5-.24,2.32-2Z" transform="translate(82.68 -15.13)"/><path class="cls-1" d="M25.6,82.38c-2.55,1-5.05,2.06-7.88,1.9a9.9,9.9,0,0,1-6-2.19c-2.25-1.86-4.57-3.66-6.13-6.27C5.73,76.89,5.87,78,6,79H6a14.55,14.55,0,0,0,2.65,4.49c3.44,3.23,7.35,3.65,11.62,1.94a36.17,36.17,0,0,0,5.18-2.57,6.5,6.5,0,0,0,1.8-1l-.05-.36Z" transform="translate(82.68 -15.13)"/><path class="cls-1" d="M11.29,78.62l.53.37a21.52,21.52,0,0,0,3.06,1.24c5.39,1.26,10.33,0,15.05-2.59.89-.44,1.92-.66,2.39-1.69-.76.38-1.51.77-2.26,1.16-4.23,1-8.48,1.94-12.88,1.44a10.39,10.39,0,0,1-8.83-6.63c-1.09-2.48-1.06-4.84.88-7-1.64,0-2.74,1.23-3.36,3.63A13.75,13.75,0,0,0,9.3,76.92Z" transform="translate(82.68 -15.13)"/><path class="cls-1" d="M7.65,83.26h0a19.49,19.49,0,0,0-6,1.5c0,.17.11.19.23.17a25.89,25.89,0,0,1,7.56.21A9,9,0,0,0,7.65,83.26Z" transform="translate(82.68 -15.13)"/><path class="cls-1" d="M121.76,41.37c-.81,1.11-1.62,2.24-2.39,3.39A55.63,55.63,0,0,1,114,51.5c-3,3.29-7,4.4-11.24,5-2.5.36-5.06.29-7.52,1l-3.65.62a22.48,22.48,0,0,0-6.82,3.18c0,.11-.41.52.12.3C85.93,61.14,87.21,61,88,60c.09-.12.35-.12.53-.18A34.14,34.14,0,0,1,95.12,58c2.88-.15,5.76-.47,8.64-.43,4.93.07,8.93-2,12.67-4.9A28.52,28.52,0,0,0,124,43.88a2.05,2.05,0,0,0-1-3A1,1,0,0,0,121.76,41.37Z" transform="translate(82.68 -15.13)"/><path class="cls-1" d="M44.16,74.44l-4.47,1.92a12.84,12.84,0,0,0,4.07-.63,29.92,29.92,0,0,0,12.32-6h0a17,17,0,0,1,4.72-2.28,12.22,12.22,0,0,1,4.55-.16l0-.33a9.37,9.37,0,0,0-2.57-.4A13.86,13.86,0,0,0,56.39,69l-1.24.69c-3.73,2-7.38,4.24-11.41,5.66-.22-.49.34-.37.47-.59l3-1.33c4.77-2.11,9-5.4,14-7,0,0,0-.13,0-.21-4-.3-7.18,1.54-10.16,3.89A45.83,45.83,0,0,1,44.16,74.44Z" transform="translate(82.68 -15.13)"/><path class="cls-1" d="M111.33,56.61a16.32,16.32,0,0,1-6.19,1.46c-2.06.18-4.12.42-6.11.65l-.23,0-2,.22c.35.26,1,0,1.6,0,4.06,0,8.15.44,12.15-.63A26.59,26.59,0,0,0,124.53,49a7.5,7.5,0,0,0,1.35-4.79v0c-.24-.29-.19-.9-.64-.91s-.57.51-.75.84A30.18,30.18,0,0,1,111.33,56.61Z" transform="translate(82.68 -15.13)"/><path class="cls-1" d="M118.8,39.77a39.16,39.16,0,0,1-8.85,10,26.48,26.48,0,0,1-8.87,4.62c-1.82.53-3.64,1-5.46,1.54-1,.71-2.27.57-3.16,1.41A4.15,4.15,0,0,0,94.85,57a32.72,32.72,0,0,1,5.38-.76,32.28,32.28,0,0,0,7.67-1.45c3-.93,5.2-3.06,7.22-5.37a64.84,64.84,0,0,0,5-6.74,10.45,10.45,0,0,1,1.53-1.95c.51-.46.52-.7.08-1.2C120.33,37.88,120,37.83,118.8,39.77Z" transform="translate(82.68 -15.13)"/><path class="cls-1" d="M96.42,64.16a26.81,26.81,0,0,0,6.84,1.13l2,.1c-.6-.73-1.44-.51-2.21-.58-2-.77-4-1.53-6-2.31a15,15,0,0,0-8.27-.59c-.23,0-.82-.12-.6.52C91.06,62.33,93.73,63.28,96.42,64.16Z" transform="translate(82.68 -15.13)"/><path class="cls-1" d="M95.18,54.92c-.08.25-.57.35-.3.75l.87-.26A10.25,10.25,0,0,1,99,54.32c6.45-1.41,11.47-5,15.78-9.9,1.76-2,2.91-4.42,4.75-6.34.27-.27.18-.48,0-.71s-.34-.44-.51-.65c-1.17-1.46-1.55-1.49-2.39.11-3.35,6.39-8.61,10.71-14.93,13.89a53.7,53.7,0,0,0-6.18,3.92Z" transform="translate(82.68 -15.13)"/><path class="cls-1" d="M112.59,58.36c-3.58,1.45-7.45,1.31-11.25,1.19-1.94,0-3.88-.06-5.81-.13-1.35-.05-2.64.43-4,.44a9.78,9.78,0,0,0-1.85.37c.22.68.76-.07,1.06.24l.82-.19c3.25-.43,6.34.38,9.44,1.19l1.39.31a20.22,20.22,0,0,0,24-14.18c-.12-.26-.18-.39-.39,0C123,53,118.09,56.13,112.59,58.36Z" transform="translate(82.68 -15.13)"/><path class="cls-1" d="M107.62,62.89a30.23,30.23,0,0,1-7.38-1A20.94,20.94,0,0,0,94,60.78a5.34,5.34,0,0,0-2.18,0l0,.32,2.38.13a16.89,16.89,0,0,1,4,1.22,24.61,24.61,0,0,0,9.92,2.5,36.52,36.52,0,0,0,9.9-2.75c5.63-2.38,8.49-7,9.54-12.81a3.43,3.43,0,0,0-.36-2.73l-.19.15a12.21,12.21,0,0,1-.58,2.53C124,56,116.44,62.91,107.62,62.89Z" transform="translate(82.68 -15.13)"/><path class="cls-1" d="M101.69,29.79a13.48,13.48,0,0,0-1.16,6.56,21.84,21.84,0,0,1-1.72,9.18l-.6,1.62A14.67,14.67,0,0,0,102.4,39a39.18,39.18,0,0,0,.43-5.3,13,13,0,0,1,.46-3.28,3.36,3.36,0,0,1,1.82-2.38C103.13,27.53,102.49,28.81,101.69,29.79Z" transform="translate(82.68 -15.13)"/><path class="cls-1" d="M95.48,49.94a8.64,8.64,0,0,0-.36.88c1.58-1.47,2.2-3.35,3.15-5a27.67,27.67,0,0,0,1.8-10.51A9,9,0,0,1,101.12,30,4.41,4.41,0,0,1,103,27.67c.75-.42.43-.81,0-1.19a1.8,1.8,0,0,0-2.91.78,24.23,24.23,0,0,0-.68,6.57A31.06,31.06,0,0,1,95.48,49.94Z" transform="translate(82.68 -15.13)"/><path class="cls-1" d="M103.8,30.79a18.62,18.62,0,0,0-.47,4.94c0,5.13-2.13,9.4-5.47,13.16-1,1.12-1.79,2.57-3,3.32-2.4,1.47-4.18,3.72-6.68,5-.62.33-1.2.74-1.8,1.11-.58.64-1.41,1-1.79,1.88,2.92-1.92,6.18-3.29,8.9-5.54A19.25,19.25,0,0,1,95.15,53a1.57,1.57,0,0,1,.26-.19v-.09h.09c1.85-2.16,3.71-4.32,5.54-6.49a22.41,22.41,0,0,0,5.71-13.74A5.55,5.55,0,0,1,108,28.69C105.4,28.24,104.59,28.05,103.8,30.79Z" transform="translate(82.68 -15.13)"/><path class="cls-1" d="M107.11,34.69c1-1.14,1.5-2.2,2.31-3,.41-.43,1.33-.49,1.22-1.23s-.93-.7-1.52-.88c-.39-.11-.19-.42-.19-.67-1,.05-1.21.86-1.34,1.55C107.35,31.71,107.28,33,107.11,34.69Z" transform="translate(82.68 -15.13)"/><path class="cls-1" d="M108.93,28.84v0h0Z" transform="translate(82.68 -15.13)"/><path class="cls-1" d="M109.61,32.36a10,10,0,0,0-2.35,3.82c-1.42,5.26-4.71,9.33-8.23,13.27-.6.67-1.17,1.37-1.76,2l.1.12c1.49-1.26,2.94-2.57,4.47-3.78a24.71,24.71,0,0,0,8.54-12.27,6,6,0,0,1,2-3.41c.17-.12.31-.25.19-.48a.89.89,0,0,0-.87-.51A2.87,2.87,0,0,0,109.61,32.36Z" transform="translate(82.68 -15.13)"/><path class="cls-1" d="M121.68,72.24a4.55,4.55,0,0,0,1.72-1.11l0,0,.15-.13a4,4,0,0,0-1.77.72c-5.14,2.46-10.72,2.8-16.25,3.36a15.39,15.39,0,0,1-4.83-.3,50.4,50.4,0,0,1-12.36-4.37,46.66,46.66,0,0,0-8.46-3.34c-.46-.13-1-.42-1.39.14l1,.59c.44-.12.74.2,1.07.37C84,70,87.44,71.77,90.83,73.64a18.63,18.63,0,0,0,11,2.5c6.25-.61,12.5-1.2,18.52-3.16C120.81,72.73,121.24,72.48,121.68,72.24Z" transform="translate(82.68 -15.13)"/><path class="cls-1" d="M93.17,75.29c-2.28-1.07-4.5-2.27-6.74-3.43-1.91-1-3.8-2-6-3.18.51.62.83,1,1.13,1.39l.1.11,3.69,3.14,0,0a31.89,31.89,0,0,0,6.35,3.23c3.6,1.34,7.26,1.19,11,.69l1.63-.45c1.42-.16,1.42-.16,1.81-.7h0l-1.84.31h0C100.51,76.85,96.74,77,93.17,75.29Z" transform="translate(82.68 -15.13)"/><path class="cls-1" d="M127.91,70.79c-3,4.72-7.43,7.67-12.51,9.75a45.07,45.07,0,0,1-7.11,2.6c-7.36,1.68-14.12.66-20.12-4.17-.08.1-.58-.13-.2.33a15.33,15.33,0,0,0,13.51,5.76c3.35-.26,6.66-.81,10-1.26a34.91,34.91,0,0,0,15.86-10.56,7.2,7.2,0,0,0,1.77-4.18A5.75,5.75,0,0,0,127.91,70.79Z" transform="translate(82.68 -15.13)"/><path class="cls-1" d="M127.39,52.54a16.28,16.28,0,0,1-10.26,10.71c-4.47,1.62-9,3-13.86,2.59-1.51-.12-3-.27-4.55-.41-2.38-.66-4.68-1.62-7.11-2.14A8.72,8.72,0,0,0,88.92,63,3.4,3.4,0,0,0,87.05,63c.55.52,1.25.36,1.91.42h0l10,2.55a3.31,3.31,0,0,0,1.57.38c4.77.77,9.51,1.08,14.21-.48C119.94,64.07,125,62.15,128,57a7.2,7.2,0,0,0-.17-5.09C127.53,52,127.48,52.27,127.39,52.54Z" transform="translate(82.68 -15.13)"/><path class="cls-1" d="M78.65,69.55h0a66.72,66.72,0,0,0,7.62,5.61c4.52,2.72,9.21,4.47,14.67,4.1,5.68-.39,11.4-.41,16.75-2.7A21.22,21.22,0,0,0,126,70.48c.32-.39.76-.71.76-1.29l-2,1.57a13.66,13.66,0,0,1-4.35,2.63,3.16,3.16,0,0,1-1.51.63c-3.41,1-6.9,1.59-10.38,2.26a52.11,52.11,0,0,1-5.79,1.31,16.9,16.9,0,0,1-3.87.5,20.56,20.56,0,0,1-12.72-3.76,40.1,40.1,0,0,1-6.53-5.52l-.18-.14c-1.42-.75-2.67-1.87-4.39-2A25.42,25.42,0,0,1,78.65,69.55Z" transform="translate(82.68 -15.13)"/><path class="cls-1" d="M104.47,87.15c0,.15,0,.29,0,.43,1.57-.12,3.15-.21,4.72-.37A20.77,20.77,0,0,0,120.94,82c2.86-2.5,5.93-4.78,7.46-8.44.15-.35.42-.67.33-1.09C122.63,80.62,113.61,84,104.47,87.15Z" transform="translate(82.68 -15.13)"/><path class="cls-1" d="M97.39,66.06a66.42,66.42,0,0,0-11.3-2.63c-.38.2-.87,0-1.33.43a61.13,61.13,0,0,1,6.85,2.83c8.32,3.69,16.64,2.76,24.94,0a24,24,0,0,0,7.71-4,12.13,12.13,0,0,0,3.23-3.5A9.31,9.31,0,0,0,125,61.34v0h0A31.22,31.22,0,0,1,97.39,66.06Z" transform="translate(82.68 -15.13)"/><path class="cls-1" d="M121.82,64.94a39.79,39.79,0,0,1-23.18,4.44,25.8,25.8,0,0,1-8.41-2.74c-.67,0-.37.24-.08.44a18.37,18.37,0,0,0,8.36,3.44A47.06,47.06,0,0,0,118.9,68.6a16.35,16.35,0,0,0,10.43-10.15,4.42,4.42,0,0,0-.16-2.34,28.89,28.89,0,0,1-1.31,3.31A14.14,14.14,0,0,1,121.82,64.94Z" transform="translate(82.68 -15.13)"/><path class="cls-1" d="M109,79.25a77.57,77.57,0,0,1-13.37.47c-.46-.32-1-.18-1.53-.39.37.72,1.09.7,1.75.81a21.16,21.16,0,0,0,9.81.62c4-.76,8-1.8,12.08-2.25,5.13-1.89,8.5-5.63,11.18-10.49a1.63,1.63,0,0,0-.94.78C123.4,75.45,116.76,78.42,109,79.25Z" transform="translate(82.68 -15.13)"/><path class="cls-1" d="M96.7,82.64a24.3,24.3,0,0,0,15.44-1.34c1.58-.62,3.14-1.31,4.7-2-.19-.42-.52-.17-.77-.13a49.85,49.85,0,0,0-5.58,1c-5.12,1.33-10.24,1.92-15.38.16a6.22,6.22,0,0,1-3.26-1.78,54.37,54.37,0,0,1-10-5.61,3.46,3.46,0,0,0,.43.58C86.69,77.24,91,81.15,96.7,82.64Z" transform="translate(82.68 -15.13)"/><path class="cls-1" d="M115.48,70.1a54.93,54.93,0,0,1-15.56,1.05,18.58,18.58,0,0,1-9.29-3.21,18.71,18.71,0,0,0-7.82-3.22c-.64.17-1.41-.31-2,.51,3.89.6,7.29,2.35,10.62,4.19,4.16,2.3,8.63,2.92,13.26,2.94a51,51,0,0,0,14.38-2,21.06,21.06,0,0,0,8.57-5.11,6.35,6.35,0,0,0,2.23-5.59c-.17-.13-.32-.22-.45,0C126.63,65.62,121.76,68.82,115.48,70.1Z" transform="translate(82.68 -15.13)"/><path class="cls-1" d="M92.34,33.87a55,55,0,0,0-.24-6.69A5.16,5.16,0,0,0,90.9,31c0,1.82.17,3.63.31,5.45a17.62,17.62,0,0,1-.87,7.24A39.63,39.63,0,0,1,76.61,62.81a10.72,10.72,0,0,0-2.44,1.77,16.07,16.07,0,0,0,7.22-4.06C89.15,53.34,92.59,44.35,92.34,33.87Z" transform="translate(82.68 -15.13)"/><path class="cls-1" d="M-53.59,19.89A22.05,22.05,0,0,1-50,26.53,20.59,20.59,0,0,0-42.9,36a1.68,1.68,0,0,0,1.27.37c-3.74-2.93-5.48-7.06-6.93-11.37a12.92,12.92,0,0,0-5.14-7.19,7.23,7.23,0,0,0-3.49-1.32A27.26,27.26,0,0,1-53.59,19.89Z" transform="translate(82.68 -15.13)"/><path class="cls-1" d="M-54.21,24A68.65,68.65,0,0,0-50,30.73c1.06,1.2,2.11,2.41,3.17,3.62a3.88,3.88,0,0,0,1.63.57c.16-.2,0-.3-.09-.4a17.82,17.82,0,0,1-5.12-7.42,23.31,23.31,0,0,0-5.1-8.46,9,9,0,0,0-8.05-2.74c1.09.53,2.1,1,3.05,1.49A17,17,0,0,1-54.21,24Z" transform="translate(82.68 -15.13)"/><path class="cls-1" d="M-43.27,41.37a17.62,17.62,0,0,1,3.41-.88,13,13,0,0,1,9.35,1.87l0,0c1,.45,1.43,1.42,2.16,2.12a4.55,4.55,0,0,0,1,1.75,2.73,2.73,0,0,0-.51-1.61,11.59,11.59,0,0,0-4.93-5.47,20.9,20.9,0,0,0-2.63-1l-2.85,0A19.68,19.68,0,0,0-44,41.37C-43.79,41.76-43.52,41.46-43.27,41.37Z" transform="translate(82.68 -15.13)"/><path class="cls-1" d="M-49.95,32.69l.32.22c.48.15.72.78,1.45.6-.77-1.14-1.93-1.9-2.54-3.09a34.93,34.93,0,0,1-3.71-5.61c-2-3.41-4.41-6.34-8.16-7.92a11.72,11.72,0,0,0-4.36-1c0,.72.66.56,1,.68a12.65,12.65,0,0,1,7.52,6,36.56,36.56,0,0,0,6.78,8.64h0l1.86,1.59A.81.81,0,0,0-49.95,32.69Z" transform="translate(82.68 -15.13)"/><path class="cls-1" d="M-43.16,34.05A5.5,5.5,0,0,0-41,36a3.89,3.89,0,0,0-1.38-1.63,10.12,10.12,0,0,1-2-4.94,16.12,16.12,0,0,0-2.5-7.45,9.86,9.86,0,0,0-4.9-3.59c2.55,2.43,3.55,5.64,4.67,8.79A18.84,18.84,0,0,0-43.16,34.05Z" transform="translate(82.68 -15.13)"/><path class="cls-1" d="M-67.66,54.69a75.82,75.82,0,0,1,2.79-8.94,15.14,15.14,0,0,1,2.7-4.43,13.43,13.43,0,0,1,4.83-4.7,20,20,0,0,1,3.67-1.84l1.5-.31c0-.11,0-.22,0-.34l-1.49.28a12,12,0,0,0-10,6.26c-1.3,2.16-2.66,4.29-4,6.43h0c-1,2.34-1.85,4.71-2.59,7.13a23.79,23.79,0,0,1-6.08,9.89,21.38,21.38,0,0,0-1.8,2,15.78,15.78,0,0,0,5.49-3.29A16.33,16.33,0,0,0-67.66,54.69Z" transform="translate(82.68 -15.13)"/><path class="cls-1" d="M-41.94,93a17.29,17.29,0,0,1-7.12-2.22c-3.63-1.79-6.18-4.69-8.44-7.94-1.9-2.75-3-5.88-4.29-8.9a7.77,7.77,0,0,0-.66-1.82h0l-.37,0,.6,1.81a63.7,63.7,0,0,0,2.7,7.92A21.39,21.39,0,0,0-49,92.64a22,22,0,0,0,12.85,2.27c1.3-.15,2.6-.27,3.9-.52-2.31-.72-4.71-.7-7-1.14C-40.15,93.18-41,93.12-41.94,93Z" transform="translate(82.68 -15.13)"/><path class="cls-1" d="M-49.1,90.42c.25.1.52.18.76.3a20.38,20.38,0,0,0,7.26,1.94c.2,0,.68.3.39-.32-4.48-1.7-9-3.4-12-7.42a57,57,0,0,1-5-8.3,29.91,29.91,0,0,0-5.15-7.34c-.08.11-.17.18-.16.21,1.52,3.6,2.86,7.29,4.6,10.78A24,24,0,0,0-49.1,90.42Z" transform="translate(82.68 -15.13)"/><path class="cls-1" d="M-59.24,54.41c3.18-2.72,6-5.81,9.1-8.63a5.9,5.9,0,0,1,1.62-1.36,33.56,33.56,0,0,1,9-6.24c.23-.1.67,0,.59-.5-3-.59-5.74-1.86-8.61-2.76-5.79-1-10,1.82-13.72,5.78-3.35,4-4.4,9-5.73,13.77a17.24,17.24,0,0,1-5.24,8.68,7.21,7.21,0,0,0-.47.55,5.29,5.29,0,0,0,2.42-1.13c2-1.19,4-2.51,6-3.7S-60.94,55.87-59.24,54.41Z" transform="translate(82.68 -15.13)"/><path class="cls-1" d="M-70.65,53.49a32.39,32.39,0,0,1,2.28-6h0A58.1,58.1,0,0,1-63.15,39a10.91,10.91,0,0,1,7.84-4.81q1.88-.27,3.75-.51c.34,0,.43-.12.3-.27a1,1,0,0,0-.18-.15,20.84,20.84,0,0,0-5.9-.15,10.15,10.15,0,0,0-7,4.45c-.4.58-.86,1.13-1.29,1.69l0,0c-5.84,8.58-9.12,18.54-14.63,27.33.51,0,.88-.38,1.22-.69C-75.24,62.44-72,58.59-70.65,53.49Z" transform="translate(82.68 -15.13)"/><path class="cls-1" d="M-38.65,40.79a31.73,31.73,0,0,0-6.17,1.49l-1.45.92h0A9.77,9.77,0,0,0-48,44.47a2.64,2.64,0,0,0,1.5-.61c5.14-2.25,10.2-2.22,15.13.63,2.51,1.45,3.55,3.93,4.46,6.49.62-.38.22-.92.13-1.31a14.74,14.74,0,0,0-2.5-5.79A11.72,11.72,0,0,0-38.65,40.79Z" transform="translate(82.68 -15.13)"/><path class="cls-1" d="M87.05,49.85c1.61-3.26,3.25-6.52,3.59-10.22a61.82,61.82,0,0,0-.27-8.16,6.66,6.66,0,0,1,1.48-4.82,2.84,2.84,0,0,0-3.24.81,8.19,8.19,0,0,0-1.82,6.19c.15,2.83.7,5.64.77,8.48a20,20,0,0,1-1.4,8.46l-.78,1.65A4.87,4.87,0,0,0,87.05,49.85Z" transform="translate(82.68 -15.13)"/><path class="cls-1" d="M-39.82,92.39h0Z" transform="translate(82.68 -15.13)"/><path class="cls-1" d="M81.32,75.51c2,2.4,4.23,4.6,6.44,6.8a22.83,22.83,0,0,0,9.46,4.43,15.72,15.72,0,0,0,8.75-.67c1.31-.45,2.59-1,3.88-1.46-.31-.35-.66-.09-1,0-2.42.37-4.83.77-7.27.93-4.94.31-9.28-1-12.78-4.65a69.4,69.4,0,0,0-6.45-5.91c-.42-.34-.92-.64-1.07-1.22-.59-.63-1.19-1.26-1.79-1.88l-.17-.17-4.16-3.54c-1.71-.92-3.3-2.14-5.63-2,1.66,1,3.15,1.81,4.57,2.73A32.65,32.65,0,0,1,81.32,75.51Z" transform="translate(82.68 -15.13)"/><path class="cls-1" d="M78.85,63.17c-.61.43-1.3.75-1.95,1.12-.87.35-1.89.34-2.57,1.13a9.24,9.24,0,0,0,2.44-.58c3-.88,5.16-2.93,7.16-5.18.21-.24.35-.53.65-.67a45.31,45.31,0,0,0,9-15.33A37.88,37.88,0,0,0,95.85,31.1,6.71,6.71,0,0,0,95,27.68a1.39,1.39,0,0,0-1.7-.73c-.84.2-.52.87-.51,1.36.17,4.74.39,9.49-.58,14.19A32.5,32.5,0,0,1,78.85,63.17Z" transform="translate(82.68 -15.13)"/><path class="cls-1" d="M-19,75.93a47.75,47.75,0,0,1-5.1-8.67c-1.49-3.06-3-6.09-4.48-9.16-1.85-3.91-5.13-5.84-9.14-6.89a19.21,19.21,0,0,0-10.76,0c-1.78.55-3.6.91-5.4,1.38a3.24,3.24,0,0,0-1.48.71c.29.34.67-.12,1,.13a19.65,19.65,0,0,1,5.19-.53,31.45,31.45,0,0,1,7.63.43c3.49.47,6,2.46,8.31,4.83a2.47,2.47,0,0,1,.28.28l.52.56h0a16.36,16.36,0,0,1,1.23,1.27,105.58,105.58,0,0,1,7.19,11C-21.24,75.92-18,80-13.17,82.73A18.42,18.42,0,0,0-7.54,85c0-.36-.23-.46-.48-.58a38.27,38.27,0,0,1-6.9-4.29A15.63,15.63,0,0,1-19,75.93Z" transform="translate(82.68 -15.13)"/><path class="cls-1" d="M-56.37,52.68l.33-.24C-56.16,52.52-56.31,52.58-56.37,52.68Z" transform="translate(82.68 -15.13)"/><path class="cls-1" d="M87.79,56c-.18.21-.37.41-.56.61h0l-.38.5c.47.21.73-.2,1.05-.38,5-2.92,7.94-7.43,9.64-12.86A40.45,40.45,0,0,0,99,32.47a15.58,15.58,0,0,1,.86-5.7c0-.66-.5-.62-.92-.57a4.28,4.28,0,0,0-3,1.52c1.3,4.7.33,9.3-.94,13.77A40.89,40.89,0,0,1,87.79,56Z" transform="translate(82.68 -15.13)"/><path class="cls-1" d="M-7.36,85.5c-.39,0-.76-.23-1.15,0L-10.43,85a15.39,15.39,0,0,1-5.51-1.59,17.24,17.24,0,0,1-6-4.87,64,64,0,0,1-8.75-12.21c-3.06-5.65-7.76-9-13.83-10.67a30.69,30.69,0,0,0-9-1.36,12.24,12.24,0,0,0-7.61,3,1.26,1.26,0,0,0,.11.17h0a6.64,6.64,0,0,0,.85-.22,18.63,18.63,0,0,1,12.56-.28,27.63,27.63,0,0,1,14.4,11.07c2.24,3.2,4.15,6.65,7.16,9.25,1.56,1.2,3.13,2.39,4.68,3.59A22.26,22.26,0,0,0-9.74,85.76,2.2,2.2,0,0,1-8.49,86a1,1,0,0,1,.15-.14,4.84,4.84,0,0,0,1,0C-6.93,85.75-7.32,85.62-7.36,85.5Z" transform="translate(82.68 -15.13)"/><path class="cls-1" d="M-40.84,46.87c-4.55,0-8.66,1.9-12.45,4.38a4.79,4.79,0,0,0-.62.73c2-.48,3.83-.82,5.58-1.34C-43,49-37.93,50.1-33,52.42c2.46,1.17,3.91,3.29,5.08,5.61,2.12,4.19,4.13,8.45,6.26,12.64a16.31,16.31,0,0,0,2.46,4.1c.33.49.66,1,1,1.49a11,11,0,0,0,2.13,1.9l-1-1.39-1.38-1.7A13.87,13.87,0,0,1-20,72.77c-.74-1.72-1.53-3.43-2.21-5.17-1.4-3.61-2.64-7.28-4.13-10.86C-29,50.33-33.91,46.86-40.84,46.87Z" transform="translate(82.68 -15.13)"/><path class="cls-1" d="M-36,43.17a16,16,0,0,0-11.86,1.9c-.3.18-.63.31-.94.47A84.7,84.7,0,0,0-56,52.4l-.27.66a11.06,11.06,0,0,0,2.38-1.93,3.6,3.6,0,0,1,.89-.77c6.06-3.3,12.24-5.73,19.13-2.51a13.64,13.64,0,0,1,7,6.85,2.22,2.22,0,0,0,.37.44c.23,0,.23-.22.19-.35-.83-2.8-1.62-5.63-3.41-8A10,10,0,0,0-36,43.17Z" transform="translate(82.68 -15.13)"/><path class="cls-1" d="M-50.64,53.87a36.9,36.9,0,0,1,9.14,2.29,21,21,0,0,1,11.15,9.76A66.32,66.32,0,0,0-19.82,80.15a16.07,16.07,0,0,0,3.67,2.78c.9.32,1.79.7,2.72.94.62.15,1.22.68,1.92.23a5.85,5.85,0,0,1-2.28-1A34.17,34.17,0,0,1-24.72,71.36c-2.83-4.67-5.42-9.55-9.42-13.42-.46-.37-.92-.73-1.37-1.11a12.65,12.65,0,0,0-7-3.13c-2.22-.24-4.45-.35-6.68-.48l-1.7.19c-1.17-.32-2.33.34-3.5.07-.16.23-.19.37.2.37C-53,53.84-51.82,53.86-50.64,53.87Z" transform="translate(82.68 -15.13)"/><path class="cls-1" d="M-8.49,86.05l-.49.21a23.09,23.09,0,0,1-13.28-5.32c-.87-.69-1.75-1.35-2.62-2a29.57,29.57,0,0,1-7.67-8.8A28.89,28.89,0,0,0-45.44,58.41a19,19,0,0,0-14.22-.75,1.46,1.46,0,0,0-1,.72c6.64-1.07,12.9-.45,18.17,4.28A22.92,22.92,0,0,1-38.89,67c1.46,2.16,2.82,4.4,4.21,6.61l0,.06c2.59,3.21,5,6.7,8.7,8.66,5.27,2.79,10.89,4.58,17,4.28a4.55,4.55,0,0,0,1.68-.14C-7.56,86-8.19,86.49-8.49,86.05Z" transform="translate(82.68 -15.13)"/><path class="cls-1" d="M115,71.9a51.61,51.61,0,0,1-15.93.7c-3.52-.4-6.55-2-9.63-3.53a30.31,30.31,0,0,0-8-3,8.52,8.52,0,0,0-3.3,0c0,.3.22.28.39.31A44,44,0,0,1,89.2,70.26c4.24,2.06,8.63,3.86,13.36,4.26,5.45.46,10.79-.6,16-2,2.32-.64,4.38-1.94,6.58-2.92a8.69,8.69,0,0,0,4.16-5.14A42,42,0,0,1,125,68.1,25.45,25.45,0,0,1,115,71.9Z" transform="translate(82.68 -15.13)"/><path class="cls-1" d="M69.34,133.08c3.48-2.78,4.88-6.5,4.89-10.83,0-2.29-.06-4.58-.1-6.87-1.44-8.69-5.8-15.84-11.49-22.38a33.15,33.15,0,0,0-9.94-8.13c-.4-.2-.81-.38-1.22-.57l-.16.25c1,.82,1.92,1.67,2.91,2.47a14.38,14.38,0,0,1,3,3.21c1.88,2.79,4,5.36,6.18,8a41.92,41.92,0,0,1,8.72,19.24,26.67,26.67,0,0,1,.54,7.19,12.42,12.42,0,0,1-5,9.15l1.69-.68Z" transform="translate(82.68 -15.13)"/><path class="cls-1" d="M57,86.82l1.21.67a10,10,0,0,0-2.41-2.55c-.26-.24-.78-.37-.45-.9a4.44,4.44,0,0,0-2-1.46,8.41,8.41,0,0,0-5.82-1.85c-1.43-.43-2.88.13-4.35,0a2.7,2.7,0,0,0,1.55.73A33.93,33.93,0,0,1,56.6,86.59,1.39,1.39,0,0,1,57,86.82Zm-3.09-3.49.11,0a.41.41,0,0,1,.09.1Z" transform="translate(82.68 -15.13)"/><path class="cls-1" d="M57.61,91.64c-2.12-3.36-5.29-5.63-8.32-8a7,7,0,0,0-3.84-1.23,94.55,94.55,0,0,1,7.41,6.43c3,3,5.77,6.25,8.66,9.37,2.21,2.39,3.61,5.36,5.65,7.88.26.31.39.79.94.73a39.41,39.41,0,0,0-6.53-10A37.63,37.63,0,0,1,57.61,91.64Z" transform="translate(82.68 -15.13)"/><path class="cls-1" d="M42.47,72.68c2.53-1.43,5.45-2,7.9-3.64a16.59,16.59,0,0,1,4.8-2.39c0-.14.09-.28.13-.42a33.11,33.11,0,0,0-12.83,6.15,1,1,0,0,0-.07.23S42.46,72.69,42.47,72.68Z" transform="translate(82.68 -15.13)"/><path class="cls-1" d="M37.35,77.75a3.5,3.5,0,0,0-2.19.33,16.78,16.78,0,0,0,3.78.38C38.61,77.76,37.81,78.13,37.35,77.75Z" transform="translate(82.68 -15.13)"/><path class="cls-1" d="M37.6,76.73l.86-.25c2.51-1.4,5.3-2.21,7.74-3.75a24.74,24.74,0,0,0,3.06-2,1.1,1.1,0,0,0,.36-.25L51.67,69c-.05-.1.28-.45,0-.3A18.12,18.12,0,0,0,49.55,70c-3.06,1.48-6.35,2.49-9.27,4.3-.2.17-.36.39-.66.4l-1.89,1.39-1.92.94A3,3,0,0,0,37.6,76.73Z" transform="translate(82.68 -15.13)"/><path class="cls-1" d="M64.4,74.46a20.84,20.84,0,0,1,11.83,2.69l2.3,2,.22-.24a2.93,2.93,0,0,0-1-1.32C74.54,73.3,70,72.2,65,72c-4.63-.17-8.63,1.55-12.54,3.73-2.73,1.51-5.45,3.06-8.72,3.09-1.54,0-3.08.11-4.61.17h0a4.71,4.71,0,0,0-1.67,0,2.49,2.49,0,0,0,1.54.4,16.13,16.13,0,0,0,10.27-.85C54.13,76.59,59.07,74.78,64.4,74.46Z" transform="translate(82.68 -15.13)"/><path class="cls-3" d="M53.92,83.33l.2.14a.41.41,0,0,0-.09-.1Z" transform="translate(82.68 -15.13)"/><path class="cls-3" d="M88.69,26.19h0l-.4.19h0A.46.46,0,0,0,88.69,26.19Z" transform="translate(82.68 -15.13)"/><path class="cls-3" d="M67.13,134.74l.76-.23-.22,0s0,0,0,0a.62.62,0,0,1,0-.13l1.62-.71.26-.32c1-.33,1.31-1.42,2.23-1.79.9.21,1.07-.93,1.83-1a4,4,0,0,1,1.59-.86c.69-.44,1.38-.88,2.06-1.33.08-.25.3-.32.5-.41l0,0,.27-.09h0c.64-.26.86-1,1.38-1.35,1.38-2.18,2.78-4.36,4.14-6.56a17.21,17.21,0,0,0,2.83-8.12c1.41-3.13,1.48-6.48,1.53-9.83,0-.57-.14-1.19.4-1.63.37-.25,0-.58.1-.84a9.81,9.81,0,0,0-.06-5,10.72,10.72,0,0,0-1.3-3.65,8.34,8.34,0,0,0-1.63-3,65.36,65.36,0,0,1-4.65-6.72c-1.28-1.89-2.54-3.78-3.94-5.58a26.77,26.77,0,0,0-8.23-7,4.92,4.92,0,0,0-3.35-2c-3.19-.83-6.36-1.62-9.72-.9a34,34,0,0,0-15,7.61,23.71,23.71,0,0,1-6.57,4c-.16-.58.39-.71.68-.94,1.05-.87,2.15-1.69,3.23-2.52,3.09-1.88,6-4,9.21-5.72a35,35,0,0,1,11.12-3.45,15.34,15.34,0,0,0,3,0c.93.12,1.87.27,2.81.33,3.47.22,6.19,2.21,9,3.89,4,2.38,6.9,6,9.9,9.44a11,11,0,0,0,1.85,1.83,3,3,0,0,0,.22.28,11.67,11.67,0,0,0,1.88,1.77l.36.31a17.12,17.12,0,0,0,7.48,4.16,32,32,0,0,0,19.4.09c3.87-1.21,6.78-4,9.77-6.53a17.7,17.7,0,0,0,5.47-7.61c.44-1.26,1.09-2.48.45-3.92a3.4,3.4,0,0,1,.34-2.64c.15-.37.46-.81-.17-1.08a18.55,18.55,0,0,0,.29-5.41,1.36,1.36,0,0,0-.07-1c-.22-1.15.33-2.56-1.08-3.35-.12-.08-.08-.45-.12-.68-.32-2.23-1-4.39-.9-6.69a3.72,3.72,0,0,0-1.86-3.58c-.14-.68-.26-1.35-1.1-1.56-.51-.13-.42-.65-.55-1-1.13-1.1-2.2-2.27-3.34-3.32-.9-.81-1.62-1.75-2.46-2.59s-1.85-.93-2.45.29c-3.37,6.76-8.89,11.18-15.51,14.45-.35.17-.7.36-1,.55l-1.08.63,0,0s0,0,0,0a18.32,18.32,0,0,1,3.46-3.18A24.79,24.79,0,0,0,110.85,36a9.1,9.1,0,0,1,1.23-2.69,1.53,1.53,0,0,1,2.16-.55,7.22,7.22,0,0,1,1.46,1c.45.37.55,1.05,1.36,1.39a4.15,4.15,0,0,0-2.34-2.76,18.52,18.52,0,0,1-2-1.31c-1.17-.81-2.12-2.16-3.76-2.21-.31-1-1.2-1-2-.9a4.93,4.93,0,0,1-2.62-.62c-.38-.19-.36-.57-.47-.89a2.74,2.74,0,0,0-3.55-.59l-2-.11c-.84.41-1.87.47-2.44,1.35-1-.48-2.2-.53-3.26-.9a4.06,4.06,0,0,0-5,1.59,8.68,8.68,0,0,0-1.41,4.12A21.26,21.26,0,0,0,86.42,36a45.91,45.91,0,0,1,.46,9.59,20.6,20.6,0,0,1-3.82,9.57c-.25-.37-.06-.64,0-.88a24.22,24.22,0,0,0,.28-13.24,20.77,20.77,0,0,1-.68-5.87,17.18,17.18,0,0,1,1.45-4.85,7.15,7.15,0,0,1,4.18-3.51c-3-.14-6,4.22-6,8.41A11.8,11.8,0,0,0,82.41,39c.39,2.6,1.32,5.12,1.11,7.81.2,8-2.72,13.2-9.31,16.78a4.39,4.39,0,0,0-1.5.89c-.52.17-1,.37-1.56.51a2.22,2.22,0,0,1-2.94-2,27.37,27.37,0,0,1,1.27-11.23,23.84,23.84,0,0,0,1.21-9.67c-.72-5.73-2.91-8.36-8.42-10a16.61,16.61,0,0,0-6.52-.83C52.27,31,49.52,32.58,47,34.65c-2.39,1.94-4.85,3.77-7.34,5.57h0a12.26,12.26,0,0,1-6.13.35,8,8,0,0,0-2.66-.29c-3.76-1.55-6.64.08-7.46,4-.32,1.56-1,3-1,4.7,0,.29-.17.4-.44.45a1.1,1.1,0,0,0-.72.59c-1,1.87-2.54,3.52-2.14,5.9.13.74-.84,1-.83,1.76-.2.46-.39.92-.58,1.38-.28,0-.62-.19-.83.2-1.55,2.84-4.48,3.61-7.17,4.64a7.29,7.29,0,0,0-4.21,3.19c-1,1.37-.91,3-.87,4.53a36.79,36.79,0,0,0,1,7.45,6.87,6.87,0,0,0,1.31,3c.29.43.26.63-.27.68a17.33,17.33,0,0,0-5.1,1.35c-.11,0-.28-.07-.42-.11a15.09,15.09,0,0,0-3.49.11A13.25,13.25,0,0,1-8.12,83c-3.3-1.47-6.46-3.1-8.62-6.16a.35.35,0,0,0-.07-.11l-2.55-3.9c-2.44-4.62-3.83-9.63-5.36-14.6-.15-.48-.33-1-.5-1.44-.15-1.42-.86-2.71-.9-4.15.07-4.22-.44-8.27-3.44-11.57a9.45,9.45,0,0,0-5.85-3.24,3.88,3.88,0,0,0-.77-.26c-4-.42-5.86-3.19-7.2-6.49A12.06,12.06,0,0,1-44,28c-.74-5.76-4.07-9.37-9.43-11.22a29.36,29.36,0,0,0-18.3-.41c-.63.19-1.64,0-1.53,1.32,1.26-.85,2.47-.36,3.7.07a13.61,13.61,0,0,1,7.61,5.9,10.34,10.34,0,0,0,.64.84l.13.21c1.38,2.18,3.52,3.57,5.57,5.27-.67.06-1-.33-1.44-.52s-.91-.45-1.37-.68c-2.26-.9-3.74-2.69-5.16-4.55a14.39,14.39,0,0,0-8.55-5.57,1.55,1.55,0,0,0-1.68.22c5.74.63,9,4.33,12.19,8.51l-.05.06-1.27-.61c-2.52-2-4.78-4.38-7.81-5.69a5.47,5.47,0,0,0-2.76-.48c-.21,0-.41.06-.38.34s.2.17.35.16c2.12-.13,3.79.94,5.39,2.12,1.09.81,2.08,1.75,3.2,2.7a9.44,9.44,0,0,1-2.83-1.14,24,24,0,0,0-4.63-2.08,11.44,11.44,0,0,0-1.27-.26c-.23,0-.52-.1-.57.23s.24.31.47.34C-71.12,23.41-69,25-66.65,26c.33.13.1.28,0,.41-2.15-.1-4.14-1-6.28-1.22a3.81,3.81,0,0,0-2.06.23c.88.37,1.62.12,2.25.53V26c-.67.61-1.79.26-2.39,1.33a15.26,15.26,0,0,1,3.74-.64v0c-1.29,1-3.11.82-4.13,2.42.8-.22,1.19-.7,1.84-.66-.49,1.05-1.81,1.4-2.14,2.83,2.24-1.76,3.71-4.45,7.1-3.89a20.44,20.44,0,0,0-7.5,7c1.32-1.31,2.63-2.64,4-3.91a21.14,21.14,0,0,1,4-2.74,4.32,4.32,0,0,1,2.52-.49c.08.4,1.25-.42.73.65a19.67,19.67,0,0,0-7.68,4.3c-1.26,1-2.39,2.19-3.57,3.29-.29.27-.59.55-.38,1.11a44.11,44.11,0,0,1,7.16-6.1A21.69,21.69,0,0,1-64.1,28a4,4,0,0,1,3.44.52c-3.8.34-6.94,2.14-9.91,4.31s-5.58,4.54-7,8a33.41,33.41,0,0,1,3.7-4.53c3.22-3,6.69-5.68,11.08-6.81a8.52,8.52,0,0,1,4.8,0c.27.31.19.44-.21.48-7,.58-11.76,4.9-16,10-3.23,3.88-4.58,8.58-5.73,13.36a.9.9,0,0,0,.09.92c.21-.71.37-1.3.56-1.89,1-3.31,1.91-6.72,3.73-9.7A28.87,28.87,0,0,1-62.73,31.38a13.11,13.11,0,0,1,5.21-1,2.9,2.9,0,0,1,1.88.49c-.16.08-.25.15-.33.15a14.93,14.93,0,0,0-10.51,4.21,43.14,43.14,0,0,0-8.59,11.11,8.46,8.46,0,0,0-.42,1.09,56.6,56.6,0,0,0-2.35,6.82,33.14,33.14,0,0,1-3.35,7.16,1.9,1.9,0,0,0-.3,1.42,25.38,25.38,0,0,0,3.85-7.44c.9-2.73,1.8-5.47,2.69-8.2a44.63,44.63,0,0,1,5.75-8.51c2.41-2.66,4.92-5.25,8.49-6.4,2.64-.84,5.29-1.23,8-.11a.36.36,0,0,0,.43,0c-1.7-1.4-3.39-2.82-5.1-4.22a34.77,34.77,0,0,1-3.12-3.07,15.39,15.39,0,0,0-9.34-7.69c-.27-.08-.66,0-.77-.44a4.62,4.62,0,0,1,2.89-.24c.56.2,1.1.42,1.67.59a12.45,12.45,0,0,1,7.28,5.88,31.49,31.49,0,0,0,5.73,7.36,6.41,6.41,0,0,0,1.34,1.41c.27.27.13.36-.13.45l-.39,0c-.19.53-.59.35-1,.31-3.53-.33-6.91,0-9.67,2.56A24,24,0,0,0-67,40.39h0a51.94,51.94,0,0,0-4.8,8.43c-2.48,5-4.94,10-7.48,15a7.42,7.42,0,0,1-2.94,3.47c-.52.28-.33.8-.47,1.42,2.64-1.21,5.35-1.85,7.66-3.43a4.06,4.06,0,0,1,3-.5A16.15,16.15,0,0,1-67.21,66c1.82.75,2.54,2.35,3.1,4.06,1.15,3.52,2.28,7,3.43,10.56.23.68.81,1.2.86,2,4.44,8.65,11.69,12.73,21.24,13a44.48,44.48,0,0,0,4.73-.36c.55,0,1.1-.1,1.65-.13.17,0,.31.09.07.24a.88.88,0,0,1-.23.07l0,.33,2.5-.62a56.42,56.42,0,0,1,7.29-.8,32.05,32.05,0,0,0,7-.92A26.91,26.91,0,0,0-4.63,88.11a19.1,19.1,0,0,1,5.69-2.62,31,31,0,0,1,8.44,0,6.79,6.79,0,0,1,1.36.35c3.7,1.77,7.3,1.27,10.86-.43a41.47,41.47,0,0,0,8.36-4.89A11.49,11.49,0,0,0,32,78.45a2.63,2.63,0,0,1,2,.15c1.09.33,2.19.64,3.29,1,.77.56,1.85,0,2.58.69.73.3,1.47.57,2.18.9,3.45,1.62,6.25,4.17,9.14,6.58h0c3.16,3.41,6.33,6.81,9.47,10.23a35.92,35.92,0,0,1,3.8,5.12,22.61,22.61,0,0,0,3.91,4.86A11.44,11.44,0,0,1,69.48,110a40.44,40.44,0,0,1,2.74,14.63,13.49,13.49,0,0,1-5.32,9.18l-.21,0a.59.59,0,0,1,.07-.2,18,18,0,0,0,3.77-9.94c.41-5.74-1.45-11-4.47-15.8-2.12-3.34-4.86-6.3-7.32-9.43a46,46,0,0,0-3.8-4.66c-4.28-5-8.88-9.59-14.64-12.89h0v0c0,.32.28.44.41.66a66.06,66.06,0,0,1,16.76,16,5.22,5.22,0,0,0,.39.43c2,2.88,4.3,5.57,6.45,8.35A26.88,26.88,0,0,1,70,122.75a20,20,0,0,1-2.72,9.49c-.59,1.12-1.71,1.33-2.83,1.46l-.18.43ZM128.4,73.52c-1.53,3.66-4.6,5.94-7.46,8.44a20.77,20.77,0,0,1-11.7,5.25c-1.57.16-3.15.25-4.72.37,0-.14,0-.28,0-.43,9.14-3.15,18.16-6.53,24.26-14.72C128.82,72.85,128.55,73.17,128.4,73.52Zm-1.07-.28A34.91,34.91,0,0,1,111.47,83.8c-3.33.45-6.64,1-10,1.26A15.33,15.33,0,0,1,88,79.3c-.38-.46.12-.23.2-.33,6,4.83,12.76,5.85,20.12,4.17a45.07,45.07,0,0,0,7.11-2.6c5.08-2.08,9.48-5,12.51-9.75a5.75,5.75,0,0,1,1.19-1.73A7.2,7.2,0,0,1,127.33,73.24Zm-25.47,2.9a18.63,18.63,0,0,1-11-2.5C87.44,71.77,84,70,80.6,68.15c-.33-.17-.63-.49-1.07-.37l-1-.59c.41-.56.93-.27,1.39-.14a46.66,46.66,0,0,1,8.46,3.34,50.4,50.4,0,0,0,12.36,4.37,15.39,15.39,0,0,0,4.83.3c5.53-.56,11.11-.9,16.25-3.36a4,4,0,0,1,1.77-.72l-.15.13,0,0a4.55,4.55,0,0,1-1.72,1.11c-.44.24-.87.49-1.3.74C114.36,74.94,108.11,75.53,101.86,76.14Zm4.29,0h0c-.39.54-.39.54-1.81.7l-1.63.45c-3.71.5-7.37.65-11-.69a31.89,31.89,0,0,1-6.35-3.23l0,0-3.69-3.14-.1-.11c-.3-.38-.62-.77-1.13-1.39,2.2,1.17,4.09,2.19,6,3.18,2.24,1.16,4.46,2.36,6.74,3.43,3.57,1.68,7.34,1.56,11.14,1.14h0ZM79.42,68.67l.18.14a40.1,40.1,0,0,0,6.53,5.52,20.56,20.56,0,0,0,12.72,3.76,16.9,16.9,0,0,0,3.87-.5,52.11,52.11,0,0,0,5.79-1.31c3.48-.67,7-1.27,10.38-2.26a3.16,3.16,0,0,0,1.51-.63,13.66,13.66,0,0,0,4.35-2.63l2-1.57c0,.58-.44.9-.76,1.29a21.22,21.22,0,0,1-8.33,6.09c-5.35,2.29-11.07,2.31-16.75,2.7-5.46.37-10.15-1.38-14.67-4.1a66.72,66.72,0,0,1-7.62-5.61h0A25.42,25.42,0,0,0,75,66.65C76.75,66.8,78,67.92,79.42,68.67ZM128,68.8a1.63,1.63,0,0,1,.94-.78c-2.68,4.86-6,8.6-11.18,10.49-4.08.45-8.06,1.49-12.08,2.25a21.16,21.16,0,0,1-9.81-.62c-.66-.11-1.38-.09-1.75-.81.49.21,1.07.07,1.53.39A77.57,77.57,0,0,0,109,79.25C116.76,78.42,123.4,75.45,128,68.8ZM91.85,78.62a6.22,6.22,0,0,0,3.26,1.78c5.14,1.76,10.26,1.17,15.38-.16a49.85,49.85,0,0,1,5.58-1c.25,0,.58-.29.77.13-1.56.66-3.12,1.35-4.7,2A24.3,24.3,0,0,1,96.7,82.64c-5.75-1.49-10-5.4-14.42-9a3.46,3.46,0,0,1-.43-.58A54.37,54.37,0,0,0,91.85,78.62Zm33.32-9.06c-2.2,1-4.26,2.28-6.58,2.92-5.24,1.44-10.58,2.5-16,2-4.73-.4-9.12-2.2-13.36-4.26a44,44,0,0,0-10.63-3.93c-.17,0-.43,0-.39-.31a8.52,8.52,0,0,1,3.3,0,30.31,30.31,0,0,1,8,3c3.08,1.52,6.11,3.13,9.63,3.53A51.61,51.61,0,0,0,115,71.9a25.45,25.45,0,0,0,10-3.8,42,42,0,0,0,4.32-3.68A8.69,8.69,0,0,1,125.17,69.56Zm4.69-10a6.35,6.35,0,0,1-2.23,5.59,21.06,21.06,0,0,1-8.57,5.11,51,51,0,0,1-14.38,2c-4.63,0-9.1-.64-13.26-2.94-3.33-1.84-6.73-3.59-10.62-4.19.6-.82,1.37-.34,2-.51a18.71,18.71,0,0,1,7.82,3.22,18.58,18.58,0,0,0,9.29,3.21,54.93,54.93,0,0,0,15.56-1.05c6.28-1.28,11.15-4.48,13.93-10.44C129.54,59.39,129.69,59.48,129.86,59.61ZM125,61.34a9.31,9.31,0,0,1,2.46-2.22,12.13,12.13,0,0,1-3.23,3.5,24,24,0,0,1-7.71,4c-8.3,2.8-16.62,3.73-24.94,0a61.13,61.13,0,0,0-6.85-2.83c.46-.44.95-.23,1.33-.43a66.42,66.42,0,0,1,11.3,2.63A31.22,31.22,0,0,0,125,61.37h0Zm4.14-5.23a4.42,4.42,0,0,1,.16,2.34A16.35,16.35,0,0,1,118.9,68.6a47.06,47.06,0,0,1-20.39,1.92,18.37,18.37,0,0,1-8.36-3.44c-.29-.2-.59-.41.08-.44a25.8,25.8,0,0,0,8.41,2.74,39.79,39.79,0,0,0,23.18-4.44,14.14,14.14,0,0,0,6-5.52A28.89,28.89,0,0,0,129.17,56.11ZM128,57c-3,5.11-8.1,7-13.33,8.78-4.7,1.56-9.44,1.25-14.21.48a3.31,3.31,0,0,1-1.57-.38L89,63.37h0c-.66-.06-1.36.1-1.91-.42a3.4,3.4,0,0,1,1.87.09,8.72,8.72,0,0,1,2.69.25c2.43.52,4.73,1.48,7.11,2.14,1.52.14,3,.29,4.55.41,4.86.39,9.39-1,13.86-2.59a16.28,16.28,0,0,0,10.26-10.71c.09-.27.14-.5.48-.59A7.2,7.2,0,0,1,128,57ZM88.77,61.91A15,15,0,0,1,97,62.5c2,.78,4,1.54,6,2.31.77.07,1.61-.15,2.21.58l-2-.1a26.81,26.81,0,0,1-6.84-1.13c-2.69-.88-5.36-1.83-8.25-1.73C88,61.79,88.54,62,88.77,61.91ZM127,46.82l.19-.15a3.43,3.43,0,0,1,.36,2.73c-1,5.85-3.91,10.43-9.54,12.81a36.52,36.52,0,0,1-9.9,2.75,24.61,24.61,0,0,1-9.92-2.5,16.89,16.89,0,0,0-4-1.22l-2.38-.13,0-.32a5.34,5.34,0,0,1,2.18,0,20.94,20.94,0,0,1,6.28,1.11,30.23,30.23,0,0,0,7.38,1c8.82,0,16.4-6.91,18.84-13.54A12.21,12.21,0,0,0,127,46.82Zm-.67.78a20.22,20.22,0,0,1-24,14.18L101,61.47c-3.1-.81-6.19-1.62-9.44-1.19l-.82.19c-.3-.31-.84.44-1.06-.24a9.78,9.78,0,0,1,1.85-.37c1.34,0,2.63-.49,4-.44,1.93.07,3.87.08,5.81.13,3.8.12,7.67.26,11.25-1.19C118.09,56.13,123,53,126,47.59,126.19,47.21,126.25,47.34,126.37,47.6Zm-1.14-4.28c.45,0,.4.62.64.91v0A7.5,7.5,0,0,1,124.53,49a26.59,26.59,0,0,1-13.94,9.33c-4,1.07-8.09.6-12.15.63-.59,0-1.25.23-1.6,0l2-.22.23,0c2-.23,4-.47,6.11-.65a16.32,16.32,0,0,0,6.19-1.46,30.18,30.18,0,0,0,13.15-12.45C124.66,43.83,124.83,43.32,125.23,43.32Zm-2.14-2.39a2.05,2.05,0,0,1,1,3,28.52,28.52,0,0,1-7.61,8.82c-3.74,2.93-7.74,5-12.67,4.9-2.88,0-5.76.28-8.64.43a34.14,34.14,0,0,0-6.6,1.74c-.18.06-.44.06-.53.18-.78,1.07-2.06,1.19-3.14,1.65-.53.22-.09-.19-.12-.3a22.48,22.48,0,0,1,6.82-3.18l3.65-.62c2.46-.69,5-.62,7.52-1,4.21-.62,8.2-1.73,11.24-5a55.63,55.63,0,0,0,5.41-6.74c.77-1.15,1.58-2.28,2.39-3.39A1,1,0,0,1,123.09,40.93Zm-1.33-1.39c.44.5.43.74-.08,1.2a10.45,10.45,0,0,0-1.53,1.95,64.84,64.84,0,0,1-5,6.74c-2,2.31-4.19,4.44-7.22,5.37a32.28,32.28,0,0,1-7.67,1.45,32.72,32.72,0,0,0-5.38.76,4.15,4.15,0,0,1-2.39.29c.89-.84,2.21-.7,3.16-1.41,1.82-.51,3.64-1,5.46-1.54A26.48,26.48,0,0,0,110,49.73a39.16,39.16,0,0,0,8.85-10C120,37.83,120.33,37.88,121.76,39.54Zm-20.1,11.18c6.32-3.18,11.58-7.5,14.93-13.89.84-1.6,1.22-1.57,2.39-.11.17.21.35.42.51.65s.27.44,0,.71c-1.84,1.92-3,4.35-4.75,6.34-4.31,4.85-9.33,8.49-15.78,9.9a10.25,10.25,0,0,0-3.21,1.09l-.87.26c-.27-.4.22-.5.3-.75l.3-.28A53.7,53.7,0,0,1,101.66,50.72Zm10.92-19c.12.23,0,.36-.19.48a6,6,0,0,0-2,3.41,24.71,24.71,0,0,1-8.54,12.27c-1.53,1.21-3,2.52-4.47,3.78l-.1-.12c.59-.68,1.16-1.38,1.76-2,3.52-3.94,6.81-8,8.23-13.27a10,10,0,0,1,2.35-3.82,2.87,2.87,0,0,1,2.1-1.19A.89.89,0,0,1,112.58,31.68Zm-3.65-2.81v0h0c0,.25-.2.56.19.67.59.18,1.42.13,1.52.88s-.81.8-1.22,1.23c-.81.84-1.32,1.9-2.31,3,.17-1.65.24-3,.48-4.27C107.72,29.73,108,28.92,108.93,28.87Zm-1-.18a5.55,5.55,0,0,0-1.19,3.78,22.41,22.41,0,0,1-5.71,13.74c-1.83,2.17-3.69,4.33-5.54,6.49h-.09v.09a1.57,1.57,0,0,0-.26.19,19.25,19.25,0,0,0-1.68,1.7c-2.72,2.25-6,3.62-8.9,5.54.38-.86,1.21-1.24,1.79-1.88.6-.37,1.18-.78,1.8-1.11,2.5-1.31,4.28-3.56,6.68-5,1.23-.75,2-2.2,3-3.32,3.34-3.76,5.43-8,5.47-13.16a18.62,18.62,0,0,1,.47-4.94C104.59,28.05,105.4,28.24,108,28.69Zm-2.84-.63a3.36,3.36,0,0,0-1.82,2.38,13,13,0,0,0-.46,3.28,39.18,39.18,0,0,1-.43,5.3,14.67,14.67,0,0,1-4.19,8.13l.6-1.62a21.84,21.84,0,0,0,1.72-9.18,13.48,13.48,0,0,1,1.16-6.56C102.49,28.81,103.13,27.53,105.11,28.06Zm-2.06-1.58c.39.38.71.77,0,1.19A4.41,4.41,0,0,0,101.12,30a9,9,0,0,0-1.05,5.25,27.67,27.67,0,0,1-1.8,10.51c-1,1.69-1.57,3.57-3.15,5a8.64,8.64,0,0,1,.36-.88,31.06,31.06,0,0,0,4-16.11,24.23,24.23,0,0,1,.68-6.57A1.8,1.8,0,0,1,103.05,26.48Zm-7.19,1.24a4.28,4.28,0,0,1,3-1.52c.42-.05.91-.09.92.57a15.58,15.58,0,0,0-.86,5.7,40.45,40.45,0,0,1-1.43,11.37c-1.7,5.43-4.6,9.94-9.64,12.86-.32.18-.58.59-1.05.38l.38-.5h0c.19-.2.38-.4.56-.61a40.89,40.89,0,0,0,7.13-14.47C96.19,37,97.16,32.42,95.86,27.72Zm-3,.59c0-.49-.33-1.16.51-1.36a1.39,1.39,0,0,1,1.7.73,6.71,6.71,0,0,1,.82,3.42,37.88,37.88,0,0,1-2.22,12.56,45.31,45.31,0,0,1-9,15.33c-.3.14-.44.43-.65.67-2,2.25-4.16,4.3-7.16,5.18a9.24,9.24,0,0,1-2.44.58c.68-.79,1.7-.78,2.57-1.13.65-.37,1.34-.69,1.95-1.12A32.5,32.5,0,0,0,92.24,42.5C93.21,37.8,93,33.05,92.82,28.31ZM86.16,50.59a20,20,0,0,0,1.4-8.46c-.07-2.84-.62-5.65-.77-8.48a8.19,8.19,0,0,1,1.82-6.19,2.84,2.84,0,0,1,3.24-.81,6.66,6.66,0,0,0-1.48,4.82,61.82,61.82,0,0,1,.27,8.16c-.34,3.7-2,7-3.59,10.22a4.87,4.87,0,0,1-1.67,2.39ZM76.61,62.81A39.63,39.63,0,0,0,90.34,43.65a17.62,17.62,0,0,0,.87-7.24c-.14-1.82-.27-3.63-.31-5.45a5.16,5.16,0,0,1,1.2-3.78,55,55,0,0,1,.24,6.69c.25,10.48-3.19,19.47-11,26.65a16.07,16.07,0,0,1-7.22,4.06A10.72,10.72,0,0,1,76.61,62.81Zm-1.42,5.32,4.16,3.54.17.17c.6.62,1.2,1.25,1.79,1.88.15.58.65.88,1.07,1.22a69.4,69.4,0,0,1,6.45,5.91c3.5,3.67,7.84,5,12.78,4.65,2.44-.16,4.85-.56,7.27-.93.31,0,.66-.31,1,0-1.29.49-2.57,1-3.88,1.46a15.72,15.72,0,0,1-8.75.67,22.83,22.83,0,0,1-9.46-4.43c-2.21-2.2-4.43-4.4-6.44-6.8a32.65,32.65,0,0,0-7.19-6.69c-1.42-.92-2.91-1.74-4.57-2.73C71.89,66,73.48,67.21,75.19,68.13Zm-90.11,12A38.27,38.27,0,0,0-8,84.43c.25.12.52.22.48.58a18.42,18.42,0,0,1-5.63-2.28C-18,80-21.24,75.92-24,71.27a105.58,105.58,0,0,0-7.19-11A16.36,16.36,0,0,0-32.44,59h0l-.52-.56a2.47,2.47,0,0,0-.28-.28c-2.29-2.37-4.82-4.36-8.31-4.83a31.45,31.45,0,0,0-7.63-.43,19.65,19.65,0,0,0-5.19.53c-.29-.25-.67.21-1-.13a3.24,3.24,0,0,1,1.48-.71c1.8-.47,3.62-.83,5.4-1.38a19.21,19.21,0,0,1,10.76,0c4,1,7.29,3,9.14,6.89,1.45,3.07,3,6.1,4.48,9.16A47.75,47.75,0,0,0-19,75.93,15.63,15.63,0,0,0-14.92,80.14Zm7.59,5.71a4.84,4.84,0,0,1-1,0,1,1,0,0,0-.15.14,2.2,2.2,0,0,0-1.25-.26A22.26,22.26,0,0,1-21.38,81c-1.55-1.2-3.12-2.39-4.68-3.59-3-2.6-4.92-6-7.16-9.25a27.63,27.63,0,0,0-14.4-11.07,18.63,18.63,0,0,0-12.56.28,6.64,6.64,0,0,1-.85.22h0a1.26,1.26,0,0,1-.11-.17,12.24,12.24,0,0,1,7.61-3,30.69,30.69,0,0,1,9,1.36c6.07,1.7,10.77,5,13.83,10.67A64,64,0,0,0-22,78.58a17.24,17.24,0,0,0,6,4.87A15.39,15.39,0,0,0-10.43,85l1.92.41c.39-.18.76.1,1.15,0C-7.32,85.62-6.93,85.75-7.33,85.85Zm.06.63a4.55,4.55,0,0,1-1.68.14c-6.1.3-11.72-1.49-17-4.28-3.7-2-6.11-5.45-8.7-8.66l0-.06c-1.39-2.21-2.75-4.45-4.21-6.61a22.92,22.92,0,0,0-3.63-4.35c-5.27-4.73-11.53-5.35-18.17-4.28a1.46,1.46,0,0,1,1-.72,19,19,0,0,1,14.22.75A28.89,28.89,0,0,1-32.55,70.12a29.57,29.57,0,0,0,7.67,8.8c.87.67,1.75,1.33,2.62,2A23.09,23.09,0,0,0-9,86.26l.49-.21C-8.19,86.49-7.56,86-7.27,86.48Zm-47.1-33c1.17.27,2.33-.39,3.5-.07l1.7-.19c2.23.13,4.46.24,6.68.48a12.65,12.65,0,0,1,7,3.13c.45.38.91.74,1.37,1.11,4,3.87,6.59,8.75,9.42,13.42A34.17,34.17,0,0,0-13.79,83.1a5.85,5.85,0,0,0,2.28,1c-.7.45-1.3-.08-1.92-.23-.93-.24-1.82-.62-2.72-.94a16.07,16.07,0,0,1-3.67-2.78A66.32,66.32,0,0,1-30.35,65.92,21,21,0,0,0-41.5,56.16a36.9,36.9,0,0,0-9.14-2.29c-1.18,0-2.36,0-3.53,0C-54.56,53.85-54.53,53.71-54.37,53.48Zm32.2,14.12c.68,1.74,1.47,3.45,2.21,5.17a13.87,13.87,0,0,0,1.48,2.3l1.38,1.7,1,1.39a11,11,0,0,1-2.13-1.9c-.32-.5-.65-1-1-1.49a16.31,16.31,0,0,1-2.46-4.1c-2.13-4.19-4.14-8.45-6.26-12.64-1.17-2.32-2.62-4.44-5.08-5.61C-37.93,50.1-43,49-48.33,50.64c-1.75.52-3.56.86-5.58,1.34a4.79,4.79,0,0,1,.62-.73c3.79-2.48,7.9-4.38,12.45-4.38,6.93,0,11.86,3.46,14.54,9.87C-24.81,60.32-23.57,64-22.17,67.6Zm-4.28-12.46a2.22,2.22,0,0,1-.37-.44,13.64,13.64,0,0,0-7-6.85c-6.89-3.22-13.07-.79-19.13,2.51a3.6,3.6,0,0,0-.89.77,11.06,11.06,0,0,1-2.38,1.93l.27-.66a84.7,84.7,0,0,1,7.19-6.86c.31-.16.64-.29.94-.47A16,16,0,0,1-36,43.17a10,10,0,0,1,6.33,3.61c1.79,2.38,2.58,5.21,3.41,8C-26.22,54.92-26.22,55.11-26.45,55.14Zm-29.92-2.46c.06-.1.21-.16.33-.24ZM-27,51c-.91-2.56-1.95-5-4.46-6.49-4.93-2.85-10-2.88-15.13-.63a2.64,2.64,0,0,1-1.5.61,9.77,9.77,0,0,1,1.78-1.27h0l1.45-.92a31.73,31.73,0,0,1,6.17-1.49,11.72,11.72,0,0,1,9.32,3.09,14.74,14.74,0,0,1,2.5,5.79C-26.74,50.06-26.34,50.6-27,51Zm-8.42-12.81a20.9,20.9,0,0,1,2.63,1,11.59,11.59,0,0,1,4.93,5.47,2.73,2.73,0,0,1,.51,1.61,4.55,4.55,0,0,1-1-1.75c-.73-.7-1.18-1.67-2.16-2.12l0,0a13,13,0,0,0-9.35-1.87,17.62,17.62,0,0,0-3.41.88c-.25.09-.52.39-.78,0a19.68,19.68,0,0,1,5.82-3.15Zm-11.5-16.23a16.12,16.12,0,0,1,2.5,7.45,10.12,10.12,0,0,0,2,4.94A3.89,3.89,0,0,1-41,36a5.5,5.5,0,0,1-2.12-1.91,18.84,18.84,0,0,1-4-6.91c-1.12-3.15-2.12-6.36-4.67-8.79A9.86,9.86,0,0,1-46.88,21.94Zm-6.82-4.17A12.92,12.92,0,0,1-48.56,25c1.45,4.31,3.19,8.44,6.93,11.37A1.68,1.68,0,0,1-42.9,36,20.59,20.59,0,0,1-50,26.53a22.05,22.05,0,0,0-3.59-6.64,27.26,27.26,0,0,0-3.6-3.44A7.23,7.23,0,0,1-53.7,17.77Zm-1.77.87a23.31,23.31,0,0,1,5.1,8.46,17.82,17.82,0,0,0,5.12,7.42c.12.1.25.2.09.4a3.88,3.88,0,0,1-1.63-.57c-1.06-1.21-2.11-2.42-3.17-3.62A68.65,68.65,0,0,1-54.21,24a17,17,0,0,0-6.26-6.65c-1-.53-2-1-3.05-1.49A9,9,0,0,1-55.47,18.64Zm3.84,12.56h0a36.56,36.56,0,0,1-6.78-8.64,12.65,12.65,0,0,0-7.52-6c-.36-.12-1,0-1-.68a11.72,11.72,0,0,1,4.36,1c3.75,1.58,6.19,4.51,8.16,7.92a34.93,34.93,0,0,0,3.71,5.61c.61,1.19,1.77,1.95,2.54,3.09-.73.18-1-.45-1.45-.6l-.32-.22a.81.81,0,0,1,.18.1ZM-80.28,66.56c5.51-8.79,8.79-18.75,14.63-27.33l0,0c.43-.56.89-1.11,1.29-1.69a10.15,10.15,0,0,1,7-4.45,20.84,20.84,0,0,1,5.9.15,1,1,0,0,1,.18.15c.13.15,0,.23-.3.27q-1.87.24-3.75.51A10.91,10.91,0,0,0-63.15,39a58.1,58.1,0,0,0-5.22,8.58h0a32.39,32.39,0,0,0-2.28,6c-1.4,5.1-4.59,8.95-8.41,12.38C-79.4,66.18-79.77,66.6-80.28,66.56Zm2.09-.44a21.38,21.38,0,0,1,1.8-2,23.79,23.79,0,0,0,6.08-9.89c.74-2.42,1.61-4.79,2.59-7.13h0c1.34-2.14,2.7-4.27,4-6.43a12,12,0,0,1,10-6.26l1.49-.28c0,.12,0,.23,0,.34l-1.5.31a20,20,0,0,0-3.67,1.84,13.43,13.43,0,0,0-4.83,4.7,15.14,15.14,0,0,0-2.7,4.43,75.82,75.82,0,0,0-2.79,8.94,16.33,16.33,0,0,1-5,8.14A15.78,15.78,0,0,1-78.19,66.12Zm5.44-2.42a7.21,7.21,0,0,1,.47-.55A17.24,17.24,0,0,0-67,54.47c1.33-4.81,2.38-9.78,5.73-13.77,3.72-4,7.93-6.73,13.72-5.78,2.87.9,5.63,2.17,8.61,2.76.08.5-.36.4-.59.5a33.56,33.56,0,0,0-9,6.24,5.9,5.9,0,0,0-1.62,1.36c-3.08,2.82-5.92,5.91-9.1,8.63-1.7,1.46-3,3.3-5,4.46s-4,2.51-6,3.7A5.29,5.29,0,0,1-72.75,63.7Zm36.64,31.21A22,22,0,0,1-49,92.64,21.39,21.39,0,0,1-59.52,81.91,63.7,63.7,0,0,1-62.22,74l-.6-1.81.37,0h0A7.77,7.77,0,0,1-61.79,74c1.3,3,2.39,6.15,4.29,8.9,2.26,3.25,4.81,6.15,8.44,7.94A17.29,17.29,0,0,0-41.94,93c.89.1,1.79.16,2.68.23,2.34.44,4.74.42,7,1.14C-33.51,94.64-34.81,94.76-36.11,94.91ZM-63,69.49s.08-.1.16-.21a29.91,29.91,0,0,1,5.15,7.34,57,57,0,0,0,5,8.3c3.05,4,7.54,5.72,12,7.42.29.62-.19.34-.39.32a20.38,20.38,0,0,1-7.26-1.94c-.24-.12-.51-.2-.76-.3a24,24,0,0,1-9.35-10.15C-60.19,76.78-61.53,73.09-63,69.49ZM-36.4,93a26.79,26.79,0,0,0-3.43-.61h0a12,12,0,0,0-3-1.37c-3.11-1.36-6.24-2.63-8.57-5.3a36.78,36.78,0,0,1-4.72-7c-2.1-4-4.18-7.89-7.71-10.8-.16-.13-.41-.27-.25-.6l.87.28h0c1.26.94,2.51,1.91,3.8,2.81A18.35,18.35,0,0,1-53.62,77a42.92,42.92,0,0,0,3.79,6.4c.26.34.57.65.86,1,0,0,0,0,0,0a25,25,0,0,0,11,7.29c2,.73,4.18,1,6.25,1.58A23,23,0,0,1-36.4,93Zm9.24.08c-7.8-.4-14.95-2.43-20.69-8.1a35,35,0,0,1-5.4-8.41c-2.27-4.41-6.07-7.13-10.18-9.54l-.88-.44-.46-.53h0v0a23,23,0,0,1,7.15,3.45,5.21,5.21,0,0,0,1.37.89,25.6,25.6,0,0,1,6,7.26c4.05,6.89,10.23,10.9,17.7,13.2a7.66,7.66,0,0,0,2.24.69c1.6.58,3.34.71,4.88,1.52A8.49,8.49,0,0,1-27.16,93.08Zm11.72-1a5.24,5.24,0,0,1-1.24.31,52.17,52.17,0,0,1-6.61.44L-30.51,91l-2.25-.72a33.1,33.1,0,0,1-13.3-7.9,35,35,0,0,1-4.49-6.21A21.13,21.13,0,0,0-57,69.38a19.51,19.51,0,0,0-9.93-4.17l-.5-.06-1-.29c0-.14-.51-.3,0-.41l.78-.12A27.75,27.75,0,0,1-48.08,72.6a47.34,47.34,0,0,1,4.52,5.93c4.6,6.32,10.21,11.24,18.15,12.79a29.38,29.38,0,0,0,7.78.42,6.2,6.2,0,0,0,2.19,0,1.63,1.63,0,0,1,1.55,0ZM-67.75,63.59c3.75-.77,7.49-1.17,11.17.36l3.13,1.3h0a21.78,21.78,0,0,1,5.09,3.43c3.92,4.13,7.89,8.21,11.61,12.53a25.34,25.34,0,0,0,7.49,6.48,22.36,22.36,0,0,0,6.46,3,3.19,3.19,0,0,1,1.83.63l-1.62-.13c-6.65-.38-11.85-3.67-16.54-8.09-2.5-2.37-4.14-5.37-6.22-8C-51,67.83-58.4,64-67.7,64Zm56.64,27.76,0-.39a14.42,14.42,0,0,1,3.46-1.51A10.32,10.32,0,0,1-11.11,91.35ZM-8.77,89a23.5,23.5,0,0,1-8.93,2c-4.34,0-8.15-1.68-11.79-3.85-4.67-2.91-7.7-7.45-11.38-11.36-2.28-2.42-4.55-4.84-6.84-7.25a17,17,0,0,0-5.95-3.81,18.9,18.9,0,0,0-13.09-1.87,7.39,7.39,0,0,1-3.2.45,28.67,28.67,0,0,1,9.82-2.85A15.46,15.46,0,0,1-48.31,64a42.92,42.92,0,0,1,7,7.36c1.87,2.44,3.46,5.1,5.69,7.25l.9,1.08c3,3.42,6.76,5.67,10.77,7.57A21.51,21.51,0,0,0-8.78,88.66,4,4,0,0,1-7,88.16,4.35,4.35,0,0,1-8.77,89Zm4.39-2.3-1.5.39a22.09,22.09,0,0,1-20-1.43,36.43,36.43,0,0,1-8.56-6.46h0a75.13,75.13,0,0,1-5.21-6.6,50.64,50.64,0,0,0-7.11-8.09c-5.15-4.65-11-5.74-17.55-3.87l-2.06.57a12.75,12.75,0,0,1,3.76-2,28.89,28.89,0,0,1,7.12-.9c7.38,0,12.8,3.34,16.62,9.53a50.86,50.86,0,0,0,3.68,5.63.21.21,0,0,1,.15,0l-.15,0c3.11,4.25,6.29,8.41,11.42,10.45,4.71,1.87,9.5,3.45,14.68,3.17.62,0,1.24-.16,1.86-.25h0a1.62,1.62,0,0,0,1-.19h.34a2.79,2.79,0,0,1,1.53-.36C-3.85,86.34-4.34,86.57-4.38,86.7Zm-1.83-1.88-1.07-.51A6.87,6.87,0,0,1-10,82.75l-.2-.2-.13-.13.15.07h0l2.47,1.19a13.89,13.89,0,0,0,6.39.78c.41,0,.89-.31,1.28.11A12.69,12.69,0,0,1-6.21,84.82Zm50.8-17.74a45.17,45.17,0,0,1-12,2.52c-4.24.21-8.35-.09-11.57-3.38a.31.31,0,0,0-.09-.2c-.06-.12-.13-.28-.23-.5a10.67,10.67,0,0,1,1,.45,14.54,14.54,0,0,0,11.3,1.45c4.65-1.27,9.35-2.35,14.23-1.83.35,0,1-.37,1,.48A20.8,20.8,0,0,0,44.59,67.08Zm21.68-3.51c-.91-.77-1.81-1.53-2.71-2.31a8.6,8.6,0,0,1-2.51-3.95c-1.22-3.63-2.47-7.24-3.71-10.87a8.88,8.88,0,0,0-6.45-6.19l.06.14a.3.3,0,0,1-.06-.14,16.33,16.33,0,0,0-6.67-.53c-.42,0-.85.23-1.27,0,1.53-.6,2.92-1.55,4.58-1.85A12.17,12.17,0,0,1,60.6,44.93c1.24,2.91,1.68,6,2.45,9,.81,3.2,1.4,6.51,3.4,9.29Zm-18-27.19a10,10,0,0,1,2.72-1c9.09-.5,14.39,6.36,12,15.77a4.37,4.37,0,0,1-.26-.77,20,20,0,0,0-2.12-6.63c-2.33-4.62-8.32-7.53-13.16-6.42C47.33,36.63,48,36.61,48.29,36.38Zm7.47-4.79h0c.44.18,1,0,1.37.31a17.41,17.41,0,0,1,7.54,1.75A7.85,7.85,0,0,1,69.36,39a18.93,18.93,0,0,1-.06,11.2A33.2,33.2,0,0,0,67.51,61.7a1.65,1.65,0,0,1,.11,1.12,1,1,0,0,1-.54-.94c-.53-3.89-1.39-7.76-.84-11.72.18-1.33.37-2.67.49-4,.31-3.38.19-6.64-2.21-9.39a12.47,12.47,0,0,0-7.18-4.47l-.86,0c-.94-.37-2-.16-3.1-.45C54.27,31.4,55,31.71,55.76,31.59ZM42.09,39.05a1.15,1.15,0,0,1,.27-.18c1.94-1.48,3.89-2.95,5.81-4.46A8.85,8.85,0,0,1,55,32.48c.51.06,1,.09,1.52.13.19.06.38.12.57.16C63,34.14,66.42,38.54,66.2,44.6a11.2,11.2,0,0,1-.15,2c-1,4.73-.53,9.45.14,14.16A1.23,1.23,0,0,1,66.34,62a2.31,2.31,0,0,1-.66-1.39,29.63,29.63,0,0,1-1.75-9.16c0-1.78,0-3.56.15-5.33.63-7.38-7.74-12.59-13.08-11.22a7.08,7.08,0,0,0-4.57,2.14l-4.21,2.3a2.58,2.58,0,0,1-1.26.79C41,39.39,41.61,39.3,42.09,39.05ZM39.3,41a13.51,13.51,0,0,0,3-.56,29.49,29.49,0,0,1,6.37-.12c.82.11,1.62.33,2.42.5a8.51,8.51,0,0,1,5.63,5.95c1,3.61,2.54,7.05,3.65,10.64a7.37,7.37,0,0,0,1.73,3.39l3.28,2.74.56.6c-.74,0-1.14-.62-1.77-.7A17,17,0,0,1,61,60.16a19.42,19.42,0,0,1-3-4.91c-1.17-2.57-1.88-5.36-3.6-7.67h0A8.48,8.48,0,0,0,48.53,44a45.63,45.63,0,0,0-6.61-.61,23.62,23.62,0,0,1-8.78-1.75l-1-.86A15.67,15.67,0,0,0,39.3,41ZM57.22,55.21a15.92,15.92,0,0,1-3.13-3.73,13.91,13.91,0,0,0-7-5.49,33.15,33.15,0,0,0-7.64-1.57c-1.68-.16-3.41-.16-4.89-1.19l-.43-.58,0,0a26.52,26.52,0,0,0,6.17,1.18c2,.11,3.93.28,5.9.43a11.08,11.08,0,0,1,7,2.74C55.34,49.35,56.09,52.37,57.22,55.21Zm-30-14.75c.31-.34.89-.23,1.36-.17A6.69,6.69,0,0,1,32,41.89C34.09,43.7,36.4,45,39.32,45a21.81,21.81,0,0,1,4.81.69,14.07,14.07,0,0,1,9.45,6c.34.5.93.89,1,1.66L52,51.51l-.05,0a13.81,13.81,0,0,0-5.64-2.33c-3.18-.61-6.38-1.19-9.55-1.84a17.76,17.76,0,0,1-5.23-1.86,11.58,11.58,0,0,1-3.95-3.86C27.55,41.17,26.86,40.86,27.22,40.46Zm-2.28,1.69c.06-.7.67-.94,1.25-1.1.4-.11.38.31.41.55.59,4.58,3.76,6.91,7.57,8.68a26.37,26.37,0,0,0,8.76,1.92c2.81.08,5.6.22,8.08,1.79.15.09.41.25.63,0,0,0,0,0,0,0h0a4.73,4.73,0,0,0-2.28-1.38,20,20,0,0,0-5.58-.92c-3.44-.22-6.85-.56-10-2.17-3-1.53-5.64-3.35-6.44-6.9.29-.14.44.06.58.25,1.87,2.58,4.58,3.78,7.53,4.59a68.73,68.73,0,0,0,7.78,1.58,21.36,21.36,0,0,1,9.47,3.44h0a30.16,30.16,0,0,1,7.58,8A31.06,31.06,0,0,1,54.38,56a4,4,0,0,0-1.7-1.46c-.2-.18-.35-.48-.7-.24a.54.54,0,0,0-.16-.14c-.18.49.42.52.51.89l-.64-.11h0c-.28-.16-.54-.32-.82-.46a18.45,18.45,0,0,0-7.76-1.76,49.82,49.82,0,0,1-8,0,17,17,0,0,1-4.94-1.49h0a11.69,11.69,0,0,1-4.93-6.75A6.44,6.44,0,0,1,24.94,42.15Zm-.83,1.37c0-.07.15-.13.27-.23.82,3.71,2.52,6.76,6,8.5,2.55,1.55,5.41,1.62,8.26,1.62,1.58,0,3.16-.12,4.74-.15a17.42,17.42,0,0,1,8.52,2.23,8.77,8.77,0,0,0,1.92,1.06c-.21.7-.63.15-.88.09-1.55-.4-3.07-1-4.63-1.3a22.74,22.74,0,0,0-8.89.12,19.26,19.26,0,0,0-3.31.12c-5.1.26-8.77-2-11.31-6.33C23.77,47.41,24,45.47,24.11,43.52ZM47,55.51v.36l-1.26,0-.5.18a12.79,12.79,0,0,0-1.52.1c-2.46.49-4.93,1-7.38,1.52a13.18,13.18,0,0,1-5.83-.06c0-.62.52-.33.79-.37a15.93,15.93,0,0,0,3.55-.63,40.88,40.88,0,0,0,4.65-.74,39,39,0,0,1,6.2-.4A2,2,0,0,1,47,55.51ZM23.35,47a13,13,0,0,0,4.21,6.47,11.09,11.09,0,0,0,6.07,2.59c-.59.76-1.48.44-2.24.59a16.35,16.35,0,0,1-1.73.16C25.76,56.85,21.36,51.61,23.35,47Zm-2,3.67c.55-.69.8-.58,1,.2,1.18,4.06,4.13,6.16,8,7.19a2.92,2.92,0,0,1,1.6.38c-.59.15-1,.31-1.4.12-3.67.18-6.82-.84-9.22-3.82C20.19,53.25,20.12,52.2,21.34,50.68ZM19.8,54c.49-.22.54.34.73.58A10.6,10.6,0,0,0,29,59.05c5.57.05,10.88-1.33,16.22-2.63,3.51-.69,6.73.36,9.93,1.6a52.07,52.07,0,0,1,7.58,5,13.16,13.16,0,0,0,1.82,1.07c.2.18.45.34.37.67l-4.14-1.35c-1.53-.73-3.09-1.41-4.59-2.19a23.64,23.64,0,0,0-16.7-2.14c-2.08.48-4.14,1.07-6.25,1.42-4.39.72-8.56.32-11.92-3-.69-.7-1.62-1.28-1.85-2.35C19.43,54.7,19.37,54.22,19.8,54Zm39,9.19-1.76-.51c-.08,0-.16,0-.23,0a24.51,24.51,0,0,0-13.42-1.9c-3.27.55-6.53,1.19-9.83,1.55a16.87,16.87,0,0,1-8.62-1,7.15,7.15,0,0,1-3.3-2.68c.23,0,.31,0,.36.06s.4.25.59.39a11.47,11.47,0,0,0,6.54,2.13c3.39.24,6.57-.72,9.79-1.51a23,23,0,0,1,13.65.45c1.39.51,2.72,1.19,4.07,1.79A3.69,3.69,0,0,1,58.82,63.22Zm-40-5.8c.61-.93,1.08-.52,1.45.18,2,3.75,5.35,5.07,9.28,5.41a33.69,33.69,0,0,0,9.07-.84c4.81-.9,9.58-1.76,14.42-.22,1.87.6,3.75,1.16,5.62,1.73a2.53,2.53,0,0,1,1.44.45,3.12,3.12,0,0,1-1.4,0l-.53.08h0A8.37,8.37,0,0,0,55,64l-7.55-.49a37.6,37.6,0,0,0-14,1.31,12.89,12.89,0,0,1-3.36.7c-4,.17-7.73-.46-10.43-3.86C18.64,60.38,18.11,59,18.81,57.42Zm-.48,3.44a24.74,24.74,0,0,0,2,2.31c3.29,2.93,7.22,3.32,11.35,2.62,2.42-.41,4.72-1.32,7.17-1.62,4.75-.59,9.47,0,14.21.15.21,0,.51-.06.44.34a23.57,23.57,0,0,1-4.34.65,30.69,30.69,0,0,0-11.77.5c-1.59.34-3.17.71-4.73,1.15-5.16,1.43-9.57-.19-13.63-3.3C18.8,62.73,17.92,62,18.33,60.86Zm-1,.62c2.25,6,6.26,8.72,12.62,8.83a44.23,44.23,0,0,0,14.77-2.58,2.64,2.64,0,0,1,1.95-.24l-5,2.72a22,22,0,0,1-11.38,2.84c-5-.12-9.24-1.68-11.93-6.22C17.43,65.26,16.91,62.63,17.32,61.48Zm-1,.46a11.45,11.45,0,0,0,5.94,9.77c3.43,2,7.26,2.33,11.19,2a16.09,16.09,0,0,1-11.19,1,9.21,9.21,0,0,1-6.94-9.34A6.58,6.58,0,0,1,16.32,61.94Zm-1.1.12c-2.08,6.45,1.33,11.66,7.41,13.65a12,12,0,0,1-4.49-.23,9.49,9.49,0,0,1-6.63-5.78C10.18,66.71,11.64,63.89,15.22,62.06ZM11.35,64.3a6,6,0,0,0-.2,6.35c2,3.45,4.83,5.61,8.92,5.81a34.8,34.8,0,0,0,10.71-.93,3.89,3.89,0,0,1,1.81-.43,5.07,5.07,0,0,1-1.94,1,29.66,29.66,0,0,1-13.86,1.77,9.9,9.9,0,0,1-8.38-8A4.93,4.93,0,0,1,11.35,64.3Zm-2.12.63c-1.94,2.15-2,4.51-.88,7a10.39,10.39,0,0,0,8.83,6.63c4.4.5,8.65-.39,12.88-1.44.75-.39,1.5-.78,2.26-1.16-.47,1-1.5,1.25-2.39,1.69-4.72,2.57-9.66,3.85-15,2.59A21.52,21.52,0,0,1,11.82,79l-.53-.37-2-1.7a13.75,13.75,0,0,1-3.43-8.36C6.49,66.16,7.59,64.94,9.23,64.93Zm-7.32,20c-.12,0-.24,0-.23-.17a19.49,19.49,0,0,1,6-1.5h0a9,9,0,0,1,1.82,1.87A25.89,25.89,0,0,0,1.91,84.92Zm25.35-3a6.5,6.5,0,0,1-1.8,1,36.17,36.17,0,0,1-5.18,2.57C16,87.18,12.1,86.76,8.66,83.53A14.55,14.55,0,0,1,6,79H6c-.14-1.07-.28-2.15-.43-3.22,1.56,2.61,3.88,4.41,6.13,6.27a9.9,9.9,0,0,0,6,2.19c2.83.16,5.33-1,7.88-1.9l1.61-.8.05.36Zm5.82-5c-.29.52-1,.45-1.26,1.06a25.19,25.19,0,0,1-11.71,5.63A9,9,0,0,1,12,81.68c-1.11-.94-2.23-1.88-3.27-2.9a11.37,11.37,0,0,1-3.66-8,2.71,2.71,0,0,1,.27-1.76l.18,1.72A16.07,16.07,0,0,0,7.6,75.51a10.94,10.94,0,0,0,4.65,4.16c3.67,2,7.54,1.79,11.42.9A30,30,0,0,0,33.52,76h0l1.75-1.29h0c.23.09.38-.33.63-.09h0l-2.32,2Zm39.17,53.92h0c1.18-2.49,2.35-5,2.39-7.82a6.53,6.53,0,0,1,.16-2.11,35.63,35.63,0,0,0-.24-5.56h0a37.5,37.5,0,0,0-6.22-15.92,85.3,85.3,0,0,0-5.66-7.2,27.36,27.36,0,0,1-3.22-3.82c-.09-.61-.71-.94-.92-1.73C60,88.41,61.4,90,62.76,91.53h0c.21.35.67.51.73,1L64,93c1.16,1,2.43,2,3.49,3.15a2.73,2.73,0,0,1,.23.25,15.18,15.18,0,0,1,4.76,6.8,54.57,54.57,0,0,1,3.06,9.93c.44,2.55,0,5.07-.25,7.6C74.92,124.28,74.81,127.94,72.25,130.85Zm3.68-17.76c-1.18-5.59-2.58-11.12-6.42-15.58-1.84-2.16-4.31-3.71-6.22-5.84h0c-.46-.82-1.24-1.38-1.76-2.14S60.1,88.41,60,87.41c.49.6,1.26.77,1.87,1.2,2.62,1.87,4.95,4.07,7.42,6.11A17.16,17.16,0,0,1,74.8,103a49.59,49.59,0,0,1,2,18.4c-.43,1.89-.59,3.86-1.54,5.6-.19.34-.2.86-.79.82a39.1,39.1,0,0,0,1.38-8A18.46,18.46,0,0,0,75.93,113.09Zm2.43,13.12a4.51,4.51,0,0,0-.86,1.38,13.74,13.74,0,0,1-3,1.94c0-.57.41-.84.56-1.23a14.22,14.22,0,0,0,2.25-6.92c.72-4.24,0-8.43-.49-12.62A32.2,32.2,0,0,0,75.06,102a16.06,16.06,0,0,0-4.62-6.93,86.9,86.9,0,0,0-9.6-7.74c-.3-.2-.55-.6-1-.45-1.5-1.42-3.34-2.44-4.66-4.1l1,.35c2.21,1.29,4.43,2.57,6.64,3.88A39.45,39.45,0,0,1,75.27,98.79,60.25,60.25,0,0,1,79,108a12.47,12.47,0,0,1,.62,3.6c.06,2.17.23,4.34.23,6.51a22.68,22.68,0,0,1-1.26,7.56A.59.59,0,0,0,78.36,126.21Zm.75-.77c1.32-2.84,1.4-5.87,1.33-8.91,0-1.73-.17-3.46-.26-5.19a12.41,12.41,0,0,0-.76-3.81,50.5,50.5,0,0,0-3.6-8.59,32.41,32.41,0,0,0-7.77-8.81,46.69,46.69,0,0,0-8.81-5.69,4,4,0,0,1-.67-.49c-.62-.21-1.27-.37-1.59-1,.49.13,1,.13,1.38.57a32.41,32.41,0,0,1,10.28,5.05,40,40,0,0,1,13.27,18.81c.14.74.24,1.48.44,2.2a16.58,16.58,0,0,1-.31,9.93c-.48,1.38-.92,2.78-1.51,4.11C80.23,124.29,80.06,125.19,79.11,125.44Zm2.76-3.88a19.53,19.53,0,0,0,.44-14.21c-.1-.42-.19-.84-.31-1.26-1-3.64-3.11-6.72-5.21-9.79a33.14,33.14,0,0,0-16.6-12.81c-2.5-.89-5.15-1.28-7.57-2.39l-3-.75,0-.2L51,80a3.6,3.6,0,0,0,1.4.62,14.78,14.78,0,0,0,3.05.11,24.33,24.33,0,0,1,11.07,3.79c2.91,2,5.12,4.71,7.78,7l.34,0c-1.81-1.85-3.63-3.69-5.44-5.53-.15-.15-.34-.28-.27-.51l.12,0,2.53,1.26h0A59.21,59.21,0,0,1,81.68,98.33c2.06,3.15,2.56,6.74,2.89,10.37a3.72,3.72,0,0,1,.19,1.65c-.65-.45-.48-1.18-.63-1.8a28.22,28.22,0,0,0-3.63-9.66L80,98.76a32.92,32.92,0,0,1,3.79,10.43c.13.58.3,1.14.45,1.72C86.17,115.05,84.26,118.35,81.87,121.56Zm3.7-8.8a5.21,5.21,0,0,1-.31-2.62c-.06-.59-.13-1.18-.17-1.77a22.74,22.74,0,0,0-5.62-14c-1.43-1.63-2.89-3.25-4.29-4.9-.12-.15-.94-.35-.2-.79,1.26.94,2.49,1.92,3.78,2.82,4.48,3.13,6.42,7.61,7,12.86,0,.23.06.47.08.7,0,1.64-.07,3.28-.1,4.92A7.6,7.6,0,0,1,85.57,112.76Zm1.15-3.18c-.09.36,0,.91-.56,1l.06-5.57a13.38,13.38,0,0,0-1.07-6,22.52,22.52,0,0,0-3.08-5.66c-1.13-1.27-2.72-1.95-3.95-3.09a51.62,51.62,0,0,0-5.42-3.62c-1.51-.78-2.91-1.82-4.64-2.15h0l-1.6-1c-.35-.76.21-.34.39-.28,1.6.5,3.18,1,4.77,1.54.12-.25-.1-.36-.21-.52a42.67,42.67,0,0,0-6.73-2,29.93,29.93,0,0,0-5.51-1.5l-3.74-.41a10.4,10.4,0,0,1-1.37-.1c-.45-.09-1,.31-1.35-.31h0L57,80h0l.11,0c.61.13,1.28-.14,1.86.25a13.1,13.1,0,0,1,1.4,0A30.21,30.21,0,0,1,76,85.53a31,31,0,0,1,11.47,15A34.36,34.36,0,0,1,86.72,109.58ZM57.89,79.64a3.43,3.43,0,0,1,2.18-.32c1.92-.29,3.83.13,5.74.21l1.74.34a31.21,31.21,0,0,1,10.33,3.71c5.09,3,7.46,7.87,9,13.3.28.46.68.91.3,1.5-.17-.51-.6-.91-.65-1.48a34.11,34.11,0,0,0-5-7.16c-5.72-6.39-13-9.43-21.46-10.06A6.65,6.65,0,0,1,57.89,79.64ZM86.66,90.8A17.49,17.49,0,0,1,88.17,99L86,92.76a17.16,17.16,0,0,0-3.45-5.89C78,81.92,72.14,80,65.76,79.2h0c-3.1-.74-6.22-.14-9.33-.15a5.11,5.11,0,0,1-2.33-.15c1.22-.3,2.44-.61,3.67-.89C68.24,75.59,81.77,80.48,86.66,90.8Zm-6.48-9.55a6.1,6.1,0,0,1,1.46,2c-.49,0-.71-.3-1-.51a28.24,28.24,0,0,0-21-5.58c-2.8.34-5.47,1.28-8.24,1.72a3.55,3.55,0,0,1-1.79.29,2.87,2.87,0,0,1,1.75-.73c4-1.46,8-2.89,12.22-3.28C70.11,74.54,75.72,76.35,80.18,81.25Zm-6.09-7.71c-1.15-.47-2.14-1-3.17-1.28a23.85,23.85,0,0,0-11.45-.35c-2,.65-3.83,1.55-5.72,2.36h0l-2.17,1.19c-2.25,1.23-4.48,2.5-7.12,2.69l-1.33.11c.31-.49.82-.45,1.3-.48h0a2.56,2.56,0,0,0,.69-.1c2.93-1.3,5.85-2.62,8.78-3.93a44.2,44.2,0,0,1,5.54-2.23h0a11.94,11.94,0,0,1,4.64-1A28.17,28.17,0,0,1,72.27,72,4,4,0,0,1,74.09,73.54Zm-6.43-4.61a7.85,7.85,0,0,1,2.64,1.26.81.81,0,0,1,.27.11l-.27-.11,1,.83a26.82,26.82,0,0,0-7.22-.82c-2.57-.14-4.86.89-7.15,1.83-3.31,1.36-6.6,2.78-9.83,4.34a14.06,14.06,0,0,1-7.82,1.4c-.31,0-.81.16-.9-.42a.18.18,0,0,0,.29-.09,46.2,46.2,0,0,0,15.29-5c2.29-.81,4.59-1.63,6.89-2.42A16.9,16.9,0,0,1,67.66,68.93Zm-1.61-1h.06c0,.16.7.37,0,.46s-1.73.12-2.59.26c-2.39.39-4.56,1.48-6.85,2.22-.51.17-1,.58-1.61.32,3.22-2.62,6.7-4.34,11-3.28Zm-4.83-1.78c0,.08,0,.2,0,.21-5,1.63-9.2,4.92-14,7l-3,1.33c-.13.22-.69.1-.47.59,4-1.42,7.68-3.63,11.41-5.66L56.39,69a13.86,13.86,0,0,1,6.34-2.47,9.37,9.37,0,0,1,2.57.4l0,.33a12.22,12.22,0,0,0-4.55.16,17,17,0,0,0-4.72,2.28h0a29.92,29.92,0,0,1-12.32,6,12.84,12.84,0,0,1-4.07.63l4.47-1.92a45.83,45.83,0,0,0,6.9-4.36C54,67.73,57.22,65.89,61.22,66.19Zm-6,.47Zm-12.7,5.72A33.11,33.11,0,0,1,55.3,66.23c0,.14-.08.28-.13.42A16.59,16.59,0,0,0,50.37,69c-2.45,1.63-5.37,2.21-7.9,3.64,0,0-.07-.05-.07-.07A1,1,0,0,1,42.47,72.38Zm-4.74,3.75,1.89-1.39c.3,0,.46-.23.66-.4,2.92-1.81,6.21-2.82,9.27-4.3a18.12,18.12,0,0,1,2.08-1.31c.32-.15,0,.2,0,.3l-2.05,1.45a1.1,1.1,0,0,1-.36.25,24.74,24.74,0,0,1-3.06,2c-2.44,1.54-5.23,2.35-7.74,3.75l-.86.25a3,3,0,0,1-1.79.34Zm-2.57,2a3.5,3.5,0,0,1,2.19-.33c.46.38,1.26,0,1.59.71A16.78,16.78,0,0,1,35.16,78.08ZM39,79.41a2.49,2.49,0,0,1-1.54-.4,4.71,4.71,0,0,1,1.67,0h0c1.53-.06,3.07-.16,4.61-.17,3.27,0,6-1.58,8.72-3.09C56.37,73.55,60.37,71.83,65,72c5,.2,9.54,1.3,12.75,5.55a2.93,2.93,0,0,1,1,1.32l-.22.24-2.3-2A20.84,20.84,0,0,0,64.4,74.46c-5.33.32-10.27,2.13-15.13,4.1A16.13,16.13,0,0,1,39,79.41Zm4.2,1.28c1.47.17,2.92-.39,4.35,0a8.41,8.41,0,0,1,5.82,1.85,4.44,4.44,0,0,1,2,1.46c-.33.53.19.66.45.9a10,10,0,0,1,2.41,2.55L57,86.82a1.39,1.39,0,0,0-.41-.23,33.93,33.93,0,0,0-11.85-5.17A2.7,2.7,0,0,1,43.2,80.69Zm24,25.36c-2-2.52-3.44-5.49-5.65-7.88-2.89-3.12-5.61-6.4-8.66-9.37a94.55,94.55,0,0,0-7.41-6.43,7,7,0,0,1,3.84,1.23c3,2.41,6.2,4.68,8.32,8a37.63,37.63,0,0,0,4,5.18,39.41,39.41,0,0,1,6.53,10C67.56,106.84,67.43,106.36,67.17,106.05Zm5.47,18.56a26.67,26.67,0,0,0-.54-7.19,41.92,41.92,0,0,0-8.72-19.24c-2.14-2.59-4.3-5.16-6.18-8a14.38,14.38,0,0,0-3-3.21c-1-.8-1.94-1.65-2.91-2.47l.16-.25c.41.19.82.37,1.22.57A33.15,33.15,0,0,1,62.64,93c5.69,6.54,10,13.69,11.49,22.38,0,2.29.1,4.58.1,6.87,0,4.33-1.41,8.05-4.89,10.83h0l-1.69.68A12.42,12.42,0,0,0,72.64,124.61Z" transform="translate(82.68 -15.13)"/><path class="cls-3" d="M74.41,91.59l-.1-.12A.32.32,0,0,0,74.41,91.59Z" transform="translate(82.68 -15.13)"/></g></g></g></svg>