<svg xmlns="http://www.w3.org/2000/svg" xmlns:xlink="http://www.w3.org/1999/xlink" viewBox="0 0 263.48 224.75"><defs><style>.cls-1{fill:none;}.cls-2{clip-path:url(#clip-path);}.cls-3{fill:#9f8778;}</style><clipPath id="clip-path" transform="translate(-42.69 -11.86)"><rect id="SVGID" class="cls-1" width="215.26" height="160.94"/></clipPath></defs><g id="圖層_2" data-name="圖層 2"><g id="圖層_2-2" data-name="圖層 2"><g class="cls-2"><path class="cls-3" d="M259.85,233.31a18.13,18.13,0,0,1-5.48-11.59,14,14,0,0,0-.24-1.39l0-.32c-.32-3.42-2-6.36-3.43-9.61.83.33,1,1,1.39,1.48s.81,1.09,1.21,1.63c2.15,2.44,2.83,5.46,3.39,8.52a19.16,19.16,0,0,0,6.77,11.77,2.09,2.09,0,0,0,2.14.75c-6.45-4.21-8.12-10.59-9.33-17.46l.09,0,1.14,1.49c1.78,3.91,3,8.08,5.83,11.47a7.28,7.28,0,0,0,3,2.24c.25.1.52.18.65-.17s-.13-.33-.31-.41c-2.6-1.13-3.94-3.4-5.12-5.76-.81-1.62-1.41-3.34-2.16-5.15a12.8,12.8,0,0,1,2.66,3.07,31.59,31.59,0,0,0,4.24,5.27,15.46,15.46,0,0,0,1.35,1.07c.25.18.56.43.82.07s-.1-.52-.36-.69c-2.92-2-4.44-5.13-6.68-7.68-.31-.35.05-.4.28-.48,2.49,1.42,4.28,3.73,6.7,5.24a5.25,5.25,0,0,0,2.59,1c-.82-1-1.84-1.12-2.35-2l0-.08c1.16-.32,2.28.77,3.63-.13a20.89,20.89,0,0,1-4.82-1.5v0c2.15-.45,4.18.9,6.36-.38-1.09-.22-1.83.11-2.58-.33,1.21-.95,3-.56,4.25-2.06-3.72.73-7.09,3-10.78.33a27.5,27.5,0,0,0,13.11-3.74c-2.36.74-4.71,1.53-7.09,2.23a28.8,28.8,0,0,1-6.41.83,5.7,5.7,0,0,1-3.28-.94c.15-.53-1.74-.26-.48-1.22,3.95.95,7.85.36,11.71-.45,2.11-.45,4.16-1.16,6.23-1.76.5-.15,1-.3,1.11-1.09a58.06,58.06,0,0,1-12.16,2.92,29.12,29.12,0,0,1-7.86-.31,5.37,5.37,0,0,1-3.77-2.71c4.72,1.91,9.53,1.66,14.36.88s9.37-2,13.11-5.29a43.64,43.64,0,0,1-7.13,3.15c-5.65,1.64-11.36,2.7-17.26,1.39a11.36,11.36,0,0,1-5.7-2.88c-.13-.53,0-.64.54-.43,8.71,3.56,16.91,1.28,25-2.21,6.18-2.66,10.62-7.42,14.87-12.4a1.19,1.19,0,0,0,.45-1.14c-.68.72-1.23,1.32-1.8,1.9-3.24,3.3-6.33,6.83-10.29,9.26a38.44,38.44,0,0,1-22,5.66,17.36,17.36,0,0,1-6.78-2,3.83,3.83,0,0,1-1.94-1.71c.24,0,.38,0,.48,0a20,20,0,0,0,15,1.35,57.28,57.28,0,0,0,16.9-8,9.48,9.48,0,0,0,1.16-1c2.6-1.92,4.58-4.47,6.9-6.67a44.33,44.33,0,0,1,8.3-6.47,2.53,2.53,0,0,0,1.21-1.5,33.44,33.44,0,0,0-9.06,6.5c-2.72,2.69-5.43,5.4-8.14,8.1a58.93,58.93,0,0,1-12,6.62c-4.47,1.71-9,3.27-13.93,2.47-3.65-.59-7-1.73-9.52-4.67a.47.47,0,0,0-.53-.2c1.17,2.69,2.32,5.39,3.51,8.08a49.09,49.09,0,0,1,1.84,5.53,20.5,20.5,0,0,0,6.44,14.76c.27.26.77.41.65,1a6.2,6.2,0,0,1-3.58-1.46c-.54-.57-1-1.16-1.62-1.71a16.53,16.53,0,0,1-5.09-11.37,42.08,42.08,0,0,0-2.36-12.2,8.89,8.89,0,0,0-.73-2.47c-.17-.49.06-.51.42-.46l.49.19c.54-.52.9-.06,1.33.22,4,2.52,8.23,4.12,13,2.8a31.89,31.89,0,0,0,8.07-3.87h0a66.61,66.61,0,0,0,10.79-7.11c6-4.42,11.9-8.86,17.9-13.22a9.94,9.94,0,0,1,5.59-2.34c.79,0,.87-.75,1.41-1.4-3.86-.16-7.47-1-11.15-.56a5.38,5.38,0,0,1-3.91-1.23,21.73,21.73,0,0,1-4.91-4.36c-1.71-2-1.6-4.33-1.23-6.7l2.31-14.6c.13-.94-.25-1.91.16-2.83-.05-12.94-6.18-22.16-17.36-28.23a58.64,58.64,0,0,0-5.83-2.43c-.68-.28-1.37-.54-2-.84-.21-.1-.32-.3.07-.33a1.59,1.59,0,0,1,.3.06l.17-.42-3.35-.76c-3-1.13-6.26-2-9.12-3.45a43,43,0,0,0-8.86-3.15,35.92,35.92,0,0,0-16.11-.36,25.39,25.39,0,0,1-8.34-.33c-3.66-1.06-6.81-3.12-10-5.1a10.51,10.51,0,0,1-1.41-1.24c-3.32-4.34-7.89-5.91-13.13-6a55.49,55.49,0,0,0-12.87.76,14.76,14.76,0,0,0-3.54,1.31c-1.07,0-1.65-.78-2.33-1.42-1.1-1-2.22-2.07-3.33-3.11-.58-1.13-2.21-1.09-2.65-2.37-.68-.79-1.39-1.56-2-2.38-3.13-4-4.9-8.73-6.88-13.33h0c-1.69-6-3.4-11.9-5.07-17.85a50.48,50.48,0,0,1-1.42-8.37,29.68,29.68,0,0,0-1.7-8.12,15.59,15.59,0,0,1,0-3.13,53.61,53.61,0,0,1,5.58-19A18,18,0,0,1,168,13.28l.24.16c-.07.06-.13.16-.22.2a24,24,0,0,0-10.47,9.51c-3.94,6.57-4.94,14-4.23,21.44.5,5.25,2,10.41,3,15.61A59.15,59.15,0,0,0,158.05,68c2.08,8.48,4.75,16.74,9.59,24.13v0h0l0,0c.22-.36-.08-.69-.1-1-5.33-9-8.32-18.87-10.22-29.1a6.41,6.41,0,0,0-.21-.75c-.65-4.64-1.73-9.2-2.61-13.8a35.87,35.87,0,0,1,3.16-22.9c2-4,5.34-7,9-9.62,1.46-1,3-.47,4.52.09l1.89,1.27c.19.2.36.41.53.62l.5-.73-2-1.44-.71-.23c-.23-.25-.44-.5-.66-.76l-2.39-1.7h0l-1.06-.2.25.21a.07.07,0,0,0,0,0,.53.53,0,0,1-.08.15l-2.35-.13-.49.23c-1.33-.18-2.41.88-3.73.77-.94-.8-1.84.46-2.77.08a5.4,5.4,0,0,1-2.4,0l-3.25.33c-.24.26-.55.2-.85.19h0l-.37,0h0c-.92-.08-1.6.62-2.45.76-3,1.76-5.94,3.5-8.88,5.29a23.05,23.05,0,0,0-8.26,7.92c-3.57,2.87-5.67,6.8-7.75,10.73-.36.68-.54,1.51-1.46,1.71-.58.06-.3.7-.62.94-1.7,1.63-2.27,3.82-2.94,5.95a14.25,14.25,0,0,0-.67,5.12,11.3,11.3,0,0,0,.13,4.53c.9,3.55,1,7.19,1.46,10.79.38,3,.73,6,1.3,9a35.66,35.66,0,0,0,5.57,13.24c.13,2,1.42,3.18,2.76,4.37,3.28,2.92,6.57,5.77,11,6.94a45.19,45.19,0,0,0,22.4,0c3.38-.61,6.75-1.3,10.22-.79-.17.79-.9.6-1.38.71-1.78.4-3.57.7-5.36,1-4.79.36-9.53,1.2-14.37,1.22a46.33,46.33,0,0,1-15.28-2.61A20.23,20.23,0,0,0,133,98.76c-1-.7-2.06-1.45-3.14-2.09-4-2.36-6-6.35-8.36-10.06-3.32-5.25-4.57-11.26-6.05-17.18a14,14,0,0,0-1.09-3.28,3.55,3.55,0,0,0-.09-.47,16.14,16.14,0,0,0-1.15-3.23l-.24-.59a22.79,22.79,0,0,0-6.37-9.45,42.7,42.7,0,0,0-23-11.82c-5.33-.9-10.43.6-15.54,1.85a23.68,23.68,0,0,0-11.08,5.72c-1.28,1.24-2.79,2.3-2.9,4.4C54,53.8,53,54.67,52,55.47c-.4.35-1,.69-.46,1.39A24.62,24.62,0,0,0,48,63.11a1.79,1.79,0,0,0-.54,1.25C47,65.87,45.51,67.2,46.7,69c.1.16-.17.57-.27.87-1,2.84-1.46,5.82-3,8.49a5,5,0,0,0,0,5.36c-.23.89-.5,1.76.37,2.52.52.46.11,1,0,1.56.68,2,1.24,4,2,5.94.57,1.51.87,3.06,1.36,4.56.59,1.76,1.63,2.22,3.08,1.14,8.08-6,17.3-7.9,27.11-7.78.53,0,1.06,0,1.58,0l1.66-.09a.14.14,0,0,1,0,.06v0a24.51,24.51,0,0,1-6,1.7,32.93,32.93,0,0,0-17.82,9.49,12.2,12.2,0,0,1-3.08,2.44,2,2,0,0,1-2.9-.65,9.89,9.89,0,0,1-1.14-2.06c-.31-.71,0-1.58-.77-2.47a5.47,5.47,0,0,0,1.11,4.68,25.25,25.25,0,0,1,1.62,2.79c.9,1.66,1.21,3.85,3.12,4.89-.25,1.42.84,1.88,1.82,2.27a6.38,6.38,0,0,1,2.72,2.31c.34.45.1.89,0,1.34a3.66,3.66,0,0,0,3.86,2.84l2.34,1.35c1.24,0,2.49.57,3.7-.12.94,1.19,2.29,2,3.33,3a5.39,5.39,0,0,0,6.87,1.12,11.56,11.56,0,0,0,4.15-4,28.76,28.76,0,0,0,2.24-5c1.53-4,2.89-8,5.24-11.66a27.42,27.42,0,0,1,10.32-9.05c.07.6-.32.8-.56,1a32.21,32.21,0,0,0-8.32,15.53,27.34,27.34,0,0,1-2.74,7.38,22.89,22.89,0,0,1-4.65,4.88,9.51,9.51,0,0,1-7.07,1.64c3.49,2,9.6-1.42,12.24-6.33a15.77,15.77,0,0,0,2.1-4.54c1.1-3.32,1.52-6.87,3.39-9.93,4.6-9.63,11.2-14,21.18-14.29a5.63,5.63,0,0,0,2.31-.16c.72.11,1.45.19,2.16.35a3,3,0,0,1,2.28,4.16c-1.75,4.85-4.81,8.86-8.28,12.55-3,3.21-5.75,6.53-7.28,10.75-2.61,7.22-1.59,11.67,3.94,17a21.83,21.83,0,0,0,7.25,4.92c4,2.43,8.19,2.17,12.47,1.26,4-.86,8-1.55,12.07-2.18h0c2.86.27,5.18,1.74,7.48,3.29,1,.66,1.78,1.62,3,1.95,3.52,4.11,7.92,3.91,11.25-.23,1.33-1.67,3.07-3,4-5,.16-.34.44-.37.79-.27a1.45,1.45,0,0,0,1.21-.26c2.29-1.62,5.14-2.65,6.1-5.71.3-1,1.62-.72,2-1.58l1.52-1.29c.36.12.62.59,1.1.26,3.55-2.43,7.5-1.58,11.31-1.18,2.5.27,4.8.2,6.92-1.25,2.06-1,2.87-3,3.77-4.84a49.15,49.15,0,0,0,3.3-9.44,9.08,9.08,0,0,0,.24-4.33c-.08-.68.08-.9.73-.63a23.38,23.38,0,0,0,6.87,1.48c.15,0,.28.24.43.38,1.24,1,2.81,1.29,4.21,2a17.9,17.9,0,0,1,6.16,4.77c3,3.75,5.79,7.59,6.5,12.51a.37.37,0,0,0,0,.19q.33,3.07.67,6.15c.1,7-1.27,13.75-2.46,20.56-.11.67-.18,1.34-.27,2-.68,1.77-.63,3.73-1.45,5.47-2.61,5-4.46,10.07-2.89,15.79a12.59,12.59,0,0,0,5,7.38,4.68,4.68,0,0,0,.76.78c4.47,2.89,5,7.32,4.63,12a16.32,16.32,0,0,1-1.14,3.93c-2.6,7.29-.83,13.57,4.42,19a39,39,0,0,0,21.46,11.54c.87.16,2,1,2.61-.64C262.18,235.88,261.05,234.56,259.85,233.31ZM164.09,90.63c-1.65-1.09-3.71-1.3-5.15-2.68a11.11,11.11,0,0,1-5.79-5.7,5.92,5.92,0,0,1-1.47-2.93c.71-.44.17-.9,0-1.34-.51-1.41-1.29-2.73-1.32-4.49l1,1.54a1.78,1.78,0,0,0,.35.51,44.91,44.91,0,0,0,10.93,13.28A3.67,3.67,0,0,1,164.09,90.63ZM151,46.07c.9,4.22.77,8.6,2,12.76,1.55,5.45,2.79,11,4.61,16.35a127.72,127.72,0,0,0,4.92,12.1,9.28,9.28,0,0,1-3.82-3.78c-2.13-4.69-4.52-9.3-5-14.56A50.58,50.58,0,0,0,152,60.4a53,53,0,0,1-1.74-15.76C151,44.9,150.84,45.55,151,46.07Zm13.74-33.38h0l2.42.22a16.56,16.56,0,0,0-11.45,7.84A36.15,36.15,0,0,0,152,29.6a55.76,55.76,0,0,0-1.26,28.09c1,4.37,2,8.73,2.53,13.17a19.49,19.49,0,0,0,1.58,5.6c.69,1.55,1.31,3.13,2,4.69l-.33.2c-.37-.47-.75-.93-1.1-1.42a44.08,44.08,0,0,1-6.89-15.63c-2.8-11.2-3.66-22.32-.13-33.51,1.34-2.73,2.65-5.48,4-8.2C155,17.45,158.88,13.89,164.69,12.69Zm-4.79.89h0c-2.9,2.24-5.8,4.49-7.56,7.84a8.88,8.88,0,0,1-1.46,2.41c-1,2.25-2.43,4.32-3.08,6.73h0a50,50,0,0,0-2.23,22.65,113.42,113.42,0,0,0,2.38,12,37.75,37.75,0,0,1,1.51,6.47c-.26.78.28,1.55,0,2.61-.74-2.94-1.42-5.61-2.09-8.28h0c0-.55-.49-1-.29-1.6h0c-.09-.29-.19-.57-.28-.86-.75-1.95-1.69-3.83-2.25-5.85l-.12-.44a20.19,20.19,0,0,1-1.54-10.93c.54-4.59,1-9.2,2.36-13.64,1-3.29,3.08-6,4.88-8.86C152.77,19.76,155.09,15.49,159.9,13.58Zm-4.51,2.2c-2.64,2.55-4.47,5.7-6.5,8.71-1.68,2.49-3.37,5-4.09,7.94-2,7.35-3.64,14.75-1.79,22.36.9,3.67,2.89,7,3.86,10.68v0a36.69,36.69,0,0,0,.8,3.6c.14,1.14,1,2.18.5,3.41-.22-1-1-1.68-1.49-2.56-2-3.79-3.42-7.81-5.12-11.72a22.84,22.84,0,0,1-1.49-13.16A66.15,66.15,0,0,1,148.74,22c1.65-2,3-4.23,5.22-5.72C154.38,16,154.71,15.38,155.39,15.78Zm-5.54-.38a6,6,0,0,0,1.84-1.12,18,18,0,0,1,4.78-.47c-.34.67-1,.75-1.42,1.12a19,19,0,0,0-6.83,6.85c-3.42,4.6-5.14,10-7.05,15.27a43.6,43.6,0,0,0-2,9.07,21.49,21.49,0,0,0,1.31,11c2.06,5.07,3.95,10.22,6.71,15,.24.42.29,1,.94,1.14.92,2.59,2.49,4.92,3,7.69l-1-1c-1.84-2.87-3.71-5.73-5.53-8.61A52.53,52.53,0,0,1,137,49.79a79.67,79.67,0,0,1,1.15-13.17A16.1,16.1,0,0,1,139.55,32c1.24-2.62,2.35-5.29,3.65-7.87a30.5,30.5,0,0,1,6.06-8.21A.81.81,0,0,0,149.85,15.4Zm-4.16,1.79c.78-.64,1.52-1.61,2.79-1.33-3.27,2.57-5.2,6.11-6.95,9.76-1,2.08-1.88,4.21-2.82,6.32a16.58,16.58,0,0,0-1.4,5c-.46,4.11-1.21,8.2-.91,12.36a42.93,42.93,0,0,0,3.9,15.15,61.7,61.7,0,0,0,7,12.07,5.61,5.61,0,0,1,.49,1,3.09,3.09,0,0,1,1.27,2.18c-.5-.44-1.14-.77-1.3-1.5-3.59-3.66-7-7.44-9.15-12.2a53.3,53.3,0,0,1-4.38-30.33c.27-1,.6-1.9.8-2.88a22.08,22.08,0,0,1,6.37-11.59C142.81,19.81,144.19,18.42,145.69,17.19Zm-2.81,1.6a26,26,0,0,0-9.11,16.6c-.13.56-.28,1.11-.39,1.68-1,4.94-.36,9.85.28,14.76a44.1,44.1,0,0,0,12,25.23c2.42,2.56,5.33,4.62,7.53,7.4l3.12,2.7-.16.22-1.72-.64a4.87,4.87,0,0,0-1.28-1.57,19.31,19.31,0,0,0-3.56-2A32.7,32.7,0,0,1,138.7,72c-2.26-4.09-3.23-8.68-5-13l-.42-.17q1.55,4.92,3.11,9.85c.09.26.25.53,0,.77l-.16,0c-.75-1-1.49-2-2.24-3v0a79,79,0,0,1-4.9-20c-.55-5,1-9.54,2.83-14a4.78,4.78,0,0,1,.77-2.06c.5.92-.15,1.68-.35,2.51a37.5,37.5,0,0,0-1.51,13.65l.48.44a44.32,44.32,0,0,1,1.8-14.66c.2-.76.34-1.53.51-2.3C133.84,23.93,138.1,21.16,142.88,18.79ZM131.18,62c-.92-1.89-1.79-3.8-2.78-5.64-3.43-6.41-3-12.91-.51-19.46.11-.3.21-.59.32-.88,1-1.92,2.07-3.85,3.1-5.77A10.08,10.08,0,0,1,133.17,27,6.86,6.86,0,0,1,132,30.3c-.29.73-.56,1.47-.87,2.2a30.34,30.34,0,0,0-1.81,20c.72,2.8,1.48,5.6,2.14,8.41C131.48,61.2,132.32,61.92,131.18,62Zm-1.29-31.93c.32-.37.48-1.1,1.26-.83l-3.44,6.57a17.7,17.7,0,0,0-2.32,7.72,29.75,29.75,0,0,0,.24,8.58c.56,2.18,2.05,3.94,2.82,6a67.38,67.38,0,0,0,4.24,7.56c1.33,1.84,2.36,3.92,4.2,5.36h0l1.29,2.17c0,1.11-.45.28-.63.1-1.59-1.56-3.16-3.14-4.73-4.71-.3.23-.09.5-.06.75a58.05,58.05,0,0,0,6.76,6.45,40.73,40.73,0,0,0,5.64,5.1l4.19,2.74a14.34,14.34,0,0,1,1.56.94c.49.38,1.41.26,1.42,1.2h0l-5.06-2.64h0a.52.52,0,0,0-.11-.1c-.64-.53-1.6-.61-2-1.42-.56-.27-1.14-.51-1.67-.83-6.43-4-11.81-9-15.31-15.73a41.32,41.32,0,0,1-4.56-24.72C125.39,36.78,127.17,33.14,129.89,30.08ZM146,83c-1.09.18-1.89-.5-2.77-.94-2.47-.81-4.47-2.46-6.7-3.71-.62-.49-1.23-1-1.86-1.46a41.38,41.38,0,0,1-10-10.64c-4.21-6.66-4.11-13.84-2.63-21.19,0-.72-.26-1.49.56-2-.12.71.16,1.44-.13,2.14a46,46,0,0,0,1.59,11.5c2.93,11,9.76,19.06,19.38,24.89A8.83,8.83,0,0,1,146,83ZM118.63,52.4c.38-3.6.94-7.14,3.14-10.61-.42,3.17-.78,5.94-1.15,8.7a22.92,22.92,0,0,0,.54,9.07c2.34,8.58,8.18,14.4,15.25,19.22,3.23,2.75,7.3,3.92,11,5.81.92.47,2,.7,2.68,1.59-1.63-.39-3.27-.76-4.9-1.16C131.3,81.56,118.19,67.6,118.63,52.4Zm1.37,12c.58.29.66.79.86,1.2a37.61,37.61,0,0,0,21.53,19.3c3.52,1.28,7.26,1.78,10.81,2.93a4.63,4.63,0,0,1,2.3.73A3.88,3.88,0,0,1,153,88.4c-5.59-.66-11.18-1.36-16.47-3.48-8.07-3.23-13.63-8.77-16-17.28A8.12,8.12,0,0,1,120,64.43Zm1.19,9.07a3.92,3.92,0,0,1-.39-2.17l.41-.15c.52,1.24,1,2.48,1.54,3.71a27.84,27.84,0,0,0,12.41,10.34c6.53,2.83,13.48,3.67,20.44,4.26a21.58,21.58,0,0,1,12.69,5.19,3.44,3.44,0,0,1,1.59,1.41,6.36,6.36,0,0,1-2-1h0c-1.86-.86-3.75-1.67-5.58-2.59-3.89-1.94-8.06-1.74-12.21-1.59-5.95.22-11.74-.15-17.12-3.15C127.16,84.53,122.43,80.48,121.19,73.5Zm1.92,7c1.09,1.25,2,2.42,3,3.43,3.77,3.67,8.4,5.82,13.37,7.33,2.72.41,5.47.47,8.21.64h0l3.29-.09c3.41-.11,6.82-.26,10.07,1.1l1.65.68c-.66.39-1.24,0-1.83-.21h0a3,3,0,0,0-.87-.3c-4.27-.23-8.53-.43-12.79-.64a58.27,58.27,0,0,1-7.92-.71h0a15.91,15.91,0,0,1-6.09-1.64,37.79,37.79,0,0,1-8.86-6.63A5.27,5.27,0,0,1,123.11,80.47Zm2.49,6.26a.82.82,0,0,1-.26-.3l.26.3-.66-1.57A35.39,35.39,0,0,0,133,90.49c3,1.72,6.3,1.88,9.59,2.14,4.75.39,9.51.69,14.29.78A18.8,18.8,0,0,1,167,96.47c.36.24,1.06.3.82,1a.24.24,0,0,0-.4-.05,61.17,61.17,0,0,0-21.16-3.3c-3.21-.43-6.42-.84-9.63-1.29A22.4,22.4,0,0,1,128,89.81,10.17,10.17,0,0,1,125.6,86.73Zm3.7,5.21h0l-.06-.05c.08-.19-.61-.86.31-.52,1.08.39,2.13.9,3.22,1.25,3.08,1,6.32,1,9.47,1.49.72.12,1.55-.08,2.11.6C138.94,95.87,133.77,95.81,129.3,91.94ZM134,97c.05-.08.11-.24.15-.24,6.93,1.1,13.88-.27,20.82.1l4.39.25c.28-.19.87.3.91-.42-5.64-.75-11.3-.33-17-.17l-1.88.07a18.4,18.4,0,0,1-9-.9,12.52,12.52,0,0,1-2.82-2l.15-.42a16.39,16.39,0,0,0,5.49,2.55c2.32.59,4.65.27,7,.14h0a39.63,39.63,0,0,1,18.25.29,16.64,16.64,0,0,1,5.2,1.71l-6.45-.43a60.35,60.35,0,0,0-10.82,1C143.4,99.46,138.51,99.72,134,97Zm7.46,3.1Zm18.53.88a44,44,0,0,1-18.94-.45l.4-.42a21.72,21.72,0,0,0,7.15.06c3.88-.45,7.69.63,11.56.45,0,0,.06.11,0,.13A1.55,1.55,0,0,1,159.94,100.93Zm7.88-1.58-3.09.5a1.5,1.5,0,0,0-1,.08c-4.55.38-9.06-.41-13.6-.5a25.5,25.5,0,0,1-3.25.3c-.46,0,.13-.23.14-.38l3.3-.48a1.51,1.51,0,0,1,.58-.08,32.72,32.72,0,0,1,4.84-.53c3.82-.34,7.63.38,11.44.23l1.17.21a4.07,4.07,0,0,1,2.33.69Zm1.43-1.7c-.32-.73-1.49-.78-1.46-1.8A22.41,22.41,0,0,1,172,98.58C170.79,98.71,170.07,98,169.25,97.65ZM57.62,48.8c.14-.56.66-.76,1.05-1.09,4-3.42,9-4.27,14-5.51a27.61,27.61,0,0,1,17,.83c2,.75,3.88,1.6,5.82,2.41-.06.18-.13.36-.2.53C82.54,44.2,69.81,42.76,57.62,48.8Zm-2.48,3.78a9.58,9.58,0,0,1,4.62-3.9c8.1-3.47,16.55-4.15,25.2-3,4.22,1.47,8.48,2.82,12.61,4.54,6.8,2.83,10.86,7.9,12.55,15,.18.76-.28.19-.43.26-4.2-9.35-11.61-14.63-21.36-17.09a59.37,59.37,0,0,0-10-1.21c-7.28-.59-14.28.26-20.73,4A7.62,7.62,0,0,1,55.14,52.58Zm36.6,8a24.81,24.81,0,0,1,11.57,9.63c2.89,4.27,5.87,8.47,8.83,12.69.28.4.46,1,1,1.09l.85,1.32c-.82.41-1.27-.24-1.74-.68a63,63,0,0,1-8-9.08A67.22,67.22,0,0,0,92.26,63a20.37,20.37,0,0,0-5.55-3.28C79.81,57,73,54,65.4,53.85a5.35,5.35,0,0,1-2.54-.22l.27-.06h0a6,6,0,0,1,2.72-.27l2-.1C76.18,54.49,84,57.57,91.74,60.61Zm-5.1-2.56h0c.78-.4.78-.4,2.56.27l2.22.45c4.69,1.64,9.13,3.67,12.59,7.43a42.71,42.71,0,0,1,5.58,7.67l0,.06,2.48,6,0,.19c.14.62.28,1.29.51,2.33-1.9-2.71-3.53-5.07-5.2-7.4-2-2.73-3.87-5.49-5.93-8.14C98.32,62.73,93.76,60.59,89,58.8h0Zm27.21,25-.12-.27c-1.28-3.58-2.4-7.22-4.42-10.48A27.29,27.29,0,0,0,96.49,60.13a22.18,22.18,0,0,0-4.9-1.75,69.3,69.3,0,0,0-7.66-2c-4.53-1.3-9-2.69-13.68-3.58a4.2,4.2,0,0,0-2.17-.16,18,18,0,0,0-6.74.5L58,53.82c.35-.69,1.07-.81,1.68-1.08a28.34,28.34,0,0,1,13.57-2.19c7.73.51,14.52,3.94,21.49,6.91,6.71,2.85,11.21,7.76,14.94,13.72a88.39,88.39,0,0,1,5.65,11.26h0a33.83,33.83,0,0,0,2.56,5.62C115.89,86.86,115.08,84.78,113.85,83Zm-8.74-19.3c-.32-1.77-1.63-2.88-2.79-4.08-5-5.2-11.48-7.58-18.34-9.09a72.58,72.58,0,0,1-7.25-2.13c-.32-.11-.86,0-.84-.62,2.25.16,4.51.28,6.76.48,7.15.66,13.68,2.92,19.13,7.74,5.93,5.24,8.62,12.45,11.65,19.44a6,6,0,0,1,.16,1A72.32,72.32,0,0,0,105.11,63.72Zm-50.37-9.8c6.1-4.15,12.36-6.56,19.59-5.7,5.12,1.93,10.46,3.1,15.69,4.62a28.33,28.33,0,0,1,11.27,6.66c.71.53,1.57.94,1.57,2-.45-.54-1.22-.73-1.57-1.39a103.39,103.39,0,0,0-16.15-7.51c-9.71-3.7-19.37-4.18-28.82.94A2.16,2.16,0,0,1,54.74,53.92Zm5.37.43c3.19.17,6.43-.13,9.57.52,7.08,1.45,14.06,3.41,20.25,7.24,5.38,3.34,9.49,8.13,13.28,13.13a58.23,58.23,0,0,0,10.24,11.08c.18.14.5.26.27.6a11.7,11.7,0,0,1-3.91-2c-3.06-2.32-5.32-5.37-7.59-8.41-2.74-3.66-5.36-7.4-9.29-10A68.79,68.79,0,0,0,73.6,57.72C69,56.4,64.29,55.5,59.42,56.18a58.2,58.2,0,0,0-7.35,1.76A11.64,11.64,0,0,1,60.11,54.35Zm-11.57,9a8.46,8.46,0,0,1,6-5.29,28.1,28.1,0,0,1,13.25-.89,68.08,68.08,0,0,1,18.3,6.25c5.49,2.83,10.41,6.26,14,11.5,2.84,4.18,5.82,8.31,10.07,11.38-1.21.6-1.84-.43-2.7-.62a25.08,25.08,0,0,1-7.33-8.53A24.63,24.63,0,0,0,91,67.71a72.62,72.62,0,0,0-19.08-8.14c-8.24-2.28-15.93-1.42-22.84,4C48.79,63.79,48.66,63.59,48.54,63.33Zm2.26,1.43a36,36,0,0,0-3.55,3.14c0-1.27.76-2,1.22-2.88A21.84,21.84,0,0,1,67,59.27a62.93,62.93,0,0,1,25.35,10,24.51,24.51,0,0,1,7.85,9.12c.22.42.44.85-.37.48-2.43-3.12-5-6.16-8.33-8.32A52.88,52.88,0,0,0,61.3,61.86,18.76,18.76,0,0,0,50.8,64.76ZM57,63.13A32,32,0,0,1,68.58,63c11.54,1.68,22,5.6,29.61,15a84.79,84.79,0,0,0,6.43,7.5c-.81.23-1.27-.31-1.85-.3-4.36-2.8-8-6.45-11.81-9.94C80.83,66,69,62.23,55.38,64.18l0,0,0,0c-1.41.43-2.72,1.23-4.27,1.15A16.29,16.29,0,0,1,57,63.13ZM46.28,73.62a9.6,9.6,0,0,1,2.86-6.15C55.8,63.23,63,64,70.27,65.11c6.51,1,12,4.21,17.14,8,.57.42,1.3.7,1.64,1.41l10.29,9h0c.74.47,1.67.71,2,1.66-.75-.35-1.64-.48-2.16-1.24a11.51,11.51,0,0,1-3-1.91C93.58,80,91.43,77.44,89,75.22c-1.71-1.08-3.42-2.17-5.15-3.23-5.52-3.4-11.72-4.52-18-5.3-7.27-.91-13.45,1.43-18.64,6.52C46.94,73.47,46.73,73.72,46.28,73.62ZM98.68,85.4a19.9,19.9,0,0,1-9.46-5.68c-1.9-2.14-3.84-4.26-5.76-6.38-.86-.56-2-.8-2.27-2l2.34,1.34A35.36,35.36,0,0,1,91,78.12c2.66,2.67,5.25,5.4,8.74,7C99.58,86,99,85.49,98.68,85.4ZM43.85,80.26a4.57,4.57,0,0,1,1.22-3.45c4.78-6.3,10.93-10,19.06-9.44a48.18,48.18,0,0,1,13.4,2.72,32.65,32.65,0,0,1,10.26,9,21.8,21.8,0,0,0,4.07,3.9l2.74,1.58h0l-.17.39a7.07,7.07,0,0,1-2.6-1.3c-2.64-1.18-4.65-3.23-6.77-5.1a39.71,39.71,0,0,0-8.16-5.64c-10.45-5.35-23.62-1.71-30.51,4.68a15.35,15.35,0,0,0-2.23,2.66Zm1.57-.58a26.94,26.94,0,0,1,37-2.36c.49.4,1,.8,1.45,1.22,3.19,2.82,6.38,5.65,10.49,7.11l1.09.26c.17.55,1.25,0,1.11.92-.79-.31-1.68-.2-2.42-.67-1.6-.8-3.41-1-5-1.88-2.26-1.25-4.55-2.43-6.81-3.67-4.45-2.43-9-4.94-14.07-5.37-7.88-.67-15.59,0-22.39,4.69C45.41,80.26,45.42,80.06,45.42,79.68Zm.18,5.22c-.42.29-.93.8-1.4.55s-.11-1-.21-1.47v0c1.09-2,2.3-3.91,4.48-4.87a35.57,35.57,0,0,1,22.19-2.66c5.38,1.15,10,4.18,14.79,6.59.7.35,1.62.48,1.88,1l-2.45-.92-.3-.11c-2.5-.93-5.09-1.88-7.64-2.92a21.72,21.72,0,0,0-8.22-2C60.35,78.13,52.57,80.12,45.6,84.9Zm-.31,4.68A2.74,2.74,0,0,1,46,85.51,38,38,0,0,1,60.3,79.63c6.21-1.21,12.19-1.21,18,1.84,3.39,1.79,7,3.15,10.51,4.7,2.94.73,5.81,1.79,8.88,1.93.25,0,.56.19.74.1,1.57-.81,3.16-.16,4.73-.06.76,0,0,.28-.05.43a29.79,29.79,0,0,1-10-.36l-4.71-1.46c-3.33-.66-6.32-2.29-9.5-3.37-5.38-1.81-10.78-2.9-16.36-.83A75,75,0,0,0,52,87.28c-1.61.9-3.24,1.75-4.89,2.58A1.33,1.33,0,0,1,45.29,89.58ZM46,92c-.21-.86-.06-1.13.82-1.38a14.19,14.19,0,0,0,3-1.38,87.51,87.51,0,0,1,10-5c3.79-1.52,7.65-2.74,11.81-2a42.86,42.86,0,0,1,10,2.91,44.65,44.65,0,0,0,6.85,2.35c1,.25,2.2.23,3,1.1-1.56.46-3-.51-4.6-.23-2.47-.5-4.94-1-7.41-1.48a35.26,35.26,0,0,0-13.31.13,51.9,51.9,0,0,0-16.51,6.48C47.06,95.1,46.73,94.86,46,92ZM76.62,90.9c-9.41,0-18.26,1.91-26.09,7.47-2,1.39-2.39,1.12-2.9-1.31-.08-.36-.16-.72-.22-1.08s0-.69.43-.86C51.19,94,54,91.77,57.31,90.48c8-3.16,16.19-4.44,24.7-2.23a13.44,13.44,0,0,0,4.46.66l1.19.21c.09.64-.56.46-.8.71l-.54.15A70,70,0,0,1,76.62,90.9ZM52.9,108a1.19,1.19,0,0,1-.72-1.13c0-.35.24-.42.51-.46,1.91-.27,3.22-1.57,4.45-2.83A32.83,32.83,0,0,1,74.67,94.2c2.55-.51,5.07-1.18,7.59-1.78l0,.2c-1.11.46-2.21.94-3.33,1.37-6.55,2.56-12.91,5.4-17.78,10.78a13.39,13.39,0,0,1-5.08,3.12A3.93,3.93,0,0,1,52.9,108Zm1.91,4.4s0,0,0,0v0h0c.15-.29.57-.54.18-.91-.59-.56-1.6-1-1.27-2s1.45-.46,2.19-.72c1.47-.5,2.71-1.45,4.57-2.22-1.19,1.86-2.07,3.4-3.14,4.79C56.77,112.15,56,113,54.81,112.43Zm1.06.81c1.85-.68,2.8-2.2,3.69-3.77,3.47-6.1,8.68-10.18,15.07-12.86,3.49-1.46,7-2.89,10.49-4.34l.11,0,.07-.09a3.21,3.21,0,0,0,.43-.07,28.68,28.68,0,0,0,3-1c4.59-1,9.28-.69,13.91-1.21-1,.8-2.19.74-3.26,1.15-.93.08-1.87.22-2.81.23-3.75,0-7.22,1.64-11,1.94-1.91.15-3.72,1.38-5.59,2.11-6.23,2.44-11.28,6.26-14.43,12.31a24.76,24.76,0,0,1-3.54,5.58C59.47,116,58.62,115.31,55.87,113.24Zm3,2.46A4.42,4.42,0,0,0,62.45,114,16.75,16.75,0,0,0,65,110.36a53.3,53.3,0,0,1,3.71-6,19.69,19.69,0,0,1,9.88-7.12l-1.69,1.56a29.11,29.11,0,0,0-7.58,9.87c-1.33,2.66-2.82,5.27-5.34,7.07C62.42,116.39,60.89,117.53,58.86,115.7Zm1.49,3.11c-.23-.68-.38-1.33.77-1.38a5.87,5.87,0,0,0,3.66-1.64c2.22-1.26,3.37-3.49,4.41-5.59a36.64,36.64,0,0,1,8.48-11.39c2.14-1.43,4-3.29,6.78-4.08a10.46,10.46,0,0,1-1,.82c-6.45,4.16-11,9.94-14.45,16.72a31.93,31.93,0,0,1-4.77,7.38A2.4,2.4,0,0,1,60.35,118.81Zm4.74,2.83c-.53-.18-1.13-.43-.75-1.22a20.88,20.88,0,0,0,4.47-6.24c2.42-4.51,4.93-8.93,8.55-12.63,5.3-5.42,11.46-9,19.2-9.44.49,0,1-.35,1.48.18l-.75.37h0c-.35.13-.7.24-1,.39a54.33,54.33,0,0,0-17.19,12.86c-4.2,4.53-8.14,9.41-9.43,15.77A5.69,5.69,0,0,1,65.09,121.64Zm7.08,2.49a1.88,1.88,0,0,1-1.59-1.89,8.86,8.86,0,0,1,1.1-4.55A50.41,50.41,0,0,1,81.9,104.12a60.07,60.07,0,0,1,20-12.72,3.07,3.07,0,0,0,1.17-.4c3.74-1.47,7.53-2.6,11.62-1.83a11.64,11.64,0,0,1,3.24.79c-1.27.53-2.48-.1-3.72-.21a27.21,27.21,0,0,0-3,.15,43.32,43.32,0,0,0-28.37,16.44c-4,5-6.58,10.75-9.25,16.48C73.31,123.42,73.28,124.4,72.17,124.13Zm16-14.54c-1.63,3.43-2.67,7.08-4.2,10.54-1.23,2.78-3,5.09-5.9,6.24a3.78,3.78,0,0,1-4.33-1,8.85,8.85,0,0,0,4.66-4.83c1.51-3.29,2.68-6.76,4.62-9.84,2.63-4.18,6.54-7.06,10.42-9.95a6.42,6.42,0,0,1,3.42-1.84l-1.92,1.49A26.91,26.91,0,0,0,88.17,109.59Zm25.48-17.92a52.85,52.85,0,0,0-27.86,14.45,23.33,23.33,0,0,0-5.4,8.07c-.92,2.24-1.88,4.46-2.92,6.65a6.89,6.89,0,0,1-3.7,3.76,73.12,73.12,0,0,1,3.74-8.08c6-12.59,15.55-21.18,29.09-25a21.5,21.5,0,0,1,11-.45C116.17,91.69,114.88,91.46,113.65,91.67Zm4.9-5.45c-.93-2.24-1.87-4.47-2.8-6.71l-.11-.3-1-3.32a3.24,3.24,0,0,0-.53-2.08A90.73,90.73,0,0,1,110,62.89c-1.94-6.46-6.3-10.62-12.35-13.22-3-1.29-6.1-2.27-9.19-3.29-.4-.13-1,0-1.13-.63,1.83.2,3.66.36,5.49.6a21,21,0,0,1,10.78,4.49,30.45,30.45,0,0,1,8.55,11c1.3,4,2.61,7.89,3.54,12A43.39,43.39,0,0,0,120.22,86c1.14,1.95,2.4,3.82,3.77,6C121.17,90.75,120,88.34,118.55,86.22Zm35.67,19.72A60.22,60.22,0,0,1,170,110.22c5.15,2.31,9.84,5.15,11.68,11a.36.36,0,0,0,0,.29c0,.18,0,.41,0,.73-.36-.46-.65-.77-.88-1.11a19.35,19.35,0,0,0-12.54-8.55c-6.28-1.31-12.5-2.85-18-6.42-.39-.25-1.45-.18-1-1.2A27.61,27.61,0,0,0,154.22,105.94Zm-6.51-.67A40.9,40.9,0,0,0,162,111.79c2.09.54,4.19,1.06,6.3,1.49,7,1.41,11.25,6,14.18,12.13-.26,1.26.32,2.7-.83,3.76a30.44,30.44,0,0,0-1-3.95c-2.14-5.47-6.57-8.3-11.89-10-3.11-1-6.39-1.28-9.48-2.4-6-2.18-11.27-5.68-16.77-8.76-.24-.14-.65-.24-.32-.68C144,104.05,146,104.3,147.71,105.27Zm-12-4.33.68.23h0a11,11,0,0,0,3.68,2.13c2.89,1.72,5.78,3.42,8.66,5.15a50.07,50.07,0,0,0,17.35,6.86,17.6,17.6,0,0,1,4.4,1.2c4.87,2.22,8.9,5.21,10.05,10.88.44,2.16.26,4.07-1.55,5.57-1.28.73-1.59,0-1.61-1.09-.07-5.63-3.29-9.24-7.75-12a45.06,45.06,0,0,0-11.26-4.49c-6.25-1.83-12.44-3.69-17.24-8.44-1.86-1.84-3.75-3.64-5.63-5.45a3.27,3.27,0,0,1-1.44-1.4A4.12,4.12,0,0,1,135.7,100.94Zm40.66,28.79c-.26-.18-.35-.21-.4-.28-.16-.27-.32-.54-.45-.82-1.39-2.93-3.75-4.84-6.48-6.48-3.88-2.32-8.24-3.11-12.53-4.12-6.13-1.44-11.59-4.11-15.92-8.78-1.34-1.44-2.51-3-3.76-4.57a5,5,0,0,1-1.82-2.76l1.78,1.68c.1,0,.22.05.28.12,4.07,4.67,8.74,8.46,14.78,10.36,4.21,1.33,8.47,2.53,12.6,4.09a22.36,22.36,0,0,1,9.61,6.4A9.33,9.33,0,0,1,176.36,129.73ZM126.38,97c.6,1.46,1.22,2.91,1.82,4.37a11.59,11.59,0,0,1,.6,6.2c-.76,5-1.45,10.09-2.17,15.14A11.83,11.83,0,0,0,130.55,134v-.21a.5.5,0,0,1,0,.21c2.09,2.26,4.85,3.44,7.59,4.65.52.23,1.15.24,1.5.79-2.18-.21-4.4.08-6.56-.56a16.23,16.23,0,0,1-11.23-16.3c.29-4.2,1.64-8.14,2.55-12.19,1-4.3,2.27-8.58,1.57-13.09Zm4.92,43.12a14,14,0,0,1-3.86-.43c-11.08-4.89-13.23-16.23-4.7-26a5.94,5.94,0,0,1-.18,1.08,26.91,26.91,0,0,0-1.47,9.15c0,6.88,5.33,14,11.74,15.56C132.59,140.41,131.84,140.06,131.3,140.14Zm-11.76,1.17h0c-.41-.49-1.15-.57-1.44-1.2-3.24-1.48-5.65-4-7.9-6.63a10.47,10.47,0,0,1-2.34-9.14,25.18,25.18,0,0,1,6.83-13.25,44,44,0,0,0,9.09-12.61,2.21,2.21,0,0,1,.54-1.4,1.38,1.38,0,0,1,.07,1.46c-1.72,4.93-3,10-6.08,14.41-1,1.47-2,2.94-3,4.45-2.41,3.81-4.24,7.76-3,12.47,1,3.82,2.61,7.19,5.82,9.64l1,.57c.89,1,2.25,1.4,3.4,2.41C121.19,142.42,120.48,141.6,119.54,141.31Zm20.72-.6a1.36,1.36,0,0,1-.42,0c-3.2.59-6.4,1.16-9.59,1.78a11.76,11.76,0,0,1-9.3-1.84c-.56-.38-1.14-.71-1.72-1.07-.19-.18-.37-.36-.57-.53-6.21-5.2-7.57-12.46-3.65-19.52a14.8,14.8,0,0,1,1.39-2.3c4-5,6.34-10.88,8.38-16.88a1.68,1.68,0,0,1,.58-1.6,3.13,3.13,0,0,1,0,2.06c-.7,4.11-1.52,8.19-3.45,11.93-1.09,2.1-2.16,4.22-3.4,6.23-5.21,8.37,1.58,19.6,8.75,21.2a9.33,9.33,0,0,0,6.7.22l6.39-.19a3.52,3.52,0,0,1,2-.17C141.79,141,141,140.7,140.26,140.71Zm4.46-.57A17.87,17.87,0,0,0,140.8,139a38.4,38.4,0,0,1-7.63-3.7c-.9-.62-1.72-1.36-2.58-2.05a11.31,11.31,0,0,1-3.07-10.46c.94-4.91,1.23-9.9,2.09-14.82a9.94,9.94,0,0,0,0-5.08q-1.12-2.61-2.24-5.22c-.09-.33-.19-.67-.3-1.06.9.42,1,1.43,1.68,1.91a22.27,22.27,0,0,1,1.8,5.74,25.42,25.42,0,0,1,.58,7.63c-.17,3.76-1,7.49-.36,11.27h0c.38,3.37,2.28,5.81,4.86,7.78a60.32,60.32,0,0,0,7.47,4.73,31.2,31.2,0,0,1,9.36,7.37c.18.42.35.84.68,1.63A20.76,20.76,0,0,0,144.72,140.14Zm-12.65-27.75a21.35,21.35,0,0,1,1.46,6.33,18.41,18.41,0,0,0,4.93,10.7,44.06,44.06,0,0,0,8.12,6.47c1.9,1.21,3.95,2.26,5.08,4.37l.16,1,0,0a35,35,0,0,0-6.61-5.12c-2.26-1.32-4.5-2.7-6.74-4.07a14.83,14.83,0,0,1-6.67-7.49C130.76,120.48,131.69,116.45,132.07,112.39ZM158.76,148c-.58.22-1.2-.26-1.72-.63a9,9,0,0,1-3-3.94c-1.43-3.43-3.36-6.39-6.88-8.07a29.31,29.31,0,0,1-5.28-3.73c-4.17-3.28-7-7.39-7.62-12.78-.09-.81-.56-1.62-.15-2.57l2,3.66,0,.06a18.75,18.75,0,0,0,5.29,6.18c3.41,2.64,6.85,5.25,10.23,7.93a23.81,23.81,0,0,1,5.08,5.38,15.36,15.36,0,0,1,2.36,6.95C158.8,147,159.42,147.75,158.76,148Zm1.58-.08c-.54-.11-.27-.6-.16-.9,2.07-5.8-.29-10.47-3.74-14.87-2.52-3.21-5.86-5.41-9.23-7.56-3.29-1.79-6.51-3.65-8.52-7-.11-.19-.33-.55-.72-.41h0a6.28,6.28,0,0,0,1.88,3,26.84,26.84,0,0,0,6.07,4.46c3.94,2.33,7.79,4.8,10.52,8.6,2.6,3.6,4.67,7.37,3.48,12.08-.43,0-.49-.35-.54-.65-.66-4.19-3.15-7.25-6.16-10a94.93,94.93,0,0,0-8.27-6.57c-3.71-2.67-7-5.67-9.16-9.79h0c-2.35-4.24-3.42-8.86-4.17-14a41.32,41.32,0,0,1,4.32,8.9A5.45,5.45,0,0,0,137,116c.13.34.13.79.68.72a1.23,1.23,0,0,0,.12.26c.51-.47-.19-.88-.07-1.36l.69.51h0c.23.34.44.7.69,1a24.55,24.55,0,0,0,8.14,6.77,65.28,65.28,0,0,1,9.52,4.8,21.94,21.94,0,0,1,5,4.75h0a15.51,15.51,0,0,1,1.78,11,9,9,0,0,1-1.06,3C162,148.17,161.11,148.09,160.34,147.93Zm3.95-1.68c0,.08-.26.07-.45.12,1.26-4.91,1.08-9.55-2-13.74-2.09-3.38-5.44-5.18-8.82-6.91-1.88-1-3.83-1.76-5.72-2.67a23.23,23.23,0,0,1-8.76-7.79,11.45,11.45,0,0,0-1.64-2.42c.68-.7.84.2,1.1.43,1.6,1.41,3.07,3,4.72,4.33a30,30,0,0,0,10.61,5.22,24,24,0,0,0,4,1.85c6.21,2.78,9.23,7.64,9.61,14.34C167.05,141.84,165.57,144,164.29,146.25ZM164,125.69a21.81,21.81,0,0,0-4.6-1.4,56.65,56.65,0,0,0-6-1.92,51.09,51.09,0,0,1-7.6-3.28,2.73,2.73,0,0,1-1.51-.88l.24-.42,1.47.81.69.09a14.54,14.54,0,0,0,1.87.79c3.22.92,6.43,1.84,9.68,2.66a17.68,17.68,0,0,1,6.87,3.58C164.8,126.46,164.37,125.8,164,125.69Zm1.7,1.43c4.65,2.32,6.71,11.19,1.57,15.45a17.33,17.33,0,0,0-1.1-10.21,14.74,14.74,0,0,0-5.64-6.75c1.17-.54,2,.38,3,.66A21.81,21.81,0,0,1,165.74,127.12Zm6.16,12.31c-1.06.48-1.3.21-1.1-.85,1.06-5.54-1.18-9.81-5.19-13.38a3.81,3.81,0,0,1-1.67-1.43c.78.17,1.33.23,1.73.7,4.46,2,7.58,5.12,8.62,10.1C174.82,137.08,174.27,138.37,171.9,139.43Zm3.85-3c-.71,0-.43-.74-.51-1.14-1-4.55-3.12-8.16-7.42-10.4-6.58-3.42-13.71-5-20.83-6.66-4.58-1.31-7.78-4.5-10.82-7.91a68.51,68.51,0,0,1-6-10.46,17.62,17.62,0,0,0-1.52-2.37c-.13-.34-.33-.67,0-1l4.09,4.11c1.38,1.79,2.81,3.54,4.13,5.37a31.5,31.5,0,0,0,18.52,12.62c2.76.69,5.57,1.23,8.27,2.09,5.64,1.79,10.35,4.78,12.31,10.79.41,1.25,1.16,2.49.78,3.91C176.59,135.81,176.38,136.42,175.75,136.39ZM173.55,111a58.47,58.47,0,0,0-19.08-5.85,3.61,3.61,0,0,1-2.47-.9c2.71-.07,5.14-.13,7.57-.22a29.33,29.33,0,0,1,15.21,3.51c5.83,3.13,10,7.56,10.41,14.58.15,2.42-.82,5.86-2,7C184.12,120.63,181,114.92,173.55,111Zm11.11,18.16a15.26,15.26,0,0,0-1.15-15.18c-2.87-4.45-7.21-7.16-12-9.17,5.23.4,10,1.92,13.84,5.63,4.45,4.28,5.42,9.89,2.59,15.27A8.7,8.7,0,0,1,184.66,129.11Zm1.37.52c6.37-6.41,5.47-14.64-.55-20.67a15.77,15.77,0,0,1,5.18,3c3.37,2.84,4.6,6.64,4.39,10.86S191.38,129.62,186,129.63Zm5.94-.32a8,8,0,0,0,4.08-7.43c-.25-5.27-2.34-9.56-7.08-12.27a46.35,46.35,0,0,0-13.26-5.36,5.22,5.22,0,0,1-2.41-.58,6.66,6.66,0,0,1,2.88,0A39.52,39.52,0,0,1,193.7,110a13.21,13.21,0,0,1,5.14,14.51A6.59,6.59,0,0,1,192,129.31Zm2.91.53c3.59-1.38,5.05-4.17,5.25-7.77.31-5.59-1.71-10.07-6.46-13.2-4.93-3.24-10.5-4.75-16.16-6.05h-3.38c1.17-.93,2.54-.58,3.85-.56,7.16-.2,13.79,1.27,19.43,6a30.18,30.18,0,0,1,2.88,3.32c.13.26.27.51.4.76l1.34,3.21c.84,4.1.88,8.12-1,12C198.87,130,196.82,130.81,194.88,129.84Zm7.11-2.57c.27-.72.54-1.43.82-2.15a21.31,21.31,0,0,0,.38-6.85,14.46,14.46,0,0,0-3-7.75c-3.17-4.56-7.87-6.67-13-8a39.51,39.51,0,0,0-14.42-.55h0l-2.86.46h0c-.22-.24-.65.18-.8-.26h0l4-1,.74,0c.65-.44,1.52.1,2.14-.49a33.42,33.42,0,0,1,17.28.38,12.08,12.08,0,0,1,8.46,7.2c.75,1.79,1.5,3.58,2.13,5.42a15.12,15.12,0,0,1-.47,11.64A3.57,3.57,0,0,1,202,127.27ZM207.21,115h0l-1.44,4.07c-.27-4-1.93-7.57-3.48-11.13a13.24,13.24,0,0,0-5.81-6.23c-3.26-1.9-6.9-2.08-10.49-2.49l-2.4,0c0-.15.11-.3.16-.44h0a8.55,8.55,0,0,1,2.72-.06,46.06,46.06,0,0,1,7.7.08c6.09.55,10.47,3.4,12.61,9.31C207.15,110.4,207.67,112.69,207.21,115Zm.61-6h0a12.2,12.2,0,0,1-1-3.32,34.94,34.94,0,0,0,8.84,4.81c.15,0,.29.14.18.34A25.75,25.75,0,0,1,207.82,109.05Zm94.23,72.88c-11.84,7.11-21.74,16.95-33.86,23.6l0,0c-.86.41-1.73.78-2.56,1.23a13.49,13.49,0,0,1-11,1.05,27.65,27.65,0,0,1-6.91-3.73,2.27,2.27,0,0,1-.13-.3c-.06-.25.09-.29.52-.14q2.37.85,4.76,1.67a14.49,14.49,0,0,0,12.2-1,76.79,76.79,0,0,0,11.38-7h0a42.7,42.7,0,0,0,6.3-5.71c4.75-5.2,10.85-7.84,17.45-9.61C300.79,181.85,301.48,181.57,302.05,181.93Zm-2.73-.74a30.4,30.4,0,0,1-3.35,1.29,31.77,31.77,0,0,0-13.19,8.06,98.11,98.11,0,0,1-7.37,6.9h0c-2.88,1.73-5.79,3.43-8.64,5.22A16,16,0,0,1,251.11,204l-1.93-.57.15-.42,2,.54a25.65,25.65,0,0,0,5.47,0c3-.34,6-.85,8.56-2.65a20.41,20.41,0,0,0,5.88-3.63,101.83,101.83,0,0,0,8.71-8.92,21.75,21.75,0,0,1,10.9-6.62A21.17,21.17,0,0,1,299.32,181.19Zm-16.26-13a39.83,39.83,0,0,1-1.67-11.82,75,75,0,0,0-1-12.88c-1.2-6.62-5.49-11.33-9.78-16.06,0-.91.43-.29.65-.15a27.35,27.35,0,0,1,7.45,6.69c.21.29.47.54.71.81a31.89,31.89,0,0,1,5,17.69c0,5.19-.67,10.37-1.05,15.56C283.37,168.1,283.23,168.13,283.06,168.21Zm-16.3-46.57a29.26,29.26,0,0,1,13.88,10.45c4.23,5.75,6.48,11.94,6.05,19.1a83.7,83.7,0,0,1-1.58,11c-.12.84-.25,1.67-.38,2.51l-.47-.18h0a10,10,0,0,1,.33-2.55c.27-4.38.88-8.75.27-13.15-.71-5.22-2-10.21-5.22-14.52a23,23,0,0,0-7.1-6.94c-1-.66-2-1.26-3-1.89-2.51-1.93-5.37-3.36-7.68-5.6C263.52,120.38,265.13,121,266.76,121.64Zm-.81,2.44c1.3.86,2.29,2.09,3.7,2.79h0l0,0,0,0c.61,1.38,1.8,2.3,2.72,3.42,2.86,3.5,5.81,6.89,7,11.46A49.54,49.54,0,0,1,280.68,153c.1,5.94.2,11.87,2.63,17.46.11.25.31.57-.07.86l-.86-.85h0c-.94-1.88-1.83-3.78-2.82-5.63a24.43,24.43,0,0,1-2.82-11.36,58.36,58.36,0,0,0-.63-9.88c-.11-.56-.3-1.11-.45-1.67a.31.31,0,0,0,0-.08c-1.39-6-4.57-10.91-8.7-15.32-2-2.09-4.38-3.68-6.46-5.65A31,31,0,0,1,266,124.08ZM255,118.41c9,5.18,16.28,11.9,19.66,22.09,1.27,4.33,1.32,8.8,1.33,13.24,0,6.61,2.9,12.12,6.32,17.47.26.35.52.69.77,1l.24.92h0a30.2,30.2,0,0,1-6.4-8.4,7.08,7.08,0,0,0-1.1-1.88,34.1,34.1,0,0,1-2.73-12.25c-.65-10.62-5.56-19.1-13-26.33a10.29,10.29,0,0,0-2.24-2.18c-1.54-1.66-3.53-2.86-4.86-4.75A11.12,11.12,0,0,1,255,118.41Zm-14.53-5.86a6.44,6.44,0,0,1,1.66.38,69.87,69.87,0,0,1,8.11,3.47l7.5,6.46,2.24,2.21a44.33,44.33,0,0,1,11,17.4c1.1,3.28,1.2,6.7,1.57,10.08.47,4.2,1.28,8.31,3.54,12,2.2,4.4,5,8.29,9.27,10.94l.55.37,1.06,1c0,.19.42.67-.27.47-.34-.09-.67-.22-1-.33-8.89-4.84-15.12-11.94-18.26-21.63-1-3.17-1.26-6.5-1.78-9.77-1.63-10.26-5.33-19.49-13.81-26.12a39,39,0,0,0-9-5.21,8.19,8.19,0,0,0-2.61-1.3,2.18,2.18,0,0,1-1.84-.93Zm44.89,65.34c-4.92-1.34-9.6-3.12-13-7.16l-2.94-3.44,0,0c-1.46-2.3-3.17-4.46-4-7.14-2.16-7.27-4.41-14.5-6.2-21.88-1.05-4.3-2.32-8.54-5-12.2a29.38,29.38,0,0,0-5.83-7.51,4.22,4.22,0,0,1-1.78-1.86l1.83,1.14c7.67,4.46,11.85,11.5,14.74,19.58,1.54,4.32,1.67,8.87,2.53,13.29,2.34,12.06,8.8,21.1,19.8,26.75ZM235,110.76l-.19.48c-1.68-.06-3.37.21-5-.29A14.11,14.11,0,0,1,235,110.76Zm-4.19,1.38a31.22,31.22,0,0,1,11.79,3c5.13,2.65,8.66,6.91,11.67,11.68,3.78,6.27,4.64,13.49,6.64,20.34,1.25,4.25,2.48,8.49,3.74,12.74a22.62,22.62,0,0,0,4.76,8.11,25.14,25.14,0,0,0,14.41,10.12c1.37.36,2.88.43,4.06,1.39h0A38,38,0,0,1,274.46,177a20.56,20.56,0,0,1-11.89-11.33,56.79,56.79,0,0,1-3.89-13c-.75-4-1-8.14-2.38-12-.14-.61-.26-1.22-.41-1.83-1.45-5.84-4.59-10.81-8.2-15.48a28.72,28.72,0,0,0-17.13-10.83,5.17,5.17,0,0,1-2.39-.47A5.67,5.67,0,0,1,230.76,112.14Zm-6.6.08,2,.44c9.88.87,17.39,5.54,22.91,13.8a48.62,48.62,0,0,1,6.26,12.83h0a102.51,102.51,0,0,1,2.19,11,67.64,67.64,0,0,0,3.56,13.89c3.3,8.63,9.59,13.45,18.48,15.19l2.79.56a17,17,0,0,1-5.65.06,38.75,38.75,0,0,1-9-3.24c-8.76-4.45-13.17-11.68-14-21.33a68,68,0,0,0-1-8.9.36.36,0,0,1-.15-.15l.15.15c-1.12-6.92-2.39-13.78-7.24-19.3-4.46-5.07-9.19-9.82-15.5-12.62-.76-.34-1.57-.55-2.36-.83h0a2.1,2.1,0,0,0-1.31-.38l-.41-.21a3.77,3.77,0,0,1-2-.49C223.31,112.33,224,112.36,224.16,112.22ZM263,180.29a41.12,41.12,0,0,1-9.83-7c-6.17-5.69-9.75-12.46-10-21a84.91,84.91,0,0,0-3-19.76c-.9-3.35-1.89-6.69-4.22-9.42a20.45,20.45,0,0,0-5.59-5.22l-2-1.64c-.57,0-.84-.58-1.33-.76,0-.16-.36-.55.17-.43a6,6,0,0,1,1.21.57.9.9,0,0,0,.27-.07c.27.57.85.76,1.32,1.06a29.74,29.74,0,0,1,10.92,12.71c1.12,2.37,2.26,4.73,3.39,7.09,2,4.9,2.19,10.14,2.91,15.29,1.16,8.35,4.33,15.84,10.4,21.82a24.76,24.76,0,0,0,15.08,7.26,11.63,11.63,0,0,1,1.14.25v0c0,.08,0,.16,0,.26A16.24,16.24,0,0,1,263,180.29Zm.47,1.53c-1.22-1-3-.95-4.19-2l-2.13-.8c-2.57-1.5-5.15-3-7.65-4.6a16.82,16.82,0,0,1-6.38-7.93c-.3-.72-.64-1.42-1-2.14-2.4-7-2.53-14.35-3.06-21.61s-2.11-14.21-5.89-20.52a7.81,7.81,0,0,0-2.1-2.58c1.1-.11,1.5.89,2.14,1.45.95.84,1.78,1.82,2.66,2.75a21.11,21.11,0,0,1,2.67,5.51,88.38,88.38,0,0,1,3.91,23.25,27.9,27.9,0,0,0,7.34,18.3,49,49,0,0,0,9.46,8.24c1.39.72,2.78,1.45,4.18,2.15C263.87,181.48,263.75,181.63,263.42,181.82Zm-36-67.59a6,6,0,0,1,2.08.84c7.41,3.33,13,8.85,17.57,15.34,3.21,4.56,4,10.16,5.09,15.53V146c.33,3.47.58,6.94,1,10.39a30.79,30.79,0,0,0,1.68,7.34c3.39,8.81,10.44,13.32,19,16.06a2,2,0,0,1-1.66.23,25.34,25.34,0,0,1-16.42-9.48c-5.13-6.31-7.56-13.68-8.23-21.68-.43-5.24-1.34-10.34-3.78-15.06-.63-1.33-1.28-2.64-1.89-4a30.73,30.73,0,0,0-12.54-14.33l-.71,0C228.55,114.77,227.52,115,227.46,114.23Zm1,6.47v0c-.74-1-1.47-1.93-2.21-2.9a18.4,18.4,0,0,0-7.11-4.78c-.51-.22-1.24-.17-1.46-.9a17.06,17.06,0,0,1,7.53,3.45l1,1.26a9.23,9.23,0,0,1,2.24,3.47l.12.36c0,.07.05.15.07.23Zm-1.36-3.59c-.23-.29-.49-.58-.21-1a25,25,0,0,1,5.3,6.11c4.07,6.08,5.46,13,5.94,20.14a140.5,140.5,0,0,0,1.92,17.36,18.21,18.21,0,0,0,.69,2.25h0c.09.33.19.65.28,1a4.13,4.13,0,0,0,.15.5c1.3,4.2,3.1,8.08,7,10.74a40.94,40.94,0,0,0,8.8,5.12,25.62,25.62,0,0,0,6.47,2.51c.18.47.92.15,1.06.73a4.13,4.13,0,0,1-2.18,0c-2.42-.53-4.81-1.2-7.24-1.62a25.57,25.57,0,0,1-12.79-6.47c-4.13-3.66-6.85-7.92-6.69-13.68.14-4.53.14-9.05.21-13.58a63,63,0,0,0-.81-13.36,20.72,20.72,0,0,0-2.27-7.44A50.24,50.24,0,0,0,227.11,117.11Zm6.63,28.51c.24-2.48.33-5,.49-7.47a18.43,18.43,0,0,0-.35-3.62c-.21-.95-.42-1.9-.62-2.85-.1-.64-.19-1.28-.33-2.24a14.12,14.12,0,0,1,1.38,3.54c.09.79.18,1.58.26,2.36a21.21,21.21,0,0,1,.45,6.35c0,6.26-.19,12.52-.2,18.78,0,3.45.43,6.85,2.65,9.72,4.4,5.71,9.73,10,17.06,11.35,2.4.44,4.75,1.13,7.44,1.78a6.29,6.29,0,0,1-1.18.48c-6,.66-12,.43-17.41-2.31-8.23-4.17-12-11.26-11.29-20.49C232.48,155.86,233.22,150.75,233.74,145.62Zm-2.88,17.67c0-.18.15-.41.44-.3a2.46,2.46,0,0,1,.16.74,18.18,18.18,0,0,0,4.22,12.38c6.23,8,15,8.83,24.21,8.57a4.84,4.84,0,0,0,1.53-.38,14.34,14.34,0,0,1,4-.84l-.72.61c-4.21,1.33-8.32,3-12.68,3.8-.46,0-.93,0-1.39,0A21.28,21.28,0,0,1,235.4,183c-2.64-2.1-4.72-4.68-5.33-8.12C229.39,171,230.15,167.11,230.86,163.29ZM265.32,184a1.55,1.55,0,0,1-.55.08Zm-35.94-15.74c-.45,3.59-.72,7.17,1.39,10.4,4.13,6.35,10.1,9.44,17.57,9.87a3.52,3.52,0,0,1,2.14.19,12.05,12.05,0,0,1-2.88.42h0l-2.27.23c-2.76-.57-5.59-.84-8.22-2a15.61,15.61,0,0,1-9.19-9.3,19.72,19.72,0,0,1,.52-8.37C228.57,169.19,228.43,168.31,229.38,168.23Zm5.68,22-3.42-1.67a27.51,27.51,0,0,1-2.51-2.77c-2.08-2.84-2.54-6.09-2.55-9.47a3.71,3.71,0,0,1,.36-2.21,6,6,0,0,1,.16,2.68c.44,1.27.39,2.7,1.27,3.82,0,0,0,0,0,0a17.29,17.29,0,0,0,10,7.86,23.88,23.88,0,0,0,4.58,1c.34,0,.86-.14.92.47A26.53,26.53,0,0,1,235.06,190.18Zm1.57.85A44.4,44.4,0,0,0,251,189a7.57,7.57,0,0,0,2.73-.64c5.36-1.49,10.59-3.43,16-4.74,2.91-.7,5.62-2.08,8.68-2.25s6.27-.56,9.41-.74c1.1-.07,2.25-.43,3.55.12a6.83,6.83,0,0,1-.88.36,23,23,0,0,0-11.46,7.15c-4.49,4.9-8.73,10.16-15.11,12.88-6.8,2.44-13.48,3.19-19.77-1.42-2.86-2.82-5.37-6-8.54-8.48C235.82,190.63,236.3,191,236.63,191Zm-1.14,23.68c-.5-3.6.34-7,1.53-10.34a13.34,13.34,0,0,0,.66-7.05,5.14,5.14,0,0,1-.65-2.76,7.27,7.27,0,0,1,1.36,3.54,25,25,0,0,1,.52,10.58c-.58,4.41-1.34,8.83.23,13.25A13.09,13.09,0,0,1,235.49,214.71Zm5.57,9.07c-2.11-3.64-2.36-7.59-1.76-11.63.89-6,1.32-11.94-1.35-17.68a2.28,2.28,0,0,1,1.29,1.2A27.3,27.3,0,0,1,242,211.14a29.57,29.57,0,0,0,.26,10.06,35.4,35.4,0,0,0,2.19,6.25A9.75,9.75,0,0,1,241.06,223.78Zm2.63,0c-1.44-4.32-1.37-8.69-.95-13.11a23.72,23.72,0,0,0-1.59-11.9c-.08-.19-.17-.39.14-.53a5,5,0,0,1,1.58,1.67c.53,2.07,1,4.14,1.58,6.21a92.12,92.12,0,0,1,1,10.5c.23,4.14,1,8.15,3.41,11.67.81,1.2,1.74,2.32,2.72,3.6A12,12,0,0,1,243.69,223.81Zm7.4,6.38c-3.5-4.14-4.63-9.08-4.91-14.33a46.68,46.68,0,0,0-1-8.89c0-1.78-.91-3.39-1.14-5.2,1,.22.88,1.12,1.35,1.58l.26.47a1,1,0,0,1-.16-.24c.41,1,.83,2,1.24,3h0a48.51,48.51,0,0,1,2.84,14.34,16.81,16.81,0,0,0,5.32,11.61c.36.36,1.23.56.8,1.42A15.63,15.63,0,0,1,251.09,230.19Z" transform="translate(-42.69 -11.86)"/></g></g></g></svg>