<svg xmlns="http://www.w3.org/2000/svg" xmlns:xlink="http://www.w3.org/1999/xlink" viewBox="0 0 654.17 360.78"><defs><style>.cls-1{fill:none;}.cls-2{clip-path:url(#clip-path);}.cls-3{fill:#a18978;}</style><clipPath id="clip-path" transform="translate(0 -43.76)"><rect class="cls-1" width="371.35" height="444.71"/></clipPath></defs><g id="圖層_2" data-name="圖層 2"><g id="飄移"><g class="cls-2"><path class="cls-3" d="M642.7,258.59c-10.58-.14-20.19-2.94-28.33-10a30.51,30.51,0,0,0-2.72-1.88c-.19-.17-.39-.33-.59-.49-6.21-5.09-13.93-7.1-21.65-10.11,1.92-.84,3.34,0,4.76.11,1.58.16,3.15.44,4.72.67,7.59.45,13.73,4.28,19.76,8.4,9.29,6.34,19.5,9.26,30.76,8.1,1.37-.14,3,.26,4.76-2.32-17.62,3.8-31-3.93-44.43-13.22,0-.08.06-.15.08-.22l4.35.55c9.44,3.48,18.45,8.29,28.71,9.2a17.22,17.22,0,0,0,8.66-1.3c.58-.25,1.15-.58.79-1.37s-.78-.33-1.21-.16c-6.15,2.48-12.14,1-18-1-4-1.32-7.89-3.15-12.13-4.87a29.57,29.57,0,0,1,9.49.61c5.22.91,10.43,1.84,15.76,1.62a34,34,0,0,0,4-.49c.7-.11,1.64-.2,1.47-1.23s-1-.69-1.74-.55c-8.07,1.65-15.87-1.05-23.81-1.52-1.08-.07-.58-.74-.33-1.26,6.46-1.8,13.27-1,19.77-2.53a12.19,12.19,0,0,0,5.89-2.71c-3-.22-4.91,1.23-7.2.65a1.74,1.74,0,0,1,0-.22c1.38-2.48,5-2.53,5.77-6.27-3.53,2.18-6.46,4.22-10.44,5.56l0,0c2.79-4.31,8.38-5.47,9.83-11.22-2.14,1.45-2.82,3.23-4.8,3.75.42-3.57,4-5.91,3.58-10.48-4.91,7.41-6.63,16.81-17.21,18.5,7.46-8.29,12.79-17.41,15.37-28-2.65,5.17-5.21,10.39-8,15.49-2.42,4.48-5.84,8.24-9.16,12a13.46,13.46,0,0,1-7,3.91c-.63-1.12-3.29,2.48-2.81-1.21,8.09-5,13.53-12.47,18.53-20.25,2.73-4.24,4.92-8.83,7.33-13.27.59-1.08,1.2-2.21,0-3.64-4.48,8.81-9,17.45-15.18,25.07a68.63,68.63,0,0,1-13.47,12.57,12.53,12.53,0,0,1-10.7,1.81C616.82,230.73,624.33,222.3,631,213s12.06-18.92,12.78-30.54c-1.9,5.77-3.58,11.66-6.5,17-6.56,12.13-14.22,23.39-26.11,31.05A26.68,26.68,0,0,1,597,235.29c-1.1-.66-1-1.13.17-1.63,20.28-8.63,30-26,37.5-45.25,5.75-14.68,5.12-29.91,3.84-45.19a2.82,2.82,0,0,0-1.17-2.63c.08,2.33.17,4.23.2,6.14.16,10.83.94,21.78-1.51,32.38-4.17,18-13.34,33.25-26.77,45.92-4.11,3.87-9.2,6.16-14.43,8.07a8.85,8.85,0,0,1-6,.42c.41-.4.58-.69.82-.77,12.16-3.85,20.74-11.82,27-22.78,7.37-12.92,11.68-26.85,14.52-41.32a24.53,24.53,0,0,0,.17-3.65c1.09-7.47.11-15,.25-22.47A105.06,105.06,0,0,1,634.4,118a5.84,5.84,0,0,0-.49-4.49,78.57,78.57,0,0,0-4.11,25.8c0,9,.06,17.94.08,26.91-1.93,10.54-4.32,21-8.65,30.82-4.52,10.25-9.39,20.38-18.84,27.27-7,5.11-14.45,8.86-23.46,8.16a1.15,1.15,0,0,0-1.22.55c6.42,2.5,12.82,5,19.25,7.48a114.8,114.8,0,0,1,12.24,6c9.94,9.14,21.52,14.05,35.18,13.59.89,0,2-.59,2.73.56-2.31,2.3-5.27,3-8.33,3.53-1.83,0-3.67-.14-5.51-.1-10.49.23-19.48-3.35-27.33-10.26a99.28,99.28,0,0,0-24.19-16.16c-1.53-1.41-3.53-2-5.34-2.85-1.07-.53-.73-.93-.07-1.45l1.14-.5c0-1.77,1.39-1.61,2.55-1.87,10.79-2.49,20.41-6.9,26.11-17.06,3.45-6.16,5.25-13,6.86-19.82h0c3.3-9.62,4.5-19.66,5.92-29.66,2.45-17.21,4.85-34.42,7.47-51.6.72-4.72,1.82-9.47,5.3-13.17,1.27-1.34.18-2.68,0-4.65-6.63,6.17-14,10.74-19.3,17.66-2.17,2.83-5.08,3.83-8.48,4.47a50.28,50.28,0,0,1-15.37,1c-6.14-.42-9.84-4.45-13.17-9q-10.27-13.93-20.51-27.9c-1.36-1.76-3.59-2.74-4.47-4.93-21.62-21.24-47.08-26.2-75.6-17.59-4.7,1.42-9.11,3.78-13.65,5.71-1.59.67-3.16,1.4-4.77,2-.49.19-1,0-.43-.64a3,3,0,0,1,.61-.42c-.15-.32-.29-.65-.44-1l-6.78,4.31c-6.9,3.25-13.57,7.23-20.77,9.52s-13.47,5.91-19.84,9.58c-11.21,6.47-19.87,15.64-27.12,26.23a59.24,59.24,0,0,1-14.3,13.33c-7.79,4.35-16.41,6.21-25,8.27a22.57,22.57,0,0,1-4.39.3c-12.69-1.61-22.85,3.41-31.7,11.92-7.28,7-14.43,14.11-19.95,22.68a36.26,36.26,0,0,0-3.65,8c-1.74,1.78-4,1.47-6.18,1.55-3.56.12-7.12.28-10.67.43-2.84-.91-5.46,1.87-8.32.48-2.44-.16-4.89-.23-7.31-.52-11.83-1.4-22.6-6.21-33.53-10.51h0c-12.7-7-25.42-13.91-38.08-21a115.4,115.4,0,0,1-16.27-11.41c-5.07-4.1-10.29-8-16.34-10.55a36.75,36.75,0,0,1-5.21-5.15,125.88,125.88,0,0,1-22.47-40.6C116,69.72,118.44,59,125,49.06l.66-.13a1.92,1.92,0,0,1,0,.68,56.24,56.24,0,0,0-1.4,33.11c4.44,17.4,15.12,31.26,28.74,42.38,9.57,7.81,20.57,13.87,30.94,20.71,4.92,3.9,10.45,6.88,15.81,10.08,17.55,10.48,35.7,19.65,56,23.76l.05,0h0l0-.09c-.23-1-1.26-1-1.86-1.54-23.81-6-45.14-17.22-65.31-30.91a16.15,16.15,0,0,0-1.59-.87c-8.8-6.56-18.18-12.28-27.28-18.39-15.79-10.59-26.69-25.19-32.93-43-3.48-9.92-2.9-20.45-1.25-30.78.67-4.15,4.18-5.81,7.58-7.38l5.24-1c.63,0,1.27.06,1.9.13l-.4-2-5.72,1-1.55.81c-.78,0-1.57-.09-2.35-.14l-6.76,1.17h0L121.34,48l.76-.09a.47.47,0,0,1,.07.12,1.34,1.34,0,0,1,.14.36c-1.73,1.57-2.92,2.63-4.09,3.7l-.44,1.2c-2.5,1.92-2.49,5.47-4.84,7.48-2.9.26-2.28,3.81-4.45,4.74a12.48,12.48,0,0,1-3.87,4.08l-4.81,6c0,.82-.56,1.24-1.07,1.73l-.07.06-.69.54h0c-1.65,1.41-1.6,3.69-2.78,5.34-1.94,7.83-3.94,15.64-5.8,23.49-2.11,8.89-2.82,17.83-.41,26.81-1.1,10.66,2,20.63,5.1,30.59.54,1.71,1.61,3.38.43,5.24-.84,1.07.69,1.65.54,2.58-.07,5.5,2.64,10.09,5.08,14.69a33.19,33.19,0,0,0,7.42,9.55,26.41,26.41,0,0,0,7.76,7.26c7.39,4.35,13.66,10.15,20.38,15.33,5.64,4.34,11.21,8.7,17.13,12.65A83.22,83.22,0,0,0,184,244c3.48,3,7.64,2.87,11.84,2.61,10.26-.66,20.42-1.45,29.67-6.89,15.62-9.2,27.61-21.89,37-37.26,4.55-6.64,9-13.39,15.52-18.31,1,1.57-.47,2.47-1.09,3.45-2.27,3.61-4.72,7.11-7.11,10.64-7.29,8.58-13.68,17.84-21.62,25.95a109.07,109.07,0,0,1-29.53,21.14,49.88,49.88,0,0,0-9,2.87c-2.88.59-5.8,1-8.65,1.78-10.49,2.76-20.49-.44-30.51-2.64-14.22-3.12-26.29-10.94-38.58-18.23a35,35,0,0,0-7.26-3.59,7.82,7.82,0,0,0-.93-.61,38.13,38.13,0,0,0-7.29-3.41l-1.37-.57c-8.25-4.23-17.22-5.16-26.24-5-21,.46-40.37,6.44-57.5,18.78-10.28,7.4-16.19,18.36-22.5,28.93C3.69,272.29.22,281.43.1,291.57c0,4.16-.77,8.42,2.53,12.07,2,2.17,1.76,5.25,1.58,8.12-.08,1.24-.58,2.87,1.56,3.06a57.19,57.19,0,0,0,4.46,16.29,4.21,4.21,0,0,0,1.2,3c1.81,3.2,1.56,7.88,6.5,8.87.44.08.68,1.23,1,1.88,3.14,6.28,7.3,12,9.24,18.92a11.61,11.61,0,0,0,9,8.76c1.09,1.87,2.11,3.74,4.8,3.54,1.62-.11,1.9,1.52,2.65,2.51,4.4,2.14,8.73,4.56,13.13,6.53,3.45,1.54,6.51,3.6,9.84,5.25,3.88,1.92,6.36,1,7-3.25,3.34-23.31,15.32-41.83,31.69-58,.88-.87,1.73-1.77,2.56-2.67s1.38-1.55,2.58-2.91a.55.55,0,0,1,.15.08l.08.08c-1.86,5.27-4.62,9-7.1,12.81-9,13.8-14,28.69-13.54,45.31A28.24,28.24,0,0,1,90,391c-.91,2.92-2.75,4.18-5.85,3.77a23.36,23.36,0,0,1-5.31-1.52c-1.69-.65-2.65-2.56-5.38-2.77,2.51,3.91,5.88,5.24,9.63,5.86a64.67,64.67,0,0,1,7.31,1.88c4.25,1.25,8.39,4.34,13.29,2.86,2,2.76,4.51,1.71,6.76.72,2.77-1.22,5.51-1.09,8.34-.72,1.32.17,1.64,1.3,2.27,2.16,4.15,2.36,7.79,1.41,11.09-1.73l6.1-1.68c2.06-2,5.05-3.21,5.88-6.37,3.55.4,7-.6,10.53-.55,6.5.09,11.48-3.33,13.19-9.61a27,27,0,0,0,.12-13.55c-1-4.23-2.93-8.11-4.71-12.05-4.12-9.1-8.63-18-10.79-27.91-2.38-10.86-1.15-21.43,1.92-32.1,1.11.87.8,1.85.82,2.63a75.38,75.38,0,0,0,12.16,39.45,64.48,64.48,0,0,1,7.78,16.72c.73,5.24,1.27,10.47.45,15.77-.88,5.71-3.66,10.28-8.9,14.49,9-2.54,13.44-18.33,9.62-30.81a37.1,37.1,0,0,0-4.11-11c-3.71-7.31-8.94-13.86-10.95-22-8.47-23.52-4.91-41.76,11.07-58.82,1.23-1.32,2.89-2.29,3.56-4.11,1.37-1,2.7-2.1,4.13-3,4.17-2.71,8.52-1.43,10.67,3.06,5.22,10.91,6.84,22.62,7.28,34.48.38,10.3,1.4,20.32,5.92,29.81,7.73,16.24,16.81,21.88,34.72,21.37,7-.2,13.73-1.07,20.13-4,10.56-2.58,17.11-10.06,22.64-18.71,5.17-8.07,10.66-15.92,16.26-23.69h0c5.15-4.31,11.43-5.76,17.78-7,2.74-.55,5.64-.29,8.18-1.75,12.65.9,19.57-6.75,18.14-19.13-.57-5,.06-10.06-1.65-14.91-.3-.84.11-1.35.86-1.77a3.29,3.29,0,0,0,1.55-2.43c1.07-6.49,4.06-12.92.53-19.57-1.09-2.07,1.48-3.88.76-6,.11-1.56.23-3.11.34-4.67.8-.38,2-.05,2.27-1.39,1.79-9.93,9.7-15.1,16.66-20.79,4.57-3.72,8.22-7.66,9.31-13.58,1.76-5-.22-9.69-1.86-14.25a114.27,114.27,0,0,0-10.29-21c-1.49-3.22-4.12-5.42-6.81-7.52-1.27-1-1.37-1.62.16-2.28a54.75,54.75,0,0,0,13.77-9c.27-.24.88-.07,1.34-.09,3.71-.43,6.79-2.57,10.22-3.76A41.69,41.69,0,0,1,397,126c11.2,1.14,22.16,2.85,31.54,9.78a1.29,1.29,0,0,0,.34.27l11.36,9C452,156.32,461,169.78,470.41,183c.92,1.3,1.94,2.52,2.91,3.77,1.84,4,5.19,7.2,6.73,11.43,3.95,12.53,9.43,24,21.54,30.83,6.38,3.59,13.15,5.28,20.49,3.85a10.9,10.9,0,0,0,2.55,0c12.18-2.68,20.48,3.68,27.69,12.13,2,2.39,3.29,5.49,4.67,8.37,7.85,16.34,21.23,23.73,38.92,23.94a91.35,91.35,0,0,0,54.56-16.75c1.7-1.18,4.83-1.67,3.24-5.39C650.82,258.92,646.76,258.65,642.7,258.59ZM247.31,183.06c-4.51.94-8.25,4-12.92,4.15a26.05,26.05,0,0,1-19,.26A13.87,13.87,0,0,1,208,185.1c.43-1.91-1.2-1.77-2.22-2.23-3.17-1.47-6.66-2.35-9.65-5.19l4.27.81a4.59,4.59,0,0,0,1.43.27c13.12,4,26.53,4.78,40.13,3.66C243.79,182.27,245.63,182.07,247.31,183.06Zm-95.84-51.51c8.5,5.44,15.58,12.87,24.45,17.76,11.63,6.39,22.89,13.45,34.84,19.25,9.11,4.61,18.69,8.08,28.25,11.76-4.22,1-8.55,1.6-12.59.11-11.32-4.17-22.93-7.77-32.51-15.63a116.51,116.51,0,0,0-16.82-11.41A124.42,124.42,0,0,1,148,130.32C149.53,129.6,150.41,130.87,151.47,131.55Zm-33-77.86v0L122.84,50c-6.51,9.83-8.64,20.46-5.79,32a85.15,85.15,0,0,0,8.65,20.74c11,19.74,25.49,36.3,44.71,48.37,8.88,5.57,17.79,11.07,26.1,17.48a45.72,45.72,0,0,0,11.93,6.58c3.72,1.4,7.36,3,11,4.47l-.22.87c-1.39-.16-2.79-.28-4.17-.49-13.5-2.07-25.65-7.33-37.39-14.29-23.26-13.77-43.21-30.66-56-55-2.34-6.74-4.78-13.45-7-20.23C110.44,77.7,110.93,65.31,118.5,53.69Zm-6.41,9.43h0c-1,8.53-2.08,17.05.59,25.51.66,2.09,1.65,4.12,1.62,6.4,2.1,5.38,3.2,11.14,6.15,16.2h0c7.93,16.51,19.81,29.78,34,41,7.49,5.92,15.78,10.67,23.84,15.75,4.5,2.58,9.26,4.74,13.26,8.14.88,1.71,3,2.08,4.43,4.21l-17.23-10.17h0c-1-.83-2.49-.84-3.13-2.14h0l-1.91-1c-4.48-2-9.16-3.49-13.44-5.89l-.93-.52a47.36,47.36,0,0,1-20.75-15.45c-6.75-8.46-13.74-16.74-18.82-26.39-3.8-7.11-4.94-15-6.71-22.73C110.64,85.19,107.36,74.27,112.09,63.12Zm-3.77,11.14c-.08,8.59,2.14,16.83,3.8,25.16,1.38,6.9,2.72,13.8,6.5,19.9,9,15.39,18.57,30.35,34.29,39.8,7.59,4.57,16.42,6.74,24.15,11.17l0,0c2.15,2,5,2.87,7.31,4.61,2.14,1.63,5.31,1.88,6.51,4.78-2-1.3-4.5-1.05-6.72-1.73-9.58-2.94-18.65-7.17-28-10.79A53.51,53.51,0,0,1,131.86,148c-11.47-15.9-19.23-33.52-24.13-52.45-.6-6-2-12-.93-18.1C107,76.29,106.54,74.72,108.32,74.26Zm-9.76,8.59a13.9,13.9,0,0,0,1.17-4.91c2.12-3,4.1-6.19,7.09-8.72.56,1.67-.39,2.88-.46,4.2-2.13,7.57-1.63,15.12.15,22.67,2,13.26,8.14,25,13.83,36.89a100.79,100.79,0,0,0,11.75,18.33,50.26,50.26,0,0,0,20.49,16c11.84,4.93,23.53,10.27,36,13.5,1.1.28,2.22,1.23,3.46.31,5.82,2.73,12.28,3.95,17.81,7.58l-3.28-.06c-7.82-1.65-15.66-3.25-23.46-5A123.31,123.31,0,0,1,134.61,161c-7.54-7.14-13.8-15.38-20-23.62a38.2,38.2,0,0,1-5.37-10.06c-2.32-6.36-4.94-12.62-7.09-19a71.65,71.65,0,0,1-3.7-23.62A1.84,1.84,0,0,0,98.56,82.85ZM94.7,92.74c.22-2.36-.16-5.19,2.39-6.84-1.11,9.68,1.61,18.72,4.8,27.64,1.82,5.09,3.92,10.07,5.87,15.11a38.57,38.57,0,0,0,6,10.53c6.1,7.53,11.67,15.53,19.1,21.89a100.87,100.87,0,0,0,31.64,18.45c10.3,3.67,20.74,6.91,31.68,8.21a13,13,0,0,1,2.44.78c2,0,4.11-.16,5.72,1.49-1.56.08-3.15.61-4.65-.32-12-.05-23.87-.64-35.38-4.86a124.77,124.77,0,0,1-57.74-42.66c-1.14-2-2.17-4.14-3.46-6.08a51.53,51.53,0,0,1-8.82-29.68C94.33,101.84,94.27,97.27,94.7,92.74Zm-2,7.32a61,61,0,0,0,12.63,42.5c.72,1.14,1.4,2.3,2.15,3.42,6.59,9.8,15.83,16.82,25.06,23.85a103.26,103.26,0,0,0,61.71,21.64c8.27.19,16.48-1.27,24.74-.37l9.64-.73.09.62-3.89,1.81a11.48,11.48,0,0,0-4.73-.46c-3,.92-6.28,1.15-9.14,2.69-12.2,3-24.36,2.54-36.49-.35-10.54-3-19.79-8.92-29.85-13l-1,.43,21.54,11c.58.3,1.28.47,1.31,1.25l-.34.19-8.72-1.24,0,0a185.2,185.2,0,0,1-41.32-24.71c-9.18-7.29-14.18-17.43-18.72-27.86-1.36-1.27-1.56-3.07-2.18-4.68,2.36.68,2.55,3,3.61,4.71,5.48,9.36,11.68,18.15,20.24,25l1.53-.09c-9-7.6-15.53-17.12-21.45-27.14-.94-1.58-2-3.09-3-4.64C86.4,123.57,88.82,111.92,92.74,100.06Zm52.7,90.66c-4.66-1.56-9.27-3.26-14-4.65-16.33-4.85-26.47-16.23-33.26-31.21-.3-.67-.61-1.32-.92-2q-2.25-7.32-4.51-14.66c-1.15-2.72-2.27-5.45-2.36-8.47a16.33,16.33,0,0,1,3.5,7.45c.75,1.69,1.53,3.36,2.22,5.07,6.21,15.33,16,27.62,30.41,36,5.85,3.41,11.74,6.75,17.52,10.28C144.58,188.89,147.19,188.68,145.44,190.72ZM90.13,140.29c-.07-1.16-1-2.63.71-3.47l5.26,16.54c1.53,6.34,5,11.66,9.05,16.58a69.86,69.86,0,0,0,14.67,13.74c4.58,2.66,10,3.08,14.71,5.26,6.51,1.88,12.87,4.34,19.58,5.39,5.25.81,10.43,2.52,15.86,1.82h0l5.74,1.45c1.79,1.88-.28,1.2-.88,1.21-5.21.08-10.42.09-15.63.12-.11.87.67,1,1.15,1.33,7.3.08,14.61.47,21.88-.65,5.94-.08,11.9.21,17.78-1l11.47-2.45a33.93,33.93,0,0,1,4.14-1c1.43-.18,2.75-1.91,4.33-.39h0l-12.73,4.07h0l-.35,0c-1.94.2-3.65,1.67-5.74,1.08-1.37.48-2.72,1.07-4.13,1.41-17.17,4.2-34.37,4.92-51.41-.4-19.53-6.1-36-16.89-48.69-33.12C93.89,158.8,90.74,149.85,90.13,140.29Zm114.74,60.32c-1.51,2.1-4,2.33-6.13,3.06-5.42,2.78-11.47,3.39-17.22,5-1.83.23-3.66.44-5.49.69-11.45,1.57-22.83,1.64-34.2-.85-18-4-29.82-16-39.64-30.52-1.29-1.11-2.9-2-2.35-4.17,1,1.36,2.67,2.12,3.36,3.75A106.81,106.81,0,0,0,125,193.9c23.2,13.3,47.81,15.14,73.37,8.71C200.31,201.24,202.69,201.26,204.87,200.61Zm-96.11-4.81c-5.36-6.56-10.33-13.33-12.49-22.71l12.59,16.24a53.47,53.47,0,0,0,16,14c18.14,10.24,37.44,10.1,57.13,6.25,9.9-.85,18.54-5.68,27.75-8.72,2.31-.76,4.47-2.16,7.07-1.83-3.33,2.08-6.65,4.2-10,6.24C178.21,222.73,133.35,221.57,108.76,195.8Zm22.3,17.55c1.44-.51,2.41.2,3.42.53,23.08,7.62,45.61,6.34,67.6-4.07,7.94-3.75,14.91-9.16,22.69-13.19a10.81,10.81,0,0,1,5-2.61,9.07,9.07,0,0,1-4.47,3.88c-10.31,8.23-20.69,16.37-32.93,21.69-18.67,8.12-37.06,8.27-55.08-1.86C135.15,216.51,132.78,215.49,131.06,213.35Zm17.08,12.94c-1.84-.44-3-1.72-4.27-2.94.15-.3.29-.61.44-.91L153,226a65.16,65.16,0,0,0,37.65-3.64c15.47-6.21,28.32-16.4,40.77-27,8.69-7.41,18.28-11.72,29.55-12.59a7.79,7.79,0,0,1,5-.33c-1.95.84-3.3,1.62-4.91,1.69h0c-4.5,1.69-9,3.49-13.49,5-9.65,3.29-16.18,10.54-22.77,17.71-9.43,10.26-19.6,19.31-33.46,23.33C176.34,234.52,161.8,235.72,148.14,226.29Zm14.77,8.28c3.87.25,7.26.71,10.63.65,12.34-.22,23.54-4.39,34.25-10.18,5.16-3.87,9.79-8.34,14.6-12.63h0l5.25-5.64c5.44-5.85,10.81-11.78,18.42-15l3.85-1.62c-.44,1.74-2,2.13-3.37,2.71h0a8.14,8.14,0,0,0-2,1Q233.5,204,222.46,214.11c-4.67,4.1-9,8.59-14.22,12h0a37.38,37.38,0,0,1-12.77,7.44c-8.33,2.74-16.93,3.59-25.64,3.83C167.51,236.92,165.07,236.67,162.91,234.57Zm14.51,6.18a2.18,2.18,0,0,1-.92-.07c.3,0,.61.06.92.07l-3.68-1.5c7.62-.88,15.09-1.78,22.16-4.65,7.76-2.12,13.5-7.42,19.36-12.45,8.48-7.28,16.81-14.72,24.83-22.51a43.94,43.94,0,0,1,21.77-11.81c1-.21,2.24-1.27,3.08.35a.6.6,0,0,0-.77.58c-15,7.86-28.86,17.2-40.33,29.81-6,4.63-12,9.3-18,13.9a52.38,52.38,0,0,1-19.37,9.41A24.28,24.28,0,0,1,177.42,240.75Zm14.78,2.41h0l-.19,0c-.17-.45-2.43-.41-.36-1.38,2.45-1.15,5-2.05,7.4-3.31,6.69-3.52,12.06-8.87,18.09-13.31,1.36-1,2.4-2.71,4.46-2.54C214.62,233.57,206,242.09,192.2,243.16Zm16,.5c-.06-.21-.23-.58-.16-.63,13.26-9.74,22.42-23.58,34.47-34.53q3.79-3.45,7.63-6.89c.15-.78,1.94-1,.82-2.21-10.55,8.17-19.17,18.28-28.23,28-1,1.08-2,2.17-3,3.26a43.26,43.26,0,0,1-16.35,13.52,28.92,28.92,0,0,1-8,1.36l-.46-.94a38,38,0,0,0,13.3-4.95c4.8-2.89,8.11-7.28,11.72-11.38h0a92.81,92.81,0,0,1,30.54-29.92,39.43,39.43,0,0,1,11.42-5.85l-11.34,10a141,141,0,0,0-16.13,19.69C228,232.06,220.33,240.63,208.21,243.66Zm17.45-7.31Zm32-29.41C249,219.28,238.81,230,225.7,237.75c0-.46,0-.91,0-1.36,4.75-3.14,8.41-7.4,11.87-11.81,5.64-7.22,13.71-11.79,19.79-18.52,0,0,.29.08.3.15A4.39,4.39,0,0,1,257.64,206.94ZM268,191.2l-4.24,6c-.86.31-1.14,1.13-1.57,1.81-6.86,8.22-15.59,14.44-23.22,21.83a55.74,55.74,0,0,1-4.86,5.91c-.79.75-.17-.57-.41-.84l4.64-6.29a3.71,3.71,0,0,1,.81-1.1c2-3.29,4.69-6,7.11-8.93,5.72-6.94,13.18-12.08,19.23-18.68l2.28-1.6a9.49,9.49,0,0,1,5-2.75Zm-.48-5.18c-1.75-.67-3.75,1.21-5.39-.53,3.65-1,7.26-2.33,11.55-2.59C271.83,185.21,269.51,185.29,267.51,186ZM2.28,291.49c-.7-1.17-.18-2.37-.09-3.54.94-12.34,7.78-22.1,13.8-32.31,7.13-12.08,16.7-21.26,29.47-27,4.49-2,9.07-3.83,13.6-5.74.19.41.38.82.56,1.23C35.66,242.41,12.3,261.24,2.28,291.49ZM4.5,301.84a22.52,22.52,0,0,1,1.11-14.13c7.57-19.2,20.33-34.38,36.59-46.82,9.4-4.6,18.66-9.48,28.34-13.53,15.91-6.66,31-5.07,45.62,3.8,1.58,1-.13.78-.27,1.15-22.49-8.42-43.49-4.78-63.64,7.41-6.84,4.14-12.53,9.54-18.49,14.67-13,11.15-23.1,24.21-27.46,41.14C5.77,297.6,5.84,299.88,4.5,301.84Zm73.66-47.73c11.3-5,23-5.66,35.1-3.41,11.86,2.21,23.77,4.18,35.66,6.2,1.14.19,2.36.83,3.55,0l3.6.76c-.68,2-2.49,1.71-4,1.77a147.47,147.47,0,0,1-28.32-1.58,157.39,157.39,0,0,0-40.85-.8,47.89,47.89,0,0,0-14.6,3.85c-15.8,7.1-32,13.59-44.79,25.9A12.74,12.74,0,0,1,19,290.72l.33-.55,0-.06c1.11-1.87,2.17-3.74,4-5q1.54-1.74,3.11-3.46C42.34,270,60.27,262.06,78.16,254.11Zm-12.67,4.28h0c.6-2,.6-2,4.66-3.83q2.2-1.47,4.4-2.95c10.46-5.11,21.17-9.16,33.13-8.74a100.56,100.56,0,0,1,22,3.35l.15,0,14,5.67.39.25,4.72,3c-7.65-1.3-14.27-2.46-20.9-3.53-7.76-1.24-15.51-2.59-23.31-3.52-12.19-1.47-23.26,2.58-34.08,7.55h0Q68.07,257,65.49,258.39Zm86.42-4.2-.66-.23c-8.07-3.77-16-7.9-24.75-9.92-13.92-3.89-27.73-3.89-41.34,1.37a51.67,51.67,0,0,0-11,5.27c-5.6,2.66-10.63,6.28-15.87,9.56-9.63,5.4-19.37,10.61-28.5,16.87-1.39,1-3,1.71-3.84,3.35a42.52,42.52,0,0,0-10.28,12.06l-4.5,6.66c-.58-1.71.41-3.11,1-4.56,3.93-10.38,10.5-19,18.7-26.22,13.58-12,30.47-17.69,46.91-24.42,15.79-6.47,31.39-5.89,47.46-2.28,9.66,2.18,18.86,5.64,28.06,9.13h0c4.28,2.3,9,3.55,13.58,5C161.66,257.12,156.85,255,151.91,254.19ZM105.36,237c-3.49-2.37-7.49-2-11.39-2.07-17-.17-31.54,6.63-45.37,15.57A163.16,163.16,0,0,1,33.12,259c-.71.36-1.44,1.41-2.42.38,4-3.5,7.9-7.06,12-10.47,12.88-10.82,27.38-18,44.4-19.11,18.49-1.25,34.92,6.15,51.56,12.61a13,13,0,0,1,1.83,1.3C128.45,240.49,117.12,237.58,105.36,237ZM6.05,304.72c3.15-17,9.46-31.4,22.78-42,11.65-5.35,22.39-12.31,33.56-18.53,9.21-5.12,19.21-7.3,29.64-7.8,2-.3,4.16-1.06,6,.72-1.66-.15-3.23.83-4.91.32-13.53,3.51-26.43,8.76-39.1,14.52C31.81,262,15.1,277.31,8.06,301.5A5.11,5.11,0,0,1,6.05,304.72Zm9.58-8.24c5.54-5,10.38-10.93,16.63-15.09C46.34,272,61.08,263.6,77.67,259.6c14.41-3.47,29.16-2.42,43.74-.49,11.76,1.55,23.48,2.69,35.32,1.17.53-.06,1.26-.38,1.45.57a27.32,27.32,0,0,1-9.79,3.2c-8.9,1.29-17.69,0-26.49-1.2-10.61-1.48-21.17-3.27-32-1a161.17,161.17,0,0,0-46.48,17.71c-9.83,5.54-19,11.86-25.9,21.08a134,134,0,0,0-9.2,15.15C8,308.31,10.92,302.06,15.63,296.48Zm-4.11,34c-3-6.44-2.23-12.57,1.11-18.72,5.08-9.36,11.55-17.53,20.34-23.53a159.17,159.17,0,0,1,40.55-20.2c13.74-4.48,27.56-7,42.15-4.31,11.64,2.17,23.44,4,35.54,2-1,3-3.74,2.35-5.47,3.46a58.32,58.32,0,0,1-26.29-1.83c-10.21-3.06-20.39-2.85-30.65-.37a170.4,170.4,0,0,0-45,18.36c-17.34,10-28.61,24.2-31,44.58C12.7,330.88,12.15,330.77,11.52,330.53Zm6.1-1.41c-.64,3.51-.43,7.18-.62,11.1-2.09-2.11-2.08-4.58-2.77-6.78.72-16.67,7.71-30.36,20.89-40.28C52.52,280.08,72.35,272,93.6,267.48c9.56-2.05,18.88-.69,28.11,1.95,1.07.31,2.14.66.2,1.4-9.2-1.11-18.42-1.91-27.58.16-24.94,5.62-46.56,17.24-64.24,35.88C24.05,313.23,19.23,320.35,17.62,329.12Zm7.5-13c4.94-7.82,11.62-14,18.89-19.5,21.8-16.44,45.51-27.36,73.77-24.59,7.59.75,15.16,1.81,23.06,1.65-.94,1.74-2.59,1.62-3.52,2.58-11.86,2.66-24,2.73-36,3.31-32.18,1.55-57.92,15.07-77.11,41h-.13l.05.11c-1.6,3.06-2.42,6.56-5.11,9C20.45,324.88,21.91,320.11,25.12,316.13Zm-.18,35.12c-3.42-4.4-5.75-9.16-5.52-14.88,3.9-18.08,17.07-28.78,30.86-39.08,12.37-9.24,26.71-13,41.56-15.37,1.64-.26,3.31-1,5-.41l32-2.27h0c2-.46,3.92-1.6,6.07-.62-1.84.67-3.51,1.94-5.64,1.57a26.64,26.64,0,0,1-8.2,1.91c-7.7.83-15.45.26-23.16.65-4.63,1.08-9.26,2.13-13.87,3.25-14.75,3.6-26.84,12.08-38.49,21.26C32.14,317.87,25.84,332,25.78,349,25.77,349.91,25.85,350.66,24.94,351.25Zm105.94-67.86c-7.79,4.27-16,6.84-25,6.38-6.7-.34-13.41-.61-20.12-.91-2.35.53-4.64,2-7.11.45l6.08-1.69A82.86,82.86,0,0,1,106,284.25c8.82,0,17.64.16,26.09-3C133.42,282.94,131.51,283,130.88,283.39ZM32,366.25c-2.62-1.91-3.32-4.91-3.73-7.74-2.62-18.32,1.33-34.69,15.67-47.27A112.7,112.7,0,0,1,70.54,293.4c10.41-3.35,21-3.49,31.79-2.36a51.26,51.26,0,0,0,13.21-.35l7.14-2h0c.12.31.25.62.38.94-2.11.83-4,2.21-6.44,2.17-6.33,2.47-13.05,2.43-19.66,2.88A92.72,92.72,0,0,0,74.12,299c-26.12,8.6-41.74,36.52-42.46,58.54a37.76,37.76,0,0,0,.76,8.08Zm1.64-3.59c-.89-34.17,23-61.62,57-65.5,1.47-.16,2.94-.33,4.42-.42,10-.66,19.92-1.32,29.12-5.76l2.24-1.37c1.19.63,2-2.12,3.35-.34-1.8.81-3.11,2.47-5.11,2.93-4,1.34-7.28,4-11.32,5.2-5.8,1.7-11.54,3.57-17.33,5.3-11.39,3.4-23,6.78-32.14,14.58-14.08,12-25.6,26-29.06,45C34.55,363.64,34.25,363.3,33.63,362.66Zm9,8.31c-.21,1.18-.21,2.85-1.41,3.23s-1.8-1.42-2.8-2.07l0,0c-1.54-5.11-2.73-10.26-.73-15.5,6.5-17,16.74-31.22,32.12-41.31,10.78-7.08,23.36-9.72,35.34-13.8,1.74-.59,3.45-1.9,4.76-1.48-1.84.84-3.7,1.71-5.58,2.58l-.66.31c-5.68,2.64-11.52,5.37-17.44,7.91-6.18,2.65-12.12,5.56-16.87,10.43C55.63,335.23,46.12,351.49,42.62,371Zm7.27,8.22a6.41,6.41,0,0,1-5.7-7.8,89.13,89.13,0,0,1,13.86-33.6c8.21-12.32,18-22.28,32.69-26.91,8.55-2.71,16.77-6.49,25.14-9.78,6.06-3.7,12.55-6.72,17.84-11.61.47-.36,1.24-.62,1.39-1.07,1.25-3.94,4.93-5.53,7.69-8,1.34-1.18.44.47.62.78a69.64,69.64,0,0,1-17.07,16.09l-10.19,5.42c-6.59,4.46-14.23,6.76-21.27,10.29C83,319,72.3,326.2,66.55,338.92a175.24,175.24,0,0,0-9.4,25.28c-1.15,4.15-2.43,8.27-3.76,12.38C52.88,378.17,51.93,379.41,49.89,379.19ZM55.2,382c-1.79-1.07-2-1.76-1-3.63a33.69,33.69,0,0,0,2.62-7.27,205,205,0,0,1,8.26-24.89c3.72-8.82,8-17.26,16.1-23a100.8,100.8,0,0,1,21.28-11.81,102.57,102.57,0,0,0,15.18-7.53c2.09-1.26,4-3.27,6.8-3.2-1.81,3.36-5.87,4.24-8,7.28-4.88,3.3-9.81,6.55-14.65,9.92a82.17,82.17,0,0,0-21.72,22.38,121.43,121.43,0,0,0-16.4,38.17C62,385.34,61.06,385.5,55.2,382Zm48.5-52.82c-15.57,15.62-26.9,33.56-30.53,55.76-.91,5.56-2.08,5.85-7,2.69-.72-.47-1.45-.93-2.16-1.42s-1.23-1.05-.71-2.13c3.59-7.47,4.59-15.81,7.86-23.43,8-18.57,19.27-34.27,37-44.79,3-1.79,6.11-3.6,8.44-6.36l2.32-1.62c1.2.91-.16,1.67-.14,2.51l-.64,1.13C113.57,317.59,109.1,323.75,103.7,329.17ZM93.15,396.89a2.77,2.77,0,0,1-3.06-.64c-.59-.57-.31-1.1.07-1.62,2.69-3.62,2.68-7.94,2.61-12.07A77,77,0,0,1,106,337.87c3.34-5.09,6.37-10.38,9.53-15.58l.4.25c-1,2.6-2.06,5.23-3.18,7.8-6.54,15.13-12.28,30.39-11.34,47.37.26,4.64-1.34,9.26-3.18,13.6C97.19,393.74,95.82,395.92,93.15,396.89ZM103.63,401a.36.36,0,0,0,0,.09l-.06-.08h0c-.23-.73.05-1.83-1.21-1.8-1.92.06-4.32,1-5.37-1.11s1.63-3.18,2.42-4.84c1.57-3.27,2-6.91,3.84-11.26,1.11,5.05,2.24,9,2.79,13.12C106.39,397.24,106.49,399.87,103.63,401Zm3.1-.43c1.91-4.21.93-8.28-.21-12.35-4.44-15.83-2.66-31.22,3.41-46.28,3.31-8.22,6.7-16.42,10-24.63l.23-.13,0-.26a8,8,0,0,0,.59-.84,65.58,65.58,0,0,0,3.3-6.67c5.84-9.33,14.14-16.59,20.9-25.15-.28,2.93-2.38,4.86-3.45,7.32-1.41,1.69-2.73,3.48-4.26,5.06-6.11,6.33-9.17,14.74-14.83,21.45-2.88,3.42-3.81,8.49-5.67,12.79-6.2,14.4-8.17,29.1-3.28,44.32,1.59,4.93,3.25,9.88,3.47,15.09C117.31,399.15,114.71,399.36,106.73,400.54Zm9-.93c2.94-2.92,3.19-5.84,3-8.83a39.34,39.34,0,0,0-1.86-10.15A123.75,123.75,0,0,1,113,364.51c-1.78-9.87.19-19.17,4.41-28.17-.06,1.79-.12,3.58-.19,5.38-1,9.94.76,19.45,4,28.87,2.24,6.6,4.15,13.39,3,20.54C122.76,394.82,122.14,399.25,115.75,399.61Zm7.63,2.66c-1.51-.74-2.85-1.58-1-3.57a13.82,13.82,0,0,0,3.31-8.79c1.55-5.79-.27-11.37-2.05-16.57-3.67-10.73-5.63-21.57-5-32.88,1.16-5.92,1.15-12.12,4.38-18a26,26,0,0,1-.21,3c-3.71,17.6-1.59,34.72,4,51.6,2.17,6.53,4.12,13.16,4.44,20.11A5.63,5.63,0,0,1,123.38,402.27ZM135.91,399c-1.18.56-2.59,1.17-3.27-.77.42-6.16-1.27-12-3-17.73-3.52-11.45-6.75-22.9-6.95-35-.29-17.76,3.85-33.94,15.91-47.52.77-.87,1.13-2.31,2.73-2.16-.21.62-.42,1.24-.62,1.86v0c-.34.78-.73,1.55-1,2.36-5.9,16.1-7.66,32.91-6.91,49.81.64,14.47,2.26,29.06,10.74,41.68C142.16,395.26,139.28,397.42,135.91,399Zm15.8-7.69a4.39,4.39,0,0,1-5.76-.48,20.77,20.77,0,0,1-5.77-9.33,118,118,0,0,1-5.77-39.36c.53-18.83,4-37,11.74-54.25a7.27,7.27,0,0,0,1.26-2.61c3.71-8.64,8.08-16.82,16.1-22.37,1.81-2,4.46-2.7,6.66-4.1-1.23,3-4.26,4-6.49,5.85a69.41,69.41,0,0,0-4.67,5.22c-16.3,22.21-22.54,47-19.35,74.34,1.75,14.86,7.07,28.68,12.21,42.57C152.4,388.26,154,389.93,151.71,391.34Zm2.15-50.6c3,8.36,7.38,16.11,10.62,24.36,2.6,6.62,3.61,13.32.68,20.1-1.6,3.7-4.52,5.51-8.78,5.57,2.18-5.47,1.57-10.6-.37-15.71-3-7.94-6.84-15.59-8.78-23.9-2.64-11.27-1-22.53.59-33.76a15.2,15.2,0,0,1,2.57-8.72c-.23,1.88-.45,3.77-.68,5.65C149,323.46,150.77,332.19,153.86,340.74Zm12.12-72c-14.65,21.12-21.43,44.67-21.83,70.2a54.67,54.67,0,0,0,4.55,22.29c2.2,5.22,4.34,10.48,6.25,15.81,1.36,3.77,2.09,7.7.18,12.36-3.32-6.71-5-13.24-7.3-19.55-11-30.78-9.66-60.77,6.25-89.64,4.14-7.51,9.46-14.12,17.37-19.09C170.16,264.6,167.64,266.38,166,268.78Zm-1-17.14-15.78-6.39-.68-.31-7.15-3.82c-1-1.59-2.78-2-4.36-2.55a215.24,215.24,0,0,1-24.89-11.19c-13.95-7.41-28.08-7-42.37-1.19-7.08,2.87-13.84,6.41-20.62,9.88-.88.45-1.66,1.56-2.91.84,3.35-2.72,6.63-5.52,10-8.14C63.71,223,72,219.18,81.48,218.2A71.36,71.36,0,0,1,113.84,222c8.71,4.35,17.44,8.66,25.74,13.81,8.73,5.4,17.82,10.13,27.84,12.72,5.11,1.33,10.31,2.31,16.21,3.61C176.84,254.74,170.91,252.7,165,251.64Zm91.6-26.92c10.3-7.73,21.12-14.61,33.17-19.28,12.33-4.78,24.78-7.92,37.55-1.36a.87.87,0,0,0,.46.5l1.16,1.25c-1.37-.14-2.36-.16-3.32-.35-12.53-2.4-24.12-.32-34.87,6.8-12.53,8.3-25.36,16.13-40.33,19.38-1.06.23-2.68,2.1-3.58-.38A64.8,64.8,0,0,0,256.56,224.72Zm-11.84,9.73c12.37-1.91,23.67-6.66,34.35-13,4.35-2.58,8.67-5.22,12.86-8,13.88-9.31,28.51-8.86,43.57-3.63,1.67,2.5,5,3.92,4.9,7.58-2.74-1.63-5.34-3.59-8.25-4.84-12.63-5.44-24.64-2.74-36.19,3.38-6.74,3.58-12.65,8.54-19.61,11.84-13.48,6.38-28,9.41-42.2,13.49-.63.18-1.47.68-1.66-.57C236.58,238.61,240.26,235.75,244.72,234.45Zm-27,12.87,1.51-.75h0c3.3-.51,6.64-.85,9.61-2.6,7.61-2,15.21-4,22.83-6,14.29-3.69,27.91-8.88,40-17.59a41.17,41.17,0,0,1,9.27-5.35c11.7-4.46,23.32-6.24,34.67,1.19,4.3,2.81,7.21,6.26,6.71,11.74-.88,3.34-2.68,2.6-4.46.89-9.5-9.16-20.82-9.74-32.78-6.88-9.33,2.24-17.73,6.8-26,11.38-13.35,7.37-26.64,14.61-42.46,14.8-6.12.07-12.24.26-18.36.39a7.64,7.64,0,0,1-4.69.11A9.74,9.74,0,0,1,217.72,247.32ZM332.66,227c-.72.13-.94.24-1.12.19-.71-.17-1.43-.35-2.13-.59-7.17-2.52-14.23-1.74-21.44.11-10.28,2.64-18.76,8.6-27.51,14.09-12.5,7.84-25.94,12.53-40.85,12.06-4.61-.14-9.2-.83-13.8-1.27a11.67,11.67,0,0,1-7.59-1.52l5.73-.2c.22-.09.44-.27.65-.26,14.49.91,28.49-.64,41.6-7.56,9.15-4.82,18.15-9.94,27.58-14.25,8.44-3.87,17.13-6.22,26.47-5.47A21.94,21.94,0,0,1,332.66,227ZM195.85,256.4c3.43,1.38,6.86,2.74,10.28,4.16a27,27,0,0,1,11.31,9.22c7.15,9.55,14.43,19,21.64,28.53,6.33,8.34,14.53,12.72,25.17,12l-.32-.36a.86.86,0,0,1,.32.36c7.22.23,13.73-2.43,20.26-5,1.23-.48,2.3-1.52,3.79-1.19-3.95,3.3-7.13,7.46-11.75,10-13.14,7.24-33.37,5.82-45.64-8.13-6.51-7.41-10.86-16.14-16.1-24.34-5.55-8.7-10.55-17.91-19.2-24.17Zm79.91,62.82c-1.85,2.48-4.64,3.88-7.05,5.72-26.41,10.4-48.84-4.69-51-34.92a13.19,13.19,0,0,1,1.51,2.06A62.69,62.69,0,0,0,232,309.61c11.41,11.37,32,14.09,45.26,6.07C278.34,317.52,276.52,318.2,275.76,319.22Zm-17.42,21.51h0c-1.48-.12-2.83,1-4.35.43-7.81,2.95-15.93,2.88-24.05,2.23a24.47,24.47,0,0,1-19.08-11.16A59,59,0,0,1,200,299c-.17-12.22-1.59-24.34-6-35.9a5.07,5.07,0,0,1-1.43-3.2,3.18,3.18,0,0,1,2.53,2.27c5.38,11,11.72,21.58,14,33.86.77,4.12,1.54,8.24,2.48,12.32,2.38,10.29,6,19.83,15.77,25.61,7.95,4.67,16.28,7.48,25.64,6.19l2.59-.71c3.14.16,6-1.46,9.61-1.7C262.93,339.82,260.38,339.65,258.34,340.73Zm33.13-35.49a3.11,3.11,0,0,1-.61.77c-4.28,6.29-8.61,12.56-12.82,18.9a27.67,27.67,0,0,1-18.39,12.46c-1.55.3-3.08.72-4.62,1.09-.61,0-1.23,0-1.83.09-18.87,1.77-33.21-7.92-38.53-26.08a37.3,37.3,0,0,1-1.53-6.1c-1.72-15-7.69-28.48-14.32-41.77a3.89,3.89,0,0,1-1.69-3.6c1.57,1,2.77,1.93,3.33,3.48,5.71,7.93,11.15,16,14.19,25.4,1.71,5.27,3.48,10.54,4.77,15.92,5.38,22.47,35.25,29.66,49.74,20.35,5.24-2.08,8.82-5.91,11.4-10.8l10.21-11c.48-1.62,1.8-2.53,3-3.57C294.44,303.11,292.66,304,291.47,305.24Zm6.41-8.38a41.82,41.82,0,0,0-8.4,4.61c-6.12,2.58-12.15,5.42-18.74,6.62-2.52.46-5.11.61-7.66.9A26.45,26.45,0,0,1,240.6,296.9c-6.63-9.66-14.46-18.38-21.25-27.91-2.31-3.23-4.69-6.54-8.47-8.34l-12.38-4.87-2.25-1.25c2.16-.8,4,.72,5.93.35,4.39,1.75,8.74,3.57,12.54,6.45,5.26,3,9.56,7.2,13.65,11.61,6,6.46,10.82,14,18.19,19.16h0c6.23,4.91,13.42,5.76,21,4.73a143.81,143.81,0,0,0,20.17-4.66c9.06-2.62,18.21-4.39,27.71-3.45l3.82,1.56C311.13,291.14,304.14,292.93,297.88,296.86Zm-67.06-24.62c4.94,1.71,8.88,5,12.94,8,7.73,5.74,16.2,9.34,25.94,9.42a104.13,104.13,0,0,0,24.17-2.86c5.14-1.18,10.26-2.87,15.64-1.26l1.85,1.28a.57.57,0,0,1,0,.14,81.49,81.49,0,0,0-19.4,2.57C286,291.12,280,292.55,274,294c-7.94,2-15.81,2.27-23.47-1.21C242.15,287.73,237,279.56,230.82,272.24Zm103.29,14.2c-.58,1.33-2.41,1.58-3.87,1.84a20.83,20.83,0,0,1-11.59-1.42c-8.07-3.26-16.19-4.93-24.79-1.84-4.77,1.72-9.88,2-14.89,2.66-12.34,1.53-23.82-.56-33.85-8.37-1.5-1.17-3.61-1.72-4.53-4l9.37,2.73.15,0a43.58,43.58,0,0,0,19,1.37c10-1.33,20-2.77,30.07-4a55.3,55.3,0,0,1,17.32.39A36.18,36.18,0,0,1,332,283.43C332.44,284.66,334.78,284.92,334.11,286.44Zm2.48-2.75c-1.09.71-1.45-.54-1.78-1.23-6.24-13-17.9-16.76-30.93-18.26-9.48-1.1-18.64.85-27.79,2.92-8.39,2.54-16.8,4.85-25.69,2.64-.52-.13-1.47-.34-1.88.53l0,.06h0c2.48,1.64,5.28,1.78,8.12,1.84,6,.14,11.7-1.26,17.42-2.76,10.38-2.73,20.81-5.07,31.65-3.37,10.28,1.61,20,4.38,25.85,14.1-.72.7-1.37.25-2-.17-8.07-5.79-17.25-6.68-26.8-6.19a215.17,215.17,0,0,0-24.56,3c-10.55,1.76-21,2.36-31.41-.88h0c-10.93-3.06-20.41-8.89-30.27-16.17,8.16,1.92,15.25,4.06,21.95,7.45a12.55,12.55,0,0,0,6.45,2.66c.77.33,1.53,1.09,2.31,0a2.41,2.41,0,0,0,.63.24c0-1.62-1.77-1.12-2.38-2.13l2-.3h0c.95.19,1.91.41,2.87.56,8.44,1.31,16.61-.13,24.69-2.41,7.76-3.06,15.49-6.15,23.68-7.95,5.35-1.17,10.7-.93,16.08-.43h0c8.85,2.54,16.08,7.33,21.21,15.11a20.62,20.62,0,0,1,3.17,6.64C339.69,281.34,338.12,282.66,336.59,283.69Zm3.7-9.35c.07.21-.3.55-.55,1-6.1-10.19-14.12-17.53-26.23-19.25-9.08-2.07-17.59.53-26,3.33-4.69,1.54-9.24,3.47-13.89,5.11-9,3.17-18.13,3.28-27.4,1.76a27.49,27.49,0,0,0-6.73-1.26c-.05-2.27,1.72-1.07,2.53-1.12,5-.34,10-.19,15-.72,9.39-1,18-4.59,26.18-9.07,3.42-.67,6.46-2.36,9.67-3.61,14.85-5.76,27.9-2.78,39.69,7.63C337.49,262.49,338.63,268.49,340.29,274.34Zm-34.66-33.45c-3.38,1.65-6.92,3-9.9,5.36-4.3,2.33-9,3.93-13,6.75-5.91,2.63-11.68,5.62-18,7.27a6.33,6.33,0,0,1-3.94,1.06l-.33-1.09,3.78-1.11,1.3-1a38.37,38.37,0,0,0,4.38-1.81c6.83-3.85,13.67-7.68,20.38-11.73A41.06,41.06,0,0,1,307.58,239C308.15,240.89,306.37,240.52,305.63,240.89Zm5.19-.47c11.53-3.92,29.69,7.26,28.32,22.84-4.76-7.17-11.27-11.81-18.83-15a34.62,34.62,0,0,0-20.52-1.74c1-2.83,4-2.74,6.06-3.93A48.88,48.88,0,0,1,310.82,240.42Zm30.66,10c-1,2.57-1.8,2.51-3.24.42C330.75,240,320,236.67,307.39,237.47a8.93,8.93,0,0,1-5.13.42c1.59-1,2.58-1.85,4-1.72,10.7-4.12,21-4.21,31,2.27C342.36,241.7,343.61,244.73,341.48,250.43ZM342.73,239c-1.22,1.11-1.92-.5-2.73-1-9.16-5.91-18.74-8.25-29.55-4.78-16.52,5.32-30.88,14.62-45.39,23.71-9.72,5.48-20.3,5.56-31,5a160.18,160.18,0,0,1-27.3-7.26,44.09,44.09,0,0,0-6.44-1.37c-.78-.34-1.67-.55-1.77-1.63l13.59,0c5.25.65,10.53,1.14,15.75,2,18.41,2.91,35.59-.34,51.52-10.06,5.69-3.47,11.21-7.25,17.1-10.34,12.28-6.44,25-9.36,38.24-2.74,2.76,1.38,6.06,2.19,7.79,5.16C343.16,236.65,343.84,238,342.73,239Zm-46-38.25c-15.18,4.74-28.55,12.72-41.17,22.14-1.43,1.06-2.64,2.59-5.56,2.65,4.33-4.64,8.25-8.78,12.1-13A68.53,68.53,0,0,1,293,193c14.81-4.54,29-4.13,41.42,6.69,4.28,3.72,8.41,11,8.33,14.81C330.28,199.12,315.68,194.86,296.75,200.76Zm48.54,11.42C340,199,330.66,191.72,318.12,189.09c-12.13-2.55-23.81.22-35.12,5,9.27-8.07,19.63-13.46,32.17-13.78,14.45-.37,25.4,7.25,29.7,20.83A20.32,20.32,0,0,1,345.29,212.18Zm3.12-1.42c-.18-21.17-15.37-33.23-35.33-33.15a37,37,0,0,1,13.51-3.71c10.27-.93,18.64,3.27,25.3,10.59C358.77,192,357.21,201.82,348.41,210.76Zm9.25-10.43c1.66-7.55-.09-14-5.64-19-9.19-8.28-19.79-11.86-32.1-8.44-10.85,3-21.28,7.08-30.78,13.26a12,12,0,0,1-4.93,3.06c1.46-1.74,2.64-3.73,4.78-4.76,11.73-9.12,24.61-16,39.28-18.87A30.93,30.93,0,0,1,360.9,180.9C364.55,187.47,363.24,196,357.66,200.33Zm5.67-4c3.64-8.26,1.39-15.29-4.27-21.54-8.81-9.74-19.59-13.74-32.63-11-13.52,2.86-25.21,9.67-36.7,16.94l-5.56,5.64c.37-3.5,3.21-5.19,5.41-7.34,11.45-12.27,24.83-20.88,42-22.46,3.49-.32,6.85.48,10.27.68l1.93.56,7.55,3.08c8.2,5.34,15,11.91,18.36,21.38C370.22,190,368.16,194.72,363.33,196.36Zm7.44-16.07-2.22-4.9a49.71,49.71,0,0,0-10.79-11.94,34.09,34.09,0,0,0-17.84-7.76c-12.82-2.24-24.07,2.12-34.7,8.56-9.82,5.94-17.65,14.12-24.67,23.11h0c-1.32,1.84-2.63,3.69-3.94,5.53h0c-.75,0-.78,1.36-1.75.88h0q2.43-4.16,4.85-8.31l1.24-1.21c.35-1.8,2.68-2.36,2.71-4.35,7-12.21,17.27-21.13,29.1-28.16,8-4.76,16.92-5.88,25.92-2.25,4.22,1.71,8.45,3.4,12.54,5.39,8.74,4.24,15.18,10.72,18.62,20A8.39,8.39,0,0,1,370.77,180.29ZM359,151.43h0l4.41,9.11c-7.17-6.19-15.79-9.26-24.27-12.55-6.56-2.54-13.19-2.41-19.95-.58-8.54,2.31-14.83,8.06-21.44,13.38l-4,3.93-.49-1h0c1.41-1.59,2.49-3.49,4.38-4.62a110.53,110.53,0,0,1,12.81-12.7c11-9.23,22.94-11.84,36.29-5.66C351.19,143.91,355.85,146.8,359,151.43Zm-9-10.86h0c-2.42-1.23-5.17-1.83-7.23-3.75,7.8-1.35,15.43-3.26,22.57-6.8.33-.17.71-.24.86.28C361.25,134.4,356.09,138.19,350,140.57Zm276.6-36.91c-7.66,31.43-7.59,64.13-16.46,95.26l0,.1c-.72,2.09-1.53,4.16-2.16,6.28-2.66,9-8,15.74-16.34,20-5.53,2.84-11.55,4.16-17.59,5.36a5.94,5.94,0,0,1-.72-.29c-.52-.3-.33-.63.64-1.09,3.55-1.69,7.09-3.43,10.62-5.17A34.1,34.1,0,0,0,603,202.19c2.85-10,6-20.05,7.05-30.51h0a100.41,100.41,0,0,0,.88-19.89c-.85-16.47,4.82-31,12.74-44.9C624.42,105.64,625.09,104,626.63,103.66ZM620.9,107a67,67,0,0,1-3.37,7.69c-5.49,11.11-8.62,22.77-8.3,35.26a233,233,0,0,1-.66,23.63h0c-1.85,7.66-3.81,15.29-5.53,23-3,13.49-10.61,23.09-23.5,28.36l-4.14,2.27-.44-1,4.13-2.38a61.1,61.1,0,0,0,9-9.07c4.41-5.58,8.44-11.38,9.68-18.63a47.6,47.6,0,0,0,3.65-15.77c.61-9.75.06-19.5-.52-29.2a50.84,50.84,0,0,1,6.93-29.05A49.1,49.1,0,0,1,620.9,107Zm-48.39,5.7A93.79,93.79,0,0,1,550.05,96c-7.25-7-14.64-13.89-23-19.62-13-8.89-27.92-9.51-42.86-10.17-1.48-1.51.21-1.18.82-1.32A64.29,64.29,0,0,1,508.4,63.5c.83.12,1.69.11,2.53.15a74.71,74.71,0,0,1,37.63,20.87c8.6,8.6,16.18,18.21,24.2,27.38C572.83,112,572.64,112.29,572.51,112.7ZM468.09,63.12a68.71,68.71,0,0,1,40.26-5.9c16.55,2.44,30.57,8.9,41.78,21.38A198.75,198.75,0,0,1,565.9,99.4l3.56,4.78-1.07.49h0c-1.22-1.6-2.91-2.83-3.72-4.75-6.84-7.67-13.12-15.87-21.45-22.13-9.86-7.4-20.29-13.5-32.77-15.21-7.79-1.73-15.54-1.25-23.27.4-2.74.58-5.44,1.3-8.16,2-7.33,1-14.43,3.41-22,3.56C460.65,66.46,464.4,64.85,468.09,63.12Zm2.73,5.38c3.56-.75,7.26-.37,10.74-1.56h0l.11,0-.08,0c3.29,1.24,6.78.78,10.17,1.1,10.53,1,21,1.68,30.57,7.28a114.24,114.24,0,0,1,20.91,16.25c10.06,9.61,20.09,19.23,33.41,24.37.59.23,1.46.42,1.31,1.55l-2.82,0h0c-4.67-1.54-9.3-3.19-14-4.59a57.19,57.19,0,0,1-23.57-14c-5.58-5.36-11-10.88-17.51-15.24-1.11-.75-2.32-1.34-3.49-2l-.18-.1c-12.22-7.51-25.7-10.37-39.85-10.74-6.72-.17-13.33,1.22-20,1.45C461,70.3,466,69.52,470.82,68.5ZM443.4,77.33c23.46-6.47,46.64-7.5,69.17,3.64,9.32,5,16.82,12.3,24.26,19.6,11,10.84,25,15.14,39.5,18.24l3,.44,1.92,1.12v0s0,0,0,.06c-8.81.73-16.69-1.14-24.54-3.19-1.65-.43-3.17-1.35-5-1.27-9.39-3.47-17.44-9.09-24.89-15.62-18.75-16.41-41-22.21-65.33-21.67a24.61,24.61,0,0,0-7.32.15c-5.3-.16-10.58,1.18-15.92.28A25.56,25.56,0,0,1,443.4,77.33ZM409.7,91.88a15.35,15.35,0,0,1,3.38-2.14A161,161,0,0,1,432.21,82l23.12-1.86L462.7,80a103.55,103.55,0,0,1,47.12,10.32c7.27,3.55,13.13,9,19.38,14,7.76,6.14,15.93,11.55,25.77,13.84,10.95,3.59,22,5.33,33.49,2.59l1.52-.31,3.38-.16c.27.37,1.8.4.35,1.23-.71.41-1.46.75-2.2,1.12-22.71,6.84-44.8,5.5-66.11-5.23-7-3.51-12.89-8.6-19.2-13.12-19.79-14.18-41.24-23.23-66.26-20a92.2,92.2,0,0,0-23.46,6.38,19.25,19.25,0,0,0-6.46,2.2,5.08,5.08,0,0,1-4.58,1.54Zm182.77,32.86c-10.33,6-21,10.84-33.39,9.92-3.52-.27-7-.52-10.56-.77h-.07c-6.24-1.37-12.65-2.06-18.43-5.15-15.66-8.37-31.42-16.55-46.65-25.7-8.89-5.34-18.05-10.23-28.53-11.83a69.71,69.71,0,0,0-22.11-2.65,9.79,9.79,0,0,1-6-.09l4.92-1.18c20-5.42,38.67-.78,56.88,7.71,9.74,4.54,17.53,11.81,26.31,17.68,23.93,16,49.62,20.09,77.17,11.08ZM397.57,98.19l.48,1.12c-2.86,2.69-5.2,6-8.76,7.88A32.75,32.75,0,0,1,397.57,98.19ZM393,107.45c7.08-6.7,15.5-11.15,24.49-14.64,12.88-4.17,25.78-3,38.69-.2,16.66,4,30.11,14.5,44.82,22.45q13.68,7.38,27.36,14.76c6.66,3.57,13.93,4.83,21.36,5.44a59,59,0,0,0,40.58-7.34c2.86-1.68,5.47-4.1,9-4.48h0A89.43,89.43,0,0,1,573,141.53c-12.6,5.8-25.46,6-38.46,1.14a133.27,133.27,0,0,1-28-14.87c-7.93-5.38-15.25-11.69-24-15.88-1.24-.77-2.46-1.56-3.72-2.31-12.11-7.21-25.56-10.16-39.29-11.85a67.12,67.12,0,0,0-46.24,10.7c-1.15,1.71-3.09,2.23-4.74,3.2A13.28,13.28,0,0,1,393,107.45Zm-10.72,11.11,4.06-2.62c17.73-15,37.87-19.86,60.72-15.44a113.69,113.69,0,0,1,31.67,10.72h0a233.85,233.85,0,0,1,21.91,14.43,159.74,159.74,0,0,0,29,16.95c19.79,8.72,38.19,6.17,55.73-5.77,1.84-1.25,3.69-2.48,5.54-3.72-2.33,4-5.92,6.6-9.21,9.5a90.49,90.49,0,0,1-20.19,9.64c-21.85,7.25-41.16,2.69-58.54-11.88-5.36-4.49-10.51-9.26-16.42-13.05a.9.9,0,0,1-.49,0l.49,0c-13.37-9.52-26.89-18.71-44.07-19.71-15.79-.92-31.5-.89-46.55,5-1.82.71-3.52,1.72-5.27,2.59h0a4.89,4.89,0,0,0-2.79,1.54l-1,.33a8.73,8.73,0,0,1-4.16,2.59C381,120.17,382.25,119,382.23,118.56Zm177.26,47.52c-9.06,3.2-18.36,4.35-27.9,4.79-19.64.92-36.81-4.28-51.42-18a198.63,198.63,0,0,0-37.87-27.53c-7.06-4-14.27-7.88-22.65-8.49a47.87,47.87,0,0,0-17.89.71l-6.07.66c-1,.91-2.36.44-3.45,1-.23-.32-1.52-.32-.45-1a13.52,13.52,0,0,1,3-1.07,2.68,2.68,0,0,0,.32-.57c1.39.47,2.66-.18,3.94-.47,13.33-3,26.35-1.76,39.15,2.75,5.79,2,11.6,4,17.39,6,11.46,4.75,20.5,13.06,30.26,20.35,15.83,11.8,33.52,18.86,53.49,18.61a58,58,0,0,0,36.92-13.15,22.14,22.14,0,0,1,2.3-1.5l0,0,.48.39C574.23,157.13,568.16,163,559.49,166.08Zm3.33,1.74c-3.75.33-6.52,3.44-10.31,3.63l-4.84,2.22c-6.73,1.82-13.43,3.69-20.25,5.17-8.28,1.8-16,.65-23.72-2.43-1.7-.69-3.44-1.29-5.16-1.92-15.62-7.54-28.08-19.43-41-30.49s-27.15-19.9-43.89-24c-2.48-.61-5.08-1.26-7.73-.74,1.63-2,3.93-1.05,5.91-1.19,3-.21,6,0,9,.09a50.28,50.28,0,0,1,13.58,4.64c16.59,8.4,31.42,19.38,45.14,31.78,12.2,11,26.16,17.33,42.58,17.93a115.31,115.31,0,0,0,29.3-2.18c3.49-1.14,7-2.24,10.48-3.43C563,166.52,563.05,167,562.82,167.82ZM391,116.37c1.57-.77,3-1.89,4.83-2.06,17.75-6.88,36.15-7.09,54.48-4,12.89,2.17,23.45,10.14,34.25,17.1l.18.15c6.3,5.16,12.5,10.45,18.95,15.42a72.15,72.15,0,0,0,15,9.3c20.25,8.84,39.37,4.53,58-5.16-.19,1.49-1.23,2.3-2.35,3.13-12.74,9.56-27.1,13.29-42.84,11.75-18.95-1.87-35.22-10-49.65-22-9.44-7.89-19.43-14.78-31.32-18.51-3.24-1.13-6.51-2.21-9.73-3.4-14.58-5.37-29.4-6.75-44.54-2.72L395,116.45C393.71,115.47,392.33,117.5,391,116.37Zm12.43,9h0l-8.47-1.11c-6.92-.45-13.36,1.34-19.67,4-1.2.5-2.34,1.79-3.91.94,5.35-4.14,11.67-5.69,18.15-6.83l3.67.46a21.54,21.54,0,0,1,9.49,2c.26.12.52.26.77.4s.35.17.52.27Zm-8.21-3.66c-.85-.08-1.76-.13-2-1.24,6.38-.88,12.69,0,18.9,1.23C429,124.92,442.72,133.93,455.5,145c10.32,8.91,20.68,17.82,32.06,25.41a50.16,50.16,0,0,0,4.88,2.55h0c.7.38,1.4.77,2.11,1.14a7,7,0,0,0,1.08.57c9.12,4.75,18.56,8.16,29.34,6.11,7.83-1.49,15.71-2.82,23-6.21,5.1-1.88,10.34-3.45,14.84-6.67,1.09.48,1.77-1.27,3-.54a9.88,9.88,0,0,1-3.67,3.54c-4.87,3.15-9.92,6-14.63,9.39-9.57,6.81-20.23,9.89-31.83,10.64-12.91.84-24.49-1.64-33.8-11.4-7.32-7.67-14.85-15.14-22.28-22.71S444.8,141.93,436,136.12a49.12,49.12,0,0,0-16.13-8.48C411.87,125,403.71,122.58,395.23,121.7Zm58.41,35.94c-3.73-4.5-7.74-8.76-11.62-13.13-2.21-1.8-4.08-4-6.63-5.37l-5.76-3.66-4.27-3.15c3.51.68,5.69,2.44,8.17,3.53l4.37,3.45c4.5,2.37,7.79,6.23,11.31,9.71,10.42,10.31,20.53,20.93,30.94,31.26,5.74,5.71,12.12,10.57,20.55,11.61,16.76,2.07,32.69.25,47-9.73,4.68-3.26,9.7-6,15.22-9.45a13.7,13.7,0,0,1-1.15,2.75c-8.77,11.08-19.08,20.73-32.52,25.21-20.51,6.83-38.5,1.4-52.73-15C468.62,176.6,461.33,166.94,453.64,157.64Zm24.68,33.9c-.25-.36-.44-.92.21-1.24a6.7,6.7,0,0,1,1.53.95c7.41,8.13,16.89,12.12,27.56,13.37,23.56,2.77,39.47-10.52,54.15-26.22a11,11,0,0,0,1.89-3.15,34,34,0,0,1,5.16-8.05c-.06.74-.11,1.48-.17,2.21-4.7,9.2-8.74,18.76-14.54,27.37-.77.78-1.6,1.5-2.31,2.33-8.76,10.22-20,15.7-33.23,17.26-7.85.92-15.59.16-22.3-4.49C488.65,206.6,483.53,199,478.32,191.54Zm91.19-23.34a3.45,3.45,0,0,1-.74,1Zm-85.39,33.93c5.23,6.67,10.74,13,19.6,14.83,17.38,3.57,32.37-1.28,45.38-13a8.24,8.24,0,0,1,3.85-3.27c-1.66,2.17-2.33,4.17-4,5.5h0l-3.37,4.17c-5.5,3.64-10.6,7.9-16.79,10.45-10.23,4.21-20.43,4.76-30.64,0A46.13,46.13,0,0,1,485,206.14C484.37,205.05,482.67,203.84,484.12,202.13ZM530,228.83l-8.41,2.94a66.14,66.14,0,0,1-8.77-.38c-8.14-1.23-14.3-5.8-19.94-11.35a8.67,8.67,0,0,1-3.1-4.25,14.36,14.36,0,0,1,4.72,4.16c2.83,1.36,5.14,3.8,8.45,4.18l.11,0c10.32,2.69,20.11,1.13,29.51-3.64a57.4,57.4,0,0,0,9.25-6c.63-.5,1.16-1.66,2.3-.76A62.14,62.14,0,0,1,530,228.83Zm4-1.22c8.6-7.74,14.75-17.29,20.36-27.26,1.77-1.48,2.37-3.69,3.44-5.6,6.35-11.38,11.72-23.29,18.46-34.46,3.62-6,5.8-12.78,10.56-18.16s9.39-11.37,14.25-16.9c1.7-1.93,3-4.43,6.07-5.71a21.11,21.11,0,0,1-.86,2.07c-5.62,9.54-7.51,19.77-7,30.84.77,15.56,2.54,31.3-3.44,46.4-7.13,15.35-16.89,27.7-34.93,30.58-9.4.13-18.81-.91-28.2.26C532,228.29,533.44,228.13,534,227.61Zm37.56,40.89c-6.83-5.08-11.08-12.08-14.7-19.57a31.41,31.41,0,0,0-10.66-12.72,11.92,11.92,0,0,1-5.67-3.45c3,.71,5.86,1.43,8.13,3.57,7.53,4,13.32,9.9,18.48,16.56,6.39,8.22,12.51,16.77,22.46,21.43C583,274.14,576.94,272.49,571.59,268.5Zm24.28,5.68c-9.54-2.48-16.52-8.57-22.27-16.24-8.51-11.35-17.71-21.85-31.67-26.86a5.34,5.34,0,0,1,4.12-.17c12,4.17,22.29,10.84,30.26,21,4.9,6.21,10.4,11.87,17.16,16.14a85.51,85.51,0,0,0,14,6.65A23.15,23.15,0,0,1,595.87,274.18Zm4.38-4.34c-9.56-4.7-16.72-12-23.39-20-6.17-7.39-13.38-13.41-22.45-17-.45-.18-.92-.35-.64-1.1,1.77-.59,3.57-.13,5.38.12l12.94,7.6a220.16,220.16,0,0,1,19.16,15.62c7.27,6.44,15.28,11.69,25,13.54,3.34.63,6.74.91,10.49,1.4C617.62,274.6,609,274.17,600.25,269.84ZM623.06,268c-12.65-1-22.74-7.24-31.94-15.42-5.23-4.65-10.43-9.35-16.49-12.95-3-2.92-7.15-4-10.54-6.65,2-1.27,3.33.38,4.87.34l1.19.35a3.08,3.08,0,0,1-.66-.13l7.07,2.9h0a113.66,113.66,0,0,1,28.56,18.89c8,7.29,17.42,10.4,28.1,10.28,1.19,0,3-1.14,3.68,1A36.15,36.15,0,0,1,623.06,268Z" transform="translate(0 -43.76)"/></g></g></g></svg>