<svg xmlns="http://www.w3.org/2000/svg" xmlns:xlink="http://www.w3.org/1999/xlink" viewBox="0 0 566.17 454.74"><defs><style>.cls-1{fill:none;}.cls-2{clip-path:url(#clip-path);}.cls-3{fill:#a18978;}</style><clipPath id="clip-path" transform="translate(-193.16 -15.17)"><rect class="cls-1" x="82.61" y="98.19" width="460.61" height="424.87" transform="translate(752.16 348.99) rotate(140.2)"/></clipPath></defs><g id="圖層_2" data-name="圖層 2"><g id="飄移"><g class="cls-2"><path class="cls-1" d="M468.83,283a52.27,52.27,0,0,0-15.36,5.64c-8.41,4.51-16.71,9.24-25.07,13.86a40.85,40.85,0,0,1-17.17,5.36l-.15,0-9.18.84c1.59,1.65,3.64,1.41,5.36,1.92,11.52,3.4,22.33,1.28,32.65-4.33,4.19-2.28,8.57-4.32,12.18-7.48,6.48-5.69,14.2-7,22.42-6.95a19.63,19.63,0,0,0,10.68-2.75c1.2-.74,2.72-1.59,2.77-3,.06-1.56-2.09-1-2.93-1.9A34.13,34.13,0,0,0,468.83,283Z" transform="translate(-193.16 -15.17)"/><path class="cls-1" d="M437.76,313.6c4.74-3.37,9.5-6.69,14.17-10.16a76.51,76.51,0,0,1,16.17-8.95.66.66,0,0,1,0-.14l-2.08-.49c-5.28.44-9.2,3.7-13.31,6.51a98.29,98.29,0,0,1-20.26,10.86c-8.6,3.3-17.28,3.06-26.06.68-4.61-1.25-9.2-2.75-14.14-2.55,7.93,4.31,15.31,9.71,24.47,11.28C424.65,321.05,431.46,318.09,437.76,313.6Z" transform="translate(-193.16 -15.17)"/><path class="cls-1" d="M577.4,43.16l.19,0c1.26.18,2.53.27,3.77.55,7.18,1.6,13.89,4.56,20.65,7.35a54.07,54.07,0,0,0,25.55,4.16c4.63-.39,9.27-.55,13.91-.81h0l2.47-1c-.25-1-1.08-.91-1.69-.9-13.48.07-25.62-4.92-37.79-9.89a107.61,107.61,0,0,0-24-7.07c-10.3-1.64-19.79,1.39-29.39,4.16-3.09.89-6,2.5-9.32,2.54-2.65,2.25-6,3.2-8.91,5.08-3.92,2.58-8,5-11.35,8.33,5.83-2.52,11.16-6,17.13-8.2C551.22,42.92,564.06,40.77,577.4,43.16Z" transform="translate(-193.16 -15.17)"/><path class="cls-1" d="M449.12,307.24A134.1,134.1,0,0,1,433,318.3c-6.27,3.52-12.88,5.25-20.06,3.09h0c-8.26-2-15.11-6.95-22.6-10.56-5.13-2.47-10.34-4.64-16-5.5-4.34-1.22-8.79-1.32-13.25-1.34-1.59,1-3.72.29-5.33,1.74l2.41.32h12.56c4,.28,7.18,2.37,10.32,4.41,9.27,6,19.17,11,28.33,17.2a25,25,0,0,0,23.94,2.86c2.14-1.13,4.37-2.16,6.43-3.44,5.37-3.33,9.69-7.91,14.18-12.29a39.73,39.73,0,0,1,5.79-6.95c4.15-5.62,9.68-9.6,16.49-13.16l-3.89-.05C463.62,297.1,456.18,301.81,449.12,307.24Z" transform="translate(-193.16 -15.17)"/><path class="cls-1" d="M456.06,316.93q-2.61,6.58-5.2,13.15c-.57,5.2-2.41,9.8-6.29,13.44-9.52,13.18-38.27,17.18-50.76-.71-3-4.29-6.37-8.31-9.69-12.35C378.2,323.25,370.63,318,362.88,313c-1-1.17-2.4-1.55-4.13-1.91a3.64,3.64,0,0,0,2.72,2.57c10.42,9.4,20.33,19.21,27,31.79a35.14,35.14,0,0,0,3.45,4.83c10.94,14.13,26.9,17.7,42.88,9.62.51-.26,1.05-.47,1.58-.71,1.22-.86,2.42-1.76,3.68-2.56a26,26,0,0,0,11.86-17.3c1.52-7,3.16-14,4.75-21.05a2.91,2.91,0,0,0,.27-.88c.63-1.49,1.88-2.9.48-4.66C456.77,314.09,455.92,315.35,456.06,316.93Z" transform="translate(-193.16 -15.17)"/><path class="cls-1" d="M439.23,268.81c-2.39,2.2-4.48,4.73-7.25,6.51-5.68,6.78-12,12.89-19.89,17-4.18,2.17-8.65,3.78-12.92,5.8-.69.32-2.67-.12-1.84,1.86a25.56,25.56,0,0,1,6.36-1.22c8.67-1.86,16.7-5.13,23.48-11,3.52-3,6.86-6.31,10.44-9.29,6.46-5.38,13-10.6,21.74-11.92,11.24-2.67,20.83,1,29.71,7.86.07-.43.28-.85.16-1-3.49-4.57-6.56-9.45-12.46-11.6C462.8,256.72,450.29,258.61,439.23,268.81Z" transform="translate(-193.16 -15.17)"/><path class="cls-1" d="M446.13,251.59c-1.31.39-1.9,1.46-2.94,2.9a8.45,8.45,0,0,0,4.36-2.14c10.78-5,21.41-5.87,31.75,1.11,2,1.34,2.74,1.1,2.7-1.49-.1-5.75-2.24-8-7.8-9.1C463.16,240.63,454.12,244.27,446.13,251.59Z" transform="translate(-193.16 -15.17)"/><path class="cls-1" d="M461,267.35h0c-4.9,1.41-9.68,3-14,5.93-6.58,4.41-12.31,9.8-18.07,15.17-6.33,4.79-13,8.88-20.88,10.64-.9.21-1.81.34-2.72.5h0l-1.65,1c.89.66,2.31-.4,2.83,1.05a2.29,2.29,0,0,1-.64,0c-.32,1.19-1.25.79-2,.76a11.82,11.82,0,0,1-6.59-.11c-7.06-.66-14-.1-21.87,1,11.18,3,21.53,4.84,32.2,3.76h0c10.25-.74,19.24-4.88,27.91-10.07a203.63,203.63,0,0,1,20.58-11.09c8.22-3.72,16.6-6.11,25.7-3.81.66.17,1.39.33,1.79-.53-8.53-6.51-18-5.61-27.6-3.47-10.12,2.25-18.48,7.91-26.67,13.89-4.51,3.3-9.06,6.51-14.36,8.45-2.51.92-5,1.77-7.77,1.19h0s0,0,0-.06c.06-.91,1-1.05,1.47-1.12,8.58-1.13,15.18-6.06,21.68-11.19,7.33-5,14.71-9.86,23.42-12.17,12-3.18,23.53-3.88,33.5,5.38.53.49,1.28,1.46,2,.46,1-1.43,1.93-3.14.76-4.85a19.52,19.52,0,0,0-5.09-4.74C477.65,268.24,469.64,266.52,461,267.35Z" transform="translate(-193.16 -15.17)"/><path class="cls-1" d="M469.19,236.72c-13.91-1.25-24.1,5.71-32.67,15.61-4.11,4.75-7.67,10-11.47,15A69.7,69.7,0,0,1,383.23,294c-4.88,1.07-9.68,2.46-14.52,3.7l-11.93,4.74c.46.91,1.31.79,2.11.82a42.28,42.28,0,0,1,6.14-1,151.32,151.32,0,0,0,26.51-3c9.59-3.2,18.87-6.92,25.52-15.1,9.61-13,19-26.14,31.72-36.52,8.3-6.79,17.53-8,27.63-6,.89.18,2.06,1.36,2.75,0s-.44-2.22-1.34-2.94C475.27,236.55,472.09,237,469.19,236.72Z" transform="translate(-193.16 -15.17)"/><path class="cls-1" d="M451.59,253.76a45.91,45.91,0,0,0-3.62,3.63c-1.42,1.76-4,2.71-4,5.55a32.65,32.65,0,0,1,18.64-5.56c7.75.19,15.08,2,21.73,6.68C480.2,249.89,460.37,246.33,451.59,253.76Z" transform="translate(-193.16 -15.17)"/><path class="cls-1" d="M406.21,341.8a59.44,59.44,0,0,1-17.31-11,12.59,12.59,0,0,0-2-1.29c12.33,25.83,37.26,31.35,56.89,13.09,1.48-2.45,3.45-4.64,4.22-7.47.32-1.16,1.68-2.38.12-3.63C439.23,343.13,420.18,347.85,406.21,341.8Z" transform="translate(-193.16 -15.17)"/><path class="cls-1" d="M431.22,274.53c2.58-3.88,6.14-6.91,9.12-10.44,1.79-3.12,4.45-5.51,6.84-8.13.54-.58,2.23-.87,1.08-2.31A38.93,38.93,0,0,0,435,264.5c-4.51,5.88-9.2,11.61-13.87,17.35a35.22,35.22,0,0,1-3.23,3.11l-.79,1.33-2.94,2.28.66.85a6,6,0,0,0,3.1-2.29C422.9,283.5,426.93,278.88,431.22,274.53Z" transform="translate(-193.16 -15.17)"/><path class="cls-1" d="M393.29,289.32c13.27-4.74,23.47-13.5,31.75-24.72,5.8-7.84,11.2-16,19.32-21.88,5.7-4.12,11.64-7.25,18.81-7.51a18.32,18.32,0,0,0,2.08-.21c.18,0,.33-.19.92-.56a20.83,20.83,0,0,0-12.52.18c-8.48,2.57-15.3,7.64-21.39,13.95-6.8,7.05-12.95,14.66-19.33,22.06-9.13,10.61-20.9,16.81-34,21-.19.06-.32.3-.48.46l-5,2.15a11,11,0,0,0,7.2-1.29C384.92,291.76,389.19,290.78,393.29,289.32Z" transform="translate(-193.16 -15.17)"/><path class="cls-1" d="M404,339c15.61,8,33.88,2.29,42.94-8.61,3.18-3.82,4.54-8.58,6.87-12.84-1.42.23-2,1.51-2.92,2.35-4.86,4.51-9.66,9.1-16.09,11.38-9.1,4.32-17.83,3.3-26.27-1.85-9.63-5.87-19.29-11.68-28.88-17.61a25.54,25.54,0,0,0-13.13-4.2c-3.49-.07-7-.07-10.47-.11.05.35.1.7.16,1,9.77,2.51,17.35,8.89,25.23,14.61C388.85,328.57,395.7,334.74,404,339Z" transform="translate(-193.16 -15.17)"/><path class="cls-1" d="M515.52,83.87c12.65-3.26,25.49-5.3,38.63-3.15,1.36.22,2.71.49,4.07.74,9.12.67,17.73,3.69,26.57,5.68a125.75,125.75,0,0,0,29.75,3.41c13.11-.21,24.34-4.83,33.41-14.28a84.6,84.6,0,0,0,16.84-25c-3,1.55-4.45,4.58-6.39,7a55.65,55.65,0,0,1-33.14,20.47c-6.74,2-13.57,3.44-20.66,2.6-9.72-1.15-19.43-2.35-29.15-3.53-15.67-1.91-31.11-6.45-47.15-4.26-12.33,2-24.07,5.43-33.95,13.54-6.7,6.17-12.57,13-16.47,21.32a12.64,12.64,0,0,0-2.39,5.22c1.12-1.42,2.64-2.55,3.06-4.45A63.44,63.44,0,0,1,515.52,83.87Z" transform="translate(-193.16 -15.17)"/><path class="cls-1" d="M478.74,98.75a31,31,0,0,0-4.18,10.78c2.47-2.93,3.4-6.61,5-10Z" transform="translate(-193.16 -15.17)"/><path class="cls-1" d="M487.83,89.74a18.19,18.19,0,0,1,4.92-4.16,86.7,86.7,0,0,1,18.42-13.71c20.9-11.46,42.88-10.91,65.18-5.28,7.1,1.79,14.07,4.23,21.41,4.9,22.44,2.08,42.32-4.37,59.93-18.23.51-.58,1.06-1.14,1.54-1.74,1-1.24-.36-.74-.73-1l-2.91,1.31-1.23.8C645.24,59,634.89,61.32,624,62c-9.44,1.38-18.49-.55-27.44-3.27-7.21-2.19-14.24-5-21.87-5.59a97.85,97.85,0,0,0-45,7.19l-6.45,2.62-19.69,9.62A149.47,149.47,0,0,0,489.46,86a14.79,14.79,0,0,0-2.24,3l-2.88,3.65A4.77,4.77,0,0,0,487.83,89.74Z" transform="translate(-193.16 -15.17)"/><path class="cls-1" d="M528.24,59.54C549.46,50.65,571,48.07,593.16,56c8.81,3.16,17.83,5.32,27.28,5.13,1.54-.68,3.19-.4,4.79-.59,7.61-.91,15.18-2,22.68-5.67a.09.09,0,0,1,0,0l0,0-2.07-.33-2.79.66c-13.86,2.29-27.58,3.32-41-2.4-9-3.85-18.17-7.67-28.09-8.85-23.66-2-43.68,6.9-62.08,20.68A25.89,25.89,0,0,0,508,67.94c5-1.06,9.2-4.06,13.91-5.74A22.76,22.76,0,0,1,528.24,59.54Z" transform="translate(-193.16 -15.17)"/><path class="cls-1" d="M586.81,71c-9.75-2.12-19.11-5.83-29.23-6.46-18.94-1.17-36.92,1.18-52.68,12.87L501,80.14a9.39,9.39,0,0,0,5.33-2,65.57,65.57,0,0,1,20.36-5.31c9.76-2.21,19.5-1.08,29.16.54,16.56,2.79,33.23,4.53,49.89,6.49,6.15.72,12-.89,18-1.84l.06,0,9.55-3c11.21-3.46,18.91-11.42,25.93-20.24l-.78-.71C637.38,71.52,613.37,76.77,586.81,71Z" transform="translate(-193.16 -15.17)"/><path class="cls-1" d="M434.78,331.28a.84.84,0,0,0-.4-.2Z" transform="translate(-193.16 -15.17)"/><path class="cls-1" d="M567,93.65l-.42.19A.77.77,0,0,0,567,93.65Z" transform="translate(-193.16 -15.17)"/><path class="cls-1" d="M395.43,266.93c12-8,20.61-19.34,28.76-31,7-10,16.46-15.81,28.31-18,.91-.17,1.79-.49,3-.83l-1.46-.71a.79.79,0,0,1-.57-.27c-13.49-1.36-23.36,5.7-32.54,14.16-9,8.27-16.12,18.05-22.5,28.41a61.67,61.67,0,0,1-6.33,9.13C393.8,269.7,394.58,267.5,395.43,266.93Z" transform="translate(-193.16 -15.17)"/><path class="cls-1" d="M473,122.8a8.21,8.21,0,0,0,2.77-3.71l.8-.65a4.59,4.59,0,0,1,1.91-2.32h0c1.24-1.37,2.39-2.84,3.74-4.1,11.2-10.38,25-15.83,39.2-20.48,15.45-5.06,30.51-1.64,45.55,2.11,6.51,1.29,12.68,3.7,18.94,5.8,20.32,6.81,38.87,4.15,55.58-9.77a86.1,86.1,0,0,0,14.42-15.44c1.89-3.69,4.15-7.21,4.82-11.54-1.2,1.73-2.4,3.45-3.59,5.18-11.3,16.56-26.6,25.15-47,24.33a151.32,151.32,0,0,1-31.35-4.9,225,225,0,0,0-24.24-5.12h0A107.54,107.54,0,0,0,523,83.71c-21.62,4-37.65,15.21-48.06,34.54L472.29,122C472.45,122.34,471.78,123.79,473,122.8Z" transform="translate(-193.16 -15.17)"/><path class="cls-1" d="M469.49,132.85c4.64-4.49,9.69-8.29,15.92-10.28l7.84-1.95h0l.47-.11c-.18,0-.36,0-.54-.06l-.82-.09a20.42,20.42,0,0,0-9,1.54l-3.38.86c-5.3,3.24-10.32,6.79-13.6,12.28C468.05,135.23,468.6,133.71,469.49,132.85Z" transform="translate(-193.16 -15.17)"/><path class="cls-1" d="M435.19,361.44c-7.78,4.37-16.08,4.78-24.68,3.41-10.63-1.68-17.06-8.84-22.71-17.07-2.24-3.26-4.34-6.61-6.43-10-6.24-10-15.47-17.14-24-24.94a3,3,0,0,0-3-1.12,4.81,4.81,0,0,0,2.37,2.32c7.89,8.63,13.32,18.8,17.69,29.48a55.76,55.76,0,0,0,21,25.45A23.15,23.15,0,0,0,416,372.22c7.37-2.23,14.53-5,20.38-10.26,1.52,0,2.33-1.48,3.67-1.88h0c1.42-1.66,3.72-2.39,5-5-3.07,1.45-5,3.87-7.86,4.81Z" transform="translate(-193.16 -15.17)"/><path class="cls-1" d="M235.12,252c11.14,10.83,24,17.33,40,16,4.62-.39,9.26-.5,13.9-.73.83-2.4-1.39-1.31-1.94-1.41-6.3-1.11-12.64-2-19-3-15.57-2.42-28.43-9.85-39.18-21.18-1.2-1.27-2.47-2.47-3.71-3.7a15.47,15.47,0,0,0-5.65-5.33,22.42,22.42,0,0,0,5,6.63l9,11.33Z" transform="translate(-193.16 -15.17)"/><path class="cls-1" d="M348,258.82c2.24-3,4.43-6,6.64-8.94-2.4.61-3.81,2.59-5.58,4.05-7,5.85-13,13.08-21.39,17.25h0c-16,10.18-32.9,17-52.38,14.23a50.59,50.59,0,0,1-18.93-6.82l-16.68-9.93c5.14,7.5,11.84,11.74,18.82,15.65C289.05,298.48,328.9,284,348,258.82Z" transform="translate(-193.16 -15.17)"/><path class="cls-1" d="M339.65,259.36c-20.25,14.48-42.53,21.36-67.51,17.68a100.79,100.79,0,0,1-24.78-6.8c-1.17-1.2-2.9-1.28-4.24-2.13.25,2.07,2,2.32,3.5,2.85,13.67,9.42,28.16,15.9,45.39,13.14A91.18,91.18,0,0,0,322.37,273c1.52-.85,3.06-1.67,4.59-2.51,4.48-3.43,9.59-6.06,13.39-10.37,1.68-1.4,3.74-2.45,4.34-4.81C343,256.67,340.9,257.48,339.65,259.36Z" transform="translate(-193.16 -15.17)"/><path class="cls-1" d="M292.69,276.07c16.82-1.21,31.7-7.78,45.34-17.4,1.12-.79,2.1-1.77,3.14-2.67,2-.2,3-2.08,4.68-2.93a2.75,2.75,0,0,1,.3-.14h0l9.78-8h0c-1.91-.78-2.47,1.19-3.67,1.84a31,31,0,0,0-3.27,2.35l-9.24,6.13c-4.76,3.08-10.1,4.88-15.29,7-6,3.49-12.57,5.68-19,8.13-.54-.15-1.26,0-1.47-.77,4.57-1.83,9.15-3.64,13.7-5.5.52-.22,2.58-.33.36-1.37l-5.55.71h0c-4.53,2.49-9.67,2.78-14.56,3.87-6.27,1.4-12.71,1.44-19.08,2-4.93-.27-9.81,1.21-14.75.46a66.14,66.14,0,0,1-17.64-7c-5.26-2.94-10.15-6.41-13.68-11.46L222.4,238.65c-1.23,1.34.12,2.3.58,3.29,3.84,8.2,9.7,15,15.47,21.83C255.22,273.65,273.41,277.45,292.69,276.07Z" transform="translate(-193.16 -15.17)"/><path class="cls-1" d="M235.26,223.94a35.77,35.77,0,0,0,8.2,7c8.33,5.1,16.68,10.18,25.78,13.85a116.16,116.16,0,0,0,50.46,3.17c7.46-1.19,14.9-2.48,22.35-3.73l2.91-1.08c-6.12-1.28-12.22-.12-18.28-.51-.78,1.24-2.08.79-3.15.92-12.09,1.46-24.21.81-36.32.57a47.5,47.5,0,0,1-23.53-7A95.57,95.57,0,0,1,247,225.08c-9.1-8.49-18.52-16.69-24.89-27.65-4.18-6-7.23-12.49-8-19.88-.39-1.19,0-2.58-1-3.85-1.75,3.25-2.41,6.71-3.22,10.11a13.27,13.27,0,0,1,.67,4.72,1.76,1.76,0,0,1,.48,1.63,67.69,67.69,0,0,0,11.41,19.49C226.56,214.55,231,219.14,235.26,223.94Z" transform="translate(-193.16 -15.17)"/><path class="cls-1" d="M230.31,237.35c8.66,6.76,17.71,12.86,28.23,16.44l-1.31.61.55.25-.55-.25c-9.91-3.09-18.39-8.66-26.44-15-1.51-1.11-2.49-3.1-4.8-2.89,1.1,1.2,1.9,2.72,3.53,3.36,7.6,7.6,15.49,14.8,26.08,18a174.65,174.65,0,0,0,44.86,7.45h.05l8.09-1.93a2.15,2.15,0,0,0,.23-.28c-.29-.67-1-.58-1.58-.64l-22.74-2.26.72-.72-.46-.08a1.26,1.26,0,0,1,.46.08c10.25.1,20.43,2.13,30.72,1.1,11.67-1.65,22.52-5.43,32.2-12.29,2-2.34,4.76-3.66,7.11-5.52a10.58,10.58,0,0,1,4.32-1.23l2.79-2.94-.29-.52-8.22,4c-7.58,2.06-14.3,6.18-21.63,8.86a97.52,97.52,0,0,1-61.73,2.29c-10.54-3-21.09-6-30.26-12.31-1.05-.72-2.05-1.51-3.07-2.27a57.54,57.54,0,0,1-25.79-33c.65,11.78,2.55,22.86,14.69,28.63C227.48,235.31,228.94,236.27,230.31,237.35Z" transform="translate(-193.16 -15.17)"/><path class="cls-1" d="M232.94,233.77c1.8,1.25,3.43,2.76,5.14,4.15a117.93,117.93,0,0,0,65.49,17.56c11.57-.27,22.21-3.85,32.79-7.95,1.63.3,2.85-.71,4.19-1.32-2-.9-3.75,0-5.54.66a12.9,12.9,0,0,0-2.42.16c-10.06,2.63-20.36,3.4-30.68,3.72a95.21,95.21,0,0,1-34.19-5.29c-8.74-3-16.39-8.13-24.35-12.65a36.57,36.57,0,0,1-8.91-7.18c-3.45-3.76-7-7.42-10.37-11.26-5.9-6.75-11.4-13.75-13.78-22.65-1.67,2.33-.35,4.69.27,6.84,1.19,4.13,2.81,8.13,4.34,12.15A48.64,48.64,0,0,0,232.94,233.77Z" transform="translate(-193.16 -15.17)"/><path class="cls-1" d="M367.57,264.58c5.73-15,14.71-28,25.17-40.13a.55.55,0,0,1,.47-.77c-1.3-1.14-2,.23-2.83.75a41.51,41.51,0,0,0-15.06,17.9c-4.36,9.63-9.12,19-14.06,28.37-3.41,6.45-6.63,13.09-12.72,17.63-5.22,5-11.48,8.34-17.88,11.74l3.76,0a23,23,0,0,0,8.34-2.11,49.61,49.61,0,0,0,13.77-15C360.25,276.91,363.89,270.74,367.57,264.58Z" transform="translate(-193.16 -15.17)"/><path class="cls-1" d="M367,269c-1.88.56-2.2,2.42-3.05,3.77-3.77,6-6.64,12.55-11.31,17.95-1.66,1.93-3.61,3.61-5.36,5.47-1.48,1.56.48.75.79,1.08l.16-.08h0C360,291.43,364.64,281,367,269Z" transform="translate(-193.16 -15.17)"/><path class="cls-1" d="M340.26,276.34c8.93-8.9,15.24-19.64,21.47-30.45a8.56,8.56,0,0,0,2.58-4.95,10.35,10.35,0,0,0-3.5,4c-5.45,6.23-9.71,13.39-15.39,19.43-15.74,16.75-35.11,25.65-58,26.93-1,.05-2.1-.23-3.19.71,2.25,1.29,4.68,1.37,7,1.69C310.54,296.41,326.65,289.92,340.26,276.34Z" transform="translate(-193.16 -15.17)"/><path class="cls-1" d="M356.47,276.64h0c3.4-4.83,5.66-10.28,8.35-15.49,4.15-8.49,8.28-17,12.46-25.44a7.59,7.59,0,0,1,1.38-1.53h0c1-1,2.24-1.86,2-3.55l-2.82,2.76c-5.6,5.42-8.26,12.49-11,19.51l-2.67,6.78h0c-2.75,5.42-5.27,11-8.48,16.14-7.41,8.79-15.82,16.32-26.59,20.78-3,1.22-6.08,2-9.58,3.1,2.63,1.1,4.86.48,7.08.11,7.57-3.21,14.84-6.94,21.22-12.22A35.27,35.27,0,0,0,356.47,276.64Z" transform="translate(-193.16 -15.17)"/><path class="cls-1" d="M334.42,300.11l-.83.27A2,2,0,0,0,334.42,300.11Z" transform="translate(-193.16 -15.17)"/><path class="cls-1" d="M434.65,199.38c-10.92,4.61-18.16,12.93-23.53,23.23,8.3-8.08,17.62-14.55,29.16-16.5,11.93-2,22.62,1.19,31.86,10.91a19.25,19.25,0,0,0-4.19-9.59C459.48,197,447.22,194.07,434.65,199.38Z" transform="translate(-193.16 -15.17)"/><path class="cls-1" d="M468.38,190.4c-8.38-4.13-17.19-4.94-25.9-.57a35,35,0,0,0-10.59,7.92c17.52-6.95,35-1.6,42.5,16.95C479,203.81,477,194.66,468.38,190.4Z" transform="translate(-193.16 -15.17)"/><path class="cls-1" d="M216.17,177.61c-1.4,1-.45,2.23-.23,3.34,1.13,5.75,4.47,10.5,7.07,15.59a146.39,146.39,0,0,0,39.33,37.78,50.63,50.63,0,0,0,28,8.45c9.44,0,18.88.55,28.31-.18,2.19-.16,4.26-1.22,6.51-.79-2.06-2.14-4.93-1.26-7.38-2-2.61-.74-5.43-.51-8-1.53h0c-8.33-1.23-16.84-.09-25.09-1.48-17.08-2.88-30.68-12.73-43.89-23.15-5.43-4.06-9-9.66-12.59-15.25C223.86,191.67,219.07,185.19,216.17,177.61Z" transform="translate(-193.16 -15.17)"/><path class="cls-1" d="M475.07,184.14a29.2,29.2,0,0,0-34-2.22c-11.92,7.56-20.86,18.08-28,30.16-1.53,1.64-1.87,3.79-2.56,5.83a11.31,11.31,0,0,0,3.28-4.39c6.22-8.72,14-15.89,22.48-22.29,9.64-7.27,20.2-7.77,31.14-3.67,6.6,2.48,10.38,7.56,11.53,14.77C482.34,196.6,480.54,188.65,475.07,184.14Z" transform="translate(-193.16 -15.17)"/><path class="cls-1" d="M419.57,218.23a64.76,64.76,0,0,0-20.42,27.87c-1.93,5-3.95,10-6.15,15.58,2.55-1.06,3.09-2.82,4-4.24,7.85-12.65,16.84-24.28,28.55-33.69,14.61-11.73,28.91-13,45.21-3.8-1.24-3.37-7.39-8.35-12.43-10.14C443.64,204.59,431,209.13,419.57,218.23Z" transform="translate(-193.16 -15.17)"/><path class="cls-1" d="M425.65,236.52c-2.72,3.92-5.6,7.74-8.53,11.51-7.19,9.28-15.49,17.36-25.71,23.31-3.47,2.68-5.72,6.46-8.61,9.66.6,1,1.16.31,1.65-.07,11.08-8.49,22.8-16.16,32.45-26.44,5-5.3,8.46-11.7,13.15-17.18,8-9.37,17.67-15.89,30.65-15.46,3,.09,5.95.91,8.93,1.4-1.17-3.25-4.6-3.34-6.93-5C447.65,218.88,434.63,223.54,425.65,236.52Z" transform="translate(-193.16 -15.17)"/><path class="cls-1" d="M434.15,234.87a39.08,39.08,0,0,0-6.3,7.9c-7.61,11.84-17.8,21.11-29.09,29.29q-9,6.53-18,13.12c-2,2.56-4.82,4-7.55,5.61h0L372.12,292a9.14,9.14,0,0,0-3.18,2.63,7.34,7.34,0,0,0,4.09-1.72c5.33-2.23,10.65-4.51,16-6.68,13.85-5.63,23-16.59,32.22-27.68,5.7-6.89,11.51-13.8,18.94-19,9.53-6.65,19.68-10.05,31.2-5.28,2.16.89,4,.92,3.61-2.32-1.45-5-5.2-7-10-8C452.5,221.33,442.9,226.91,434.15,234.87Z" transform="translate(-193.16 -15.17)"/><path class="cls-1" d="M241.67,212.85c7.8,6.72,16.81,11.59,25.66,16.69A44.62,44.62,0,0,0,290.91,236c.33.06.66.1,1,.14,4.59.63,9.23.35,13.85.54l2,.17c1,.92,2.36.41,3.49.81h0l18.66,3c-2-1.39-4-1-5.34-2.17-4.69-1.6-9.63-1.86-14.48-2.58-8.83-1.68-17.77-3-26.39-5.61-16.4-5-31.42-12.54-44.1-24.31h0c-4.34-3.43-7.3-8.12-11-12.13-.76-2-2.33-3.46-3.63-5.07-5.27-6.51-7.31-14.36-9.33-22.22h0c-.31,11.45,6.34,19.9,12.28,28.67C232.14,201.35,235.87,207.9,241.67,212.85Z" transform="translate(-193.16 -15.17)"/><path class="cls-1" d="M403.86,225.17c1,.08.57-1.15,1.24-1.38h0c.51-2.08,1-4.15,1.55-6.23h0c3.07-10.32,7.13-20.22,13.71-28.84,7.12-9.33,15.51-17,27.55-19.5a32.2,32.2,0,0,1,18.37.66,46.68,46.68,0,0,1,13.6,6.77l3.65,3.54a7.89,7.89,0,0,0-2.7-4.47c-6.22-6.94-14.12-10.41-23.27-11.12-4.28-.33-8.58-.36-12.88-.4-9.17-.09-16.6,4-22,10.92-8,10.27-13.95,21.67-15.86,34.81.66,1.76-1.2,3.06-.88,4.76-.22.5-.45,1-.67,1.49-.47,3-.93,6-1.4,9Z" transform="translate(-193.16 -15.17)"/><path class="cls-1" d="M412.6,188.27c4-7,7.53-14.19,14.24-19.17,5.31-3.94,11.1-6.35,17.74-6.38,8.59,0,17.23-.32,25.67,2.65l-7-6.48h0c-4.36-3-9.46-3.91-14.45-5.16-13.88-.82-23.51,5.61-29.95,17.51a104.14,104.14,0,0,0-6.88,15.59c-1.28,1.65-1.56,3.69-2.26,5.58l.78.71Q411.53,190.68,412.6,188.27Z" transform="translate(-193.16 -15.17)"/><path class="cls-1" d="M452.06,169.79l-1.89.17c-3.08,1-6.31,1.46-9.26,2.95-14.56,7.32-23.35,19.52-29.18,34.25-1.19,2.66-3.1,5.12-2.22,8.33l2.94-6.89C420,198.25,428,188.22,438.86,181c10.51-6.93,21.37-7.13,32.48-1.62,7.14,3.54,11.55,9,11.2,17.47,3.68-3.11,3.87-7.95.75-14.55-6.25-7.15-14.47-10.59-23.52-12.46Z" transform="translate(-193.16 -15.17)"/><path class="cls-1" d="M451.57,152.43h0c4.51-4.18,7.73-9.3,10.69-14.62-.31-.4-.63-.21-.86.05-5.06,5.58-11.11,9.89-17.49,13.78C446.39,152.61,449,152.19,451.57,152.43Z" transform="translate(-193.16 -15.17)"/><path class="cls-1" d="M272.29,462.37c-.25-4.06-.55-8.13-1-12.18a165.33,165.33,0,0,1-.47-25.47c.66-13.17,7.59-23.2,16-32.54,5-5.54,10.89-10.2,15.14-16.39l7.09-8.29a65.79,65.79,0,0,0,9.45-20c-.27-.21,0-2-.82-.47-1.58,3.09-4.27,5.76-4,9.65,0,.45-.55.95-.85,1.42-3,6.12-7.62,11-11.67,16.37-6.22,5.79-12.14,11.95-18.73,17.28C271.16,400.84,266,413,263,426.67a84.26,84.26,0,0,0-.57,34.32,6,6,0,0,0,7.7,4.88C272,465.37,272.38,464,272.29,462.37Z" transform="translate(-193.16 -15.17)"/><path class="cls-1" d="M385.55,241.23l6.5-12.76a37.61,37.61,0,0,0-8,9.09,87.74,87.74,0,0,0-16.52,36.85h0c-1.76,4.86-3.16,9.86-6.38,14.06a35.8,35.8,0,0,1-10,8.94l.73.67a27.24,27.24,0,0,0,6.56-4,40.59,40.59,0,0,0,9.7-17.53c.5-1.3,1-2.6,1.5-3.89,4.62-11.64,8.71-23.51,15.16-34.34,1.42.72-.09,1.49.05,2.23-1.45,2.9-2.9,5.79-4.33,8.7-6.82,13.78-10.09,29.11-18.38,42.26,0,.06.23.33.36.5,9.61-6.85,13.35-17,15.67-27.94A133.87,133.87,0,0,1,385.55,241.23Z" transform="translate(-193.16 -15.17)"/><path class="cls-1" d="M267.18,408.21c2.51-5.91,6.72-10.53,11.24-15,4.33-4.28,8.52-8.69,12.6-13l.48-.5c1.35-1.42,2.68-2.82,4-4.2-1.29.09-2.35,1.83-3.68,2.95-9.12,7.73-19.27,14.39-26.3,24.33-10,14.19-14.14,30.2-14,47.42.05,5.3,2.88,9.42,6,13.38l0,0c1.1.22,2.14,1.67,3.17.85s.34-2.22.12-3.33C257.23,442.82,260,425.25,267.18,408.21Z" transform="translate(-193.16 -15.17)"/><path class="cls-1" d="M282,460.41a114.87,114.87,0,0,1,1.25-39.23A77.76,77.76,0,0,1,294.62,394c3.1-4.63,6.31-9.19,9.47-13.78.79-3.39,4.06-5.57,4.48-9.14-2.47.89-3.46,3.32-4.87,5.15A96.81,96.81,0,0,1,293,388.1a95.28,95.28,0,0,0-14.63,17.73c-5.11,7.83-6,16.74-6.22,25.78a194.86,194.86,0,0,0,1.34,24.74,31.84,31.84,0,0,1,.2,7.29c-.27,2,.15,2.55,2.09,2.87C282.11,467.57,282.89,467.1,282,460.41Z" transform="translate(-193.16 -15.17)"/><path class="cls-1" d="M286.68,363a78.51,78.51,0,0,0-17.61,10.33l-4.76,3.59c2.72.53,4.21-1.58,6.1-2.85,6-2,12-4.14,18-6.15,8.09-2.71,14.44-7.81,19.82-14.26.43-.52,2.08-1.27.36-2.3C302.25,357.07,294.43,359.93,286.68,363Z" transform="translate(-193.16 -15.17)"/><path class="cls-1" d="M306.91,381.59c-.31-.73.63-1.87-.74-2.25l-1.48,2.22c-1.1,3.23-3.19,5.89-5.23,8.51-11.93,15.36-16.43,33.06-17,52.14-.24,7.83,1.76,15.51,1.18,23.32-.08,1.12.52,1.42,1.36,1.62s1.59.34,2.39.5c5.39,1.09,6.32.43,5.2-4.76-4.47-20.78-.71-40.46,7.58-59.57,2.88-6.63,4.68-13.59,6.6-20.52C306.8,382.4,306.86,382,306.91,381.59Z" transform="translate(-193.16 -15.17)"/><path class="cls-1" d="M261,406.63c5.35-10,14.37-17,23.21-23.92,4.49-3.52,8.89-7.16,13.4-10.65,3.15-2.44,5.15-5.94,8.16-8.48,1.6-1.1,2.18-3,3.48-4.34-1.76-1.11-1.56,1.59-2.82,1.45l-1.5,2c-6.56,7.09-15.09,11.1-23.61,15.12-1.27.59-2.5,1.25-3.74,1.9-28.55,15.16-40.07,47.54-27.49,77.27.76.35,1.15.54.9-.72C247.49,438.34,252.78,422,261,406.63Z" transform="translate(-193.16 -15.17)"/><path class="cls-1" d="M263.72,387a87.44,87.44,0,0,1,18.6-11.66c5.66-2.68,11.58-5,16.29-9.33,2.13-.79,3.34-2.67,4.91-4.13l-.66-.69-5.6,4.19a49,49,0,0,1-11.48,4.87c-9.84,2.71-19.15,6.51-27.15,13.05a106.85,106.85,0,0,0-17.23,24.87c-8.26,16-6.08,31.78,2.55,47,1.34,2.34,3,4.74,6,5.51l.17-.69a34.86,34.86,0,0,1-3.46-6.84C239.64,433.55,243.73,403.6,263.72,387Z" transform="translate(-193.16 -15.17)"/><path class="cls-1" d="M339.54,450.72c-1.45-6.69-5.48-12-9.72-17-6.06-7.18-10.87-14.95-13.44-24q-.86-2.39-1.7-4.79c-.6,9.38.88,18.23,5.85,26.29a116.79,116.79,0,0,0,9,12.82,37.82,37.82,0,0,1,5.14,8.28c1.17,2.58,1.95,5.23.38,8.81C340.56,458.57,339.57,454.45,339.54,450.72Z" transform="translate(-193.16 -15.17)"/><path class="cls-1" d="M315.6,393.42a21.36,21.36,0,0,0-.84-2.67c-.8,6.29,1.35,11.74,2.38,17.35a81.26,81.26,0,0,0,15.75,27.18c3.37,4,6.89,8.23,7.53,13.86a13.06,13.06,0,0,1,.13,8.87c-.91,2.38.56,2.65,2.14,2.78a5.32,5.32,0,0,0,5.13-7.25c-2.68-6-6.68-11.16-10.85-16.15C326.19,424.49,318.42,410.17,315.6,393.42Z" transform="translate(-193.16 -15.17)"/><path class="cls-1" d="M332.88,452.45c-2-4.5-5.16-8.28-8.25-12.06-9.57-11.7-12.91-25.3-12.43-40.1.14-4.43-.79-9.2.57-13.2,2.66-7.87,2.44-16.31,5.63-24,.8-1.91,1.34-3.94,2-5.92.08-2.53,1.27-4.95.5-7.62-3,9.86-7.78,19.11-9.69,29.33a58.49,58.49,0,0,1-.6,7,6.14,6.14,0,0,1-.23.94l.13.22-.16.19c-.11,8.37-.26,16.75-.33,25.13-.13,15.33,3.62,29.48,13,41.87,2.41,3.18,4.68,6.42,4.45,10.77C334.06,461.23,336.28,460.14,332.88,452.45Z" transform="translate(-193.16 -15.17)"/><path class="cls-1" d="M318,449.86c-.07,4.45.77,7.81.52,11.23-.13,1.74-2.08,3.62-.46,5.09s3.44-.16,5.1-.87c1.1-.47,1.24.59,1.69,1.15,2.13-1.95,1.14-4.23.13-6C323.12,457,320.75,453.92,318,449.86Z" transform="translate(-193.16 -15.17)"/><path class="cls-1" d="M324.94,466.53l-.06-.07,0,0Z" transform="translate(-193.16 -15.17)"/><path class="cls-1" d="M316.79,459.85c.12-4.46-.07-9.07-1.9-13.06-6.69-14.61-6.92-30-6.39-45.56.09-2.65.07-5.31.1-8l-.44-.09c-1,5.67-1.82,11.37-3,17A72.87,72.87,0,0,0,309,454c1.49,3.6,3,7.39,1.88,11.51-.16.58-.22,1.15.5,1.44a2.6,2.6,0,0,0,2.91-.49C316.27,464.73,316.72,462.33,316.79,459.85Z" transform="translate(-193.16 -15.17)"/><path class="cls-1" d="M214.29,392.35c-1.21,1.73-1.49,3.74-1.82,5.77v.06c0,.2-.06.4-.1.6a11.94,11.94,0,0,0,2.66-5c7-15.25,19-26.55,30.43-38.25A45.61,45.61,0,0,1,257,347.13a148.36,148.36,0,0,1,36.19-13.4,139.5,139.5,0,0,0,25.45-8.4c1.31-.57,3-.9,2.9-2.94l-3.42.58c-.77,1.1-2.07,1-3.14,1.19-11.15,2.34-22.3,4.71-33.49,6.86-11.38,2.2-21.48,6.81-29.68,15.13-13,13.16-26,26.29-35.94,42.09Z" transform="translate(-193.16 -15.17)"/><path class="cls-1" d="M273,331.71c7.18-1.87,14.46-3.36,21.71-4.95,6.2-1.36,12.42-2.62,19.59-4.12l-5.18-1-.43-.08-14.27-.15-.15,0a94.71,94.71,0,0,0-20.47,4.64c-10.66,3.76-18.68,11-26.11,19.13l-2.84,4.11c-2.93,3-2.93,3-2.78,5h0l3.57-4.17h0C253.48,342,261.81,334.63,273,331.71Z" transform="translate(-193.16 -15.17)"/><path class="cls-1" d="M202.89,407.38c-2-16.39,2.38-31.37,9.93-45.65,3.48-6.57,6.61-13.29,11.19-19.28,13.51-17.68,30.72-28.14,53.4-28.5,0-.37,1.56-.81-.16-1.11-15.89-2.76-29.73,1.07-41.42,12.42-7.11,6.9-13.57,14.39-20.24,21.68-10,16.55-16,34.31-16,53.8a21.28,21.28,0,0,0,3.9,12.81C204,411.37,203.14,409.39,202.89,407.38Z" transform="translate(-193.16 -15.17)"/><path class="cls-1" d="M238.5,447.7c-5.83-15-5.17-29.6,3-43.58,7.07-12.09,14.77-23.73,26.49-32,3.67-2.58,7.38-5.1,11.07-7.65,6.65-3,13.66-5.19,20.14-8.57a25.5,25.5,0,0,0,6.56-4.52c2-.4,3-2.1,4.41-3.32-2.23-.12-3.53,1.55-5.12,2.64h0l-27.36,13c-1.73.07-2.94,1.3-4.29,2.1-12.23,7.24-23.54,15.48-31.23,27.87-8.57,13.82-16.45,27.78-13.64,45,1.78,5.11,5.46,8.49,10,11.18C239.12,449.1,238.8,448.47,238.5,447.7Z" transform="translate(-193.16 -15.17)"/><path class="cls-1" d="M316.72,317.32h0c-9.3.1-18.58.23-27.82,1.66-15.38,2.37-29.3,7.25-40.94,18.39-12.13,11.6-25,22.41-32.81,37.67-4.71,9.22-7.52,19-7.39,29.51,0,1.46-.37,3,.73,4.35q.83-3.72,1.66-7.42A39.84,39.84,0,0,1,215,387.33c.15-1.72,1.31-2.95,2.21-4.27,5.87-8.65,12.63-16.6,19.23-24.68,3.47-4.68,6.64-9.6,10.65-13.88a48.42,48.42,0,0,1,7.82-8.42c10.15-9.32,22.29-14.09,35.87-15.48,8.4-1.25,16.79-.35,25.18.17l.66,0c4.64-1,9.59-.79,13.76-3.71C325.81,317.34,321.27,317.85,316.72,317.32Z" transform="translate(-193.16 -15.17)"/><path class="cls-1" d="M225.1,326.15l-.91-.88c-3.33,3.24-6.74,6.41-10,9.74C205,344.5,199.73,355.88,197.64,369c-1.77,11.06-4.41,22-1,33.17.33,1.07.29,2.3,1.3,3.09C196.33,375.16,210.36,350.54,225.1,326.15Z" transform="translate(-193.16 -15.17)"/><path class="cls-1" d="M280.91,360.55c10.39-4.67,21-8.91,30.52-15.35.48-1.17,2-1.63,2.21-3.49-6.9,2.87-13.91,4.55-20.84,6.52-25.81,7.32-42.89,25.11-56.38,47.09-4.49,7.33-8.23,15.09-9.87,23.67-1.45,4.61-1.08,9.31-.7,14,1.53-3.08,1-6.44,1.39-9.68l-.08-.08.11,0C235.2,393.8,253.16,373,280.91,360.55Z" transform="translate(-193.16 -15.17)"/><path class="cls-1" d="M227.72,409.13c9.12-22.49,24.11-40.17,44.09-53.73,7.35-5,15.72-7.46,24.19-9.66,1.46-1.32.39-1.26-.65-1.16-9,.86-17.69,2.89-25.39,8-17.12,11.34-31.76,25.27-42.54,42.77-8.17,13.27-9.59,27.73-4.46,42.63,1.36,1.7,2.21,3.87,4.78,5-1.19-3.51-2.64-6.66-3.29-10C222.83,424.73,224.61,416.81,227.72,409.13Z" transform="translate(-193.16 -15.17)"/><path class="cls-1" d="M229.75,352.59c9.15-9.45,18.68-18.52,29.37-26.28,1.65-.13,2.7-1.54,4.2-2-2.2-.94-3.78.46-5.48,1.43-9,4-17,9.41-23.37,17.1-7.67,9.32-14.71,19.15-23.1,27.87-8.05,13.94-8.63,28.78-5.52,44.81a4.81,4.81,0,0,0,.66-3.52C204.34,388.33,213.75,369.1,229.75,352.59Z" transform="translate(-193.16 -15.17)"/><path class="cls-1" d="M251.2,321.73c-14.57,6.88-24.85,18.18-32.43,32.14-2.39,4.39-4.61,8.88-6.9,13.32,1.22.58,1.49-.6,2-1.16a158.2,158.2,0,0,0,10.65-12.88c9.07-12.64,19.54-23.65,34.51-29.36,3.44-1.31,6.84-3,10.73-2.12,10.55-3.51,21.52-4.86,33.18-6.15a12.59,12.59,0,0,0-2.06-.51C284,315.08,267,314.25,251.2,321.73Z" transform="translate(-193.16 -15.17)"/><path class="cls-1" d="M232.35,385.5a161,161,0,0,1,33.22-31.69c8.17-5.72,17.05-9.42,27.08-10.26a55.27,55.27,0,0,0,23.75-7.46c1.13-1.58,3.78-2,3.61-4.94-9.94,6-20.94,8.42-31.93,10.53-13.76,2.65-25,9.66-35.57,18.35a150.9,150.9,0,0,0-28.68,31.76c-5.65,8.31-8.51,17.73-9.75,27.71-.81,6.57.66,12.21,5.49,16.84.64,0,1.16-.09.93-.95C215.55,416.65,220.54,400.26,232.35,385.5Z" transform="translate(-193.16 -15.17)"/><path class="cls-1" d="M353,423.88c4.17,4.76,7.94,9.9,13.17,14.66.08-4.75-1.93-8-4.42-10.8-3.52-4-7.22-7.91-11-11.74a51.78,51.78,0,0,1-11.7-18c-8.46-22.59-10.63-45.64-5-69.26.64-2.69,2.23-5.12,2.18-8.6-5.23,7.11-7.63,14.76-8.68,22.79C323.52,373.79,332.69,400.62,353,423.88Z" transform="translate(-193.16 -15.17)"/><path class="cls-1" d="M709.62,180.39A65.53,65.53,0,0,1,689,172.13c-10.5-6.14-21.82-8.46-33.84-8a5,5,0,0,0-3.57,1.57c14-.42,25.72,5.64,37.12,12.68,7.71,4.76,16,7.7,25.19,6.58a21.86,21.86,0,0,0,10.4-3.6A80.2,80.2,0,0,1,709.62,180.39Z" transform="translate(-193.16 -15.17)"/><path class="cls-1" d="M703.21,169.82A206.84,206.84,0,0,0,681,162.71l-14-2.22c-1.67.41-3.42.63-4.77,1.76,0,.75.49.74.94.74,9.2,0,17.62,2.79,25.59,7.16,8.62,4.72,17.45,8.68,27.48,9.52,9.21.77,16.92-1.82,23.4-9-3.47.86-6.56,1.8-9.71,2.39C720.68,174.82,711.83,173,703.21,169.82Z" transform="translate(-193.16 -15.17)"/><path class="cls-1" d="M645.77,151.22a53.74,53.74,0,0,1-6.07,8.44C633.09,167.1,625,171.85,615,173.05l-.1,0c-3,.81-5.92-.54-8.88-.75a13.47,13.47,0,0,0-5.58-2,8.11,8.11,0,0,0,4.19,2.66c6.87,2.93,13.87,4.83,21.45,3.1a62.1,62.1,0,0,0,7.85-2.7l6.37-5.49a58.57,58.57,0,0,0,7.22-18.1C646.22,149.36,646.15,150.57,645.77,151.22Z" transform="translate(-193.16 -15.17)"/><path class="cls-1" d="M677.26,158.28l-1.17.11c-1.34.56-3.09-.42-4.4,1.37,3.89,1.13,7.94.67,11.57,2.21,6.57,1.07,12.77,3.41,19,5.69,10.91,4,21.94,6,33.41,2.53a34,34,0,0,0,11.69-6c-1.37-1.63-2.55,0-3.58.4-9.36,3.79-18.7,4.3-28.26.67a107.06,107.06,0,0,0-31.63-6.75h0l-7.22-.1A3.24,3.24,0,0,0,677.26,158.28Z" transform="translate(-193.16 -15.17)"/><path class="cls-1" d="M659.31,168c-2.74-1.1-5.55-.73-8.38-.33a11.24,11.24,0,0,0,6.18,1.07,29.72,29.72,0,0,1,13.76,7.51c5.77,5.34,11.92,10,19.68,12.13,6.08,1.66,12,1,17.87-1.11-10.35-.67-18.69-6.07-27.14-11.1C674.43,172.12,667.3,168.92,659.31,168Z" transform="translate(-193.16 -15.17)"/><path class="cls-1" d="M675.85,75.1c3.86,8.33,7.71,16.71,10.54,25.49a45.19,45.19,0,0,1,2.24,15.13c1.41,6.8-.13,13.29-2.08,19.72a57.84,57.84,0,0,1-4.83,11.1l-2.8,3.52.71.7,2.86-3.44c9.51-9.08,12.88-20.14,10.87-33-1.15-7.36-2.06-14.75-3.08-22.12h0a219.89,219.89,0,0,0-7.58-21c-4.6-10.87-5.87-22.2-4.88-33.87a65.07,65.07,0,0,0,.31-7.92,46.26,46.26,0,0,0-6.22,17.79A48,48,0,0,0,675.85,75.1Z" transform="translate(-193.16 -15.17)"/><path class="cls-1" d="M545.36,36.85a50.9,50.9,0,0,1,20.32-8.38c11.57-2.81,22.84-1.06,34.07,2.05,9.48,2.62,17.83,7.66,26.49,12,1.38,1.41,3.29,1.91,4.92,2.89h0l.76-.8-4.77-3a189,189,0,0,0-21-12.84c-14.17-7.1-28.72-7.93-44.12-4.37a64.93,64.93,0,0,0-33.36,19.1c-2.65,2.79-5.38,5.5-7.84,8.53,6.57-2.74,12-7.31,18.08-10.72C541,39.87,543.16,38.3,545.36,36.85Z" transform="translate(-193.16 -15.17)"/><path class="cls-1" d="M566.48,29.24c-.76.25-1.51.56-2.29.74a60.76,60.76,0,0,0-20.09,9.3c-.49.34-2.1.63-.27,1.45,13.36-4.58,26.7-9.19,41.2-5.86,9.34,2.14,18.21,5.62,27,9.3a88.54,88.54,0,0,0,25.51,6.92c0-.41,0-.74,0-.78-10.22-5.3-20.21-11.13-30.73-15.72A70.51,70.51,0,0,0,566.48,29.24Z" transform="translate(-193.16 -15.17)"/><path class="cls-1" d="M657.31,91.62c-2.07,12.15-2.67,24.48-4.33,36.68-.28,2,0,4.2-1.09,6.11-1.49,10.7-3.59,21.23-8.49,31-.33.66-1.52,1.29-.39,2.25,7.85-4.28,16.49-6.61,24.7-10,14.87-8.76,19.19-23,20.15-38.94,0-15.34-7-28.57-13-42-4.3-9.55-6.17-19.19-4.52-29.52a18.5,18.5,0,0,0,0-2.12c-2.26,2.18-2.53,4.83-3.36,7.11-2.37,6.55-4.31,13.25-6.7,19.79C658,78.38,658.42,85.11,657.31,91.62Z" transform="translate(-193.16 -15.17)"/><path class="cls-1" d="M684.86,72.18A94.35,94.35,0,0,1,691,90h0c2.65,9.57,3.38,19.44,4.33,29.26a32.14,32.14,0,0,1-8.63,25.67c-2.5,2.75-5,5.5-7.55,8.21-.69.74-.75,1.09-.18,1.18a4.29,4.29,0,0,0,.72,0c4.9-3.14,9.74-6.37,13.62-10.78a29.89,29.89,0,0,0,7.45-23.26c-.18-2.08-.19-4.17-.27-6.26,0,0,0-.07,0-.1-3-30.43-14.31-59.16-18.42-89.43-1.23.85-1.27,2.5-1.46,3.85C678.4,43.27,678.43,58,684.86,72.18Z" transform="translate(-193.16 -15.17)"/><path class="cls-1" d="M636.41,161.24c4.57-4.37,7.58-9.88,11.16-15q.75-2.41,1.52-4.83h0c1-1.76.94-3.75,1.65-6.23a7.83,7.83,0,0,0-2.25,4.2c-7.39,14.81-18.9,24.25-35.41,27.11-8.42,1.46-15.45-2.21-22.35-6.26-.68,2,1.23,2.47,2.18,3.21a43.82,43.82,0,0,0,16.56,8.36C620.1,172.49,628.87,168.47,636.41,161.24Z" transform="translate(-193.16 -15.17)"/><path class="cls-1" d="M334.87,377.73c2.49,10.42,4.93,20.89,11.14,29.89,4.57,6.63,10.59,12,16,18,3.47,3.82,5.77,8.12,5.74,13.68,3.73-1.53,5.67-4.12,5.8-7.93.23-7-3-12.52-7.54-17.43-5.7-6.14-12.22-11.45-17.75-17.75-5.67-6.46-10.23-13.52-12.77-21.79l-1.35-5.2A14.24,14.24,0,0,0,334.87,377.73Z" transform="translate(-193.16 -15.17)"/><path class="cls-1" d="M541.76,42.27h0l.06-.05Z" transform="translate(-193.16 -15.17)"/><path class="cls-1" d="M299.45,308.86c-9.07-1.66-18.24-2.43-27.4-3.25a67.49,67.49,0,0,0-29.77,7.82c-8,4.14-13.95,10.37-18.53,18-2.1,3.49-4,7.09-6,10.63,1.35.2,1.65-1,2.26-1.74,4.77-5.4,9.49-10.84,14.72-15.81,10.57-10,22.84-15.28,37.67-13.59a199.35,199.35,0,0,0,25.74,1.24c1.59,0,3.27-.3,4.72.74l7.6.89.7,0,16.09.17c5.6-1.13,11.51-1.38,16.59-6-5.63.89-10.54,1.82-15.5,2.42C318.62,311.61,309,310.6,299.45,308.86Z" transform="translate(-193.16 -15.17)"/><path class="cls-1" d="M328.3,332.12a65.48,65.48,0,0,1,2.31-6.21c1.31-2.42,3.64-4.33,3.68-7.38-1.45,2-3.55,3.49-4.44,5.9-5.13,7.65-6.15,16.35-6.43,25.23a6.8,6.8,0,0,1-.2,2.73c-.84,17.84,2.38,35,8.41,51.75a111.59,111.59,0,0,0,18.67,32.61,19.55,19.55,0,0,0,8.3,6.21,4.13,4.13,0,0,0,5.22-1.57c1.53-2-.45-2.94-1.42-4-9.31-10.43-18.76-20.74-25.43-33.2C324.74,381.27,321.64,357.27,328.3,332.12Z" transform="translate(-193.16 -15.17)"/><path class="cls-1" d="M525.62,118.83c9.75,2.07,18.84,6,27.87,10s18.34,8.06,27.43,12.27c11.56,5.37,22.6,3.55,33.66-1.65,9.93-4.67,18.24-11.06,24.3-20.35,3-4.58,6.43-8.86,9.62-13.3a9.32,9.32,0,0,0,2-4.39c-1.3-.23-1.29,1.55-2.42,1.5-2.84,4.38-6.9,7.57-10.74,11-5.26,5.51-11.72,9.39-18.1,13.41-8.77,5.52-18.24,5.79-27.9,4.76a7.61,7.61,0,0,1-1.15-.12l-2.25-.28h0a46.51,46.51,0,0,1-5.16-.56c-12.63-2.74-24.82-7-37-11.26-15.05-5.29-30.22-8.47-46.15-5.5-5.87,1.1-11.73,2.47-17,5.45.57.91,1.39.63,2.17.41,7.75-2.15,15.78-2.82,23.71-3.28A46.21,46.21,0,0,1,525.62,118.83Z" transform="translate(-193.16 -15.17)"/><path class="cls-1" d="M654.09,100.92l-.3,1.18A3.48,3.48,0,0,0,654.09,100.92Z" transform="translate(-193.16 -15.17)"/><path class="cls-1" d="M321.68,365.3c0-.81.05-1.62.09-2.43v0l-.09-1.84c-1.45.42-1.28,1.81-1.65,2.84-5.92,16.1-4,31.76,2.42,47.27,4.36,10.6,11.16,19.56,18.21,28.4,3.55,4.46,7,9,8.8,14.54,1.27,1.47,2.29.46,3.14-.45,2.4-2.58,4.19-5.47,4.05-9.19-11.81-8.17-18.28-20.43-23.84-32.93C326.31,396.89,322.05,381.5,321.68,365.3Z" transform="translate(-193.16 -15.17)"/><path class="cls-1" d="M481.3,119.06c.78-.85,2.15-.92,2.7-2.06l5.11-2.67a45.13,45.13,0,0,1,15.48-6.81c7.58-2.35,15.25-1.46,22.84-.35a187.73,187.73,0,0,1,42.81,11.12c17.59,7,34.48,5.67,51.43-1.92,8.23-3.69,16-7.9,22.87-13.85,6.56-5.69,9.87-13,11.49-21.24l-.55-.17-.05,0a20.24,20.24,0,0,0-1.5,2.11A54.8,54.8,0,0,1,626,107.52c-17.47,7.12-35.46,7-53.45,2.1-11.1-3-21.92-7.21-33.63-7.44-5.79.24-11.58.5-17.38.7-12.81.46-24.68,3.88-35.37,11.11-1,.69-1.92,1.7-3.3,1.76a3.31,3.31,0,0,1-.09.62,13.16,13.16,0,0,0-2.23,2C479.85,119.3,481,118.86,481.3,119.06Z" transform="translate(-193.16 -15.17)"/><path class="cls-1" d="M629.91,143.37c10.27-8.58,16-20.63,19.89-33.39a14.28,14.28,0,0,0,.05-2.82c-3.67,4.9-7.12,9.08-10.11,13.57-9.14,13.72-22.52,20.82-38,24.79-7.77,2-15-.08-22.07-3.11-12.71-5.49-25.27-11.34-38-16.8-4.3-1.85-8.52-4.1-13.3-4.63l-5-1.53c-2.55-.1-5.08-.9-8.4-.28l4.84,1.29,6.33,1.23c2.72.32,5.12,1.61,7.68,2.44,4.92,2.5,9.92,4.86,14.75,7.53,10,5.52,19.72,11.49,29.83,16.76C596.55,157.9,614.23,156.46,629.91,143.37Z" transform="translate(-193.16 -15.17)"/><path class="cls-1" d="M625.93,160.86c11.08-5.92,19.09-14.64,23.25-26.65.34-1,.82-1.89,1.23-2.84,2.13-9.58,2.38-19.37,3.33-29.09-.2-.66-.4-1.33-.61-2a32.26,32.26,0,0,0-1.76,8.86,10.68,10.68,0,0,1-.57,3.43c-7.48,18.87-16.89,36-38.56,41.75-9.81,2.58-19.52,2.35-28.84-2.24a6.42,6.42,0,0,0-1.67-.31c-.46.5-.11.94.24,1.17,7.16,4.76,14.29,9.67,22.8,11.68C612.28,166.39,619.35,164.39,625.93,160.86Z" transform="translate(-193.16 -15.17)"/><path class="cls-1" d="M638.88,109.06a108.94,108.94,0,0,1-25,12c-14.64,5.15-29.1,4.42-43.62-1.06-16.36-6.16-33.18-10.69-50.67-12.34a47.3,47.3,0,0,0-13.54.61c-2.65,1-5.39,1.81-7.93,3-1.69.81-4.06.75-4.79,3.09,2.14-1.38,4.66-1.7,7.05-2,16.14-2.18,31.55.66,46.87,5.94s30.28,11.4,46.62,12.63c1.73,0,3.47-.11,5.2-.09,7.81,0,15-1.61,21.69-6.06,5.49-3.66,10.73-7.61,16-11.53l3.49-3.63c3.27-1.48,4.63-5.17,7.81-6.75-.09-.83-.29-1.21-1.16-.47C644.26,104.67,641.56,106.85,638.88,109.06Z" transform="translate(-193.16 -15.17)"/><path class="cls-1" d="M482.81,115.68c.24-.47.48-.93.71-1.4,11.93-8.78,25.43-12.68,40.1-13,3.25-.07,6.49-.24,9.74-.36,11.73-.83,22.89,1.78,33.92,5.46,16.86,5.62,34,7.11,51.26,2.2,14.37-4.08,25.71-12.32,33.61-25.12.69-1.12,1.32-2.19,1-3.57-13,15-28.35,25.35-49.21,24.58a68.31,68.31,0,0,1-16.41-3c-7.39-2.14-14.66-4.66-22-7l-.2-.06c-11.9-2.39-23.94-5.75-36-3.2-17.19,3.61-33.29,10.16-46.52,22.33-1.54.79-2.41,2.26-3.53,3.48C480.8,117.54,481.31,115.27,482.81,115.68Z" transform="translate(-193.16 -15.17)"/><path class="cls-1" d="M230,380.51a152.52,152.52,0,0,1,34.75-31.63c8.71-5.72,18.61-7.79,28.45-10.16,8.16-2,16.32-3.89,23.71-8.09a25.87,25.87,0,0,0,7.49-6.2c-.48-.76-1-.23-1.46,0-9.89,5.42-20.59,8.47-31.46,11.16-13.49,3.34-26.81,7.52-38.28,15.55C240,360.39,230,372.85,220.83,386c-4.05,5.82-6.27,12.67-9.4,19-2.22,6.54-2.63,13,.26,19.49A125.77,125.77,0,0,1,214.55,408C217.41,397.5,223.31,388.78,230,380.51Z" transform="translate(-193.16 -15.17)"/><path class="cls-1" d="M218,156c-2.64,12.83,1.21,23.89,9.37,33.71,4.3,5.18,8.76,10.24,13.15,15.36,19.65,16.95,43,24.91,68.23,29,12.73,2.06,25.22,2.49,37.8-.35,1.29-.3,2.56-.68,3.84-1,0-.28-.07-.56-.11-.84-3.75,0-7.49-.16-11.24-.11a43.34,43.34,0,0,1-12.77-1.66c-9.52-2.76-19.25-4.52-29-6.36-21.07-4-39.54-13.53-56-27.08a80.21,80.21,0,0,1-14.77-15.25c-6.49-9.15-8.29-19.23-6-30.13L218,156Z" transform="translate(-193.16 -15.17)"/><path class="cls-1" d="M333.15,237.43l-4,.76c3.61,1.47,7,1,10.28,1.23,1.05.06,2.44-.63,2.72,1.2a13.25,13.25,0,0,0,7.25-.44,24.65,24.65,0,0,0,16.65-6.8c4.06-1.72,6.28-5.73,9.92-8.12-1.82-.29-3.37.53-4.89,1.27-11.56,5.69-23.62,9.66-36.54,10.65A4.48,4.48,0,0,1,333.15,237.43Zm13.57,2.08-.35.12a1.67,1.67,0,0,1-.39-.06Z" transform="translate(-193.16 -15.17)"/><path class="cls-1" d="M322.69,227.65c11.13,3.61,22.59,2.75,34,2.51,4.07-.08,7.65-2.13,11-4.44-9.68.06-19.3.33-28.9-.58-12.51-1-24.85-3.29-37.28-4.9-9.49-1.23-18.28-5.32-27.63-7.16-1.17-.24-2.38-1.05-3.51.12A117,117,0,0,0,304,223.43,110.74,110.74,0,0,1,322.69,227.65Z" transform="translate(-193.16 -15.17)"/><path class="cls-1" d="M392.69,242c-3,8-8.54,14.82-11,23.11-1.51,5.08-3.26,10.09-6.35,14.48.16.4.33.79.5,1.19,8.86-11.31,14.1-24.29,17.44-38.12a4.55,4.55,0,0,0-.27-.64C393,242,392.7,242,392.69,242Z" transform="translate(-193.16 -15.17)"/><path class="cls-1" d="M394.73,220.89c1.5-1.34,3.51-2.21,4.33-4.87-3.68,1.71-6.41,4.09-9.26,6.27C391.85,223.25,393,220.91,394.73,220.89Z" transform="translate(-193.16 -15.17)"/><path class="cls-1" d="M396.07,223.68c-.48.73-1,1.46-1.45,2.19-3,7.89-7.82,15-10.45,23.06-1.11,3.42-2.56,6.73-3.17,10.31a3.42,3.42,0,0,0-.33,1.25l-1.91,7.13c.3.16.22,1.53.65.6a51.5,51.5,0,0,0,2.23-6.87c4.16-9.14,9.68-17.62,12.88-27.21.14-.76.1-1.57.75-2.14q.83-3.36,1.67-6.72c.72-1.61,1.43-3.22,2.55-5.74A9,9,0,0,0,396.07,223.68Z" transform="translate(-193.16 -15.17)"/><path class="cls-1" d="M339.71,279.36a61.61,61.61,0,0,1-31.84,16.2l-8.88-.1c0,.32-.05.63-.07,1a8.67,8.67,0,0,0,4.76,1.11C319,301.09,331.32,295,343,286c10.8-8.31,16.62-19.78,21.36-32.06,3.31-8.58,6.56-17.21,13.9-23.43,3.46-2.93,6.75-6.06,10.12-9.09h0c1.39-.62,2.31-1.78,3.74-3.18a7.4,7.4,0,0,0-4.25,2c-9.61,4.67-16.55,11.77-21.63,21.28C359,255.16,351.17,268.55,339.71,279.36Z" transform="translate(-193.16 -15.17)"/><path class="cls-3" d="M346.72,239.51l-.74.06a1.67,1.67,0,0,0,.39.06Z" transform="translate(-193.16 -15.17)"/><path class="cls-3" d="M375.75,434.36a.06.06,0,0,1,0,0c.19-.4.38-.8.56-1.2h0A1.41,1.41,0,0,0,375.75,434.36Z" transform="translate(-193.16 -15.17)"/><path class="cls-3" d="M219.9,148.06l-1.3,2,.6-.32.1.08a2.05,2.05,0,0,1,.25.27l-2.32,4.66,0,1.21c-1.53,2.56-.3,5.67-1.68,8.25-2.45,1.23-.68,4.14-2.27,5.7a12,12,0,0,1-2,4.93q-1.08,3.45-2.17,6.9c.32.72-.06,1.3-.34,1.89l0,.09-.43.71h0c-1,1.81-.13,3.8-.59,5.66,1,7.55,1.93,15.11,3,22.66,1.22,8.54,3.69,16.65,8.9,23.7,2.72,9.76,8.87,17.46,15.06,25.14,1.06,1.32,2.58,2.42,2.18,4.45-.37,1.24,1.18,1.22,1.37,2.09,1.83,4.86,5.8,8,9.53,11.16a31.42,31.42,0,0,0,9.83,5.83,25,25,0,0,0,9.33,3.71c8,1.27,15.51,4.2,23.21,6.43,6.45,1.87,12.86,3.78,19.43,5.21a78.57,78.57,0,0,0,31.78.25c4.09,1.43,7.71-.12,11.3-1.8,8.8-4.13,17.46-8.33,23.71-16.31,10.56-13.48,16.72-28.77,19.62-45.51,1.71-7.41,3.25-14.87,7.32-21.47,1.46,1,.44,2.34.24,3.42-.75,4-1.7,7.88-2.57,11.81-3.46,10.05-5.88,20.41-10.06,30.28a103,103,0,0,1-18.66,28.78,47.41,47.41,0,0,0-6.92,5.63c-2.33,1.52-4.74,2.92-7,4.56-8.28,6-18.17,6.69-27.74,8.22-13.58,2.16-26.9-.54-40.22-2.71a32.45,32.45,0,0,0-7.62-.65c-.34-.09-.69-.16-1-.22a35.61,35.61,0,0,0-7.58-.47l-1.41,0c-8.72-.87-16.92,1.41-24.78,4.7-18.31,7.66-33.27,19.6-44.07,36.37-6.47,10.06-7.89,21.73-9.79,33.21-1.55,9.33-1.44,18.56,2,27.52,1.39,3.67,2.22,7.67,6.39,9.73,2.48,1.23,3.36,4,4.19,6.6.36,1.12.49,2.73,2.43,2.15a54.56,54.56,0,0,0,9.54,12.79,4,4,0,0,0,2.09,2.19c2.69,2.19,4.09,6.39,8.77,5.55.42-.07,1,.85,1.54,1.31,4.93,4.43,10.57,8,14.66,13.44a11,11,0,0,0,10.95,4.6c1.6,1.25,3.14,2.55,5.45,1.45,1.38-.66,2.19.68,3.19,1.29,4.61.36,9.25,1,13.8,1.2,3.57.17,7,.92,10.46,1.22,4.07.35,5.92-1.36,5-5.26-5.11-21.65-1-42.07,7.85-61.92.47-1.06.9-2.14,1.32-3.23.36-.91.68-1.84,1.27-3.45l.15,0,.1,0c.19,5.28-.94,9.53-1.81,13.71-3.16,15.26-2.41,30.07,3.74,44.53a26.41,26.41,0,0,1,2.27,8.4c.21,2.88-1,4.62-3.84,5.33a22.18,22.18,0,0,1-5.19.5c-1.72,0-3.22-1.34-5.69-.58,3.55,2.57,7,2.58,10.49,1.83a59.48,59.48,0,0,1,7.08-.87c4.17-.37,8.87.91,12.67-2.08,2.66,1.76,4.56,0,6.19-1.7,2-2,4.47-2.86,7.08-3.52,1.22-.3,1.9.58,2.74,1.12,4.47.64,7.34-1.45,9.15-5.35l4.78-3.59c1.12-2.49,3.34-4.56,3-7.63,3.26-.87,6-3,9.07-4.12,5.74-2.16,8.94-6.89,8.27-13a25.5,25.5,0,0,0-4.57-11.95c-2.35-3.37-5.38-6.12-8.3-9-6.77-6.58-13.82-12.88-19.13-20.82-5.84-8.72-8.41-18.44-9.39-28.87,1.27.38,1.34,1.34,1.62,2a71.11,71.11,0,0,0,24.32,30.47,61.43,61.43,0,0,1,12.61,12c2.46,4.36,4.74,8.76,5.85,13.71,1.19,5.32.32,10.3-2.83,15.82,7.08-5.37,5.49-20.77-2.18-30.42a35.36,35.36,0,0,0-7.4-8.23c-5.79-5.14-12.64-9.09-17.23-15.56C333,360.22,329.84,343,338,322.43c.63-1.58,1.75-3,1.7-4.84.86-1.37,1.66-2.78,2.59-4.09,2.74-3.83,7-4.2,10.44-1,8.36,7.78,13.83,17.52,18.31,27.79,3.89,8.93,8.25,17.38,15.5,24.16,12.41,11.62,22.34,13.44,37.91,6.81,6.06-2.59,11.7-5.69,16.32-10.45,8.4-5.92,11.57-14.75,13.45-24.27,1.75-8.88,3.87-17.67,6.11-26.44h0c3-5.57,8.06-9,13.2-12.33,2.21-1.43,4.86-2.2,6.58-4.37,11.44-3.57,14.88-12.69,9.35-23.08-2.21-4.16-3.42-8.86-6.6-12.54-.55-.63-.37-1.22.14-1.85a3.13,3.13,0,0,0,.53-2.67c-1.31-6.08-.9-12.76-6.29-17.39-1.68-1.44,0-3.92-1.41-5.55-.44-1.4-.88-2.81-1.31-4.22.57-.61,1.75-.74,1.5-2-1.85-9.34,3.32-16.62,7.48-24,2.73-4.86,4.58-9.58,3.49-15.16-.2-5-3.54-8.44-6.55-11.89a108.23,108.23,0,0,0-16.33-14.95c-2.41-2.32-5.48-3.35-8.58-4.26-1.46-.44-1.76-.95-.65-2.06a51.32,51.32,0,0,0,9-12.66c.16-.3.76-.37,1.15-.54,3.12-1.66,5.09-4.6,7.7-6.84a39.3,39.3,0,0,1,15.07-8.35c10.25-2.88,20.47-5.16,31.12-2.3a1.17,1.17,0,0,0,.38.12l13.11,4c14.25,5.87,26.85,14.58,39.65,22.94,1.26.82,2.57,1.54,3.86,2.31,3,2.92,7.05,4.53,9.86,7.72,7.8,9.65,16.58,17.86,29.59,19.67,6.84.95,13.39.09,19.34-3.7a10.79,10.79,0,0,0,2.25-.85c9.78-6.56,19.28-3.85,28.53,1.1,2.62,1.4,4.79,3.69,7,5.74,12.55,11.66,26.86,13.54,42.49,7.62a86.37,86.37,0,0,0,42.18-33.57c1.09-1.63,3.67-3.15,1-5.86-1.25,4.28-4.92,5.44-8.51,6.8-9.34,3.52-18.76,4.38-28.34,1a26.33,26.33,0,0,0-3-.72l-.69-.23c-7.22-2.33-14.7-1.43-22.52-1.41,1.39-1.4,2.92-1.18,4.22-1.55s2.92-.69,4.38-1c6.82-2.22,13.55-1,20.27.56a42.42,42.42,0,0,0,29.84-3.5c1.16-.6,2.72-.8,3.38-3.68-14.17,9.42-28.6,7.25-43.62,3.71a1.48,1.48,0,0,1,0-.21l4-1c9.5-.2,19.08.91,28.41-1.82a16.4,16.4,0,0,0,7.17-4.14c.42-.42.81-.91.22-1.48s-.8,0-1.11.28c-4.56,4.3-10.35,5-16.18,5.38-4,.23-8,0-12.35-.09a28.08,28.08,0,0,1,8.55-2.75c4.91-1,9.81-2,14.42-4A32.12,32.12,0,0,0,750,136.6c.57-.34,1.37-.74.86-1.58s-1.14-.26-1.71.11c-6.53,4.23-14.32,4.56-21.46,6.88-1,.32-.77-.44-.73-1,5.06-3.82,11.33-5.45,16.5-9.06a11.47,11.47,0,0,0,4.25-4.42c-2.69.83-3.89,2.78-6.11,3.06a1.4,1.4,0,0,1-.12-.18c.36-2.65,3.56-4,2.91-7.5-2.35,3.13-4.22,5.95-7.26,8.49l-.06,0c1-4.75,5.48-7.7,4.77-13.25-1.38,2-1.37,3.82-2.92,5-.87-3.28,1.47-6.58-.48-10.44-1.76,8.21,0,17.06-8.74,22.2,3.7-9.87,5.23-19.72,3.84-29.92-.54,5.46-1,10.93-1.66,16.37-.58,4.77-2.28,9.25-3.88,13.75a12.85,12.85,0,0,1-4.8,5.86c-.94-.77-2,3.32-2.89-.1,5.38-7.19,7.59-15.63,9.3-24.2.93-4.67,1.28-9.46,1.86-14.2.14-1.15.29-2.35-1.23-3.21-.89,9.29-1.86,18.44-4.69,27.29a64.76,64.76,0,0,1-7.5,15.7,11.85,11.85,0,0,1-8.78,5.29c8-7.92,11.68-17.93,14.31-28.43s4.08-20.8.69-31.27c.33,5.73.88,11.49.18,17.24-1.59,12.93-4.43,25.47-12.24,36.31a25.26,25.26,0,0,1-10.82,9.09c-1.2-.2-1.27-.65-.42-1.49,14.85-14.59,17.36-33.25,17.34-52.74,0-14.88-5.83-28.06-12.23-41a2.63,2.63,0,0,0-1.94-1.91c.88,2,1.62,3.66,2.3,5.33,3.88,9.46,8.35,18.82,9.85,29,2.55,17.23-.24,33.84-7.68,49.61-2.27,4.83-6,8.6-9.89,12.09a8.44,8.44,0,0,1-5.17,2.45c.23-.49.28-.81.46-1,9.36-7.58,14.15-17.56,15.86-29.35,2-13.9,1-27.63-1.51-41.34a23.38,23.38,0,0,0-1.12-3.27c-1.62-6.94-5.07-13.2-7.53-19.84a99.39,99.39,0,0,1-5.92-22.53,5.55,5.55,0,0,0-2-3.78,73.94,73.94,0,0,0,5.3,24.1c3.1,7.89,6.24,15.76,9.36,23.63,1.94,9.94,3.45,20,3,30.09-.43,10.58-1.21,21.16-7.14,30.49-4.38,6.9-9.64,12.77-17.8,15.27a1.07,1.07,0,0,0-.89.91c6.51,0,13,0,19.51-.08A110.25,110.25,0,0,1,716,156.12c11.9,4.6,23.77,4.92,35.63-.21.77-.33,1.52-1.2,2.59-.45-1.23,2.83-3.6,4.48-6.1,6-1.63.6-3.28,1.14-4.88,1.81-9.14,3.83-18.28,3.78-27.57.42a93.23,93.23,0,0,0-26.85-5.85c-1.83-.72-3.78-.51-5.68-.67-1.13-.09-1-.57-.56-1.25l.82-.83c-.59-1.56.67-1.89,1.6-2.53,8.62-5.91,15.56-13.11,17.06-24,.91-6.61.14-13.23-.82-19.8h0c-.41-9.6-2.83-18.85-5-28.13-3.79-16-7.63-31.93-11.26-47.94-1-4.4-1.67-9,.12-13.41.65-1.62-.77-2.42-1.61-4.09-3.7,7.71-8.61,14.29-10.87,22.19-.93,3.25-3.14,5.12-5.91,6.86a47.33,47.33,0,0,1-13.17,6.18c-5.54,1.75-10.19-.51-14.68-3.34Q625,38.36,611.2,29.61c-1.8-1.07-4.1-1.16-5.63-2.79-26.34-11.2-50.44-6.77-72.54,10.65-3.64,2.87-6.7,6.47-10,9.73-1.16,1.15-2.29,2.32-3.49,3.42-.38.34-.89.39-.61-.42a3.47,3.47,0,0,1,.39-.58l-.71-.69-4.48,6.13c-4.94,5.23-9.43,11-15,15.54S489.32,80.45,485,85.87c-7.63,9.56-12.08,20.61-14.79,32.43a56,56,0,0,1-8,16.66c-5.35,6.51-12.28,11.12-19.09,15.89a21.82,21.82,0,0,1-3.76,1.78c-11.71,3-18.91,10.89-23.75,21.43-4,8.67-7.81,17.39-9.7,26.82a33.81,33.81,0,0,0-.43,8.34c-.92,2.17-3,2.68-4.9,3.5-3.09,1.33-6.16,2.71-9.24,4.07-2.8.18-4.15,3.52-7.14,3.29-2.2.7-4.38,1.48-6.61,2.07-10.89,2.85-22,2.34-33.11,2.34h0c-13.57-1.75-27.15-3.46-40.71-5.28a109.07,109.07,0,0,1-18.25-4.41c-5.87-1.86-11.8-3.45-18-3.64a34.21,34.21,0,0,1-6.36-2.72A118.77,118.77,0,0,1,227.4,180.5c-6.05-9.53-7.62-19.83-5.27-30.8l.53-.35a2.49,2.49,0,0,1,.22.61,53,53,0,0,0,10.2,29.59c9.91,13.76,24.09,22.26,39.9,27.33,11.12,3.57,22.88,5.1,34.36,7.53,5.67,1.73,11.56,2.44,17.38,3.4,19,3.15,38.17,4.95,57.42,1.56h.05l-.05-.06c-.54-.76-1.46-.45-2.17-.71-23,3-45.63.45-68.09-4.62a16.47,16.47,0,0,0-1.7-.22c-10-2.73-20.23-4.52-30.34-6.74A79.37,79.37,0,0,1,236,180.59c-6.48-7.53-9.61-17-11.73-26.63-.79-3.64,1.36-6.21,3.65-8.62l-.4-1.33ZM196.66,402.13c-3.43-11.17-.79-22.11,1-33.17,2.09-13.08,7.33-24.46,16.57-33.95,3.24-3.33,6.65-6.5,10-9.74l.91.88c-14.74,24.39-28.77,49-27.14,79.07C197,404.43,197,403.2,196.66,402.13Zm2.93-1.39c0-19.49,6-37.25,16-53.8,6.67-7.29,13.13-14.78,20.24-21.68,11.69-11.35,25.53-15.18,41.42-12.42,1.72.3.16.74.16,1.11-22.68.36-39.89,10.82-53.4,28.5-4.58,6-7.71,12.71-11.19,19.28-7.55,14.28-11.94,29.26-9.93,45.65.25,2,1.1,4,.6,6.17A21.28,21.28,0,0,1,199.59,400.74Zm52.18-54.59c8.2-8.32,18.3-12.93,29.68-15.13,11.19-2.15,22.34-4.52,33.49-6.86,1.07-.23,2.37-.09,3.14-1.19l3.42-.58c.11,2-1.59,2.37-2.9,2.94a139.5,139.5,0,0,1-25.45,8.4A148.36,148.36,0,0,0,257,347.13a45.61,45.61,0,0,0-11.51,8.42C234,367.25,222,378.55,215,393.8a11.94,11.94,0,0,1-2.66,5c0-.2.07-.4.1-.6v-.06c.33-2,.61-4,1.82-5.77l1.54-4.11C225.74,372.44,238.78,359.31,251.77,346.15Zm-9.66,8.14h0c-.15-1.94-.15-1.94,2.78-5l2.84-4.11c7.43-8.11,15.45-15.37,26.11-19.13a94.71,94.71,0,0,1,20.47-4.64l.15,0,14.27.15.43.08,5.18,1c-7.17,1.5-13.39,2.76-19.59,4.12-7.25,1.59-14.53,3.08-21.71,4.95-11.23,2.92-19.56,10.31-27.36,18.41h0Zm74.52-33.54-.66,0c-8.39-.52-16.78-1.42-25.18-.17-13.58,1.39-25.72,6.16-35.87,15.48a48.42,48.42,0,0,0-7.82,8.42c-4,4.28-7.18,9.2-10.65,13.88-6.6,8.08-13.36,16-19.23,24.68-.9,1.32-2.06,2.55-2.21,4.27a39.84,39.84,0,0,0-4.88,14.15q-.84,3.7-1.66,7.42c-1.1-1.31-.71-2.89-.73-4.35-.13-10.48,2.68-20.29,7.39-29.51,7.78-15.26,20.68-26.07,32.81-37.67,11.64-11.14,25.56-16,40.94-18.39,9.24-1.43,18.52-1.56,27.82-1.66h0c4.55.53,9.09,0,13.67-.28C326.22,320,321.27,319.78,316.63,320.75ZM206.51,412a4.81,4.81,0,0,1-.66,3.52c-3.11-16-2.53-30.87,5.52-44.81,8.39-8.72,15.43-18.55,23.1-27.87,6.33-7.69,14.37-13.06,23.37-17.1,1.7-1,3.28-2.37,5.48-1.43-1.5.44-2.55,1.85-4.2,2-10.69,7.76-20.22,16.83-29.37,26.28C213.75,369.1,204.34,388.33,206.51,412Zm63.25-90.35c-3.89-.88-7.29.81-10.73,2.12-15,5.71-25.44,16.72-34.51,29.36A158.2,158.2,0,0,1,213.87,366c-.51.56-.78,1.74-2,1.16,2.29-4.44,4.51-8.93,6.9-13.32,7.58-14,17.86-25.26,32.43-32.14C267,314.25,284,315.08,300.88,315a12.59,12.59,0,0,1,2.06.51C291.28,316.81,280.31,318.16,269.76,321.67ZM211.43,405c3.13-6.34,5.35-13.19,9.4-19,9.14-13.13,19.2-25.59,32.41-34.83,11.47-8,24.79-12.21,38.28-15.55,10.87-2.69,21.57-5.74,31.46-11.16.44-.24,1-.77,1.46,0a25.87,25.87,0,0,1-7.49,6.2c-7.39,4.2-15.55,6.13-23.71,8.09-9.84,2.37-19.74,4.44-28.45,10.16A152.52,152.52,0,0,0,230,380.51c-6.73,8.27-12.63,17-15.49,27.48a125.77,125.77,0,0,0-2.86,16.49C208.8,418,209.21,411.53,211.43,405Zm8.14,31.35c-4.83-4.63-6.3-10.27-5.49-16.84,1.24-10,4.1-19.4,9.75-27.71A150.9,150.9,0,0,1,252.51,360c10.54-8.69,21.81-15.7,35.57-18.35,11-2.11,22-4.57,31.93-10.53.17,3-2.48,3.36-3.61,4.94a55.27,55.27,0,0,1-23.75,7.46c-10,.84-18.91,4.54-27.08,10.26a161,161,0,0,0-33.22,31.69c-11.81,14.76-16.8,31.15-11.85,49.89C220.73,436.25,220.21,436.34,219.57,436.34Zm7.67-13c-.35,3.24.14,6.6-1.39,9.68-.38-4.7-.75-9.4.7-14,1.64-8.58,5.38-16.34,9.87-23.67,13.49-22,30.57-39.77,56.38-47.09,6.93-2,13.94-3.65,20.84-6.52-.23,1.86-1.73,2.32-2.21,3.49-9.51,6.44-20.13,10.68-30.52,15.35C253.16,373,235.2,393.8,227.27,423.2l-.11,0Zm.5,19.65c-2.57-1.13-3.42-3.3-4.78-5-5.13-14.9-3.71-29.36,4.46-42.63,10.78-17.5,25.42-31.43,42.54-42.77,7.7-5.1,16.36-7.13,25.39-8,1-.1,2.11-.16.65,1.16-8.47,2.2-16.84,4.68-24.19,9.66-20,13.56-35,31.24-44.09,53.73-3.11,7.68-4.89,15.6-3.27,23.87C225.1,436.31,226.55,439.46,227.74,443Zm.79-4.22c-2.81-17.23,5.07-31.19,13.64-45,7.69-12.39,19-20.63,31.23-27.87,1.35-.8,2.56-2,4.29-2.1l27.36-13h0c1.59-1.09,2.89-2.76,5.12-2.64-1.38,1.22-2.41,2.92-4.41,3.32a25.5,25.5,0,0,1-6.56,4.52c-6.48,3.38-13.49,5.56-20.14,8.57-3.69,2.55-7.4,5.07-11.07,7.65-11.72,8.25-19.42,19.89-26.49,32-8.17,14-8.83,28.59-3,43.58.3.77.62,1.4,0,2.23C234,447.24,230.31,443.86,228.53,438.75Zm79.7-85.07c-5.38,6.45-11.73,11.55-19.82,14.26-6,2-12,4.1-18,6.15-1.89,1.27-3.38,3.38-6.1,2.85l4.76-3.59A78.51,78.51,0,0,1,286.68,363c7.75-3.09,15.57-5.95,21.91-11.64C310.31,352.41,308.66,353.16,308.23,353.68ZM250.07,460l-.17.69c-3-.77-4.61-3.17-6-5.51-8.63-15.2-10.81-31-2.55-47a106.85,106.85,0,0,1,17.23-24.87c8-6.54,17.31-10.34,27.15-13.05a49,49,0,0,0,11.48-4.87l5.6-4.19.66.69c-1.57,1.46-2.78,3.34-4.91,4.13-4.71,4.36-10.63,6.65-16.29,9.33A87.44,87.44,0,0,0,263.72,387c-20,16.58-24.08,46.53-17.11,66.13A34.86,34.86,0,0,0,250.07,460Zm0-3c-12.58-29.73-1.06-62.11,27.49-77.27,1.24-.65,2.47-1.31,3.74-1.9,8.52-4,17.05-8,23.61-15.12l1.5-2c1.26.14,1.06-2.56,2.82-1.45-1.3,1.33-1.88,3.24-3.48,4.34-3,2.54-5,6-8.16,8.48-4.51,3.49-8.91,7.13-13.4,10.65-8.84,6.92-17.86,13.89-23.21,23.92-8.24,15.41-13.53,31.71-10,49.61C251.26,457.5,250.87,457.31,250.11,457Zm10.65,7.53c-1,.82-2.07-.63-3.17-.85l0,0c-3.11-4-5.94-8.08-6-13.38-.17-17.22,3.93-33.23,14-47.42,7-9.94,17.18-16.6,26.3-24.33,1.33-1.12,2.39-2.86,3.68-2.95-1.33,1.38-2.66,2.78-4,4.2l-.48.5c-4.08,4.29-8.27,8.7-12.6,13-4.52,4.46-8.73,9.08-11.24,15-7.21,17-9.95,34.61-6.3,53C261.1,462.27,261.68,463.74,260.76,464.49Zm9.35,1.38a6,6,0,0,1-7.7-4.88,84.26,84.26,0,0,1,.57-34.32c3-13.68,8.18-25.83,19.45-35,6.59-5.33,12.51-11.49,18.73-17.28,4-5.34,8.71-10.25,11.67-16.37.3-.47.88-1,.85-1.42-.26-3.89,2.43-6.56,4-9.65.78-1.5.55.26.82.47a65.79,65.79,0,0,1-9.45,20L302,375.79c-4.25,6.19-10.17,10.85-15.14,16.39-8.39,9.34-15.32,19.37-16,32.54a165.33,165.33,0,0,0,.47,25.47c.42,4.05.72,8.12,1,12.18C272.38,464,272,465.37,270.11,465.87Zm5.63.64c-1.94-.32-2.36-.86-2.09-2.87a31.84,31.84,0,0,0-.2-7.29,194.86,194.86,0,0,1-1.34-24.74c.23-9,1.11-17.95,6.22-25.78A95.28,95.28,0,0,1,293,388.1a96.81,96.81,0,0,0,10.74-11.87c1.41-1.83,2.4-4.26,4.87-5.15-.42,3.57-3.69,5.75-4.48,9.14-3.16,4.59-6.37,9.15-9.47,13.78a77.76,77.76,0,0,0-11.35,27.18A114.87,114.87,0,0,0,282,460.41C282.89,467.1,282.11,467.57,275.74,466.51Zm24.4-63.19c-8.29,19.11-12.05,38.79-7.58,59.57,1.12,5.19.19,5.85-5.2,4.76-.8-.16-1.6-.31-2.39-.5s-1.44-.5-1.36-1.62c.58-7.81-1.42-15.49-1.18-23.32.6-19.08,5.1-36.78,17-52.14,2-2.62,4.13-5.28,5.23-8.51l1.48-2.22c1.37.38.43,1.52.74,2.25-.05.4-.11.81-.17,1.21C304.82,389.73,303,396.69,300.14,403.32ZM311.35,467c-.72-.29-.66-.86-.5-1.44,1.11-4.12-.39-7.91-1.88-11.51a72.87,72.87,0,0,1-3.81-43.87c1.18-5.62,2-11.32,3-17l.44.09c0,2.65,0,5.31-.1,8-.53,15.55-.3,30.95,6.39,45.56,1.83,4,2,8.6,1.9,13.06-.07,2.48-.52,4.88-2.53,6.65A2.6,2.6,0,0,1,311.35,467Zm13.53-.53.06.07-.08,0,0,0c-.45-.56-.59-1.62-1.69-1.15-1.66.71-3.45,2.37-5.1.87s.33-3.35.46-5.09c.25-3.42-.59-6.78-.52-11.23,2.72,4.06,5.09,7.18,7,10.57C326,462.23,327,464.51,324.88,466.46Zm2.58-1.45c.23-4.35-2-7.59-4.45-10.77-9.37-12.39-13.12-26.54-13-41.87.07-8.38.22-16.76.33-25.13l.16-.19-.13-.22a6.14,6.14,0,0,0,.23-.94,58.49,58.49,0,0,0,.6-7c1.91-10.22,6.7-19.47,9.69-29.33.77,2.67-.42,5.09-.5,7.62-.66,2-1.2,4-2,5.92-3.19,7.68-3,16.12-5.63,24-1.36,4-.43,8.77-.57,13.2-.48,14.8,2.86,28.4,12.43,40.1,3.09,3.78,6.26,7.56,8.25,12.06C336.28,460.14,334.06,461.23,327.46,465Zm7.61-3.93c1.57-3.58.79-6.23-.38-8.81a37.82,37.82,0,0,0-5.14-8.28,116.79,116.79,0,0,1-9-12.82c-5-8.06-6.45-16.91-5.85-26.29q.84,2.4,1.7,4.79c2.57,9.08,7.38,16.85,13.44,24,4.24,5,8.27,10.33,9.72,17C339.57,454.45,340.56,458.57,335.07,461.08Zm7.62-.29c-1.58-.13-3.05-.4-2.14-2.78a13.06,13.06,0,0,0-.13-8.87c-.64-5.63-4.16-9.9-7.53-13.86a81.26,81.26,0,0,1-15.75-27.18c-1-5.61-3.18-11.06-2.38-17.35a21.36,21.36,0,0,1,.84,2.67c2.82,16.75,10.59,31.07,21.37,44,4.17,5,8.17,10.15,10.85,16.15A5.32,5.32,0,0,1,342.69,460.79Zm13.95-16.37c.14,3.72-1.65,6.61-4.05,9.19-.85.91-1.87,1.92-3.14.45-1.76-5.56-5.25-10.08-8.8-14.54-7-8.84-13.85-17.8-18.21-28.4-6.39-15.51-8.34-31.17-2.42-47.27.37-1,.2-2.42,1.65-2.84l.09,1.84v0c0,.81-.11,1.62-.09,2.43.37,16.2,4.63,31.59,11.12,46.19C338.36,424,344.83,436.25,356.64,444.42Zm5.76-7.06c1,1.09,3,2,1.42,4A4.13,4.13,0,0,1,358.6,443a19.55,19.55,0,0,1-8.3-6.21,111.59,111.59,0,0,1-18.67-32.61c-6-16.74-9.25-33.91-8.41-51.75a6.8,6.8,0,0,0,.2-2.73c.28-8.88,1.3-17.58,6.43-25.23.89-2.41,3-3.91,4.44-5.9,0,3.05-2.37,5-3.68,7.38a65.48,65.48,0,0,0-2.31,6.21c-6.66,25.15-3.56,49.15,8.67,72C343.64,416.62,353.09,426.93,362.4,437.36Zm-26.93-63c2.54,8.27,7.1,15.33,12.77,21.79,5.53,6.3,12.05,11.61,17.75,17.75,4.57,4.91,7.77,10.46,7.54,17.43-.13,3.81-2.07,6.4-5.8,7.93,0-5.56-2.27-9.86-5.74-13.68-5.39-5.94-11.41-11.35-16-18-6.21-9-8.65-19.47-11.14-29.89a14.24,14.24,0,0,1-.75-8.55ZM334,328.72c-5.58,23.62-3.41,46.67,5,69.26a51.78,51.78,0,0,0,11.7,18c3.74,3.83,7.44,7.71,11,11.74,2.49,2.85,4.5,6.05,4.42,10.8-5.23-4.76-9-9.9-13.17-14.66-20.31-23.26-29.48-50.09-25.46-81,1-8,3.45-15.68,8.68-22.79C336.27,323.6,334.68,326,334,328.72ZM327.23,314l-16.09-.17-.7,0-7.6-.89c-1.45-1-3.13-.76-4.72-.74a199.35,199.35,0,0,1-25.74-1.24c-14.83-1.69-27.1,3.56-37.67,13.59-5.23,5-10,10.41-14.72,15.81-.61.7-.91,1.94-2.26,1.74,2-3.54,3.92-7.14,6-10.63,4.58-7.63,10.52-13.86,18.53-18a67.49,67.49,0,0,1,29.77-7.82c9.16.82,18.33,1.59,27.4,3.25,9.54,1.74,19.17,2.75,28.87,1.57,5-.6,9.87-1.53,15.5-2.42C338.74,312.62,332.83,312.87,327.23,314ZM508.51,117c-7.93.46-16,1.13-23.71,3.28-.78.22-1.6.5-2.17-.41,5.31-3,11.17-4.35,17-5.45,15.93-3,31.1.21,46.15,5.5,12.15,4.27,24.34,8.52,37,11.26a46.51,46.51,0,0,0,5.16.56h0l2.25.28a7.61,7.61,0,0,0,1.15.12c9.66,1,19.13.76,27.9-4.76,6.38-4,12.84-7.9,18.1-13.41,3.84-3.42,7.9-6.61,10.74-11,1.13,0,1.12-1.73,2.42-1.5a9.32,9.32,0,0,1-2,4.39c-3.19,4.44-6.63,8.72-9.62,13.3-6.06,9.29-14.37,15.68-24.3,20.35-11.06,5.2-22.1,7-33.66,1.65-9.09-4.21-18.28-8.18-27.43-12.27s-18.12-7.95-27.87-10A46.21,46.21,0,0,0,508.51,117Zm-27.95,1.38a13.16,13.16,0,0,1,2.23-2,3.31,3.31,0,0,0,.09-.62c1.38-.06,2.28-1.07,3.3-1.76,10.69-7.23,22.56-10.65,35.37-11.11,5.8-.2,11.59-.46,17.38-.7,11.71.23,22.53,4.41,33.63,7.44,18,4.91,36,5,53.45-2.1A54.8,54.8,0,0,0,653.93,83.2a20.24,20.24,0,0,1,1.5-2.11l.05,0,.55.17c-1.62,8.28-4.93,15.55-11.49,21.24-6.86,6-14.64,10.16-22.87,13.85-16.95,7.59-33.84,8.94-51.43,1.92a187.73,187.73,0,0,0-42.81-11.12c-7.59-1.11-15.26-2-22.84.35a45.13,45.13,0,0,0-15.48,6.81L484,117c-.55,1.14-1.92,1.21-2.7,2.06C481,118.86,479.85,119.3,480.56,118.33ZM479.25,117c1.12-1.22,2-2.69,3.53-3.48C496,101.35,512.11,94.8,529.3,91.19c12.08-2.55,24.12.81,36,3.2l.2.06c7.33,2.36,14.6,4.88,22,7a68.31,68.31,0,0,0,16.41,3c20.86.77,36.18-9.62,49.21-24.58.34,1.38-.29,2.45-1,3.57-7.9,12.8-19.24,21-33.61,25.12-17.3,4.91-34.4,3.42-51.26-2.2-11-3.68-22.19-6.29-33.92-5.46-3.25.12-6.49.29-9.74.36-14.67.32-28.17,4.22-40.1,13-.23.47-.47.93-.71,1.4C481.31,115.27,480.8,117.54,479.25,117Zm168.82-14.1c-3.18,1.58-4.54,5.27-7.81,6.75l-3.49,3.63c-5.29,3.92-10.53,7.87-16,11.53-6.65,4.45-13.88,6.11-21.69,6.06-1.73,0-3.47.06-5.2.09-16.34-1.23-31.4-7.38-46.62-12.63s-30.73-8.12-46.87-5.94c-2.39.32-4.91.64-7.05,2,.73-2.34,3.1-2.28,4.79-3.09,2.54-1.21,5.28-2,7.93-3a47.3,47.3,0,0,1,13.54-.61c17.49,1.65,34.31,6.18,50.67,12.34,14.52,5.48,29,6.21,43.62,1.06a108.94,108.94,0,0,0,25-12c2.68-2.21,5.38-4.39,8-6.63C647.78,101.69,648,102.07,648.07,102.9Zm-99.51,28.76c-4.83-2.67-9.83-5-14.75-7.53-2.56-.83-5-2.12-7.68-2.44l-6.33-1.23L515,119.17c3.32-.62,5.85.18,8.4.28l5,1.53c4.78.53,9,2.78,13.3,4.63,12.73,5.46,25.29,11.31,38,16.8,7,3,14.3,5.1,22.07,3.11,15.46-4,28.84-11.07,38-24.79,3-4.49,6.44-8.67,10.11-13.57a14.28,14.28,0,0,1-.05,2.82c-3.9,12.76-9.62,24.81-19.89,33.39-15.68,13.09-33.36,14.53-51.52,5C568.28,143.15,558.54,137.18,548.56,131.66Zm33.17,20.11a6.42,6.42,0,0,1,1.67.31c9.32,4.59,19,4.82,28.84,2.24,21.67-5.71,31.08-22.88,38.56-41.75a10.68,10.68,0,0,0,.57-3.43,32.26,32.26,0,0,1,1.76-8.86c.21.67.41,1.34.61,2-1,9.72-1.2,19.51-3.33,29.09-.41.95-.89,1.87-1.23,2.84-4.16,12-12.17,20.73-23.25,26.65-6.58,3.53-13.65,5.53-21.16,3.76-8.51-2-15.64-6.92-22.8-11.68C581.62,152.71,581.27,152.27,581.73,151.77Zm72.36-50.85a3.48,3.48,0,0,1-.3,1.18Zm-63.36,59.33c6.9,4.05,13.93,7.72,22.35,6.26,16.51-2.86,28-12.3,35.41-27.11a7.83,7.83,0,0,1,2.25-4.2c-.71,2.48-.61,4.47-1.65,6.23h0q-.76,2.41-1.52,4.83c-3.58,5.1-6.59,10.61-11.16,15-7.54,7.23-16.31,11.25-26.94,10.58a43.82,43.82,0,0,1-16.56-8.36C592,162.72,590.05,162.25,590.73,160.25Zm43.21,13.1a62.1,62.1,0,0,1-7.85,2.7c-7.58,1.73-14.58-.17-21.45-3.1a8.11,8.11,0,0,1-4.19-2.66,13.47,13.47,0,0,1,5.58,2c3,.21,5.83,1.56,8.88.75l.1,0c10-1.2,18.08-6,24.69-13.39a53.74,53.74,0,0,0,6.07-8.44c.38-.65.45-1.86,1.76-1.46a58.57,58.57,0,0,1-7.22,18.1Zm56.61,15c-7.76-2.11-13.91-6.79-19.68-12.13a29.72,29.72,0,0,0-13.76-7.51,11.24,11.24,0,0,1-6.18-1.07c2.83-.4,5.64-.77,8.38.33,8,.91,15.12,4.11,22,8.17,8.45,5,16.79,10.43,27.14,11.1C702.54,189.4,696.63,190.05,690.55,188.39Zm23.31-3.4c-9.24,1.12-17.48-1.82-25.19-6.58-11.4-7-23.11-13.1-37.12-12.68a5,5,0,0,1,3.57-1.57c12-.49,23.34,1.83,33.84,8a65.53,65.53,0,0,0,20.66,8.26,80.2,80.2,0,0,0,14.64,1A21.86,21.86,0,0,1,713.86,185Zm2.35-5.32c-10-.84-18.86-4.8-27.48-9.52-8-4.37-16.39-7.17-25.59-7.16-.45,0-.93,0-.94-.74,1.35-1.13,3.1-1.35,4.77-1.76l14,2.22a206.84,206.84,0,0,1,22.24,7.11c8.62,3.15,17.47,5,26.69,3.26,3.15-.59,6.24-1.53,9.71-2.39C733.13,177.85,725.42,180.44,716.21,179.67ZM683.86,158.5h0a107.06,107.06,0,0,1,31.63,6.75c9.56,3.63,18.9,3.12,28.26-.67,1-.42,2.21-2,3.58-.4a34,34,0,0,1-11.69,6c-11.47,3.5-22.5,1.48-33.41-2.53-6.2-2.28-12.4-4.62-19-5.69-3.63-1.54-7.68-1.08-11.57-2.21,1.31-1.79,3.06-.81,4.4-1.37l1.17-.11a3.24,3.24,0,0,1-.62.12ZM682,24.46c4.11,30.27,15.47,59,18.42,89.43,0,0,0,.07,0,.1.08,2.09.09,4.18.27,6.26a29.89,29.89,0,0,1-7.45,23.26c-3.88,4.41-8.72,7.64-13.62,10.78a4.29,4.29,0,0,1-.72,0c-.57-.09-.51-.44.18-1.18,2.54-2.71,5-5.46,7.55-8.21a32.14,32.14,0,0,0,8.63-25.67c-.95-9.82-1.68-19.69-4.33-29.26h0a94.35,94.35,0,0,0-6.1-17.79c-6.43-14.19-6.46-28.91-4.3-43.87C680.75,27,680.79,25.31,682,24.46Zm-3.89,4.91a65.07,65.07,0,0,1-.31,7.92c-1,11.67.28,23,4.88,33.87a219.89,219.89,0,0,1,7.58,21h0c1,7.37,1.93,14.76,3.08,22.12,2,12.9-1.36,24-10.87,33l-2.86,3.44-.71-.7,2.8-3.52a57.84,57.84,0,0,0,4.83-11.1c2-6.43,3.49-12.92,2.08-19.72a45.19,45.19,0,0,0-2.24-15.13c-2.83-8.78-6.68-17.16-10.54-25.49a48,48,0,0,1-3.94-27.94A46.26,46.26,0,0,1,678.13,29.37Zm-7.75,15.75a18.5,18.5,0,0,1,0,2.12c-1.65,10.33.22,20,4.52,29.52,6,13.41,13,26.64,13,42-1,16-5.28,30.18-20.15,38.94-8.21,3.37-16.85,5.7-24.7,10-1.13-1,.06-1.59.39-2.25,4.9-9.77,7-20.3,8.49-31,1.05-1.91.81-4.06,1.09-6.11,1.66-12.2,2.26-24.53,4.33-36.68,1.11-6.51.69-13.24,3-19.6,2.39-6.54,4.33-13.24,6.7-19.79C667.85,50,668.12,47.3,670.38,45.12ZM528.62,43.57A64.93,64.93,0,0,1,562,24.47c15.4-3.56,29.95-2.73,44.12,4.37a189,189,0,0,1,21,12.84l4.77,3-.76.8h0c-1.63-1-3.54-1.48-4.92-2.89-8.66-4.38-17-9.42-26.49-12-11.23-3.11-22.5-4.86-34.07-2.05a50.9,50.9,0,0,0-20.32,8.38c-2.2,1.45-4.34,3-6.5,4.53-6.1,3.41-11.51,8-18.08,10.72C523.24,49.07,526,46.36,528.62,43.57ZM637.5,50.31c.08,0,0,.37,0,.78A88.54,88.54,0,0,1,612,44.17c-8.8-3.68-17.67-7.16-27-9.3-14.5-3.33-27.84,1.28-41.2,5.86-1.83-.82-.22-1.11.27-1.45A60.76,60.76,0,0,1,564.19,30c.78-.18,1.53-.49,2.29-.74a70.51,70.51,0,0,1,40.29,5.35C617.29,39.18,627.28,45,637.5,50.31Zm-104.62-3c2.87-1.88,6.26-2.83,8.91-5.08h0l.09-.05-.06.05c3.32,0,6.23-1.65,9.32-2.54,9.6-2.77,19.09-5.8,29.39-4.16a107.61,107.61,0,0,1,24,7.07c12.17,5,24.31,10,37.79,9.89.61,0,1.44-.14,1.69.9l-2.47,1h0c-4.64.26-9.28.42-13.91.81A54.07,54.07,0,0,1,602,51.09c-6.76-2.79-13.47-5.75-20.65-7.35-1.24-.28-2.51-.37-3.77-.55l-.19,0c-13.34-2.39-26.18-.24-38.74,4.32-6,2.17-11.3,5.68-17.13,8.2C524.91,52.31,529,49.93,532.88,47.35ZM511.82,64.58c18.4-13.78,38.42-22.69,62.08-20.68,9.92,1.18,19,5,28.09,8.85,13.45,5.72,27.17,4.69,41,2.4l2.79-.66,2.07.33,0,0a.09.09,0,0,0,0,0c-7.5,3.69-15.07,4.76-22.68,5.67-1.6.19-3.25-.09-4.79.59-9.45.19-18.47-2-27.28-5.13-22.15-8-43.7-5.38-64.92,3.51a22.76,22.76,0,0,0-6.38,2.66c-4.71,1.68-8.89,4.68-13.91,5.74A25.89,25.89,0,0,1,511.82,64.58ZM487.22,89a14.79,14.79,0,0,1,2.24-3,149.47,149.47,0,0,1,14.12-13.45l19.69-9.62,6.45-2.62a97.85,97.85,0,0,1,45-7.19c7.63.61,14.66,3.4,21.87,5.59,8.95,2.72,18,4.65,27.44,3.27,10.87-.63,21.22-2.93,30.34-9.29l1.23-.8,2.91-1.31c.37.23,1.72-.27.73,1-.48.6-1,1.16-1.54,1.74-17.61,13.86-37.49,20.31-59.93,18.23-7.34-.67-14.31-3.11-21.41-4.9-22.3-5.63-44.28-6.18-65.18,5.28a86.7,86.7,0,0,0-18.42,13.71,18.19,18.19,0,0,0-4.92,4.16,4.77,4.77,0,0,1-3.49,2.93Zm172-34.23c-7,8.82-14.72,16.78-25.93,20.24l-9.55,3-.06,0c-6,1-11.84,2.56-18,1.84-16.66-2-33.33-3.7-49.89-6.49-9.66-1.62-19.4-2.75-29.16-.54a65.57,65.57,0,0,0-20.36,5.31,9.39,9.39,0,0,1-5.33,2l3.91-2.74c15.76-11.69,33.74-14,52.68-12.87,10.12.63,19.48,4.34,29.23,6.46,26.56,5.78,50.57.53,71.67-16.91Zm-180.52,44,.81.82c-1.59,3.35-2.52,7-5,10A31,31,0,0,1,478.74,98.75Zm-.86,9.73c3.9-8.33,9.77-15.15,16.47-21.32,9.88-8.11,21.62-11.57,33.95-13.54,16-2.19,31.48,2.35,47.15,4.26,9.72,1.18,19.43,2.38,29.15,3.53,7.09.84,13.92-.56,20.66-2.6A55.65,55.65,0,0,0,658.4,58.34c1.94-2.46,3.39-5.49,6.39-7a84.6,84.6,0,0,1-16.84,25c-9.07,9.45-20.3,14.07-33.41,14.28a125.75,125.75,0,0,1-29.75-3.41c-8.84-2-17.45-5-26.57-5.68-1.36-.25-2.71-.52-4.07-.74-13.14-2.15-26-.11-38.63,3.15a63.44,63.44,0,0,0-37,25.38c-.42,1.9-1.94,3-3.06,4.45A12.64,12.64,0,0,1,477.88,108.48ZM472.29,122l2.65-3.71C485.35,98.92,501.38,87.71,523,83.71a107.54,107.54,0,0,1,31.55-1.52h0a225,225,0,0,1,24.24,5.12,151.32,151.32,0,0,0,31.35,4.9c20.41.82,35.71-7.77,47-24.33,1.19-1.73,2.39-3.45,3.59-5.18-.67,4.33-2.93,7.85-4.82,11.54A86.1,86.1,0,0,1,641.5,89.68c-16.71,13.92-35.26,16.58-55.58,9.77-6.26-2.1-12.43-4.51-18.94-5.8a.77.77,0,0,1-.42.19l.42-.19c-15-3.75-30.1-7.17-45.55-2.11-14.2,4.65-28,10.1-39.2,20.48-1.35,1.26-2.5,2.73-3.74,4.1h0a4.59,4.59,0,0,0-1.91,2.32l-.8.65A8.21,8.21,0,0,1,473,122.8C471.78,123.79,472.45,122.34,472.29,122Zm7.69.79,3.38-.86a20.42,20.42,0,0,1,9-1.54l.82.09c.18,0,.36,0,.54.06l-.47.11h0l-7.84,1.95c-6.23,2-11.28,5.79-15.92,10.28-.89.86-1.44,2.38-3.11,2.18C469.66,129.54,474.68,126,480,122.75Zm-81.51,136c6.38-10.36,13.51-20.14,22.5-28.41,9.18-8.46,19-15.52,32.54-14.16a.79.79,0,0,0,.57.27l1.46.71c-1.25.34-2.13.66-3,.83-11.85,2.22-21.31,8.06-28.31,18-8.15,11.62-16.73,22.93-28.76,31-.85.57-1.63,2.77-3.29.9A61.67,61.67,0,0,0,398.47,258.7ZM356,307.51c3.49,0,7,0,10.47.11a25.54,25.54,0,0,1,13.13,4.2c9.59,5.93,19.25,11.74,28.88,17.61,8.44,5.15,17.17,6.17,26.27,1.85l-.4-.2a.84.84,0,0,1,.4.2c6.43-2.28,11.23-6.87,16.09-11.38.92-.84,1.5-2.12,2.92-2.35-2.33,4.26-3.69,9-6.87,12.84C437.86,341.29,419.59,347,404,339c-8.28-4.26-15.13-10.43-22.56-15.84-7.88-5.72-15.46-12.1-25.23-14.61C356.13,308.21,356.08,307.86,356,307.51Zm92,27.63c-.77,2.83-2.74,5-4.22,7.47-19.63,18.26-44.56,12.74-56.89-13.09a12.59,12.59,0,0,1,2,1.29,59.44,59.44,0,0,0,17.31,11c14,6.05,33,1.33,41.89-10.29C449.66,332.76,448.3,334,448,335.14Zm-7.89,24.94h0c-1.34.4-2.15,1.84-3.67,1.88-5.85,5.29-13,8-20.38,10.26A23.15,23.15,0,0,1,395.41,369a55.76,55.76,0,0,1-21-25.45c-4.37-10.68-9.8-20.85-17.69-29.48a4.81,4.81,0,0,1-2.37-2.32,3,3,0,0,1,3,1.12c8.53,7.8,17.76,14.93,24,24.94,2.09,3.36,4.19,6.71,6.43,10,5.65,8.23,12.08,15.39,22.71,17.07,8.6,1.37,16.9,1,24.68-3.41l2-1.52c2.82-.94,4.79-3.36,7.86-4.81C443.81,357.69,441.51,358.42,440.09,360.08ZM457,317.43a2.91,2.91,0,0,1-.27.88c-1.59,7-3.23,14-4.75,21.05a26,26,0,0,1-11.86,17.3c-1.26.8-2.46,1.7-3.68,2.56-.53.24-1.07.45-1.58.71-16,8.08-31.94,4.51-42.88-9.62a35.14,35.14,0,0,1-3.45-4.83c-6.69-12.58-16.6-22.39-27-31.79a3.64,3.64,0,0,1-2.72-2.57c1.73.36,3.1.74,4.13,1.91,7.75,5,15.32,10.22,21.24,17.43,3.32,4,6.7,8.06,9.69,12.35,12.49,17.89,41.24,13.89,50.76.71,3.88-3.64,5.72-8.24,6.29-13.44q2.59-6.57,5.2-13.15c-.14-1.58.71-2.84,1.38-4.16C458.84,314.53,457.59,315.94,457,317.43Zm2.74-9.58a39.73,39.73,0,0,0-5.79,6.95c-4.49,4.38-8.81,9-14.18,12.29-2.06,1.28-4.29,2.31-6.43,3.44a25,25,0,0,1-23.94-2.86c-9.16-6.21-19.06-11.17-28.33-17.2-3.14-2-6.37-4.13-10.32-4.41H358.15l-2.41-.32c1.61-1.45,3.74-.74,5.33-1.74,4.46,0,8.91.12,13.25,1.34,5.68.86,10.89,3,16,5.5,7.49,3.61,14.34,8.59,22.6,10.56h0c7.18,2.16,13.79.43,20.06-3.09a134.1,134.1,0,0,0,16.12-11.06c7.06-5.43,14.5-10.14,23.18-12.6l3.89.05C469.38,298.25,463.85,302.23,459.7,307.85Zm-67.46,1.51c4.94-.2,9.53,1.3,14.14,2.55,8.78,2.38,17.46,2.62,26.06-.68a98.29,98.29,0,0,0,20.26-10.86c4.11-2.81,8-6.07,13.31-6.51l2.08.49a.66.66,0,0,0,0,.14,76.51,76.51,0,0,0-16.17,8.95c-4.67,3.47-9.43,6.79-14.17,10.16-6.3,4.49-13.11,7.45-21.05,7C407.55,319.07,400.17,313.67,392.24,309.36ZM488,286.17c0,1.37-1.57,2.22-2.77,3a19.63,19.63,0,0,1-10.68,2.75c-8.22-.08-15.94,1.26-22.42,6.95-3.61,3.16-8,5.2-12.18,7.48-10.32,5.61-21.13,7.73-32.65,4.33-1.72-.51-3.77-.27-5.36-1.92l9.18-.84.15,0a40.85,40.85,0,0,0,17.17-5.36c8.36-4.62,16.66-9.35,25.07-13.86A52.27,52.27,0,0,1,468.83,283a34.13,34.13,0,0,1,16.2,1.27C485.87,285.18,488,284.61,488,286.17Zm2-8.12c1.17,1.71.24,3.42-.76,4.85-.7,1-1.45,0-2-.46-10-9.26-21.53-8.56-33.5-5.38-8.71,2.31-16.09,7.19-23.42,12.17-6.5,5.13-13.1,10.06-21.68,11.19-.5.07-1.41.21-1.47,1.12,0,0,0,0,0,.06h0c2.74.58,5.26-.27,7.77-1.19,5.3-1.94,9.85-5.15,14.36-8.45,8.19-6,16.55-11.64,26.67-13.89,9.59-2.14,19.07-3,27.6,3.47-.4.86-1.13.7-1.79.53-9.1-2.3-17.48.09-25.7,3.81A203.63,203.63,0,0,0,435.47,297c-8.67,5.19-17.66,9.33-27.91,10.07h0c-10.67,1.08-21-.76-32.2-3.76,7.83-1.13,14.81-1.69,21.87-1a11.82,11.82,0,0,0,6.59.11c.79,0,1.72.43,2-.76a2.29,2.29,0,0,0,.64,0c-.52-1.45-1.94-.39-2.83-1.05l1.65-1h0c.91-.16,1.82-.29,2.72-.5,7.87-1.76,14.55-5.85,20.88-10.64,5.76-5.37,11.49-10.76,18.07-15.17,4.3-2.88,9.08-4.52,14-5.93h0c8.66-.83,16.67.89,23.87,6A19.52,19.52,0,0,1,489.94,278.05Zm-.72-4.65c.12.17-.09.59-.16,1-8.88-6.85-18.47-10.53-29.71-7.86-8.7,1.32-15.28,6.54-21.74,11.92-3.58,3-6.92,6.24-10.44,9.29-6.78,5.88-14.81,9.15-23.48,11a25.56,25.56,0,0,0-6.36,1.22c-.83-2,1.15-1.54,1.84-1.86,4.27-2,8.74-3.63,12.92-5.8,7.91-4.13,14.21-10.24,19.89-17,2.77-1.78,4.86-4.31,7.25-6.51,11.06-10.2,23.57-12.09,37.53-7C482.66,264,485.73,268.83,489.22,273.4Zm-74.4,16-.66-.85,2.94-2.28.79-1.33a35.22,35.22,0,0,0,3.23-3.11c4.67-5.74,9.36-11.47,13.87-17.35a38.93,38.93,0,0,1,13.27-10.85c1.15,1.44-.54,1.73-1.08,2.31-2.39,2.62-5.05,5-6.84,8.13-3,3.53-6.54,6.56-9.12,10.44-4.29,4.35-8.32,9-13.3,12.6A6,6,0,0,1,414.82,289.42Zm69.55-25.36c-6.65-4.67-14-6.49-21.73-6.68A32.65,32.65,0,0,0,444,262.94c-.07-2.84,2.55-3.79,4-5.55a45.91,45.91,0,0,1,3.62-3.63C460.37,246.33,480.2,249.89,484.37,264.06ZM482,252c0,2.59-.71,2.83-2.7,1.49-10.34-7-21-6.16-31.75-1.11a8.45,8.45,0,0,1-4.36,2.14c1-1.44,1.63-2.51,2.94-2.9,8-7.32,17-11,28.07-8.72C479.76,244,481.9,246.22,482,252Zm-2.84-10.47c-.69,1.4-1.86.22-2.75,0-10.1-2-19.33-.78-27.63,6-12.69,10.38-22.11,23.52-31.72,36.52-6.65,8.18-15.93,11.9-25.52,15.1a151.32,151.32,0,0,1-26.51,3,42.28,42.28,0,0,0-6.14,1c-.8,0-1.65.09-2.11-.82l11.93-4.74c4.84-1.24,9.64-2.63,14.52-3.7a69.7,69.7,0,0,0,41.82-26.64c3.8-5,7.36-10.25,11.47-15,8.57-9.9,18.76-16.86,32.67-15.61,2.9.26,6.08-.17,8.63,1.84C478.72,239.28,479.78,240.23,479.16,241.5ZM373.52,294.25l5-2.15c.16-.16.29-.4.48-.46,13.06-4.2,24.83-10.4,34-21,6.38-7.4,12.53-15,19.33-22.06,6.09-6.31,12.91-11.38,21.39-13.95a20.83,20.83,0,0,1,12.52-.18c-.59.37-.74.54-.92.56a18.32,18.32,0,0,1-2.08.21c-7.17.26-13.11,3.39-18.81,7.51-8.12,5.87-13.52,14-19.32,21.88-8.28,11.22-18.48,20-31.75,24.72-4.1,1.46-8.37,2.44-12.57,3.64A11,11,0,0,1,373.52,294.25ZM475,232c.38,3.24-1.45,3.21-3.61,2.32-11.52-4.77-21.67-1.37-31.2,5.28-7.43,5.18-13.24,12.09-18.94,19-9.19,11.09-18.37,22.05-32.22,27.68-5.35,2.17-10.67,4.45-16,6.68a7.34,7.34,0,0,1-4.09,1.72,9.14,9.14,0,0,1,3.18-2.63l1.07-1.19h0c2.73-1.59,5.55-3.05,7.55-5.61q9-6.57,18-13.12c11.29-8.18,21.48-17.45,29.09-29.29a39.08,39.08,0,0,1,6.3-7.9c8.75-8,18.35-13.54,30.89-10.93C469.8,224.93,473.55,227,475,232Zm-5.37-8.7c-3-.49-5.94-1.31-8.93-1.4-13-.43-22.61,6.09-30.65,15.46-4.69,5.48-8.17,11.88-13.15,17.18-9.65,10.28-21.37,17.95-32.45,26.44-.49.38-1.05,1.11-1.65.07,2.89-3.2,5.14-7,8.61-9.66,10.22-5.95,18.52-14,25.71-23.31,2.93-3.77,5.81-7.59,8.53-11.51,9-13,22-17.64,37.05-18.24C465,219.91,468.46,220,469.63,223.25Zm1.1-3.3c-16.3-9.22-30.6-7.93-45.21,3.8-11.71,9.41-20.7,21-28.55,33.69-.88,1.42-1.42,3.18-4,4.24,2.2-5.58,4.22-10.56,6.15-15.58a64.76,64.76,0,0,1,20.42-27.87c11.45-9.1,24.07-13.64,38.73-8.42C463.34,211.6,469.49,216.58,470.73,220Zm1.41-2.93c-9.24-9.72-19.93-12.93-31.86-10.91-11.54,1.95-20.86,8.42-29.16,16.5,5.37-10.3,12.61-18.62,23.53-23.23,12.57-5.31,24.83-2.39,33.3,8.05A19.25,19.25,0,0,1,472.14,217Zm2.25-2.32c-7.46-18.55-25-23.9-42.5-16.95a35,35,0,0,1,10.59-7.92c8.71-4.37,17.52-3.56,25.9.57C477,194.66,479,203.81,474.39,214.7Zm4.54-12.37c-1.15-7.21-4.93-12.29-11.53-14.77-10.94-4.1-21.5-3.6-31.14,3.67-8.5,6.4-16.26,13.57-22.48,22.29a11.31,11.31,0,0,1-3.28,4.39c.69-2,1-4.19,2.56-5.83,7.16-12.08,16.1-22.6,28-30.16a29.2,29.2,0,0,1,34,2.22C480.54,188.65,482.34,196.6,478.93,202.33Zm3.61-5.44c.35-8.52-4.06-13.93-11.2-17.47-11.11-5.51-22-5.31-32.48,1.62C428,188.22,420,198.25,412.45,208.6l-2.94,6.89c-.88-3.21,1-5.67,2.22-8.33,5.83-14.73,14.62-26.93,29.18-34.25,2.95-1.49,6.18-1.94,9.26-2.95l1.89-.17,7.71.09c9.05,1.87,17.27,5.31,23.52,12.46C486.41,188.94,486.22,193.78,482.54,196.89Zm-21.13-59c.23-.26.55-.45.86-.05-3,5.32-6.18,10.44-10.69,14.62h0c-2.55-.24-5.18.18-7.65-.79C450.3,147.75,456.35,143.44,461.41,137.86ZM409.67,192.4c.7-1.89,1-3.93,2.26-5.58a104.14,104.14,0,0,1,6.88-15.59c6.44-11.9,16.07-18.33,29.95-17.51,5,1.25,10.09,2.18,14.45,5.16h0l7,6.48c-8.44-3-17.08-2.68-25.67-2.65-6.64,0-12.43,2.44-17.74,6.38-6.71,5-10.26,12.21-14.24,19.17q-1.07,2.41-2.15,4.84l-.78-.71Zm-3.74,22.29c-.32-1.7,1.54-3,.88-4.76,1.91-13.14,7.88-24.54,15.86-34.81,5.41-7,12.84-11,22-10.92,4.3,0,8.6.07,12.88.4,9.15.71,17.05,4.18,23.27,11.12a7.89,7.89,0,0,1,2.7,4.47l-3.65-3.54a46.68,46.68,0,0,0-13.6-6.77,32.2,32.2,0,0,0-18.37-.66c-12,2.46-20.43,10.17-27.55,19.5-6.58,8.62-10.64,18.52-13.71,28.84h0c-.52,2.08-1,4.15-1.55,6.23h0c-.67.23-.21,1.46-1.24,1.38h0c.47-3,.93-6,1.4-9C405.48,215.68,405.71,215.19,405.93,214.69ZM215.64,166.51h0c2,7.86,4.06,15.71,9.33,22.22,1.3,1.61,2.87,3.06,3.63,5.07,3.7,4,6.66,8.7,11,12.13h0c12.68,11.77,27.7,19.33,44.1,24.31,8.62,2.62,17.56,3.93,26.39,5.61,4.85.72,9.79,1,14.48,2.58,1.36,1.2,3.39.78,5.34,2.17l-18.66-3h0c-1.13-.4-2.47.11-3.49-.81l-2-.17c-4.62-.19-9.26.09-13.85-.54-.34,0-.67-.08-1-.14a44.62,44.62,0,0,1-23.58-6.42c-8.85-5.1-17.86-10-25.66-16.69-5.8-4.95-9.53-11.5-13.75-17.67C222,186.41,215.33,178,215.64,166.51Zm25.15,47.16c13.21,10.42,26.81,20.27,43.89,23.15,8.25,1.39,16.76.25,25.09,1.48h0c2.58,1,5.4.79,8,1.53,2.45.7,5.32-.18,7.38,2-2.25-.43-4.32.63-6.51.79-9.43.73-18.87.14-28.31.18a50.63,50.63,0,0,1-28-8.45A146.39,146.39,0,0,1,223,196.54c-2.6-5.09-5.94-9.84-7.07-15.59-.22-1.11-1.17-2.32.23-3.34,2.9,7.58,7.69,14.06,12,20.81C231.8,204,235.36,209.61,240.79,213.67Zm-30.23-25.14a13.27,13.27,0,0,0-.67-4.72c.81-3.4,1.47-6.86,3.22-10.11,1.07,1.27.65,2.66,1,3.85.74,7.39,3.79,13.86,8,19.88,6.37,11,15.79,19.16,24.89,27.65a95.57,95.57,0,0,0,16.67,12.06,47.5,47.5,0,0,0,23.53,7c12.11.24,24.23.89,36.32-.57,1.07-.13,2.37.32,3.15-.92,6.06.39,12.16-.77,18.28.51l-2.91,1.08c-7.45,1.25-14.89,2.54-22.35,3.73a116.16,116.16,0,0,1-50.46-3.17c-9.1-3.67-17.45-8.75-25.78-13.85a35.77,35.77,0,0,1-8.2-7c-4.23-4.8-8.7-9.39-12.81-14.29A67.69,67.69,0,0,1,211,190.16,1.76,1.76,0,0,0,210.56,188.53Zm-.25,3.19c2.38,8.9,7.88,15.9,13.78,22.65,3.35,3.84,6.92,7.5,10.37,11.26a36.57,36.57,0,0,0,8.91,7.18c8,4.52,15.61,9.62,24.35,12.65a95.21,95.21,0,0,0,34.19,5.29c10.32-.32,20.62-1.09,30.68-3.72a12.9,12.9,0,0,1,2.42-.16c1.79-.69,3.56-1.56,5.54-.66-1.34.61-2.56,1.62-4.19,1.32-10.58,4.1-21.22,7.68-32.79,7.95a117.93,117.93,0,0,1-65.49-17.56c-1.71-1.39-3.34-2.9-5.14-4.15a48.64,48.64,0,0,1-18-23.06c-1.53-4-3.15-8-4.34-12.15C210,196.41,208.64,194.05,210.31,191.72Zm1.07,13.95a57.54,57.54,0,0,0,25.79,33c1,.76,2,1.55,3.07,2.27,9.17,6.34,19.72,9.33,30.26,12.31A97.52,97.52,0,0,0,332.23,251c7.33-2.68,14-6.8,21.63-8.86l8.22-4,.29.52-2.79,2.94a10.58,10.58,0,0,0-4.32,1.23c-2.35,1.86-5.13,3.18-7.11,5.52-9.68,6.86-20.53,10.64-32.2,12.29-10.29,1-20.47-1-30.72-1.1l-.72.72,22.74,2.26c.61.06,1.29,0,1.58.64a2.15,2.15,0,0,1-.23.28l-8.09,1.93h-.05a174.65,174.65,0,0,1-44.86-7.45c-10.59-3.23-18.48-10.43-26.08-18-1.63-.64-2.43-2.16-3.53-3.36,2.31-.21,3.29,1.78,4.8,2.89,8.05,6.35,16.53,11.92,26.44,15l1.31-.61c-10.52-3.58-19.57-9.68-28.23-16.44-1.37-1.08-2.83-2-4.24-3C213.93,228.53,212,217.45,211.38,205.67Zm8.21,26.9a15.47,15.47,0,0,1,5.65,5.33c1.24,1.23,2.51,2.43,3.71,3.7,10.75,11.33,23.61,18.76,39.18,21.18,6.32,1,12.66,1.88,19,3,.55.1,2.77-1,1.94,1.41-4.64.23-9.28.34-13.9.73-16,1.38-28.87-5.12-40-16l-1.5-1.43-9-11.33A22.42,22.42,0,0,1,219.59,232.57Zm3.39,9.37c-.46-1-1.81-1.95-.58-3.29l10.35,12.72c3.53,5.05,8.42,8.52,13.68,11.46a66.14,66.14,0,0,0,17.64,7c4.94.75,9.82-.73,14.75-.46,6.37-.59,12.81-.63,19.08-2,4.89-1.09,10-1.38,14.56-3.87h0l5.55-.71c2.22,1,.16,1.15-.36,1.37-4.55,1.86-9.13,3.67-13.7,5.5.21.8.93.62,1.47.77,6.45-2.45,13-4.64,19-8.13,5.19-2.12,10.53-3.92,15.29-7l9.24-6.13a31,31,0,0,1,3.27-2.35c1.2-.65,1.76-2.62,3.67-1.84h0l-9.78,8h0a2.75,2.75,0,0,0-.3.14c-1.64.85-2.64,2.73-4.68,2.93-1,.9-2,1.88-3.14,2.67-13.64,9.62-28.52,16.19-45.34,17.4-19.28,1.38-37.47-2.42-54.24-12.3C232.68,256.92,226.82,250.14,223,241.94Zm121.71,13.41c-.6,2.36-2.66,3.41-4.34,4.81-3.8,4.31-8.91,6.94-13.39,10.37-1.53.84-3.07,1.66-4.59,2.51A91.18,91.18,0,0,1,292,284.1c-17.23,2.76-31.72-3.72-45.39-13.14-1.52-.53-3.25-.78-3.5-2.85,1.34.85,3.07.93,4.24,2.13a100.79,100.79,0,0,0,24.78,6.8c25,3.68,47.26-3.2,67.51-17.68C340.9,257.48,343,256.67,344.69,255.35Zm-86.16,29c-7-3.91-13.68-8.15-18.82-15.65l16.68,9.93a50.59,50.59,0,0,0,18.93,6.82c19.48,2.74,36.4-4.05,52.38-14.23h0c8.41-4.17,14.34-11.4,21.39-17.25,1.77-1.46,3.18-3.44,5.58-4.05-2.21,3-4.4,6-6.64,8.94C328.9,284,289.05,298.48,258.53,284.31Zm32.67,9.42c-2.32-.32-4.75-.4-7-1.69,1.09-.94,2.18-.66,3.19-.71,22.92-1.28,42.29-10.18,58-26.93,5.68-6,9.94-13.2,15.39-19.43a10.35,10.35,0,0,1,3.5-4,8.56,8.56,0,0,1-2.58,4.95c-6.23,10.81-12.54,21.55-21.47,30.45C326.65,289.92,310.54,296.41,291.2,293.73Zm28.32,6c3.5-1.12,6.63-1.88,9.58-3.1,10.77-4.46,19.18-12,26.59-20.78,3.21-5.18,5.73-10.72,8.48-16.14h0l2.67-6.78c2.77-7,5.43-14.09,11-19.51l2.82-2.76c.21,1.69-1,2.56-2,3.55h0a7.59,7.59,0,0,0-1.38,1.53c-4.18,8.47-8.31,16.95-12.46,25.44-2.69,5.21-4.95,10.66-8.35,15.49h0a35.27,35.27,0,0,1-8.65,10.95c-6.38,5.28-13.65,9-21.22,12.22C324.38,300.18,322.15,300.8,319.52,299.7Zm23.24-1.7a23,23,0,0,1-8.34,2.11,2,2,0,0,1-.83.27l.83-.27-3.76,0c6.4-3.4,12.66-6.77,17.88-11.74,6.09-4.54,9.31-11.18,12.72-17.63,4.94-9.33,9.7-18.74,14.06-28.37a41.51,41.51,0,0,1,15.06-17.9c.78-.52,1.53-1.89,2.83-.75a.55.55,0,0,0-.47.77c-10.46,12.08-19.44,25.09-25.17,40.13-3.68,6.16-7.32,12.33-11,18.45A49.61,49.61,0,0,1,342.76,298Zm5.46-.86-.16.08c-.31-.33-2.27.48-.79-1.08,1.75-1.86,3.7-3.54,5.36-5.47,4.67-5.4,7.54-12,11.31-17.95.85-1.35,1.17-3.21,3.05-3.77-2.35,12-7,22.48-18.74,28.18Zm14.28-5.09c-.13-.17-.4-.44-.36-.5,8.29-13.15,11.56-28.48,18.38-42.26,1.43-2.91,2.88-5.8,4.33-8.7-.14-.74,1.37-1.51-.05-2.23-6.45,10.83-10.54,22.7-15.16,34.34-.51,1.29-1,2.59-1.5,3.89a40.59,40.59,0,0,1-9.7,17.53,27.24,27.24,0,0,1-6.56,4l-.73-.67a35.8,35.8,0,0,0,10-8.94c3.22-4.2,4.62-9.2,6.38-14.06h0A87.74,87.74,0,0,1,384,237.56a37.61,37.61,0,0,1,8-9.09l-6.5,12.76a133.87,133.87,0,0,0-7.38,22.88C375.85,275,372.11,285.2,362.5,292.05Zm12.81-12.45h0Zm18-36.91c-3.34,13.83-8.58,26.81-17.44,38.12-.17-.4-.34-.79-.5-1.19,3.09-4.39,4.84-9.4,6.35-14.48,2.47-8.29,8-15.1,11-23.11,0,0,.28,0,.31,0A4.55,4.55,0,0,1,393.27,242.69Zm3.67-17.41q-.84,3.36-1.67,6.72c-.65.57-.61,1.38-.75,2.14-3.2,9.59-8.72,18.07-12.88,27.21a51.5,51.5,0,0,1-2.23,6.87c-.43.93-.35-.44-.65-.6l1.91-7.13a3.42,3.42,0,0,1,.33-1.25c.61-3.58,2.06-6.89,3.17-10.31,2.63-8.07,7.41-15.17,10.45-23.06.49-.73,1-1.46,1.45-2.19a9,9,0,0,1,3.42-4.14C398.37,222.06,397.66,223.67,396.94,225.28Zm2.12-9.26c-.82,2.66-2.83,3.53-4.33,4.87-1.77,0-2.88,2.36-4.93,1.4C392.65,220.11,395.38,217.73,399.06,216Zm-11.2,4.23a7.4,7.4,0,0,1,4.25-2c-1.43,1.4-2.35,2.56-3.74,3.18h0c-3.37,3-6.66,6.16-10.12,9.09-7.34,6.22-10.59,14.85-13.9,23.43C359.61,266.24,353.79,277.71,343,286c-11.67,9-24,15.07-39.31,11.5a8.67,8.67,0,0,1-4.76-1.11c0-.32,0-.63.07-1l8.88.1a61.61,61.61,0,0,0,31.84-16.2c11.46-10.81,19.24-24.2,26.52-37.83C371.31,232,378.25,224.92,387.86,220.25Zm-11.92,5c-3.64,2.39-5.86,6.4-9.92,8.12a24.65,24.65,0,0,1-16.65,6.8,13.25,13.25,0,0,1-7.25.44c-.28-1.83-1.67-1.14-2.72-1.2-3.3-.19-6.67.24-10.28-1.23l4-.76a4.48,4.48,0,0,0,1.36-.25c12.92-1,25-5,36.54-10.65C372.57,225.79,374.12,225,375.94,225.26ZM273.89,213.08c9.35,1.84,18.14,5.93,27.63,7.16,12.43,1.61,24.77,3.92,37.28,4.9,9.6.91,19.22.64,28.9.58-3.38,2.31-7,4.36-11,4.44-11.39.24-22.85,1.1-34-2.51A110.74,110.74,0,0,0,304,223.43a117,117,0,0,1-33.58-10.23C271.51,212,272.72,212.84,273.89,213.08ZM226.52,181.4a80.21,80.21,0,0,0,14.77,15.25c16.47,13.55,34.94,23.11,56,27.08,9.73,1.84,19.46,3.6,29,6.36a43.34,43.34,0,0,0,12.77,1.66c3.75-.05,7.49.07,11.24.11,0,.28.08.56.11.84-1.28.34-2.55.72-3.84,1-12.58,2.84-25.07,2.41-37.8.35-25.21-4.08-48.58-12-68.23-29-4.39-5.12-8.85-10.18-13.15-15.36-8.16-9.82-12-20.88-9.37-33.71v0l2.54-4.72C218.23,162.17,220,172.25,226.52,181.4Z" transform="translate(-193.16 -15.17)"/><path class="cls-3" d="M284.77,259.44l.46.08A1.26,1.26,0,0,0,284.77,259.44Z" transform="translate(-193.16 -15.17)"/></g></g></g></svg>