<svg xmlns="http://www.w3.org/2000/svg" xmlns:xlink="http://www.w3.org/1999/xlink" viewBox="0 0 498.15 501.47"><defs><style>.cls-1{fill:none;}.cls-2{clip-path:url(#clip-path);}.cls-3{fill:#a18978;}</style><clipPath id="clip-path" transform="translate(-140.54 -170.41)"><rect class="cls-1" x="77.33" y="91.38" width="433.9" height="400.24" transform="translate(344.66 702.64) rotate(-141.71)"/></clipPath></defs><g id="圖層_2" data-name="圖層 2"><g id="飄移"><g class="cls-2"><path class="cls-1" d="M350.07,429.84a49.14,49.14,0,0,0-8.18-13.07c-5.8-6.87-11.77-13.61-17.66-20.41A38.62,38.62,0,0,1,316,381.58l0-.14c-.82-2.67-1.65-5.35-2.56-8.29-1.21,1.78-.59,3.62-.73,5.31-.89,11.28,3.17,20.83,10.34,29.25,2.92,3.42,5.65,7.06,9.27,9.77,6.5,4.87,9.24,11.72,10.76,19.32a18.63,18.63,0,0,0,4.62,9.31c.91.95,2,2.19,3.26,2,1.46-.24.51-2.11,1.19-3.06A32,32,0,0,0,350.07,429.84Z" transform="translate(-140.54 -170.41)"/><path class="cls-1" d="M315.83,407.15c4,3.71,8,7.45,12.11,11.08a72.06,72.06,0,0,1,11.4,13.16l.13,0c0-1,0-1.51,0-2-1.44-4.78-5.2-7.76-8.59-11a92.49,92.49,0,0,1-14-16.56c-4.71-7.28-6.18-15.33-5.69-23.88.25-4.5.75-9-.4-13.53-2.43,8.15-6,16-5.64,24.74C306.41,396.51,310.47,402.21,315.83,407.15Z" transform="translate(-140.54 -170.41)"/><path class="cls-1" d="M592.26,483.25c0,.06,0,.12,0,.18.08,1.2.24,2.39.23,3.58-.08,6.93-1.51,13.7-2.76,20.47a50.87,50.87,0,0,0,1.13,24.36c1.27,4.19,2.31,8.44,3.45,12.66l0,0,1.4,2.08c.91-.43.63-1.18.51-1.73-2.69-12.42-.46-24.58,1.76-36.76a101.47,101.47,0,0,0,1.85-23.49c-.5-9.81-5.14-18-9.55-26.28-1.43-2.68-3.47-5-4.16-8.1-2.58-2-4.12-4.94-6.41-7.22-3.14-3.11-6.13-6.38-9.89-8.84,3.46,4.88,7.73,9.11,10.89,14.19C587.39,459.08,591.87,470.5,592.26,483.25Z" transform="translate(-140.54 -170.41)"/><path class="cls-1" d="M323.9,416.39a128.21,128.21,0,0,1-13.34-12.71c-4.45-5.1-7.34-10.86-6.74-17.89h0c.21-8,3.47-15.29,5.34-22.89a53.3,53.3,0,0,0,1.95-15.83,46.43,46.43,0,0,0-1.35-12.48c-1.22-1.27-1-3.37-2.64-4.57.06.83.12,1.55.17,2.28q1.23,5.79,2.44,11.58c.52,3.69-.78,7.08-2.06,10.37-3.75,9.71-6.4,19.8-10.33,29.45a23.56,23.56,0,0,0,2,22.63c1.47,1.76,2.84,3.6,4.42,5.25,4.12,4.31,9.18,7.4,14.09,10.69a37.15,37.15,0,0,1,7.53,4c6,2.74,10.73,7.05,15.34,12.64-.34-1.73-.53-2.66-.71-3.59C336.07,427.78,330.28,421.84,323.9,416.39Z" transform="translate(-140.54 -170.41)"/><path class="cls-1" d="M316.31,424.66l-13.13-2.23a19.52,19.52,0,0,1-13.61-3.19c-14-6.21-23.28-31.93-9.21-46.92,3.37-3.59,6.41-7.49,9.49-11.34,5.5-6.85,8.84-14.85,11.94-23a6.47,6.47,0,0,0,.95-4.17,3.42,3.42,0,0,0-1.84,3c-6.63,11.43-13.75,22.47-24,31.08a32.87,32.87,0,0,0-3.78,4.12c-10.9,12.84-11.08,28.24-.53,41.4.34.42.64.87,1,1.31,1,1,2.09,1.9,3.07,2.9a24.56,24.56,0,0,0,18.26,7.57c6.77,0,13.55.19,20.32.28a2.49,2.49,0,0,0,.87.08c1.5.29,3,1.17,4.39-.46C319.07,424.76,317.75,424.22,316.31,424.66Z" transform="translate(-140.54 -170.41)"/><path class="cls-1" d="M357.4,399.79c-2.49-1.77-5.24-3.21-7.41-5.42-7.36-3.92-14.22-8.53-19.56-15-2.82-3.43-5.17-7.24-7.86-10.78-.43-.57-.41-2.48-2.07-1.33a24.34,24.34,0,0,1,2.36,5.62c3.4,7.63,8,14.39,14.71,19.5,3.5,2.65,7.16,5.09,10.6,7.82,6.21,4.9,12.3,10,15.21,17.72,4.65,9.84,3.12,19.39-1.46,28.91.41,0,.84.1,1-.05,3.53-4.11,7.43-7.88,8.26-13.74C373.12,419.16,369,408,357.4,399.79Z" transform="translate(-140.54 -170.41)"/><path class="cls-1" d="M374.61,402.8c-.61-1.13-1.72-1.46-3.25-2.15a7.93,7.93,0,0,0,2.83,3.61c6.74,8.95,9.57,18.59,5.15,29.48-.85,2.09-.48,2.74,1.9,2.2,5.27-1.21,6.91-3.62,6.87-9C388,416.37,382.91,408.74,374.61,402.8Z" transform="translate(-140.54 -170.41)"/><path class="cls-1" d="M363,419.56h0a45.64,45.64,0,0,0-8.19-11.74c-5.34-5.21-11.42-9.44-17.49-13.71-5.65-4.89-10.72-10.26-13.87-17.17-.36-.79-.66-1.6-1-2.41h0l-1.2-1.34c-.45.94.81,2.05-.42,2.81a2.32,2.32,0,0,1-.13-.58c-1.16-.08-1-1-1.1-1.74a11.1,11.1,0,0,1-1.17-6.1,86.3,86.3,0,0,0-5.21-20c-.59,10.89-.28,20.79,2.79,30.42h0c2.68,9.3,8.25,16.78,14.72,23.76a193.41,193.41,0,0,1,14.22,16.81c5,6.85,8.86,14.12,8.52,22.95,0,.65,0,1.35.83,1.55,4.34-9.13,1.67-17.69-2.17-26.12-4-8.88-10.89-15.49-18-21.87-3.92-3.52-7.76-7.09-10.58-11.6-1.34-2.14-2.61-4.29-2.61-6.92v0H321c.85-.12,1.15.69,1.31,1.14,2.71,7.69,8.54,12.81,14.54,17.8,6,5.79,11.94,11.64,15.77,19.22,5.26,10.42,8.15,20.93,1.56,31.93-.35.58-1.11,1.46,0,1.91,1.51.65,3.26,1.17,4.61-.25a18.34,18.34,0,0,0,3.38-5.6C365.39,435.1,365.42,427.38,363,419.56Z" transform="translate(-140.54 -170.41)"/><path class="cls-1" d="M392.8,421.17c-1.55-13.07-9.95-21.11-20.75-27.08-5.17-2.87-10.68-5.13-16.05-7.66a65.63,65.63,0,0,1-32.69-33.36c-1.94-4.29-4.15-8.45-6.23-12.67q-3.34-5-6.7-10.07c-.74.6-.47,1.36-.34,2.11a38.37,38.37,0,0,1,2.14,5.46,142.83,142.83,0,0,0,7.95,23.84c4.82,8.21,10.06,16,18.88,20.58,13.86,6.33,27.8,12.45,39.84,22.13,7.87,6.34,10.82,14.6,10.91,24.3,0,.86-.85,2.17.58,2.53s2-.83,2.44-1.81C394.15,426.74,393.13,423.89,392.8,421.17Z" transform="translate(-140.54 -170.41)"/><path class="cls-1" d="M373.67,408.25a42.36,42.36,0,0,0-4.05-2.62c-1.9-1-3.28-3.2-5.88-2.58a30.8,30.8,0,0,1,8.74,16.09c1.34,7.18,1.08,14.29-1.92,21.33C382.8,433.87,382.23,414.9,373.67,408.25Z" transform="translate(-140.54 -170.41)"/><path class="cls-1" d="M283.7,383.56a55.82,55.82,0,0,1,6.76-18.1,11.62,11.62,0,0,0,.79-2.13c-21.41,16.39-21.65,40.45-1,55,2.55.89,4.95,2.28,7.71,2.44,1.13.07,2.52,1.08,3.37-.6C288.89,414.25,280.83,397.6,283.7,383.56Z" transform="translate(-140.54 -170.41)"/><path class="cls-1" d="M350.57,393.52c4.08,1.62,7.55,4.31,11.39,6.37,3.23,1.05,5.94,3,8.82,4.73.64.38,1.24,1.88,2.34.54A36.55,36.55,0,0,0,360.54,395c-6.29-3-12.49-6.22-18.69-9.4a33.59,33.59,0,0,1-3.49-2.38l-1.38-.47-2.68-2.26c-.21.26-.43.51-.65.77a5.61,5.61,0,0,0,2.71,2.41C340.68,387.59,345.72,390.41,350.57,393.52Z" transform="translate(-140.54 -170.41)"/><path class="cls-1" d="M329.56,361.44c6.95,11.31,17,19,28.95,24.45,8.36,3.82,16.94,7.21,23.93,13.55,4.91,4.46,8.94,9.32,10.58,15.88.16.64.38,1.26.6,1.88.06.15.24.26.69.74a19.5,19.5,0,0,0-2.6-11.51c-4-7.31-10-12.62-17-17-7.82-4.9-16-9.09-24.09-13.52-11.55-6.36-19.56-16-26-27.22-.09-.16-.34-.24-.51-.35l-2.95-4.17a10.37,10.37,0,0,0,2.58,6.39C325.68,354.19,327.41,357.94,329.56,361.44Z" transform="translate(-140.54 -170.41)"/><path class="cls-1" d="M285.84,381c-4.36,15.95,4.48,31.67,16.29,37.9,4.14,2.19,8.79,2.52,13.17,3.84-.48-1.26-1.77-1.55-2.73-2.23-5.11-3.6-10.26-7.14-13.62-12.62-5.75-7.55-6.51-15.79-3.4-24.57,3.54-10,7-20.06,10.61-30a24.19,24.19,0,0,0,1.32-12.92c-.62-3.23-1.3-6.45-1.94-9.67l-.93.35c-.41,9.49-4.81,17.72-8.56,26.1C292.52,365,288.16,372.49,285.84,381Z" transform="translate(-140.54 -170.41)"/><path class="cls-1" d="M542.7,434.13c5.46,11,9.85,22.47,10.42,35,.06,1.3.07,2.6.1,3.9,1.16,8.53,0,17.06-.06,25.58a118.31,118.31,0,0,0,2.64,28.09c2.74,12,9.19,21.5,19.67,28a79.49,79.49,0,0,0,26.29,10.66c-2-2.45-5.09-3.2-7.74-4.51a52.46,52.46,0,0,1-25.31-26.57c-3.19-5.82-5.81-11.83-6.42-18.54q-1.23-13.77-2.41-27.55c-1.29-14.82-.1-29.93-5.25-44.29-4.21-11-9.68-21.13-19.08-28.66-7-5-14.42-9.05-22.86-11a11.92,11.92,0,0,0-5.27-1.18c1.53.76,2.86,1.94,4.7,2A59.71,59.71,0,0,1,542.7,434.13Z" transform="translate(-140.54 -170.41)"/><path class="cls-1" d="M521.83,403.13a29,29,0,0,0-10.75-1.75c3.18,1.7,6.75,1.84,10.15,2.65Z" transform="translate(-140.54 -170.41)"/><path class="cls-1" d="M531.9,409.76a17.21,17.21,0,0,1,4.8,3.72,82,82,0,0,1,16.22,14.31c14.62,17,18.39,37.41,17.54,59-.27,6.9-1.16,13.79-.36,20.69,2.46,21.08,12.27,38.15,28.47,51.69.63.36,1.25.76,1.9,1.08,1.34.68.61-.48.75-.86L599.45,557c-.33-.32-.65-.65-1-1-7.63-7.16-11.77-16.26-14.47-26.15-3.1-8.44-3.08-17.15-2.32-25.93.62-7.07,1.83-14.1.91-21.24a92.14,92.14,0,0,0-15.39-40.08l-3.66-5.44q-6.36-8.13-12.7-16.27a143.9,143.9,0,0,0-15.14-10.4,13.76,13.76,0,0,0-3.25-1.47l-3.93-1.94A4.56,4.56,0,0,0,531.9,409.76Z" transform="translate(-140.54 -170.41)"/><path class="cls-1" d="M567.6,441.13c12.32,17.83,18.89,37.19,15.87,59.15-1.21,8.73-1.45,17.47.57,26.15.93,1.28,1,2.86,1.48,4.29,2.31,6.84,4.78,13.61,9.63,19.8h.05l0,0c-.05-1-.07-1.48-.1-2-.38-.81-.76-1.63-1.15-2.44-4.81-12.33-8.42-24.78-5.77-38.29,1.79-9.09,3.53-18.24,2.7-27.61C588.15,458,576,441.25,559.76,427a23.91,23.91,0,0,0-3.85-2.92c2,4.42,5.53,7.69,8,11.7A21.56,21.56,0,0,1,567.6,441.13Z" transform="translate(-140.54 -170.41)"/><path class="cls-1" d="M568.44,497.34c.06-9.4,1.66-18.75.26-28.2-2.6-17.69-8.27-33.8-22.1-46.05L543.31,420a8.82,8.82,0,0,0,2.88,4.53,62,62,0,0,1,8.86,17.73c3.93,8.57,4.79,17.77,5.17,27,.65,15.8,2.29,31.51,3.73,47.24.53,5.81,3.15,10.92,5.18,16.23l0,0q2.31,4.11,4.6,8.22c5.37,9.66,14.21,15.21,23.71,20l.49-.86C577.78,544.05,568.28,522.94,568.44,497.34Z" transform="translate(-140.54 -170.41)"/><path class="cls-1" d="M299,407.84a.84.84,0,0,0,.11-.41C299,407.57,299,407.7,299,407.84Z" transform="translate(-140.54 -170.41)"/><path class="cls-1" d="M543.69,483.47l-.25-.35A.75.75,0,0,0,543.69,483.47Z" transform="translate(-140.54 -170.41)"/><path class="cls-1" d="M350.61,359.05c9.74,9.53,21.83,15.24,34.13,20.49a40.24,40.24,0,0,1,22.12,22.59c.34.8.8,1.55,1.37,2.64l.36-1.48a.81.81,0,0,1,.14-.59c-1.37-12.7-9.8-20.42-19.38-27.24-9.37-6.67-19.78-11.34-30.56-15.21a57.93,57.93,0,0,1-9.65-4.05C347.74,358.09,349.92,358.38,350.61,359.05Z" transform="translate(-140.54 -170.41)"/><path class="cls-1" d="M498.55,402.53a7.71,7.71,0,0,0,4,1.82l.75.61a4.34,4.34,0,0,1,2.51,1.32h0c1.51.87,3.09,1.65,4.5,2.65,11.75,8.3,19.46,20,26.51,32.15,7.66,13.25,7.45,27.8,6.91,42.39.08,6.25-.94,12.41-1.66,18.59-2.32,20,3.73,36.63,19.82,49.32a80.46,80.46,0,0,0,17,10.29c3.77,1,7.45,2.42,11.57,2.2l-5.48-2.3c-17.45-7.19-28.35-19.63-31.56-38.6a142.18,142.18,0,0,1-1.59-29.85,208.88,208.88,0,0,0,0-23.34h0A101.45,101.45,0,0,0,544.3,441c-7.89-19.15-21.34-31.75-41.18-37.58l-3.94-1.73C498.87,401.92,497.4,401.58,498.55,402.53Z" transform="translate(-140.54 -170.41)"/><path class="cls-1" d="M488.6,401.23c5,3.41,9.53,7.32,12.57,12.68q1.66,3.42,3.32,6.84l0,0,.2.4-.06-.51c0-.26,0-.52-.08-.77a19.21,19.21,0,0,0-3.17-8L500,408.94c-4-4.26-8.27-8.2-14-10.15C486.13,400.37,487.64,400.59,488.6,401.23Z" transform="translate(-140.54 -170.41)"/><path class="cls-1" d="M271.23,414.08c-5.54-6.32-7.53-13.88-8-22.08-.51-10.12,4.84-17.45,11.32-24.25,2.57-2.7,5.26-5.29,7.94-7.87,8-7.7,12.79-17.59,18.32-27a2.83,2.83,0,0,0,.45-3,4.55,4.55,0,0,0-1.68,2.64c-6.42,8.95-14.74,15.93-23.73,22a52.52,52.52,0,0,0-19.38,24.3,21.79,21.79,0,0,0,1.05,19.64C261.06,404.89,265,411,271,415.32c.33,1.4,1.82,1.86,2.45,3h0c1.8,1,2.93,3,5.55,3.63-1.94-2.55-4.55-3.89-6-6.31Z" transform="translate(-140.54 -170.41)"/><path class="cls-1" d="M333.22,208.38c-7.81,12.37-11.31,25.48-6.92,40,1.26,4.18,2.26,8.44,3.38,12.67,2.37.3.94-1.54.92-2.07-.2-6-.61-12-.93-18-.79-14.82,3.55-28.12,11.9-40.23.94-1.36,1.79-2.76,2.69-4.14a14.48,14.48,0,0,0,3.82-6.25,21,21,0,0,0-5.14,5.9l-8.69,10.53C333.9,207.27,333.57,207.83,333.22,208.38Z" transform="translate(-140.54 -170.41)"/><path class="cls-1" d="M348.86,313.78c3.17,1.5,6.36,2.93,9.54,4.38-1-2.09-3.13-3-4.83-4.35-6.76-5.36-14.58-9.42-20.05-16.36h0c-12.5-12.75-22-27-23.31-45.51a47.78,47.78,0,0,1,2.6-18.78c1.88-5.49,3.75-11,5.91-17.31-5.91,6.2-8.51,13.21-10.77,20.4C300.84,267.14,321.93,301.05,348.86,313.78Z" transform="translate(-140.54 -170.41)"/><path class="cls-1" d="M346.74,306.17c-17.29-15.85-28-35.05-29.43-58.79a95,95,0,0,1,1.44-24.16c.88-1.31.62-2.92,1.14-4.33-1.85.64-1.75,2.28-1.94,3.78-6,14.43-9.18,29.06-3.29,44.4a86.19,86.19,0,0,0,16.11,25.83c1.08,1.24,2.13,2.49,3.2,3.74,4,3.47,7.45,7.67,12.17,10.33,1.61,1.27,3,3,5.27,3.06C349.86,308.73,348.71,307,346.74,306.17Z" transform="translate(-140.54 -170.41)"/><path class="cls-1" d="M322.2,266.13c4.38,15.27,13.33,27.7,24.86,38.41.94.88,2,1.59,3.07,2.38.58,1.84,2.51,2.39,3.61,3.74l.19.24h0l9.25,7.47h0c.36-1.92-1.57-2.05-2.41-3a28.33,28.33,0,0,0-2.8-2.56l-7.44-7.33c-3.77-3.78-6.47-8.35-9.44-12.73-4.38-4.86-7.67-10.48-11.19-15.94,0-.54-.27-1.17.43-1.51,2.57,3.86,5.13,7.72,7.74,11.56.3.43.8,2.31,1.33.05l-1.74-5v0c-3.18-3.69-4.44-8.37-6.4-12.67-2.51-5.5-3.8-11.44-5.58-17.2-.71-4.59-3-8.8-3.29-13.5a61.93,61.93,0,0,1,3-17.62c1.68-5.43,3.93-10.61,7.89-14.84l9.72-12c-1.47-.88-2.1.55-2.92,1.17-6.81,5.14-11.92,11.86-17.11,18.5C317.14,231.12,317.17,248.63,322.2,266.13Z" transform="translate(-140.54 -170.41)"/><path class="cls-1" d="M359.08,203.06a34,34,0,0,0-4.85,8.91c-3.07,8.68-6.13,17.36-7.75,26.46a109.61,109.61,0,0,0,6.9,47.13c2.55,6.64,5.19,13.25,7.79,19.87l1.56,2.47c0-5.89-2.26-11.28-3.09-16.95-1.29-.47-1.13-1.76-1.45-2.72-3.71-10.85-5.46-22.15-7.6-33.36a44.73,44.73,0,0,1,1.85-23.05,89.81,89.81,0,0,1,7.87-17.71c6.06-10,11.79-20.32,20.65-28.33,4.73-5,10.1-9.08,16.77-11.2,1-.59,2.38-.48,3.35-1.71-3.34-1-6.65-.92-9.95-1a12.52,12.52,0,0,1-4.22,1.53,1.66,1.66,0,0,1-1.41.77,63.66,63.66,0,0,0-15.74,14.3C366.05,193.21,362.67,198.22,359.08,203.06Z" transform="translate(-140.54 -170.41)"/><path class="cls-1" d="M345.76,201.1c-4.55,9.3-8.41,18.83-9.67,29.22-.27-.36-.54-.73-.82-1.09,0,.18-.07.37-.12.56.05-.19.08-.38.12-.56.92-9.73,4.41-18.64,8.69-27.29.74-1.61,2.38-2.9,1.74-5-.89,1.25-2.14,2.28-2.41,3.91-5.53,8.48-10.63,17.16-11.55,27.55a165,165,0,0,0,1.86,42.8v0c1.12,2.36,2.24,4.73,3.35,7.09l.3.16c.57-.4.36-1,.29-1.59l-2.34-21.4.8.52c0-.14,0-.28,0-.43a1.19,1.19,0,0,1,0,.43c1.91,9.47,2,19.25,5,28.53,3.79,10.44,9.39,19.71,17.6,27.3,2.54,1.37,4.3,3.67,6.47,5.48a10,10,0,0,1,2,3.73l3.25,2,.42-.37-5.27-6.81c-3.36-6.58-8.46-12-12.37-18.21a91.91,91.91,0,0,1-14.12-56.45c.71-10.3,1.41-20.6,5.47-30.29.46-1.1,1-2.18,1.49-3.27a54.22,54.22,0,0,1,25.4-30.18c-10.73,2.88-20.57,6.79-23.53,19.1C347.08,198.1,346.48,199.63,345.76,201.1Z" transform="translate(-140.54 -170.41)"/><path class="cls-1" d="M349.57,202.83c-.81,1.9-1.88,3.7-2.83,5.54a111.14,111.14,0,0,0-3.45,63.78c2.5,10.62,7.87,19.73,13.71,28.68,0,1.56,1.21,2.49,2,3.61.43-2-.71-3.47-1.69-5a12.11,12.11,0,0,0-.62-2.2c-4.39-8.76-7.1-18.11-9.4-27.56a89.52,89.52,0,0,1-1.77-32.54c1.09-8.64,4.3-16.69,6.92-24.9a34.6,34.6,0,0,1,4.89-9.61c2.79-3.92,5.47-7.91,8.36-11.75,5.07-6.75,10.46-13.19,18.19-17.11-2.47-1.08-4.39.59-6.25,1.58-3.57,1.9-6.95,4.18-10.36,6.37A45.78,45.78,0,0,0,349.57,202.83Z" transform="translate(-140.54 -170.41)"/><path class="cls-1" d="M347.35,332.92c15,2.35,28.72,8.1,41.89,15.39a.52.52,0,0,1,.8.28c.8-1.42-.61-1.84-1.24-2.46a39.09,39.09,0,0,0-19.43-10.39c-9.72-2.16-19.33-4.71-28.88-7.45-6.61-1.89-13.36-3.57-18.73-8.29-5.59-3.85-9.91-9-14.3-14.2l.69,3.48a21.8,21.8,0,0,0,3.58,7.26,46.53,46.53,0,0,0,16.47,9.79C334.57,328.56,341,330.72,347.35,332.92Z" transform="translate(-140.54 -170.41)"/><path class="cls-1" d="M343.21,333.23c-.88-1.62-2.65-1.56-4.07-2.08-6.25-2.31-12.85-3.68-18.74-6.93-2.1-1.16-4-2.62-6.08-3.88-1.73-1.06-.6.59-.85,1l.11.13v0C321.14,331.17,331.69,333.4,343.21,333.23Z" transform="translate(-140.54 -170.41)"/><path class="cls-1" d="M331.2,310c9.95,6.5,21.07,10.22,32.24,13.86a8,8,0,0,0,5.07,1.42,9.78,9.78,0,0,0-4.39-2.44c-6.8-3.81-14.23-6.34-20.91-10.4-18.5-11.25-30.47-27.38-36.11-48.25-.24-.92-.19-2-1.27-2.81-.76,2.33-.35,4.59-.2,6.78C306.92,286.54,316,300.13,331.2,310Z" transform="translate(-140.54 -170.41)"/><path class="cls-1" d="M334.08,325h0c5.12,2.19,10.58,3.22,15.9,4.68,8.63,2.17,17.26,4.33,25.88,6.54a6.82,6.82,0,0,1,1.67,1h0c1.11.74,2.15,1.7,3.67,1.18l-3.09-2.07C372,332.24,365,331.16,358,330l-6.77-1.14h0c-5.53-1.48-11.12-2.73-16.52-4.68-9.55-5.12-18.13-11.4-24.33-20.46-1.7-2.48-3-5.22-4.72-8.23-.5,2.64.5,4.57,1.27,6.55,4.43,6.35,9.29,12.33,15.4,17.18A33.15,33.15,0,0,0,334.08,325Z" transform="translate(-140.54 -170.41)"/><path class="cls-1" d="M308.15,309.28c-.14-.24-.27-.48-.4-.72A2.06,2.06,0,0,0,308.15,309.28Z" transform="translate(-140.54 -170.41)"/><path class="cls-1" d="M420.5,382.06c-6.38-9.16-15.45-14.22-26-17.17,9.07,6.08,16.84,13.41,20.88,23.67,4.18,10.61,3.31,21.08-3.86,31.49a18.09,18.09,0,0,0,8-5.72C427.53,404.48,427.84,392.62,420.5,382.06Z" transform="translate(-140.54 -170.41)"/><path class="cls-1" d="M435.34,411.41c2.17-8.53,1.2-16.81-4.51-24a33.12,33.12,0,0,0-9.37-8.22c9.82,14.8,8.3,32-7.35,42.47C425.06,423.84,433.1,420.21,435.34,411.41Z" transform="translate(-140.54 -170.41)"/><path class="cls-1" d="M398.07,176.45c-1.21-1.1-2.15,0-3.13.44-5.07,2.16-8.81,6.16-13,9.55A137.69,137.69,0,0,0,354.78,230a47.65,47.65,0,0,0-2.33,27.49c1.86,8.69,3.16,17.5,5.66,26.06.58,2,2,3.68,2,5.84,1.57-2.31.2-4.79.37-7.18.18-2.55-.58-5.11-.15-7.69v0c-.48-7.92-3.19-15.54-3.51-23.41-.67-16.31,5.76-30.76,12.8-45,2.69-5.8,7.15-10.17,11.61-14.57C386.61,186.28,391.64,180.59,398.07,176.45Z" transform="translate(-140.54 -170.41)"/><path class="cls-1" d="M442.41,416.35a27.5,27.5,0,0,0-4.57-31.76c-9.28-9.51-20.72-15.7-33.24-19.95-1.81-1.1-3.87-1-5.88-1.23a10.79,10.79,0,0,0,4.69,2.17c9.25,4,17.36,9.8,24.92,16.39,8.57,7.47,11.09,17.1,9.44,28-1,6.57-5,11-11.38,13.5C432.34,425.48,439.32,422.28,442.41,416.35Z" transform="translate(-140.54 -170.41)"/><path class="cls-1" d="M400.19,371.83a61,61,0,0,0-29.65-13.4c-5-.8-10-1.69-15.57-2.64,1.48,2.14,3.2,2.3,4.69,2.84,13.18,4.77,25.65,10.8,36.6,19.76,13.65,11.18,17.63,24.12,12.3,40.93,2.87-1.8,6.26-8.43,6.93-13.43C417.45,391.36,410.81,380.61,400.19,371.83Z" transform="translate(-140.54 -170.41)"/><path class="cls-1" d="M384.52,381c-4.15-1.74-8.22-3.66-12.27-5.62-9.95-4.83-19-10.9-26.49-19.16-3.14-2.69-7.07-4-10.58-6.06-.84.75-.06,1.13.39,1.51,10,8.56,19.33,17.87,30.68,24.76,5.85,3.56,12.43,5.52,18.39,8.78,10.2,5.59,18.08,13.2,20.22,25.24a66.66,66.66,0,0,1,.44,8.5c2.77-1.7,2.19-4.88,3.23-7.35C405.05,397.84,398.23,386.74,384.52,381Z" transform="translate(-140.54 -170.41)"/><path class="cls-1" d="M387.69,388.51a36.48,36.48,0,0,0-8.51-4.27c-12.39-4.72-22.92-12.3-32.65-21.12-5.19-4.7-10.4-9.37-15.6-14.06-2.75-1.34-4.64-3.66-6.64-5.86h0l-1.3-.75a8.64,8.64,0,0,0-3-2.42,6.9,6.9,0,0,0,2.37,3.44c3.09,4.48,6.23,8.93,9.27,13.44,7.88,11.67,19.77,18,31.78,24.32,7.46,3.91,15,7.92,21.18,13.76,8,7.49,13.09,16.19,10.94,27.73-.4,2.16-.07,3.86,2.84,2.88,4.32-2.31,5.46-6.16,5.44-10.74C403.74,402.78,396.73,395,387.69,388.51Z" transform="translate(-140.54 -170.41)"/><path class="cls-1" d="M370.55,206.81c-4.68,8.5-7.41,17.75-10.4,26.9a42.19,42.19,0,0,0-1.33,23c0,.32,0,.63.07.95.32,4.35,1.48,8.57,2.2,12.86.07.63.15,1.26.23,1.89-.66,1.11.08,2.25-.07,3.37h0c.29,5.74.57,11.48.88,17.78.9-2.07.12-3.85,1-5.35.56-4.63-.17-9.23-.45-13.84-.17-8.47-.69-17,0-25.42,1.4-16.08,5.45-31.4,13.83-45.37h0c2.32-4.67,6.07-8.31,9-12.5,1.71-1.09,2.73-2.82,4-4.34,5-6.12,11.81-9.53,18.66-12.92h0c-10.6,1.94-17.11,9.72-24,16.9C379.29,195.79,374,200.5,370.55,206.81Z" transform="translate(-140.54 -170.41)"/><path class="cls-1" d="M390.74,358.7c.12,1,1.17.3,1.51.87h0l6,.22h0c10.12.82,20,2.64,29.25,7,10,4.75,18.73,11,23.34,21.6a30.4,30.4,0,0,1,3,17.06,44.4,44.4,0,0,1-3.6,13.85l-2.55,4.05a7.43,7.43,0,0,0,3.59-3.36c5.19-7.07,6.85-15,5.72-23.6-.52-4-1.33-8-2.13-11.95-1.7-8.47-6.89-14.54-14.35-18.17-11-5.35-22.69-8.64-35.17-7.85-1.49,1-3.06-.5-4.56.12l-1.5-.33-8.56.46Z" transform="translate(-140.54 -170.41)"/><path class="cls-1" d="M426.45,359.58c7.19,2.31,14.55,4.18,20.44,9.39,4.67,4.13,8,9,9.33,15.11,1.71,7.92,3.64,15.82,2.55,24.18l4.61-7.74h0c1.9-4.6,1.76-9.48,1.94-14.32-1.95-12.95-9.74-20.59-22-24.2a96.76,96.76,0,0,0-15.7-3.31c-1.77-.86-3.71-.73-5.58-1-.17.29-.34.57-.5.86Z" transform="translate(-140.54 -170.41)"/><path class="cls-1" d="M451.16,392.36c-.17-.57-.35-1.14-.52-1.71-1.53-2.64-2.58-5.53-4.52-8-9.59-12-22.54-17.72-37.25-20.23-2.68-.58-5.32-1.86-8.11-.43l6.92,1.37c11,5,21.8,10.34,30.54,19C446.66,390.72,449,400.69,446,412c-1.87,7.27-6,12.38-13.92,13.72,3.59,2.78,8.08,2,13.56-2.14,5.37-7.15,6.94-15.4,6.9-24.1Z" transform="translate(-140.54 -170.41)"/><path class="cls-1" d="M467.07,388.53h0c4.73,3.34,10.08,5.32,15.55,7,.32-.36.08-.61-.21-.78a72.36,72.36,0,0,1-16.1-13.44C465.89,383.79,466.79,386.13,467.07,388.53Z" transform="translate(-140.54 -170.41)"/><path class="cls-1" d="M146.51,283.56c3.7-1,7.39-2.08,11-3.26a155.8,155.8,0,0,1,23.39-5.39c12.26-1.94,22.86,2.49,33.1,8.4,6.07,3.51,11.51,8.06,18.05,10.78l9,4.92a61.91,61.91,0,0,0,20.31,4.81c.14-.29,1.81-.43.27-.84-3.15-.86-6.13-2.82-9.67-1.83-.41.12-1-.32-1.48-.51-6.22-1.53-11.64-4.88-17.35-7.57-6.55-4.61-13.38-8.86-19.58-13.9-10.6-8.61-22.82-11.05-36-11.12a79.24,79.24,0,0,0-31.75,6.14,5.7,5.7,0,0,0-3,8.05C143.69,283.87,145.07,284,146.51,283.56Z" transform="translate(-140.54 -170.41)"/><path class="cls-1" d="M372.38,345l13,3.51a35.22,35.22,0,0,0-9.94-5.63,82.66,82.66,0,0,0-37.18-8.06h0c-4.82-.67-9.7-1-14.2-3.14a33.65,33.65,0,0,1-10.18-7.46l-.48.8a25.75,25.75,0,0,0,4.93,5.28,38.29,38.29,0,0,0,18,5.53c1.3.21,2.59.4,3.89.62,11.62,2,23.36,3.46,34.59,7.3-.38,1.44-1.39.2-2,.47l-8.86-2.3c-14-3.59-28.8-3.63-42.53-8.71-.07,0-.26.27-.39.42,8.18,7.53,18.29,9,28.8,9A126.19,126.19,0,0,1,372.38,345Z" transform="translate(-140.54 -170.41)"/><path class="cls-1" d="M195.44,268.33c5.94,1.15,11,4.14,16,7.43,4.79,3.16,9.67,6.17,14.42,9.09l.55.35,4.65,2.88c-.33-1.17-2.14-1.81-3.43-2.82-8.9-6.91-17-15-27.55-19.51-15-6.49-30.58-7.16-46.42-3.65-4.87,1.08-8.12,4.49-11.16,8.13v0c0,1.06-1.13,2.3-.17,3.09s2.11-.12,3.09-.54C161.6,265.89,178.33,265,195.44,268.33Z" transform="translate(-140.54 -170.41)"/><path class="cls-1" d="M150.22,292.16a108.22,108.22,0,0,1,36.39-6.49,73.17,73.17,0,0,1,27.26,5.19c4.87,1.95,9.7,4,14.55,6,3.28.07,5.92,2.65,9.3,2.35-1.31-2.1-3.74-2.55-5.7-3.48a92.5,92.5,0,0,1-13-7.6,89.48,89.48,0,0,0-19.19-10c-8.21-3.19-16.59-2.26-25-.72a183.16,183.16,0,0,0-22.54,6,29.57,29.57,0,0,1-6.68,1.61c-1.9.14-2.32.64-2.24,2.48C143.63,293.63,144.22,294.26,150.22,292.16Z" transform="translate(-140.54 -170.41)"/><path class="cls-1" d="M240.89,277.51a73.78,73.78,0,0,0-12.95-14.22l-4.24-3.7c0,2.62,2.28,3.58,3.81,5.07,3.06,5.13,6.15,10.25,9.18,15.4,4.07,6.93,10,11.79,17,15.49.56.3,1.57,1.67,2.19-.11C249.4,290.7,245.24,284.05,240.89,277.51Z" transform="translate(-140.54 -170.41)"/><path class="cls-1" d="M227.7,299.77c.62-.43,1.85.21,1.94-1.13l-2.34-.92c-3.19-.39-6-1.8-8.86-3.17-16.48-8-33.67-8.72-51.37-5.55-7.27,1.3-13.95,4.63-21.27,5.62-1.05.14-1.21.75-1.23,1.57s0,1.53,0,2.3c.05,5.18.84,5.9,5.41,3.86,18.28-8.16,37.15-8.52,56.38-4.6,6.67,1.36,13.44,1.67,20.2,2.09Z" transform="translate(-140.54 -170.41)"/><path class="cls-1" d="M195.7,262.33c10.28,3,18.47,9.95,26.56,16.75,4.12,3.45,8.33,6.8,12.43,10.28,2.85,2.42,6.47,3.59,9.4,5.87,1.32,1.26,3.19,1.42,4.68,2.36.68-1.84-1.78-1.13-1.9-2.32l-2.1-1c-7.81-4.67-13.17-11.75-18.54-18.83-.79-1-1.63-2.06-2.48-3.07-19.52-23.37-51.61-27.69-76.57-10.31-.17.77-.27,1.16.84.69C163.84,256,179.89,257.74,195.7,262.33Z" transform="translate(-140.54 -170.41)"/><path class="cls-1" d="M214.3,261a82.62,82.62,0,0,1,14.37,14.87c3.56,4.69,6.83,9.7,11.76,13.2,1.14,1.81,3.11,2.56,4.76,3.72l.52-.74-5-4.35a45.65,45.65,0,0,1-6.72-9.64c-4.42-8.54-9.73-16.38-17.31-22.48a100.77,100.77,0,0,0-26.28-11c-16.37-4.5-30.47.57-42.8,11.49-1.9,1.68-3.79,3.67-3.92,6.55l.66,0a33.13,33.13,0,0,1,5.64-4.51C166.73,247.86,195.13,245.81,214.3,261Z" transform="translate(-140.54 -170.41)"/><path class="cls-1" d="M170.33,343.29c5.88-2.64,10-7.39,13.8-12.27,5.44-7,11.67-12.93,19.53-17.07l4.09-2.49c-8.76,1.27-16.63,4.36-23.1,10.51a109.36,109.36,0,0,0-10.06,10.8,34.94,34.94,0,0,1-6.63,6.34c-2.15,1.58-4.44,2.82-8.05,2.07C163.3,345.75,166.9,344,170.33,343.29Z" transform="translate(-140.54 -170.41)"/><path class="cls-1" d="M218.49,310.07a19.77,19.77,0,0,0,2.3-1.29c-6,.49-10.56,3.53-15.53,5.57a76.29,76.29,0,0,0-22,19.81c-3,3.87-6.25,7.95-11.32,9.63a12.27,12.27,0,0,1-8.15,1.84c-2.37-.37-2.33,1-2.14,2.52a5,5,0,0,0,7.67,3.32c5-3.64,9-8.33,12.78-13.15C191.91,325.88,203.6,315.93,218.49,310.07Z" transform="translate(-140.54 -170.41)"/><path class="cls-1" d="M167.44,337.49c3.77-2.71,6.63-6.37,9.52-10,8.91-11.09,20.8-16.82,34.54-19.25,4.11-.73,8.32-2.52,12.28-2,7.76.93,15.51-.92,23.2.53,1.92.36,3.89.47,5.84.69,2.35-.42,4.81.21,7.13-1-9.67-.84-19.12-3.46-28.92-3.23a55.86,55.86,0,0,1-6.57.81,5.54,5.54,0,0,1-.91,0l-.17.16-.21-.11c-7.74,1.53-15.49,3-23.23,4.59-14.16,2.86-26.47,9.07-36.06,20.12-2.47,2.83-5,5.55-9.07,6.19C159.58,340.28,161,342.12,167.44,337.49Z" transform="translate(-140.54 -170.41)"/><path class="cls-1" d="M166.94,323.29c-4.12.8-7.05,2.23-10.25,2.67-1.62.22-3.74-1.21-4.78.56s.82,3.14,1.8,4.54c.64.92-.31,1.25-.74,1.78,2.21,1.59,4.12.22,5.59-1C161.31,329.39,163.73,326.59,166.94,323.29Z" transform="translate(-140.54 -170.41)"/><path class="cls-1" d="M152.92,332.91l.05-.07h0Z" transform="translate(-140.54 -170.41)"/><path class="cls-1" d="M157.49,324.09c4.14-.76,8.35-1.83,11.67-4.29,12.16-9,26.31-12.21,40.75-14.75,2.46-.43,4.91-1,7.36-1.45,0-.14,0-.28,0-.43-5.41.19-10.83.54-16.24.54a68.57,68.57,0,0,0-39.69,12.05c-3,2.07-6.23,4.19-10.24,4-.57,0-1.11,0-1.24.74a2.47,2.47,0,0,0,1,2.59C152.9,324.56,155.19,324.51,157.49,324.09Z" transform="translate(-140.54 -170.41)"/><path class="cls-1" d="M199.77,216.49a12.66,12.66,0,0,0-5.67-.56H194l-.57,0a11.29,11.29,0,0,0,5.11,1.49c15.41,3.48,28.16,12.34,41.17,20.61a42.84,42.84,0,0,1,10,9,140.65,140.65,0,0,1,19.4,30.75,131.24,131.24,0,0,0,12.68,21.83c.78,1.09,1.42,2.6,3.28,2.1l-1.2-3c-1.17-.5-1.29-1.72-1.71-2.66-4.32-9.83-8.68-19.64-12.84-29.54-4.23-10.06-10.46-18.47-19.71-24.41-14.66-9.41-29.3-18.88-45.79-24.94Z" transform="translate(-140.54 -170.41)"/><path class="cls-1" d="M267.09,258.84c3.12,6.26,5.91,12.68,8.79,19.05,2.45,5.45,4.83,10.94,7.61,17.26,0-2.23-.07-3.64-.09-5,0-.14,0-.28,0-.41l-2.64-13.19,0-.13a89.38,89.38,0,0,0-8.27-18c-5.53-9.09-13.78-15.07-22.7-20.34l-4.35-1.82c-3.37-2.11-3.37-2.11-5.12-1.59h0l4.53,2.48h0C253.79,242.82,262.22,249.06,267.09,258.84Z" transform="translate(-140.54 -170.41)"/><path class="cls-1" d="M183.7,208.91c14.71-5,29.38-3.91,44,.27,6.73,1.92,13.53,3.51,19.95,6.56,18.92,9,31.91,22.85,36.65,43.68.34-.08,1.05,1.28,1-.37-.55-15.18-6.76-27.2-19.5-35.76-7.75-5.21-15.9-9.7-23.92-14.43-17.2-6-34.74-8.06-52.71-4.29a20.06,20.06,0,0,0-11,6.08C180.24,210.7,181.9,209.53,183.7,208.91Z" transform="translate(-140.54 -170.41)"/><path class="cls-1" d="M153.46,249.57c12.69-8.29,26.28-10.53,40.76-5.71,12.52,4.16,24.74,9,34.63,18.2,3.09,2.87,6.13,5.8,9.2,8.71,4.07,5.55,7.43,11.58,11.82,16.9a24,24,0,0,0,5.43,5.16c.77,1.76,2.53,2.38,3.93,3.42-.32-2.08-2.12-2.95-3.44-4.21h0l-17.34-22.67c-.41-1.59-1.78-2.46-2.78-3.55-9-9.87-18.84-18.69-31.76-23.36-14.4-5.21-28.8-9.77-44.14-3.82-4.36,2.63-6.76,6.69-8.36,11.38C152.29,250.41,152.81,250,153.46,249.57Z" transform="translate(-140.54 -170.41)"/><path class="cls-1" d="M288.85,296.3v0c-1.9-8.55-3.83-17.07-6.94-25.32-5.18-13.71-12.38-25.59-24.92-34.15-13.05-8.93-25.52-18.71-41.1-22.92a59.2,59.2,0,0,0-28.64-1.07c-1.34.3-2.88.25-3.86,1.52l7.15.09a37.94,37.94,0,0,1,14,1.74c1.62-.19,3,.64,4.37,1.21,9.11,3.72,17.75,8.41,26.48,12.93,5,2.29,10.15,4.25,14.87,7.11a46.44,46.44,0,0,1,9.28,5.57c10.56,7.54,17.32,17.8,21.24,30.06,2.8,7.5,3.6,15.4,4.75,23.24.05.2.09.4.14.6,1.8,4.09,2.6,8.69,6.1,12C290.6,304.69,289.24,300.6,288.85,296.3Z" transform="translate(-140.54 -170.41)"/><path class="cls-1" d="M262.89,213.58c.21-.34.42-.68.64-1-3.64-2.44-7.23-5-10.93-7.3-10.54-6.67-22-9.29-34.51-8.67-10.54.52-21.14.21-30.77,5.55-.91.51-2.06.71-2.59,1.8C212.12,196.59,237.55,204.73,262.89,213.58Z" transform="translate(-140.54 -170.41)"/><path class="cls-1" d="M242,271.71c6.33,8.67,12.31,17.63,20.09,25.15,1.17.21,1.89,1.5,3.64,1.35-4-5.8-6.9-11.94-10.06-17.94-11.77-22.36-31.49-34.64-54.37-42.8-7.63-2.72-15.51-4.65-23.74-4.5-4.53-.44-8.79.82-13,2.08,3.13.81,6.14-.3,9.19-.6l.07-.09s0,.06.06.1C202.5,236,225.15,248.55,242,271.71Z" transform="translate(-140.54 -170.41)"/><path class="cls-1" d="M186.92,232.13c22.5,4,41.72,14.41,58.1,30.19,6,5.8,9.93,13,13.61,20.42,1.5,1.08,1.24.11.94-.83-2.55-8.15-6.1-15.74-12.3-21.85-13.78-13.57-29.47-24.36-47.71-30.89-13.82-4.95-27.42-3.44-40.16,4.18-1.29,1.59-3.13,2.79-3.68,5.38,3-1.77,5.63-3.73,8.56-5C171.59,230.66,179.23,230.76,186.92,232.13Z" transform="translate(-140.54 -170.41)"/><path class="cls-1" d="M239.43,223c10.48,6.59,20.7,13.61,29.93,22,.44,1.5,1.94,2.19,2.64,3.49.44-2.21-1.16-3.4-2.38-4.77-5.48-7.52-12-13.88-20.31-18.22-10.08-5.26-20.51-9.84-30.18-15.87-14.42-4.71-28.2-2.35-42.38,3.63a4.58,4.58,0,0,0,3.38-.08C201.54,206.53,221.1,211.47,239.43,223Z" transform="translate(-140.54 -170.41)"/><path class="cls-1" d="M272,236.77c-9.17-12.09-21.59-19.37-35.93-23.64-4.51-1.35-9.08-2.52-13.62-3.77-.3,1.24.84,1.26,1.46,1.62a149,149,0,0,0,13.94,7.31c13.42,5.9,25.6,13.41,33.77,26.1,1.88,2.92,4.1,5.72,4,9.48,5.28,9,8.67,18.88,12.12,29.39a10.8,10.8,0,0,0,.07-2C284.56,265.74,282,249.9,272,236.77Z" transform="translate(-140.54 -170.41)"/><path class="cls-1" d="M209.6,231.8a152,152,0,0,1,35.67,24.46c6.86,6.42,12,13.88,14.72,23a52,52,0,0,0,11.5,20.44c1.68.74,2.55,3.11,5.26,2.37-7.43-8-11.84-17.67-15.93-27.39-5.12-12.16-13.77-21.19-23.83-29.21a141.65,141.65,0,0,0-34.85-20.25c-8.76-3.6-18-4.4-27.44-3.6-6.21.53-11.12,3-14.45,8.33.12.59.31,1.05,1.05.68C177.62,222.38,193.7,223.79,209.6,231.8Z" transform="translate(-140.54 -170.41)"/><path class="cls-1" d="M197.7,350.48c-3.59,4.76-7.59,9.24-11,15,4.4-.86,6.95-3.33,9.1-6.18,3-4,5.88-8.19,8.69-12.39a48.64,48.64,0,0,1,14.33-14.28c19.18-12.2,40-18.69,62.86-18.13,2.6.06,5.15,1.06,8.34.34-7.56-3.45-15.08-4.17-22.69-3.57C238.13,313.56,215.17,327.23,197.7,350.48Z" transform="translate(-140.54 -170.41)"/><path class="cls-1" d="M491.49,631.81a61.51,61.51,0,0,1,3.6-20.65c3.61-10.87,3.55-21.75.76-32.74a4.78,4.78,0,0,0-2.15-3c3.12,12.83-.19,24.8-4.46,36.68-2.89,8-4,16.2-1.17,24.5a20.71,20.71,0,0,0,5.34,8.88A76.88,76.88,0,0,1,491.49,631.81Z" transform="translate(-140.54 -170.41)"/><path class="cls-1" d="M500,623.85A196.12,196.12,0,0,0,502.22,602l-.69-13.34c-.69-1.46-1.24-3-2.54-4-.7.15-.59.59-.5,1,1.79,8.48.85,16.78-1.63,25-2.67,8.87-4.6,17.78-3.42,27.18,1.08,8.64,5,15.24,12.83,19.82-1.48-3-2.94-5.69-4.1-8.48C498.77,640.93,498.76,632.41,500,623.85Z" transform="translate(-140.54 -170.41)"/><path class="cls-1" d="M506,567.29a50.45,50.45,0,0,1-9-4c-8.14-4.64-14.09-11.16-17.14-20.15l0-.08c-1.34-2.65-.65-5.56-1-8.33a12.61,12.61,0,0,0,.78-5.55,7.71,7.71,0,0,0-1.64,4.38c-1.36,6.91-1.75,13.73,1.33,20.38a56.63,56.63,0,0,0,4,6.71l6.29,4.8a55.25,55.25,0,0,0,18.1,3.14C507.75,567.34,506.63,567.52,506,567.29Z" transform="translate(-140.54 -170.41)"/><path class="cls-1" d="M505.58,597.69l-.33-1.06c-.78-1.12-.22-2.93-2.13-3.78-.27,3.79.93,7.45.22,11.09.29,6.26-.66,12.43-1.56,18.59-1.57,10.83-1.28,21.4,4.18,31.29a32,32,0,0,0,7.8,9.6c1.24-1.58-.47-2.35-1.06-3.22-5.31-7.89-7.6-16.4-6.11-25.92a101.05,101.05,0,0,0,.07-30.47h0c-.44-2.22-.88-4.45-1.31-6.67A2.21,2.21,0,0,0,505.58,597.69Z" transform="translate(-140.54 -170.41)"/><path class="cls-1" d="M493.12,583c.48-2.73-.41-5.25-1.33-7.78a10.67,10.67,0,0,0,.21,5.9,28,28,0,0,1-4.24,14.15c-3.8,6.35-6.91,12.94-7.35,20.5a27.21,27.21,0,0,0,4.5,16.25c-1.4-9.67,2-18.4,4.94-27.18C492.27,597.78,493.83,590.58,493.12,583Z" transform="translate(-140.54 -170.41)"/><path class="cls-1" d="M582,580.21c-6.93,5.17-13.9,10.36-21.45,14.67a42.4,42.4,0,0,1-13.5,5c-6,2.62-12.28,2.46-18.59,1.92a54.48,54.48,0,0,1-11.16-2.29l-3.8-1.9-.5.79,3.72,2c10.22,7,21.08,8,32.58,3.59,6.55-2.49,13.19-4.77,19.79-7.14h0c6.13-3.41,12.11-7.07,17.88-11.08,9.12-6.35,19.32-9.72,30.26-11.08a59.14,59.14,0,0,0,7.37-1.26A43.87,43.87,0,0,0,607,571.14,45.25,45.25,0,0,0,582,580.21Z" transform="translate(-140.54 -170.41)"/><path class="cls-1" d="M591.84,452.49a48.06,48.06,0,0,1,11.68,17.1c4.84,10.12,5.42,20.85,4.74,31.8-.57,9.25-3.59,17.93-6,26.77-1,1.54-1.12,3.39-1.71,5.09h0l.89.55,1.81-5a176.78,176.78,0,0,0,7.74-21.9c3.79-14.44,1.73-28-4.55-41.51a61.21,61.21,0,0,0-24.09-27c-3.09-1.9-6.12-3.89-9.39-5.57,3.8,5.53,9.06,9.63,13.39,14.58C588.22,449.08,590.07,450.74,591.84,452.49Z" transform="translate(-140.54 -170.41)"/><path class="cls-1" d="M603,470.48c-.38-.66-.81-1.29-1.13-2a57.41,57.41,0,0,0-12.49-16.72c-.4-.38-1-1.81-1.38,0,6.82,11.42,13.67,22.81,13.42,36.83-.17,9-1.64,17.88-3.32,26.71a83.18,83.18,0,0,0-1.42,24.85c.37-.1.69-.11.71-.2,2.9-10.44,6.33-20.78,8.51-31.38A66.45,66.45,0,0,0,603,470.48Z" transform="translate(-140.54 -170.41)"/><path class="cls-1" d="M563.14,566.34c-11.61.45-23.09,2.29-34.66,3.14-1.94.14-3.87.77-5.84.18-10.15.71-20.26.82-30.22-1.79-.68-.18-1.49-1.15-2.15.08,5.47,6.4,9.29,13.9,14,20.82,11,12,24.92,13.21,39.82,11,14.14-2.94,25-12,36.16-20.14,8-5.82,16.49-9.42,26.33-9.91a17.17,17.17,0,0,0,2-.38c-2.45-1.65-4.94-1.39-7.21-1.71-6.5-.91-13.05-1.4-19.54-2.32C575.47,564.39,569.36,566.09,563.14,566.34Z" transform="translate(-140.54 -170.41)"/><path class="cls-1" d="M586.42,588A89.09,89.09,0,0,1,571.2,597h0c-8.3,4.3-17.26,6.89-26.12,9.68a30.26,30.26,0,0,1-25.34-3c-3-1.77-6-3.55-9-5.37-.81-.49-1.15-.47-1.12.07a4.32,4.32,0,0,0,.13.67c3.85,3.91,7.77,7.73,12.6,10.45a28.16,28.16,0,0,0,22.88,2.35c1.88-.57,3.81-1,5.72-1.47l.09,0c27.48-8.64,51.75-24.7,78.85-34.38-1-1-2.55-.68-3.83-.59C611.81,576.37,598.25,579.26,586.42,588Z" transform="translate(-140.54 -170.41)"/><path class="cls-1" d="M494.9,560.61c4.92,3.36,10.58,5.07,16,7.37l4.75.46h0c1.82.62,3.64.14,6.06.32a7.3,7.3,0,0,0-4.31-1.26c-15.08-3.93-26-12.7-31.88-27.37-3-7.47-1-14.67,1.43-21.82-2-.24-2,1.62-2.53,2.64a41.06,41.06,0,0,0-4.49,16.89C481.36,547.77,486.77,555.07,494.9,560.61Z" transform="translate(-140.54 -170.41)"/><path class="cls-1" d="M236.7,324.79c-9.12,4.32-18.3,8.6-25.39,16.08-5.22,5.5-9,12.1-13.45,18.22-2.86,3.94-6.37,6.9-11.5,8,2.13,3.14,4.9,4.42,8.44,3.8,6.47-1.14,11-5.17,14.6-10.34,4.55-6.45,8.17-13.49,12.91-19.82s10.47-12.06,17.6-16l4.53-2.25A13.47,13.47,0,0,0,236.7,324.79Z" transform="translate(-140.54 -170.41)"/><path class="cls-1" d="M586.15,450.23v0l.06.05Z" transform="translate(-140.54 -170.41)"/><path class="cls-1" d="M293.29,278.74c-.24-8.68-1.3-17.28-2.33-25.89a63.76,63.76,0,0,0-13-25.92c-5.38-6.57-12.28-10.84-20.2-13.58-3.62-1.25-7.31-2.32-11-3.47.08,1.28,1.28,1.31,2.05,1.74,5.9,3.35,11.84,6.63,17.43,10.49,11.3,7.8,18.53,18.08,19.85,32.08a188.73,188.73,0,0,0,3.87,24c.33,1.46.91,3,.23,4.49.22,2.39.44,4.79.67,7.18l.09.66q1.5,7.42,3,14.85c2.12,5,3.51,10.35,8.75,14.13-1.92-5-3.74-9.36-5.25-13.81C294.48,297,293.54,287.87,293.29,278.74Z" transform="translate(-140.54 -170.41)"/><path class="cls-1" d="M277.47,309.86a59.07,59.07,0,0,1,6.16.92c2.49.74,4.7,2.51,7.52,2-2.11-.95-3.91-2.59-6.3-2.95-8-3.24-16.26-2.49-24.5-1a6.36,6.36,0,0,1-2.56.35c-16.61,2.69-31.8,9-46.06,17.82a105.17,105.17,0,0,0-26.43,23.55,18.44,18.44,0,0,0-4.11,8.85,3.91,3.91,0,0,0,2.46,4.52c2.17,1,2.63-1,3.44-2.1,7.8-10.61,15.47-21.33,25.66-29.89C231.47,316.13,253,308.61,277.47,309.86Z" transform="translate(-140.54 -170.41)"/><path class="cls-1" d="M512.44,450.25c0,9.38-1.84,18.52-3.81,27.64s-3.86,18.47-6,27.66c-2.7,11.7,1.13,21.52,8.07,30.7,6.23,8.25,13.74,14.67,23.48,18.45,4.81,1.86,9.42,4.2,14.14,6.28a8.74,8.74,0,0,0,4.43,1c0-1.24-1.68-.89-1.85-1.93-4.6-1.77-8.32-4.9-12.22-7.77-6.1-3.77-10.94-9-15.88-14.07-6.8-7-8.89-15.69-9.82-24.79a7.75,7.75,0,0,1-.11-1.08l-.18-2.13h0a44.87,44.87,0,0,1-.49-4.87c.07-12.17,1.62-24.24,3.19-36.27,2-14.89,1.93-29.5-3.91-43.6-2.15-5.2-4.56-10.34-8.33-14.65-.73.71-.31,1.41,0,2.08,3.49,6.73,5.67,14,7.64,21.22A43.68,43.68,0,0,1,512.44,450.25Z" transform="translate(-140.54 -170.41)"/><path class="cls-1" d="M553.94,565.17l-1.14,0A3.17,3.17,0,0,0,553.94,565.17Z" transform="translate(-140.54 -170.41)"/><path class="cls-1" d="M245.59,310.21c.74-.18,1.5-.26,2.26-.39h0l1.69-.45c-.67-1.25-1.92-.82-3-1-16-2.31-30,2.53-43.09,11.43-8.93,6.09-15.86,14.1-22.64,22.32-3.42,4.13-6.91,8.23-11.69,10.93-1.11,1.46,0,2.21,1,2.81,2.85,1.71,5.87,2.8,9.27,1.95,5.23-12.48,15.27-20.83,25.72-28.39C217.38,320.62,230.74,313.7,245.59,310.21Z" transform="translate(-140.54 -170.41)"/><path class="cls-1" d="M503.61,409.44c.93.55,1.26,1.8,2.42,2.09l3.46,4.19a42.5,42.5,0,0,1,9.28,12.94c3.65,6.53,4.31,13.77,4.77,21a177.28,177.28,0,0,1-1.92,41.62c-3.06,17.57,1.48,32.88,11.77,47,5,6.88,10.4,13.22,17.22,18.39,6.52,4.94,13.87,6.58,21.81,6.47,0-.21,0-.39.05-.55a.09.09,0,0,1,0-.05,21,21,0,0,0-2.24-1,51.56,51.56,0,0,1-27.84-21c-10-14.72-13.37-31.33-12.34-48.86.63-10.82,2.39-21.61.31-32.45-1.34-5.29-2.7-10.58-4-15.88-2.92-11.72-8.37-22-17.12-30.44-.83-.81-1.94-1.44-2.27-2.7a2.24,2.24,0,0,1-.58,0,12.72,12.72,0,0,0-2.24-1.68C503.1,408.15,503.73,409.11,503.61,409.44Z" transform="translate(-140.54 -170.41)"/><path class="cls-1" d="M510.11,551.14c9.9,7.8,22.12,10.73,34.64,11.84a12.7,12.7,0,0,0,2.61-.5c-5.23-2.43-9.75-4.8-14.47-6.68-14.42-5.76-23.57-16.71-30.23-30.18-3.36-6.78-2.86-13.89-1.43-20.95,2.58-12.79,5.53-25.5,8.09-38.3.86-4.32,2.12-8.64,1.68-13.15.14-1.65.29-3.29.43-4.94-.4-2.37-.16-4.85-1.37-7.79-.11,2-.18,3.35-.26,4.71,0,2,.07,4.05.1,6.07.23,2.57-.49,5-.75,7.55-1.35,5-2.55,10.09-4.07,15.06-3.15,10.28-6.76,20.41-9.65,30.76C490.23,523.22,495,539.24,510.11,551.14Z" transform="translate(-140.54 -170.41)"/><path class="cls-1" d="M493.21,550.88c7.62,9,17.21,14.74,29.09,16.25,1,.12,1.9.38,2.85.58,9.25.09,18.32-1.58,27.46-2.59l1.73-1a30,30,0,0,0-8.51.1,10,10,0,0,1-3.27.14c-18.84-3.23-36.51-8.55-46-27.42-4.29-8.54-6-17.54-3.55-27a5.75,5.75,0,0,0,0-1.6c-.55-.33-.88.08-1,.45-3,7.52-6.13,15.05-6.33,23.29C485.46,539.37,488.68,545.5,493.21,550.88Z" transform="translate(-140.54 -170.41)"/><path class="cls-1" d="M543.48,552.73a102.36,102.36,0,0,1-16-20.7c-7.59-12.5-9.73-26-7.51-40.42,2.5-16.27,3.41-32.66,1.53-49.1a44.77,44.77,0,0,0-3.2-12.36c-1.43-2.26-2.72-4.61-4.33-6.72-1.07-1.41-1.48-3.6-3.78-3.82,1.69,1.71,2.47,4,3.24,6.11,5.14,14.45,5.52,29.21,3.64,44.36s-4.62,30.12-2.58,45.42c.37,1.59.78,3.18,1.1,4.78,1.47,7.21,4.41,13.54,9.8,18.81,4.44,4.35,9.11,8.41,13.75,12.52l4,2.52c2,2.72,5.66,3.26,7.74,5.88.75-.25,1.06-.51.21-1.16C548.57,556.84,546,554.78,543.48,552.73Z" transform="translate(-140.54 -170.41)"/><path class="cls-1" d="M507,410.18l1.43.38c10.41,9.28,16.63,21,19.77,34.43.7,3,1.49,5.93,2.24,8.9,3,10.65,2.81,21.45,1.56,32.33-1.9,16.63.05,32.68,7.94,47.67,6.55,12.46,16.36,21.3,29.69,26.1a4.24,4.24,0,0,0,3.48.21c-16.32-9.1-28.88-21.2-32.22-40.58a64.46,64.46,0,0,1-.43-15.7c.53-7.23,1.44-14.43,2.19-21.64a1.36,1.36,0,0,0,0-.2c-.11-11.43.64-23.18-4.05-33.83C532,433.12,522.8,419.55,509,409.73c-1-1.28-2.55-1.79-3.89-2.58C504.91,408.68,507.1,408.71,507,410.18Z" transform="translate(-140.54 -170.41)"/><path class="cls-1" d="M213.75,228.7a143.6,143.6,0,0,1,35.91,25.88c7,6.91,10.81,15.64,14.9,24.25,3.39,7.14,6.76,14.29,12.07,20.28a24.35,24.35,0,0,0,7.17,5.7c.61-.6,0-1-.29-1.35-6.92-8.06-11.82-17.33-16.41-26.83-5.7-11.78-12.14-23.25-21.78-32.26-11.08-10.37-24.53-17.23-38.41-23.09-6.15-2.6-12.9-3.32-19.35-5-6.45-.77-12.52.11-17.91,4a118.49,118.49,0,0,1,15.75-.57C195.63,220.36,204.82,224.11,213.75,228.7Z" transform="translate(-140.54 -170.41)"/><path class="cls-1" d="M418.34,174c-12.35.06-21.79,5.76-29.26,15.18-3.94,5-7.73,10.08-11.59,15.12-11.81,21.4-14.6,44.49-13.45,68.52.58,12.13,2.61,23.74,7.68,34.78.52,1.13,1.11,2.23,1.68,3.34l.75-.26c-.69-3.47-1.31-6.94-2.08-10.39a41,41,0,0,1-1-12.09c.7-9.31.43-18.62.23-27.95-.44-20.19,4.78-39.07,14.07-56.9a75.78,75.78,0,0,1,11.18-16.58c7.17-7.76,16.11-11.37,26.61-11.35L418.35,174Z" transform="translate(-140.54 -170.41)"/><path class="cls-1" d="M365.68,295.91c-.45-1.07-.92-2.21-1.48-3.57-.65,3.61.4,6.64.87,9.72.14,1,1.05,2.13-.58,2.74a12.39,12.39,0,0,0,1.82,6.6,23.13,23.13,0,0,0,9.5,14c2.37,3.42,6.5,4.68,9.42,7.58-.09-1.74-1.14-3-2.13-4.27-7.49-9.55-13.49-19.89-16.92-31.61A4.07,4.07,0,0,1,365.68,295.91Zm.73,12.91-.18-.3a1.53,1.53,0,0,1,0-.37C366.27,308.38,366.34,308.6,366.41,308.82Z" transform="translate(-140.54 -170.41)"/><path class="cls-1" d="M372.67,284.36c-1.16,11,1.85,21.36,4.29,31.81.87,3.74,3.45,6.65,6.24,9.31-1.94-8.91-4.06-17.73-5.09-26.75-1.53-11.72-1.8-23.55-2.73-35.32-.72-9,1.34-17.88,1.23-26.86,0-1.12.5-2.4-.8-3.21a110.26,110.26,0,0,0-2.9,32.94A105,105,0,0,1,372.67,284.36Z" transform="translate(-140.54 -170.41)"/><path class="cls-1" d="M373,351.69c-8-1.23-15.33-5-23.45-5.66-5-.41-9.93-1-14.58-3l-1,.69c12.14,6,25.12,8.27,38.52,8.67a5.22,5.22,0,0,0,.54-.38A.37.37,0,0,0,373,351.69Z" transform="translate(-140.54 -170.41)"/><path class="cls-1" d="M392.91,349.45c1.52,1.13,2.71,2.81,5.33,3.05-2.29-3.07-5-5.11-7.58-7.32C390.18,347.25,392.55,347.82,392.91,349.45Z" transform="translate(-140.54 -170.41)"/><path class="cls-1" d="M390.6,351.23l-2.3-.91c-7.86-1.27-15.34-4.3-23.29-5.15-3.37-.36-6.71-1.05-10.12-.91a3.21,3.21,0,0,0-1.22-.07l-6.94-.37c-.09.31-1.37.5-.43.72a50.77,50.77,0,0,0,6.77.72c9.23,2.05,18.13,5.5,27.59,6.58.72,0,1.46-.22,2.11.27l6.52.23,5.79,1.24A8.46,8.46,0,0,0,390.6,351.23Z" transform="translate(-140.54 -170.41)"/><path class="cls-1" d="M328.32,310.11a58,58,0,0,1-21.13-26.19c-.55-2.74-1.09-5.48-1.64-8.21l-.89.12a8.17,8.17,0,0,0-.09,4.6c-.33,14.78,7.69,25,18.24,34,9.77,8.34,21.47,11.47,33.71,13.45,8.55,1.39,17.14,2.7,24.3,8.26,3.37,2.61,6.89,5,10.35,7.56h0c.84,1.16,2.08,1.78,3.65,2.82a7,7,0,0,0-2.66-3.53c-6.17-7.94-14.07-13-23.82-15.8C354.36,323.14,340.5,318.57,328.32,310.11Z" transform="translate(-140.54 -170.41)"/><path class="cls-3" d="M366.41,308.82c-.07-.22-.14-.44-.2-.67a1.53,1.53,0,0,0,0,.37Z" transform="translate(-140.54 -170.41)"/><path class="cls-3" d="M192.45,373.48l0,0,1.21.28h0A1.34,1.34,0,0,0,192.45,373.48Z" transform="translate(-140.54 -170.41)"/><path class="cls-3" d="M426,174.14l-2.08-.81c.14.16.28.32.41.49a.27.27,0,0,1-.05.11,2,2,0,0,1-.2.28L419.36,173l-1.11.27c-2.65-.92-5.28.83-7.93.06-1.61-2-3.94.17-5.7-1a11.07,11.07,0,0,1-4.92-.87l-6.79-.66c-.6.43-1.2.19-1.81.05l-.08,0-.74-.25h0c-1.85-.53-3.52.61-5.32.55-6.77,2.39-13.56,4.72-20.3,7.18-7.64,2.79-14.64,6.63-20.12,12.81-8.47,4.4-14.37,11.57-20.24,18.77-1,1.24-1.73,2.85-3.69,2.88-1.21-.1-.89,1.32-1.65,1.67-4.13,2.63-6.21,6.89-8.43,11A29.32,29.32,0,0,0,307,235.56a23.46,23.46,0,0,0-1.6,9.32c.39,7.62-.86,15.11-1.42,22.65-.46,6.3-1,12.58-1,18.92a74.13,74.13,0,0,0,6,29.33c-.53,4.05,1.6,7.09,3.86,10.07,5.51,7.31,11.06,14.47,19.64,18.68,14.48,7.11,29.77,9.82,45.77,9.24,7.15.13,14.33.1,21.2,2.57-.66,1.54-2.07.86-3.1.88-3.79.08-7.59,0-11.39-.07-9.94-1.23-19.95-1.45-29.86-3.38a97,97,0,0,1-30.16-11.6,43.07,43.07,0,0,0-6.54-5.28c-1.85-1.86-3.61-3.81-5.55-5.56-7.19-6.45-9.71-15.44-13-24-4.63-12.09-4.73-24.89-5.33-37.59a30.23,30.23,0,0,0-.88-7.15,8.34,8.34,0,0,0,0-1,34.08,34.08,0,0,0-1-7.08c-.09-.43-.17-.86-.25-1.29-.9-8.21-4.59-15.33-9.15-21.93-10.63-15.39-24.54-26.86-42.1-33.55-10.53-4-21.56-3-32.51-2.57-8.91.39-17.39,2.29-25,7.16-3.12,2-6.63,3.55-7.73,7.79-.65,2.52-3,3.88-5.26,5.15-1,.55-2.42,1-1.52,2.65a51.38,51.38,0,0,0-9.92,11.29,3.78,3.78,0,0,0-1.62,2.34c-1.49,2.91-5.09,5-3.41,9.17.15.38-.58,1.11-.91,1.68-3.12,5.4-5.35,11.3-9.54,16.12a10.37,10.37,0,0,0-2.1,11c-.85,1.72-1.74,3.39-.28,5.3.88,1.15-.2,2.15-.57,3.19.57,4.32.88,8.72,1.58,13,.54,3.32.51,6.6.91,9.87.47,3.83,2.41,5.2,5.83,3.59,19-8.92,38.58-9.07,58.59-4.81,1.07.23,2.15.42,3.24.6.9.14,1.82.26,3.42.49a.71.71,0,0,1,0,.15s0,.06,0,.1c-4.83,1.2-9,1-13,1-14.67,0-28.18,3.63-40.3,12.11a25,25,0,0,1-7.31,3.72c-2.61.76-4.45,0-5.66-2.5a21,21,0,0,1-1.47-4.68c-.35-1.58.61-3.23-.57-5.36-1.68,3.77-1,6.93.35,10a55.37,55.37,0,0,1,2.18,6.35c1.15,3.77.89,8.36,4.38,11.27-1.1,2.8.93,4.19,2.77,5.38a13.34,13.34,0,0,1,4.62,5.85c.52,1.05-.16,1.85-.5,2.74.28,4.24,2.77,6.48,6.72,7.39l4.23,3.71c2.52.54,4.86,2.19,7.62,1.26,1.43,2.83,3.89,4.93,5.56,7.55,3.1,4.88,8.08,6.9,13.59,5.1a23.9,23.9,0,0,0,10.12-6.54,60,60,0,0,0,6.66-9.39c4.75-7.52,9.18-15.24,15.46-21.68,6.91-7.08,15.37-11.34,24.79-14.28-.1,1.25-1,1.5-1.55,1.89a67,67,0,0,0-23.36,28.35,57.64,57.64,0,0,1-8.63,14c-3.53,3.11-7.15,6.07-11.49,8.05-4.68,2.14-9.43,2.31-15.13.48,6.32,5.47,20.2,1,27.61-7.93a33.33,33.33,0,0,0,6.15-8.42c3.61-6.34,5.91-13.43,11-18.91,13.33-17.8,28.63-24.08,49.13-20.56,1.58.28,3.12,1,4.8.63,1.42.53,2.88,1,4.27,1.6,4.06,1.77,5.23,5.63,2.95,9.42-5.55,9.22-13.46,16.16-22.06,22.28-7.48,5.33-14.42,11-19.26,19-8.29,13.69-8,23.2,1.1,36.26,3.56,5.09,7.52,9.68,12.8,13,7.1,6.59,15.86,7.79,25,7.67,8.53-.11,17,.13,25.56.49h0c5.72,1.72,9.88,5.68,13.94,9.77,1.74,1.76,3,4,5.3,5.22,5.52,9.84,14.59,11.24,23.1,4.12,3.4-2.85,7.49-4.88,10.27-8.52.48-.63,1-.58,1.73-.23a2.93,2.93,0,0,0,2.57,0c5.34-2.39,11.58-3.31,14.8-9.18,1-1.83,3.61-.8,4.84-2.38l3.63-2c.68.4,1,1.47,2.15,1,8.25-3.52,16-.18,23.6,2.22,5,1.57,9.72,2.35,14.65.27,4.62-1.17,7.09-4.91,9.68-8.36a101.84,101.84,0,0,0,10.61-17.95c1.66-2.68,2-5.71,2.26-8.74.11-1.43.53-1.81,1.76-1a48.48,48.48,0,0,0,13.43,5.83c.3.09.48.63.72,1,2.13,2.55,5.23,3.79,7.8,5.76a37,37,0,0,1,10.63,12.27c4.64,8.88,8.74,17.87,8.17,28.23a1.05,1.05,0,0,0,0,.38q-.59,6.44-1.15,12.86c-2.64,14.27-8.21,27.58-13.43,41-.51,1.32-.92,2.67-1.38,4-2.1,3.34-2.81,7.38-5.2,10.58-7.38,9.08-13.24,18.77-12.37,31.11.46,6.49,2.52,12.35,7.17,17.11a9.49,9.49,0,0,0,1.22,1.9c8,7.74,7.29,17,4.54,26.52-.78,2.68-2.47,5.13-3.94,7.57-8.3,13.83-7.25,27.39,1.25,40.63a81.38,81.38,0,0,0,39.15,32.36c1.71.68,3.61,2.77,5.59-.24-4.19-.31-6-3.46-7.92-6.51-5.07-7.93-7.69-16.44-6.45-25.93a28.79,28.79,0,0,0,.07-2.94c0-.23,0-.45.07-.68.75-7.11-1.53-13.82-3.08-21,1.56,1,1.66,2.46,2.25,3.59s1.21,2.55,1.81,3.83c3.38,5.86,3.54,12.3,3.43,18.8a40,40,0,0,0,9,26.82c.78,1,1.27,2.35,4,2.4-11.44-11.23-12.24-25-11.91-39.48a.73.73,0,0,1,.2,0l1.72,3.5c2,8.72,2.87,17.76,7.21,25.84a15.45,15.45,0,0,0,5.2,5.8c.47.3,1,.57,1.41-.09s-.14-.74-.47-1c-4.86-3.36-6.66-8.56-8.11-13.87-1-3.64-1.52-7.4-2.32-11.39a26.23,26.23,0,0,1,4.2,7.35c1.87,4.32,3.73,8.65,6.5,12.5a30.37,30.37,0,0,0,2.33,2.74c.42.47.95,1.12,1.63.49s0-1.1-.44-1.55c-5.17-5.2-7-12.31-10.52-18.45-.48-.83.27-.79.77-.86,4.5,3.92,7.22,9.38,11.56,13.45a10.76,10.76,0,0,0,4.9,3c-1.3-2.31-3.32-3-4-5l.14-.15c2.51-.18,4.35,2.51,7.48,1.23-3.34-1.56-6.3-2.74-9.24-5.05a.11.11,0,0,0,0-.06c4.57,0,8.17,3.55,13.15,1.82-2.12-.88-3.78-.51-5.13-1.72,2.85-1.45,6.35.07,9.53-2.48-7.91,0-15.73,3.3-22.17-3.74,9.82,1.49,19.2,1,28.33-2.27-5.14.56-10.26,1.21-15.41,1.65-4.51.39-9-.31-13.43-.91a12,12,0,0,1-6.33-3.27c.52-1-3.46-1.24-.47-2.69,7.67,3.56,15.88,4,24.11,3.86,4.49-.05,9-.66,13.45-1,1.09-.1,2.23-.19,2.72-1.76-8.74,1-17.36,1.87-26.06,1a60.52,60.52,0,0,1-15.93-3.86,11.14,11.14,0,0,1-6.59-7.06c8.85,5.82,18.8,7.28,29,7.66s20-.29,29-5.44c-5.21,1.41-10.42,3-15.85,3.51-12.23,1.06-24.34.88-35.85-4.21a23.77,23.77,0,0,1-10.48-8.21c0-1.14.35-1.3,1.29-.68,16.34,10.85,34,9.53,52,5.73,13.72-2.91,24.73-10.84,35.46-19.26a2.51,2.51,0,0,0,1.39-2.16c-1.7,1.2-3.06,2.2-4.47,3.16-8,5.42-15.72,11.35-24.8,14.71a80.21,80.21,0,0,1-47.23,2.58c-4.89-1.16-9.08-3.82-13.06-6.77a7.92,7.92,0,0,1-3.27-4.29c.5.12.8.1,1,.24,8.81,7.15,18.93,9.63,30.13,8.91,13.2-.85,25.67-4.47,37.81-9.44a20.41,20.41,0,0,0,2.8-1.66c6.09-2.84,11.18-7.24,16.82-10.8A92.88,92.88,0,0,1,623,588.85a5.21,5.21,0,0,0,3.09-2.57,70,70,0,0,0-21.18,9.58q-10,6.6-20,13.22c-8.78,3.72-17.71,7.06-27.14,8.65-9.83,1.66-19.74,3-29.49-.65-7.21-2.7-13.65-6.4-17.54-13.44a1,1,0,0,0-1-.64c1.29,6,2.54,12,3.87,18a101.79,101.79,0,0,1,1.5,12c-1.92,11.87.09,22.87,7.12,32.8.46.65,1.4,1.17.92,2.3-2.84-.58-4.82-2.44-6.7-4.46-.87-1.38-1.69-2.8-2.62-4.14-5.31-7.68-7-16.12-5.75-25.34a88,88,0,0,0,.17-25.88c.3-1.83-.27-3.58-.49-5.36-.14-1.06.33-1,1-.77l.93.6c1.32-.85,1.87.25,2.64,1,7.13,6.8,15.11,11.8,25.45,11.06,6.27-.45,12.22-2.45,18.09-4.6h0c8.77-2.26,16.82-6.28,25-10.12,14-6.6,27.95-13.24,42-19.7,3.86-1.77,7.92-3.28,12.38-2.5,1.62.28,2.08-1.18,3.46-2.28-7.83-1.91-14.85-5.16-22.57-5.7-3.17-.23-5.33-1.9-7.48-4.11a44.84,44.84,0,0,1-8.25-10.94c-2.69-4.77-1.51-9.49.22-14.18q5.34-14.46,10.7-28.9c.64-1.87.28-4,1.48-5.73,5.2-26.46-3.57-47.81-23.93-64.79-3.35-2.8-7.26-4.92-10.92-7.35-1.28-.85-2.58-1.66-3.83-2.56-.38-.28-.53-.74.27-.64a2.45,2.45,0,0,1,.61.25l.5-.79L569,427.22c-5.79-3.54-12-6.54-17.24-10.78s-11-7.12-16.83-10.05c-10.29-5.17-21.34-7.12-32.76-7.32a53.1,53.1,0,0,1-16.91-4.1c-7-3.67-12.64-9.16-18.35-14.51a19.91,19.91,0,0,1-2.37-3.12c-5-10.22-13.72-15.31-24.38-17.72-8.76-2-17.55-3.82-26.61-3.73a31.89,31.89,0,0,0-7.77,1.23c-2.18-.43-3.05-2.26-4.17-3.84-1.84-2.58-3.7-5.15-5.55-7.72-.71-2.55-4.06-3.14-4.43-5.94-1.07-1.9-2.22-3.75-3.19-5.7-4.75-9.47-6.44-19.83-8.6-30.06h0c-1-12.85-2.09-25.69-3.05-38.55a102.42,102.42,0,0,1,.52-17.68c.56-5.77.88-11.55-.16-17.31a32.74,32.74,0,0,1,1.28-6.39,111.85,111.85,0,0,1,19.18-36.57c7.61-7.43,16.8-10.88,27.36-10.85l.43.42a1.93,1.93,0,0,1-.52.32,50,50,0,0,0-25.29,15.16c-10.76,11.82-15.84,26.54-17.43,42.1-1.13,10.94-.25,22.08-.26,33.13-.49,5.57,0,11.13.25,16.68.8,18.18,2.86,36.15,9.73,53.23l0,.05h0l0-.06c.6-.65.14-1.43.24-2.14-7.21-20.63-9.3-42-9-63.66,0-.54-.08-1.08-.12-1.61.56-9.76.22-19.52.3-29.28a74.71,74.71,0,0,1,15.84-45.5c5.67-7.44,13.78-12.17,22.26-16,3.2-1.44,6,0,8.66,1.68l1.14-.63Zm-238.71,28c9.63-5.34,20.23-5,30.77-5.55,12.47-.62,24,2,34.51,8.67,3.7,2.34,7.29,4.86,10.93,7.3-.22.34-.43.68-.64,1-25.34-8.85-50.77-17-78.16-9.64C185.26,202.85,186.41,202.65,187.32,202.14Zm1.85,2.43c18-3.77,35.51-1.72,52.71,4.29,8,4.73,16.17,9.22,23.92,14.43,12.74,8.56,18.95,20.58,19.5,35.76.06,1.65-.65.29-1,.37-4.74-20.83-17.73-34.66-36.65-43.68-6.42-3.05-13.22-4.64-19.95-6.56-14.63-4.18-29.3-5.32-44-.27-1.8.62-3.46,1.79-5.57,1.74A20.06,20.06,0,0,1,189.17,204.57Zm60.48,37.48c9.25,5.94,15.48,14.35,19.71,24.41,4.16,9.9,8.52,19.71,12.84,29.54.42.94.54,2.16,1.71,2.66l1.2,3c-1.86.5-2.5-1-3.28-2.1a131.24,131.24,0,0,1-12.68-21.83A140.65,140.65,0,0,0,249.75,247a42.84,42.84,0,0,0-10-9c-13-8.27-25.76-17.13-41.17-20.61a11.29,11.29,0,0,1-5.11-1.49l.57,0h.06a12.66,12.66,0,0,1,5.67.56l4.09.62C220.35,223.17,235,232.64,249.65,242.05Zm-9.38-7.32h0c1.75-.52,1.75-.52,5.12,1.59l4.35,1.82c8.92,5.27,17.17,11.25,22.7,20.34a89.38,89.38,0,0,1,8.27,18l0,.13,2.64,13.19c0,.13,0,.27,0,.41,0,1.33.05,2.74.09,5-2.78-6.32-5.16-11.81-7.61-17.26-2.88-6.37-5.67-12.79-8.79-19.05-4.87-9.78-13.3-16-22.29-21.63h0Zm45.4,62.16c-.05-.2-.09-.4-.14-.6-1.15-7.84-1.95-15.74-4.75-23.24-3.92-12.26-10.68-22.52-21.24-30.06a46.44,46.44,0,0,0-9.28-5.57c-4.72-2.86-9.87-4.82-14.87-7.11-8.73-4.52-17.37-9.21-26.48-12.93-1.4-.57-2.75-1.4-4.37-1.21a37.94,37.94,0,0,0-14-1.74l-7.15-.09c1-1.27,2.52-1.22,3.86-1.52a59.2,59.2,0,0,1,28.64,1.07c15.58,4.21,28.05,14,41.1,22.92,12.54,8.56,19.74,20.44,24.92,34.15,3.11,8.25,5,16.77,6.94,25.32v0c.39,4.3,1.75,8.39,2.92,12.55C288.27,305.58,287.47,301,285.67,296.89ZM180.13,213.14a4.58,4.58,0,0,1-3.38.08c14.18-6,28-8.34,42.38-3.63,9.67,6,20.1,10.61,30.18,15.87,8.32,4.34,14.83,10.7,20.31,18.22,1.22,1.37,2.82,2.56,2.38,4.77-.7-1.3-2.2-2-2.64-3.49-9.23-8.34-19.45-15.36-29.93-22C221.1,211.47,201.54,206.53,180.13,213.14Zm95.58,40.73c.05-3.76-2.17-6.56-4-9.48-8.17-12.69-20.35-20.2-33.77-26.1A149,149,0,0,1,224,211c-.62-.36-1.76-.38-1.46-1.62,4.54,1.25,9.11,2.42,13.62,3.77,14.34,4.27,26.76,11.55,35.93,23.64,10,13.13,12.52,29,15.86,44.49a10.8,10.8,0,0,1-.07,2C284.38,272.75,281,262.91,275.71,253.87Zm-88.15-37.56c6.45,1.65,13.2,2.37,19.35,5,13.88,5.86,27.33,12.72,38.41,23.09,9.64,9,16.08,20.48,21.78,32.26,4.59,9.5,9.49,18.77,16.41,26.83.31.36.9.75.29,1.35a24.35,24.35,0,0,1-7.17-5.7c-5.31-6-8.68-13.14-12.07-20.28-4.09-8.61-7.93-17.34-14.9-24.25a143.6,143.6,0,0,0-35.91-25.88c-8.93-4.59-18.12-8.34-28.35-8.93a118.49,118.49,0,0,0-15.75.57C175,216.42,181.11,215.54,187.56,216.31Zm-27.31,13.6c3.33-5.35,8.24-7.8,14.45-8.33,9.44-.8,18.68,0,27.44,3.6A141.65,141.65,0,0,1,237,245.43c10.06,8,18.71,17.05,23.83,29.21,4.09,9.72,8.5,19.38,15.93,27.39-2.71.74-3.58-1.63-5.26-2.37A52,52,0,0,1,260,279.22c-2.72-9.08-7.86-16.54-14.72-23A152,152,0,0,0,209.6,231.8c-15.9-8-32-9.42-48.3-1.21C160.56,231,160.37,230.5,160.25,229.91Zm13.49,4.54c-3.05.3-6.06,1.41-9.19.6,4.26-1.26,8.52-2.52,13-2.08,8.23-.15,16.11,1.78,23.74,4.5,22.88,8.16,42.6,20.44,54.37,42.8,3.16,6,6.08,12.14,10.06,17.94-1.75.15-2.47-1.14-3.64-1.35-7.78-7.52-13.76-16.48-20.09-25.15-16.89-23.16-39.54-35.67-68.17-37.25,0,0-.05-.07-.06-.1Zm-18,4.28c.55-2.59,2.39-3.79,3.68-5.38,12.74-7.62,26.34-9.13,40.16-4.18,18.24,6.53,33.93,17.32,47.71,30.89,6.2,6.11,9.75,13.7,12.3,21.85.3.94.56,1.91-.94.83C255,275.36,251,268.12,245,262.32c-16.38-15.78-35.6-26.16-58.1-30.19-7.69-1.37-15.33-1.47-22.64,1.63C161.35,235,158.73,237,155.72,238.73Zm4.05-.09c15.34-5.95,29.74-1.39,44.14,3.82,12.92,4.67,22.72,13.49,31.76,23.36,1,1.09,2.37,2,2.78,3.55L255.79,292h0c1.32,1.26,3.12,2.13,3.44,4.21-1.4-1-3.16-1.66-3.93-3.42a24,24,0,0,1-5.43-5.16c-4.39-5.32-7.75-11.35-11.82-16.9-3.07-2.91-6.11-5.84-9.2-8.71-9.89-9.21-22.11-14-34.63-18.2-14.48-4.82-28.07-2.58-40.76,5.71-.65.42-1.17.84-2.05.45C153,245.33,155.41,241.27,159.77,238.64Zm93.92,56.91c-7-3.7-12.93-8.56-17-15.49-3-5.15-6.12-10.27-9.18-15.4-1.53-1.49-3.77-2.45-3.81-5.07l4.24,3.7a73.78,73.78,0,0,1,12.95,14.22c4.35,6.54,8.51,13.19,15,17.93C255.26,297.22,254.25,295.85,253.69,295.55ZM144.38,262.62l-.66,0c.13-2.88,2-4.87,3.92-6.55,12.33-10.92,26.43-16,42.8-11.49a100.77,100.77,0,0,1,26.28,11c7.58,6.1,12.89,13.94,17.31,22.48a45.65,45.65,0,0,0,6.72,9.64l5,4.35-.52.74c-1.65-1.16-3.62-1.91-4.76-3.72-4.93-3.5-8.2-8.51-11.76-13.2A82.62,82.62,0,0,0,214.3,261c-19.17-15.21-47.57-13.16-64.28-2.91A33.13,33.13,0,0,0,144.38,262.62Zm2.8-.55c25-17.38,57-13.06,76.57,10.31.85,1,1.69,2,2.48,3.07,5.37,7.08,10.73,14.16,18.54,18.83l2.1,1c.12,1.19,2.58.48,1.9,2.32-1.49-.94-3.36-1.1-4.68-2.36-2.93-2.28-6.55-3.45-9.4-5.87-4.1-3.48-8.31-6.83-12.43-10.28-8.09-6.8-16.28-13.76-26.56-16.75-15.81-4.59-31.86-6.3-47.68.43C146.91,263.23,147,262.84,147.18,262.07Zm-4.86,11.28c-1-.79.17-2,.17-3.09v0c3-3.64,6.29-7.05,11.16-8.13,15.84-3.51,31.39-2.84,46.42,3.65,10.54,4.55,18.65,12.6,27.55,19.51,1.29,1,3.1,1.65,3.43,2.82l-4.65-2.88-.55-.35c-4.75-2.92-9.63-5.93-14.42-9.09-5-3.29-10.06-6.28-16-7.43-17.11-3.33-33.84-2.44-50,4.48C144.43,273.23,143.19,274.06,142.32,273.35Zm.54,8.89a5.7,5.7,0,0,1,3-8.05,79.24,79.24,0,0,1,31.75-6.14c13.18.07,25.4,2.51,36,11.12,6.2,5,13,9.29,19.58,13.9,5.71,2.69,11.13,6,17.35,7.57.5.19,1.07.63,1.48.51,3.54-1,6.52,1,9.67,1.83,1.54.41-.13.55-.27.84A61.91,61.91,0,0,1,241.11,299l-9-4.92c-6.54-2.72-12-7.27-18.05-10.78-10.24-5.91-20.84-10.34-33.1-8.4a155.8,155.8,0,0,0-23.39,5.39c-3.65,1.18-7.34,2.24-11,3.26C145.07,284,143.69,283.87,142.86,282.24Zm.51,5.31c-.08-1.84.34-2.34,2.24-2.48a29.57,29.57,0,0,0,6.68-1.61,183.16,183.16,0,0,1,22.54-6c8.38-1.54,16.76-2.47,25,.72a89.48,89.48,0,0,1,19.19,10,92.5,92.5,0,0,0,13,7.6c2,.93,4.39,1.38,5.7,3.48-3.38.3-6-2.28-9.3-2.35-4.85-2-9.68-4.09-14.55-6a73.17,73.17,0,0,0-27.26-5.19,108.22,108.22,0,0,0-36.39,6.49C144.22,294.26,143.63,293.63,143.37,287.55Zm63,10.2c-19.23-3.92-38.1-3.56-56.38,4.6-4.57,2-5.36,1.32-5.41-3.86,0-.77,0-1.54,0-2.3s.18-1.43,1.23-1.57c7.32-1,14-4.32,21.27-5.62,17.7-3.17,34.89-2.46,51.37,5.55,2.82,1.37,5.67,2.78,8.86,3.17l2.34.92c-.09,1.34-1.32.7-1.94,1.13l-1.14.07C219.8,299.42,213,299.11,206.36,297.75Zm-56.51,22.72c.13-.72.67-.78,1.24-.74,4,.22,7.21-1.9,10.24-4A68.57,68.57,0,0,1,201,303.71c5.41,0,10.83-.35,16.24-.54,0,.15,0,.29,0,.43-2.45.48-4.9,1-7.36,1.45-14.44,2.54-28.59,5.74-40.75,14.75-3.32,2.46-7.53,3.53-11.67,4.29-2.3.42-4.59.47-6.62-1A2.47,2.47,0,0,1,149.85,320.47ZM153,332.84l-.05.07,0-.08h0c.43-.53,1.38-.86.74-1.78-1-1.4-2.86-2.72-1.8-4.54s3.16-.34,4.78-.56c3.2-.44,6.13-1.87,10.25-2.67-3.21,3.3-5.63,6.1-8.38,8.5C157.09,333.06,155.18,334.43,153,332.84Zm1.84,2.09c4.06-.64,6.6-3.36,9.07-6.19,9.59-11.05,21.9-17.26,36.06-20.12,7.74-1.56,15.49-3.06,23.23-4.59l.21.11.17-.16a5.54,5.54,0,0,0,.91,0,55.86,55.86,0,0,0,6.57-.81c9.8-.23,19.25,2.39,28.92,3.23-2.32,1.23-4.78.6-7.13,1-1.95-.22-3.92-.33-5.84-.69-7.69-1.45-15.44.4-23.2-.53-4-.47-8.17,1.32-12.28,2-13.74,2.43-25.63,8.16-34.54,19.25-2.89,3.59-5.75,7.25-9.52,10C161,342.12,159.58,340.28,154.81,334.93Zm5.1,6.25c3.61.75,5.9-.49,8.05-2.07a34.94,34.94,0,0,0,6.63-6.34A109.36,109.36,0,0,1,184.65,322c6.47-6.15,14.34-9.24,23.1-10.51L203.66,314C195.8,318.09,189.57,324,184.13,331c-3.81,4.88-7.92,9.63-13.8,12.27C166.9,344,163.3,345.75,159.91,341.18Zm1.76,7c-.19-1.48-.23-2.89,2.14-2.52a12.27,12.27,0,0,0,8.15-1.84c5.07-1.68,8.32-5.76,11.32-9.63a76.29,76.29,0,0,1,22-19.81c5-2,9.57-5.08,15.53-5.57a19.77,19.77,0,0,1-2.3,1.29c-14.89,5.86-26.58,15.81-36.37,28.25-3.79,4.82-7.77,9.51-12.78,13.15A5,5,0,0,1,161.67,348.15Zm17.8,9.68c-3.4.85-6.42-.24-9.27-1.95-1-.6-2.13-1.35-1-2.81,4.78-2.7,8.27-6.8,11.69-10.93,6.78-8.22,13.71-16.23,22.64-22.32,13.05-8.9,27.11-13.74,43.09-11.43,1,.15,2.28-.28,3,1l-1.69.45h0c-.76.13-1.52.21-2.26.39-14.85,3.49-28.21,10.41-40.4,19.23C194.74,337,184.7,345.35,179.47,357.83Zm7.62,3.93c-.81,1.1-1.27,3.11-3.44,2.1a3.91,3.91,0,0,1-2.46-4.52,18.44,18.44,0,0,1,4.11-8.85,105.17,105.17,0,0,1,26.43-23.55c14.26-8.82,29.45-15.13,46.06-17.82a6.36,6.36,0,0,0,2.56-.35c8.24-1.47,16.46-2.22,24.5,1,2.39.36,4.19,2,6.3,2.95-2.82.55-5-1.22-7.52-2a59.07,59.07,0,0,0-6.16-.92c-24.48-1.25-46,6.27-64.72,22C202.56,340.43,194.89,351.15,187.09,361.76Zm52.82-37.08c-7.13,3.95-12.76,9.54-17.6,16S214,354.06,209.4,360.51c-3.64,5.17-8.13,9.2-14.6,10.34-3.54.62-6.31-.66-8.44-3.8,5.13-1.06,8.64-4,11.5-8,4.42-6.12,8.23-12.72,13.45-18.22,7.09-7.48,16.27-11.76,25.39-16.08a13.47,13.47,0,0,1,7.74-2.36Zm41.81-10.19c-22.86-.56-43.68,5.93-62.86,18.13a48.64,48.64,0,0,0-14.33,14.28c-2.81,4.2-5.67,8.36-8.69,12.39-2.15,2.85-4.7,5.32-9.1,6.18,3.37-5.75,7.37-10.23,11-15,17.47-23.25,40.43-36.92,69.67-39.22,7.61-.6,15.13.12,22.69,3.57C286.87,315.55,284.32,314.55,281.72,314.49ZM294,305.34q-1.48-7.43-3-14.85l-.09-.66c-.23-2.39-.45-4.79-.67-7.18.68-1.53.1-3-.23-4.49a188.73,188.73,0,0,1-3.87-24c-1.32-14-8.55-24.28-19.85-32.08-5.59-3.86-11.53-7.14-17.43-10.49-.77-.43-2-.46-2.05-1.74,3.66,1.15,7.35,2.22,11,3.47,7.92,2.74,14.82,7,20.2,13.58a63.76,63.76,0,0,1,13,25.92c1,8.61,2.09,17.21,2.33,25.89.25,9.13,1.19,18.21,4.17,26.92,1.51,4.45,3.33,8.79,5.25,13.81C297.47,315.69,296.08,310.29,294,305.34ZM510.85,434.11c-2-7.22-4.15-14.49-7.64-21.22-.35-.67-.77-1.37,0-2.08,3.77,4.31,6.18,9.45,8.33,14.65,5.84,14.1,5.86,28.71,3.91,43.6-1.57,12-3.12,24.1-3.19,36.27a44.87,44.87,0,0,0,.49,4.87h0l.18,2.13a7.75,7.75,0,0,0,.11,1.08c.93,9.1,3,17.78,9.82,24.79,4.94,5.09,9.78,10.3,15.88,14.07,3.9,2.87,7.62,6,12.22,7.77.17,1,1.81.69,1.85,1.93a8.74,8.74,0,0,1-4.43-1c-4.72-2.08-9.33-4.42-14.14-6.28-9.74-3.78-17.25-10.2-23.48-18.45-6.94-9.18-10.77-19-8.07-30.7,2.12-9.19,4-18.44,6-27.66s3.8-18.26,3.81-27.64A43.68,43.68,0,0,0,510.85,434.11Zm-6.71-25.5a12.72,12.72,0,0,1,2.24,1.68,2.24,2.24,0,0,0,.58,0c.33,1.26,1.44,1.89,2.27,2.7,8.75,8.45,14.2,18.72,17.12,30.44,1.32,5.3,2.68,10.59,4,15.88,2.08,10.84.32,21.63-.31,32.45-1,17.53,2.38,34.14,12.34,48.86a51.56,51.56,0,0,0,27.84,21,21,21,0,0,1,2.24,1,.09.09,0,0,0,0,.05c0,.16,0,.34-.05.55-7.94.11-15.29-1.53-21.81-6.47-6.82-5.17-12.22-11.51-17.22-18.39-10.29-14.14-14.83-29.45-11.77-47a177.28,177.28,0,0,0,1.92-41.62c-.46-7.22-1.12-14.46-4.77-21a42.5,42.5,0,0,0-9.28-12.94L506,411.53c-1.16-.29-1.49-1.54-2.42-2.09C503.73,409.11,503.1,408.15,504.14,408.61Zm1-1.46c1.34.79,2.87,1.3,3.89,2.58,13.8,9.82,23,23.39,29.64,38.52,4.69,10.65,3.94,22.4,4.05,33.83a1.36,1.36,0,0,1,0,.2c-.75,7.21-1.66,14.41-2.19,21.64a64.46,64.46,0,0,0,.43,15.7c3.34,19.38,15.9,31.48,32.22,40.58a4.24,4.24,0,0,1-3.48-.21c-13.33-4.8-23.14-13.64-29.69-26.1-7.89-15-9.84-31-7.94-47.67,1.25-10.88,1.48-21.68-1.56-32.33-.75-3-1.54-5.92-2.24-8.9-3.14-13.46-9.36-25.15-19.77-34.43l-1.43-.38C507.1,408.71,504.91,408.68,505.11,407.15ZM550.94,560c-2.08-2.62-5.74-3.16-7.74-5.88l-4-2.52c-4.64-4.11-9.31-8.17-13.75-12.52-5.39-5.27-8.33-11.6-9.8-18.81-.32-1.6-.73-3.19-1.1-4.78-2-15.3.7-30.38,2.58-45.42s1.5-29.91-3.64-44.36c-.77-2.14-1.55-4.4-3.24-6.11,2.3.22,2.71,2.41,3.78,3.82,1.61,2.11,2.9,4.46,4.33,6.72a44.77,44.77,0,0,1,3.2,12.36c1.88,16.44,1,32.83-1.53,49.1-2.22,14.46-.08,27.92,7.51,40.42a102.36,102.36,0,0,0,16,20.7c2.55,2,5.09,4.11,7.67,6.12C552,559.5,551.69,559.76,550.94,560Zm-45.86-86.13c1.52-5,2.72-10,4.07-15.06.26-2.51,1-5,.75-7.55,0-2-.06-4-.1-6.07.08-1.36.15-2.71.26-4.71,1.21,2.94,1,5.42,1.37,7.79-.14,1.65-.29,3.29-.43,4.94.44,4.51-.82,8.83-1.68,13.15-2.56,12.8-5.51,25.51-8.09,38.3-1.43,7.06-1.93,14.17,1.43,20.95,6.66,13.47,15.81,24.42,30.23,30.18,4.72,1.88,9.24,4.25,14.47,6.68a12.7,12.7,0,0,1-2.61.5c-12.52-1.11-24.74-4-34.64-11.84-15.12-11.9-19.88-27.92-14.68-46.5C498.32,494.29,501.93,484.16,505.08,473.88ZM493,508.37a5.75,5.75,0,0,1,0,1.6c-2.42,9.48-.74,18.48,3.55,27,9.47,18.87,27.14,24.19,46,27.42a10,10,0,0,0,3.27-.14,30,30,0,0,1,8.51-.1l-1.73,1c-9.14,1-18.21,2.68-27.46,2.59-.95-.2-1.89-.46-2.85-.58-11.88-1.51-21.47-7.2-29.09-16.25-4.53-5.38-7.75-11.51-7.58-18.77.2-8.24,3.33-15.77,6.33-23.29C492.11,508.45,492.44,508,493,508.37Zm61,56.8a3.17,3.17,0,0,1-1.14,0Zm-67-46.86c-2.39,7.15-4.4,14.35-1.43,21.82,5.85,14.67,16.8,23.44,31.88,27.37a7.3,7.3,0,0,1,4.31,1.26c-2.42-.18-4.24.3-6.06-.32h0l-4.75-.46c-5.4-2.3-11.06-4-16-7.37-8.13-5.54-13.54-12.84-15-22.77A41.06,41.06,0,0,1,484.4,521C484.89,519.93,485,518.07,486.93,518.31Zm-3.67,42.38a56.63,56.63,0,0,1-4-6.71c-3.08-6.65-2.69-13.47-1.33-20.38a7.71,7.71,0,0,1,1.64-4.38,12.61,12.61,0,0,1-.78,5.55c.38,2.77-.31,5.68,1,8.33l0,.08c3,9,9,15.51,17.14,20.15a50.45,50.45,0,0,0,9,4c.68.23,1.8.05,1.7,1.34a55.25,55.25,0,0,1-18.1-3.14Zm-2.85,55.11c.44-7.56,3.55-14.15,7.35-20.5A28,28,0,0,0,492,581.15a10.67,10.67,0,0,1-.21-5.9c.92,2.53,1.81,5,1.33,7.78.71,7.55-.85,14.75-3.27,21.84-3,8.78-6.34,17.51-4.94,27.18A27.21,27.21,0,0,1,480.41,615.8Zm7.66,20.82c-2.82-8.3-1.72-16.47,1.17-24.5,4.27-11.88,7.58-23.85,4.46-36.68a4.78,4.78,0,0,1,2.15,3c2.79,11,2.85,21.87-.76,32.74a61.51,61.51,0,0,0-3.6,20.65,76.88,76.88,0,0,0,1.92,13.69A20.71,20.71,0,0,1,488.07,636.62Zm5.37,1.13c-1.18-9.4.75-18.31,3.42-27.18,2.48-8.2,3.42-16.5,1.63-25-.09-.42-.2-.86.5-1,1.3,1,1.85,2.59,2.54,4l.69,13.34A196.12,196.12,0,0,1,500,623.85c-1.22,8.56-1.21,17.08,2.19,25.24,1.16,2.79,2.62,5.45,4.1,8.48C498.41,653,494.52,646.39,493.44,637.75Zm13.22-33.94h0a101.05,101.05,0,0,1-.07,30.47c-1.49,9.52.8,18,6.11,25.92.59.87,2.3,1.64,1.06,3.22a32,32,0,0,1-7.8-9.6c-5.46-9.89-5.75-20.46-4.18-31.29.9-6.16,1.85-12.33,1.56-18.59.71-3.64-.49-7.3-.22-11.09,1.91.85,1.35,2.66,2.13,3.78l.33,1.06a2.21,2.21,0,0,1-.23-.55C505.78,599.36,506.22,601.59,506.66,603.81ZM629.85,576c-27.1,9.68-51.37,25.74-78.85,34.38l-.09,0c-1.91.48-3.84.9-5.72,1.47a28.16,28.16,0,0,1-22.88-2.35c-4.83-2.72-8.75-6.54-12.6-10.45a4.32,4.32,0,0,1-.13-.67c0-.54.31-.56,1.12-.07,3,1.82,6,3.6,9,5.37a30.26,30.26,0,0,0,25.34,3c8.86-2.79,17.82-5.38,26.12-9.68h0A89.09,89.09,0,0,0,586.42,588c11.83-8.69,25.39-11.58,39.6-12.5C627.3,575.36,628.82,575.08,629.85,576Zm-5.28-2.63a59.14,59.14,0,0,1-7.37,1.26c-10.94,1.36-21.14,4.73-30.26,11.08-5.77,4-11.75,7.67-17.88,11.08h0c-6.6,2.37-13.24,4.65-19.79,7.14-11.5,4.36-22.36,3.41-32.58-3.59l-3.72-2,.5-.79,3.8,1.9a54.48,54.48,0,0,0,11.16,2.29c6.31.54,12.6.7,18.59-1.92a42.4,42.4,0,0,0,13.5-5c7.55-4.31,14.52-9.5,21.45-14.67a45.25,45.25,0,0,1,25-9.07A43.87,43.87,0,0,1,624.57,573.41Zm-16-4.08a17.17,17.17,0,0,1-2,.38c-9.84.49-18.37,4.09-26.33,9.91-11.19,8.18-22,17.2-36.16,20.14-14.9,2.22-28.85,1-39.82-11-4.71-6.92-8.53-14.42-14-20.82.66-1.23,1.47-.26,2.15-.08,10,2.61,20.07,2.5,30.22,1.79,2,.59,3.9,0,5.84-.18,11.57-.85,23-2.69,34.66-3.14,6.22-.25,12.33-2,18.65-1,6.49.92,13,1.41,19.54,2.32C603.6,567.94,606.09,567.68,608.54,569.33Zm-26.14-131a61.21,61.21,0,0,1,24.09,27c6.28,13.5,8.34,27.07,4.55,41.51a176.78,176.78,0,0,1-7.74,21.9l-1.81,5-.89-.55h0c.59-1.7.68-3.55,1.71-5.09,2.36-8.84,5.38-17.52,6-26.77.68-10.95.1-21.68-4.74-31.8a48.06,48.06,0,0,0-11.68-17.1c-1.77-1.75-3.62-3.41-5.44-5.11-4.33-4.95-9.59-9.05-13.39-14.58C576.28,434.48,579.31,436.47,582.4,438.37Zm15,101.66c0,.09-.34.1-.71.2a83.18,83.18,0,0,1,1.42-24.85c1.68-8.83,3.15-17.68,3.32-26.71.25-14-6.6-25.41-13.42-36.83.4-1.85,1-.42,1.38,0a57.41,57.41,0,0,1,12.49,16.72c.32.67.75,1.3,1.13,2a66.45,66.45,0,0,1,2.9,38.17C603.69,519.25,600.26,529.59,597.36,540Zm-17.62-97c2.29,2.28,3.83,5.22,6.41,7.22v0l.06.07-.06-.05c.69,3.06,2.73,5.42,4.16,8.1,4.41,8.32,9.05,16.47,9.55,26.28A101.47,101.47,0,0,1,598,508.12c-2.22,12.18-4.45,24.34-1.76,36.76.12.55.4,1.3-.51,1.73l-1.4-2.08,0,0c-1.14-4.22-2.18-8.47-3.45-12.66a50.87,50.87,0,0,1-1.13-24.36c1.25-6.77,2.68-13.54,2.76-20.47,0-1.19-.15-2.38-.23-3.58,0-.06,0-.12,0-.18-.39-12.75-4.87-24.17-11.52-34.87-3.16-5.08-7.43-9.31-10.89-14.19C573.61,436.65,576.6,439.92,579.74,443Zm-20-16c16.28,14.27,28.39,31,31.14,53.19.83,9.37-.91,18.52-2.7,27.61-2.65,13.51,1,26,5.77,38.29.39.81.77,1.63,1.15,2.44,0,.5,0,1,.1,2l0,0h-.05c-4.85-6.19-7.32-13-9.63-19.8-.49-1.43-.55-3-1.48-4.29-2-8.68-1.78-17.42-.57-26.15,3-22-3.55-41.32-15.87-59.15a21.56,21.56,0,0,0-3.69-5.37c-2.47-4-6-7.28-8-11.7A23.91,23.91,0,0,1,559.76,427Zm-27.31-17.93a13.76,13.76,0,0,1,3.25,1.47,143.9,143.9,0,0,1,15.14,10.4q6.35,8.15,12.7,16.27l3.66,5.44a92.14,92.14,0,0,1,15.39,40.08c.92,7.14-.29,14.17-.91,21.24-.76,8.78-.78,17.49,2.32,25.93,2.7,9.89,6.84,19,14.47,26.15.33.33.65.66,1,1l1.77,2.43c-.14.38.59,1.54-.75.86-.65-.32-1.27-.72-1.9-1.08-16.2-13.54-26-30.61-28.47-51.69-.8-6.9.09-13.79.36-20.69.85-21.64-2.92-42-17.54-59a82,82,0,0,0-16.22-14.31,17.21,17.21,0,0,0-4.8-3.72,4.56,4.56,0,0,1-3.38-2.65Zm65,151.92c-9.5-4.76-18.34-10.31-23.71-20q-2.29-4.11-4.6-8.22l0,0c-2-5.31-4.65-10.42-5.18-16.23-1.44-15.73-3.08-31.44-3.73-47.24-.38-9.22-1.24-18.42-5.17-27a62,62,0,0,0-8.86-17.73,8.82,8.82,0,0,1-2.88-4.53l3.29,3.08c13.83,12.25,19.5,28.36,22.1,46.05,1.4,9.45-.2,18.8-.26,28.2-.16,25.6,9.34,46.71,29.52,62.77ZM521.83,403.13l-.6.9c-3.4-.81-7-.95-10.15-2.65A29,29,0,0,1,521.83,403.13Zm-9.14,1.09c8.44,2,15.87,6.07,22.86,11,9.4,7.53,14.87,17.67,19.08,28.66,5.15,14.36,4,29.47,5.25,44.29q1.2,13.77,2.41,27.55c.61,6.71,3.23,12.72,6.42,18.54A52.46,52.46,0,0,0,594,560.87c2.65,1.31,5.72,2.06,7.74,4.51a79.49,79.49,0,0,1-26.29-10.66c-10.48-6.52-16.93-16-19.67-28a118.31,118.31,0,0,1-2.64-28.09c.11-8.52,1.22-17.05.06-25.58,0-1.3,0-2.6-.1-3.9-.57-12.53-5-24-10.42-35A59.71,59.71,0,0,0,512.12,405c-1.84,0-3.17-1.2-4.7-2A11.92,11.92,0,0,1,512.69,404.22Zm-13.51-2.53,3.94,1.73C523,409.25,536.41,421.85,544.3,441a101.45,101.45,0,0,1,7.54,28.78h0a208.88,208.88,0,0,1,0,23.34A142.18,142.18,0,0,0,553.42,523c3.21,19,14.11,31.41,31.56,38.6l5.48,2.3c-4.12.22-7.8-1.18-11.57-2.2a80.46,80.46,0,0,1-17-10.29c-16.09-12.69-22.14-29.28-19.82-49.32.72-6.18,1.74-12.34,1.66-18.59a.75.75,0,0,1-.25-.35l.25.35c.54-14.59.75-29.14-6.91-42.39-7-12.19-14.76-23.85-26.51-32.15-1.41-1-3-1.78-4.5-2.65h0a4.34,4.34,0,0,0-2.51-1.32l-.75-.61a7.71,7.71,0,0,1-4-1.82C497.4,401.58,498.87,401.92,499.18,401.69Zm.77,7.25,1.45,2.95a19.21,19.21,0,0,1,3.17,8c0,.25.06.51.08.77l.06.51-.2-.4,0,0q-1.65-3.42-3.32-6.84c-3-5.36-7.53-9.27-12.57-12.68-1-.64-2.47-.86-2.61-2.44C491.68,400.74,495.93,404.68,500,408.94ZM358.79,360.25c10.78,3.87,21.19,8.54,30.56,15.21,9.58,6.82,18,14.54,19.38,27.24a.81.81,0,0,0-.14.59l-.36,1.48c-.57-1.09-1-1.84-1.37-2.64a40.24,40.24,0,0,0-22.12-22.59c-12.3-5.25-24.39-11-34.13-20.49-.69-.67-2.87-1-1.47-2.85A57.93,57.93,0,0,0,358.79,360.25Zm-53.25-29.62c.64,3.22,1.32,6.44,1.94,9.67a24.19,24.19,0,0,1-1.32,12.92c-3.6,10-7.07,20-10.61,30-3.11,8.78-2.35,17,3.4,24.57,0-.14.07-.27.11-.41a.84.84,0,0,1-.11.41c3.36,5.48,8.51,9,13.62,12.62,1,.68,2.25,1,2.73,2.23-4.38-1.32-9-1.65-13.17-3.84-11.81-6.23-20.65-22-16.29-37.9,2.32-8.46,6.68-16,10.21-23.87,3.75-8.38,8.15-16.61,8.56-26.1ZM298,420.76c-2.76-.16-5.16-1.55-7.71-2.44-20.65-14.54-20.41-38.6,1-55a11.62,11.62,0,0,1-.79,2.13,55.82,55.82,0,0,0-6.76,18.1c-2.87,14,5.19,30.69,17.63,36.6C300.48,421.84,299.09,420.83,298,420.76Zm-24.52-2.42h0c-.63-1.16-2.12-1.62-2.45-3-6-4.37-9.93-10.43-13.42-16.79a21.79,21.79,0,0,1-1.05-19.64,52.52,52.52,0,0,1,19.38-24.3c9-6.11,17.31-13.09,23.73-22a4.55,4.55,0,0,1,1.68-2.64,2.83,2.83,0,0,1-.45,3c-5.53,9.38-10.3,19.27-18.32,27-2.68,2.58-5.37,5.17-7.94,7.87-6.48,6.8-11.83,14.13-11.32,24.25.42,8.2,2.41,15.76,8,22.08l1.79,1.58c1.42,2.42,4,3.76,6,6.31C276.37,421.3,275.24,419.33,273.44,418.34ZM316,425.59a2.49,2.49,0,0,1-.87-.08c-6.77-.09-13.55-.25-20.32-.28a24.56,24.56,0,0,1-18.26-7.57c-1-1-2-1.93-3.07-2.9-.32-.44-.62-.89-1-1.31-10.55-13.16-10.37-28.56.53-41.4a32.87,32.87,0,0,1,3.78-4.12c10.29-8.61,17.41-19.65,24-31.08a3.42,3.42,0,0,1,1.84-3,6.47,6.47,0,0,1-.95,4.17c-3.1,8.12-6.44,16.12-11.94,23-3.08,3.85-6.12,7.75-9.49,11.34-14.07,15-4.79,40.71,9.21,46.92a19.52,19.52,0,0,0,13.61,3.19l13.13,2.23c1.44-.44,2.76.1,4.11.47C319.07,426.76,317.53,425.88,316,425.59Zm9.36.66a37.15,37.15,0,0,0-7.53-4c-4.91-3.29-10-6.38-14.09-10.69-1.58-1.65-2.95-3.49-4.42-5.25a23.56,23.56,0,0,1-2-22.63c3.93-9.65,6.58-19.74,10.33-29.45,1.28-3.29,2.58-6.68,2.06-10.37q-1.22-5.79-2.44-11.58c-.05-.73-.11-1.45-.17-2.28,1.66,1.2,1.42,3.3,2.64,4.57a46.43,46.43,0,0,1,1.35,12.48,53.3,53.3,0,0,1-1.95,15.83c-1.87,7.6-5.13,14.89-5.34,22.89h0c-.6,7,2.29,12.79,6.74,17.89a128.21,128.21,0,0,0,13.34,12.71c6.38,5.45,12.17,11.39,16.12,18.91.18.93.37,1.86.71,3.59C336.12,433.3,331.38,429,325.39,426.25Zm-14.51-61.88c1.15,4.51.65,9,.4,13.53-.49,8.55,1,16.6,5.69,23.88a92.49,92.49,0,0,0,14,16.56c3.39,3.25,7.15,6.23,8.59,11,0,.5,0,1,0,2l-.13,0a72.06,72.06,0,0,0-11.4-13.16c-4.1-3.63-8.09-7.37-12.11-11.08-5.36-4.94-9.42-10.64-10.59-18C304.9,380.37,308.45,372.52,310.88,364.37Zm40,83.71c-1.27.22-2.35-1-3.26-2A18.63,18.63,0,0,1,343,436.8c-1.52-7.6-4.26-14.45-10.76-19.32-3.62-2.71-6.35-6.35-9.27-9.77-7.17-8.42-11.23-18-10.34-29.25.14-1.69-.48-3.53.73-5.31.91,2.94,1.74,5.62,2.56,8.29l0,.14a38.62,38.62,0,0,0,8.28,14.78c5.89,6.8,11.86,13.54,17.66,20.41a49.14,49.14,0,0,1,8.18,13.07,32,32,0,0,1,2,15.18C351.38,446,352.33,447.84,350.87,448.08Zm7.87.24c-1.35,1.42-3.1.9-4.61.25-1.07-.45-.31-1.33,0-1.91,6.59-11,3.7-21.51-1.56-31.93-3.83-7.58-9.76-13.43-15.77-19.22-6-5-11.83-10.11-14.54-17.8-.16-.45-.46-1.26-1.31-1.14h-.07v0c0,2.63,1.27,4.78,2.61,6.92,2.82,4.51,6.66,8.08,10.58,11.6,7.1,6.38,13.95,13,18,21.87,3.84,8.43,6.51,17,2.17,26.12-.87-.2-.86-.9-.83-1.55.34-8.83-3.49-16.1-8.52-22.95A193.41,193.41,0,0,0,330.7,401.8c-6.47-7-12-14.46-14.72-23.76h0c-3.07-9.63-3.38-19.53-2.79-30.42a86.3,86.3,0,0,1,5.21,20,11.1,11.1,0,0,0,1.17,6.1c.13.73-.06,1.66,1.1,1.74a2.32,2.32,0,0,0,.13.58c1.23-.76,0-1.87.42-2.81l1.2,1.34h0c.33.81.63,1.62,1,2.41,3.15,6.91,8.22,12.28,13.87,17.17,6.07,4.27,12.15,8.5,17.49,13.71A45.64,45.64,0,0,1,363,419.56h0c2.45,7.82,2.42,15.54-.85,23.16A18.34,18.34,0,0,1,358.74,448.32Zm4.15-1.56c-.13.15-.56,0-1,.05,4.58-9.52,6.11-19.07,1.46-28.91-2.91-7.76-9-12.82-15.21-17.72-3.44-2.73-7.1-5.17-10.6-7.82-6.74-5.11-11.31-11.87-14.71-19.5a24.34,24.34,0,0,0-2.36-5.62c1.66-1.15,1.64.76,2.07,1.33,2.69,3.54,5,7.35,7.86,10.78,5.34,6.49,12.2,11.1,19.56,15,2.17,2.21,4.92,3.65,7.41,5.42C369,408,373.12,419.16,371.15,433,370.32,438.88,366.42,442.65,362.89,446.76ZM333.65,381.3c.22-.26.44-.51.65-.77l2.68,2.26,1.38.47a33.59,33.59,0,0,0,3.49,2.38c6.2,3.18,12.4,6.39,18.69,9.4a36.55,36.55,0,0,1,12.58,10.12c-1.1,1.34-1.7-.16-2.34-.54-2.88-1.69-5.59-3.68-8.82-4.73-3.84-2.06-7.31-4.75-11.39-6.37-4.85-3.11-9.89-5.93-14.21-9.81A5.61,5.61,0,0,1,333.65,381.3Zm36.91,59.17c3-7,3.26-14.15,1.92-21.33a30.8,30.8,0,0,0-8.74-16.09c2.6-.62,4,1.61,5.88,2.58a42.36,42.36,0,0,1,4.05,2.62C382.23,414.9,382.8,433.87,370.56,440.47Zm10.68-4.53c-2.38.54-2.75-.11-1.9-2.2,4.42-10.89,1.59-20.53-5.15-29.48a7.93,7.93,0,0,1-2.83-3.61c1.53.69,2.64,1,3.25,2.15,8.3,5.94,13.41,13.57,13.5,24.18C388.15,432.32,386.51,434.73,381.24,435.94Zm9.1-4.66c-1.43-.36-.57-1.67-.58-2.53-.09-9.7-3-18-10.91-24.3-12-9.68-26-15.8-39.84-22.13-8.82-4.54-14.06-12.37-18.88-20.58a142.83,142.83,0,0,1-7.95-23.84,38.37,38.37,0,0,0-2.14-5.46c-.13-.75-.4-1.51.34-2.11q3.36,5,6.7,10.07c2.08,4.22,4.29,8.38,6.23,12.67A65.63,65.63,0,0,0,356,386.43c5.37,2.53,10.88,4.79,16.05,7.66,10.8,6,19.2,14,20.75,27.08.33,2.72,1.35,5.57,0,8.3C392.3,430.45,391.63,431.61,390.34,431.28Zm-69.17-87.11,2.95,4.17c.17.11.42.19.51.35,6.41,11.21,14.42,20.86,26,27.22,8.07,4.43,16.27,8.62,24.09,13.52,7,4.38,13,9.69,17,17a19.5,19.5,0,0,1,2.6,11.51c-.45-.48-.63-.59-.69-.74-.22-.62-.44-1.24-.6-1.88-1.64-6.56-5.67-11.42-10.58-15.88-7-6.34-15.57-9.73-23.93-13.55-11.94-5.45-22-13.14-28.95-24.45-2.15-3.5-3.88-7.25-5.81-10.88A10.37,10.37,0,0,1,321.17,344.17Zm77.16,81.42c-2.91,1-3.24-.72-2.84-2.88,2.15-11.54-2.95-20.24-10.94-27.73-6.22-5.84-13.72-9.85-21.18-13.76-12-6.31-23.9-12.65-31.78-24.32-3-4.51-6.18-9-9.27-13.44A6.9,6.9,0,0,1,320,340a8.64,8.64,0,0,1,3,2.42l1.3.75h0c2,2.2,3.89,4.52,6.64,5.86,5.2,4.69,10.41,9.36,15.6,14.06,9.73,8.82,20.26,16.4,32.65,21.12a36.48,36.48,0,0,1,8.51,4.27c9,6.51,16.05,14.27,16.08,26.34C403.79,419.43,402.65,423.28,398.33,425.59Zm7-6.65a66.66,66.66,0,0,0-.44-8.5c-2.14-12-10-19.65-20.22-25.24-6-3.26-12.54-5.22-18.39-8.78-11.35-6.89-20.7-16.2-30.68-24.76-.45-.38-1.23-.76-.39-1.51,3.51,2,7.44,3.37,10.58,6.06,7.48,8.26,16.54,14.33,26.49,19.16,4.05,2,8.12,3.88,12.27,5.62,13.71,5.75,20.53,16.85,24,30.6C407.49,414.06,408.07,417.24,405.3,418.94Zm3.26.38c5.33-16.81,1.35-29.75-12.3-40.93-10.95-9-23.42-15-36.6-19.76-1.49-.54-3.21-.7-4.69-2.84,5.57.95,10.56,1.84,15.57,2.64a61,61,0,0,1,29.65,13.4c10.62,8.78,17.26,19.53,15.3,34.06C414.82,410.89,411.43,417.52,408.56,419.32Zm3,.73c7.17-10.41,8-20.88,3.86-31.49-4-10.26-11.81-17.59-20.88-23.67,10.54,2.95,19.61,8,26,17.17,7.34,10.56,7,22.42-.95,32.27A18.09,18.09,0,0,1,411.53,420.05Zm2.58,1.62c15.65-10.48,17.17-27.67,7.35-42.47a33.12,33.12,0,0,1,9.37,8.22c5.71,7.18,6.68,15.46,4.51,24C433.1,420.21,425.06,423.84,414.11,421.67Zm12.28,1.78c6.42-2.46,10.38-6.93,11.38-13.5,1.65-10.88-.87-20.51-9.44-28-7.56-6.59-15.67-12.36-24.92-16.39a10.79,10.79,0,0,1-4.69-2.17c2,.23,4.07.13,5.88,1.23,12.52,4.25,24,10.44,33.24,19.95a27.5,27.5,0,0,1,4.57,31.76C439.32,422.28,432.34,425.48,426.39,423.45Zm5.72,2.27C440,424.38,444.16,419.27,446,412c2.93-11.31.63-21.28-7.81-29.62-8.74-8.65-19.52-14-30.54-19L400.76,362c2.79-1.43,5.43-.15,8.11.43,14.71,2.51,27.66,8.23,37.25,20.23,1.94,2.44,3,5.33,4.52,8,.17.57.35,1.14.52,1.71l1.41,7.12c0,8.7-1.53,16.95-6.9,24.1C440.19,427.74,435.7,428.5,432.11,425.72Zm50.3-31c.29.17.53.42.21.78-5.47-1.69-10.82-3.67-15.55-7h0c-.28-2.4-1.18-4.74-.76-7.21A72.36,72.36,0,0,0,482.41,394.76Zm-60.33-37.08c1.87.27,3.81.14,5.58,1a96.76,96.76,0,0,1,15.7,3.31c12.23,3.61,20,11.25,22,24.2-.18,4.84,0,9.72-1.94,14.32h0l-4.61,7.74c1.09-8.36-.84-16.26-2.55-24.18-1.32-6.11-4.66-11-9.33-15.11-5.89-5.21-13.25-7.08-20.44-9.39l-4.87-1c.16-.29.33-.57.5-.86Zm-21.28.89c1.5-.62,3.07.84,4.56-.12,12.48-.79,24.15,2.5,35.17,7.85,7.46,3.63,12.65,9.7,14.35,18.17.8,4,1.61,7.94,2.13,11.95,1.13,8.57-.53,16.53-5.72,23.6a7.43,7.43,0,0,1-3.59,3.36l2.55-4.05a44.4,44.4,0,0,0,3.6-13.85,30.4,30.4,0,0,0-3-17.06c-4.61-10.62-13.35-16.85-23.34-21.6-9.22-4.39-19.13-6.21-29.25-7h0l-6-.22h0c-.34-.57-1.39.09-1.51-.87h0l8.56-.46Zm7.39-184.77h0c-6.85,3.39-13.68,6.8-18.66,12.92-1.24,1.52-2.26,3.25-4,4.34-3,4.19-6.72,7.83-9,12.5h0c-8.38,14-12.43,29.29-13.83,45.37-.73,8.46-.21,16.95,0,25.42.28,4.61,1,9.21.45,13.84-.85,1.5-.07,3.28-1,5.35-.31-6.3-.59-12-.88-17.78h0c.15-1.12-.59-2.26.07-3.37-.08-.63-.16-1.26-.23-1.89-.72-4.29-1.88-8.51-2.2-12.86,0-.32-.05-.63-.07-.95a42.19,42.19,0,0,1,1.33-23c3-9.15,5.72-18.4,10.4-26.9,3.43-6.31,8.74-11,13.61-16.11C391.08,183.52,397.59,175.74,408.19,173.8Zm-38.57,32.36c-7,14.2-13.47,28.65-12.8,45,.32,7.87,3,15.49,3.51,23.41v0c-.43,2.58.33,5.14.15,7.69-.17,2.39,1.2,4.87-.37,7.18,0-2.16-1.42-3.86-2-5.84-2.5-8.56-3.8-17.37-5.66-26.06A47.65,47.65,0,0,1,354.78,230,137.69,137.69,0,0,1,382,186.44c4.18-3.39,7.92-7.39,13-9.55,1-.42,1.92-1.54,3.13-.44-6.43,4.14-11.46,9.83-16.84,15.14C376.77,196,372.31,200.36,369.62,206.16Zm17.29-32.76a12.52,12.52,0,0,0,4.22-1.53c3.3.08,6.61,0,9.95,1-1,1.23-2.33,1.12-3.35,1.71-6.67,2.12-12,6.19-16.77,11.2-8.86,8-14.59,18.29-20.65,28.33a89.81,89.81,0,0,0-7.87,17.71,44.73,44.73,0,0,0-1.85,23.05c2.14,11.21,3.89,22.51,7.6,33.36.32,1,.16,2.25,1.45,2.72.83,5.67,3.08,11.06,3.09,16.95l-1.56-2.47c-2.6-6.62-5.24-13.23-7.79-19.87a109.61,109.61,0,0,1-6.9-47.13c1.62-9.1,4.68-17.78,7.75-26.46a34,34,0,0,1,4.85-8.91c3.59-4.84,7-9.85,10.68-14.59a63.66,63.66,0,0,1,15.74-14.3A1.66,1.66,0,0,0,386.91,173.4Zm-3,.39c-7.73,3.92-13.12,10.36-18.19,17.11-2.89,3.84-5.57,7.83-8.36,11.75a34.6,34.6,0,0,0-4.89,9.61c-2.62,8.21-5.83,16.26-6.92,24.9a89.52,89.52,0,0,0,1.77,32.54c2.3,9.45,5,18.8,9.4,27.56a12.11,12.11,0,0,1,.62,2.2c1,1.51,2.12,3,1.69,5-.83-1.12-2-2.05-2-3.61-5.84-8.95-11.21-18.06-13.71-28.68a111.14,111.14,0,0,1,3.45-63.78c.95-1.84,2-3.64,2.83-5.54a45.78,45.78,0,0,1,17.74-21.09c3.41-2.19,6.79-4.47,10.36-6.37C379.53,174.38,381.45,172.71,383.92,173.79Zm-12.65,3.71a54.22,54.22,0,0,0-25.4,30.18c-.5,1.09-1,2.17-1.49,3.27-4.06,9.69-4.76,20-5.47,30.29A91.91,91.91,0,0,0,353,297.69c3.91,6.24,9,11.63,12.37,18.21l5.27,6.81-.42.37-3.25-2a10,10,0,0,0-2-3.73c-2.17-1.81-3.93-4.11-6.47-5.48-8.21-7.59-13.81-16.86-17.6-27.3-2.95-9.28-3-19.06-5-28.53l-.8-.52,2.34,21.4c.07.58.28,1.19-.29,1.59l-.3-.16c-1.11-2.36-2.23-4.73-3.35-7.09v0a165,165,0,0,1-1.86-42.8c.92-10.39,6-19.07,11.55-27.55.27-1.63,1.52-2.66,2.41-3.91.64,2.09-1,3.38-1.74,5-4.28,8.65-7.77,17.56-8.69,27.29.28.36.55.73.82,1.09,1.26-10.39,5.12-19.92,9.67-29.22.72-1.47,1.32-3,2-4.5C350.7,184.29,360.54,180.38,371.27,177.5Zm-23.19,12.79a14.48,14.48,0,0,1-3.82,6.25c-.9,1.38-1.75,2.78-2.69,4.14-8.35,12.11-12.69,25.41-11.9,40.23.32,6,.73,12,.93,18,0,.53,1.45,2.37-.92,2.07-1.12-4.23-2.12-8.49-3.38-12.67-4.39-14.5-.89-27.61,6.92-40,.35-.55.68-1.11,1-1.66l8.69-10.53A21,21,0,0,1,348.08,190.29Zm-8,5c.82-.62,1.45-2.05,2.92-1.17l-9.72,12c-4,4.23-6.21,9.41-7.89,14.84a61.93,61.93,0,0,0-3,17.62c.26,4.7,2.58,8.91,3.29,13.5,1.78,5.76,3.07,11.7,5.58,17.2,2,4.3,3.22,9,6.4,12.67v0l1.74,5c-.53,2.26-1,.38-1.33-.05-2.61-3.84-5.17-7.7-7.74-11.56-.7.34-.39,1-.43,1.51,3.52,5.46,6.81,11.08,11.19,15.94,3,4.38,5.67,8.95,9.44,12.73l7.44,7.33a28.33,28.33,0,0,1,2.8,2.56c.84,1,2.77,1.1,2.41,3h0l-9.25-7.47h0l-.19-.24c-1.1-1.35-3-1.9-3.61-3.74-1-.79-2.13-1.5-3.07-2.38-11.53-10.71-20.48-23.14-24.86-38.41-5-17.5-5.06-35,.79-52.39C328.18,207.1,333.29,200.38,340.1,195.24ZM351.41,310c-2.29-.09-3.66-1.79-5.27-3.06-4.72-2.66-8.14-6.86-12.17-10.33-1.07-1.25-2.12-2.5-3.2-3.74a86.19,86.19,0,0,1-16.11-25.83c-5.89-15.34-2.73-30,3.29-44.4.19-1.5.09-3.14,1.94-3.78-.52,1.41-.26,3-1.14,4.33a95,95,0,0,0-1.44,24.16c1.46,23.74,12.14,42.94,29.43,58.79C348.71,307,349.86,308.73,351.41,310ZM308,236.25c2.26-7.19,4.86-14.2,10.77-20.4-2.16,6.32-4,11.82-5.91,17.31a47.78,47.78,0,0,0-2.6,18.78c1.27,18.49,10.81,32.76,23.31,45.51h0c5.47,6.94,13.29,11,20.05,16.36,1.7,1.34,3.8,2.26,4.83,4.35-3.18-1.45-6.37-2.88-9.54-4.38C321.93,301.05,300.84,267.14,308,236.25Zm-2.32,31.94c-.15-2.19-.56-4.45.2-6.78,1.08.82,1,1.89,1.27,2.81,5.64,20.87,17.61,37,36.11,48.25,6.68,4.06,14.11,6.59,20.91,10.4a9.78,9.78,0,0,1,4.39,2.44,8,8,0,0,1-5.07-1.42c-11.17-3.64-22.29-7.36-32.24-13.86C316,300.13,306.92,286.54,305.63,268.19Zm0,27.27c1.71,3,3,5.75,4.72,8.23,6.2,9.06,14.78,15.34,24.33,20.46,5.4,2,11,3.2,16.52,4.68h0L358,330c7,1.19,14,2.27,20.13,6.37l3.09,2.07c-1.52.52-2.56-.44-3.67-1.18h0a6.82,6.82,0,0,0-1.67-1c-8.62-2.21-17.25-4.37-25.88-6.54-5.32-1.46-10.78-2.49-15.9-4.68h0a33.15,33.15,0,0,1-11.77-5.84c-6.11-4.85-11-10.83-15.4-17.18C306.14,300,305.14,298.1,305.64,295.46Zm6.09,21.08a21.8,21.8,0,0,1-3.58-7.26,2.06,2.06,0,0,1-.4-.72c.13.24.26.48.4.72l-.69-3.48c4.39,5.24,8.71,10.35,14.3,14.2,5.37,4.72,12.12,6.4,18.73,8.29,9.55,2.74,19.16,5.29,28.88,7.45a39.09,39.09,0,0,1,19.43,10.39c.63.62,2,1,1.24,2.46a.52.52,0,0,0-.8-.28c-13.17-7.29-26.91-13-41.89-15.39-6.38-2.2-12.78-4.36-19.15-6.59A46.53,46.53,0,0,1,311.73,316.54Zm1.85,4.88-.11-.13c.25-.36-.88-2,.85-1,2.05,1.26,4,2.72,6.08,3.88,5.89,3.25,12.49,4.62,18.74,6.93,1.42.52,3.19.46,4.07,2.08-11.52.17-22.07-2.06-29.62-11.79Zm7.47,12.16c.13-.15.32-.45.39-.42,13.73,5.08,28.5,5.12,42.53,8.71l8.86,2.3c.65-.27,1.66,1,2-.47-11.23-3.84-23-5.3-34.59-7.3-1.3-.22-2.59-.41-3.89-.62a38.29,38.29,0,0,1-18-5.53,25.75,25.75,0,0,1-4.93-5.28l.48-.8a33.65,33.65,0,0,0,10.18,7.46c4.5,2.15,9.38,2.47,14.2,3.14h0a82.66,82.66,0,0,1,37.18,8.06,35.22,35.22,0,0,1,9.94,5.63l-13-3.51a126.19,126.19,0,0,0-22.53-2.36C339.34,342.58,329.23,341.11,321.05,333.58Zm14,9.4Zm37.51,9.37c-13.4-.4-26.38-2.7-38.52-8.67l1-.69c4.65,2,9.61,2.63,14.58,3,8.12.66,15.48,4.43,23.45,5.66a.37.37,0,0,1,0,.28A5.22,5.22,0,0,1,372.53,352.35Zm16.76,0-6.52-.23c-.65-.49-1.39-.29-2.11-.27-9.46-1.08-18.36-4.53-27.59-6.58a50.77,50.77,0,0,1-6.77-.72c-.94-.22.34-.41.43-.72l6.94.37a3.21,3.21,0,0,1,1.22.07c3.41-.14,6.75.55,10.12.91,7.95.85,15.43,3.88,23.29,5.15l2.3.91a8.46,8.46,0,0,1,4.48,2.35Zm8.95.16c-2.62-.24-3.81-1.92-5.33-3.05-.36-1.63-2.73-2.2-2.25-4.27C393.22,347.39,396,349.43,398.24,352.5ZM392.16,343a7,7,0,0,1,2.66,3.53c-1.57-1-2.81-1.66-3.65-2.82h0c-3.46-2.52-7-4.95-10.35-7.56-7.16-5.56-15.75-6.87-24.3-8.26-12.24-2-23.94-5.11-33.71-13.45-10.55-9-18.57-19.22-18.24-34a8.17,8.17,0,0,1,.09-4.6l.89-.12c.55,2.73,1.09,5.47,1.64,8.21a58,58,0,0,0,21.13,26.19c12.18,8.46,26,13,40,17.08C378.09,330,386,335.05,392.16,343Zm-6.93-10c-2.92-2.9-7.05-4.16-9.42-7.58a23.13,23.13,0,0,1-9.5-14,12.39,12.39,0,0,1-1.82-6.6c1.63-.61.72-1.76.58-2.74-.47-3.08-1.52-6.11-.87-9.72.56,1.36,1,2.5,1.48,3.57a4.07,4.07,0,0,0,.5,1.2c3.43,11.72,9.43,22.06,16.92,31.61C384.09,330,385.14,331.25,385.23,333Zm-8.62-96.44c.11,9-1.95,17.88-1.23,26.86.93,11.77,1.2,23.6,2.73,35.32,1,9,3.15,17.84,5.09,26.75-2.79-2.66-5.37-5.57-6.24-9.31-2.44-10.45-5.45-20.84-4.29-31.81a105,105,0,0,0,.24-18.08,110.26,110.26,0,0,1,2.9-32.94C377.11,234.15,376.59,235.43,376.61,236.55Zm20-49.83a75.78,75.78,0,0,0-11.18,16.58c-9.29,17.83-14.51,36.71-14.07,56.9.2,9.33.47,18.64-.23,27.95a41,41,0,0,0,1,12.09c.77,3.45,1.39,6.92,2.08,10.39l-.75.26c-.57-1.11-1.16-2.21-1.68-3.34-5.07-11-7.1-22.65-7.68-34.78-1.15-24,1.64-47.12,13.45-68.52,3.86-5,7.65-10.14,11.59-15.12C396.55,179.71,406,174,418.34,174h0l4.85,1.42C412.7,175.35,403.76,179,396.59,186.72Z" transform="translate(-140.54 -170.41)"/><path class="cls-3" d="M336,255.6c0,.15,0,.29,0,.43A1.19,1.19,0,0,0,336,255.6Z" transform="translate(-140.54 -170.41)"/></g></g></g></svg>