<svg xmlns="http://www.w3.org/2000/svg" xmlns:xlink="http://www.w3.org/1999/xlink" viewBox="0 0 522.34 288.08"><defs><style>.cls-1{fill:none;}.cls-2{clip-path:url(#clip-path);}.cls-3{fill:#a18978;}</style><clipPath id="clip-path" transform="translate(0 -34.94)"><rect class="cls-1" width="296.52" height="355.09"/></clipPath></defs><g id="圖層_2" data-name="圖層 2"><g id="飄移"><g class="cls-2"><path class="cls-3" d="M513.18,206.48c-8.44-.11-16.11-2.34-22.62-8a23.09,23.09,0,0,0-2.16-1.5c-.16-.14-.32-.26-.48-.39-4.95-4.07-11.12-5.68-17.28-8.08,1.53-.67,2.67,0,3.8.09s2.51.36,3.77.54c6.05.36,11,3.42,15.77,6.7a35.83,35.83,0,0,0,24.56,6.47c1.1-.11,2.4.21,3.8-1.85-14.06,3-24.74-3.14-35.47-10.56l.06-.17,3.48.44c7.53,2.78,14.73,6.61,22.92,7.35a13.88,13.88,0,0,0,6.92-1c.46-.21.91-.47.62-1.1s-.61-.26-1-.12c-4.91,2-9.7.76-14.39-.77-3.22-1.06-6.3-2.52-9.68-3.89a23.76,23.76,0,0,1,7.57.48,58.54,58.54,0,0,0,12.58,1.3,26.54,26.54,0,0,0,3.21-.39c.56-.09,1.31-.16,1.17-1s-.82-.56-1.38-.44c-6.45,1.31-12.68-.84-19-1.22-.86,0-.46-.59-.26-1,5.16-1.44,10.59-.78,15.78-2a9.65,9.65,0,0,0,4.71-2.16c-2.38-.18-3.92,1-5.75.52a1,1,0,0,1,0-.18c1.1-2,4-2,4.6-5-2.81,1.74-5.15,3.37-8.33,4.44l0,0c2.22-3.45,6.69-4.37,7.85-9-1.71,1.15-2.26,2.58-3.83,3,.33-2.86,3.19-4.73,2.85-8.37-3.92,5.92-5.29,13.42-13.74,14.77A51.18,51.18,0,0,0,516,162c-2.11,4.13-4.16,8.29-6.36,12.37C507.75,178,505,181,502.37,184a10.73,10.73,0,0,1-5.58,3.12c-.5-.89-2.63,2-2.25-1,6.46-4,10.81-10,14.8-16.17,2.18-3.39,3.93-7.05,5.85-10.6.47-.86,1-1.76,0-2.9-3.58,7-7.17,13.93-12.13,20a55,55,0,0,1-10.75,10,10,10,0,0,1-8.55,1.45c8.73-3.77,14.73-10.5,20-17.95s9.64-15.1,10.21-24.38c-1.52,4.61-2.86,9.31-5.19,13.61C503.62,169,497.5,178,488,184.07a21.37,21.37,0,0,1-11.33,3.81c-.88-.53-.8-.91.13-1.3,16.2-6.9,23.94-20.8,29.95-36.14,4.59-11.72,4.08-23.88,3.06-36.08a2.24,2.24,0,0,0-.93-2.1c.06,1.86.14,3.38.16,4.9.13,8.65.75,17.39-1.21,25.85a72,72,0,0,1-21.37,36.67c-3.29,3.09-7.35,4.92-11.52,6.45a7.09,7.09,0,0,1-4.83.33c.33-.31.47-.55.66-.61,9.71-3.08,16.56-9.44,21.55-18.19,5.88-10.31,9.32-21.44,11.59-33a20.06,20.06,0,0,0,.13-2.91c.87-6,.09-12,.2-17.94a84.16,84.16,0,0,1,2.31-19.56,4.68,4.68,0,0,0-.39-3.58,62.56,62.56,0,0,0-3.28,20.6q0,10.74.06,21.48c-1.54,8.42-3.45,16.76-6.91,24.61-3.61,8.19-7.49,16.28-15,21.78-5.58,4.08-11.54,7.08-18.73,6.52a.9.9,0,0,0-1,.44c5.13,2,10.24,4,15.38,6a92,92,0,0,1,9.76,4.81c7.95,7.3,17.19,11.22,28.1,10.86.71,0,1.57-.48,2.18.44-1.84,1.84-4.21,2.41-6.65,2.82-1.47,0-2.93-.11-4.4-.08a31,31,0,0,1-21.83-8.19,78.71,78.71,0,0,0-19.31-12.9c-1.22-1.13-2.82-1.57-4.26-2.28-.86-.42-.59-.75-.06-1.16l.91-.4c0-1.41,1.11-1.28,2-1.5,8.61-2,16.3-5.5,20.84-13.62,2.76-4.92,4.2-10.36,5.48-15.82h0c2.64-7.69,3.6-15.71,4.73-23.69,1.95-13.74,3.87-27.49,6-41.2.58-3.77,1.45-7.56,4.24-10.52,1-1.07.14-2.14,0-3.71C499.1,80.85,493.2,84.5,489,90c-1.73,2.26-4.05,3.06-6.77,3.57a40.19,40.19,0,0,1-12.27.79c-4.9-.34-7.85-3.55-10.52-7.17L443.05,65c-1.09-1.41-2.87-2.19-3.57-3.94-17.27-17-37.6-20.92-60.37-14-3.75,1.13-7.27,3-10.89,4.56-1.27.53-2.53,1.11-3.81,1.6-.4.16-.82,0-.35-.51a2.14,2.14,0,0,1,.49-.34c-.12-.25-.23-.51-.35-.77L358.79,55c-5.52,2.58-10.84,5.77-16.59,7.59s-10.76,4.73-15.84,7.66c-9,5.16-15.87,12.48-21.66,20.94a47.51,47.51,0,0,1-11.41,10.64c-6.23,3.48-13.11,5-19.94,6.6a17.32,17.32,0,0,1-3.5.24c-10.14-1.29-18.25,2.73-25.31,9.52-5.82,5.59-11.53,11.27-15.93,18.11a29.34,29.34,0,0,0-2.92,6.43c-1.39,1.42-3.19,1.18-4.93,1.23-2.84.1-5.68.23-8.53.35-2.26-.72-4.35,1.49-6.63.39-1.95-.14-3.91-.19-5.85-.42-9.44-1.12-18-5-26.77-8.39h0c-10.14-5.57-20.29-11.11-30.4-16.74a92.79,92.79,0,0,1-13-9.11,56.21,56.21,0,0,0-13-8.43,28.85,28.85,0,0,1-4.16-4.11A100.54,100.54,0,0,1,94.43,65a33.64,33.64,0,0,1,5.38-25.86l.52-.11a1.94,1.94,0,0,1,0,.54,44.9,44.9,0,0,0-1.13,26.44c3.55,13.89,12.08,25,23,33.84,7.64,6.24,16.42,11.08,24.7,16.54,3.93,3.11,8.34,5.49,12.62,8,14,8.37,28.51,15.7,44.7,19h0a.25.25,0,0,0,0-.07c-.19-.76-1-.8-1.49-1.23-19-4.77-36-13.74-52.14-24.68-.4-.27-.85-.47-1.27-.7-7-5.24-14.52-9.8-21.79-14.68a67,67,0,0,1-26.29-34.32c-2.78-7.92-2.32-16.33-1-24.58.53-3.32,3.34-4.64,6.06-5.89l4.17-.84c.51,0,1,.05,1.52.1l-.32-1.63-4.56.79-1.24.65c-.63,0-1.25-.07-1.88-.11l-5.4.93h0l-1.67,1.16.61-.07a.41.41,0,0,1,0,.09,1.31,1.31,0,0,1,.11.29l-3.27,2.95-.34,1c-2,1.53-2,4.36-3.87,6-2.31.2-1.82,3-3.55,3.78a10,10,0,0,1-3.09,3.26L79.7,60.36c0,.66-.45,1-.86,1.39l0,0-.56.42v0c-1.31,1.12-1.28,2.94-2.22,4.26C74.45,72.75,72.85,79,71.37,85.26c-1.69,7.09-2.25,14.23-.33,21.4-.88,8.51,1.58,16.47,4.08,24.43.43,1.36,1.28,2.7.34,4.18-.68.86.55,1.32.43,2.06-.06,4.4,2.1,8.06,4,11.73a26.74,26.74,0,0,0,5.93,7.63,21.26,21.26,0,0,0,6.2,5.8c5.9,3.47,10.9,8.1,16.27,12.23,4.5,3.47,9,6.95,13.68,10.11a66.6,66.6,0,0,0,24.92,10c2.78,2.4,6.11,2.29,9.46,2.08,8.19-.53,16.3-1.16,23.69-5.5,12.47-7.35,22-17.47,29.51-29.75,3.62-5.3,7.15-10.69,12.38-14.62.84,1.25-.37,2-.86,2.76-1.81,2.88-3.77,5.67-5.68,8.49-5.82,6.85-10.93,14.25-17.27,20.72A87,87,0,0,1,174.6,195.9a40.11,40.11,0,0,0-7.19,2.29c-2.3.47-4.63.83-6.9,1.43-8.39,2.2-16.36-.35-24.37-2.11-11.35-2.49-21-8.74-30.81-14.56a26.9,26.9,0,0,0-5.79-2.86,6.11,6.11,0,0,0-.75-.5A30.77,30.77,0,0,0,93,176.87l-1.1-.45c-6.59-3.38-13.75-4.12-20.95-4-16.77.37-32.23,5.14-45.92,15-8.2,5.91-12.92,14.66-18,23.1-4.11,6.87-6.87,14.17-7,22.27,0,3.32-.62,6.71,2,9.63,1.57,1.73,1.41,4.19,1.26,6.49-.06,1-.46,2.29,1.24,2.44a46.3,46.3,0,0,0,3.57,13,3.36,3.36,0,0,0,1,2.37c1.44,2.55,1.24,6.29,5.18,7.08.36.07.55,1,.81,1.5,2.51,5,5.84,9.59,7.38,15.11a9.31,9.31,0,0,0,7.19,7c.88,1.48,1.69,3,3.84,2.82,1.3-.09,1.51,1.22,2.11,2,3.52,1.7,7,3.64,10.49,5.21,2.76,1.23,5.2,2.88,7.85,4.19,3.1,1.54,5.09.76,5.57-2.6,2.67-18.6,12.23-33.39,25.31-46.29.7-.69,1.37-1.4,2-2.13s1.1-1.23,2.06-2.32l.12.06.06.07c-1.48,4.21-3.69,7.2-5.66,10.22-7.21,11-11.19,22.92-10.82,36.19a22.43,22.43,0,0,1-.81,7.31c-.73,2.33-2.2,3.34-4.67,3A18.71,18.71,0,0,1,62.94,314c-1.35-.52-2.12-2.05-4.3-2.21,2,3.12,4.69,4.18,7.69,4.68a49,49,0,0,1,5.84,1.5c3.39,1,6.7,3.46,10.61,2.28,1.56,2.21,3.6,1.37,5.4.58a12,12,0,0,1,6.66-.58c1,.13,1.31,1,1.81,1.73,3.32,1.88,6.22,1.12,8.85-1.39l4.87-1.34c1.65-1.62,4-2.56,4.7-5.09,2.83.33,5.62-.48,8.41-.43,5.19.07,9.16-2.66,10.53-7.67a21.56,21.56,0,0,0,.09-10.82,53.67,53.67,0,0,0-3.75-9.63c-3.29-7.26-6.9-14.4-8.62-22.29-1.9-8.67-.92-17.1,1.53-25.62.89.69.64,1.47.65,2.1a60.18,60.18,0,0,0,9.72,31.49,51.57,51.57,0,0,1,6.2,13.36,42.5,42.5,0,0,1,.37,12.59c-.7,4.56-2.93,8.2-7.11,11.57,7.22-2,10.73-14.64,7.68-24.6a29.6,29.6,0,0,0-3.28-8.77c-3-5.83-7.14-11.06-8.74-17.56-6.77-18.79-3.92-33.35,8.84-47,1-1.06,2.31-1.83,2.84-3.29,1.09-.81,2.16-1.67,3.3-2.41,3.33-2.17,6.8-1.15,8.52,2.44,4.17,8.71,5.46,18.06,5.81,27.53.3,8.23,1.12,16.22,4.73,23.8,6.17,13,13.42,17.47,27.72,17.07,5.57-.16,11-.86,16.08-3.17,8.43-2.07,13.66-8,18.07-14.94,4.13-6.45,8.51-12.71,13-18.92h0c4.11-3.44,9.12-4.6,14.2-5.62,2.18-.44,4.5-.23,6.52-1.4,10.11.72,15.63-5.39,14.49-15.28-.46-4,0-8-1.32-11.9-.24-.67.09-1.08.69-1.41a2.69,2.69,0,0,0,1.24-1.94c.85-5.18,3.23-10.32.42-15.63-.87-1.65,1.18-3.09.61-4.8l.27-3.72c.64-.31,1.61-.05,1.81-1.12,1.43-7.92,7.75-12.05,13.31-16.59,3.64-3,6.56-6.12,7.43-10.85,1.4-4-.18-7.74-1.49-11.38a91.47,91.47,0,0,0-8.22-16.81c-1.18-2.57-3.28-4.33-5.43-6-1-.8-1.1-1.3.12-1.82a43.72,43.72,0,0,0,11-7.18c.21-.19.71-.06,1.07-.07,3-.34,5.42-2,8.16-3A33.16,33.16,0,0,1,317,100.57c8.95.91,17.7,2.27,25.19,7.81a.94.94,0,0,0,.27.21l9.07,7.21c9.4,9,16.62,19.77,24.11,30.3.73,1,1.55,2,2.32,3,1.47,3.23,4.15,5.75,5.37,9.12,3.16,10,7.53,19.19,17.2,24.63,5.1,2.86,10.51,4.21,16.37,3.07a9.2,9.2,0,0,0,2,0c9.72-2.14,16.35,2.94,22.11,9.69,1.62,1.9,2.62,4.38,3.73,6.68,6.27,13.05,16.95,19,31.07,19.12a73,73,0,0,0,43.57-13.38c1.36-.94,3.86-1.33,2.59-4.3C519.67,206.75,516.43,206.53,513.18,206.48Zm-315.7-60.31c-3.61.75-6.6,3.22-10.33,3.32a20.75,20.75,0,0,1-15.19.2,11.1,11.1,0,0,1-5.84-1.89c.34-1.52-1-1.41-1.77-1.78-2.54-1.17-5.33-1.88-7.71-4.15l3.4.65a3.78,3.78,0,0,0,1.15.22c10.48,3.22,21.19,3.82,32,2.92A6.86,6.86,0,0,1,197.48,146.17ZM120.94,105c6.79,4.34,12.45,10.28,19.53,14.18,9.28,5.11,18.28,10.74,27.82,15.38,7.27,3.67,14.92,6.44,22.56,9.38-3.37.78-6.83,1.28-10.06.09-9-3.33-18.31-6.2-25.95-12.48a93.1,93.1,0,0,0-13.44-9.11,99,99,0,0,1-23.25-18.42C119.39,103.48,120.1,104.5,120.94,105ZM94.62,42.87h0l3.45-2.93c-5.19,7.85-6.89,16.34-4.62,25.54A67.64,67.64,0,0,0,100.37,82c8.78,15.75,20.35,29,35.7,38.62,7.09,4.45,14.2,8.84,20.84,14a36.32,36.32,0,0,0,9.53,5.25c3,1.12,5.88,2.37,8.81,3.57l-.17.69c-1.11-.13-2.23-.22-3.34-.39-10.77-1.65-20.47-5.85-29.85-11.41-18.57-11-34.5-24.48-44.72-43.89-1.87-5.38-3.82-10.74-5.6-16.15C88.18,62,88.57,52.15,94.62,42.87ZM89.5,50.4h0C88.66,57.21,87.84,64,90,70.77c.52,1.67,1.31,3.29,1.29,5.11,1.67,4.3,2.55,8.9,4.91,12.94h0c6.33,13.18,15.81,23.77,27.18,32.76,6,4.72,12.6,8.52,19,12.57,3.59,2.07,7.39,3.79,10.59,6.5.71,1.37,2.43,1.67,3.54,3.36l-13.76-8.11h0c-.77-.66-2-.68-2.5-1.72h0l-1.53-.75c-3.57-1.58-7.3-2.79-10.73-4.71l-.74-.41A37.79,37.79,0,0,1,110.69,116c-5.38-6.75-11-13.37-15-21.07-3-5.68-4-12-5.36-18.15C88.34,68,85.72,59.31,89.5,50.4Zm-3,8.89c-.06,6.87,1.71,13.45,3,20.1,1.1,5.51,2.17,11,5.19,15.89,7.17,12.28,14.83,24.23,27.38,31.78,6.06,3.64,13.11,5.37,19.28,8.92l0,0c1.72,1.59,4,2.29,5.84,3.68s4.24,1.5,5.2,3.81c-1.64-1-3.59-.83-5.37-1.38-7.65-2.35-14.89-5.72-22.33-8.61a42.74,42.74,0,0,1-19.45-15.31A123.87,123.87,0,0,1,86,76.3c-.47-4.8-1.63-9.58-.74-14.45C85.45,60.92,85.07,59.66,86.49,59.29ZM78.7,66.16a11.37,11.37,0,0,0,.94-3.93c1.69-2.42,3.27-4.94,5.65-7,.45,1.34-.31,2.3-.37,3.35-1.7,6.05-1.3,12.08.12,18.11,1.63,10.59,6.51,20,11,29.45a80.45,80.45,0,0,0,9.38,14.64,40.07,40.07,0,0,0,16.36,12.75c9.46,3.94,18.79,8.2,28.75,10.78.89.23,1.78,1,2.77.25,4.65,2.18,9.8,3.16,14.22,6.05L165,150.6c-6.24-1.32-12.5-2.6-18.74-4a98.4,98.4,0,0,1-38.72-18.1c-6-5.7-11-12.28-16-18.86a30.73,30.73,0,0,1-4.29-8c-1.85-5.08-3.94-10.08-5.66-15.2a57.19,57.19,0,0,1-3-18.86A1.49,1.49,0,0,0,78.7,66.16Zm-3.08,7.89c.17-1.88-.14-4.14,1.9-5.46-.88,7.73,1.29,15,3.84,22.07,1.45,4.06,3.13,8,4.68,12.07a31,31,0,0,0,4.79,8.4c4.87,6,9.31,12.4,15.25,17.48a80.51,80.51,0,0,0,25.26,14.73c8.22,2.94,16.57,5.52,25.3,6.56a11,11,0,0,1,2,.62c1.62,0,3.28-.13,4.56,1.19-1.24.07-2.51.49-3.71-.26-9.59,0-19.06-.51-28.25-3.87a99.77,99.77,0,0,1-46.1-34.06c-.92-1.63-1.73-3.31-2.76-4.86a41.1,41.1,0,0,1-7-23.7C75.32,81.32,75.28,77.67,75.62,74.05Zm-1.57,5.84a48.66,48.66,0,0,0,10.09,33.94c.57.91,1.11,1.84,1.71,2.73,5.26,7.83,12.64,13.44,20,19.05a82.46,82.46,0,0,0,49.28,17.27c6.6.15,13.16-1,19.75-.29l7.7-.59c0,.17,0,.34.07.5L179.55,154a9.09,9.09,0,0,0-3.77-.37c-2.43.74-5,.92-7.3,2.15a61,61,0,0,1-29.14-.28c-8.42-2.37-15.8-7.12-23.83-10.37l-.79.35,17.2,8.8c.46.24,1,.38,1,1-.09.05-.18.11-.27.15l-7-1h0a148.44,148.44,0,0,1-33-19.73c-7.33-5.82-11.32-13.92-14.94-22.25-1.09-1-1.25-2.45-1.75-3.74,1.89.55,2,2.42,2.89,3.76,4.37,7.48,9.32,14.5,16.16,20l1.22-.07c-7.17-6.07-12.4-13.66-17.13-21.66-.74-1.27-1.59-2.48-2.39-3.71C69,98.67,70.92,89.36,74.05,79.89Zm42.08,72.4c-3.72-1.25-7.4-2.6-11.16-3.72-13-3.87-21.13-12.95-26.55-24.92-.24-.53-.49-1.05-.74-1.58l-3.6-11.71a18.74,18.74,0,0,1-1.88-6.77,13.14,13.14,0,0,1,2.8,6c.59,1.35,1.22,2.69,1.77,4,5,12.24,12.78,22.06,24.28,28.78,4.67,2.72,9.38,5.39,14,8.21C115.45,150.83,117.53,150.66,116.13,152.29ZM72,112c-.06-.93-.83-2.1.56-2.77q2.1,6.6,4.21,13.21c1.22,5.06,4,9.3,7.22,13.24a55.9,55.9,0,0,0,11.71,11c3.66,2.13,8,2.47,11.75,4.2,5.2,1.5,10.28,3.47,15.64,4.31,4.19.65,8.32,2,12.66,1.45h0l4.58,1.15c1.42,1.51-.23,1-.71,1-4.15.06-8.31.07-12.47.09-.09.7.53.78.91,1.07,5.83.06,11.67.37,17.48-.52,4.74-.06,9.5.17,14.19-.79l9.16-2a25.89,25.89,0,0,1,3.31-.84c1.14-.14,2.19-1.52,3.45-.31h0l-10.16,3.25h0l-.28,0c-1.55.16-2.92,1.33-4.58.86-1.1.38-2.18.85-3.3,1.13-13.71,3.35-27.45,3.93-41-.32-15.6-4.87-28.74-13.49-38.88-26.45C75,126.8,72.46,119.65,72,112Zm91.62,48.17c-1.21,1.67-3.16,1.85-4.9,2.44-4.33,2.22-9.16,2.7-13.75,4-1.46.18-2.92.35-4.38.55a77.14,77.14,0,0,1-27.31-.68c-14.41-3.15-23.81-12.73-31.66-24.37-1-.88-2.31-1.62-1.87-3.32.8,1.08,2.13,1.69,2.69,3a85.18,85.18,0,0,0,17.38,13c18.53,10.62,38.18,12.09,58.59,6.95C159.94,160.69,161.85,160.7,163.59,160.19Zm-76.75-3.85c-4.28-5.24-8.24-10.64-10-18.13l10,13A42.83,42.83,0,0,0,99.71,162.4c14.48,8.17,29.89,8.06,45.62,5,7.9-.68,14.8-4.54,22.15-7,1.85-.61,3.57-1.73,5.65-1.47-2.66,1.66-5.31,3.35-8,5C142.3,177.85,106.48,176.92,86.84,156.34Zm17.81,14c1.15-.4,1.92.17,2.73.43,18.43,6.08,36.42,5.06,54-3.25,6.34-3,11.91-7.32,18.12-10.53a8.76,8.76,0,0,1,4-2.09,7.24,7.24,0,0,1-3.56,3.1c-8.24,6.57-16.52,13.07-26.3,17.32-14.9,6.48-29.59,6.6-44-1.48C107.91,172.88,106,172.07,104.65,170.35Zm13.63,10.34a7.29,7.29,0,0,1-3.4-2.35l.35-.72,7,2.82a52.1,52.1,0,0,0,30.06-2.9c12.35-5,22.61-13.1,32.55-21.57a40.16,40.16,0,0,1,23.59-10.06,6.33,6.33,0,0,1,4-.26,11.81,11.81,0,0,1-3.92,1.35h0c-3.59,1.35-7.15,2.79-10.78,4-7.7,2.62-12.92,8.41-18.18,14.13-7.52,8.2-15.64,15.43-26.71,18.63C140.81,187.26,129.2,188.22,118.28,180.69Zm11.8,6.61c3.09.2,5.79.57,8.49.52,9.85-.18,18.8-3.51,27.34-8.13,4.13-3.09,7.83-6.66,11.66-10.08h0l4.2-4.51c4.34-4.66,8.63-9.41,14.71-11.94l3.07-1.3c-.35,1.4-1.59,1.7-2.69,2.17h0a6.3,6.3,0,0,0-1.56.77q-8.87,8.05-17.67,16.17c-3.73,3.27-7.19,6.85-11.36,9.6h0a29.66,29.66,0,0,1-10.19,5.93,71,71,0,0,1-20.47,3.07C133.75,189.18,131.8,189,130.08,187.3Zm11.59,4.93a1.83,1.83,0,0,1-.74,0l.74,0L138.73,191c6.08-.71,12.05-1.42,17.69-3.72,6.2-1.69,10.78-5.92,15.46-9.93,6.77-5.82,13.42-11.76,19.83-18A35,35,0,0,1,209.09,150c.77-.17,1.79-1,2.46.28a.47.47,0,0,0-.61.46c-12,6.28-23.05,13.73-32.21,23.8-4.79,3.71-9.57,7.43-14.39,11.11a41.91,41.91,0,0,1-15.46,7.51A19.38,19.38,0,0,1,141.67,192.23Zm11.8,1.93h-.17c-.15-.36-1.94-.32-.29-1.1,2-.92,4-1.64,5.9-2.64,5.35-2.81,9.63-7.08,14.45-10.63,1.09-.8,1.92-2.16,3.56-2C171.37,186.5,164.48,193.3,153.47,194.16Zm12.78.4c0-.17-.18-.46-.12-.5,10.58-7.78,17.9-18.83,27.52-27.57,2-1.85,4.06-3.67,6.09-5.51.12-.62,1.55-.76.66-1.76-8.43,6.52-15.31,14.6-22.55,22.32-.8.86-1.58,1.74-2.38,2.61a34.43,34.43,0,0,1-13.05,10.79A23.52,23.52,0,0,1,156,196c-.12-.25-.24-.5-.37-.75a30.46,30.46,0,0,0,10.62-3.95c3.84-2.31,6.48-5.82,9.37-9.09h0A74.06,74.06,0,0,1,200,158.35a31.63,31.63,0,0,1,9.12-4.68l-9.06,8a112.45,112.45,0,0,0-12.88,15.73C182,185.3,175.93,192.14,166.25,194.56Zm13.94-5.83Zm25.53-23.49c-6.91,9.85-15,18.44-25.5,24.6l0-1.09c3.79-2.5,6.71-5.9,9.47-9.43,4.51-5.76,11-9.41,15.81-14.78,0,0,.23.06.23.11A2.89,2.89,0,0,1,205.72,165.24ZM214,152.67l-3.39,4.77c-.69.25-.91.9-1.25,1.45-5.48,6.56-12.45,11.53-18.55,17.43a44.39,44.39,0,0,1-3.87,4.72c-.64.6-.14-.46-.33-.67,1.23-1.68,2.47-3.35,3.7-5a3.08,3.08,0,0,1,.65-.88c1.58-2.63,3.75-4.79,5.68-7.13,4.56-5.55,10.52-9.65,15.35-14.92l1.82-1.27a7.59,7.59,0,0,1,4-2.2Zm-.39-4.13c-1.39-.54-3,1-4.3-.43a41,41,0,0,1,9.22-2.06C217.05,147.89,215.2,148,213.6,148.54ZM1.82,232.75c-.55-.93-.15-1.89-.07-2.83.75-9.85,6.21-17.64,11-25.8,5.69-9.64,13.33-17,23.53-21.59,3.58-1.61,7.24-3.06,10.86-4.58l.45,1C28.47,193.56,9.82,208.6,1.82,232.75ZM3.59,241a18,18,0,0,1,.89-11.28c6-15.33,16.24-27.45,29.22-37.38,7.5-3.68,14.9-7.57,22.62-10.81,12.71-5.32,24.78-4,36.43,3,1.26.77-.1.63-.21.92-18-6.72-34.73-3.81-50.82,5.92-5.46,3.3-10,7.62-14.77,11.72C16.6,212,8.51,222.46,5,236,4.6,237.63,4.66,239.45,3.59,241Zm58.82-38.1c9-4,18.4-4.52,28-2.73,9.47,1.76,19,3.34,28.47,4.95.91.15,1.89.66,2.84,0l2.87.61c-.54,1.63-2,1.37-3.19,1.41a118.08,118.08,0,0,1-22.62-1.26,125.88,125.88,0,0,0-32.62-.64,38.5,38.5,0,0,0-11.65,3.07C41.92,214,29,219.21,18.77,229a10,10,0,0,1-3.63,3.09c.09-.14.17-.29.26-.44l0,0a11.29,11.29,0,0,1,3.21-4l2.48-2.77C33.8,215.55,48.12,209.25,62.41,202.91ZM52.3,206.32h0c.48-1.57.48-1.57,3.72-3l3.51-2.36c8.35-4.08,16.9-7.32,26.45-7a79.84,79.84,0,0,1,17.54,2.67l.12,0,11.19,4.53.31.2,3.77,2.39c-6.11-1-11.39-2-16.69-2.82-6.2-1-12.38-2.06-18.61-2.81-9.74-1.17-18.57,2.06-27.21,6h0Zm69-3.35-.53-.19c-6.44-3-12.76-6.31-19.76-7.91-11.12-3.11-22.14-3.11-33,1.09a40.72,40.72,0,0,0-8.75,4.2c-4.48,2.13-8.49,5-12.67,7.64-7.69,4.31-15.47,8.47-22.76,13.47-1.11.76-2.41,1.37-3.06,2.68a33.89,33.89,0,0,0-8.22,9.62L9,238.89c-.47-1.36.33-2.49.77-3.64a52.91,52.91,0,0,1,14.93-20.94c10.84-9.6,24.33-14.12,37.46-19.5,12.61-5.16,25.06-4.7,37.89-1.81,7.72,1.73,15.06,4.49,22.41,7.29h0c3.42,1.82,7.15,2.82,10.84,4C129.09,205.31,125.25,203.64,121.3,203ZM84.13,189.21c-2.79-1.89-6-1.62-9.1-1.65-13.54-.14-25.18,5.29-36.22,12.43a130.7,130.7,0,0,1-12.37,6.84c-.56.29-1.15,1.13-1.93.3,3.18-2.79,6.31-5.63,9.55-8.35,10.28-8.64,21.86-14.35,35.45-15.27,14.76-1,27.88,4.92,41.17,10.08a9.41,9.41,0,0,1,1.46,1C102.56,192,93.52,189.71,84.13,189.21Zm-79.3,54.1c2.51-13.57,7.55-25.07,18.19-33.55,9.3-4.27,17.88-9.83,26.79-14.79,7.36-4.09,15.34-5.83,23.68-6.23,1.63-.24,3.31-.85,4.75.57-1.32-.12-2.58.67-3.92.26a191.6,191.6,0,0,0-31.22,11.6c-17.7,8-31,20.26-36.66,39.57A4.07,4.07,0,0,1,4.83,243.31Zm7.65-6.57c4.43-4,8.29-8.73,13.28-12.06,11.24-7.5,23-14.2,36.26-17.39,11.51-2.77,23.28-1.94,34.92-.4,9.39,1.25,18.75,2.15,28.21.94.42-.05,1-.3,1.15.45a21.77,21.77,0,0,1-7.81,2.56c-7.11,1-14.13,0-21.15-1-8.48-1.18-16.91-2.61-25.53-.8a129.15,129.15,0,0,0-37.12,14.14c-7.84,4.43-15.19,9.47-20.68,16.84a107.5,107.5,0,0,0-7.34,12.09C6.39,246.18,8.72,241.19,12.48,236.74ZM9.2,263.92c-2.36-5.14-1.78-10,.89-15,4.05-7.47,9.22-14,16.23-18.78A127,127,0,0,1,58.7,214.06c11-3.58,22-5.61,33.66-3.44,9.3,1.73,18.71,3.19,28.38,1.58-.79,2.39-3,1.87-4.37,2.76a46.59,46.59,0,0,1-21-1.46,45.93,45.93,0,0,0-24.48-.3A135.88,135.88,0,0,0,35,227.87c-13.85,8-22.85,19.31-24.74,35.59C10.14,264.21,9.7,264.12,9.2,263.92Zm4.87-1.12c-.51,2.8-.34,5.73-.49,8.86-1.68-1.68-1.67-3.66-2.22-5.41.57-13.31,6.16-24.25,16.69-32.16,13.89-10.45,29.72-16.88,46.69-20.51,7.64-1.63,15.08-.55,22.45,1.56.85.24,1.7.52.15,1.12-7.34-.89-14.7-1.53-22,.12C55.41,220.87,38.15,230.15,24,245,19.2,250.11,15.36,255.79,14.07,262.8Zm6-10.38c3.94-6.24,9.28-11.19,15.08-15.57,17.4-13.12,36.34-21.84,58.91-19.63,6.06.6,12.1,1.44,18.41,1.31-.75,1.4-2.07,1.3-2.81,2.07-9.47,2.12-19.14,2.18-28.76,2.64-25.69,1.24-46.24,12-61.57,32.72h-.1s0,.06,0,.09c-1.28,2.45-1.93,5.24-4.08,7.19C16.33,259.41,17.49,255.6,20.06,252.42Zm-.15,28.05c-2.73-3.52-4.58-7.32-4.41-11.89,3.12-14.43,13.64-23,24.65-31.19C50,230,61.47,227,73.33,225.11c1.32-.21,2.64-.81,4-.33L102.91,223h0c1.6-.37,3.14-1.28,4.85-.5-1.46.54-2.8,1.56-4.5,1.26a21.34,21.34,0,0,1-6.55,1.52c-6.15.66-12.33.21-18.49.52-3.69.87-7.39,1.7-11.08,2.6-11.77,2.87-21.43,9.64-30.73,17-10.75,8.48-15.78,19.77-15.83,33.36C20.58,279.4,20.64,280,19.91,280.47Zm84.6-54.19c-6.23,3.41-12.81,5.47-20,5.1-5.35-.28-10.71-.49-16.06-.73-1.88.42-3.7,1.62-5.68.36l4.86-1.35a66.22,66.22,0,0,1,17-2.69c7,0,14.08.13,20.83-2.39C106.54,225.92,105,226,104.51,226.28Zm-79,66.16c-2.09-1.52-2.65-3.92-3-6.17-2.1-14.63,1.06-27.7,12.51-37.75a90.31,90.31,0,0,1,21.24-14.25c8.32-2.67,16.81-2.78,25.39-1.88a40.88,40.88,0,0,0,10.54-.28L98,230.54h0l.3.76c-1.69.66-3.22,1.77-5.14,1.73-5.06,2-10.42,1.94-15.7,2.3a73.77,73.77,0,0,0-18.23,3.43c-20.86,6.86-33.34,29.16-33.91,46.74a29.68,29.68,0,0,0,.6,6.45C25.77,292.12,25.66,292.28,25.54,292.44Zm1.31-2.86c-.7-27.28,18.37-49.2,45.52-52.3,1.17-.13,2.35-.26,3.53-.34,7.95-.53,15.9-1.05,23.25-4.6l1.79-1.09c1,.5,1.62-1.69,2.67-.27-1.44.64-2.48,2-4.08,2.34-3.16,1.07-5.82,3.2-9,4.15-4.63,1.35-9.22,2.85-13.84,4.23-9.09,2.72-18.35,5.42-25.66,11.65-11.24,9.58-20.44,20.77-23.21,35.94C27.59,290.36,27.35,290.09,26.85,289.58ZM34,296.21c-.17,1-.16,2.28-1.13,2.58s-1.43-1.13-2.23-1.65l0,0c-1.22-4.08-2.17-8.2-.58-12.38,5.19-13.6,13.37-24.93,25.65-33,8.61-5.65,18.65-7.76,28.21-11,1.39-.48,2.76-1.52,3.81-1.19l-4.45,2.06-.54.25c-4.53,2.11-9.19,4.29-13.92,6.32-4.93,2.11-9.67,4.44-13.47,8.32C44.42,267.68,36.83,280.66,34,296.21Zm5.81,6.56a5.1,5.1,0,0,1-4.55-6.22,71.13,71.13,0,0,1,11.06-26.83c6.56-9.84,14.41-17.79,26.1-21.49,6.83-2.16,13.4-5.18,20.08-7.81,4.84-2.95,10-5.37,14.24-9.27.38-.28,1-.49,1.11-.85,1-3.15,3.94-4.41,6.14-6.36,1.07-.94.35.38.5.62a55.51,55.51,0,0,1-13.63,12.85l-8.14,4.33c-5.26,3.56-11.36,5.4-17,8.22-9.49,4.76-18,10.51-22.63,20.66a139.47,139.47,0,0,0-7.51,20.19c-.92,3.32-1.94,6.61-3,9.88C42.22,302,41.47,303,39.84,302.77ZM44.07,305c-1.42-.85-1.59-1.4-.75-2.9a27.26,27.26,0,0,0,2.09-5.8A165.3,165.3,0,0,1,52,276.43c3-7,6.42-13.77,12.86-18.36a80.83,80.83,0,0,1,17-9.43,82.47,82.47,0,0,0,12.13-6c1.66-1,3.2-2.6,5.42-2.55-1.44,2.68-4.68,3.39-6.36,5.81-3.9,2.64-7.83,5.24-11.7,7.92A65.72,65.72,0,0,0,64,271.68a97.13,97.13,0,0,0-13.1,30.48C49.52,307.69,48.76,307.81,44.07,305ZM82.8,262.84c-12.43,12.47-21.48,26.79-24.38,44.52-.72,4.44-1.66,4.67-5.56,2.15-.58-.38-1.16-.74-1.73-1.14s-1-.84-.56-1.69c2.87-6,3.66-12.63,6.28-18.71,6.36-14.83,15.38-27.37,29.51-35.77a25.09,25.09,0,0,0,6.74-5.07l1.85-1.3c1,.72-.12,1.33-.11,2l-.51.89C90.68,253.59,87.11,258.51,82.8,262.84Zm-8.42,54.07a2.2,2.2,0,0,1-2.44-.51c-.48-.45-.25-.88,0-1.29,2.15-2.9,2.14-6.34,2.08-9.64a61.5,61.5,0,0,1,10.56-35.69c2.67-4.06,5.08-8.29,7.61-12.44l.32.21c-.84,2.07-1.65,4.17-2.54,6.23-5.22,12.07-9.8,24.26-9,37.82.2,3.7-1.07,7.39-2.54,10.86C77.61,314.39,76.51,316.14,74.38,316.91Zm8.37,3.26,0,.07,0-.06h0c-.18-.58,0-1.47-1-1.44-1.53,0-3.45.8-4.29-.89s1.3-2.53,1.94-3.86c1.25-2.61,1.63-5.51,3.06-9,.89,4,1.79,7.22,2.23,10.47C85,317.19,85,319.29,82.75,320.17Zm2.47-.35c1.53-3.35.75-6.6-.16-9.85-3.55-12.65-2.13-24.93,2.72-37,2.64-6.57,5.35-13.11,8-19.67l.19-.1,0-.21a5.06,5.06,0,0,0,.47-.67A49.65,49.65,0,0,0,99.06,247c4.66-7.46,11.29-13.25,16.69-20.08-.22,2.34-1.91,3.88-2.76,5.84-1.12,1.35-2.17,2.78-3.39,4-4.89,5-7.33,11.76-11.85,17.13-2.3,2.73-3,6.77-4.52,10.21-5,11.5-6.53,23.24-2.62,35.39,1.26,3.93,2.59,7.89,2.76,12C93.67,318.71,91.59,318.88,85.22,319.82Zm7.21-.74c2.34-2.33,2.54-4.66,2.42-7.05a31.45,31.45,0,0,0-1.48-8.1,100.18,100.18,0,0,1-3.14-12.87c-1.41-7.88.16-15.31,3.52-22.5,0,1.43-.09,2.86-.14,4.3-.78,7.93.6,15.53,3.15,23.05,1.79,5.27,3.31,10.69,2.39,16.4C98,315.26,97.53,318.8,92.43,319.08Zm6.09,2.12c-1.21-.58-2.28-1.25-.83-2.84a11.11,11.11,0,0,0,2.64-7c1.24-4.63-.21-9.08-1.64-13.24a68.73,68.73,0,0,1-4-26.25c.93-4.73.92-9.68,3.5-14.39a19.12,19.12,0,0,1-.17,2.36c-3,14.06-1.27,27.73,3.23,41.21,1.73,5.21,3.29,10.51,3.54,16.06A4.48,4.48,0,0,1,98.52,321.2Zm10-2.58c-.94.45-2.06.93-2.61-.62.34-4.91-1-9.55-2.43-14.15-2.81-9.14-5.39-18.29-5.55-28-.23-14.18,3.08-27.1,12.71-37.94.61-.7.9-1.85,2.18-1.73-.17.49-.33,1-.5,1.48v0c-.28.63-.59,1.24-.82,1.88-4.71,12.86-6.12,26.29-5.53,39.78.51,11.55,1.81,23.2,8.58,33.28C113.51,315.61,111.21,317.33,108.52,318.62Zm12.62-6.14a3.51,3.51,0,0,1-4.6-.38,16.6,16.6,0,0,1-4.61-7.46,94.51,94.51,0,0,1-4.61-31.42c.43-15,3.2-29.54,9.38-43.32a5.62,5.62,0,0,0,1-2.09c3-6.9,6.46-13.43,12.86-17.86,1.44-1.62,3.56-2.15,5.31-3.27-1,2.39-3.39,3.17-5.17,4.67-1.25,1.39-2.64,2.67-3.74,4.17-13,17.73-18,37.57-15.44,59.36,1.39,11.87,5.64,22.9,9.74,34C121.69,310,123,311.35,121.14,312.48Zm1.71-40.4c2.41,6.67,5.9,12.86,8.49,19.45,2.07,5.28,2.88,10.63.54,16-1.28,3-3.61,4.4-7,4.45,1.74-4.36,1.25-8.46-.29-12.54-2.41-6.34-5.47-12.45-7-19.08-2.11-9-.79-18,.47-27a12.07,12.07,0,0,1,2.06-7c-.19,1.5-.37,3-.55,4.51A50.3,50.3,0,0,0,122.85,272.08Zm9.68-57.46c-11.69,16.86-17.11,35.66-17.43,56.05a43.63,43.63,0,0,0,3.63,17.8c1.76,4.17,3.47,8.36,5,12.62,1.08,3,1.67,6.15.14,9.87-2.65-5.36-4-10.57-5.83-15.61-8.8-24.57-7.72-48.52,5-71.58a40.13,40.13,0,0,1,13.87-15.24C135.87,211.28,133.86,212.7,132.53,214.62Zm-.81-13.69-12.6-5.1-.54-.25-5.71-3.05c-.82-1.27-2.23-1.56-3.48-2a168.73,168.73,0,0,1-19.88-8.93c-11.14-5.92-22.42-5.58-33.84-.95-5.65,2.29-11,5.12-16.46,7.89-.7.36-1.32,1.25-2.32.67,2.67-2.17,5.29-4.41,8-6.5a39.17,39.17,0,0,1,20.15-8.44,57.06,57.06,0,0,1,25.84,3.05c6.95,3.47,13.92,6.92,20.55,11,7,4.32,14.23,8.09,22.23,10.17,4.08,1.05,8.24,1.84,12.95,2.88C141.2,203.41,136.47,201.78,131.72,200.93Zm73.14-21.49c8.23-6.18,16.86-11.67,26.49-15.4,9.84-3.81,19.78-6.32,30-1.08a.66.66,0,0,0,.36.39l.93,1c-1.09-.11-1.88-.13-2.65-.28a36.13,36.13,0,0,0-27.84,5.43c-10,6.63-20.25,12.88-32.2,15.48-.85.18-2.14,1.67-2.87-.31A51.31,51.31,0,0,0,204.86,179.44Zm-9.46,7.76c9.88-1.52,18.91-5.31,27.43-10.39,3.47-2.06,6.92-4.17,10.28-6.42,11.07-7.44,22.76-7.07,34.78-2.9,1.33,2,4,3.13,3.92,6a60,60,0,0,0-6.59-3.86c-10.08-4.34-19.67-2.19-28.9,2.7-5.38,2.85-10.1,6.82-15.65,9.45-10.77,5.1-22.37,7.51-33.71,10.77-.5.14-1.17.55-1.32-.45C188.91,190.52,191.84,188.24,195.4,187.2Zm-21.55,10.28,1.2-.6h0c2.63-.41,5.3-.69,7.67-2.08,6.08-1.59,12.15-3.19,18.23-4.76,11.42-2.94,22.29-7.09,31.95-14a32.61,32.61,0,0,1,7.39-4.27c9.35-3.56,18.62-5,27.69.95,3.43,2.25,5.76,5,5.36,9.38-.71,2.67-2.14,2.07-3.56.7-7.59-7.31-16.63-7.77-26.18-5.48-7.45,1.78-14.15,5.42-20.77,9.08-10.66,5.89-21.27,11.67-33.91,11.82-4.88.06-9.76.21-14.65.31a6.15,6.15,0,0,1-3.75.09A7.78,7.78,0,0,1,173.85,197.48Zm91.78-16.2a3.87,3.87,0,0,1-.9.16c-.57-.14-1.15-.29-1.7-.48-5.72-2-11.36-1.39-17.12.09-8.21,2.11-15,6.87-22,11.25-10,6.26-20.72,10-32.62,9.63-3.68-.12-7.35-.67-11-1a9.22,9.22,0,0,1-6.06-1.21l4.57-.16c.18-.07.35-.22.52-.21,11.57.73,22.75-.51,33.21-6,7.31-3.85,14.5-7.94,22-11.38,6.74-3.09,13.68-5,21.14-4.37A17.6,17.6,0,0,1,265.63,181.28ZM156.38,204.73c2.74,1.11,5.48,2.19,8.21,3.32a21.52,21.52,0,0,1,9,7.36c5.71,7.63,11.52,15.19,17.28,22.78,5,6.66,11.6,10.17,20.1,9.58l-.26-.28a.7.7,0,0,1,.26.28c5.77.19,11-1.93,16.18-4,1-.38,1.83-1.21,3-.95-3.15,2.63-5.69,6-9.38,8-10.49,5.78-26.64,4.65-36.44-6.49-5.2-5.92-8.68-12.89-12.86-19.44-4.43-6.94-8.42-14.3-15.33-19.29C156.25,205.31,156.32,205,156.38,204.73Zm63.81,50.16c-1.48,2-3.7,3.1-5.63,4.57-21.09,8.3-39-3.75-40.71-27.88a11,11,0,0,1,1.2,1.64,50.25,50.25,0,0,0,10.22,14c9.12,9.08,25.57,11.25,36.14,4.85C222.25,253.54,220.8,254.08,220.19,254.89Zm-13.91,17.18h0c-1.18-.1-2.26.79-3.47.34-6.24,2.36-12.72,2.3-19.21,1.78a19.52,19.52,0,0,1-15.23-8.91,47.08,47.08,0,0,1-8.65-26.51c-.14-9.76-1.27-19.44-4.81-28.67a4,4,0,0,1-1.15-2.55,2.53,2.53,0,0,1,2,1.81c4.3,8.78,9.36,17.23,11.18,27,.61,3.29,1.22,6.58,2,9.84,1.9,8.21,4.75,15.83,12.59,20.45,6.35,3.73,13,6,20.47,4.94l2.07-.57c2.5.13,4.81-1.16,7.67-1.36C209.94,271.34,207.91,271.21,206.28,272.07Zm26.46-28.34a2.62,2.62,0,0,1-.49.61c-3.42,5-6.88,10-10.24,15.1a22.07,22.07,0,0,1-14.68,9.94c-1.24.24-2.46.58-3.69.87-.49,0-1,0-1.47.08-15.06,1.41-26.51-6.33-30.76-20.83a29.66,29.66,0,0,1-1.22-4.87c-1.38-12-6.14-22.74-11.43-33.35a3.08,3.08,0,0,1-1.35-2.87,5.83,5.83,0,0,1,2.66,2.78c4.55,6.32,8.89,12.77,11.32,20.28,1.37,4.2,2.79,8.41,3.82,12.71,4.29,17.94,28.14,23.68,39.71,16.25a17.54,17.54,0,0,0,9.1-8.63l8.15-8.74a6.54,6.54,0,0,1,2.38-2.85C235.11,242,233.69,242.75,232.74,243.73Zm5.11-6.69a33.17,33.17,0,0,0-6.71,3.68c-4.88,2.06-9.7,4.32-15,5.29-2,.37-4.07.48-6.12.72a21.16,21.16,0,0,1-17.95-9.66c-5.29-7.71-11.54-14.68-17-22.28-1.84-2.58-3.73-5.23-6.76-6.66l-9.88-3.89-1.79-1c1.72-.64,3.17.57,4.73.28a41.43,41.43,0,0,1,10,5.15,47.4,47.4,0,0,1,10.9,9.27c4.78,5.16,8.64,11.19,14.52,15.3h0c5,3.92,10.72,4.6,16.74,3.77a114,114,0,0,0,16.11-3.72c7.23-2.09,14.54-3.5,22.12-2.75l3,1.24C248.43,232.47,242.85,233.9,237.85,237Zm-53.54-19.66c3.94,1.36,7.09,4,10.33,6.37,6.17,4.59,12.93,7.46,20.72,7.52A83.05,83.05,0,0,0,234.65,229c4.11-.94,8.2-2.29,12.49-1l1.48,1a.49.49,0,0,1,0,.11,64.58,64.58,0,0,0-15.49,2c-4.74,1.28-9.51,2.42-14.28,3.61-6.34,1.58-12.62,1.81-18.74-1C193.35,229.75,189.21,223.22,184.31,217.38Zm82.47,11.34c-.46,1.06-1.92,1.26-3.09,1.46a16.56,16.56,0,0,1-9.25-1.13c-6.45-2.6-12.93-3.93-19.79-1.46-3.82,1.37-7.89,1.63-11.89,2.12-9.86,1.22-19-.45-27-6.69-1.2-.93-2.88-1.37-3.62-3.16l7.48,2.17.12,0a34.76,34.76,0,0,0,15.17,1.09c8-1.06,16-2.21,24-3.16a44,44,0,0,1,13.83.31,29,29,0,0,1,12.36,6C265.45,227.29,267.32,227.5,266.78,228.72Zm2-2.2c-.87.57-1.15-.43-1.42-1-5-10.37-14.29-13.39-24.69-14.58-7.58-.88-14.89.68-22.19,2.33-6.7,2-13.42,3.87-20.52,2.11-.41-.1-1.17-.28-1.5.42l0,.05h0c2,1.31,4.21,1.42,6.47,1.47,4.78.11,9.35-1,13.91-2.21,8.29-2.17,16.62-4,25.28-2.69,8.21,1.29,16,3.5,20.64,11.26-.57.56-1.1.2-1.57-.14-6.45-4.61-13.78-5.33-21.4-4.94A174.48,174.48,0,0,0,222.14,221c-8.42,1.41-16.78,1.89-25.07-.69h0c-8.73-2.45-16.3-7.1-24.17-12.92a77.27,77.27,0,0,1,17.52,6,10.1,10.1,0,0,0,5.16,2.13c.61.26,1.21.87,1.84,0a1.78,1.78,0,0,0,.5.19c0-1.3-1.41-.9-1.9-1.7l1.59-.24h0c.77.15,1.53.33,2.3.44,6.73,1,13.26-.1,19.71-1.92,6.2-2.44,12.37-4.91,18.91-6.34a41.28,41.28,0,0,1,12.84-.35h0a29,29,0,0,1,16.93,12.07,16.31,16.31,0,0,1,2.54,5.3C271.24,224.65,270,225.7,268.76,226.52Zm3-7.46c0,.17-.25.43-.44.75-4.87-8.13-11.27-14-20.95-15.36-7.25-1.66-14,.42-20.79,2.65-3.73,1.24-7.37,2.77-11.08,4.09-7.16,2.52-14.48,2.62-21.88,1.4a22.34,22.34,0,0,0-5.37-1c-.05-1.81,1.37-.85,2-.89,4-.27,8-.15,12-.57,7.5-.8,14.35-3.67,20.91-7.25,2.73-.53,5.16-1.88,7.72-2.88,11.86-4.6,22.28-2.22,31.69,6.09C269.48,209.59,270.39,214.38,271.72,219.06ZM244,192.35c-2.7,1.32-5.53,2.37-7.9,4.28-3.44,1.85-7.17,3.13-10.4,5.39-4.72,2.1-9.32,4.49-14.36,5.8a5.09,5.09,0,0,1-3.14.85c-.09-.29-.18-.58-.26-.87l3-.89,1-.81a29.89,29.89,0,0,0,3.5-1.44c5.45-3.08,10.91-6.14,16.27-9.36a32.78,32.78,0,0,1,13.8-4.44C246.06,192.35,244.64,192.05,244,192.35Zm4.15-.38c9.2-3.13,23.7,5.8,22.61,18.24a32.38,32.38,0,0,0-15-12,27.64,27.64,0,0,0-16.38-1.39c.82-2.26,3.17-2.19,4.84-3.14A39.09,39.09,0,0,1,248.19,192Zm24.47,8c-.76,2.06-1.43,2-2.58.34-6-8.68-14.6-11.33-24.63-10.69a7.05,7.05,0,0,1-4.1.34c1.27-.81,2.06-1.47,3.21-1.37,8.55-3.29,16.79-3.36,24.78,1.81C273.37,193,274.36,195.41,272.66,200Zm1-9.12c-1,.89-1.54-.39-2.18-.81-7.32-4.72-15-6.59-23.6-3.81-13.19,4.24-24.66,11.67-36.25,18.93-7.75,4.38-16.21,4.43-24.74,4a127.29,127.29,0,0,1-21.79-5.8,35.14,35.14,0,0,0-5.15-1.09c-.62-.27-1.33-.44-1.41-1.3l10.85,0c4.19.52,8.4.92,12.57,1.58a58.88,58.88,0,0,0,41.14-8c4.54-2.77,9-5.79,13.66-8.26,9.8-5.14,20-7.47,30.53-2.18,2.2,1.1,4.84,1.74,6.22,4.11C274,189,274.55,190,273.67,190.84ZM237,160.31c-12.12,3.78-22.79,10.15-32.87,17.67-1.14.85-2.11,2.07-4.44,2.12,3.46-3.71,6.58-7,9.66-10.36A54.67,54.67,0,0,1,234,154.12c11.83-3.62,23.16-3.29,33.08,5.34,3.41,3,6.71,8.79,6.64,11.83C263.72,159,252.07,155.59,237,160.31Zm38.76,9.11C271.44,158.91,264,153.09,254,151c-9.68-2-19,.18-28,4,7.41-6.45,15.68-10.75,25.69-11,11.54-.29,20.28,5.79,23.72,16.63A16.32,16.32,0,0,1,275.71,169.42Zm2.49-1.13c-.14-16.9-12.27-26.53-28.21-26.47a29.47,29.47,0,0,1,10.79-3c8.2-.75,14.88,2.61,20.2,8.45C286.47,153.34,285.22,161.15,278.2,168.29Zm7.39-8.33c1.33-6-.07-11.2-4.51-15.19-7.33-6.6-15.8-9.47-25.63-6.73a87.23,87.23,0,0,0-24.57,10.58,9.69,9.69,0,0,1-3.94,2.45c1.17-1.39,2.1-3,3.82-3.8,9.36-7.29,19.64-12.81,31.36-15.07a24.7,24.7,0,0,1,26.06,12.25C291.09,149.69,290,156.5,285.59,160Zm4.53-3.17c2.9-6.59,1.1-12.21-3.42-17.2-7-7.77-15.64-11-26.05-8.77-10.8,2.29-20.13,7.72-29.3,13.53l-4.44,4.5c.29-2.79,2.56-4.14,4.32-5.86,9.14-9.79,19.82-16.67,33.54-17.93,2.79-.26,5.47.38,8.2.54l1.54.45,6,2.46c6.55,4.26,11.95,9.51,14.66,17.07C295.62,151.73,294,155.48,290.12,156.79ZM296.05,144l-1.77-3.91a39.74,39.74,0,0,0-8.61-9.54,27.23,27.23,0,0,0-14.25-6.19c-10.23-1.79-19.22,1.69-27.71,6.83-7.83,4.74-14.09,11.28-19.7,18.45h0L220.87,154h0c-.6,0-.62,1.09-1.4.7h0q1.93-3.32,3.88-6.63l1-1c.27-1.43,2.14-1.88,2.16-3.48,5.57-9.74,13.79-16.86,23.24-22.48a22.59,22.59,0,0,1,20.69-1.79c3.37,1.36,6.75,2.71,10,4.3a28.28,28.28,0,0,1,14.87,15.93A6.69,6.69,0,0,1,296.05,144Zm-9.39-23.05h0c1.18,2.43,2.35,4.85,3.53,7.27-5.73-4.94-12.61-7.39-19.38-10a24.89,24.89,0,0,0-15.93-.47c-6.82,1.85-11.85,6.44-17.13,10.68q-1.59,1.58-3.19,3.14l-.39-.79h0c1.13-1.27,2-2.79,3.5-3.69a87.47,87.47,0,0,1,10.23-10.14c8.74-7.38,18.31-9.45,29-4.52C280.42,114.91,284.14,117.22,286.66,120.91Zm-7.17-8.67h0c-1.94-1-4.13-1.46-5.78-3a64.91,64.91,0,0,0,18-5.43c.27-.14.57-.19.69.22C288.45,107.31,284.33,110.35,279.49,112.24ZM500.36,82.77c-6.12,25.09-6.06,51.21-13.15,76.07l0,.08c-.58,1.67-1.22,3.32-1.72,5a25.24,25.24,0,0,1-13.05,16c-4.42,2.27-9.22,3.33-14.05,4.28a3.2,3.2,0,0,1-.57-.23c-.42-.24-.27-.5.5-.87,2.84-1.35,5.67-2.74,8.49-4.13a27.21,27.21,0,0,0,14.73-17.53c2.27-8,4.75-16,5.63-24.35h0a79.8,79.8,0,0,0,.7-15.89c-.67-13.15,3.85-24.74,10.17-35.85C498.59,84.35,499.13,83.07,500.36,82.77Zm-4.58,2.67a53.54,53.54,0,0,1-2.69,6.14,59.24,59.24,0,0,0-6.63,28.15,188.57,188.57,0,0,1-.52,18.87h0c-1.48,6.11-3.05,12.21-4.42,18.35-2.41,10.77-8.48,18.44-18.77,22.64l-3.3,1.82c-.12-.25-.24-.51-.35-.77l3.29-1.9a48.52,48.52,0,0,0,7.23-7.24c3.52-4.46,6.74-9.09,7.73-14.87a38.27,38.27,0,0,0,2.92-12.6,193,193,0,0,0-.42-23.32,40.62,40.62,0,0,1,5.54-23.19A39.11,39.11,0,0,1,495.78,85.44ZM457.14,90a75,75,0,0,1-17.93-13.33A142.32,142.32,0,0,0,420.83,61c-10.38-7.1-22.3-7.59-34.22-8.12-1.19-1.21.16-.94.65-1.06A51.34,51.34,0,0,1,406,50.71c.66.09,1.35.08,2,.12a59.55,59.55,0,0,1,30,16.66c6.86,6.86,12.92,14.54,19.32,21.86C457.39,89.42,457.25,89.66,457.14,90ZM373.76,50.4a54.86,54.86,0,0,1,32.15-4.71c13.22,2,24.41,7.1,33.36,17.07a157.23,157.23,0,0,1,12.59,16.61l2.84,3.81-.85.39h0c-1-1.27-2.32-2.26-3-3.79-5.46-6.12-10.48-12.67-17.13-17.66-7.87-5.92-16.2-10.78-26.16-12.15a43.13,43.13,0,0,0-18.58.32c-2.19.46-4.35,1-6.52,1.56-5.85.8-11.52,2.71-17.53,2.84C367.83,53.07,370.81,51.78,373.76,50.4Zm2.18,4.3c2.84-.6,5.8-.3,8.58-1.25h.06l-.06,0c2.63,1,5.41.63,8.12.88,8.41.79,16.81,1.34,24.41,5.81a91.11,91.11,0,0,1,16.69,13c8,7.67,16.05,15.35,26.68,19.46.48.18,1.17.34,1.05,1.23l-2.25,0h0c-3.73-1.22-7.43-2.54-11.19-3.66A45.64,45.64,0,0,1,429.18,79c-4.46-4.28-8.82-8.69-14-12.17-.89-.59-1.86-1.06-2.79-1.59l-.14-.09c-9.76-6-20.52-8.28-31.82-8.57-5.37-.14-10.65,1-16,1.16C368.13,56.13,372.06,55.51,375.94,54.7Zm-21.89,7c18.73-5.17,37.24-6,55.23,2.91,7.44,4,13.43,9.81,19.37,15.64,8.81,8.66,19.93,12.09,31.54,14.57l2.4.35,1.53.9v0s0,0,0,0c-7,.59-13.32-.9-19.6-2.54-1.31-.35-2.53-1.08-3.94-1-7.5-2.77-13.93-7.26-19.88-12.47-15-13.1-32.72-17.73-52.16-17.3a19.44,19.44,0,0,0-5.85.12c-4.23-.13-8.44.94-12.71.22A20.25,20.25,0,0,1,354.05,61.75ZM327.14,73.37a12.22,12.22,0,0,1,2.7-1.71,127.89,127.89,0,0,1,15.27-6.22L363.57,64l5.89-.07a82.74,82.74,0,0,1,37.62,8.25c5.81,2.83,10.49,7.2,15.48,11.16,6.2,4.9,12.72,9.22,20.58,11,8.74,2.86,17.6,4.25,26.74,2.07l1.21-.25,2.7-.13c.22.29,1.44.32.28,1-.57.33-1.17.6-1.76.9-18.13,5.46-35.77,4.39-52.79-4.18-5.56-2.8-10.29-6.87-15.32-10.47-15.81-11.32-32.93-18.55-52.92-16a73,73,0,0,0-18.73,5.09,15.21,15.21,0,0,0-5.15,1.76,4.09,4.09,0,0,1-3.66,1.22ZM473.08,99.61c-8.25,4.77-16.77,8.65-26.66,7.91l-8.43-.61h-.06c-5-1.09-10.1-1.64-14.72-4.11C410.71,96.1,398.13,89.57,386,82.26c-7.09-4.26-14.41-8.16-22.77-9.44a55.77,55.77,0,0,0-17.66-2.11,7.94,7.94,0,0,1-4.82-.07l3.93-1c16-4.33,30.88-.62,45.42,6.15,7.78,3.63,14,9.44,21,14.12,19.11,12.76,39.62,16.05,61.61,8.85ZM317.46,78.4l.38.9c-2.28,2.15-4.15,4.75-7,6.29A26.24,26.24,0,0,1,317.46,78.4Zm-3.69,7.39c5.65-5.34,12.37-8.89,19.55-11.68,10.28-3.33,20.58-2.43,30.89-.16,13.31,3.23,24.05,11.58,35.79,17.92,7.28,3.93,14.55,7.88,21.84,11.79,5.33,2.85,11.13,3.86,17.06,4.34a47.05,47.05,0,0,0,32.4-5.86c2.29-1.34,4.37-3.27,7.2-3.57h0a71.48,71.48,0,0,1-21,14.44c-10.05,4.63-20.32,4.8-30.7.91a106.5,106.5,0,0,1-22.36-11.87c-6.33-4.3-12.18-9.34-19.14-12.68-1-.62-2-1.25-3-1.85C372.69,81.77,362,79.41,351,78.06a53.58,53.58,0,0,0-36.92,8.54c-.92,1.37-2.47,1.79-3.79,2.56A10.8,10.8,0,0,1,313.77,85.79Zm-8.56,8.88,3.23-2.1c14.16-12,30.25-15.85,48.49-12.32a90.69,90.69,0,0,1,25.29,8.56h0a185.75,185.75,0,0,1,17.49,11.52,127.66,127.66,0,0,0,23.16,13.54c15.8,6.95,30.49,4.92,44.5-4.61,1.47-1,2.95-2,4.42-3-1.86,3.2-4.73,5.27-7.35,7.58a72.16,72.16,0,0,1-16.12,7.7c-17.45,5.79-32.87,2.15-46.75-9.49-4.27-3.59-8.38-7.39-13.11-10.41a.73.73,0,0,1-.39,0h.39c-10.67-7.61-21.47-15-35.18-15.75-12.61-.73-25.15-.7-37.18,4-1.45.57-2.81,1.38-4.21,2.07h0a3.94,3.94,0,0,0-2.22,1.23l-.83.27a7,7,0,0,1-3.32,2.06C304.24,96,305.22,95,305.21,94.67Zm141.53,37.94c-7.23,2.56-14.65,3.47-22.27,3.83-15.68.73-29.39-3.42-41.06-14.38a158.85,158.85,0,0,0-30.24-22c-5.64-3.21-11.4-6.29-18.09-6.78a38.13,38.13,0,0,0-14.28.58l-4.85.52c-.78.73-1.88.35-2.75.78-.19-.25-1.22-.25-.36-.8a11.43,11.43,0,0,1,2.36-.86,2.51,2.51,0,0,0,.26-.45c1.11.38,2.12-.14,3.14-.37a55.67,55.67,0,0,1,31.27,2.2c4.62,1.62,9.25,3.21,13.88,4.82,9.15,3.79,16.37,10.43,24.17,16.24,12.63,9.43,26.76,15.07,42.7,14.87a46.37,46.37,0,0,0,29.49-10.5,15.18,15.18,0,0,1,1.83-1.2l0,0a4,4,0,0,1,.38.31C458.52,125.46,453.67,130.16,446.74,132.61ZM449.4,134c-3,.27-5.2,2.75-8.23,2.9l-3.87,1.78c-5.37,1.44-10.71,2.94-16.16,4.12a31.49,31.49,0,0,1-18.94-1.94c-1.36-.55-2.75-1-4.12-1.53-12.48-6-22.42-15.52-32.78-24.35s-21.67-15.89-35-19.16a14.12,14.12,0,0,0-6.17-.59c1.3-1.62,3.14-.84,4.72-1,2.38-.17,4.78,0,7.17.07a40,40,0,0,1,10.85,3.71c13.25,6.7,25.09,15.47,36.05,25.37,9.73,8.8,20.88,13.84,34,14.32a92,92,0,0,0,23.4-1.75c2.79-.9,5.59-1.78,8.37-2.73C449.55,133,449.59,133.32,449.4,134ZM312.22,92.92c1.25-.62,2.39-1.51,3.85-1.65,14.18-5.49,28.86-5.66,43.5-3.19,10.3,1.73,18.73,8.09,27.36,13.65l.14.11c5,4.12,10,8.35,15.13,12.32a57.6,57.6,0,0,0,12,7.43c16.17,7.06,31.44,3.61,46.31-4.13a3.78,3.78,0,0,1-1.87,2.51,47.36,47.36,0,0,1-34.21,9.37c-15.13-1.48-28.12-7.94-39.65-17.57-7.53-6.31-15.51-11.81-25-14.78-2.59-.91-5.2-1.77-7.77-2.72-11.64-4.29-23.47-5.39-35.57-2.17l-1,.88C314.37,92.2,313.27,93.82,312.22,92.92Zm9.92,7.18h0l-6.76-.89c-5.53-.36-10.67,1.07-15.71,3.17-1,.4-1.87,1.43-3.12.76,4.27-3.31,9.32-4.55,14.49-5.46l2.93.37a17.34,17.34,0,0,1,7.58,1.58l.62.32.41.21Zm-6.56-2.92c-.67-.07-1.4-.11-1.57-1,5.09-.7,10.12,0,15.09,1,13.45,2.58,24.4,9.77,34.61,18.58C372,122.86,380.22,130,389.31,136a38.75,38.75,0,0,0,3.89,2h0l1.69.92a6.43,6.43,0,0,0,.86.45c7.29,3.8,14.82,6.51,23.43,4.88,6.26-1.19,12.54-2.25,18.39-5,4.07-1.5,8.25-2.76,11.84-5.33.87.39,1.41-1,2.37-.43a7.9,7.9,0,0,1-2.94,2.83c-3.88,2.51-7.92,4.81-11.68,7.5-7.64,5.43-16.15,7.89-25.41,8.49-10.31.67-19.56-1.31-27-9.1-5.85-6.12-11.86-12.09-17.79-18.13s-11.8-11.86-18.83-16.5a39.16,39.16,0,0,0-12.88-6.77C328.87,99.83,322.35,97.88,315.58,97.18Zm46.64,28.69c-3-3.59-6.18-7-9.28-10.48-1.75-1.44-3.25-3.2-5.29-4.29l-4.6-2.92-3.4-2.52c2.8.54,4.54,2,6.52,2.82l3.48,2.76c3.6,1.89,6.22,5,9,7.75,8.32,8.23,16.39,16.72,24.7,25,4.59,4.56,9.68,8.44,16.41,9.27,13.38,1.65,26.11.2,37.54-7.77,3.74-2.6,7.74-4.82,12.15-7.54a11.21,11.21,0,0,1-.92,2.2c-7,8.84-15.23,16.55-26,20.12-16.38,5.46-30.74,1.12-42.1-11.95C374.18,141,368.37,133.3,362.22,125.87Zm19.71,27.07c-.2-.29-.35-.74.17-1a5.35,5.35,0,0,1,1.22.76c5.91,6.49,13.49,9.67,22,10.68,18.81,2.21,31.52-8.4,43.23-20.94a8.66,8.66,0,0,0,1.51-2.52,27.28,27.28,0,0,1,4.13-6.42c-.05.59-.1,1.17-.14,1.76-3.75,7.35-7,15-11.61,21.86-.62.62-1.28,1.19-1.85,1.85-7,8.17-16,12.55-26.53,13.79-6.27.74-12.45.12-17.81-3.59C390.18,165,386.09,158.9,381.93,152.94Zm72.82-18.63a2.89,2.89,0,0,1-.6.83ZM386.56,161.4c4.18,5.32,8.58,10.38,15.65,11.84,13.88,2.85,25.85-1,36.24-10.39a6.65,6.65,0,0,1,3.07-2.61c-1.32,1.73-1.86,3.33-3.22,4.39h0L435.61,168c-4.39,2.91-8.47,6.31-13.41,8.35-8.17,3.35-16.31,3.8-24.46,0a36.83,36.83,0,0,1-10.45-11.7C386.77,163.73,385.41,162.77,386.56,161.4Zm36.66,21.32-6.71,2.34a49.69,49.69,0,0,1-7-.3c-6.51-1-11.43-4.63-15.93-9.06a7,7,0,0,1-2.48-3.39,11.26,11.26,0,0,1,3.77,3.32c2.27,1.08,4.11,3,6.75,3.34h.09c8.24,2.15,16.06.91,23.56-2.9a45.67,45.67,0,0,0,7.39-4.77c.5-.39.93-1.32,1.84-.61A49.59,49.59,0,0,1,423.22,182.72Zm3.19-1c6.87-6.17,11.78-13.81,16.26-21.76,1.41-1.18,1.9-2.95,2.75-4.47,5.07-9.09,9.36-18.6,14.74-27.52,2.89-4.79,4.63-10.21,8.43-14.5s7.5-9.08,11.38-13.49c1.36-1.55,2.4-3.55,4.84-4.57a15.26,15.26,0,0,1-.68,1.66c-4.49,7.62-6,15.79-5.56,24.63.61,12.42,2,25-2.76,37-5.68,12.26-13.48,22.12-27.89,24.42-7.5.11-15-.73-22.51.21C424.82,182.29,426,182.16,426.41,181.74Zm30,32.66c-5.45-4.06-8.85-9.65-11.74-15.63a25.14,25.14,0,0,0-8.51-10.16,9.61,9.61,0,0,1-4.53-2.75c2.35.56,4.68,1.13,6.49,2.84,6,3.2,10.63,7.91,14.76,13.23,5.1,6.56,10,13.39,17.93,17.11A24.42,24.42,0,0,1,456.41,214.4Zm19.38,4.53c-7.61-2-13.19-6.84-17.78-13-6.8-9.06-14.14-17.45-25.29-21.45a4.25,4.25,0,0,1,3.29-.13,51.19,51.19,0,0,1,24.17,16.73A55,55,0,0,0,473.88,214a68.13,68.13,0,0,0,11.21,5.32A18.63,18.63,0,0,1,475.79,218.93Zm3.5-3.46c-7.63-3.76-13.35-9.61-18.68-16-4.92-5.9-10.68-10.7-17.92-13.54-.36-.14-.74-.28-.51-.87a9.3,9.3,0,0,1,4.29.09l10.33,6.07a174.1,174.1,0,0,1,15.3,12.47c5.81,5.14,12.2,9.33,20,10.81,2.66.51,5.38.73,8.38,1.12C493.16,219.26,486.3,218.92,479.29,215.47ZM497.51,214c-10.11-.79-18.17-5.78-25.51-12.31-4.17-3.71-8.33-7.47-13.17-10.34-2.37-2.33-5.71-3.23-8.41-5.31,1.58-1,2.65.3,3.88.27l1,.28a3.1,3.1,0,0,1-.53-.1l5.65,2.31h0a90.28,90.28,0,0,1,22.8,15.09c6.4,5.81,13.91,8.29,22.44,8.2.95,0,2.37-.91,2.94.8A28.88,28.88,0,0,1,497.51,214Z" transform="translate(0 -34.94)"/></g></g></g></svg>