<svg xmlns="http://www.w3.org/2000/svg" xmlns:xlink="http://www.w3.org/1999/xlink" viewBox="0 0 538.5 513.67"><defs><style>.cls-1{fill:none;}.cls-2{clip-path:url(#clip-path);}.cls-3{fill:#a18978;}</style><clipPath id="clip-path" transform="translate(-187.52 38.35)"><rect class="cls-1" x="81.05" y="100.73" width="460.61" height="424.87" transform="translate(751.91 282.81) rotate(130.89)"/></clipPath></defs><g id="圖層_2" data-name="圖層 2"><g id="飄移"><g class="cls-2"><path class="cls-1" d="M460.74,260.68a52.32,52.32,0,0,0-14.24,8.05c-7.58,5.82-15,11.82-22.5,17.73a40.87,40.87,0,0,1-16.07,8.07l-.15,0-8.92,2.31c1.83,1.38,3.81.81,5.6,1,11.91,1.5,22.24-2.35,31.52-9.55,3.76-2.92,7.75-5.65,10.8-9.35,5.48-6.66,12.88-9.24,21-10.49a19.6,19.6,0,0,0,10.09-4.44c1.06-.92,2.42-2,2.25-3.37-.19-1.55-2.22-.63-3.19-1.4A34.11,34.11,0,0,0,460.74,260.68Z" transform="translate(-187.52 38.35)"/><path class="cls-1" d="M435,295.9c4.13-4.09,8.29-8.14,12.34-12.31a76.49,76.49,0,0,1,14.51-11.46l0-.13-2.13-.15c-5.14,1.29-8.48,5.14-12.09,8.58a99.05,99.05,0,0,1-18.23,14c-7.95,4.64-16.56,5.81-25.61,4.88-4.75-.49-9.52-1.23-14.36-.23,8.52,3,16.68,7.11,26,7.17C423.29,305.37,429.54,301.35,435,295.9Z" transform="translate(-187.52 38.35)"/><path class="cls-1" d="M529.08,6.43h.2c1.27,0,2.54-.14,3.8-.07,7.35.42,14.45,2.26,21.57,3.92a54.11,54.11,0,0,0,25.89,0c4.5-1.14,9.06-2,13.59-3h0l2.28-1.39c-.42-1-1.22-.72-1.81-.62-13.3,2.25-26.08-.7-38.9-3.65a108.27,108.27,0,0,0-24.82-3.09c-10.43.05-19.3,4.58-28.33,8.86-2.9,1.38-5.51,3.44-8.79,4-2.24,2.64-5.43,4.13-8,6.45C482.37,21,478.76,24,476,27.83c5.35-3.43,10-7.76,15.58-10.86C503.21,10.43,515.54,6.24,529.08,6.43Z" transform="translate(-187.52 38.35)"/><path class="cls-1" d="M445.22,287.79a134.57,134.57,0,0,1-14.12,13.52c-5.62,4.49-11.87,7.27-19.3,6.29h0c-8.47-.61-16-4.41-24-6.76-5.45-1.61-10.95-2.91-16.69-2.83-4.48-.51-8.89.12-13.29.82-1.41,1.24-3.62.88-5,2.58l2.43-.07,12.39-2c3.95-.37,7.47,1.17,10.91,2.68,10.11,4.45,20.68,7.75,30.73,12.39a25,25,0,0,0,24.09-1.05c1.93-1.47,4-2.83,5.78-4.43,4.77-4.16,8.29-9.38,12-14.42a39.64,39.64,0,0,1,4.59-7.8c3.19-6.22,8-11,14.15-15.66l-3.85.59C457.89,275.43,451.31,281.29,445.22,287.79Z" transform="translate(-187.52 38.35)"/><path class="cls-1" d="M453.63,296.23l-3,13.82c.27,5.22-.79,10.05-4,14.28-7.26,14.55-35,23.14-50.2,7.5-3.64-3.74-7.63-7.16-11.57-10.62-7-6.15-15.32-10.08-23.78-13.76-1.2-1-2.61-1.14-4.38-1.22a3.63,3.63,0,0,0,3.1,2.1c11.8,7.59,23.17,15.67,31.81,27a35.35,35.35,0,0,0,4.18,4.21c13.09,12.17,29.41,13.11,43.87,2.56.47-.34,1-.64,1.45-1,1.07-1,2.1-2.12,3.22-3.12a26.07,26.07,0,0,0,8.91-19c.36-7.18.85-14.36,1.28-21.54a2.87,2.87,0,0,0,.12-.92c.38-1.57,1.39-3.16-.28-4.67C453.87,293.31,453.23,294.69,453.63,296.23Z" transform="translate(-187.52 38.35)"/><path class="cls-1" d="M429.23,251.46c-2,2.56-3.65,5.4-6.09,7.6-4.52,7.61-9.74,14.66-16.88,20-3.77,2.83-7.93,5.14-11.82,7.82-.62.43-2.64.31-1.5,2.13a25.28,25.28,0,0,1,6.07-2.23c8.26-3.24,15.65-7.76,21.39-14.66,3-3.58,5.75-7.35,8.8-10.86,5.5-6.35,11.16-12.57,19.53-15.28,10.66-4.46,20.72-2.37,30.59,2.95,0-.44.14-.89,0-1-4.18-3.95-8-8.27-14.17-9.43C450.54,235.72,438.5,239.61,429.23,251.46Z" transform="translate(-187.52 38.35)"/><path class="cls-1" d="M433.26,233.35c-1.23.6-1.63,1.76-2.43,3.35a8.52,8.52,0,0,0,4-2.83c9.81-6.72,20.17-9.25,31.51-4,2.17,1,2.88.64,2.42-1.91-1-5.66-3.5-7.51-9.17-7.73C448.29,219.78,440,224.84,433.26,233.35Z" transform="translate(-187.52 38.35)"/><path class="cls-1" d="M450.47,246.5h0c-4.61,2.19-9.06,4.58-12.84,8.12-5.78,5.41-10.57,11.66-15.38,17.89-5.47,5.76-11.4,10.87-18.88,13.88-.86.35-1.74.63-2.61.94h0l-1.48,1.21c1,.52,2.22-.76,3,.58a2.18,2.18,0,0,1-.62.11c-.14,1.23-1.12,1-1.9,1.08a11.79,11.79,0,0,1-6.52,1c-7.08.48-13.87,2.17-21.42,4.55,11.52,1.15,22,1.3,32.39-1.49h0c10-2.4,18.2-7.94,25.91-14.46a206.55,206.55,0,0,1,18.51-14.27c7.51-5,15.4-8.71,24.75-7.92.68.06,1.43.11,1.68-.81-9.47-5.05-18.67-2.62-27.8,1-9.62,3.85-17,10.8-24.06,18-3.92,4-7.89,7.89-12.81,10.66-2.33,1.32-4.67,2.57-7.47,2.43h0s0,0,0-.07c-.09-.91.78-1.19,1.26-1.33,8.29-2.51,14-8.45,19.59-14.56,6.42-6.1,12.92-12.1,21.14-15.8,11.3-5.07,22.59-7.63,33.93-.11.6.4,1.5,1.24,2,.14.76-1.58,1.39-3.41,0-4.91a19.54,19.54,0,0,0-5.78-3.85C467.06,244.69,458.88,244.29,450.47,246.5Z" transform="translate(-187.52 38.35)"/><path class="cls-1" d="M453.61,215c-13.93,1-22.86,9.54-29.71,20.69C420.61,241,418,246.73,415,252.29a69.67,69.67,0,0,1-37,33.06c-4.63,1.85-9.15,4-13.73,6l-11,6.61c.6.83,1.43.57,2.23.47a41.29,41.29,0,0,1,5.89-2,151.11,151.11,0,0,0,25.66-7.29c8.95-4.71,17.51-9.89,22.74-19,7.39-14.38,14.55-28.87,25.4-41.17,7.1-8,16-10.77,26.29-10.4.91,0,2.26,1,2.71-.49s-.79-2.12-1.8-2.68C459.59,213.79,456.52,214.74,453.61,215Z" transform="translate(-187.52 38.35)"/><path class="cls-1" d="M439,234.61a44.61,44.61,0,0,0-3,4.17c-1.13,2-3.55,3.33-3,6.12a32.62,32.62,0,0,1,17.49-8.5c7.68-1.07,15.2-.46,22.53,3.07C466.6,226.16,446.46,225.86,439,234.61Z" transform="translate(-187.52 38.35)"/><path class="cls-1" d="M408.46,328.83a59.1,59.1,0,0,1-18.86-8.05,13.35,13.35,0,0,0-2.22-.94c16.35,23.5,41.85,24.92,58.26,3.72,1.07-2.66,2.66-5.14,3-8.05.13-1.2,1.27-2.62-.47-3.61C441.26,324.81,423.22,332.55,408.46,328.83Z" transform="translate(-187.52 38.35)"/><path class="cls-1" d="M422.25,258.4c1.92-4.24,4.95-7.8,7.32-11.77,1.26-3.37,3.5-6.16,5.44-9.13.43-.66,2.05-1.22.68-2.46a38.93,38.93,0,0,0-11.34,12.86c-3.49,6.53-7.19,12.94-10.87,19.36a35.71,35.71,0,0,1-2.69,3.59c-.19.48-.38,1-.56,1.45-.85.9-1.69,1.81-2.53,2.72l.78.73a6,6,0,0,0,2.69-2.76C415.5,268.61,418.73,263.39,422.25,258.4Z" transform="translate(-187.52 38.35)"/><path class="cls-1" d="M387.22,279.13c12.33-6.82,21-17.12,27.33-29.52C419,240.93,423,232,430.08,224.89c5-5,10.31-9,17.34-10.45a20.27,20.27,0,0,0,2-.55c.16,0,.29-.24.81-.7a20.81,20.81,0,0,0-12.33,2.2c-7.94,3.9-13.86,10-18.85,17.23-5.56,8.06-10.4,16.56-15.5,24.9-7.3,11.94-17.91,20-30.11,26.22-.18.09-.27.35-.4.53l-4.56,2.93a11,11,0,0,0,6.89-2.44C379.35,282.9,383.41,281.24,387.22,279.13Z" transform="translate(-187.52 38.35)"/><path class="cls-1" d="M405.81,326.43c16.7,5.4,33.8-3.22,41-15.44,2.52-4.29,3.1-9.2,4.71-13.78-1.36.45-1.73,1.81-2.5,2.79-4.06,5.24-8.06,10.54-14,13.84-8.28,5.73-17.06,6.13-26.22,2.41-10.45-4.23-20.93-8.4-31.35-12.7a25.51,25.51,0,0,0-13.64-2c-3.45.5-6.9,1.06-10.35,1.59l.33,1c10,.91,18.55,6,27.26,10.34C389.19,318.58,397,323.57,405.81,326.43Z" transform="translate(-187.52 38.35)"/><path class="cls-1" d="M474.6,56.62c12-5.26,24.3-9.36,37.62-9.36,1.38,0,2.75.05,4.13.08,9.11-.82,18.1.77,27.14,1.3a125.38,125.38,0,0,0,29.91-1.45c12.9-2.32,23.24-8.71,30.66-19.5A84.29,84.29,0,0,0,616.63.33c-2.7,2-3.64,5.24-5.16,8a55.66,55.66,0,0,1-29.39,25.56c-6.32,3.1-12.83,5.59-20,5.91-9.77.44-19.56.82-29.33,1.23-15.78.66-31.75-1.33-47.23,3.43-11.85,3.93-22.87,9.24-31.3,18.85C448.63,70.47,444,78.14,441.44,87a12.59,12.59,0,0,0-1.51,5.53c.87-1.58,2.19-2.94,2.3-4.89A63.39,63.39,0,0,1,474.6,56.62Z" transform="translate(-187.52 38.35)"/><path class="cls-1" d="M440.72,77.25a31,31,0,0,0-2.38,11.32c2-3.3,2.28-7.07,3.31-10.64Z" transform="translate(-187.52 38.35)"/><path class="cls-1" d="M448.23,66.89a18,18,0,0,1,4.18-4.9,86.71,86.71,0,0,1,16-16.51c18.77-14.69,40.55-17.7,63.46-15.76,7.31.63,14.57,1.9,21.93,1.38,22.48-1.58,41-11.16,56.19-27.69.41-.65.86-1.29,1.24-2,.78-1.38-.48-.66-.88-.83l-2.66,1.76-1.09,1c-8,7.75-17.81,11.7-28.43,14.08-9.09,2.89-18.34,2.45-27.61,1.21-7.46-1-14.86-2.62-22.48-2A97.88,97.88,0,0,0,484.8,31l-5.94,3.63L461,47.35A150.72,150.72,0,0,0,449.22,62.9a15.49,15.49,0,0,0-1.71,3.37l-2.25,4.08A4.82,4.82,0,0,0,448.23,66.89Z" transform="translate(-187.52 38.35)"/><path class="cls-1" d="M483.22,30.55c19.51-12.2,40.36-18.24,63.5-14,9.2,1.7,18.45,2.37,27.75.66,1.4-.92,3.08-.92,4.63-1.36,7.36-2.13,14.66-4.41,21.46-9.27,0,0,0,0,0-.05l0,0h-2.09l-2.65,1.1c-13.31,4.5-26.69,7.74-40.88,4.27-9.56-2.33-19.17-4.62-29.15-4.19-23.67,1.84-42,13.87-57.91,30.45a25.22,25.22,0,0,0-3.28,3.94c4.78-1.85,8.42-5.49,12.79-7.91A22.76,22.76,0,0,1,483.22,30.55Z" transform="translate(-187.52 38.35)"/><path class="cls-1" d="M542.88,32.37c-10-.51-19.81-2.66-29.9-1.64-18.88,1.9-36.24,7.14-49.9,21.22l-3.42,3.34a9.37,9.37,0,0,0,4.94-2.84,65.81,65.81,0,0,1,19.23-8.53c9.27-3.76,19.07-4.22,28.86-4.18,16.79.07,33.53-.91,50.29-1.68,6.18-.28,11.72-2.81,17.45-4.71l.06,0,8.94-4.48c10.5-5.23,16.81-14.33,22.32-24.17l-.89-.57C592.86,24.72,570,33.78,542.88,32.37Z" transform="translate(-187.52 38.35)"/><path class="cls-1" d="M435,313.84a.76.76,0,0,0-.43-.14Z" transform="translate(-187.52 38.35)"/><path class="cls-1" d="M527,58l-.39.25A.83.83,0,0,0,527,58Z" transform="translate(-187.52 38.35)"/><path class="cls-1" d="M385.71,256.69c10.58-9.87,17.21-22.41,23.38-35.21,5.28-11,13.68-18.26,25-22.36.86-.31,1.68-.77,2.86-1.32l-1.55-.46a.81.81,0,0,1-.62-.18c-13.53.85-22.12,9.41-29.82,19.24-7.52,9.62-13,20.43-17.6,31.68a61.49,61.49,0,0,1-4.77,10C384.55,259.69,385,257.39,385.71,256.69Z" transform="translate(-187.52 38.35)"/><path class="cls-1" d="M439,101.91a8.22,8.22,0,0,0,2.13-4.11c.23-.26.46-.51.68-.77a4.71,4.71,0,0,1,1.52-2.6h0c1-1.55,1.9-3.19,3-4.64,9.37-12.06,22.1-19.68,35.37-26.56C496.1,55.74,511.52,56.68,527,58c6.63.21,13.11,1.6,19.63,2.65,21.15,3.44,39-2.18,53.26-18.63A85.47,85.47,0,0,0,611.59,24.4c1.27-3.95,2.94-7.79,2.89-12.16-.9,1.89-1.81,3.79-2.7,5.69-8.47,18.17-22.18,29.12-42.45,31.61a150.94,150.94,0,0,1-31.73.24,222.37,222.37,0,0,0-24.75-1.13h0A107.54,107.54,0,0,0,482,55.25c-20.68,7.45-34.7,21.1-41.83,41.86-.68,1.36-1.35,2.73-2,4.09C438.33,101.55,437.9,103.09,439,101.91Z" transform="translate(-187.52 38.35)"/><path class="cls-1" d="M437.1,112.4c3.85-5.18,8.22-9.75,14-12.72l7.42-3.19,0,0,.44-.19c-.18,0-.36,0-.54,0l-.82,0a20.49,20.49,0,0,0-8.66,3l-3.2,1.4c-4.71,4.05-9.09,8.37-11.43,14.31C436.07,115,436.37,113.39,437.1,112.4Z" transform="translate(-187.52 38.35)"/><path class="cls-1" d="M440.23,343.53c-7,5.57-15.09,7.31-23.8,7.36-10.76.05-18.27-6-25.17-13.17-2.73-2.86-5.35-5.83-8-8.81-7.78-8.86-18-14.4-27.72-20.72a3,3,0,0,0-3.15-.62,4.79,4.79,0,0,0,2.71,1.9c9.18,7.24,16.19,16.4,22.23,26.24a55.78,55.78,0,0,0,24.84,21.71,23.08,23.08,0,0,0,20.87-.16c6.91-3.39,13.53-7.26,18.45-13.42,1.5-.28,2.06-1.84,3.32-2.45h0c1.14-1.86,3.28-3,4.12-5.71-2.79,1.93-4.35,4.64-7,6Z" transform="translate(-187.52 38.35)"/><path class="cls-1" d="M225.09,267.86c12.74,8.88,26.47,13.22,42.07,9.27,4.49-1.14,9-2,13.59-3,.43-2.5-1.58-1.07-2.15-1.08-6.39-.07-12.79.07-19.19.12-15.75.13-29.64-5.12-42.09-14.56-1.38-1.06-2.83-2-4.25-3a15.53,15.53,0,0,0-6.44-4.35,22.33,22.33,0,0,0,6,5.74l10.74,9.72C224,267.08,224.52,267.46,225.09,267.86Z" transform="translate(-187.52 38.35)"/><path class="cls-1" d="M337.62,256.36c1.74-3.28,3.41-6.6,5.11-9.9-2.27,1-3.35,3.17-4.86,4.9-6,6.91-10.69,15-18.31,20.48h0c-14.13,12.64-29.72,22.07-49.39,22.53a50.66,50.66,0,0,1-19.79-3.68l-18.06-7.09c6.28,6.56,13.59,9.66,21.11,12.4C285.84,305,322.81,284.31,337.62,256.36Z" transform="translate(-187.52 38.35)"/><path class="cls-1" d="M329.44,258.25c-17.64,17.57-38.51,28-63.77,28.37a100.8,100.8,0,0,1-25.54-2.7c-1.35-1-3.07-.8-4.54-1.42.59,2,2.34,2,3.92,2.24,15,7.09,30.37,11.14,46.92,5.63a91.3,91.3,0,0,0,28.17-15.83c1.36-1.09,2.75-2.14,4.12-3.21,3.87-4.12,8.49-7.54,11.54-12.41,1.43-1.65,3.29-3,3.51-5.44C332.31,255.05,330.37,256.19,329.44,258.25Z" transform="translate(-187.52 38.35)"/><path class="cls-1" d="M285.8,282.33c16.41-3.91,30-12.8,41.93-24.5,1-1,1.78-2.09,2.67-3.14,2-.53,2.66-2.55,4.14-3.65l.27-.19h0l8.36-9.45h0c-2-.47-2.24,1.57-3.32,2.4a32.06,32.06,0,0,0-2.85,2.86l-8.13,7.53c-4.19,3.82-9.17,6.46-13.95,9.39-5.36,4.42-11.48,7.64-17.45,11.1-.56-.07-1.25.23-1.58-.53,4.22-2.54,8.44-5.07,12.63-7.64.48-.3,2.49-.75.13-1.41l-5.35,1.6h0c-4.07,3.19-9.09,4.31-13.75,6.18-5.95,2.39-12.31,3.47-18.5,5.09-4.91.53-9.48,2.78-14.48,2.83A66,66,0,0,1,238,276.75c-5.67-2-11.06-4.68-15.36-9.09l-12.26-10.88c-1,1.52.48,2.25,1.1,3.15,5.12,7.47,12,13.22,18.79,19C248.43,286,267,286.82,285.8,282.33Z" transform="translate(-187.52 38.35)"/><path class="cls-1" d="M220.69,240.18a36.17,36.17,0,0,0,9.22,5.57c9.06,3.68,18.11,7.34,27.69,9.49a116.43,116.43,0,0,0,50.31-5c7.17-2.38,14.3-4.87,21.45-7.3l2.69-1.54c-6.24-.27-12.07,1.86-18.12,2.46-.56,1.34-1.93,1.11-3,1.41-11.69,3.4-23.75,4.72-35.75,6.44a47.41,47.41,0,0,1-24.34-3.07,95,95,0,0,1-18.4-9.2c-10.36-6.91-21-13.48-29-23.26-5.09-5.27-9.14-11.16-11.07-18.34-.58-1.1-.39-2.54-1.65-3.63-1.2,3.5-1.29,7-1.54,10.5a13.32,13.32,0,0,1,1.42,4.56,1.74,1.74,0,0,1,.74,1.53,67.77,67.77,0,0,0,14.42,17.38C210.59,232.32,215.74,236.13,220.69,240.18Z" transform="translate(-187.52 38.35)"/><path class="cls-1" d="M218,254.21c9.64,5.27,19.56,9.83,30.52,11.66l-1.2.82.58.15-.58-.15c-10.27-1.45-19.55-5.58-28.52-10.54-1.67-.85-3-2.66-5.2-2.07,1.28,1,2.31,2.37,4,2.74,8.73,6.27,17.69,12.1,28.66,13.57a174.78,174.78,0,0,0,45.47.1h0l7.68-3.21.18-.31c-.4-.62-1.05-.43-1.66-.39L275.17,268l.59-.83h-.46a1.16,1.16,0,0,1,.46,0c10.13-1.56,20.5-1.2,30.49-3.88,11.25-3.52,21.35-9,29.79-17.35,1.58-2.63,4.1-4.38,6.13-6.59a10.69,10.69,0,0,1,4.06-1.91l2.28-3.35-.37-.47-7.47,5.26c-7.14,3.25-13.11,8.4-19.91,12.24a97.62,97.62,0,0,1-60.55,12.25c-10.88-1.25-21.77-2.48-31.86-7.26-1.14-.54-2.26-1.16-3.39-1.74A57.56,57.56,0,0,1,194.18,226c2.54,11.53,6.21,22.15,19.12,25.88C214.86,252.66,216.45,253.38,218,254.21Z" transform="translate(-187.52 38.35)"/><path class="cls-1" d="M220,250.25c2,.95,3.83,2.17,5.75,3.27a118,118,0,0,0,67.47,6.74c11.37-2.14,21.29-7.39,31.06-13.15,1.66,0,2.7-1.17,3.93-2-2.1-.56-3.71.58-5.36,1.55a12.88,12.88,0,0,0-2.36.55c-9.5,4.23-19.55,6.65-29.68,8.64a95.07,95.07,0,0,1-34.59.3c-9.11-1.57-17.49-5.37-26.08-8.54a36.46,36.46,0,0,1-9.95-5.65c-4-3.15-8.13-6.18-12.06-9.43-6.91-5.7-13.47-11.72-17.26-20.12-1.27,2.58.41,4.69,1.37,6.71,1.84,3.88,4.1,7.57,6.26,11.29A48.54,48.54,0,0,0,220,250.25Z" transform="translate(-187.52 38.35)"/><path class="cls-1" d="M357.84,258.89c3.22-15.78,10-30.07,18.34-43.68a.56.56,0,0,1,.34-.84c-1.46-.91-2,.57-2.67,1.2a41.48,41.48,0,0,0-12,20.1c-2.75,10.21-5.92,20.27-9.29,30.27-2.32,6.92-4.43,14-9.7,19.46-4.35,5.74-10,10.08-15.74,14.48l3.71-.57a22.76,22.76,0,0,0,7.88-3.44,49.36,49.36,0,0,0,11.18-17C352.6,272.23,355.2,265.55,357.84,258.89Z" transform="translate(-187.52 38.35)"/><path class="cls-1" d="M358,263.29c-1.76.85-1.78,2.74-2.4,4.22-2.75,6.51-4.52,13.45-8.26,19.54-1.33,2.17-3,4.14-4.4,6.26-1.21,1.78.59.66,1,.94l.14-.1,0,0C354.71,286.6,357.6,275.52,358,263.29Z" transform="translate(-187.52 38.35)"/><path class="cls-1" d="M332.79,274.91c7.37-10.24,11.86-21.86,16.26-33.52a8.51,8.51,0,0,0,1.74-5.3,10.26,10.26,0,0,0-2.8,4.53c-4.36,7-7.41,14.79-12,21.67-12.82,19.07-30.5,31-52.91,36-1,.22-2.11.11-3,1.22,2.42.91,4.84.59,7.17.53C306.7,299.52,321.56,290.51,332.79,274.91Z" transform="translate(-187.52 38.35)"/><path class="cls-1" d="M348.83,272.58h0c2.58-5.32,3.92-11.06,5.74-16.64,2.72-9,5.42-18.09,8.18-27.12a7.36,7.36,0,0,1,1.11-1.73h0c.85-1.14,1.92-2.2,1.43-3.84L363,226.44c-4.64,6.25-6.13,13.66-7.72,21-.51,2.37-1,4.74-1.54,7.11h0c-1.83,5.79-3.43,11.66-5.76,17.29-5.89,9.88-13,18.67-22.88,24.81-2.71,1.68-5.68,2.94-8.95,4.61,2.78.66,4.87-.31,7-1,7-4.4,13.53-9.25,19-15.5A35.18,35.18,0,0,0,348.83,272.58Z" transform="translate(-187.52 38.35)"/><path class="cls-1" d="M330.87,299.31l-.78.4A2.07,2.07,0,0,0,330.87,299.31Z" transform="translate(-187.52 38.35)"/><path class="cls-1" d="M413.48,183.69c-10,6.32-15.83,15.7-19.46,26.73,6.89-9.32,15-17.21,26.11-21,11.45-3.92,22.51-2.49,33.21,5.62a19.26,19.26,0,0,0-5.69-8.79C437.6,177.31,425,176.41,413.48,183.69Z" transform="translate(-187.52 38.35)"/><path class="cls-1" d="M445.32,169.37c-8.94-2.72-17.77-2.09-25.65,3.63a34.91,34.91,0,0,0-9.17,9.53c16.16-9.7,34.32-7.25,44.68,9.85C458,180.88,454.54,172.17,445.32,169.37Z" transform="translate(-187.52 38.35)"/><path class="cls-1" d="M194.36,197.55c-1.22,1.23-.08,2.28.31,3.33,2.05,5.49,6.11,9.65,9.5,14.24A146.25,146.25,0,0,0,249.1,246a50.54,50.54,0,0,0,29,3.8c9.3-1.56,18.71-2.51,27.91-4.75,2.13-.52,4-1.9,6.28-1.84-2.37-1.77-5.06-.44-7.59-.73-2.7-.31-5.45.37-8.16-.21h0c-8.41.13-16.62,2.63-25,2.59-17.33-.07-32.34-7.59-47.06-15.74-6-3.13-10.43-8.08-14.89-13C204.23,210.18,198.45,204.56,194.36,197.55Z" transform="translate(-187.52 38.35)"/><path class="cls-1" d="M450.9,162.11a29.2,29.2,0,0,0-33.9,3.31c-10.54,9.39-17.65,21.21-22.76,34.29-1.25,1.87-1.24,4-1.59,6.17a11.28,11.28,0,0,0,2.53-4.87c4.72-9.61,11.23-17.93,18.58-25.63,8.34-8.72,18.67-10.93,30.13-8.65,6.92,1.37,11.47,5.78,13.77,12.71C460.09,173.23,457,165.68,450.9,162.11Z" transform="translate(-187.52 38.35)"/><path class="cls-1" d="M401.65,204.73A64.79,64.79,0,0,0,386,235.53c-1.09,5.27-2.27,10.52-3.55,16.38,2.34-1.46,2.59-3.28,3.23-4.83,5.7-13.75,12.7-26.69,22.73-37.86,12.52-13.94,26.42-17.53,44-11.07-1.77-3.13-8.64-7-13.91-8C423.2,187.38,411.48,193.9,401.65,204.73Z" transform="translate(-187.52 38.35)"/><path class="cls-1" d="M410.61,221.79c-2,4.32-4.28,8.55-6.55,12.75-5.6,10.31-12.48,19.63-21.6,27.15-3,3.21-4.6,7.31-6.94,10.94.76.92,1.19.11,1.62-.34C386.7,262.12,397,252.65,404.89,241c4.05-6,6.45-12.92,10.2-19.08,6.41-10.55,14.86-18.54,27.73-20.23,3-.38,6,0,9,0-1.67-3-5.08-2.56-7.64-3.79C429.47,200.83,417.37,207.53,410.61,221.79Z" transform="translate(-187.52 38.35)"/><path class="cls-1" d="M418.73,218.79a38.92,38.92,0,0,0-4.93,8.82c-5.61,12.91-14.15,23.71-24,33.61q-7.85,7.9-15.65,15.86c-1.56,2.85-4.12,4.74-6.54,6.76h0c-.29.45-.57.9-.86,1.34a9.18,9.18,0,0,0-2.71,3.11,7.36,7.36,0,0,0,3.76-2.35c4.9-3.07,9.77-6.17,14.7-9.19,12.76-7.79,20.05-20.09,27.32-32.52,4.51-7.72,9.13-15.48,15.62-21.8,8.33-8.1,17.79-13.1,29.93-10.26,2.28.54,4.09.27,3.19-2.87-2.24-4.69-6.26-6.08-11.12-6.29C434.65,202.46,426.08,209.52,418.73,218.79Z" transform="translate(-187.52 38.35)"/><path class="cls-1" d="M225.23,228.19c8.78,5.38,18.46,8.72,28,12.33A44.67,44.67,0,0,0,277.56,243l1,0c4.64-.13,9.17-1.16,13.76-1.71l2-.16c1.14.75,2.39,0,3.57.23h0l18.9-.07c-2.16-1.05-4.09-.31-5.63-1.28-4.89-.82-9.8-.27-14.7-.2-9-.23-18-.08-27-1.27-17-2.26-33-7.29-47.45-16.86h0c-4.84-2.68-8.52-6.82-12.82-10.18-1.08-1.86-2.86-3-4.41-4.42-6.25-5.57-9.53-13-12.8-20.41h0C193.59,198,201.52,205.3,208.8,213,214,218.39,218.7,224.26,225.23,228.19Z" transform="translate(-187.52 38.35)"/><path class="cls-1" d="M387.27,214.12c1-.08.37-1.23,1-1.56h0c.17-2.14.35-4.27.52-6.4h0c1.37-10.69,3.77-21.11,8.87-30.68,5.51-10.35,12.55-19.33,24-23.7a32.19,32.19,0,0,1,18.24-2.32,46.86,46.86,0,0,1,14.51,4.48l4.18,2.9a8,8,0,0,0-3.39-4c-7.26-5.84-15.62-8-24.76-7.21-4.28.37-8.53,1-12.78,1.69-9.06,1.39-15.74,6.6-19.95,14.34-6.21,11.42-10.26,23.64-10,36.91.94,1.64-.69,3.22-.1,4.85L387.2,205c0,3,.05,6.07.07,9.1Z" transform="translate(-187.52 38.35)"/><path class="cls-1" d="M389.93,176.29c2.8-7.51,5.13-15.22,10.95-21.22,4.6-4.75,9.92-8.06,16.47-9.16,8.48-1.43,16.95-3.1,25.76-1.54l-8-5.26h0c-4.79-2.24-10-2.33-15.1-2.75-13.82,1.44-22.29,9.34-26.72,22.12A105.51,105.51,0,0,0,389,175c-1,1.83-.94,3.9-1.32,5.87l.88.57Z" transform="translate(-187.52 38.35)"/><path class="cls-1" d="M425.88,151.67l-1.84.47c-2.87,1.5-6,2.47-8.66,4.42-13.19,9.58-19.89,23-23.25,38.52-.75,2.81-2.24,5.55-.85,8.57.6-2.42,1.19-4.84,1.79-7.27,5.81-11.44,12-22.62,21.61-31.47,9.25-8.54,19.93-10.5,31.78-6.85,7.62,2.34,12.85,7,13.88,15.42,3.13-3.66,2.54-8.47-1.61-14.47-7.33-6-16-8.11-25.23-8.49Z" transform="translate(-187.52 38.35)"/><path class="cls-1" d="M422.59,134.62h0c3.78-4.86,6.13-10.43,8.19-16.16-.37-.35-.65-.11-.84.19-4.09,6.32-9.36,11.56-15,16.42C417.51,135.63,420,134.79,422.59,134.62Z" transform="translate(-187.52 38.35)"/><path class="cls-1" d="M295.8,469.48c-.9-4-1.85-7.93-2.92-11.86a166.61,166.61,0,0,1-4.59-25.06c-1.47-13.1,3.75-24.12,10.51-34.7,4-6.27,9.1-11.82,12.29-18.62l5.66-9.33a65.77,65.77,0,0,0,6.08-21.31c-.3-.16-.36-1.93-.88-.32-1.06,3.3-3.29,6.37-2.4,10.17.1.44-.39,1-.61,1.54-1.93,6.52-5.74,12.11-8.87,18-5.2,6.72-10.05,13.75-15.69,20.08-9.64,10.83-12.81,23.67-13.53,37.64a84.22,84.22,0,0,0,5,34,6.06,6.06,0,0,0,8.4,3.57C296,472.49,296.16,471,295.8,469.48Z" transform="translate(-187.52 38.35)"/><path class="cls-1" d="M371.8,232.93l4.35-13.64a37.35,37.35,0,0,0-6.44,10.26,87.66,87.66,0,0,0-10.34,39.05h0c-.95,5.07-1.52,10.23-4,14.9a36.06,36.06,0,0,1-8.41,10.44l.83.54a27.23,27.23,0,0,0,5.84-5,40.76,40.76,0,0,0,6.73-18.87c.29-1.36.56-2.72.85-4.08,2.68-12.23,4.79-24.61,9.41-36.34,1.51.48.15,1.49.4,2.19-.95,3.1-1.92,6.19-2.86,9.29-4.49,14.7-5.24,30.36-11.3,44.67,0,.07.28.29.43.44,8.38-8.32,10.43-19,11-30.1A134.28,134.28,0,0,1,371.8,232.93Z" transform="translate(-187.52 38.35)"/><path class="cls-1" d="M282,416.86c1.51-6.24,4.93-11.48,8.66-16.61,3.58-4.92,7-10,10.33-14.85l.39-.57,3.28-4.79c-1.26.3-2,2.19-3.15,3.51-7.75,9.09-16.69,17.31-22,28.26-7.61,15.63-9.07,32.09-6.11,49.06.91,5.21,4.36,8.82,8.07,12.22l0,0c1.13.05,2.39,1.31,3.27.33s0-2.25-.42-3.31C277.79,452.63,277.65,434.84,282,416.86Z" transform="translate(-187.52 38.35)"/><path class="cls-1" d="M305.09,466A115.12,115.12,0,0,1,300,427.06a77.49,77.49,0,0,1,6.81-28.66c2.31-5.07,4.73-10.09,7.11-15.13.23-3.48,3.1-6.16,3-9.75-2.3,1.28-2.89,3.84-4,5.87a97.06,97.06,0,0,1-8.68,13.45,95.39,95.39,0,0,0-11.57,19.87c-3.77,8.56-3.2,17.49-2,26.44a196.32,196.32,0,0,0,5.32,24.2,31.27,31.27,0,0,1,1.39,7.16c.06,2,.56,2.49,2.52,2.49C306.34,473,307,472.43,305.09,466Z" transform="translate(-187.52 38.35)"/><path class="cls-1" d="M293.94,369.11a78.23,78.23,0,0,0-15.71,13.05l-4.12,4.31c2.77.08,3.91-2.24,5.56-3.8,5.59-3,11.16-6,16.77-9,7.54-4,13-10.05,17.25-17.28.35-.59,1.85-1.59,0-2.33C308.34,360.72,301.08,364.81,293.94,369.11Z" transform="translate(-187.52 38.35)"/><path class="cls-1" d="M316.91,384.16c-.43-.67.31-2-1.1-2.1-.37.81-.73,1.62-1.1,2.44-.56,3.36-2.2,6.32-3.78,9.23-9.29,17.09-10.88,35.29-8.37,54.22,1,7.77,4.24,15,4.93,22.82.1,1.12.74,1.32,1.61,1.38s1.62.08,2.44.11c5.49.2,6.3-.6,4.35-5.55-7.77-19.78-7.24-39.81-2.15-60,1.76-7,2.42-14.17,3.19-21.31C316.92,385,316.92,384.57,316.91,384.16Z" transform="translate(-187.52 38.35)"/><path class="cls-1" d="M275.66,416.29c3.67-10.75,11.44-19.1,19-27.36,3.87-4.19,7.62-8.49,11.51-12.67,2.7-2.92,4.12-6.69,6.68-9.69,1.4-1.34,1.66-3.32,2.73-4.84-1.92-.82-1.28,1.82-2.55,1.89l-1.16,2.19c-5.32,8.05-13.09,13.39-20.86,18.74-1.15.79-2.26,1.64-3.37,2.48C262,406.61,255.82,440.42,273,467.73c.82.22,1.22.35.78-.85C267.45,449.78,270,432.84,275.66,416.29Z" transform="translate(-187.52 38.35)"/><path class="cls-1" d="M275.17,396.51A87.26,87.26,0,0,1,291.63,382c5.15-3.55,10.62-6.77,14.56-11.83,2-1.13,2.87-3.18,4.18-4.88l-.76-.58-4.85,5.05a48.84,48.84,0,0,1-10.54,6.66c-9.27,4.27-17.84,9.53-24.68,17.27a106.75,106.75,0,0,0-13,27.33c-5.56,17.15-.86,32.34,10.12,45.95,1.69,2.1,3.71,4.19,6.76,4.47,0-.23,0-.47.05-.7a35.73,35.73,0,0,1-4.51-6.2C258.92,446.32,258.11,416.1,275.17,396.51Z" transform="translate(-187.52 38.35)"/><path class="cls-1" d="M360.29,447.1c-2.52-6.36-7.35-11-12.35-15.22-7.14-6.1-13.14-13-17.15-21.53l-2.45-4.46c.93,9.35,3.82,17.85,10,25a115.89,115.89,0,0,0,11,11.19,37.71,37.71,0,0,1,6.41,7.34c1.57,2.35,2.77,4.84,1.8,8.63C362.56,454.68,360.92,450.78,360.29,447.1Z" transform="translate(-187.52 38.35)"/><path class="cls-1" d="M327.39,394.43a22.47,22.47,0,0,0-1.26-2.5c.23,6.34,3.23,11.37,5.15,16.74a81.31,81.31,0,0,0,20,24.27c4,3.36,8.13,7,9.67,12.46a13.07,13.07,0,0,1,1.56,8.74c-.51,2.49,1,2.52,2.56,2.39a5.31,5.31,0,0,0,3.89-8c-3.61-5.49-8.39-9.93-13.32-14.18C342.87,423.38,332.88,410.5,327.39,394.43Z" transform="translate(-187.52 38.35)"/><path class="cls-1" d="M354,449.89c-2.7-4.12-6.44-7.34-10.1-10.57-11.33-10-16.83-22.88-18.75-37.56-.58-4.39-2.27-8.95-1.58-13.12,1.36-8.19-.22-16.49,1.68-24.58.48-2,.68-4.11,1-6.16-.32-2.51.46-5.09-.73-7.61-1.36,10.22-4.59,20.12-4.82,30.51a58.91,58.91,0,0,1,.54,7,6.42,6.42,0,0,1-.07,1l.16.19-.13.21c1.25,8.29,2.46,16.58,3.74,24.85,2.35,15.16,8.34,28.51,19.59,39.22,2.89,2.75,5.66,5.58,6.14,9.91C356.58,458.36,358.59,456.93,354,449.89Z" transform="translate(-187.52 38.35)"/><path class="cls-1" d="M338.92,449.74c.65,4.4,2,7.58,2.33,11,.16,1.73-1.47,3.9.37,5.09s3.37-.72,4.89-1.69c1-.64,1.32.39,1.86.87,1.79-2.27.44-4.36-.85-6C345.11,456,342.27,453.3,338.92,449.74Z" transform="translate(-187.52 38.35)"/><path class="cls-1" d="M348.44,465.07l-.07-.06,0,0Z" transform="translate(-187.52 38.35)"/><path class="cls-1" d="M339.31,459.79c-.6-4.42-1.54-8.94-4-12.58-9-13.33-11.68-28.49-13.68-43.93-.34-2.63-.79-5.24-1.19-7.86l-.44,0c-.07,5.75,0,11.51-.22,17.25a72.81,72.81,0,0,0,10.86,42.67c2,3.31,4.14,6.82,3.71,11.06-.06.6,0,1.17.73,1.34a2.61,2.61,0,0,0,2.79-1C339.59,464.69,339.65,462.25,339.31,459.79Z" transform="translate(-187.52 38.35)"/><path class="cls-1" d="M227.25,409.77c-.92,1.9-.87,3.93-.87,6v.67a11.94,11.94,0,0,0,1.82-5.34c4.45-16.18,14.45-29.27,23.85-42.67a45.45,45.45,0,0,1,10-10.17,148.4,148.4,0,0,1,33.54-19.08,139.72,139.72,0,0,0,23.76-12.4c1.2-.78,2.82-1.38,2.39-3.38l-3.29,1.13c-.58,1.21-1.88,1.28-2.9,1.68-10.63,4.11-21.25,8.26-31.94,12.19-10.88,4-20.09,10.2-26.84,19.73-10.69,15.09-21.44,30.16-28.66,47.35C227.81,406.9,227.53,408.33,227.25,409.77Z" transform="translate(-187.52 38.35)"/><path class="cls-1" d="M275.41,340.42c6.78-3,13.73-5.65,20.62-8.4,5.9-2.34,11.84-4.59,18.67-7.23l-5.27-.15H309l-14.11,2.16-.14,0a94.59,94.59,0,0,0-19.45,7.9c-9.92,5.43-16.65,13.89-22.67,23.1-.72,1.5-1.43,3-2.15,4.51-2.39,3.47-2.39,3.47-1.93,5.36h0l2.85-4.69h0C257.78,353.75,264.81,345.12,275.41,340.42Z" transform="translate(-187.52 38.35)"/><path class="cls-1" d="M218.43,426.44c-4.64-15.85-2.73-31.34,2.41-46.66,2.37-7,4.38-14.18,7.93-20.83,10.47-19.64,25.76-32.74,48.08-36.76-.06-.37,1.41-1.05-.34-1.07-16.12-.15-29.17,5.86-38.87,19-5.89,8-11,16.39-16.46,24.67-7.19,17.94-10.22,36.44-7.09,55.68a21.29,21.29,0,0,0,5.92,12C220.16,430.2,219,428.38,218.43,426.44Z" transform="translate(-187.52 38.35)"/><path class="cls-1" d="M260.09,460.47C251.91,446.62,250.2,432.1,256,417c5-13.08,10.73-25.8,21-35.85,3.2-3.14,6.46-6.23,9.69-9.34,6.07-4,12.63-7.32,18.49-11.71a25.44,25.44,0,0,0,5.73-5.52c1.91-.72,2.65-2.56,3.82-4-2.22.24-3.23,2.1-4.63,3.44h0L285.19,371.3c-1.7.36-2.69,1.77-3.9,2.78-10.9,9.11-20.73,19.07-26.31,32.55-6.22,15-11.74,30.07-6.18,46.62,2.59,4.75,6.77,7.5,11.67,9.42C260.93,461.75,260.51,461.18,260.09,460.47Z" transform="translate(-187.52 38.35)"/><path class="cls-1" d="M316.18,319.15h0c-9.16,1.61-18.29,3.24-27.18,6.14-14.79,4.83-27.74,11.9-37.43,24.77-10.09,13.41-21.06,26.17-26.28,42.49-3.15,9.86-4.34,20-2.52,30.31.26,1.45.13,3.07,1.43,4.17.14-2.52.29-5,.43-7.58a40.12,40.12,0,0,1,2.53-14.75c-.12-1.73.82-3.13,1.5-4.58,4.38-9.48,9.77-18.42,15-27.46,2.67-5.19,5-10.55,8.26-15.42a48.77,48.77,0,0,1,6.36-9.58c8.5-10.84,19.71-17.51,32.89-21.07,8.09-2.6,16.51-3.07,24.88-3.91l.65-.13c4.42-1.7,9.33-2.33,13-5.88C325.16,317.71,320.77,318.94,316.18,319.15Z" transform="translate(-187.52 38.35)"/><path class="cls-1" d="M227.21,342.69l-1.05-.72c-2.76,3.74-5.61,7.42-8.27,11.23C210.31,364.05,207,376.13,207,389.38c0,11.2-.8,22.42,4.4,32.89.49,1,.66,2.22,1.79,2.84C206.74,395.71,216.6,369.14,227.21,342.69Z" transform="translate(-187.52 38.35)"/><path class="cls-1" d="M287.84,367.6c9.5-6.29,19.3-12.19,27.64-20.08.29-1.23,1.69-1.93,1.61-3.8-6.34,3.95-13,6.74-19.51,9.8-24.28,11.41-38.26,31.73-48,55.6-3.26,7.95-5.68,16.22-5.91,24.95-.69,4.78.43,9.36,1.57,13.94,1-3.28,0-6.52-.2-9.78l-.09-.07.11-.06C248.11,407.81,262.47,384.4,287.84,367.6Z" transform="translate(-187.52 38.35)"/><path class="cls-1" d="M243.22,424.15C248.57,400.48,260.5,380.61,278,364c6.44-6.1,14.31-9.9,22.31-13.44,1.22-1.54.18-1.31-.83-1-8.77,2.31-17,5.71-23.76,12-15.06,14-27.26,30.08-35.07,49.1-5.91,14.41-5,28.91,2.5,42.79,1.62,1.45,2.81,3.46,5.52,4.16-1.73-3.28-3.68-6.15-4.85-9.31C240.91,440.34,241.39,432.23,243.22,424.15Z" transform="translate(-187.52 38.35)"/><path class="cls-1" d="M236.07,368c7.5-10.79,15.44-21.29,24.73-30.67,1.61-.4,2.41-2,3.82-2.64-2.32-.57-3.65,1.07-5.17,2.3-8.23,5.44-15.3,12-20.3,20.65-6.06,10.44-11.42,21.28-18.29,31.25C215.18,404,217,418.7,222.67,434a4.86,4.86,0,0,0,.08-3.59C216.77,407.4,223,386.91,236.07,368Z" transform="translate(-187.52 38.35)"/><path class="cls-1" d="M252.24,334.1c-13.26,9.15-21.58,22-26.8,37-1.65,4.72-3.11,9.5-4.65,14.26,1.29.37,1.37-.84,1.78-1.47A157.45,157.45,0,0,0,231,369.43c6.9-13.95,15.46-26.51,29.3-34.56,3.19-1.85,6.27-4.06,10.25-3.82,9.84-5.18,20.45-8.29,31.75-11.45a11.3,11.3,0,0,0-2.11-.16C283.56,322.23,266.65,324.16,252.24,334.1Z" transform="translate(-187.52 38.35)"/><path class="cls-1" d="M244,400.08a160.78,160.78,0,0,1,27.66-36.64c7.13-7,15.29-12.06,25.06-14.51a55.19,55.19,0,0,0,22.23-11.21c.86-1.74,3.41-2.54,2.76-5.45-8.85,7.49-19.3,11.69-29.81,15.56-13.15,4.84-23.13,13.58-32.12,23.86a150.86,150.86,0,0,0-23.17,36c-4.23,9.12-5.53,18.88-5.14,28.92.26,6.61,2.63,11.94,8.14,15.74.63-.11,1.13-.28.77-1.09C232.42,433.54,234.69,416.56,244,400.08Z" transform="translate(-187.52 38.35)"/><path class="cls-1" d="M369.23,418.44c4.88,4,9.44,8.49,15.37,12.34-.69-4.71-3.19-7.54-6.11-9.95-4.13-3.4-8.41-6.63-12.72-9.81a51.54,51.54,0,0,1-14.45-15.89c-12-20.93-17.89-43.32-16.2-67.53.2-2.76,1.38-5.42.77-8.84-4,7.86-5.15,15.8-4.88,23.89C332,373.78,345.42,398.78,369.23,418.44Z" transform="translate(-187.52 38.35)"/><path class="cls-1" d="M681.76,120.47A65.56,65.56,0,0,1,660,115.66c-11.35-4.36-22.89-4.82-34.68-2.39a5,5,0,0,0-3.27,2.13c13.76-2.68,26.3,1.4,38.69,6.5,8.37,3.45,17,5,25.92,2.42a21.91,21.91,0,0,0,9.68-5.23A81.93,81.93,0,0,1,681.76,120.47Z" transform="translate(-187.52 38.35)"/><path class="cls-1" d="M673.73,111.08a209.35,209.35,0,0,0-23.11-3.43l-14.16.08c-1.59.67-3.28,1.18-4.43,2.5.13.75.6.66,1.05.59,9.08-1.5,17.84-.1,26.41,2.92,9.27,3.27,18.63,5.74,28.66,5,9.21-.73,16.4-4.53,21.64-12.65-3.29,1.42-6.18,2.84-9.19,3.93C691.78,113.18,682.74,112.79,673.73,111.08Z" transform="translate(-187.52 38.35)"/><path class="cls-1" d="M614,102a53.45,53.45,0,0,1-4.62,9.31c-5.32,8.42-12.52,14.41-22.2,17.21l-.09,0c-2.88,1.29-5.93.42-8.89.69a13.45,13.45,0,0,0-5.84-1.1,8.1,8.1,0,0,0,4.57,2c7.26,1.78,14.47,2.52,21.67-.42a59.65,59.65,0,0,0,7.31-3.93l5.4-6.44a58.49,58.49,0,0,0,4.19-19C614.18,100.11,614.31,101.31,614,102Z" transform="translate(-187.52 38.35)"/><path class="cls-1" d="M646.25,103.88l-1.13.3c-1.24.77-3.12.09-4.12,2.07,4,.48,7.94-.63,11.77.31,6.66,0,13.15,1.29,19.64,2.54,11.41,2.2,22.63,2.4,33.38-2.91a34.26,34.26,0,0,0,10.56-7.81c-1.61-1.39-2.51.38-3.47,1-8.62,5.26-17.75,7.27-27.77,5.23A107.47,107.47,0,0,0,652.8,103h0l-7.14,1.07A3,3,0,0,0,646.25,103.88Z" transform="translate(-187.52 38.35)"/><path class="cls-1" d="M630.11,116.39c-2.88-.64-5.59.18-8.32,1a11.33,11.33,0,0,0,6.27.06,29.67,29.67,0,0,1,14.79,5.18c6.56,4.33,13.39,8,21.39,8.79,6.27.65,12-.95,17.45-4-10.33,1-19.42-3-28.58-6.56C645.7,118,638.15,116,630.11,116.39Z" transform="translate(-187.52 38.35)"/><path class="cls-1" d="M631.4,22c5.16,7.61,10.32,15.25,14.53,23.46A45.28,45.28,0,0,1,650.59,60c2.49,6.48,2,13.14,1.13,19.81a57.49,57.49,0,0,1-3,11.73q-1.1,2-2.2,3.93l.83.56q1.13-1.92,2.26-3.84c7.91-10.5,9.45-22,5.38-34.38-2.32-7.07-4.42-14.21-6.61-21.33h0A219.73,219.73,0,0,0,637.52,17c-6.29-10-9.38-21-10.29-32.63a62.43,62.43,0,0,0-1-7.87A46.57,46.57,0,0,0,623-4.9,48,48,0,0,0,631.4,22Z" transform="translate(-187.52 38.35)"/><path class="cls-1" d="M496.44,5.39a51.13,51.13,0,0,1,18.7-11.56c11-4.64,22.37-4.73,34-3.49,9.78,1.06,18.84,4.68,28.1,7.6C578.77-.89,580.74-.71,582.5,0h0l.63-.91-5.19-2.16a189.36,189.36,0,0,0-22.85-9.27C540-17,525.46-15.52,510.85-9.52A64.91,64.91,0,0,0,481,14.73c-2.17,3.18-4.43,6.3-6.36,9.68,6-3.76,10.64-9.14,16.1-13.49C492.65,9.07,494.51,7.18,496.44,5.39Z" transform="translate(-187.52 38.35)"/><path class="cls-1" d="M516.05-5.54c-.71.37-1.4.8-2.13,1.11A60.6,60.6,0,0,0,495.59,8c-.43.4-2,.95,0,1.47C508,2.79,520.42-3.92,535.27-3c9.56.6,18.88,2.6,28.16,4.81a88.72,88.72,0,0,0,26.29,2.7c-.09-.4-.08-.73-.18-.77C578.61.19,567.81-3.95,556.68-6.77A70.52,70.52,0,0,0,516.05-5.54Z" transform="translate(-187.52 38.35)"/><path class="cls-1" d="M615.78,41.33c-.07,12.33,1.32,24.59,1.66,36.9.06,2.06.64,4.15-.08,6.21.26,10.79-.12,21.52-3.37,32-.22.71-1.29,1.53,0,2.29,7-5.49,15.2-9.19,22.76-13.84,13.26-11,15.21-25.79,13.58-41.69C647.88,48,638.83,36.08,630.7,23.82c-5.79-8.72-9.2-17.94-9.24-28.4a17.89,17.89,0,0,0-.31-2.09C619.28-4.16,619.44-1.5,619,.89c-1.28,6.84-2.11,13.77-3.41,20.61C614.32,28.15,615.83,34.72,615.78,41.33Z" transform="translate(-187.52 38.35)"/><path class="cls-1" d="M639.82,17.68a94,94,0,0,1,8.9,16.58h0c4.17,9,6.48,18.64,9,28.17a32.16,32.16,0,0,1-4.37,26.72c-2,3.12-4.05,6.24-6.12,9.33-.57.84-.56,1.2,0,1.2a5.1,5.1,0,0,0,.72-.12c4.33-3.89,8.57-7.86,11.69-12.85a29.86,29.86,0,0,0,3.59-24.15c-.51-2-.86-4.09-1.28-6.14l0-.09C654.11,26.77,638.25.26,629.29-28.95c-1.07,1.05-.84,2.68-.81,4C628.77-9.8,631.18,4.72,639.82,17.68Z" transform="translate(-187.52 38.35)"/><path class="cls-1" d="M606.42,113.42c3.8-5.06,5.88-11,8.58-16.6l.72-5h0c.75-1.9.33-3.85.63-6.41a7.7,7.7,0,0,0-1.54,4.51c-4.9,15.8-14.73,27-30.57,32.48-8.06,2.8-15.6.31-23.06-2.57-.35,2.09,1.61,2.25,2.67,2.82a43.65,43.65,0,0,0,17.7,5.57C592.14,127.15,600.15,121.77,606.42,113.42Z" transform="translate(-187.52 38.35)"/><path class="cls-1" d="M343.87,375.83c4.15,9.88,8.24,19.82,15.83,27.7,5.58,5.8,12.4,10.16,18.68,15.15,4,3.22,7,7.08,7.88,12.58,3.43-2.12,4.92-5,4.43-8.77-.89-6.92-4.95-11.87-10.25-16-6.62-5.13-13.91-9.32-20.39-14.65-6.64-5.45-12.29-11.68-16.13-19.43q-1.1-2.46-2.17-4.92A14.22,14.22,0,0,0,343.87,375.83Z" transform="translate(-187.52 38.35)"/><path class="cls-1" d="M493.77,11.32h0l.06-.06Z" transform="translate(-187.52 38.35)"/><path class="cls-1" d="M297.78,313.6c-9.23-.17-18.39.55-27.57,1.22a67.54,67.54,0,0,0-28.11,12.53c-7.24,5.39-12.09,12.5-15.38,20.77-1.5,3.78-2.81,7.64-4.21,11.46,1.36,0,1.45-1.29,2-2.08,3.83-6.1,7.6-12.24,12-18,8.81-11.61,20.07-18.78,35-19.5A200.41,200.41,0,0,0,297,317.07c1.56-.28,3.18-.83,4.77,0l7.65-.36.7-.07,15.9-2.44c5.34-2,11.14-3.22,15.4-8.59-5.41,1.79-10.11,3.51-14.9,4.9C317.14,313.21,307.47,313.77,297.78,313.6Z" transform="translate(-187.52 38.35)"/><path class="cls-1" d="M330,331.88c.21-2.18.84-4.33,1.27-6.49.91-2.6,2.9-4.86,2.44-7.88-1.11,2.2-2.93,4-3.43,6.54-3.82,8.37-3.42,17.12-2.26,25.93a6.81,6.81,0,0,1,.24,2.73c2.06,17.75,8,34.16,16.68,49.71a111.75,111.75,0,0,0,23.69,29.16,19.75,19.75,0,0,0,9.2,4.79,4.13,4.13,0,0,0,4.9-2.4c1.18-2.24-.92-2.83-2.05-3.74-10.88-8.79-21.88-17.44-30.47-28.66C334.44,381,327.51,357.78,330,331.88Z" transform="translate(-187.52 38.35)"/><path class="cls-1" d="M490.23,89.48c9.95.47,19.55,2.85,29.12,5.38s19.41,5,29,7.68c12.28,3.42,22.88-.16,33-7.08,9-6.21,16.22-13.86,20.69-24,2.21-5,4.91-9.78,7.35-14.69a9.45,9.45,0,0,0,1.27-4.65c-1.33,0-1,1.74-2.15,1.87-2.09,4.79-5.59,8.59-8.82,12.58-4.3,6.29-10.05,11.17-15.69,16.17-7.76,6.87-17.06,8.66-26.76,9.21a8.92,8.92,0,0,1-1.16.06l-2.26.09h0a47.65,47.65,0,0,1-5.19.29c-12.9-.67-25.62-2.89-38.3-5.14-15.71-2.78-31.2-3.47-46.43,2.05-5.62,2-11.18,4.33-15.94,8.12.72.81,1.48.4,2.21.06,7.3-3.38,15.11-5.34,22.87-7.08A46.53,46.53,0,0,1,490.23,89.48Z" transform="translate(-187.52 38.35)"/><path class="cls-1" d="M614.1,51c0,.41-.07.81-.1,1.21A3.44,3.44,0,0,0,614.1,51Z" transform="translate(-187.52 38.35)"/><path class="cls-1" d="M328.84,365.7c-.15-.79-.2-1.61-.3-2.41v0l-.39-1.81c-1.37.65-1,2-1.17,3.08-3.23,16.84,1.22,32,10,46.25,6,9.76,14.18,17.5,22.56,25.09,4.23,3.82,8.41,7.72,11,12.92,1.5,1.24,2.34.08,3-.95,2-2.94,3.25-6.08,2.52-9.73-13-6.15-21.35-17.2-28.86-28.64C338.52,396.12,331.83,381.62,328.84,365.7Z" transform="translate(-187.52 38.35)"/><path class="cls-1" d="M446.53,96.88c.63-1,2-1.25,2.33-2.47L453.47,91a45.06,45.06,0,0,1,14.17-9.22c7.1-3.55,14.81-3.91,22.49-4a188,188,0,0,1,44,4c18.49,4.09,34.94,0,50.44-10.21,7.53-5,14.52-10.39,20.33-17.37,5.55-6.68,7.64-14.39,7.91-22.81l-.58-.09h0a19.22,19.22,0,0,0-1.13,2.33,54.81,54.81,0,0,1-23.62,28.51c-16.09,9.85-33.86,12.66-52.41,10.72-11.45-1.19-22.8-3.57-34.39-1.9-5.68,1.17-11.35,2.36-17,3.5-12.57,2.53-23.73,7.82-33.11,16.68-.9.85-1.61,2-3,2.28a3.22,3.22,0,0,1,0,.62,13.13,13.13,0,0,0-1.89,2.3C445.14,97.35,446.19,96.73,446.53,96.88Z" transform="translate(-187.52 38.35)"/><path class="cls-1" d="M597.11,96.83c8.75-10.13,12.45-22.94,14.23-36.17a13.8,13.8,0,0,0-.41-2.79c-2.83,5.43-5.56,10.12-7.78,15-6.8,15-18.86,24.19-33.47,30.61-7.34,3.23-14.86,2.36-22.28.51-13.44-3.36-26.78-7.11-40.22-10.44-4.54-1.12-9.07-2.67-13.87-2.42l-5.22-.69c-2.53.31-5.15-.06-8.33,1.08l5,.5,6.44.18c2.73-.12,5.32.77,8,1.17,5.26,1.67,10.57,3.19,15.77,5,10.74,3.83,21.32,8.15,32.14,11.72C566.54,116.56,583.76,112.28,597.11,96.83Z" transform="translate(-187.52 38.35)"/><path class="cls-1" d="M596,114.74c10-7.64,16.46-17.54,18.63-30.07.18-1,.5-2,.75-3,.55-9.79-.78-19.5-1.41-29.24l-.93-1.88a32.53,32.53,0,0,0-.31,9,10.36,10.36,0,0,1,0,3.47c-4.33,19.83-10.83,38.31-31.29,47.44-9.26,4.14-18.89,5.48-28.83,2.46a6,6,0,0,0-1.69,0c-.38.57,0,.93.43,1.11,7.83,3.54,15.65,7.23,24.38,7.83C583.44,122.39,590.09,119.28,596,114.74Z" transform="translate(-187.52 38.35)"/><path class="cls-1" d="M600.41,61.52a109.05,109.05,0,0,1-22.73,15.92c-13.62,7.45-28,9.06-43.22,6-17.13-3.44-34.47-5.19-52-4a47,47,0,0,0-13.27,2.79c-2.46,1.4-5,2.66-7.34,4.26-1.54,1.07-3.88,1.4-4.23,3.82,1.9-1.7,4.33-2.42,6.64-3.13,15.57-4.75,31.24-4.45,47.22-1.72s31.72,6.35,48,4.92c1.71-.31,3.4-.66,5.12-.93,7.71-1.21,14.58-4,20.42-9.48,4.82-4.5,9.36-9.25,13.94-14l2.86-4.15c3-2,3.73-5.85,6.61-7.92-.22-.81-.48-1.15-1.22-.28C605,56.32,602.7,58.91,600.41,61.52Z" transform="translate(-187.52 38.35)"/><path class="cls-1" d="M447.47,93.3l.48-1.5c10.35-10.59,23-16.62,37.47-19.31,3.19-.59,6.36-1.29,9.54-1.94,11.45-2.71,22.89-1.94,34.36-.1C546.87,73.28,564,72,580.26,64.34,593.78,58,603.64,48,609.37,34.11c.5-1.21,1-2.38.38-3.68C599.32,47.3,585.88,60,565.17,62.64a67.88,67.88,0,0,1-16.67-.3c-7.64-.91-15.23-2.22-22.84-3.37l-.21,0c-12.13-.43-24.55-1.8-36.07,2.67C473,68,458.18,77,447.1,91.18c-1.41,1-2,2.61-2.93,4C445.79,95.46,445.93,93.14,447.47,93.3Z" transform="translate(-187.52 38.35)"/><path class="cls-1" d="M240.87,395.53a152.58,152.58,0,0,1,29.18-36.83c7.67-7.06,17.1-10.7,26.43-14.63,7.74-3.25,15.48-6.47,22.09-11.82a25.81,25.81,0,0,0,6.39-7.33c-.61-.67-1-.06-1.45.25-8.88,6.95-18.94,11.69-29.24,16.1C281.51,346.75,269,353,259,362.8c-11.53,11.26-19.45,25.19-26.34,39.62-3.06,6.4-4.14,13.52-6.21,20.29-1.12,6.8-.48,13.28,3.42,19.18a126.2,126.2,0,0,1,.15-16.73C231.16,414.35,235.57,404.78,240.87,395.53Z" transform="translate(-187.52 38.35)"/><path class="cls-1" d="M192.68,175.93c-.52,13.1,5.06,23.39,14.7,31.76,5.09,4.42,10.31,8.69,15.46,13,22.14,13.55,46.49,17.62,72,17.57,12.9,0,25.3-1.63,37.25-6.47,1.23-.49,2.42-1.07,3.63-1.62-.08-.27-.16-.54-.25-.81-3.7.56-7.42,1.05-11.11,1.71a43.41,43.41,0,0,1-12.87.43c-9.84-1.19-19.73-1.35-29.63-1.59-21.43-.51-41.2-7-59.65-17.67a80,80,0,0,1-17-12.66c-7.88-8-11.28-17.63-10.75-28.76q-.87,2.53-1.75,5.07Z" transform="translate(-187.52 38.35)"/><path class="cls-1" d="M319.48,237.66l-3.86,1.4c3.8.87,7.06-.1,10.35-.45,1-.11,2.31-1,2.88.74a13.21,13.21,0,0,0,7.08-1.6,24.61,24.61,0,0,0,15.32-9.41c3.74-2.35,5.28-6.67,8.49-9.61-1.84,0-3.24,1.06-4.63,2-10.48,7.48-21.74,13.35-34.33,16.42A4.71,4.71,0,0,1,319.48,237.66Zm13.73-.15-.33.18a1.34,1.34,0,0,1-.4,0C332.73,237.64,333,237.57,333.21,237.51Z" transform="translate(-187.52 38.35)"/><path class="cls-1" d="M307.57,229.7c11.57,1.76,22.74-.94,33.94-3,4-.74,7.21-3.34,10.17-6.17-9.55,1.63-19,3.45-28.61,4.11-12.51,1.06-25.06.77-37.58,1.19-9.57.33-18.9-2.29-28.43-2.6-1.19,0-2.52-.65-3.44.69a117.13,117.13,0,0,0,34.78,4.66A110.8,110.8,0,0,1,307.57,229.7Z" transform="translate(-187.52 38.35)"/><path class="cls-1" d="M379,232.56c-1.69,8.4-6,16-7.13,24.59-.67,5.26-1.58,10.48-3.93,15.32l.69,1.09c6.92-12.6,10-26.24,11.05-40.44a4.79,4.79,0,0,0-.37-.58S379,232.53,379,232.56Z" transform="translate(-187.52 38.35)"/><path class="cls-1" d="M377.57,211.38c1.27-1.57,3.11-2.75,3.49-5.51-3.36,2.28-5.67,5.07-8.13,7.68C375.11,214.17,375.82,211.68,377.57,211.38Z" transform="translate(-187.52 38.35)"/><path class="cls-1" d="M379.35,213.91l-1.08,2.39c-1.72,8.28-5.3,16.06-6.59,24.46-.54,3.55-1.43,7.05-1.45,10.68a3.46,3.46,0,0,0-.13,1.29c-.24,2.45-.49,4.89-.73,7.34.32.11.46,1.48.74.49a52.77,52.77,0,0,0,1.09-7.14c2.62-9.69,6.7-19,8.31-28.94a3.22,3.22,0,0,1,.39-2.23c.19-2.3.37-4.6.56-6.9.45-1.71.89-3.41,1.59-6.07A8.82,8.82,0,0,0,379.35,213.91Z" transform="translate(-187.52 38.35)"/><path class="cls-1" d="M332.74,278a61.59,61.59,0,0,1-28.81,21.14l-8.78,1.34.09.95a8.69,8.69,0,0,0,4.88.32c15.64,1.06,26.87-6.94,36.93-17.7,9.31-10,13.2-22.21,15.89-35.1,1.88-9,3.69-18,9.93-25.37,2.94-3.45,5.68-7.07,8.52-10.61h0c1.26-.83,2-2.12,3.17-3.74a7.42,7.42,0,0,0-3.88,2.66c-8.72,6.15-14.42,14.28-17.9,24.5C347.8,251,342.29,265.46,332.74,278Z" transform="translate(-187.52 38.35)"/><path class="cls-3" d="M333.21,237.51c-.24.06-.48.13-.73.18a1.34,1.34,0,0,0,.4,0Z" transform="translate(-187.52 38.35)"/><path class="cls-3" d="M393.38,425.1s0,0,0,0l.36-1.27h0A1.38,1.38,0,0,0,393.38,425.1Z" transform="translate(-187.52 38.35)"/><path class="cls-3" d="M193.27,167.79l-1,2.16.54-.41a.39.39,0,0,1,.11.06,1.73,1.73,0,0,1,.29.23c-.65,2.1-1.09,3.54-1.54,5,.08.4.16.8.23,1.19-1.1,2.77.62,5.64-.32,8.41-2.22,1.61,0,4.19-1.32,6a11.92,11.92,0,0,1-1.16,5.18q-.52,3.58-1,7.17c.43.65.14,1.28,0,1.92l0,.08-.3.77v0c-.66,1.94.48,3.77.32,5.68,2.21,7.29,4.36,14.6,6.64,21.87,2.58,8.23,6.32,15.84,12.61,22,4.26,9.19,11.58,15.79,18.93,22.36,1.26,1.13,2.94,2,2.87,4-.16,1.28,1.36,1,1.69,1.84,2.6,4.5,7,6.91,11.22,9.46a31.24,31.24,0,0,0,10.64,4.17,24.94,24.94,0,0,0,9.8,2.15c8.1,0,16,1.64,23.95,2.59,6.67.81,13.3,1.65,20,2a78.54,78.54,0,0,0,31.39-4.9c4.27.76,7.59-1.36,10.87-3.6,8-5.5,15.88-11,20.75-19.93,8.25-15,11.85-31.1,12-48.09.48-7.58.8-15.19,3.75-22.36,1.6.78.81,2.24.78,3.33-.09,4-.4,8-.62,12.07-1.78,10.48-2.5,21.09-5,31.51a102.91,102.91,0,0,1-13.76,31.42,46.32,46.32,0,0,0-5.91,6.68c-2.06,1.87-4.21,3.64-6.16,5.62-7.19,7.31-16.84,9.54-26,12.6-13.05,4.33-26.63,3.82-40.13,3.84a32,32,0,0,0-7.62.59,7.6,7.6,0,0,0-1.06-.05,35.65,35.65,0,0,0-7.56.76l-1.39.2c-8.74.55-16.47,4.13-23.69,8.64-16.83,10.52-29.66,24.73-37.61,43-4.76,11-4.27,22.72-4.29,34.36,0,9.46,1.59,18.55,6.39,26.84,2,3.4,3.43,7.21,7.88,8.57,2.64.82,4,3.42,5.2,5.84.54,1,.92,2.61,2.75,1.73a54.53,54.53,0,0,0,11.48,11.07,4,4,0,0,0,2.41,1.82c3,1.73,5.08,5.65,9.56,4.06.41-.14,1.15.67,1.74,1.05,5.57,3.57,11.73,6.22,16.64,10.89A11,11,0,0,0,280.69,474c1.79,1,3.52,2,5.61.55,1.26-.87,2.27.32,3.36.76,4.61-.39,9.29-.51,13.82-1,3.54-.42,7-.22,10.51-.49,4.08-.32,5.63-2.31,4.09-6-8.55-20.53-7.76-41.35-2.27-62.37.29-1.12.54-2.26.78-3.4.2-1,.37-1.92.69-3.61h.16l.1,0c1,5.18.61,9.56.43,13.83-.65,15.56,2.49,30.06,10.9,43.32a26.49,26.49,0,0,1,3.59,7.93c.67,2.81-.21,4.72-2.93,5.88a22.07,22.07,0,0,1-5,1.34c-1.69.29-3.39-.8-5.7.34,3.92,2,7.3,1.42,10.65.11a60.52,60.52,0,0,1,6.84-2c4.05-1,8.9-.54,12.16-4.1,2.92,1.3,4.49-.79,5.84-2.68,1.66-2.33,3.94-3.54,6.42-4.62,1.15-.5,2,.27,2.88.66,4.52-.09,7-2.62,8.17-6.76l4.14-4.31c.69-2.65,2.55-5,1.7-8,3.08-1.38,5.42-3.88,8.28-5.53,5.32-3.06,7.71-8.24,6.07-14.16a25.63,25.63,0,0,0-6.45-11.06c-2.87-2.95-6.3-5.17-9.64-7.51-7.74-5.4-15.72-10.47-22.25-17.45-7.17-7.66-11.28-16.83-13.94-27,1.32.16,1.54,1.11,1.93,1.74a71.25,71.25,0,0,0,28.93,26.14,61.2,61.2,0,0,1,14.39,9.82c3.13,3.9,6.09,7.88,8,12.58,2,5.06,2,10.11-.23,16.07,6.11-6.44,2.05-21.38-7.07-29.67a35.23,35.23,0,0,0-8.64-6.92c-6.54-4.13-13.95-6.93-19.52-12.57-18.23-15-24.16-31.53-19.43-53.09.37-1.67,1.25-3.26.9-5.06.63-1.49,1.19-3,1.9-4.45C342.88,307,347,306,351,308.58c9.5,6.32,16.48,15.05,22.56,24.47,5.28,8.18,10.95,15.81,19.2,21.33,14.13,9.46,24.22,9.64,38.51.58,5.56-3.53,10.63-7.5,14.43-12.94,7.32-7.21,9-16.44,9.33-26.13.3-9.05,1-18.07,1.76-27.08h0c2.1-6,6.5-10.2,11-14.31,2-1.77,4.44-2.95,5.79-5.37,10.71-5.38,12.63-14.93,5.49-24.29-2.86-3.75-4.81-8.19-8.54-11.31-.65-.54-.57-1.14-.16-1.84a3.15,3.15,0,0,0,.09-2.73c-2.27-5.78-2.95-12.44-9-16.14-1.89-1.15-.68-3.86-2.29-5.25l-2-3.95c.46-.7,1.62-1,1.16-2.22-3.33-8.93.59-17,3.49-24.93,1.91-5.23,3-10.19,1-15.52-1-4.95-4.86-7.76-8.39-10.67a108.15,108.15,0,0,0-18.53-12.11c-2.76-1.9-6-2.42-9.16-2.82-1.51-.19-1.89-.65-1-1.92a51.67,51.67,0,0,0,6.83-14c.11-.33.69-.49,1.05-.73,2.81-2.13,4.27-5.36,6.49-8a39.07,39.07,0,0,1,13.52-10.69c9.65-4.49,19.37-8.4,30.33-7.3a1,1,0,0,0,.41,0L498,94.67c15,3.49,28.85,10,42.84,16.22,1.37.61,2.78,1.11,4.18,1.66,3.44,2.39,7.69,3.33,11,6,9.26,8.26,19.25,15,32.38,14.62,6.91-.17,13.22-2.07,18.49-6.77a10.39,10.39,0,0,0,2.08-1.21c8.59-8.06,18.4-6.91,28.34-3.52,2.8,1,5.32,2.86,7.83,4.53,14.27,9.47,28.7,9,43.16.64a86.38,86.38,0,0,0,36.2-39.95c.8-1.78,3.11-3.7,0-6-.54,4.44-4,6.18-7.29,8.09-8.65,5-17.8,7.37-27.81,5.59a26.94,26.94,0,0,0-3.12-.21c-.23-.05-.47-.08-.71-.11-7.5-1.14-14.74,1-22.46,2.25,1.15-1.61,2.7-1.64,3.92-2.21s2.77-1.16,4.16-1.74c6.37-3.3,13.21-3.15,20.09-2.73a42.39,42.39,0,0,0,28.88-8.28c1-.78,2.56-1.23,2.74-4.18C710.4,89,695.81,89.21,680.42,88.15a1.55,1.55,0,0,1,0-.21l3.79-1.65c9.34-1.73,19-2.19,27.75-6.4a16.4,16.4,0,0,0,6.4-5.24c.35-.48.65-1,0-1.49s-.79.1-1.06.45c-3.79,5-9.39,6.65-15.09,7.92-3.91.88-7.93,1.26-12.2,1.91a28.08,28.08,0,0,1,8-4.09c4.68-1.78,9.35-3.54,13.57-6.29a29.7,29.7,0,0,0,3-2.34c.51-.43,1.24-1,.6-1.7s-1.17-.07-1.67.39c-5.76,5.23-13.39,6.81-20.07,10.26-.91.47-.83-.32-.88-.86,4.38-4.58,10.3-7.2,14.82-11.6a11.36,11.36,0,0,0,3.48-5c-2.52,1.26-3.39,3.37-5.53,4l-.15-.15c-.07-2.68,2.87-4.49,1.66-7.87-1.81,3.47-3.2,6.55-5.79,9.55l-.07,0c.18-4.84,4.16-8.48,2.57-13.85-1,2.21-.73,4-2.08,5.36-1.39-3.1.38-6.73-2.17-10.23-.4,8.39,2.74,16.84-5,23.33,2-10.34,2-20.31-1.05-30.15.35,5.47.79,10.94,1,16.42.2,4.8-.76,9.5-1.61,14.2a12.77,12.77,0,0,1-3.78,6.55c-1-.6-1.48,3.61-2.87.38,4.15-8,5-16.66,5.26-25.39.16-4.76-.27-9.54-.46-14.31-.05-1.16-.09-2.37-1.73-3,.62,9.31,1.15,18.5-.22,27.68a64.64,64.64,0,0,1-4.86,16.71A11.84,11.84,0,0,1,676.11,88c6.6-9.1,8.62-19.58,9.53-30.37s.65-21.18-4.38-31c1.25,5.6,2.72,11.19,3,17,.53,13-.25,25.85-6.2,37.81a25.21,25.21,0,0,1-9.21,10.72c-1.21,0-1.36-.43-.65-1.4C680.45,74,679.91,55.19,676.74,36,674.31,21.28,666.44,9.22,658-2.56a2.62,2.62,0,0,0-2.21-1.58C657-2.28,658-.78,658.94.75c5.36,8.71,11.28,17.22,14.41,27A85.26,85.26,0,0,1,673.79,78c-1.46,5.13-4.48,9.44-7.8,13.53a8.41,8.41,0,0,1-4.71,3.25c.15-.52.14-.84.3-1,8-9,11.12-19.62,10.9-31.52-.26-14.05-3.49-27.44-8.18-40.56a22.22,22.22,0,0,0-1.62-3C660,12,655.53,6.4,652,.25A99.33,99.33,0,0,1,642.55-21,5.58,5.58,0,0,0,640-24.44a74.2,74.2,0,0,0,9.13,22.93q6.51,10.91,13.06,21.8c3.52,9.49,6.63,19.13,7.86,29.2,1.29,10.51,2.23,21.08-2.11,31.24-3.22,7.52-7.46,14.17-15.11,18a1.07,1.07,0,0,0-.72,1c6.41-1.07,12.83-2.11,19.24-3.23a108.19,108.19,0,0,1,12.84-1c12.49,2.61,24.26,1,35.13-6,.7-.45,1.3-1.43,2.48-.86-.76,3-2.83,5-5,6.89-1.51.85-3.05,1.66-4.52,2.58-8.4,5.25-17.44,6.68-27.15,4.87a93.49,93.49,0,0,0-27.43-1.43c-1.93-.41-3.82.11-5.72.26-1.12.09-1-.4-.76-1.14l.68-1c-.84-1.44.36-2,1.17-2.75,7.55-7.23,13.24-15.46,13-26.46-.17-6.66-2-13.07-4-19.4h0c-2-9.41-5.84-18.14-9.51-26.95C646.1,9,639.73-6.11,633.56-21.32c-1.7-4.18-3.1-8.57-2-13.26.38-1.7-1.15-2.26-2.26-3.77-2.4,8.21-6.18,15.49-7.13,23.66-.39,3.35-2.27,5.56-4.72,7.72a47.5,47.5,0,0,1-12,8.23c-5.19,2.62-10.13,1.14-15-.92L560.25-12.4c-2-.77-4.23-.49-6-1.85C526.43-21,503.36-12.77,484.38,8c-3.13,3.42-5.57,7.47-8.32,11.23-1,1.31-1.89,2.65-2.9,3.93-.31.4-.81.53-.66-.31a2.81,2.81,0,0,1,.29-.64l-.82-.57-3.42,6.78c-4,6-7.53,12.42-12.27,17.75s-8.08,11.31-11.47,17.36c-6,10.67-8.58,22.29-9.35,34.4a56,56,0,0,1-5.17,17.72c-4.22,7.3-10.32,13-16.27,18.77a20.45,20.45,0,0,1-3.42,2.36c-11.08,4.83-16.9,13.81-20,25-2.52,9.2-4.89,18.43-5.24,28a34.09,34.09,0,0,0,.93,8.3c-.55,2.29-2.54,3.13-4.27,4.24-2.83,1.81-5.64,3.67-8.46,5.51-2.73.63-3.52,4.15-6.51,4.41-2.06,1-4.08,2.17-6.19,3.1-10.28,4.58-21.35,5.88-32.29,7.67h0c-13.68.47-27.36,1-41,1.38A108.75,108.75,0,0,1,268.84,223c-6.09-.87-12.2-1.49-18.36-.67a34.11,34.11,0,0,1-6.71-1.66,118.85,118.85,0,0,1-37.86-22.1c-7.51-8.43-10.73-18.34-10.19-29.55.16-.14.32-.28.47-.43a2.17,2.17,0,0,1,.32.57,53,53,0,0,0,14.85,27.55c12,12,27.38,18.07,43.8,20.52,11.55,1.71,23.4,1.32,35.12,1.87,5.88.79,11.8.53,17.7.54,19.32,0,38.48-1.29,56.92-7.75H365a.34.34,0,0,0-.06-.06c-.66-.67-1.51-.21-2.26-.35-22.22,6.65-45,7.83-67.94,6.45-.57,0-1.14,0-1.71.06-10.32-1.07-20.69-1.18-31-1.74a79.3,79.3,0,0,1-47.49-19c-7.61-6.37-12.23-15.2-15.88-24.38-1.37-3.46.33-6.35,2.2-9.09l-.61-1.25Zm18.16,254.48c-5.2-10.47-4.36-21.69-4.4-32.89-.05-13.25,3.28-25.33,10.86-36.18,2.66-3.81,5.51-7.49,8.27-11.23l1.05.72c-10.61,26.45-20.47,53-14,82.42C212.09,424.49,211.92,423.27,211.43,422.27Zm2.66-1.84c-3.13-19.24-.1-37.74,7.09-55.68,5.41-8.28,10.57-16.71,16.46-24.67,9.7-13.1,22.75-19.11,38.87-19,1.75,0,.28.7.34,1.07-22.32,4-37.61,17.12-48.08,36.76-3.55,6.65-5.56,13.79-7.93,20.83-5.14,15.32-7.05,30.81-2.41,46.66.57,1.94,1.73,3.76,1.58,6A21.29,21.29,0,0,1,214.09,420.43Zm42.67-62.32c6.75-9.53,16-15.72,26.84-19.73,10.69-3.93,21.31-8.08,31.94-12.19,1-.4,2.32-.47,2.9-1.68l3.29-1.13c.43,2-1.19,2.6-2.39,3.38a139.72,139.72,0,0,1-23.76,12.4A148.4,148.4,0,0,0,262,358.24a45.45,45.45,0,0,0-10,10.17c-9.4,13.4-19.4,26.49-23.85,42.67a11.94,11.94,0,0,1-1.82,5.34v-.67c0-2.05,0-4.08.87-6,.28-1.44.56-2.87.85-4.31C235.32,388.27,246.07,373.2,256.76,358.11Zm-8.22,9.59h0c-.46-1.89-.46-1.89,1.93-5.36.72-1.5,1.43-3,2.15-4.51,6-9.21,12.75-17.67,22.67-23.1a94.59,94.59,0,0,1,19.45-7.9l.14,0L309,324.63h.44l5.27.15c-6.83,2.64-12.77,4.89-18.67,7.23-6.89,2.75-13.84,5.39-20.62,8.4-10.6,4.7-17.63,13.33-24,22.59h0Zm68.12-45.15-.65.13c-8.37.84-16.79,1.31-24.88,3.91-13.18,3.56-24.39,10.23-32.89,21.07a48.77,48.77,0,0,0-6.36,9.58c-3.26,4.87-5.59,10.23-8.26,15.42-5.21,9-10.6,18-15,27.46-.68,1.45-1.62,2.85-1.5,4.58a40.12,40.12,0,0,0-2.53,14.75c-.14,2.53-.29,5.06-.43,7.58-1.3-1.1-1.17-2.72-1.43-4.17-1.82-10.32-.63-20.45,2.52-30.31,5.22-16.32,16.19-29.08,26.28-42.49,9.69-12.87,22.64-19.94,37.43-24.77,8.89-2.9,18-4.53,27.18-6.14h0c4.59-.21,9-1.44,13.45-2.48C326,320.22,321.08,320.85,316.66,322.55ZM222.75,430.43a4.86,4.86,0,0,1-.08,3.59c-5.66-15.32-7.49-30-1.81-45.11,6.87-10,12.23-20.81,18.29-31.25,5-8.61,12.07-15.21,20.3-20.65,1.52-1.23,2.85-2.87,5.17-2.3-1.41.68-2.21,2.24-3.82,2.64-9.29,9.38-17.23,19.88-24.73,30.67C223,386.91,216.77,407.4,222.75,430.43Zm47.8-99.38c-4-.24-7.06,2-10.25,3.82-13.84,8.05-22.4,20.61-29.3,34.56a157.45,157.45,0,0,1-8.43,14.43c-.41.63-.49,1.84-1.78,1.47,1.54-4.76,3-9.54,4.65-14.26,5.22-15,13.54-27.82,26.8-37,14.41-9.94,31.32-11.87,47.95-14.66a11.3,11.3,0,0,1,2.11.16C291,322.76,280.39,325.87,270.55,331.05Zm-44.09,91.66c2.07-6.77,3.15-13.89,6.21-20.29C239.56,388,247.48,374.06,259,362.8c10-9.77,22.5-16.05,35.26-21.53,10.3-4.41,20.36-9.15,29.24-16.1.4-.31.84-.92,1.45-.25a25.81,25.81,0,0,1-6.39,7.33c-6.61,5.35-14.35,8.57-22.09,11.82-9.33,3.93-18.76,7.57-26.43,14.63a152.58,152.58,0,0,0-29.18,36.83c-5.3,9.25-9.71,18.82-10.84,29.63a126.2,126.2,0,0,0-.15,16.73C226,436,225.34,429.51,226.46,422.71Zm13.11,29.62c-5.51-3.8-7.88-9.13-8.14-15.74-.39-10,.91-19.8,5.14-28.92a150.86,150.86,0,0,1,23.17-36c9-10.28,19-19,32.12-23.86,10.51-3.87,21-8.07,29.81-15.56.65,2.91-1.9,3.71-2.76,5.45a55.19,55.19,0,0,1-22.23,11.21c-9.77,2.45-17.93,7.54-25.06,14.51A160.78,160.78,0,0,0,244,400.08c-9.27,16.48-11.54,33.46-3.62,51.16C240.7,452.05,240.2,452.22,239.57,452.33Zm5.46-14.1c.18,3.26,1.21,6.5.2,9.78-1.14-4.58-2.26-9.16-1.57-13.94.23-8.73,2.65-17,5.91-24.95,9.75-23.87,23.73-44.19,48-55.6,6.52-3.06,13.17-5.85,19.51-9.8.08,1.87-1.32,2.57-1.61,3.8-8.34,7.89-18.14,13.79-27.64,20.08-25.37,16.8-39.73,40.21-42.79,70.5l-.11.06Zm3.67,19.32c-2.71-.7-3.9-2.71-5.52-4.16-7.47-13.88-8.41-28.38-2.5-42.79,7.81-19,20-35.14,35.07-49.1,6.77-6.28,15-9.68,23.76-12,1-.27,2.05-.5.83,1-8,3.54-15.87,7.34-22.31,13.44-17.53,16.62-29.46,36.49-34.81,60.16-1.83,8.08-2.31,16.19.63,24.09C245,451.4,247,454.27,248.7,457.55Zm.1-4.3c-5.56-16.55,0-31.6,6.18-46.62,5.58-13.48,15.41-23.44,26.31-32.55,1.21-1,2.2-2.42,3.9-2.78L310.07,354h0c1.4-1.34,2.41-3.2,4.63-3.44-1.17,1.43-1.91,3.27-3.82,4a25.44,25.44,0,0,1-5.73,5.52c-5.86,4.39-12.42,7.67-18.49,11.71-3.23,3.11-6.49,6.2-9.69,9.34-10.24,10.05-16,22.77-21,35.85-5.8,15.12-4.09,29.64,4.09,43.49.42.71.84,1.28.38,2.2C255.57,460.75,251.39,458,248.8,453.25Zm64.89-96.84c-4.26,7.23-9.71,13.3-17.25,17.28-5.61,3-11.18,6-16.77,9-1.65,1.56-2.79,3.88-5.56,3.8l4.12-4.31a78.23,78.23,0,0,1,15.71-13.05c7.14-4.3,14.4-8.39,19.74-15C315.54,354.82,314,355.82,313.69,356.41Zm-40.2,114.32c0,.23,0,.47-.05.7-3.05-.28-5.07-2.37-6.76-4.47-11-13.61-15.68-28.8-10.12-45.95a106.75,106.75,0,0,1,13-27.33c6.84-7.74,15.41-13,24.68-17.27a48.84,48.84,0,0,0,10.54-6.66l4.85-5.05.76.58c-1.31,1.7-2.2,3.75-4.18,4.88-3.94,5.06-9.41,8.28-14.56,11.83a87.26,87.26,0,0,0-16.46,14.52c-17.06,19.59-16.25,49.81-6.19,68A35.73,35.73,0,0,0,273.49,470.73Zm-.45-3C255.82,440.42,262,406.61,287.68,387c1.11-.84,2.22-1.69,3.37-2.48,7.77-5.35,15.54-10.69,20.86-18.74l1.16-2.19c1.27-.07.63-2.71,2.55-1.89-1.07,1.52-1.33,3.5-2.73,4.84-2.56,3-4,6.77-6.68,9.69-3.89,4.18-7.64,8.48-11.51,12.67-7.6,8.26-15.37,16.61-19,27.36-5.63,16.55-8.21,33.49-1.84,50.59C274.26,468.08,273.86,468,273,467.73Zm11.73,5.71c-.88,1-2.14-.28-3.27-.33l0,0c-3.71-3.4-7.16-7-8.07-12.22-3-17-1.5-33.43,6.11-49.06,5.33-10.95,14.27-19.17,22-28.26,1.13-1.32,1.89-3.21,3.15-3.51l-3.28,4.79-.39.57c-3.33,4.89-6.75,9.93-10.33,14.85-3.73,5.13-7.15,10.37-8.66,16.61-4.36,18-4.22,35.77,2.34,53.27C284.75,471.19,285.56,472.55,284.77,473.44Zm9.46-.15a6.06,6.06,0,0,1-8.4-3.57,84.22,84.22,0,0,1-5-34c.72-14,3.89-26.81,13.53-37.64,5.64-6.33,10.49-13.36,15.69-20.08,3.13-5.93,6.94-11.52,8.87-18,.22-.52.71-1.1.61-1.54-.89-3.8,1.34-6.87,2.4-10.17.52-1.61.58.16.88.32a65.77,65.77,0,0,1-6.08,21.31l-5.66,9.33c-3.19,6.8-8.28,12.35-12.29,18.62-6.76,10.58-12,21.6-10.51,34.7a166.61,166.61,0,0,0,4.59,25.06c1.07,3.93,2,7.89,2.92,11.86C296.16,471,296,472.49,294.23,473.29Zm5.65-.29c-2,0-2.46-.46-2.52-2.49a31.27,31.27,0,0,0-1.39-7.16,196.32,196.32,0,0,1-5.32-24.2c-1.23-8.95-1.8-17.88,2-26.44a95.39,95.39,0,0,1,11.57-19.87,97.06,97.06,0,0,0,8.68-13.45c1.09-2,1.68-4.59,4-5.87.15,3.59-2.72,6.27-3,9.75-2.38,5-4.8,10.06-7.11,15.13A77.49,77.49,0,0,0,300,427.06,115.12,115.12,0,0,0,305.09,466C307,472.43,306.34,473,299.88,473Zm13.86-66.3c-5.09,20.2-5.62,40.23,2.15,60,1.95,5,1.14,5.75-4.35,5.55-.82,0-1.63-.05-2.44-.11s-1.51-.26-1.61-1.38c-.69-7.81-3.91-15-4.93-22.82-2.51-18.93-.92-37.13,8.37-54.22,1.58-2.91,3.22-5.87,3.78-9.23.37-.82.73-1.63,1.1-2.44,1.41.15.67,1.43,1.1,2.1,0,.41,0,.82,0,1.23C316.16,392.53,315.5,399.69,313.74,406.7Zm21.36,61c-.76-.17-.79-.74-.73-1.34.43-4.24-1.66-7.75-3.71-11.06a72.81,72.81,0,0,1-10.86-42.67c.26-5.74.15-11.5.22-17.25l.44,0c.4,2.62.85,5.23,1.19,7.86,2,15.44,4.71,30.6,13.68,43.93,2.44,3.64,3.38,8.16,4,12.58.34,2.46.28,4.9-1.42,7A2.61,2.61,0,0,1,335.1,467.72ZM348.37,465l.07.06-.09,0,0,0c-.54-.48-.85-1.51-1.86-.87-1.52,1-3,2.9-4.89,1.69s-.21-3.36-.37-5.09c-.31-3.42-1.68-6.6-2.33-11,3.35,3.56,6.19,6.26,8.6,9.3C348.81,460.65,350.16,462.74,348.37,465Zm2.31-1.85c-.48-4.33-3.25-7.16-6.14-9.91C333.29,442.54,327.3,429.19,325,414c-1.28-8.27-2.49-16.56-3.74-24.85l.13-.21-.16-.19a6.42,6.42,0,0,0,.07-1,58.91,58.91,0,0,0-.54-7c.23-10.39,3.46-20.29,4.82-30.51,1.19,2.52.41,5.1.73,7.61-.33,2.05-.53,4.14-1,6.16-1.9,8.09-.32,16.39-1.68,24.58-.69,4.17,1,8.73,1.58,13.12,1.92,14.68,7.42,27.57,18.75,37.56,3.66,3.23,7.4,6.45,10.1,10.57C358.59,456.93,356.58,458.36,350.68,463.16Zm6.87-5.11c1-3.79-.23-6.28-1.8-8.63a37.71,37.71,0,0,0-6.41-7.34,115.89,115.89,0,0,1-11-11.19c-6.21-7.15-9.1-15.65-10-25l2.45,4.46c4,8.54,10,15.43,17.15,21.53,5,4.27,9.83,8.86,12.35,15.22C360.92,450.78,362.56,454.68,357.55,458.05Zm7.47-1.52c-1.58.13-3.07.1-2.56-2.39a13.07,13.07,0,0,0-1.56-8.74c-1.54-5.45-5.71-9.1-9.67-12.46a81.31,81.31,0,0,1-20-24.27c-1.92-5.37-4.92-10.4-5.15-16.74a22.47,22.47,0,0,1,1.26,2.5c5.49,16.07,15.48,28.95,28.2,39.94,4.93,4.25,9.71,8.69,13.32,14.18A5.31,5.31,0,0,1,365,456.53Zm11.13-18.41c.73,3.65-.56,6.79-2.52,9.73-.69,1-1.53,2.19-3,.95-2.62-5.2-6.8-9.1-11-12.92-8.38-7.59-16.54-15.33-22.56-25.09-8.82-14.27-13.27-29.41-10-46.25.2-1.08-.2-2.43,1.17-3.08l.39,1.81v0c.1.8.15,1.62.3,2.41,3,15.92,9.68,30.42,18.45,43.78C354.8,420.92,363.16,432,376.15,438.12Zm4.54-7.89c1.13.91,3.23,1.5,2.05,3.74a4.13,4.13,0,0,1-4.9,2.4,19.75,19.75,0,0,1-9.2-4.79A111.75,111.75,0,0,1,345,402.42c-8.66-15.55-14.62-32-16.68-49.71A6.81,6.81,0,0,0,328,350c-1.16-8.81-1.56-17.56,2.26-25.93.5-2.52,2.32-4.34,3.43-6.54.46,3-1.53,5.28-2.44,7.88-.43,2.16-1.06,4.31-1.27,6.49-2.5,25.9,4.43,49.08,20.21,69.69C358.81,412.79,369.81,421.44,380.69,430.23Zm-36.77-57.8c3.84,7.75,9.49,14,16.13,19.43,6.48,5.33,13.77,9.52,20.39,14.65,5.3,4.11,9.36,9.06,10.25,16,.49,3.78-1,6.65-4.43,8.77-.87-5.5-3.84-9.36-7.88-12.58-6.28-5-13.1-9.35-18.68-15.15-7.59-7.88-11.68-17.82-15.83-27.7a14.22,14.22,0,0,1-2.12-8.32Q342.83,370,343.92,372.43Zm-8.8-44.83c-1.69,24.21,4.18,46.6,16.2,67.53A51.54,51.54,0,0,0,365.77,411c4.31,3.18,8.59,6.41,12.72,9.81,2.92,2.41,5.42,5.24,6.11,9.95-5.93-3.85-10.49-8.31-15.37-12.34C345.42,398.78,332,373.78,331,342.65c-.27-8.09.86-16,4.88-23.89C336.5,322.18,335.32,324.84,335.12,327.6ZM326,314.17l-15.9,2.44-.7.07-7.65.36c-1.59-.8-3.21-.25-4.77,0A200.41,200.41,0,0,1,271.39,320c-14.9.72-26.16,7.89-35,19.5-4.36,5.74-8.13,11.88-12,18-.5.79-.59,2.06-2,2.08,1.4-3.82,2.71-7.68,4.21-11.46,3.29-8.27,8.14-15.38,15.38-20.77a67.54,67.54,0,0,1,28.11-12.53c9.18-.67,18.34-1.39,27.57-1.22,9.69.17,19.36-.39,28.74-3.12,4.79-1.39,9.49-3.11,14.9-4.9C337.16,311,331.36,312.16,326,314.17ZM473,90.39c-7.76,1.74-15.57,3.7-22.87,7.08-.73.34-1.49.75-2.21-.06,4.76-3.79,10.32-6.09,15.94-8.12,15.23-5.52,30.72-4.83,46.43-2.05,12.68,2.25,25.4,4.47,38.3,5.14a47.65,47.65,0,0,0,5.19-.29h0l2.26-.09a8.92,8.92,0,0,0,1.16-.06c9.7-.55,19-2.34,26.76-9.21,5.64-5,11.39-9.88,15.69-16.17,3.23-4,6.73-7.79,8.82-12.58,1.12-.13.82-1.88,2.15-1.87a9.45,9.45,0,0,1-1.27,4.65c-2.44,4.91-5.14,9.69-7.35,14.69-4.47,10.15-11.64,17.8-20.69,24-10.07,6.92-20.67,10.5-33,7.08-9.64-2.69-19.36-5.12-29-7.68S500.18,90,490.23,89.48A46.53,46.53,0,0,0,473,90.39Zm-27.36,5.89a13.13,13.13,0,0,1,1.89-2.3,3.22,3.22,0,0,0,0-.62c1.36-.28,2.07-1.43,3-2.28,9.38-8.86,20.54-14.15,33.11-16.68,5.69-1.14,11.36-2.33,17-3.5,11.59-1.67,22.94.71,34.39,1.9,18.55,1.94,36.32-.87,52.41-10.72a54.81,54.81,0,0,0,23.62-28.51,19.22,19.22,0,0,1,1.13-2.33h0l.58.09c-.27,8.42-2.36,16.13-7.91,22.81-5.81,7-12.8,12.4-20.33,17.37-15.5,10.23-32,14.3-50.44,10.21a188,188,0,0,0-44-4c-7.68.14-15.39.5-22.49,4A45.06,45.06,0,0,0,453.47,91l-4.61,3.46c-.36,1.22-1.7,1.51-2.33,2.47C446.19,96.73,445.14,97.35,445.68,96.28Zm-1.51-1.1c.9-1.39,1.52-3,2.93-4C458.18,77,473,68,489.38,61.61c11.52-4.47,23.94-3.1,36.07-2.67l.21,0c7.61,1.15,15.2,2.46,22.84,3.37a67.88,67.88,0,0,0,16.67.3c20.71-2.6,34.15-15.34,44.58-32.21.57,1.3.12,2.47-.38,3.68C603.64,48,593.78,58,580.26,64.34,564,72,546.87,73.28,529.32,70.45c-11.47-1.84-22.91-2.61-34.36.1-3.18.65-6.35,1.35-9.54,1.94C471,75.18,458.3,81.21,448,91.8l-.48,1.5C445.93,93.14,445.79,95.46,444.17,95.18ZM608.48,54c-2.88,2.07-3.62,5.93-6.61,7.92L599,66c-4.58,4.72-9.12,9.47-13.94,14-5.84,5.46-12.71,8.27-20.42,9.48-1.72.27-3.41.62-5.12.93-16.32,1.43-32.18-2.2-48-4.92s-31.65-3-47.22,1.72c-2.31.71-4.74,1.43-6.64,3.13.35-2.42,2.69-2.75,4.23-3.82,2.32-1.6,4.88-2.86,7.34-4.26a47,47,0,0,1,13.27-2.79c17.52-1.21,34.86.54,52,4,15.22,3,29.6,1.44,43.22-6a109.05,109.05,0,0,0,22.73-15.92c2.29-2.61,4.6-5.2,6.85-7.84C608,52.81,608.26,53.15,608.48,54ZM514.94,98.43c-5.2-1.85-10.51-3.37-15.77-5-2.66-.4-5.25-1.29-8-1.17L484.75,92l-5-.5c3.18-1.14,5.8-.77,8.33-1.08l5.22.69c4.8-.25,9.33,1.3,13.87,2.42C520.62,96.9,534,100.65,547.4,104c7.42,1.85,14.94,2.72,22.28-.51,14.61-6.42,26.67-15.59,33.47-30.61,2.22-4.9,5-9.59,7.78-15a13.8,13.8,0,0,1,.41,2.79c-1.78,13.23-5.48,26-14.23,36.17-13.35,15.45-30.57,19.73-50,13.32C536.26,106.58,525.68,102.26,514.94,98.43Zm36,14.49a6,6,0,0,1,1.69,0c9.94,3,19.57,1.68,28.83-2.46,20.46-9.13,27-27.61,31.29-47.44a10.36,10.36,0,0,0,0-3.47,32.53,32.53,0,0,1,.31-9l.93,1.88c.63,9.74,2,19.45,1.41,29.24-.25,1-.57,2-.75,3C612.48,97.2,606,107.1,596,114.74c-5.93,4.54-12.58,7.65-20.28,7.12-8.73-.6-16.55-4.29-24.38-7.83C551,113.85,550.55,113.49,550.93,112.92ZM614.1,51a3.44,3.44,0,0,1-.1,1.21C614,51.84,614.07,51.44,614.1,51Zm-52.92,68.79c7.46,2.88,15,5.37,23.06,2.57,15.84-5.49,25.67-16.68,30.57-32.48a7.7,7.7,0,0,1,1.54-4.51c-.3,2.56.12,4.51-.63,6.41h0l-.72,5c-2.7,5.62-4.78,11.54-8.58,16.6-6.27,8.35-14.28,13.73-24.87,14.79a43.65,43.65,0,0,1-17.7-5.57C562.79,122.07,560.83,121.91,561.18,119.82Zm44.76,5.94a59.65,59.65,0,0,1-7.31,3.93c-7.2,2.94-14.41,2.2-21.67.42a8.1,8.1,0,0,1-4.57-2,13.45,13.45,0,0,1,5.84,1.1c3-.27,6,.6,8.89-.69l.09,0c9.68-2.8,16.88-8.79,22.2-17.21A53.45,53.45,0,0,0,614,102c.28-.7.15-1.9,1.5-1.73a58.49,58.49,0,0,1-4.19,19Zm58.3,5.69c-8-.84-14.83-4.46-21.39-8.79a29.67,29.67,0,0,0-14.79-5.18,11.33,11.33,0,0,1-6.27-.06c2.73-.85,5.44-1.67,8.32-1,8-.39,15.59,1.61,23,4.51,9.16,3.59,18.25,7.57,28.58,6.56C676.23,130.5,670.51,132.1,664.24,131.45Zm22.45-7.13c-8.94,2.6-17.55,1-25.92-2.42-12.39-5.1-24.93-9.18-38.69-6.5a5,5,0,0,1,3.27-2.13c11.79-2.43,23.33-2,34.68,2.39a65.56,65.56,0,0,0,21.73,4.81,81.93,81.93,0,0,0,14.61-1.38A21.91,21.91,0,0,1,686.69,124.32Zm1.46-5.63c-10,.79-19.39-1.68-28.66-5-8.57-3-17.33-4.42-26.41-2.92-.45.07-.92.16-1.05-.59,1.15-1.32,2.84-1.83,4.43-2.5l14.16-.08a209.35,209.35,0,0,1,23.11,3.43c9,1.71,18,2.1,26.87-1.11,3-1.09,5.9-2.51,9.19-3.93C704.55,114.16,697.36,118,688.15,118.69ZM652.8,103h0a107.47,107.47,0,0,1,32.31,1.54c10,2,19.15,0,27.77-5.23,1-.58,1.86-2.35,3.47-1a34.26,34.26,0,0,1-10.56,7.81c-10.75,5.31-22,5.11-33.38,2.91-6.49-1.25-13-2.55-19.64-2.54-3.83-.94-7.76.17-11.77-.31,1-2,2.88-1.3,4.12-2.07l1.13-.3a3,3,0,0,1-.59.22Zm-23.51-132c9,29.21,24.82,55.72,32.65,85.28l0,.09c.42,2,.77,4.12,1.28,6.14a29.86,29.86,0,0,1-3.59,24.15c-3.12,5-7.36,9-11.69,12.85a5.1,5.1,0,0,1-.72.12c-.57,0-.58-.36,0-1.2,2.07-3.09,4.1-6.21,6.12-9.33a32.16,32.16,0,0,0,4.37-26.72c-2.53-9.53-4.84-19.16-9-28.17h0a94,94,0,0,0-8.9-16.58c-8.64-13-11.05-27.48-11.34-42.59C628.45-26.27,628.22-27.9,629.29-28.95Zm-3,5.48a62.43,62.43,0,0,1,1,7.87c.91,11.67,4,22.65,10.29,32.63a219.73,219.73,0,0,1,10.89,19.49h0c2.19,7.12,4.29,14.26,6.61,21.33,4.07,12.41,2.53,23.88-5.38,34.38q-1.14,1.92-2.26,3.84l-.83-.56q1.11-2,2.2-3.93a57.49,57.49,0,0,0,3-11.73c.88-6.67,1.36-13.33-1.13-19.81a45.28,45.28,0,0,0-4.66-14.56c-4.21-8.21-9.37-15.85-14.53-23.46A48,48,0,0,1,623-4.9,46.57,46.57,0,0,1,626.25-23.47Zm-5.1,16.8a17.89,17.89,0,0,1,.31,2.09c0,10.46,3.45,19.68,9.24,28.4,8.13,12.26,17.18,24.18,19.61,39.33,1.63,15.9-.32,30.64-13.58,41.69-7.56,4.65-15.71,8.35-22.76,13.84-1.27-.76-.2-1.58,0-2.29,3.25-10.43,3.63-21.16,3.37-31.95.72-2.06.14-4.15.08-6.21-.34-12.31-1.73-24.57-1.66-36.9.05-6.61-1.46-13.18-.2-19.83,1.3-6.84,2.13-13.77,3.41-20.61C619.44-1.5,619.28-4.16,621.15-6.67ZM481,14.73A64.91,64.91,0,0,1,510.85-9.52c14.61-6,29.1-7.53,44.24-2.82a189.36,189.36,0,0,1,22.85,9.27l5.19,2.16L582.5,0h0c-1.76-.71-3.73-.89-5.31-2.06-9.26-2.92-18.32-6.54-28.1-7.6-11.58-1.24-23-1.15-34,3.49a51.13,51.13,0,0,0-18.7,11.56c-1.93,1.79-3.79,3.68-5.68,5.53-5.46,4.35-10.06,9.73-16.1,13.49C476.59,21,478.85,17.91,481,14.73Zm108.52-11c.1,0,.09.37.18.77a88.72,88.72,0,0,1-26.29-2.7C554.15-.38,544.83-2.38,535.27-3,520.42-3.92,508,2.79,495.56,9.47c-1.93-.52-.4-1.07,0-1.47A60.6,60.6,0,0,1,513.92-4.43c.73-.31,1.42-.74,2.13-1.11a70.52,70.52,0,0,1,40.63-1.23C567.81-3.95,578.61.19,589.54,3.76Zm-103.71,14c2.53-2.32,5.72-3.81,8-6.45h0l.08-.06-.06.06c3.28-.58,5.89-2.64,8.79-4,9-4.28,17.9-8.81,28.33-8.86a108.27,108.27,0,0,1,24.82,3.09c12.82,3,25.6,5.9,38.9,3.65.59-.1,1.39-.37,1.81.62l-2.28,1.39h0c-4.53,1-9.09,1.91-13.59,3.05a54.11,54.11,0,0,1-25.89,0c-7.12-1.66-14.22-3.5-21.57-3.92-1.26-.07-2.53,0-3.8.07h-.2c-13.54-.19-25.87,4-37.53,10.54C486,20.07,481.32,24.4,476,27.83,478.76,24,482.37,21,485.83,17.77Zm-18,20.41C483.76,21.6,502.08,9.57,525.75,7.73c10-.43,19.59,1.86,29.15,4.19,14.19,3.47,27.57.23,40.88-4.27l2.65-1.1h2.09l0,0s0,0,0,.05c-6.8,4.86-14.1,7.14-21.46,9.27-1.55.44-3.23.44-4.63,1.36-9.3,1.71-18.55,1-27.75-.66-23.14-4.27-44,1.77-63.5,14a22.76,22.76,0,0,0-5.87,3.66c-4.37,2.42-8,6.06-12.79,7.91A25.22,25.22,0,0,1,467.84,38.18ZM447.51,66.27a15.49,15.49,0,0,1,1.71-3.37A150.72,150.72,0,0,1,461,47.35l17.87-12.68L484.8,31A97.88,97.88,0,0,1,528,16.67c7.62-.64,15,1,22.48,2,9.27,1.24,18.52,1.68,27.61-1.21,10.62-2.38,20.47-6.33,28.43-14.08l1.09-1L610.31.61c.4.17,1.66-.55.88.83-.38.68-.83,1.32-1.24,2-15.14,16.53-33.71,26.11-56.19,27.69-7.36.52-14.62-.75-21.93-1.38-22.91-1.94-44.69,1.07-63.46,15.76a86.71,86.71,0,0,0-16,16.51,18,18,0,0,0-4.18,4.9,4.82,4.82,0,0,1-3,3.46ZM611.75,4.67c-5.51,9.84-11.82,18.94-22.32,24.17l-8.94,4.48-.06,0c-5.73,1.9-11.27,4.43-17.45,4.71-16.76.77-33.5,1.75-50.29,1.68-9.79,0-19.59.42-28.86,4.18a65.81,65.81,0,0,0-19.23,8.53,9.37,9.37,0,0,1-4.94,2.84L463.08,52c13.66-14.08,31-19.32,49.9-21.22,10.09-1,19.93,1.13,29.9,1.64,27.14,1.41,50-7.65,68-28.27Zm-171,72.58.93.68c-1,3.57-1.35,7.34-3.31,10.64A31,31,0,0,1,440.72,77.25Zm.72,9.75c2.51-8.86,7.19-16.53,12.81-23.71,8.43-9.61,19.45-14.92,31.3-18.85C501,39.68,517,41.67,532.78,41c9.77-.41,19.56-.79,29.33-1.23,7.14-.32,13.65-2.81,20-5.91A55.66,55.66,0,0,0,611.47,8.31c1.52-2.74,2.46-6,5.16-8a84.29,84.29,0,0,1-12.57,27.36c-7.42,10.79-17.76,17.18-30.66,19.5a125.38,125.38,0,0,1-29.91,1.45c-9-.53-18-2.12-27.14-1.3-1.38,0-2.75-.08-4.13-.08-13.32,0-25.66,4.1-37.62,9.36a63.39,63.39,0,0,0-32.37,31c-.11,2-1.43,3.31-2.3,4.89A12.59,12.59,0,0,1,441.44,87Zm-3.34,14.2c.68-1.36,1.35-2.73,2-4.09C447.26,76.35,461.28,62.7,482,55.25a107.54,107.54,0,0,1,30.89-6.6h0a222.37,222.37,0,0,1,24.75,1.13,150.94,150.94,0,0,0,31.73-.24c20.27-2.49,34-13.44,42.45-31.61.89-1.9,1.8-3.8,2.7-5.69,0,4.37-1.62,8.21-2.89,12.16A85.47,85.47,0,0,1,599.86,42C585.63,58.42,567.75,64,546.6,60.6c-6.52-1.05-13-2.44-19.63-2.65a.83.83,0,0,1-.39.25L527,58c-15.45-1.27-30.87-2.21-45.29,5.28-13.27,6.88-26,14.5-35.37,26.56-1.13,1.45-2,3.09-3,4.64h0a4.71,4.71,0,0,0-1.52,2.6c-.22.26-.45.51-.68.77a8.22,8.22,0,0,1-2.13,4.11C437.9,103.09,438.33,101.55,438.1,101.2Zm7.72-.46,3.2-1.4a20.49,20.49,0,0,1,8.66-3l.82,0c.18,0,.36,0,.54,0l-.44.19,0,0-7.42,3.19c-5.83,3-10.2,7.54-14,12.72-.73,1-1,2.58-2.71,2.65C436.73,109.11,441.11,104.79,445.82,100.74ZM387.38,248.08C392,236.83,397.46,226,405,216.4c7.7-9.83,16.29-18.39,29.82-19.24a.81.81,0,0,0,.62.18l1.55.46c-1.18.55-2,1-2.86,1.32-11.34,4.1-19.74,11.39-25,22.36-6.17,12.8-12.8,25.34-23.38,35.21-.75.7-1.16,3-3.1,1.43A61.49,61.49,0,0,0,387.38,248.08Zm-34,55c3.45-.53,6.9-1.09,10.35-1.59a25.51,25.51,0,0,1,13.64,2c10.42,4.3,20.9,8.47,31.35,12.7,9.16,3.72,17.94,3.32,26.22-2.41l-.43-.14a.76.76,0,0,1,.43.14c6-3.3,10-8.6,14-13.84.77-1,1.14-2.34,2.5-2.79-1.61,4.58-2.19,9.49-4.71,13.78-7.17,12.22-24.27,20.84-41,15.44-8.86-2.86-16.62-7.85-24.83-12-8.71-4.37-17.21-9.43-27.26-10.34Zm95.21,12.39c-.3,2.91-1.89,5.39-3,8.05-16.41,21.2-41.91,19.78-58.26-3.72a13.35,13.35,0,0,1,2.22.94,59.1,59.1,0,0,0,18.86,8.05c14.76,3.72,32.8-4,39.67-16.93C449.87,312.89,448.73,314.31,448.6,315.51Zm-3.75,25.88h0c-1.26.61-1.82,2.17-3.32,2.45-4.92,6.16-11.54,10-18.45,13.42a23.08,23.08,0,0,1-20.87.16,55.78,55.78,0,0,1-24.84-21.71c-6-9.84-13.05-19-22.23-26.24a4.79,4.79,0,0,1-2.71-1.9,3,3,0,0,1,3.15.62c9.68,6.32,19.94,11.86,27.72,20.72,2.61,3,5.23,5.95,8,8.81,6.9,7.2,14.41,13.22,25.17,13.17,8.71-.05,16.83-1.79,23.8-7.36L442,341.7c2.63-1.38,4.19-4.09,7-6C448.13,338.43,446,339.53,444.85,341.39Zm9.75-44.82a2.87,2.87,0,0,1-.12.92c-.43,7.18-.92,14.36-1.28,21.54a26.07,26.07,0,0,1-8.91,19c-1.12,1-2.15,2.08-3.22,3.12-.49.32-1,.62-1.45,1-14.46,10.55-30.78,9.61-43.87-2.56a35.35,35.35,0,0,1-4.18-4.21c-8.64-11.33-20-19.41-31.81-27a3.63,3.63,0,0,1-3.1-2.1c1.77.08,3.18.23,4.38,1.22,8.46,3.68,16.78,7.61,23.78,13.76,3.94,3.46,7.93,6.88,11.57,10.62,15.22,15.64,42.94,7.05,50.2-7.5,3.25-4.23,4.31-9.06,4-14.28l3-13.82c-.4-1.54.24-2.92.69-4.33C456,293.41,455,295,454.6,296.57Zm1.15-9.89a39.64,39.64,0,0,0-4.59,7.8c-3.72,5-7.24,10.26-12,14.42-1.82,1.6-3.85,3-5.78,4.43a25,25,0,0,1-24.09,1.05c-10-4.64-20.62-7.94-30.73-12.39-3.44-1.51-7-3.05-10.91-2.68l-12.39,2-2.43.07c1.36-1.7,3.57-1.34,5-2.58,4.4-.7,8.81-1.33,13.29-.82,5.74-.08,11.24,1.22,16.69,2.83,8,2.35,15.55,6.15,24,6.76h0c7.43,1,13.68-1.8,19.3-6.29a134.57,134.57,0,0,0,14.12-13.52c6.09-6.5,12.67-12.36,20.83-16.18l3.85-.59C463.75,275.64,458.94,280.46,455.75,286.68Zm-66.32,12.4c4.84-1,9.61-.26,14.36.23,9,.93,17.66-.24,25.61-4.88a99.05,99.05,0,0,0,18.23-14c3.61-3.44,6.95-7.29,12.09-8.58l2.13.15,0,.13a76.49,76.49,0,0,0-14.51,11.46c-4.05,4.17-8.21,8.22-12.34,12.31-5.49,5.45-11.74,9.47-19.64,10.35C406.11,306.19,398,302.05,389.43,299.08Zm90.7-38.37c.17,1.36-1.19,2.45-2.25,3.37a19.6,19.6,0,0,1-10.09,4.44c-8.13,1.25-15.53,3.83-21,10.49-3,3.7-7,6.43-10.8,9.35-9.28,7.2-19.61,11.05-31.52,9.55-1.79-.22-3.77.35-5.6-1l8.92-2.31.15,0A40.87,40.87,0,0,0,424,286.46c7.5-5.91,14.92-11.91,22.5-17.73a52.32,52.32,0,0,1,14.24-8.05,34.11,34.11,0,0,1,16.2-1.37C477.91,260.08,479.94,259.16,480.13,260.71Zm.64-8.33c1.43,1.5.8,3.33,0,4.91-.53,1.1-1.43.26-2-.14-11.34-7.52-22.63-5-33.93.11-8.22,3.7-14.72,9.7-21.14,15.8-5.59,6.11-11.3,12.05-19.59,14.56-.48.14-1.35.42-1.26,1.33,0,0,0,0,0,.07h0c2.8.14,5.14-1.11,7.47-2.43,4.92-2.77,8.89-6.68,12.81-10.66,7.11-7.22,14.44-14.17,24.06-18,9.13-3.66,18.33-6.09,27.8-1-.25.92-1,.87-1.68.81-9.35-.79-17.24,2.91-24.75,7.92a206.55,206.55,0,0,0-18.51,14.27c-7.71,6.52-15.92,12.06-25.91,14.46h0c-10.35,2.79-20.87,2.64-32.39,1.49,7.55-2.38,14.34-4.07,21.42-4.55a11.79,11.79,0,0,0,6.52-1c.78-.1,1.76.15,1.9-1.08a2.18,2.18,0,0,0,.62-.11c-.74-1.34-2-.06-3-.58l1.48-1.21h0c.87-.31,1.75-.59,2.61-.94,7.48-3,13.41-8.12,18.88-13.88,4.81-6.23,9.6-12.48,15.38-17.89,3.78-3.54,8.23-5.93,12.84-8.12h0c8.41-2.21,16.59-1.81,24.52,2A19.54,19.54,0,0,1,480.77,252.38Zm-1.46-4.47c.15.14,0,.59,0,1-9.87-5.32-19.93-7.41-30.59-2.95-8.37,2.71-14,8.93-19.53,15.28-3.05,3.51-5.82,7.28-8.8,10.86-5.74,6.9-13.13,11.42-21.39,14.66a25.28,25.28,0,0,0-6.07,2.23c-1.14-1.82.88-1.7,1.5-2.13,3.89-2.68,8.05-5,11.82-7.82,7.14-5.35,12.36-12.4,16.88-20,2.44-2.2,4.1-5,6.09-7.6,9.27-11.85,21.31-15.74,35.91-13C471.31,239.64,475.13,244,479.31,247.91Zm-70.83,27.84-.78-.73c.84-.91,1.68-1.82,2.53-2.72.18-.49.37-1,.56-1.45a35.71,35.71,0,0,0,2.69-3.59c3.68-6.42,7.38-12.83,10.87-19.36A38.93,38.93,0,0,1,435.69,235c1.37,1.24-.25,1.8-.68,2.46-1.94,3-4.18,5.76-5.44,9.13-2.37,4-5.4,7.53-7.32,11.77-3.52,5-6.75,10.21-11.08,14.59A6,6,0,0,1,408.48,275.75ZM473,239.47c-7.33-3.53-14.85-4.14-22.53-3.07A32.62,32.62,0,0,0,433,244.9c-.53-2.79,1.89-4.15,3-6.12a44.61,44.61,0,0,1,3-4.17C446.46,225.86,466.6,226.16,473,239.47Zm-4.3-11.54c.46,2.55-.25,2.91-2.42,1.91-11.34-5.22-21.7-2.69-31.51,4a8.52,8.52,0,0,1-4,2.83c.8-1.59,1.2-2.75,2.43-3.35,6.7-8.51,15-13.57,26.29-13.15C465.22,220.42,467.69,222.27,468.72,227.93Zm-4.5-9.88c-.45,1.5-1.8.53-2.71.49-10.29-.37-19.19,2.36-26.29,10.4-10.85,12.3-18,26.79-25.4,41.17-5.23,9.14-13.79,14.32-22.74,19a151.11,151.11,0,0,1-25.66,7.29,41.29,41.29,0,0,0-5.89,2c-.8.1-1.63.36-2.23-.47l11-6.61c4.58-2,9.1-4.15,13.73-6a69.67,69.67,0,0,0,37-33.06c2.94-5.56,5.6-11.29,8.89-16.65,6.85-11.15,15.78-19.68,29.71-20.69,2.91-.21,6-1.16,8.81.42C463.43,215.93,464.63,216.7,464.22,218.05ZM368.51,287.2l4.56-2.93c.13-.18.22-.44.4-.53,12.2-6.25,22.81-14.28,30.11-26.22,5.1-8.34,9.94-16.84,15.5-24.9,5-7.21,10.91-13.33,18.85-17.23a20.81,20.81,0,0,1,12.33-2.2c-.52.46-.65.65-.81.7a20.27,20.27,0,0,1-2,.55c-7,1.41-12.38,5.46-17.34,10.45-7.07,7.1-11.07,16-15.53,24.72-6.36,12.4-15,22.7-27.33,29.52-3.81,2.11-7.87,3.77-11.82,5.63A11,11,0,0,1,368.51,287.2Zm90.06-77.9c.9,3.14-.91,3.41-3.19,2.87-12.14-2.84-21.6,2.16-29.93,10.26-6.49,6.32-11.11,14.08-15.62,21.8-7.27,12.43-14.56,24.73-27.32,32.52-4.93,3-9.8,6.12-14.7,9.19a7.36,7.36,0,0,1-3.76,2.35,9.18,9.18,0,0,1,2.71-3.11c.29-.44.57-.89.86-1.34h0c2.42-2,5-3.91,6.54-6.76q7.81-7.93,15.65-15.86c9.83-9.9,18.37-20.7,24-33.61a38.92,38.92,0,0,1,4.93-8.82c7.35-9.27,15.92-16.33,28.72-15.78C452.31,203.22,456.33,204.61,458.57,209.3Zm-6.71-7.71c-3,0-6.07-.33-9,0-12.87,1.69-21.32,9.68-27.73,20.23-3.75,6.16-6.15,13-10.2,19.08-7.86,11.7-18.19,21.17-27.75,31.34-.43.45-.86,1.26-1.62.34,2.34-3.63,3.94-7.73,6.94-10.94,9.12-7.52,16-16.84,21.6-27.15,2.27-4.2,4.51-8.43,6.55-12.75,6.76-14.26,18.86-21,33.61-24C446.78,199,450.19,198.56,451.86,201.59Zm.56-3.44c-17.58-6.46-31.48-2.87-44,11.07-10,11.17-17,24.11-22.73,37.86-.64,1.55-.89,3.37-3.23,4.83,1.28-5.86,2.46-11.11,3.55-16.38a64.79,64.79,0,0,1,15.64-30.8c9.83-10.83,21.55-17.35,36.86-14.58C443.78,191.11,450.65,195,452.42,198.15Zm.92-3.11c-10.7-8.11-21.76-9.54-33.21-5.62-11.08,3.79-19.22,11.68-26.11,21,3.63-11,9.44-20.41,19.46-26.73,11.55-7.28,24.12-6.38,34.17,2.56A19.26,19.26,0,0,1,453.34,195Zm1.84-2.66c-10.36-17.1-28.52-19.55-44.68-9.85a34.91,34.91,0,0,1,9.17-9.53c7.88-5.72,16.71-6.35,25.65-3.63C454.54,172.17,458,180.88,455.18,192.38Zm2.48-12.94c-2.3-6.93-6.85-11.34-13.77-12.71-11.46-2.28-21.79-.07-30.13,8.65-7.35,7.7-13.86,16-18.58,25.63a11.28,11.28,0,0,1-2.53,4.87c.35-2.12.34-4.3,1.59-6.17,5.11-13.08,12.22-24.9,22.76-34.29a29.2,29.2,0,0,1,33.9-3.31C457,165.68,460.09,173.23,457.66,179.44Zm2.68-6c-1-8.46-6.26-13.08-13.88-15.42-11.85-3.65-22.53-1.69-31.78,6.85-9.59,8.85-15.8,20-21.61,31.47-.6,2.43-1.19,4.85-1.79,7.27-1.39-3,.1-5.76.85-8.57,3.36-15.49,10.06-28.94,23.25-38.52,2.67-1.95,5.79-2.92,8.66-4.42l1.84-.47,7.62-1.15c9.23.38,17.9,2.44,25.23,8.49C462.88,165,463.47,169.82,460.34,173.48Zm-30.4-54.83c.19-.3.47-.54.84-.19-2.06,5.73-4.41,11.3-8.19,16.16h0c-2.56.17-5.08,1-7.68.45C420.58,130.21,425.85,125,429.94,118.65Zm-42.23,62.19c.38-2,.33-4,1.32-5.87a105.51,105.51,0,0,1,4.27-16.5c4.43-12.78,12.9-20.68,26.72-22.12,5.13.42,10.31.51,15.1,2.75h0l8,5.26c-8.81-1.56-17.28.11-25.76,1.54-6.55,1.1-11.87,4.41-16.47,9.16-5.82,6-8.15,13.71-10.95,21.22l-1.34,5.12-.88-.57Zm-.09,22.61c-.59-1.63,1-3.21.1-4.85-.24-13.27,3.81-25.49,10-36.91,4.21-7.74,10.89-12.95,19.95-14.34,4.25-.66,8.5-1.32,12.78-1.69,9.14-.78,17.5,1.37,24.76,7.21a8,8,0,0,1,3.39,4l-4.18-2.9a46.86,46.86,0,0,0-14.51-4.48,32.19,32.19,0,0,0-18.24,2.32c-11.48,4.37-18.52,13.35-24,23.7-5.1,9.57-7.5,20-8.87,30.68h0c-.17,2.13-.35,4.26-.52,6.4h0c-.63.33,0,1.48-1,1.56h0c0-3,0-6.07-.07-9.1ZM192,186.68h0c3.27,7.43,6.55,14.84,12.8,20.41,1.55,1.38,3.33,2.56,4.41,4.42,4.3,3.36,8,7.5,12.82,10.18h0c14.41,9.57,30.46,14.6,47.45,16.86,8.93,1.19,18,1,27,1.27,4.9-.07,9.81-.62,14.7.2,1.54,1,3.47.23,5.63,1.28l-18.9.07h0c-1.18-.2-2.43.52-3.57-.23l-2,.16c-4.59.55-9.12,1.58-13.76,1.71l-1,0a44.67,44.67,0,0,1-24.31-2.52c-9.56-3.61-19.24-7-28-12.33-6.53-3.93-11.26-9.8-16.43-15.2C201.52,205.3,193.59,198,192,186.68Zm32.45,42.47c14.72,8.15,29.73,15.67,47.06,15.74,8.37,0,16.58-2.46,25-2.59h0c2.71.58,5.46-.1,8.16.21,2.53.29,5.22-1,7.59.73-2.28-.06-4.15,1.32-6.28,1.84-9.2,2.24-18.61,3.19-27.91,4.75a50.54,50.54,0,0,1-29-3.8,146.25,146.25,0,0,1-44.93-30.92c-3.39-4.59-7.45-8.75-9.5-14.24-.39-1-1.53-2.1-.31-3.33,4.09,7,9.87,12.63,15.24,18.59C214.06,221.07,218.47,226,224.49,229.15Zm-33.9-19.91a13.32,13.32,0,0,0-1.42-4.56c.25-3.49.34-7,1.54-10.5,1.26,1.09,1.07,2.53,1.65,3.63,1.93,7.18,6,13.07,11.07,18.34,8.06,9.78,18.69,16.35,29,23.26a95,95,0,0,0,18.4,9.2,47.41,47.41,0,0,0,24.34,3.07c12-1.72,24.06-3,35.75-6.44,1-.3,2.4-.07,3-1.41,6.05-.6,11.88-2.73,18.12-2.46l-2.69,1.54c-7.15,2.43-14.28,4.92-21.45,7.3a116.43,116.43,0,0,1-50.31,5c-9.58-2.15-18.63-5.81-27.69-9.49a36.17,36.17,0,0,1-9.22-5.57c-4.95-4.05-10.1-7.86-14.94-12a67.77,67.77,0,0,1-14.42-17.38A1.74,1.74,0,0,0,190.59,209.24Zm.27,3.18c3.79,8.4,10.35,14.42,17.26,20.12,3.93,3.25,8,6.28,12.06,9.43a36.46,36.46,0,0,0,9.95,5.65c8.59,3.17,17,7,26.08,8.54a95.07,95.07,0,0,0,34.59-.3c10.13-2,20.18-4.41,29.68-8.64a12.88,12.88,0,0,1,2.36-.55c1.65-1,3.26-2.11,5.36-1.55-1.23.82-2.27,2-3.93,2-9.77,5.76-19.69,11-31.06,13.15a118,118,0,0,1-67.47-6.74c-1.92-1.1-3.77-2.32-5.75-3.27a48.54,48.54,0,0,1-21.5-19.83c-2.16-3.72-4.42-7.41-6.26-11.29C191.27,217.11,189.59,215,190.86,212.42ZM194.18,226A57.56,57.56,0,0,0,225,254.41c1.13.58,2.25,1.2,3.39,1.74,10.09,4.78,21,6,31.86,7.26a97.62,97.62,0,0,0,60.55-12.25c6.8-3.84,12.77-9,19.91-12.24l7.47-5.26.37.47-2.28,3.35a10.69,10.69,0,0,0-4.06,1.91c-2,2.21-4.55,4-6.13,6.59-8.44,8.34-18.54,13.83-29.79,17.35-10,2.68-20.36,2.32-30.49,3.88l-.59.83L298,266.58c.61,0,1.26-.23,1.66.39l-.18.31-7.68,3.21h0a174.78,174.78,0,0,1-45.47-.1c-11-1.47-19.93-7.3-28.66-13.57-1.71-.37-2.74-1.74-4-2.74,2.24-.59,3.53,1.22,5.2,2.07,9,5,18.25,9.09,28.52,10.54l1.2-.82c-11-1.83-20.88-6.39-30.52-11.66-1.53-.83-3.12-1.55-4.68-2.32C200.39,248.16,196.72,237.54,194.18,226Zm12.45,25.22a15.53,15.53,0,0,1,6.44,4.35c1.42,1,2.87,2,4.25,3,12.45,9.44,26.34,14.69,42.09,14.56,6.4-.05,12.8-.19,19.19-.12.57,0,2.58-1.42,2.15,1.08-4.54,1-9.1,1.84-13.59,3-15.6,3.95-29.33-.39-42.07-9.27-.57-.4-1.14-.78-1.71-1.17L212.64,257A22.33,22.33,0,0,1,206.63,251.23Zm4.86,8.7c-.62-.9-2.11-1.63-1.1-3.15l12.26,10.88c4.3,4.41,9.69,7,15.36,9.09a66,66,0,0,0,18.54,4.06c5-.05,9.57-2.3,14.48-2.83,6.19-1.62,12.55-2.7,18.5-5.09,4.66-1.87,9.68-3,13.75-6.18h0l5.35-1.6c2.36.66.35,1.11-.13,1.41-4.19,2.57-8.41,5.1-12.63,7.64.33.76,1,.46,1.58.53,6-3.46,12.09-6.68,17.45-11.1,4.78-2.93,9.76-5.57,13.95-9.39l8.13-7.53a32.06,32.06,0,0,1,2.85-2.86c1.08-.83,1.31-2.87,3.32-2.4h0l-8.36,9.45h0l-.27.19c-1.48,1.1-2.16,3.12-4.14,3.65-.89,1.05-1.69,2.18-2.67,3.14-11.91,11.7-25.52,20.59-41.93,24.5C267,286.82,248.43,286,230.28,279,223.49,273.15,216.61,267.4,211.49,259.93Zm122.28-6.45c-.22,2.43-2.08,3.79-3.51,5.44-3.05,4.87-7.67,8.29-11.54,12.41-1.37,1.07-2.76,2.12-4.12,3.21a91.3,91.3,0,0,1-28.17,15.83c-16.55,5.51-31.91,1.46-46.92-5.63-1.58-.27-3.33-.24-3.92-2.24,1.47.62,3.19.42,4.54,1.42a100.8,100.8,0,0,0,25.54,2.7c25.26-.41,46.13-10.8,63.77-28.37C330.37,256.19,332.31,255.05,333.77,253.48ZM253.43,296c-7.52-2.74-14.83-5.84-21.11-12.4l18.06,7.09a50.66,50.66,0,0,0,19.79,3.68c19.67-.46,35.26-9.89,49.39-22.53h0c7.62-5.47,12.3-13.57,18.31-20.48,1.51-1.73,2.59-3.91,4.86-4.9-1.7,3.3-3.37,6.62-5.11,9.9C322.81,284.31,285.84,305,253.43,296Zm33.75,4c-2.33.06-4.75.38-7.17-.53.92-1.11,2-1,3-1.22,22.41-5,40.09-16.89,52.91-36,4.63-6.88,7.68-14.64,12-21.67a10.26,10.26,0,0,1,2.8-4.53,8.51,8.51,0,0,1-1.74,5.3c-4.4,11.66-8.89,23.28-16.26,33.52C321.56,290.51,306.7,299.52,287.18,300Zm28.92,1.31c3.27-1.67,6.24-2.93,8.95-4.61,9.91-6.14,17-14.93,22.88-24.81,2.33-5.63,3.93-11.5,5.76-17.29h0c.51-2.37,1-4.74,1.54-7.11,1.59-7.38,3.08-14.79,7.72-21l2.34-3.19c.49,1.64-.58,2.7-1.43,3.84h0a7.36,7.36,0,0,0-1.11,1.73c-2.76,9-5.46,18.08-8.18,27.12-1.82,5.58-3.16,11.32-5.74,16.64h0a35.18,35.18,0,0,1-6.76,12.2c-5.44,6.25-12,11.1-19,15.5C321,301,318.88,302,316.1,301.31Zm22.65-5.44a22.76,22.76,0,0,1-7.88,3.44,2.07,2.07,0,0,1-.78.4l.78-.4-3.71.57c5.76-4.4,11.39-8.74,15.74-14.48,5.27-5.47,7.38-12.54,9.7-19.46,3.37-10,6.54-20.06,9.29-30.27a41.48,41.48,0,0,1,12-20.1c.69-.63,1.21-2.11,2.67-1.2a.56.56,0,0,0-.34.84c-8.37,13.61-15.12,27.9-18.34,43.68-2.64,6.66-5.24,13.34-7.91,20A49.36,49.36,0,0,1,338.75,295.87Zm5.26-1.72-.14.1c-.37-.28-2.17.84-1-.94,1.43-2.12,3.07-4.09,4.4-6.26,3.74-6.09,5.51-13,8.26-19.54.62-1.48.64-3.37,2.4-4.22-.37,12.23-3.26,23.31-13.94,30.84Zm13.26-7.34c-.15-.15-.46-.37-.43-.44,6.06-14.31,6.81-30,11.3-44.67.94-3.1,1.91-6.19,2.86-9.29-.25-.7,1.11-1.71-.4-2.19-4.62,11.73-6.73,24.11-9.41,36.34-.29,1.36-.56,2.72-.85,4.08a40.76,40.76,0,0,1-6.73,18.87,27.23,27.23,0,0,1-5.84,5l-.83-.54a36.06,36.06,0,0,0,8.41-10.44c2.5-4.67,3.07-9.83,4-14.9h0a87.66,87.66,0,0,1,10.34-39.05,37.35,37.35,0,0,1,6.44-10.26l-4.35,13.64a134.28,134.28,0,0,0-3.58,23.78C367.7,267.85,365.65,278.49,357.27,286.81Zm10.64-14.36Zm11.75-39.33c-1.07,14.2-4.13,27.84-11.05,40.44l-.69-1.09c2.35-4.84,3.26-10.06,3.93-15.32,1.1-8.58,5.44-16.19,7.13-24.59,0,0,.27-.07.31,0A4.79,4.79,0,0,1,379.66,233.12Zm.8-17.77c-.19,2.3-.37,4.6-.56,6.9a3.22,3.22,0,0,0-.39,2.23c-1.61,10-5.69,19.25-8.31,28.94a52.77,52.77,0,0,1-1.09,7.14c-.28,1-.42-.38-.74-.49.24-2.45.49-4.89.73-7.34a3.46,3.46,0,0,1,.13-1.29c0-3.63.91-7.13,1.45-10.68,1.29-8.4,4.87-16.18,6.59-24.46l1.08-2.39a8.82,8.82,0,0,1,2.7-4.63C381.35,211.94,380.91,213.64,380.46,215.35Zm.6-9.48c-.38,2.76-2.22,3.94-3.49,5.51-1.75.3-2.46,2.79-4.64,2.17C375.39,210.94,377.7,208.15,381.06,205.87Zm-10.38,6a7.42,7.42,0,0,1,3.88-2.66c-1.18,1.62-1.91,2.91-3.17,3.74h0c-2.84,3.54-5.58,7.16-8.52,10.61-6.24,7.33-8.05,16.37-9.93,25.37-2.69,12.89-6.58,25.14-15.89,35.1-10.06,10.76-21.29,18.76-36.93,17.7a8.69,8.69,0,0,1-4.88-.32l-.09-.95,8.78-1.34A61.59,61.59,0,0,0,332.74,278c9.55-12.51,15.06-27,20-41.61C356.26,226.14,362,218,370.68,211.86Zm-10.94,6.87c-3.21,2.94-4.75,7.26-8.49,9.61a24.61,24.61,0,0,1-15.32,9.41,13.21,13.21,0,0,1-7.08,1.6c-.57-1.75-1.83-.85-2.88-.74-3.29.35-6.55,1.32-10.35.45l3.86-1.4a4.71,4.71,0,0,0,1.3-.47c12.59-3.07,23.85-8.94,34.33-16.42C356.5,219.79,357.9,218.73,359.74,218.73Zm-102.68,4.48c9.53.31,18.86,2.93,28.43,2.6,12.52-.42,25.07-.13,37.58-1.19,9.61-.66,19.06-2.48,28.61-4.11-3,2.83-6.17,5.43-10.17,6.17-11.2,2.08-22.37,4.78-33.94,3a110.8,110.8,0,0,0-19.17-1.14,117.13,117.13,0,0,1-34.78-4.66C254.54,222.56,255.87,223.17,257.06,223.21Zm-51.88-23.6a80,80,0,0,0,17,12.66c18.45,10.71,38.22,17.16,59.65,17.67,9.9.24,19.79.4,29.63,1.59a43.41,43.41,0,0,0,12.87-.43c3.69-.66,7.41-1.15,11.11-1.71.09.27.17.54.25.81-1.21.55-2.4,1.13-3.63,1.62-11.95,4.84-24.35,6.44-37.25,6.47-25.53.05-49.88-4-72-17.57-5.15-4.34-10.37-8.61-15.46-13-9.64-8.37-15.22-18.66-14.7-31.76h0q.88-2.53,1.75-5.07C193.9,182,197.3,191.63,205.18,199.61Z" transform="translate(-187.52 38.35)"/><path class="cls-3" d="M275.3,267.21h.46A1.16,1.16,0,0,0,275.3,267.21Z" transform="translate(-187.52 38.35)"/></g></g></g></svg>