<svg xmlns="http://www.w3.org/2000/svg" xmlns:xlink="http://www.w3.org/1999/xlink" viewBox="0 0 255.97 139.06"><defs><style>.cls-1{fill:none;}.cls-2{clip-path:url(#clip-path);}.cls-3{fill:#9f8778;}</style><clipPath id="clip-path" transform="translate(-49.77 -28.09)"><rect id="SVGID" class="cls-1" x="15.98" y="17.65" width="190.53" height="175.74" transform="translate(241.73 186.02) rotate(168.18)"/></clipPath></defs><g id="圖層_2" data-name="圖層 2"><g id="圖層_2-2" data-name="圖層 2"><g class="cls-2"><path class="cls-1" d="M173.56,125.68a21.8,21.8,0,0,0-6.71-.92c-3.95,0-7.9.13-11.85.2a16.85,16.85,0,0,1-7.31-1.37l-.06,0-3.51-1.47c.26.91,1,1.22,1.58,1.74,3.55,3.48,7.91,4.8,12.77,4.76a27.07,27.07,0,0,0,5.9-.37c3.47-.82,6.55.19,9.54,1.81a8.18,8.18,0,0,0,4.43,1.07c.58,0,1.3,0,1.59-.54s-.57-.77-.7-1.27A14.3,14.3,0,0,0,173.56,125.68Z" transform="translate(-49.77 -28.09)"/><path class="cls-1" d="M156.27,130.83c2.38-.31,4.77-.6,7.14-1a31.91,31.91,0,0,1,7.65-.13s0,0,0-.05l-.66-.59c-2-.86-4.08-.43-6.13-.2a41.43,41.43,0,0,1-9.51,0,17,17,0,0,1-9.65-4.81,18.8,18.8,0,0,0-4.67-3.68c2.06,3.11,3.71,6.52,6.75,8.87A13.55,13.55,0,0,0,156.27,130.83Z" transform="translate(-49.77 -28.09)"/><path class="cls-1" d="M259.76,59.14l.06,0c.43.31.88.59,1.27.93a52.4,52.4,0,0,1,6.12,6.69,22.38,22.38,0,0,0,8.53,6.48c1.76.76,3.49,1.6,5.23,2.4h0l1.1.11c.1-.43-.23-.54-.45-.66-4.94-2.59-8.4-6.76-11.88-10.94a44.87,44.87,0,0,0-7.4-7.24c-3.44-2.6-7.49-3.33-11.54-4.18a15,15,0,0,1-3.9-.89c-1.4.31-2.82,0-4.24.13a28.91,28.91,0,0,0-5.76.84c2.62.21,5.25,0,7.85.33A30.48,30.48,0,0,1,259.76,59.14Z" transform="translate(-49.77 -28.09)"/><path class="cls-1" d="M161.65,130.72a55.6,55.6,0,0,1-8,.91c-3,.06-5.73-.58-7.93-2.77h0c-2.63-2.32-4.17-5.47-6.21-8.24a23,23,0,0,0-4.78-5.12,20.35,20.35,0,0,0-4.58-3.06c-.78,0-1.42-.62-2.29-.4l.82.59,4.59,2.44a9,9,0,0,1,2.91,3.61c2.22,4,4.87,7.73,7,11.78a10.35,10.35,0,0,0,8.19,5.69c1,0,2,.06,3,0a35.58,35.58,0,0,0,7.56-1.73A16.13,16.13,0,0,1,165.4,133a19,19,0,0,1,8.58-1.61l-1.42-.77A28.41,28.41,0,0,0,161.65,130.72Z" transform="translate(-49.77 -28.09)"/><path class="cls-1" d="M162.3,135.6l-4.44,3.8a8.61,8.61,0,0,1-4.91,3.68c-6,3-17.31-1.15-18.4-10.11-.26-2.14-.72-4.27-1.15-6.39A36.19,36.19,0,0,0,129,116.09a2.85,2.85,0,0,0-1.13-1.5,1.51,1.51,0,0,0,.49,1.47c2,5.46,3.7,11,3.7,16.86a14.48,14.48,0,0,0,.33,2.43c1.25,7.28,6.39,11.69,13.79,11.84.24,0,.48,0,.72,0,.61-.07,1.22-.17,1.84-.22a10.8,10.8,0,0,0,7.69-4c1.92-2.28,3.88-4.52,5.82-6.77a1.37,1.37,0,0,0,.27-.27c.52-.43,1.25-.7,1.08-1.61A3.18,3.18,0,0,0,162.3,135.6Z" transform="translate(-49.77 -28.09)"/><path class="cls-1" d="M165.5,114.76a23,23,0,0,1-3.91,1A27.61,27.61,0,0,1,151,118.08c-2,0-3.9-.29-5.85-.39-.31,0-.95-.56-1,.33a10.41,10.41,0,0,1,2.56.79,21.26,21.26,0,0,0,10.71.53c1.88-.43,3.73-1,5.62-1.37,3.4-.71,6.82-1.34,10.25-.13,4.63,1.2,7.42,4.41,9.33,8.64.11-.15.27-.26.26-.35-.39-2.34-.57-4.72-2.3-6.65C176.45,114.92,171.52,113.18,165.5,114.76Z" transform="translate(-49.77 -28.09)"/><path class="cls-1" d="M171.36,109.8c-.55-.11-1,.17-1.64.49a3.49,3.49,0,0,0,2,.07c4.92.25,9,2,11.38,6.57.47.87.79.93,1.28,0,1.08-2.11.73-3.34-1.08-4.83C179.71,109.11,175.7,108.68,171.36,109.8Z" transform="translate(-49.77 -28.09)"/><path class="cls-1" d="M173.73,118.44h0a20.28,20.28,0,0,0-6.26-.54,61,61,0,0,0-9.55,2,22.47,22.47,0,0,1-9.69-.16c-.37-.1-.73-.23-1.09-.35h0l-.79,0c.19.42.92.31.82.93a1,1,0,0,1-.23-.12c-.35.38-.61,0-.89-.12a4.89,4.89,0,0,1-2.39-1.32,37.54,37.54,0,0,0-8.19-3.86c3.51,3.26,6.93,5.94,11,7.62h0c3.88,1.72,8,2,12.15,1.74a84.14,84.14,0,0,1,9.66-.06c3.73.23,7.25,1,10.13,3.59.21.19.45.4.76.16-1.85-4-5.49-5.54-9.41-6.63-4.13-1.14-8.29-.69-12.44-.09a24.79,24.79,0,0,1-6.88.29,5.66,5.66,0,0,1-3.07-1.07h0l0,0c.2-.32.56-.19.75-.12,3.36,1.25,6.72.73,10.1.12,3.64-.4,7.28-.75,10.91.1,5,1.16,9.35,3.15,11.2,8.46.1.29.18.79.63.56.64-.33,1.31-.78,1.22-1.63a8.15,8.15,0,0,0-.94-2.72A14.27,14.27,0,0,0,173.73,118.44Z" transform="translate(-49.77 -28.09)"/><path class="cls-1" d="M182.67,108.85c-4.84-3.16-9.91-2.59-15-.64-2.42.94-4.73,2.16-7.09,3.25a28.8,28.8,0,0,1-20.45,1.62c-2-.55-4-1-6-1.47l-5.27-.58c0,.42.32.54.61.71a16.65,16.65,0,0,1,2.44.82,62.36,62.36,0,0,0,10.27,4c4.13.69,8.24,1.13,12.25-.56,6-2.89,12-5.86,18.68-7.19,4.35-.87,8,.47,11.26,3.17.29.24.49.9,1,.52s.28-.9.08-1.34C184.92,110,183.68,109.51,182.67,108.85Z" transform="translate(-49.77 -28.09)"/><path class="cls-1" d="M172.93,111.66a17.47,17.47,0,0,0-2,.62c-.87.37-2,.21-2.53,1.26a13.6,13.6,0,0,1,7.89,1.58,15.91,15.91,0,0,1,6.64,6.66C184.13,115.79,177.58,110.65,172.93,111.66Z" transform="translate(-49.77 -28.09)"/><path class="cls-1" d="M139.27,135a24.6,24.6,0,0,1-4.19-7.37,5.46,5.46,0,0,0-.49-.87c-.51,11.83,7.52,18.69,18.24,15.82a12.43,12.43,0,0,0,3-1.9c.34-.37,1.08-.55.75-1.31C151.07,141.91,143.2,139.93,139.27,135Z" transform="translate(-49.77 -28.09)"/><path class="cls-1" d="M161.46,115.29a48.83,48.83,0,0,1,5.36-2,19.24,19.24,0,0,1,4.08-1.64c.3-.11,1,.11.84-.64a16.23,16.23,0,0,0-7,1.39c-2.78,1.27-5.61,2.45-8.43,3.65a15.11,15.11,0,0,1-1.78.5l-.55.34-1.52.26c0,.15.06.29.08.44a2.51,2.51,0,0,0,1.58-.24A46.18,46.18,0,0,0,161.46,115.29Z" transform="translate(-49.77 -28.09)"/><path class="cls-1" d="M144.74,113.33a28,28,0,0,0,16.39-2.86c3.64-1.75,7.2-3.68,11.3-4.25a14,14,0,0,1,8.33.91c.26.12.53.23.8.33a2.32,2.32,0,0,0,.45,0,8.69,8.69,0,0,0-4.61-2.37,20.72,20.72,0,0,0-10.52,1c-3.85,1.26-7.58,2.84-11.34,4.31-5.4,2.1-10.9,2.08-16.49,1.08a.7.7,0,0,0-.26.08l-2.23-.18a4.53,4.53,0,0,0,2.88.92C141.2,112.6,143,113.07,144.74,113.33Z" transform="translate(-49.77 -28.09)"/><path class="cls-1" d="M139,133.56a14.82,14.82,0,0,0,17.35,5.18c1.91-.78,3.33-2.25,5-3.35-.57-.2-1,.16-1.53.29-2.65.7-5.29,1.45-8.08,1a10.81,10.81,0,0,1-9.24-5.77c-2.38-4-4.78-8-7.13-12a10.61,10.61,0,0,0-4-4.08l-3.81-2.07-.14.41c3.08,2.81,4.61,6.61,6.38,10.23C135.5,126.81,136.8,130.39,139,133.56Z" transform="translate(-49.77 -28.09)"/><path class="cls-1" d="M229.25,62c5.26,1.27,10.35,3,14.73,6.35.45.34.89.71,1.34,1.06,3.2,2,5.76,4.79,8.6,7.23a52.45,52.45,0,0,0,10.21,7,18.84,18.84,0,0,0,15,1.27,34.79,34.79,0,0,0,11-5.86c-1.39,0-2.51.81-3.7,1.34a23,23,0,0,1-16.08,1,20.73,20.73,0,0,1-8.05-3.06l-10-7c-5.36-3.73-10.11-8.39-16.4-10.7-4.89-1.68-9.84-2.69-15-1.64a28.45,28.45,0,0,0-10.15,4.59,5.32,5.32,0,0,0-1.89,1.44,4.86,4.86,0,0,0,2-1A26.22,26.22,0,0,1,229.25,62Z" transform="translate(-49.77 -28.09)"/><path class="cls-1" d="M212.93,60.3a12.91,12.91,0,0,0-3.62,3.13,17.45,17.45,0,0,0,3.76-2.67Z" transform="translate(-49.77 -28.09)"/><path class="cls-1" d="M218,58.78a7.55,7.55,0,0,1,2.61-.57A35.59,35.59,0,0,1,230,56.78c9.86-.14,17.79,4.33,24.84,10.71a57.92,57.92,0,0,0,6.87,6,33.77,33.77,0,0,0,25.43,5c.3-.11.61-.21.9-.34.6-.26,0-.34-.08-.49l-1.32-.09-.6.06c-4.57.55-8.8-.62-12.89-2.5-3.71-1.33-6.65-3.79-9.39-6.52-2.2-2.2-4.23-4.58-6.9-6.28A40.43,40.43,0,0,0,239,56.14l-2.87-.29-9.05-.31a63.49,63.49,0,0,0-7.77,2.17,6.33,6.33,0,0,0-1.41.68l-1.76.78A2,2,0,0,0,218,58.78Z" transform="translate(-49.77 -28.09)"/><path class="cls-1" d="M238.62,55.58c9.48.88,17.85,4.12,24.4,11.32a31.33,31.33,0,0,0,9,7.17,6.56,6.56,0,0,1,1.86.71,27.82,27.82,0,0,0,9.39,2.33v0h0l-.69-.52-1.15-.31c-5.5-1.85-10.72-4.14-14.52-8.83-2.56-3.17-5.15-6.33-8.54-8.69-8.25-5.33-17.3-6-26.69-4.49a10.33,10.33,0,0,0-2.07.48c2,.58,4.15.3,6.2.6A9.71,9.71,0,0,1,238.62,55.58Z" transform="translate(-49.77 -28.09)"/><path class="cls-1" d="M257.8,71.13c-3.15-2.66-5.85-5.83-9.43-8-6.69-4.1-13.72-6.73-21.74-5.52l-2,.24a3.88,3.88,0,0,0,2.34.3,27.45,27.45,0,0,1,8.46,2c4,1.09,7.34,3.4,10.55,5.86,5.51,4.23,11.26,8.11,17,12.05,2.1,1.46,4.56,2,6.92,2.82h0l4.06.77c4.77.91,9.13-.51,13.41-2.37l-.15-.4C276.16,81.14,266.38,78.4,257.8,71.13Z" transform="translate(-49.77 -28.09)"/><path class="cls-1" d="M151.75,136.71a.33.33,0,0,0-.11-.15Z" transform="translate(-49.77 -28.09)"/><path class="cls-1" d="M246.15,75.56H246A.32.32,0,0,0,246.15,75.56Z" transform="translate(-49.77 -28.09)"/><path class="cls-1" d="M149.86,105.57c6-.6,11.28-3.06,16.52-5.73a17.66,17.66,0,0,1,13.84-1.09c.36.11.74.17,1.27.28-.18-.23-.3-.4-.4-.54a.29.29,0,0,1-.15-.21c-4.67-3.11-9.64-2.45-14.64-1.14a54.72,54.72,0,0,0-13.73,6,25,25,0,0,1-4.08,2.11C148.73,106.27,149.44,105.61,149.86,105.57Z" transform="translate(-49.77 -28.09)"/><path class="cls-1" d="M206.17,68a3.43,3.43,0,0,0,1.73-.82l.42-.09a1.94,1.94,0,0,1,1.15-.47h0c.72-.26,1.42-.58,2.16-.77,6.11-1.62,12.21-.94,18.3.12,6.62,1.15,11.46,5.32,16.22,9.61a64.79,64.79,0,0,1,5.8,5.8c6.1,6.43,13.39,9.06,22.2,7.21a35.25,35.25,0,0,0,8.26-2.84,15.68,15.68,0,0,0,4-3.28l-2.32,1.2c-7.34,3.85-14.59,4-21.89-.24a62.16,62.16,0,0,1-10.5-7.87A91.15,91.15,0,0,0,243.84,69h0A44.14,44.14,0,0,0,232,63.4c-8.67-2.74-16.71-1.75-24.26,3.29l-1.69.84C206.06,67.7,205.53,68.1,206.17,68Z" transform="translate(-49.77 -28.09)"/><path class="cls-1" d="M202.93,71a16.87,16.87,0,0,1,7.82-.66l3.24.81h0l.19,0L214,71l-.29-.19a8.44,8.44,0,0,0-3.59-1.19l-1.4-.34a15.45,15.45,0,0,0-7.35,1.85C202,71.55,202.45,71.1,202.93,71Z" transform="translate(-49.77 -28.09)"/><path class="cls-1" d="M146,147.81c-3.69.09-6.79-1.38-9.67-3.54-3.56-2.68-4.52-6.55-5-10.65-.18-1.62-.3-3.25-.41-4.89-.34-4.87-2.32-9.26-3.93-13.76a1.24,1.24,0,0,0-.88-1,2,2,0,0,0,.42,1.31,40.64,40.64,0,0,1,.74,14.2,23.06,23.06,0,0,0,2.73,13.37A9.56,9.56,0,0,0,137,148a21.29,21.29,0,0,0,9.43.21c.57.28,1.14-.09,1.71,0h0c.84-.33,1.82-.15,2.79-.84-1.41-.07-2.6.43-3.81.23Z" transform="translate(-49.77 -28.09)"/><path class="cls-1" d="M94.21,69c2,6.12,5.39,11,11.52,13.59,1.76.76,3.48,1.62,5.21,2.43.77-.71-.25-.75-.43-.89-2.09-1.63-4.23-3.19-6.35-4.77A27.83,27.83,0,0,1,94,64c-.19-.7-.42-1.38-.63-2.07a6.56,6.56,0,0,0-1-3,9.15,9.15,0,0,0,.54,3.4c.36,2,.73,3.93,1.1,5.89Z" transform="translate(-49.77 -28.09)"/><path class="cls-1" d="M134.12,93.41c1.39-.65,2.77-1.32,4.16-2a6.37,6.37,0,0,0-2.83.4c-3.71.76-7.27,2.26-11.15,2.15h0c-7.82.62-15.32-.19-21.9-5a20.83,20.83,0,0,1-5.59-6.16c-1.33-2.18-2.65-4.36-4.17-6.87.42,3.74,2,6.59,3.84,9.37C104.88,96.45,122.24,98.9,134.12,93.41Z" transform="translate(-49.77 -28.09)"/><path class="cls-1" d="M131,92c-10.21,1.36-19.69-.45-28.1-6.64a41.73,41.73,0,0,1-7.73-7.29c-.19-.67-.81-1-1.14-1.61-.3.81.28,1.24.73,1.72,3.17,6.1,7.2,11.28,14,13.61A37.68,37.68,0,0,0,122,93.62l2.16,0c2.3-.39,4.68-.35,6.91-1.19.88-.19,1.84-.17,2.51-.92A8.32,8.32,0,0,0,131,92Z" transform="translate(-49.77 -28.09)"/><path class="cls-1" d="M110.56,89c6.38,2.82,13.09,3.31,19.94,2.44.56-.07,1.11-.24,1.66-.36.79.32,1.52-.17,2.28-.17h.14l5.12-1h0c-.55-.66-1.14,0-1.7,0a11.66,11.66,0,0,0-1.65.22l-4.57.44a36.66,36.66,0,0,1-6.94-.4,54,54,0,0,1-8.52-.72c-.17-.17-.47-.24-.39-.57l6.07.65c.23,0,1,.38.4-.44l-2.17-.81h0c-2.14,0-4.07-.86-6.07-1.41a63.23,63.23,0,0,1-7.36-3c-1.75-1-3.82-1.45-5.48-2.69a27.46,27.46,0,0,1-5.08-6,16.19,16.19,0,0,1-2.78-6.83l-1.31-6.66c-.71.25-.4.86-.42,1.32-.19,3.74.63,7.35,1.41,11A37.92,37.92,0,0,0,110.56,89Z" transform="translate(-49.77 -28.09)"/><path class="cls-1" d="M99.7,58.78a15,15,0,0,0,1.63,4.15A74.41,74.41,0,0,0,108.06,73a48.29,48.29,0,0,0,17.82,11c3,1,5.93,2,8.89,3l1.27.17c-2-1.65-4.43-2.41-6.58-3.73-.52.3-.91-.12-1.32-.28-4.7-1.81-9-4.4-13.38-6.84a19.6,19.6,0,0,1-7.24-7.11,38.68,38.68,0,0,1-3.75-7.64c-1.68-4.87-3.53-9.69-3.73-14.93a17.29,17.29,0,0,1,.95-8.81c.08-.51.51-.94.36-1.61a16.28,16.28,0,0,0-3.13,3.07,5.63,5.63,0,0,1-.68,1.86.7.7,0,0,1-.14.68,27.9,27.9,0,0,0,.39,9.34C98.34,53.66,99.08,56.21,99.7,58.78Z" transform="translate(-49.77 -28.09)"/><path class="cls-1" d="M95.29,62.72a40,40,0,0,0,7.12,11.48l-.6,0,.15.2-.15-.2a34.28,34.28,0,0,1-6.75-10.61c-.33-.7-.3-1.62-1.19-2a4.34,4.34,0,0,0,.64,1.91c1.3,4.25,2.79,8.42,6,11.65a72.22,72.22,0,0,0,14.94,11.43h0l3.33.87.14-.06c0-.3-.24-.4-.45-.54l-7.87-5.24.4-.12-.15-.12a.4.4,0,0,1,.15.12c3.73,2,7,4.74,11,6.36A29.79,29.79,0,0,0,136.2,89.6a18.32,18.32,0,0,1,3.67-.64,4.49,4.49,0,0,1,1.81.39l1.6-.53v-.25l-3.78-.14c-3.16-.72-6.42-.52-9.62-1a40.3,40.3,0,0,1-23-11.14c-3.27-3.14-6.54-6.27-8.67-10.37-.24-.47-.45-.95-.68-1.43a23.8,23.8,0,0,1-3-17.06c-2,4.43-3.51,8.85-.19,13.31C94.65,61.43,95,62.06,95.29,62.72Z" transform="translate(-49.77 -28.09)"/><path class="cls-1" d="M96.94,61.92c.41.81.72,1.68,1.07,2.52a48.79,48.79,0,0,0,20.52,19.12c4.28,2.15,8.86,2.91,13.52,3.46.53.43,1.18.29,1.79.33a2.81,2.81,0,0,0-2.16-.83,5.34,5.34,0,0,0-.91-.42,56.92,56.92,0,0,1-11.93-4.59,39.16,39.16,0,0,1-11.46-8.57c-2.61-2.8-4.41-6.15-6.44-9.34a15.14,15.14,0,0,1-1.86-4.36c-.54-2-1.13-4.07-1.61-6.12-.84-3.61-1.49-7.24-.64-10.95-1.06.53-1,1.65-1.23,2.55-.36,1.74-.55,3.52-.77,5.28A20.18,20.18,0,0,0,96.94,61.92Z" transform="translate(-49.77 -28.09)"/><path class="cls-1" d="M140.14,99.31a55.7,55.7,0,0,1,17-9.78c0-.18.15-.23.32-.19-.25-.67-.79-.31-1.18-.28a17.28,17.28,0,0,0-9,3.62c-3.46,2.67-7,5.19-10.64,7.64-2.5,1.69-5,3.49-8.07,4a32.82,32.82,0,0,1-8.81.82l1.37.74a9.57,9.57,0,0,0,3.45.85,20.63,20.63,0,0,0,7.94-2.8C135.07,102.39,137.6,100.84,140.14,99.31Z" transform="translate(-49.77 -28.09)"/><path class="cls-1" d="M139.08,100.79c-.79-.16-1.27.45-1.85.78-2.54,1.46-4.86,3.3-7.61,4.37-1,.38-2,.61-3,1-.85.29,0,.37.08.55h.09C132.17,107.64,135.89,104.72,139.08,100.79Z" transform="translate(-49.77 -28.09)"/><path class="cls-1" d="M127.88,98.3c5-1.52,9.38-4.22,13.75-7a3.49,3.49,0,0,0,1.91-1.3,4.23,4.23,0,0,0-2.06.79c-3.2,1.22-6.15,3-9.4,4.11a34.42,34.42,0,0,1-26.42-1.42c-.38-.18-.72-.5-1.3-.36a7.44,7.44,0,0,0,2.23,2C113.13,99.86,120.28,100.62,127.88,98.3Z" transform="translate(-49.77 -28.09)"/><path class="cls-1" d="M133.75,101.56h0a54.43,54.43,0,0,0,6.05-4q4.74-3.45,9.49-6.88a3.3,3.3,0,0,1,.8-.29h0c.56-.16,1.18-.24,1.43-.9l-1.56.46c-3.1.89-5.45,3-7.82,5l-2.29,1.95h0c-2.06,1.45-4,3-6.23,4.25a29,29,0,0,1-13.75,2.44c-1.31-.13-2.6-.46-4.1-.73a4.83,4.83,0,0,0,2.57,1.41,34.68,34.68,0,0,0,10.12-.34A14.67,14.67,0,0,0,133.75,101.56Z" transform="translate(-49.77 -28.09)"/><path class="cls-1" d="M121.14,105.85l-.36-.06A.85.85,0,0,0,121.14,105.85Z" transform="translate(-49.77 -28.09)"/><path class="cls-1" d="M177.3,88.51c-4.89-.44-9.15,1.19-13.11,3.91,4.61-1.34,9.26-1.89,13.86-.37a14,14,0,0,1,9.52,10.18,8.06,8.06,0,0,0,.33-4.32C186.83,92.45,182.92,89,177.3,88.51Z" transform="translate(-49.77 -28.09)"/><path class="cls-1" d="M191.36,91.77A11.54,11.54,0,0,0,182,86.54a14.4,14.4,0,0,0-5.41.84c7.75.85,13.11,6.21,12.24,14.43C192.65,98.74,193.69,95,191.36,91.77Z" transform="translate(-49.77 -28.09)"/><path class="cls-1" d="M101.71,38.15c-.71.1-.59.73-.73,1.18-.7,2.32-.41,4.7-.44,7.07a60.64,60.64,0,0,0,7,21.43,21,21,0,0,0,8.61,8.53c3.45,1.82,6.78,3.86,10.37,5.43a9.47,9.47,0,0,1,2.53,1c-.33-1.18-1.55-1.42-2.31-2.15a31.14,31.14,0,0,1-2.63-2.11h0c-2.81-2.07-6.14-3.3-8.88-5.41-5.68-4.37-8.74-10.6-11.54-17-1.2-2.53-1.41-5.27-1.64-8C101.79,44.78,101.3,41.49,101.71,38.15Z" transform="translate(-49.77 -28.09)"/><path class="cls-1" d="M195,90.78a12.1,12.1,0,0,0-12-7.41A36.14,36.14,0,0,0,167,89a6.22,6.22,0,0,0-2.07,1.64,4.69,4.69,0,0,0,2.05-1,42.68,42.68,0,0,1,12.54-3.78c4.93-.78,8.88,1.08,12.08,4.7a7.25,7.25,0,0,1,1.35,7.63A6,6,0,0,0,195,90.78Z" transform="translate(-49.77 -28.09)"/><path class="cls-1" d="M168.13,92.46a26.83,26.83,0,0,0-12.87,6.22c-1.68,1.46-3.38,2.89-5.27,4.5a3.25,3.25,0,0,0,2.28-.78,53.53,53.53,0,0,1,17-6.76c7.62-1.45,13.09.85,17.26,7.38.2-1.47-1.08-4.48-2.58-6.12C179.57,92.15,174.08,91.36,168.13,92.46Z" transform="translate(-49.77 -28.09)"/><path class="cls-1" d="M166.8,100.32c-1.75.91-3.55,1.74-5.35,2.55a37.11,37.11,0,0,1-13.91,3.53,30,30,0,0,0-5,1.86c0,.49.36.34.61.29,5.7-1,11.47-1.48,17-3.36,2.85-1,5.36-2.63,8.14-3.72,4.75-1.86,9.53-2.38,14.19.3a28.06,28.06,0,0,1,3,2.24c.21-1.41-1-2.11-1.57-3.16C178.26,98.15,172.6,97.33,166.8,100.32Z" transform="translate(-49.77 -28.09)"/><path class="cls-1" d="M170.23,101.37a16,16,0,0,0-3.84,1.67,45.85,45.85,0,0,1-16.31,5L141,109.38a10,10,0,0,1-3.84.59h0l-.62.23a3.68,3.68,0,0,0-1.68.34,3,3,0,0,0,1.83.17c2.38.22,4.76.42,7.14.66,6.15.63,11.63-1.59,17.14-3.86a41.41,41.41,0,0,1,10.61-3.26c4.77-.58,9.13.15,12.42,4.13.61.74,1.28,1.11,1.77-.15.43-2.1-.54-3.57-2.09-4.86C179.56,100,175,100.16,170.23,101.37Z" transform="translate(-49.77 -28.09)"/><path class="cls-1" d="M104.19,56c1.54,4,3.89,7.5,6.13,11.08A18.45,18.45,0,0,0,117.69,74l.34.25c1.56,1.12,3.3,1.92,5,2.88l.7.45c.19.54.78.61,1.12,1h0L131,83.24c-.45-.89-1.27-1.13-1.53-1.83a33.24,33.24,0,0,0-4.79-3.75,104.75,104.75,0,0,1-8.55-7.18,45.56,45.56,0,0,1-11.39-17.43h0c-.92-2.1-1.09-4.39-1.67-6.57a8.24,8.24,0,0,0-.34-2.56c-.66-3.4.11-6.66.9-9.92h0c-2.33,4.12-1.54,8.5-1.07,12.85C102.94,49.93,103,53,104.19,56Z" transform="translate(-49.77 -28.09)"/><path class="cls-1" d="M161.05,92c.35.23.43-.31.71-.26h0l1.77-2h0a36.43,36.43,0,0,1,10.61-7.87c4.41-2,9-3.22,13.85-1.78a13.35,13.35,0,0,1,6.58,3.81A19.29,19.29,0,0,1,198.23,89l.65,2a3.33,3.33,0,0,0-.12-2.16,13.86,13.86,0,0,0-6.34-8.57c-1.5-1-3.07-1.8-4.63-2.65a11.06,11.06,0,0,0-10.16-.28A30.61,30.61,0,0,0,165.08,87c-.1.78-1,.89-1.24,1.58l-.54.41-2.25,3Z" transform="translate(-49.77 -28.09)"/><path class="cls-1" d="M171.4,80.17c2.8-1.77,5.5-3.73,8.92-4.24A12.16,12.16,0,0,1,188,77c3.14,1.65,6.35,3.23,8.86,5.95-.43-1.24-.87-2.49-1.31-3.73h0c-1-1.93-2.7-3.26-4.28-4.69-4.91-3-9.68-2.51-14.34.59a43,43,0,0,0-5.54,4.36,7.85,7.85,0,0,0-1.9,1.6l.14.41Z" transform="translate(-49.77 -28.09)"/><path class="cls-1" d="M189.4,81.08l-.72-.31a26.29,26.29,0,0,0-4-.72c-6.74-.15-12.32,2.6-17.31,6.85-.95.74-2.12,1.27-2.42,2.61.8-.65,1.6-1.3,2.41-1.94,4.78-2.31,9.62-4.44,15-4.95,5.18-.49,9.19,1.54,12.17,5.71,1.92,2.68,2.48,5.51.71,8.56,1.94-.43,2.95-2.15,3.09-5.17-.89-3.83-3.23-6.68-6.17-9.12Z" transform="translate(-49.77 -28.09)"/><path class="cls-1" d="M192.59,74.64h0a23.52,23.52,0,0,0,6.74-3.27c0-.2-.18-.2-.32-.15A31.82,31.82,0,0,1,190,72.86,11,11,0,0,0,192.59,74.64Z" transform="translate(-49.77 -28.09)"/><path class="cls-1" d="M67,153.07c.7-1.54,1.38-3.08,2-4.64a68,68,0,0,1,4.77-9.4c2.8-4.68,7.28-7,12.15-8.78,2.89-1.06,6-1.61,8.72-3l4.19-1.65a27.12,27.12,0,0,0,7.35-5.49c-.06-.13.36-.73-.21-.33-1.18.82-2.68,1.27-3.34,2.75-.08.17-.39.23-.59.35-2.26,1.66-4.92,2.55-7.44,3.71-3.39.91-6.75,2-10.19,2.68-5.89,1.15-10.15,4.58-13.89,9a34.71,34.71,0,0,0-6.87,12.42,2.5,2.5,0,0,0,1.87,3.28A1.21,1.21,0,0,0,67,153.07Z" transform="translate(-49.77 -28.09)"/><path class="cls-1" d="M151.24,94.26l4.85-3.39a15.15,15.15,0,0,0-4.69,1.76,36.26,36.26,0,0,0-13.19,10.25h0a20.43,20.43,0,0,1-5.06,3.9,14.74,14.74,0,0,1-5.38,1.33l.14.39a11.16,11.16,0,0,0,3.16-.18,16.75,16.75,0,0,0,7-4.52c.43-.37.86-.76,1.3-1.13,4-3.35,7.74-6.9,12.2-9.6.38.54-.32.53-.41.82l-3.27,2.34c-5.17,3.71-9.34,8.68-14.92,11.87,0,0,0,.17,0,.25,4.84-.63,8.18-3.62,11.14-7.16A55.66,55.66,0,0,1,151.24,94.26Z" transform="translate(-49.77 -28.09)"/><path class="cls-1" d="M75.6,132.29a19.63,19.63,0,0,1,7-3.29c2.41-.73,4.8-1.53,7.12-2.3l.27-.09,2.28-.76c-.49-.21-1.21.22-1.91.37-4.83,1-9.83,1.51-14.33,3.78a32.52,32.52,0,0,0-14.31,14.61c-1,1.95-.77,4-.4,6v0c.36.29.46,1,1,.92s.55-.74.69-1.19A36.68,36.68,0,0,1,75.6,132.29Z" transform="translate(-49.77 -28.09)"/><path class="cls-1" d="M70.89,154.24A47.68,47.68,0,0,1,79,140.15a32.12,32.12,0,0,1,9.43-7.72c2-1.09,4.08-2.14,6.13-3.2.95-1.09,2.56-1.25,3.41-2.47-1.07-.15-1.91.54-2.78.94A40.9,40.9,0,0,1,88.92,130a39.26,39.26,0,0,0-8.79,3.63c-3.39,1.87-5.44,5-7.27,8.21a80,80,0,0,0-4.32,9.3,12.83,12.83,0,0,1-1.34,2.7c-.48.68-.44,1,.21,1.46C69.53,156.87,69.91,156.85,70.89,154.24Z" transform="translate(-49.77 -28.09)"/><path class="cls-1" d="M91.49,119.57a32.71,32.71,0,0,0-8.44.35l-2.44.39c.9.72,1.85.24,2.78.14,2.6.42,5.19.82,7.78,1.25a18.14,18.14,0,0,0,10-1.36c.26-.11,1-.06.58-.77C98.33,120.41,94.92,119.94,91.49,119.57Z" transform="translate(-49.77 -28.09)"/><path class="cls-1" d="M95.28,130.28c0-.33.59-.57.16-1l-1,.53a12.77,12.77,0,0,1-3.56,2.09c-7.34,3.29-12.42,8.89-16.34,15.74-1.61,2.82-2.37,6-4.09,8.75-.25.39-.09.62.18.85s.51.44.77.65c1.76,1.45,2.22,1.38,2.83-.73,2.39-8.46,7.59-14.92,14.32-20.29a65.87,65.87,0,0,0,6.4-6.21Z" transform="translate(-49.77 -28.09)"/><path class="cls-1" d="M73.65,130.51c3.9-2.62,8.55-3.41,13.12-4.23,2.33-.41,4.64-.88,7-1.29,1.62-.28,3-1.17,4.62-1.51.8-.09,1.38-.68,2.11-.91-.42-.75-.88.28-1.31,0l-.93.43c-3.77,1.32-7.66,1.13-11.56.94-.58,0-1.15,0-1.73,0a24.63,24.63,0,0,0-25,22.89c.21.27.31.42.47-.09C62.56,139.47,67.65,134.55,73.65,130.51Z" transform="translate(-49.77 -28.09)"/><path class="cls-1" d="M78.45,123.88a36.11,36.11,0,0,1,9-.65c2.59.12,5.19.43,7.76-.25a6.49,6.49,0,0,0,2.6-.55l-.11-.39-2.86.45a20.63,20.63,0,0,1-5.14-.45,29.71,29.71,0,0,0-12.45-.5,44.42,44.42,0,0,0-11.12,5.74c-6.12,4.25-8.39,10.43-8.18,17.66a4.16,4.16,0,0,0,1.1,3.16l.19-.22a15.29,15.29,0,0,1,.07-3.17C60.62,136.2,67.92,126.05,78.45,123.88Z" transform="translate(-49.77 -28.09)"/><path class="cls-1" d="M93.78,161.86c.77-2.72.33-5.44-.25-8.1a26.69,26.69,0,0,1-.25-11.39c.11-.69.21-1.38.31-2.08a18,18,0,0,0-3,10.74,48.23,48.23,0,0,0,.81,6.44,15.47,15.47,0,0,1,.26,4,4.05,4.05,0,0,1-1.57,3.29C92.63,164.92,93.07,163.23,93.78,161.86Z" transform="translate(-49.77 -28.09)"/><path class="cls-1" d="M96.15,136.28a8.27,8.27,0,0,0,.22-1.14c-1.52,2.15-1.79,4.56-2.5,6.8a33.44,33.44,0,0,0,.48,13c.46,2.1.92,4.34.06,6.52a5.41,5.41,0,0,1-1.68,3.27c-.79.69-.31,1.08.25,1.43a2.2,2.2,0,0,0,3.28-1.65,29.61,29.61,0,0,0-.83-8A37.91,37.91,0,0,1,96.15,136.28Z" transform="translate(-49.77 -28.09)"/><path class="cls-1" d="M91,161.2a22.58,22.58,0,0,0-.67-6c-1.23-6.13.19-11.74,3.24-17.06.91-1.59,1.5-3.51,2.77-4.71,2.49-2.36,4.06-5.48,6.71-7.67.66-.54,1.25-1.18,1.88-1.77.52-.91,1.42-1.56,1.66-2.69-3,3-6.55,5.47-9.23,8.83a25,25,0,0,1-1.58,2.45,2.44,2.44,0,0,1-.27.29V133l-.09,0c-1.67,3-3.35,6.07-5,9.11a27.37,27.37,0,0,0-3.38,17.82c.26,1.63.46,3.25-.47,4.8C89.74,164.64,90.76,164.67,91,161.2Z" transform="translate(-49.77 -28.09)"/><path class="cls-1" d="M86.09,157.37c-.89,1.62-1.24,3-2,4.21-.38.61-1.46.91-1.16,1.76s1.29.61,2,.68c.49,0,.33.45.39.75,1.16-.3,1.24-1.33,1.22-2.18C86.55,161,86.29,159.38,86.09,157.37Z" transform="translate(-49.77 -28.09)"/><path class="cls-1" d="M85.38,164.8a0,0,0,0,1,0,0h0Z" transform="translate(-49.77 -28.09)"/><path class="cls-1" d="M83.7,160.78a12.4,12.4,0,0,0,1.84-5.14c.39-6.63,3.29-12.3,6.51-17.88.54-.95,1-1.93,1.58-2.89l-.15-.12c-1.46,1.88-2.87,3.8-4.39,5.63A30.08,30.08,0,0,0,82,157.14a7.24,7.24,0,0,1-1.55,4.57c-.17.18-.3.38-.1.62a1.09,1.09,0,0,0,1.16.39A3.57,3.57,0,0,0,83.7,160.78Z" transform="translate(-49.77 -28.09)"/><path class="cls-1" d="M59.35,116.23A5.54,5.54,0,0,0,57.57,118l0,0-.15.2a5.06,5.06,0,0,0,1.94-1.31c5.52-4.21,12.09-6,18.54-8.06a18.51,18.51,0,0,1,5.84-.84,61.28,61.28,0,0,1,15.82,2.12A57,57,0,0,0,110.46,112c.59.05,1.28.26,1.63-.51l-1.36-.45c-.5.25-.94,0-1.38-.18-4.52-1.3-9.06-2.6-13.56-4A22.75,22.75,0,0,0,82,106.63c-7.3,2.29-14.61,4.55-21.3,8.4Z" transform="translate(-49.77 -28.09)"/><path class="cls-1" d="M92.58,105.48c3,.71,5.94,1.58,8.89,2.41,2.53.7,5,1.45,8,2.29l-1.7-1.37-.14-.11-5.19-2.83-.05,0A39.2,39.2,0,0,0,94,103.58c-4.63-.7-9,.4-13.25,1.92l-1.84,1c-1.66.54-1.66.54-2,1.28h0L79,106.9h0C83.44,105.45,87.91,104.37,92.58,105.48Z" transform="translate(-49.77 -28.09)"/><path class="cls-1" d="M52.27,119.51c2.45-6.38,7-11,12.49-14.75a55.12,55.12,0,0,1,7.83-4.87c8.37-3.84,16.68-4.32,25,0,.07-.13.73,0,.16-.43A18.68,18.68,0,0,0,80.24,95.9c-3.94,1.15-7.75,2.63-11.6,4a42.55,42.55,0,0,0-16.29,16.55,8.83,8.83,0,0,0-1.06,5.43A7,7,0,0,0,52.27,119.51Z" transform="translate(-49.77 -28.09)"/><path class="cls-1" d="M57.45,141.15A19.86,19.86,0,0,1,67,125.81c4.93-3,10-5.8,15.88-6.54,1.84-.23,3.69-.43,5.53-.65,3,.2,6,.76,9,.78a10.57,10.57,0,0,0,3.27-.37,4.18,4.18,0,0,0,2.26-.36c-.79-.48-1.59-.12-2.39,0h0l-12.52-.54a3.91,3.91,0,0,0-2-.07c-5.87.27-11.6,1.08-16.81,4.12-5.81,3.39-11.4,6.95-13.72,13.8A8.76,8.76,0,0,0,57,142C57.41,141.78,57.41,141.49,57.45,141.15Z" transform="translate(-49.77 -28.09)"/><path class="cls-1" d="M111.33,108.7h0a81.3,81.3,0,0,0-10.48-4.8c-6.08-2.11-12.11-3-18.53-1.22C75.63,104.56,68.82,106,63,110.07a26,26,0,0,0-8.43,9.35c-.28.54-.72,1-.57,1.73l2-2.39a16.42,16.42,0,0,1,4.53-4.22,3.82,3.82,0,0,1,1.64-1.13c3.82-2,7.83-3.62,11.81-5.29a66.08,66.08,0,0,1,6.58-3,20.09,20.09,0,0,1,4.49-1.56,25.05,25.05,0,0,1,16.11,1.31c3.32,1.17,6.2,3.13,9.17,4.95l.24.12c1.89.55,3.66,1.57,5.75,1.31A31,31,0,0,1,111.33,108.7Z" transform="translate(-49.77 -28.09)"/><path class="cls-1" d="M76.15,94.15c-.06-.17-.11-.33-.16-.5-1.85.54-3.71,1-5.54,1.62a25.24,25.24,0,0,0-12.64,9.19c-2.79,3.69-5.88,7.18-6.8,11.93-.08.45-.34.89-.12,1.38C56.13,106.47,66,100.2,76.15,94.15Z" transform="translate(-49.77 -28.09)"/><path class="cls-1" d="M89.86,117.54c4.7.31,9.41.83,14.13.32.4-.33,1-.21,1.48-.85a75.26,75.26,0,0,1-8.88-1.66c-10.85-2.33-20.54.85-29.73,6.26a29.68,29.68,0,0,0-8.2,6.73,15,15,0,0,0-3,5c1.15-.82,1.63-2.15,2.38-3.26a.09.09,0,0,0,0-.05h0C66.71,120.82,77.3,116.71,89.86,117.54Z" transform="translate(-49.77 -28.09)"/><path class="cls-1" d="M61,125A48.42,48.42,0,0,1,87.54,113.9a31.26,31.26,0,0,1,10.71,1.16c.79-.2.38-.38,0-.55a22.44,22.44,0,0,0-10.83-2,57.46,57.46,0,0,0-23.84,7.37,20,20,0,0,0-9.91,14.71,5.47,5.47,0,0,0,.78,2.76,33.57,33.57,0,0,1,.74-4.29A17.17,17.17,0,0,1,61,125Z" transform="translate(-49.77 -28.09)"/><path class="cls-1" d="M72.72,104.71a93.5,93.5,0,0,1,15.82-3.9c.63.27,1.29,0,1.92.09-.62-.77-1.47-.57-2.28-.54a25.91,25.91,0,0,0-11.85,1.71c-4.61,1.91-9.09,4.14-13.85,5.7-5.64,3.53-8.73,8.84-10.71,15.3a2,2,0,0,0,.92-1.16C56.5,112.83,63.67,107.63,72.72,104.71Z" transform="translate(-49.77 -28.09)"/><path class="cls-1" d="M86.54,97.6c-6.66-.32-12.61,1.82-18.08,5.44-1.73,1.15-3.41,2.35-5.11,3.53.33.45.66.07,1,0a64.5,64.5,0,0,0,6.39-2.63c5.76-2.86,11.73-4.85,18.3-4,1.51.19,3.08.23,4.33,1.31a65.72,65.72,0,0,1,13.32,4.19,4.29,4.29,0,0,0-.66-.58C99.82,101.54,93.77,97.94,86.54,97.6Z" transform="translate(-49.77 -28.09)"/><path class="cls-1" d="M67.28,117.24a66.08,66.08,0,0,1,18.29-5.13,22.48,22.48,0,0,1,11.88,1.5,22.67,22.67,0,0,0,10.12,1.88c.72-.35,1.76,0,2.28-1.1-4.79.25-9.29-1-13.71-2.35-5.54-1.7-11-1.32-16.55-.2a62.6,62.6,0,0,0-16.64,6A25.63,25.63,0,0,0,54,126.11a7.71,7.71,0,0,0-1.26,7.22c.23.12.43.19.52-.17C55.1,125.35,60.1,120.33,67.28,117.24Z" transform="translate(-49.77 -28.09)"/><path class="cls-1" d="M103.91,154.67a65.1,65.1,0,0,0,2,7.91,6.27,6.27,0,0,0,.48-4.8c-.5-2.16-1.1-4.29-1.72-6.42a21.38,21.38,0,0,1-.78-8.85,48.21,48.21,0,0,1,11.6-26.28c.75-.86,1.8-1.44,2.46-2.72a19.64,19.64,0,0,0-7.59,6.64C102.86,130.65,101,142.23,103.91,154.67Z" transform="translate(-49.77 -28.09)"/><path class="cls-1" d="M281.43,134.93a27.1,27.1,0,0,1-5.95-7,25.07,25.07,0,0,0-10.81-9.48,2.16,2.16,0,0,0-1.61-.12c5.2,2.57,8.3,7.06,11.1,11.84,1.89,3.23,4.33,5.91,7.92,7.29a9.06,9.06,0,0,0,4.5.7A33.11,33.11,0,0,1,281.43,134.93Z" transform="translate(-49.77 -28.09)"/><path class="cls-1" d="M281.14,129.82a86.34,86.34,0,0,0-6.75-6.91l-4.68-3.53a4.65,4.65,0,0,0-2.08-.28c-.15.28,0,.37.2.45a21.76,21.76,0,0,1,7.95,7.59c2.24,3.39,4.7,6.55,8.2,8.8a11,11,0,0,0,10.28,1.26c-1.43-.35-2.74-.61-4-1A20.58,20.58,0,0,1,281.14,129.82Z" transform="translate(-49.77 -28.09)"/><path class="cls-1" d="M263.76,111.88a21.56,21.56,0,0,1-3.85,1.91,15.91,15.91,0,0,1-11.62.1h0c-1.27-.3-2.06-1.35-3.1-2a5.53,5.53,0,0,0-1.64-1.83,3.4,3.4,0,0,0,1,1.79c1.94,2.4,4.13,4.45,7.24,5.29a24.4,24.4,0,0,0,3.39.54l3.39-.77a24.19,24.19,0,0,0,6.15-5.21C264.29,111.29,264,111.72,263.76,111.88Z" transform="translate(-49.77 -28.09)"/><path class="cls-1" d="M273.9,120.57l-.45-.18c-.6-.06-1.05-.76-1.87-.36,1.2,1.17,2.77,1.79,3.79,3.06a42.31,42.31,0,0,1,5.83,5.76c3.2,3.58,6.84,6.45,11.71,7.4a14.23,14.23,0,0,0,5.44.08c-.18-.86-.93-.51-1.39-.55a15.47,15.47,0,0,1-10.45-5.24,44.35,44.35,0,0,0-10.25-8.61h0l-2.61-1.44A.73.73,0,0,0,273.9,120.57Z" transform="translate(-49.77 -28.09)"/><path class="cls-1" d="M265.45,120.64a6.49,6.49,0,0,0-3-1.74,4.8,4.8,0,0,0,2.05,1.59,12.18,12.18,0,0,1,3.57,5.41,19.79,19.79,0,0,0,4.84,8.25,11.89,11.89,0,0,0,6.74,3.06c-3.65-2.25-5.65-5.84-7.76-9.32A23,23,0,0,0,265.45,120.64Z" transform="translate(-49.77 -28.09)"/><path class="cls-1" d="M289.52,89.91a92.31,92.31,0,0,1-1.09,11.36,18.88,18.88,0,0,1-2.12,6c-.8,2.76-2.63,4.83-4.59,6.8a24,24,0,0,1-3.91,3.12l-1.71.74.12.39,1.71-.7a14.69,14.69,0,0,0,10.39-10c1-2.91,2.11-5.78,3.17-8.67h0a91.15,91.15,0,0,0,1.3-9.15,29.12,29.12,0,0,1,4.79-13.32,25.51,25.51,0,0,0,1.65-2.83,19.15,19.15,0,0,0-5.72,5.29A19.88,19.88,0,0,0,289.52,89.91Z" transform="translate(-49.77 -28.09)"/><path class="cls-1" d="M249.28,50.62a21,21,0,0,1,9,.88c4.77,1.22,8.55,4,12.05,7.36,2.95,2.8,5,6.26,7.34,9.54a9.18,9.18,0,0,0,1.23,2h0l.44-.14-1.17-2a76.75,76.75,0,0,0-5.2-8.78c-3.8-5.34-8.95-8.47-15.26-10.16a26.92,26.92,0,0,0-15.9.5c-1.51.51-3,1-4.52,1.6,2.93.27,5.8-.34,8.69-.41C247.11,50.88,248.19,50.72,249.28,50.62Z" transform="translate(-49.77 -28.09)"/><path class="cls-1" d="M258.47,51.93a8,8,0,0,1-1-.17,25.11,25.11,0,0,0-9.14-.5c-.25,0-.89-.18-.38.48,5.77.92,11.53,1.82,16.18,5.85a69.4,69.4,0,0,1,8.07,8.64,36.55,36.55,0,0,0,8,7.48c.07-.15.16-.26.14-.3-2.71-3.91-5.22-8-8.18-11.7A29.24,29.24,0,0,0,258.47,51.93Z" transform="translate(-49.77 -28.09)"/><path class="cls-1" d="M279.55,92.35c-3.12,4-5.73,8.42-8.7,12.56a7.08,7.08,0,0,1-1.59,2,40.46,40.46,0,0,1-9.11,9.67c-.25.18-.81.18-.58.75,3.69,0,7.3.79,10.95,1.15,7.14-.31,11.47-4.67,14.92-10.32,3-5.59,3-11.78,3.4-17.85a20.92,20.92,0,0,1,4.08-11.66,8.44,8.44,0,0,0,.42-.77,6.42,6.42,0,0,0-2.6,1.95c-2.14,1.93-4.15,4-6.29,5.92S281.22,90.19,279.55,92.35Z" transform="translate(-49.77 -28.09)"/><path class="cls-1" d="M293.38,90.59a38.62,38.62,0,0,1-1.22,7.69h0a70.27,70.27,0,0,1-4.1,11.53,13.3,13.3,0,0,1-8.13,7.7c-1.45.52-2.9,1-4.36,1.53-.39.14-.48.26-.29.4l.26.14a25.73,25.73,0,0,0,7.07-1.3,12.34,12.34,0,0,0,7.24-7c.33-.79.74-1.56,1.11-2.34l0,0c4.83-11.69,6.25-24.39,10.62-36.25-.61.08-.94.67-1.27,1.12C296.63,78.78,293.79,84.16,293.38,90.59Z" transform="translate(-49.77 -28.09)"/><path class="cls-1" d="M258.4,113.73c2.52-.72,4.69-2.14,7-3.31l1.5-1.47h0c.72-.44,1.07-1.19,1.81-2a3.21,3.21,0,0,0-1.64,1.09c-5.57,4-11.61,5.2-18.2,3-3.35-1.1-5.21-3.8-6.94-6.62-.64.6,0,1.14.17,1.59a18,18,0,0,0,4.43,6.27A14.25,14.25,0,0,0,258.4,113.73Z" transform="translate(-49.77 -28.09)"/><path class="cls-1" d="M106.24,134.29c-1.11,4.29-2.26,8.59-1.74,13.08.39,3.31,1.54,6.45,2.35,9.67a8.06,8.06,0,0,1-.55,6.11,3.43,3.43,0,0,0,3.65-1.77,9.9,9.9,0,0,0,.63-7.83c-.89-3.35-2.24-6.55-3-9.93a24.68,24.68,0,0,1-.43-10.44l.51-2.16A5.94,5.94,0,0,0,106.24,134.29Z" transform="translate(-49.77 -28.09)"/><path class="cls-1" d="M246.91,51.9h0Z" transform="translate(-49.77 -28.09)"/><path class="cls-1" d="M106.66,102.26c-3-2.37-6.19-4.43-9.37-6.5a27.91,27.91,0,0,0-12.4-2.93,19.26,19.26,0,0,0-10.26,3c-1.44.87-2.84,1.81-4.26,2.72.45.34.8-.06,1.16-.2,2.79-1,5.57-2.12,8.45-2.92,5.8-1.61,11.31-1.15,16.39,2.35a83.86,83.86,0,0,0,9.17,5.45c.58.3,1.25.52,1.58,1.18l2.6,1.8.25.16,5.84,3.18c2.27.67,4.48,1.73,7.23,1-2.23-.77-4.21-1.38-6.14-2.12A39.61,39.61,0,0,1,106.66,102.26Z" transform="translate(-49.77 -28.09)"/><path class="cls-1" d="M112.69,116.36a25.37,25.37,0,0,1,2-1.82c.94-.63,2.17-.88,2.77-2a10.89,10.89,0,0,0-2.76,1.3c-3.36,1.8-5.42,4.78-7.25,8a2.69,2.69,0,0,1-.6,1,54.92,54.92,0,0,0-7,20.54,46,46,0,0,0,.49,15.53,8.13,8.13,0,0,0,1.82,3.89,1.74,1.74,0,0,0,2.22.44c1-.45.41-1.17.26-1.75-1.38-5.62-2.83-11.22-2.84-17.07A39.61,39.61,0,0,1,112.69,116.36Z" transform="translate(-49.77 -28.09)"/><path class="cls-1" d="M226.16,76.73a58.11,58.11,0,0,1,8.24,9.07c2.54,3.27,5.13,6.51,7.63,9.81,3.19,4.2,7.57,5.68,12.62,5.93a23.45,23.45,0,0,0,12.83-2.72c2-1.09,4.06-2,6.09-3a3.87,3.87,0,0,0,1.59-1.22c-.43-.33-.78.32-1.18.08a23.46,23.46,0,0,1-6.05,1.93A37.81,37.81,0,0,1,258.71,98c-4.27.32-7.78-1.43-11.11-3.68a3.42,3.42,0,0,1-.4-.26l-.77-.54h0a21.43,21.43,0,0,1-1.78-1.21A128.2,128.2,0,0,1,233.34,81c-4.47-4.85-9.4-9-15.79-11a22.85,22.85,0,0,0-7.29-1.32c0,.45.39.5.72.58a45.62,45.62,0,0,1,9.3,3.4A19.23,19.23,0,0,1,226.16,76.73Z" transform="translate(-49.77 -28.09)"/><path class="cls-1" d="M276.56,95.12l-.33.37C276.35,95.37,276.51,95.26,276.56,95.12Z" transform="translate(-49.77 -28.09)"/><path class="cls-1" d="M103.83,127.19c.15-.3.33-.58.5-.87h0l.32-.69c-.61-.13-.82.42-1.16.72-5.28,4.73-7.61,10.83-8.28,17.74-.47,4.72.28,9.31,1.14,13.91a19,19,0,0,1,.39,7c.18.79.75.62,1.23.45a5.24,5.24,0,0,0,3.27-2.57c-2.73-5.28-2.71-11-2.32-16.66A49.64,49.64,0,0,1,103.83,127.19Z" transform="translate(-49.77 -28.09)"/><path class="cls-1" d="M209.93,68.22c.44-.16,1,.08,1.38-.23l2.39,0a18.62,18.62,0,0,1,7,.51c3.23.61,5.85,2.43,8.42,4.31A77.14,77.14,0,0,1,242.56,85.2c5.06,6,11.5,8.76,19.16,9.27a37.25,37.25,0,0,0,11-.62,14.87,14.87,0,0,0,8.32-5.52l-.17-.18h0a7.68,7.68,0,0,0-.95.48A22.71,22.71,0,0,1,265,92.08c-7.77-.79-14.32-4.32-19.94-9.6-3.46-3.26-6.6-6.89-10.84-9.24-2.16-1-4.32-2.07-6.48-3.12a27.23,27.23,0,0,0-15.08-2.81,2.73,2.73,0,0,1-1.55,0,1,1,0,0,1-.15.2,5.18,5.18,0,0,0-1.19.29C209.35,68,209.85,68.08,209.93,68.22Z" transform="translate(-49.77 -28.09)"/><path class="cls-1" d="M259.49,105.94c5.42-1.14,9.85-4.43,13.75-8.34a6.07,6.07,0,0,0,.57-1c-2.3,1.08-4.37,1.93-6.33,3-6,3.24-12.27,3.24-18.68,1.69-3.23-.78-5.49-3-7.46-5.42-3.58-4.47-7-9-10.63-13.51a19.54,19.54,0,0,0-4-4.27l-1.55-1.54a13.19,13.19,0,0,0-3-1.73l1.52,1.41,2.07,1.68a16.39,16.39,0,0,1,2.33,2.38c1.32,1.87,2.69,3.7,3.93,5.61,2.57,3.95,5,8,7.64,11.91C244.49,104.77,251.23,107.68,259.49,105.94Z" transform="translate(-49.77 -28.09)"/><path class="cls-1" d="M254.65,111.56a19.46,19.46,0,0,0,13.66-5.23c.31-.29.67-.53,1-.8,2.64-3.08,4.63-6.61,6.86-10,.06-.28.11-.56.17-.85A13.15,13.15,0,0,0,274,97.6a4.46,4.46,0,0,1-.88,1.14c-6.39,5.44-13.16,9.89-22.18,7.77a16.62,16.62,0,0,1-10.11-6.42,2.38,2.38,0,0,0-.55-.43c-.26.09-.22.32-.13.47,1.69,3.13,3.34,6.3,6.06,8.69A12.29,12.29,0,0,0,254.65,111.56Z" transform="translate(-49.77 -28.09)"/><path class="cls-1" d="M269.43,95.14A45,45,0,0,1,258,94.69a25.57,25.57,0,0,1-15.73-8.86,81.47,81.47,0,0,0-16.11-14.34,19.48,19.48,0,0,0-5.07-2.4c-1.16-.16-2.32-.39-3.48-.44-.78,0-1.63-.51-2.35.2a6.86,6.86,0,0,1,3,.63c6.31,2.34,11.39,6.37,16,11.27s8.84,10,14.57,13.66c.64.32,1.29.63,1.92,1a15.41,15.41,0,0,0,9.1,2c2.71-.27,5.4-.7,8.09-1.1l2-.65c1.48.09,2.69-1,4.16-.95.13-.32.13-.5-.33-.4C272.25,94.58,270.84,94.86,269.43,95.14Z" transform="translate(-49.77 -28.09)"/><path class="cls-1" d="M211.13,67.28l.54-.38a28.21,28.21,0,0,1,17.17,3c1.19.6,2.41,1.17,3.62,1.75a36.09,36.09,0,0,1,11.33,8.58c5.07,5.33,11,9.19,18.3,10.75a23.2,23.2,0,0,0,17.15-2.65,1.87,1.87,0,0,0,1.05-1.12c-7.66,2.94-15.27,3.76-22.74-.57a27.93,27.93,0,0,1-5.41-4.28c-2.29-2.21-4.46-4.54-6.67-6.83l-.07-.06c-3.88-3.18-7.62-6.74-12.53-8.16-7-2-14.13-2.75-21.33-.87a5.57,5.57,0,0,0-2,.59C210,67.56,210.66,66.84,211.13,67.28Z" transform="translate(-49.77 -28.09)"/><path class="cls-1" d="M67.4,115a63.21,63.21,0,0,1,18.84-4.81c4.29-.4,8.31.77,12.36,1.81a36.65,36.65,0,0,0,10.23,1.65,10.67,10.67,0,0,0,3.94-.81c0-.37-.33-.29-.54-.28a53,53,0,0,1-13.65-2c-5.58-1.4-11.26-2.46-17-1.75-6.62.81-12.72,3.41-18.6,6.43-2.61,1.34-4.75,3.42-7.13,5.13a10.63,10.63,0,0,0-3.68,7.17A51.2,51.2,0,0,1,56.41,122C59.49,118.72,63.34,116.68,67.4,115Z" transform="translate(-49.77 -28.09)"/><path class="cls-1" d="M106.58,30.62c-3.46,4.18-4.2,9-3.12,14.13.56,2.73,1.21,5.45,1.82,8.17,3.89,10,10.88,17.45,19.3,23.83A40.53,40.53,0,0,0,138.46,84c.52.15,1.06.25,1.6.38l.12-.33c-1.36-.74-2.71-1.51-4.09-2.22a18,18,0,0,1-4.34-3.09c-2.94-2.85-6.15-5.39-9.35-7.94A51.05,51.05,0,0,1,107.19,50a33.09,33.09,0,0,1-2.43-8.43,15.14,15.14,0,0,1,3.67-12.17l-1.85,1.23Z" transform="translate(-49.77 -28.09)"/><path class="cls-1" d="M132.84,82.71l-1.62-.51a12.08,12.08,0,0,0,3.51,2.45c.38.22,1,.24.77,1a5.44,5.44,0,0,0,2.73,1.25,10.21,10.21,0,0,0,7.4.75c1.82.16,3.41-.88,5.2-1a3.34,3.34,0,0,0-2-.49,41.21,41.21,0,0,1-15.41-3.2A2,2,0,0,1,132.84,82.71Zm4.55,3.39-.15,0-.13-.1Z" transform="translate(-49.77 -28.09)"/><path class="cls-1" d="M130.91,77.1c3.37,3.48,7.72,5.39,11.93,7.52a8.63,8.63,0,0,0,4.89.51,115.43,115.43,0,0,1-10.44-5.82c-4.39-2.78-8.44-6-12.67-9-3.23-2.29-5.65-5.49-8.71-8-.38-.31-.66-.84-1.3-.63a48.5,48.5,0,0,0,10.28,10.25A45.62,45.62,0,0,1,130.91,77.1Z" transform="translate(-49.77 -28.09)"/><path class="cls-1" d="M153.69,95.94c-2.66,2.34-6,3.76-8.5,6.31a20,20,0,0,1-5.14,4l0,.53a40.37,40.37,0,0,0,13.77-10.54,1.32,1.32,0,0,0,0-.28S153.7,95.93,153.69,95.94Z" transform="translate(-49.77 -28.09)"/><path class="cls-1" d="M158.54,88.62a4.36,4.36,0,0,0,2.53-.94,20.35,20.35,0,0,0-4.6.49C157,88.92,157.89,88.28,158.54,88.62Z" transform="translate(-49.77 -28.09)"/><path class="cls-1" d="M158.49,89.9l-1,.51c-2.65,2.3-5.77,4-8.3,6.4a30.31,30.31,0,0,0-3.16,3.15,1.45,1.45,0,0,0-.36.39l-2.08,2.24c.08.11-.22.6.12.34a21.05,21.05,0,0,0,2.15-2.08c3.29-2.53,7-4.55,10-7.44.2-.24.34-.55.69-.63l1.92-2.13,2-1.6A3.66,3.66,0,0,0,158.49,89.9Z" transform="translate(-49.77 -28.09)"/><path class="cls-1" d="M127.1,99.3A25.57,25.57,0,0,1,112.32,99l-3.23-1.77-.2.34a3.52,3.52,0,0,0,1.52,1.33c4.88,4.27,10.58,4.45,16.59,3.43,5.56-1,9.91-4,14-7.57,2.87-2.49,5.73-5,9.62-5.86,1.83-.4,3.64-.9,5.46-1.36h0a5.76,5.76,0,0,0,2-.44,3.12,3.12,0,0,0-1.94-.09,19.72,19.72,0,0,0-12,3.57C138.82,94.19,133.38,97.57,127.1,99.3Z" transform="translate(-49.77 -28.09)"/><path class="cls-3" d="M137.39,86.1l-.28-.12.13.1Z" transform="translate(-49.77 -28.09)"/><path class="cls-3" d="M110.18,162.91v0l.44-.33h0C110.46,162.61,110.2,162.78,110.18,162.91Z" transform="translate(-49.77 -28.09)"/><path class="cls-3" d="M108.81,28.09l-.86.46h.28s0,0,0,.05a.83.83,0,0,1,0,.15L106.54,30c-.08.15-.15.3-.22.45-1.06.64-1.21,2-2.22,2.69-1.13,0-1,1.38-1.94,1.64a4.88,4.88,0,0,1-1.68,1.41l-2.13,2.1c0,.33-.27.46-.49.63l0,0-.3.18h0c-.7.47-.79,1.36-1.32,2-1.1,3-2.23,5.9-3.3,8.86a21.18,21.18,0,0,0-1.35,10.39c-.9,4.09-.14,8.1.63,12.1.13.69.47,1.39-.07,2-.38.38.19.68.09,1-.27,2.13.58,4,1.32,5.93a12.94,12.94,0,0,0,2.46,4,10.4,10.4,0,0,0,2.69,3.16,80.84,80.84,0,0,1,7.23,6.86c2,1.93,4,3.87,6.08,5.67a32.59,32.59,0,0,0,11.56,6.25c1.22,1.32,2.84,1.46,4.48,1.54,4,.2,8,.35,11.83-1.35a41.44,41.44,0,0,0,16-12.82c2.06-2.38,4.07-4.8,6.84-6.42.33.65-.3.94-.58,1.29-1,1.3-2.15,2.55-3.23,3.82-3.21,3-6.11,6.31-9.55,9.1a42.46,42.46,0,0,1-12.4,6.9,19.48,19.48,0,0,0-3.62.71c-1.15.1-2.3.15-3.44.31-4.2.61-7.93-1.08-11.73-2.38-5.38-1.84-9.71-5.42-14.16-8.79a13.3,13.3,0,0,0-2.66-1.72l-.33-.28a15,15,0,0,0-2.68-1.64l-.51-.29a20.9,20.9,0,0,0-10-3.09A39.09,39.09,0,0,0,64.69,97c-4.32,2.41-7.1,6.4-10,10.22A21.62,21.62,0,0,0,50,117.7c-.2,1.61-.67,3.23.45,4.8.67.93.45,2.11.25,3.22-.09.48-.35,1.09.47,1.26a22.57,22.57,0,0,0,1,6.52,1.62,1.62,0,0,0,.33,1.2c.56,1.33.26,3.13,2.13,3.73.17.06.21.51.31.78.94,2.58,2.3,5,2.74,7.76a4.55,4.55,0,0,0,3.11,3.8c.34.77.65,1.54,1.71,1.59.63,0,.67.67.91,1.09,1.62,1,3.19,2.16,4.81,3.12,1.27.75,2.37,1.68,3.59,2.47,1.42.92,2.43.65,2.85-.95,2.33-8.9,7.8-15.56,14.88-21.1.38-.29.74-.6,1.11-.92s.6-.54,1.13-1l0,0s0,0,0,0a21.76,21.76,0,0,1-3.32,4.65,30.1,30.1,0,0,0-7.27,17,11,11,0,0,1-.81,3.51,1.86,1.86,0,0,1-2.43,1.2,9,9,0,0,1-2-.82c-.63-.33-.91-1.11-2-1.31a5,5,0,0,0,3.47,2.7,23.48,23.48,0,0,1,2.76,1.06c1.59.67,3.06,2,5,1.7.63,1.15,1.67.86,2.59.58a5.77,5.77,0,0,1,3.27.09c.5.12.58.57.78.94a3.37,3.37,0,0,0,4.39-.18l2.44-.39c.89-.69,2.1-1,2.57-2.21a40.67,40.67,0,0,0,4.11.26,4.92,4.92,0,0,0,5.54-3.14,10.5,10.5,0,0,0,.65-5.26,25.91,25.91,0,0,0-1.29-4.89c-1.19-3.71-2.55-7.38-3-11.31a25,25,0,0,1,2.18-12.37c.39.38.23.75.2,1a29.39,29.39,0,0,0,3,15.86,25.41,25.41,0,0,1,2.27,6.83,21.23,21.23,0,0,1-.52,6.15,8.69,8.69,0,0,1-4.11,5.22c3.63-.58,6-6.52,5.11-11.53a14.56,14.56,0,0,0-1.11-4.44c-1.11-3-2.85-5.78-3.27-9-2.24-9.51,0-16.43,6.91-22.34.54-.46,1.23-.76,1.56-1.44.58-.33,1.15-.69,1.74-1a2.69,2.69,0,0,1,4,1.66,33.53,33.53,0,0,1,1.29,13.71c-.31,4-.36,8,1,11.83,2.27,6.65,5.55,9.25,12.52,9.84a19.94,19.94,0,0,0,8-.64c4.22-.54,7.09-3.15,9.62-6.26,2.37-2.9,4.85-5.7,7.37-8.47h0c2.19-1.45,4.69-1.73,7.22-1.95a9.9,9.9,0,0,0,3.25-.31c4.87.91,7.89-1.75,7.89-6.62,0-2,.47-3.9,0-5.86-.08-.34.1-.52.41-.65a1.29,1.29,0,0,0,.71-.87c.71-2.48,2.15-4.84,1.08-7.58-.33-.85.75-1.44.56-2.3l.34-1.79c.33-.12.79.07.94-.44,1.14-3.78,4.44-5.43,7.4-7.33,1.94-1.25,3.53-2.61,4.21-4.86.91-1.88.35-3.77-.08-5.62a44.26,44.26,0,0,0-3.07-8.62,8.26,8.26,0,0,0-2.3-3.23c-.45-.44-.46-.69.16-.87a21.62,21.62,0,0,0,5.74-2.88c.12-.08.35,0,.53,0,1.46,0,2.75-.69,4.14-1a16.33,16.33,0,0,1,7.13-.13c4.3.94,8.47,2.09,11.81,5.2a.45.45,0,0,0,.12.12l4,4c4.07,4.91,7,10.53,10,16.07.3.54.64,1.06,1,1.59.53,1.66,1.69,3,2.1,4.74,1,5,2.59,9.74,7,12.93a11.51,11.51,0,0,0,7.79,2.4,3.7,3.7,0,0,0,1,.12c4.85-.49,7.79,2.34,10.21,5.94a14.72,14.72,0,0,1,1.45,3.46c2.32,6.69,7.18,10.16,14,11a35.71,35.71,0,0,0,21.92-4.07c.71-.39,1.95-.44,1.5-2-1.29,1.32-2.85,1-4.43.83a16.54,16.54,0,0,1-10.55-5.13c-.29-.31-.65-.57-1-.85l-.21-.21c-2.18-2.26-5.09-3.38-8-4.89.78-.24,1.3.14,1.84.25s1.2.32,1.8.48c2.93.51,5.14,2.27,7.3,4.13a17.47,17.47,0,0,0,11.58,4.51,1.87,1.87,0,0,0,1.95-.69c-7,.7-11.86-2.9-16.66-7.1a.59.59,0,0,1,0-.08l1.67.41c3.5,1.77,6.79,4,10.73,4.84a6.72,6.72,0,0,0,3.42-.12c.24-.07.47-.17.37-.5s-.29-.16-.46-.11c-2.5.69-4.76-.17-7-1.17-1.5-.7-2.92-1.58-4.49-2.43a11.53,11.53,0,0,1,3.66.65,29,29,0,0,0,6,1.34,13.85,13.85,0,0,0,1.58,0c.28,0,.65,0,.63-.41s-.37-.31-.65-.29c-3.21.28-6.12-1.11-9.18-1.65-.42-.07-.19-.31-.07-.5,2.59-.42,5.19.21,7.78-.11a4.69,4.69,0,0,0,2.41-.79c-1.14-.22-2,.26-2.82-.07a.19.19,0,0,1,0-.08c.65-.9,2.07-.76,2.52-2.18a19.13,19.13,0,0,1-4.3,1.69l0,0c1.27-1.55,3.5-1.75,4.31-3.91-.89.46-1.23,1.12-2,1.24.32-1.37,1.81-2.12,1.85-3.91-2.24,2.66-3.32,6.23-7.5,6.41A25,25,0,0,0,304.82,112c-1.26,1.89-2.49,3.8-3.79,5.66a27,27,0,0,1-4.08,4.27,5.41,5.41,0,0,1-2.89,1.21c-.19-.47-1.39.81-1-.6,3.36-1.58,5.81-4.24,8.09-7,1.25-1.52,2.31-3.2,3.44-4.82a1.1,1.1,0,0,0,.17-1.41,53.31,53.31,0,0,1-7,9,26.62,26.62,0,0,1-5.79,4.28,4.91,4.91,0,0,1-4.24.23c4.46-1.34,7.75-4.28,10.75-7.61s5.52-6.8,6.32-11.28a40.4,40.4,0,0,1-3.28,6.33c-3.09,4.41-6.56,8.44-11.52,10.89a10.43,10.43,0,0,1-5.72,1.22c-.39-.31-.34-.49.14-.63,8.26-2.45,12.8-8.78,16.57-15.9,2.88-5.44,3.31-11.38,3.5-17.37a1.09,1.09,0,0,0-.34-1.07c-.07.91-.12,1.65-.19,2.39-.42,4.21-.61,8.5-2,12.5A35.27,35.27,0,0,1,289.46,119a16,16,0,0,1-6,2.49,3.43,3.43,0,0,1-2.37-.11c.18-.13.26-.24.36-.26A18.23,18.23,0,0,0,293,113.43,52.49,52.49,0,0,0,300.45,98a9,9,0,0,0,.22-1.41c.76-2.85.71-5.8,1.1-8.7A41.19,41.19,0,0,1,304,78.54a2.28,2.28,0,0,0,0-1.77,30.8,30.8,0,0,0-2.74,9.83c-.4,3.49-.78,7-1.17,10.45a53.37,53.37,0,0,1-4.73,11.58c-2.21,3.78-4.55,7.49-8.52,9.75-2.94,1.67-6,2.8-9.47,2.12a.44.44,0,0,0-.5.17c2.38,1.25,4.75,2.52,7.14,3.75a45.61,45.61,0,0,1,4.48,2.89,18.77,18.77,0,0,0,13.06,6.84c.34,0,.79-.15,1,.34a5.69,5.69,0,0,1-3.39,1c-.71-.1-1.42-.22-2.13-.29A15.15,15.15,0,0,1,286.89,130a38.65,38.65,0,0,0-8.67-7.35,8.13,8.13,0,0,0-1.94-1.35c-.4-.25-.25-.39,0-.56l.47-.15c.08-.68.61-.56,1.07-.61,4.3-.49,8.23-1.77,10.89-5.46a29.27,29.27,0,0,0,3.55-7.39h0a62.62,62.62,0,0,0,3.62-11.26c1.71-6.56,3.41-13.14,5.19-19.69a9.18,9.18,0,0,1,2.64-4.88c.55-.46.19-1,.21-1.8-2.85,2.1-5.92,3.54-8.28,6a4.93,4.93,0,0,1-3.49,1.36,19.55,19.55,0,0,1-6-.3c-2.36-.43-3.62-2.16-4.71-4.07q-3.37-5.86-6.72-11.74c-.45-.74-1.28-1.22-1.52-2.11-7.45-9.2-17.11-12.26-28.57-10.19a53,53,0,0,0-5.55,1.61c-.64.19-1.28.4-1.94.57-.2,0-.39,0-.14-.27a1.05,1.05,0,0,1,.26-.13l-.13-.4-2.82,1.37A65.7,65.7,0,0,1,225.84,54a39.65,39.65,0,0,0-8.12,2.84,32.79,32.79,0,0,0-11.7,9,23.41,23.41,0,0,1-6.14,4.54c-3.22,1.34-6.65,1.68-10.06,2.1a9.82,9.82,0,0,1-1.72-.08c-4.85-1.19-9,.31-12.83,3.22a50.17,50.17,0,0,0-8.75,7.91,14.44,14.44,0,0,0-1.78,3,3.14,3.14,0,0,1-2.47.32c-1.38-.11-2.77-.2-4.16-.3-1.06-.48-2.2.48-3.25-.19-.94-.17-1.89-.31-2.81-.53-4.53-1.07-8.5-3.41-12.55-5.56h0c-4.62-3.28-9.25-6.54-13.85-9.83a45.9,45.9,0,0,1-5.81-5.16A27.74,27.74,0,0,0,114,60.38a13.84,13.84,0,0,1-1.8-2.23,49.31,49.31,0,0,1-6.92-16.76,16.51,16.51,0,0,1,4-12.28l.27,0a1.17,1.17,0,0,1,0,.27,21.88,21.88,0,0,0-2,12.78c.95,7,4.48,12.81,9.28,17.73,3.36,3.46,7.36,6.3,11.08,9.42a55.9,55.9,0,0,0,5.69,4.61c6.35,4.85,13,9.22,20.68,11.72h0a0,0,0,0,1,0,0c-.05-.38-.45-.45-.65-.68-9-3.38-16.76-8.69-24-14.9a5.56,5.56,0,0,0-.58-.41c-3.13-2.94-6.51-5.58-9.78-8.35A32.88,32.88,0,0,1,108.39,43.1c-.9-4-.21-8.07.89-12,.41-1.48,1.7-2,3-2.44l.11-.56ZM51,116.39c.92-4.75,4-8.24,6.8-11.93a25.24,25.24,0,0,1,12.64-9.19c1.83-.59,3.69-1.08,5.54-1.62.05.17.1.33.16.5-10.12,6-20,12.32-25.26,23.62C50.67,117.28,50.93,116.84,51,116.39Zm1.34.06A42.55,42.55,0,0,1,68.64,99.9c3.85-1.37,7.66-2.85,11.6-4a18.68,18.68,0,0,1,17.54,3.51c.57.44-.09.3-.16.43-8.35-4.27-16.66-3.79-25,0a55.12,55.12,0,0,0-7.83,4.87c-5.53,3.75-10,8.37-12.49,14.75a7,7,0,0,1-1,2.37A8.83,8.83,0,0,1,52.35,116.45ZM82,106.63a22.75,22.75,0,0,1,13.78.23c4.5,1.39,9,2.69,13.56,4,.44.13.88.43,1.38.18l1.36.45c-.35.77-1,.56-1.63.51a57,57,0,0,1-10.92-1.87A61.28,61.28,0,0,0,83.72,108a18.51,18.51,0,0,0-5.84.84c-6.45,2-13,3.85-18.54,8.06a5.06,5.06,0,0,1-1.94,1.31l.15-.2,0,0a5.54,5.54,0,0,1,1.78-1.76l1.36-1.2C67.4,111.18,74.71,108.92,82,106.63Zm-5.11,1.1h0c.32-.74.32-.74,2-1.28l1.84-1C85,104,89.34,102.88,94,103.58a39.2,39.2,0,0,1,8.38,2.27l.05,0,5.19,2.83.14.11,1.7,1.37c-2.91-.84-5.43-1.59-8-2.29-3-.83-5.9-1.7-8.89-2.41-4.67-1.11-9.14,0-13.56,1.42h0Zm33.73,2.21-.24-.12c-3-1.82-5.85-3.78-9.17-4.95a25.05,25.05,0,0,0-16.11-1.31,20.09,20.09,0,0,0-4.49,1.56,66.08,66.08,0,0,0-6.58,3c-4,1.67-8,3.26-11.81,5.29a3.82,3.82,0,0,0-1.64,1.13,16.42,16.42,0,0,0-4.53,4.22l-2,2.39c-.15-.69.29-1.19.57-1.73A26,26,0,0,1,63,110.07c5.8-4.06,12.61-5.51,19.29-7.39,6.42-1.81,12.45-.89,18.53,1.22a81.3,81.3,0,0,1,10.48,4.8h0a31,31,0,0,0,5,2.55C114.29,111.51,112.52,110.49,110.63,109.94Zm-57.94,12a2,2,0,0,1-.92,1.16c2-6.46,5.07-11.77,10.71-15.3,4.76-1.56,9.24-3.79,13.85-5.7a25.91,25.91,0,0,1,11.85-1.71c.81,0,1.66-.23,2.28.54-.63-.13-1.29.18-1.92-.09a93.5,93.5,0,0,0-15.82,3.9C63.67,107.63,56.5,112.83,52.69,121.91Zm40.64-20.73c-1.25-1.08-2.82-1.12-4.33-1.31-6.57-.82-12.54,1.17-18.3,4a64.5,64.5,0,0,1-6.39,2.63c-.3.11-.63.49-1,0,1.7-1.18,3.38-2.38,5.11-3.53,5.47-3.62,11.42-5.76,18.08-5.44,7.23.34,13.28,3.94,19.45,7.19a4.29,4.29,0,0,1,.66.58A65.72,65.72,0,0,0,93.33,101.18ZM55.85,120.3c2.38-1.71,4.52-3.79,7.13-5.13,5.88-3,12-5.62,18.6-6.43,5.74-.71,11.42.35,17,1.75a53,53,0,0,0,13.65,2c.21,0,.51-.09.54.28a10.67,10.67,0,0,1-3.94.81A36.65,36.65,0,0,1,98.6,112c-4-1-8.07-2.21-12.36-1.81A63.21,63.21,0,0,0,67.4,115c-4.06,1.72-7.91,3.76-11,7a51.2,51.2,0,0,0-4.24,5.47A10.63,10.63,0,0,1,55.85,120.3Zm-3.1,13A7.71,7.71,0,0,1,54,126.11,25.63,25.63,0,0,1,63,117.88a62.6,62.6,0,0,1,16.64-6c5.53-1.12,11-1.5,16.55.2,4.42,1.36,8.92,2.6,13.71,2.35-.52,1.12-1.56.75-2.28,1.1a22.67,22.67,0,0,1-10.12-1.88,22.48,22.48,0,0,0-11.88-1.5,66.08,66.08,0,0,0-18.29,5.13c-7.18,3.09-12.18,8.11-14,15.92C53.18,133.52,53,133.45,52.75,133.33Zm5.32-3.27c-.75,1.11-1.23,2.44-2.38,3.26a15,15,0,0,1,3-5,29.68,29.68,0,0,1,8.2-6.73c9.19-5.41,18.88-8.59,29.73-6.26a75.26,75.26,0,0,0,8.88,1.66c-.44.64-1.08.52-1.48.85-4.72.51-9.43,0-14.13-.32-12.56-.83-23.15,3.28-31.75,12.48h0A.09.09,0,0,1,58.07,130.06Zm-3.63,7.28a5.47,5.47,0,0,1-.78-2.76,20,20,0,0,1,9.91-14.71,57.46,57.46,0,0,1,23.84-7.37,22.44,22.44,0,0,1,10.83,2c.39.17.8.35,0,.55a31.26,31.26,0,0,0-10.71-1.16A48.42,48.42,0,0,0,61,125a17.17,17.17,0,0,0-5.82,8.08A33.57,33.57,0,0,0,54.44,137.34ZM55.55,136c2.32-6.85,7.91-10.41,13.72-13.8,5.21-3,10.94-3.85,16.81-4.12a3.91,3.91,0,0,1,2,.07l12.52.54h0c.8-.09,1.6-.45,2.39,0a4.18,4.18,0,0,1-2.26.36,10.57,10.57,0,0,1-3.27.37c-3,0-6-.58-9-.78-1.84.22-3.69.42-5.53.65-5.88.74-11,3.5-15.88,6.54a19.86,19.86,0,0,0-9.56,15.34c0,.34,0,.63-.42.82A8.76,8.76,0,0,1,55.55,136Zm45.62-15.61a18.14,18.14,0,0,1-10,1.36c-2.59-.43-5.18-.83-7.78-1.25-.93.1-1.88.58-2.78-.14l2.44-.39a32.71,32.71,0,0,1,8.44-.35c3.43.37,6.84.84,10.26,0C102.18,120.28,101.43,120.23,101.17,120.34ZM59.29,147.88l-.19.22a4.16,4.16,0,0,1-1.1-3.16c-.21-7.23,2.06-13.41,8.18-17.66a44.42,44.42,0,0,1,11.12-5.74,29.71,29.71,0,0,1,12.45.5,20.63,20.63,0,0,0,5.14.45l2.86-.45.11.39a6.49,6.49,0,0,1-2.6.55c-2.57.68-5.17.37-7.76.25a36.11,36.11,0,0,0-9,.65c-10.53,2.17-17.83,12.32-19.09,20.83A15.29,15.29,0,0,0,59.29,147.88Zm.61-1.09a24.63,24.63,0,0,1,25-22.89c.58,0,1.15,0,1.73,0,3.9.19,7.79.38,11.56-.94l.93-.43c.43.3.89-.73,1.31,0-.73.23-1.31.82-2.11.91-1.59.34-3,1.23-4.62,1.51-2.33.41-4.64.88-7,1.29-4.57.82-9.22,1.61-13.12,4.23-6,4-11.09,9-13.28,16.19C60.21,147.21,60.11,147.06,59.9,146.79Zm2.43,4.81c-.54.1-.64-.63-1-.92v0c-.37-2-.61-4.1.4-6A32.52,32.52,0,0,1,76,130c4.5-2.27,9.5-2.73,14.33-3.78.7-.15,1.42-.58,1.91-.37l-2.28.76-.27.09c-2.32.77-4.71,1.57-7.12,2.3a19.63,19.63,0,0,0-7,3.29A36.68,36.68,0,0,0,63,150.41C62.88,150.86,62.81,151.51,62.33,151.6Zm3.15,2.32a2.5,2.5,0,0,1-1.87-3.28,34.71,34.71,0,0,1,6.87-12.42c3.74-4.42,8-7.85,13.89-9,3.44-.67,6.8-1.77,10.19-2.68,2.52-1.16,5.18-2.05,7.44-3.71.2-.12.51-.18.59-.35.66-1.48,2.16-1.93,3.34-2.75.57-.4.15.2.21.33a27.12,27.12,0,0,1-7.35,5.49L94.6,127.2c-2.76,1.44-5.83,2-8.72,3C81,132,76.53,134.35,73.73,139a68,68,0,0,0-4.77,9.4c-.63,1.56-1.31,3.1-2,4.64A1.21,1.21,0,0,1,65.48,153.92Zm1.93,1.33c-.65-.5-.69-.78-.21-1.46a12.83,12.83,0,0,0,1.34-2.7,80,80,0,0,1,4.32-9.3c1.83-3.25,3.88-6.34,7.27-8.21A39.26,39.26,0,0,1,88.92,130a40.9,40.9,0,0,0,6.22-2.25c.87-.4,1.71-1.09,2.78-.94-.85,1.22-2.46,1.38-3.41,2.47-2.05,1.06-4.1,2.11-6.13,3.2A32.12,32.12,0,0,0,79,140.15a47.68,47.68,0,0,0-8.06,14.09C69.91,156.85,69.53,156.87,67.41,155.25ZM88.58,136.9c-6.73,5.37-11.93,11.83-14.32,20.29-.61,2.11-1.07,2.18-2.83.73-.26-.21-.52-.42-.77-.65s-.43-.46-.18-.85c1.72-2.75,2.48-5.93,4.09-8.75,3.92-6.85,9-12.45,16.34-15.74a12.77,12.77,0,0,0,3.56-2.09l1-.53c.43.4-.14.64-.16,1l-.3.41A65.87,65.87,0,0,1,88.58,136.9Zm-8.26,25.43c-.2-.24-.07-.44.1-.62A7.24,7.24,0,0,0,82,157.14a30.08,30.08,0,0,1,7.12-16.76c1.52-1.83,2.93-3.75,4.39-5.63l.15.12c-.53,1-1,1.94-1.58,2.89-3.22,5.58-6.12,11.25-6.51,17.88a12.4,12.4,0,0,1-1.84,5.14,3.57,3.57,0,0,1-2.22,1.94A1.09,1.09,0,0,1,80.32,162.33Zm5.05,2.44a0,0,0,0,0,0,0l0,0h0c-.06-.3.1-.71-.39-.75-.75-.07-1.72.19-2-.68s.78-1.15,1.16-1.76c.75-1.2,1.1-2.59,2-4.21.2,2,.46,3.62.5,5.22C86.61,163.44,86.53,164.47,85.37,164.77Zm1.22,0c.93-1.55.73-3.17.47-4.8a27.37,27.37,0,0,1,3.38-17.82c1.65-3,3.33-6.08,5-9.11l.09,0v-.11a2.44,2.44,0,0,0,.27-.29,25,25,0,0,0,1.58-2.45c2.68-3.36,6.22-5.81,9.23-8.83-.24,1.13-1.14,1.78-1.66,2.69-.63.59-1.22,1.23-1.88,1.77-2.65,2.19-4.22,5.31-6.71,7.67-1.27,1.2-1.86,3.12-2.77,4.71-3,5.32-4.47,10.93-3.24,17.06a22.58,22.58,0,0,1,.67,6C90.76,164.67,89.74,164.64,86.59,164.74Zm3.54,0a4.05,4.05,0,0,0,1.57-3.29,15.47,15.47,0,0,0-.26-4,48.23,48.23,0,0,1-.81-6.44,18,18,0,0,1,3-10.74c-.1.7-.2,1.39-.31,2.08a26.69,26.69,0,0,0,.25,11.39c.58,2.66,1,5.38.25,8.1C93.07,163.23,92.63,164.92,90.13,164.78ZM93,166.15c-.56-.35-1-.74-.25-1.43a5.41,5.41,0,0,0,1.68-3.27c.86-2.18.4-4.42-.06-6.52a33.44,33.44,0,0,1-.48-13c.71-2.24,1-4.65,2.5-6.8a8.27,8.27,0,0,1-.22,1.14,37.91,37.91,0,0,0-.72,20.21,29.61,29.61,0,0,1,.83,8A2.2,2.2,0,0,1,93,166.15Zm8.27-3.27A5.24,5.24,0,0,1,98,165.45c-.48.17-1,.34-1.23-.45a19,19,0,0,0-.39-7c-.86-4.6-1.61-9.19-1.14-13.91.67-6.91,3-13,8.28-17.74.34-.3.55-.85,1.16-.72l-.32.69h0c-.17.29-.35.57-.5.87a49.64,49.64,0,0,0-4.9,19C98.54,151.87,98.52,157.6,101.25,162.88Zm3.47-1.46c.15.58.69,1.3-.26,1.75a1.74,1.74,0,0,1-2.22-.44,8.13,8.13,0,0,1-1.82-3.89,46,46,0,0,1-.49-15.53,54.92,54.92,0,0,1,7-20.54,2.69,2.69,0,0,0,.6-1c1.83-3.19,3.89-6.17,7.25-8a10.89,10.89,0,0,1,2.76-1.3c-.6,1.11-1.83,1.36-2.77,2a25.37,25.37,0,0,0-2,1.82,39.61,39.61,0,0,0-10.81,28C101.89,150.2,103.34,155.8,104.72,161.42Zm2.39-28.24a24.68,24.68,0,0,0,.43,10.44c.8,3.38,2.15,6.58,3,9.93a9.9,9.9,0,0,1-.63,7.83,3.43,3.43,0,0,1-3.65,1.77,8.06,8.06,0,0,0,.55-6.11c-.81-3.22-2-6.36-2.35-9.67-.52-4.49.63-8.79,1.74-13.08a5.94,5.94,0,0,1,1.38-3.27Zm8.34-17a48.21,48.21,0,0,0-11.6,26.28,21.38,21.38,0,0,0,.78,8.85c.62,2.13,1.22,4.26,1.72,6.42a6.27,6.27,0,0,1-.48,4.8,65.1,65.1,0,0,1-2-7.91c-2.91-12.44-1-24,6.41-34.52a19.64,19.64,0,0,1,7.59-6.64C117.25,114.79,116.2,115.37,115.45,116.23Zm.36-6.7L110,106.35l-.25-.16-2.6-1.8c-.33-.66-1-.88-1.58-1.18a83.86,83.86,0,0,1-9.17-5.45c-5.08-3.5-10.59-4-16.39-2.35-2.88.8-5.66,1.88-8.45,2.92-.36.14-.71.54-1.16.2,1.42-.91,2.82-1.85,4.26-2.72a19.26,19.26,0,0,1,10.26-3,27.91,27.91,0,0,1,12.4,2.93c3.18,2.07,6.38,4.13,9.37,6.5a39.61,39.61,0,0,0,10.24,6.18c1.93.74,3.91,1.35,6.14,2.12C120.29,111.26,118.08,110.2,115.81,109.53Zm104.47-36.8a45.62,45.62,0,0,0-9.3-3.4c-.33-.08-.68-.13-.72-.58a22.85,22.85,0,0,1,7.29,1.32c6.39,2,11.32,6.11,15.79,11a128.2,128.2,0,0,0,11.31,11.29,21.43,21.43,0,0,0,1.78,1.21h0l.77.54a3.42,3.42,0,0,0,.4.26c3.33,2.25,6.84,4,11.11,3.68a37.81,37.81,0,0,0,9.22-1.39A23.46,23.46,0,0,0,274,94.69c.4.24.75-.41,1.18-.08a3.87,3.87,0,0,1-1.59,1.22c-2,1-4.11,1.9-6.09,3a23.45,23.45,0,0,1-12.83,2.72c-5.05-.25-9.43-1.73-12.62-5.93-2.5-3.3-5.09-6.54-7.63-9.81a58.11,58.11,0,0,0-8.24-9.07A19.23,19.23,0,0,0,220.28,72.73ZM209.8,67.81a5.18,5.18,0,0,1,1.19-.29,1,1,0,0,0,.15-.2,2.73,2.73,0,0,0,1.55,0,27.23,27.23,0,0,1,15.08,2.81c2.16,1,4.32,2.08,6.48,3.12,4.24,2.35,7.38,6,10.84,9.24,5.62,5.28,12.17,8.81,19.94,9.6A22.71,22.71,0,0,0,280,88.62a7.68,7.68,0,0,1,.95-.48h0l.17.18a14.87,14.87,0,0,1-8.32,5.52,37.25,37.25,0,0,1-11,.62c-7.66-.51-14.1-3.3-19.16-9.27a77.14,77.14,0,0,0-13.47-12.37c-2.57-1.88-5.19-3.7-8.42-4.31a18.62,18.62,0,0,0-7-.51l-2.39,0c-.42.31-.94.07-1.38.23C209.85,68.08,209.35,68,209.8,67.81Zm-.22-.74a5.57,5.57,0,0,1,2-.59c7.2-1.88,14.35-1.14,21.33.87,4.91,1.42,8.65,5,12.53,8.16l.07.06c2.21,2.29,4.38,4.62,6.67,6.83a27.93,27.93,0,0,0,5.41,4.28c7.47,4.33,15.08,3.51,22.74.57a1.87,1.87,0,0,1-1.05,1.12A23.2,23.2,0,0,1,262.09,91c-7.27-1.56-13.23-5.42-18.3-10.75a36.09,36.09,0,0,0-11.33-8.58c-1.21-.58-2.43-1.15-3.62-1.75a28.21,28.21,0,0,0-17.17-3l-.54.38C210.66,66.84,210,67.56,209.58,67.07ZM274,94.68c-1.47,0-2.68,1-4.16.95l-2,.65c-2.69.4-5.38.83-8.09,1.1a15.41,15.41,0,0,1-9.1-2c-.63-.34-1.28-.65-1.92-1-5.73-3.62-10-8.79-14.57-13.66s-9.66-8.93-16-11.27a6.86,6.86,0,0,0-3-.63c.72-.71,1.57-.23,2.35-.2,1.16,0,2.32.28,3.48.44a19.48,19.48,0,0,1,5.07,2.4,81.47,81.47,0,0,1,16.11,14.34A25.57,25.57,0,0,0,258,94.69a45,45,0,0,0,11.47.45c1.41-.28,2.82-.56,4.22-.86C274.11,94.18,274.11,94.36,274,94.68Zm-41.93-8.81c-1.24-1.91-2.61-3.74-3.93-5.61a16.39,16.39,0,0,0-2.33-2.38l-2.07-1.68-1.52-1.41a13.19,13.19,0,0,1,3,1.73l1.55,1.54a19.54,19.54,0,0,1,4,4.27c3.59,4.46,7,9,10.63,13.51,2,2.47,4.23,4.64,7.46,5.42,6.41,1.55,12.68,1.55,18.68-1.69,2-1.06,4-1.91,6.33-3a6.07,6.07,0,0,1-.57,1c-3.9,3.91-8.33,7.2-13.75,8.34-8.26,1.74-15-1.17-19.8-8.16C237,93.9,234.62,89.82,232.05,85.87Zm8.21,13.79a2.38,2.38,0,0,1,.55.43,16.62,16.62,0,0,0,10.11,6.42c9,2.12,15.79-2.33,22.18-7.77A4.46,4.46,0,0,0,274,97.6a13.15,13.15,0,0,1,2.36-2.9c-.06.29-.11.57-.17.85-2.23,3.37-4.22,6.9-6.86,10-.33.27-.69.51-1,.8a19.46,19.46,0,0,1-13.66,5.23,12.29,12.29,0,0,1-8.46-2.74c-2.72-2.39-4.37-5.56-6.06-8.69C240,100,240,99.75,240.26,99.66Zm36.3-4.54c-.05.14-.21.25-.33.37Zm-34.65,9.38c1.73,2.82,3.59,5.52,6.94,6.62,6.59,2.17,12.63.95,18.2-3a3.21,3.21,0,0,1,1.64-1.09c-.74.76-1.09,1.51-1.81,2h0l-1.5,1.47c-2.29,1.17-4.46,2.59-7,3.31a14.25,14.25,0,0,1-11.89-1.37,18,18,0,0,1-4.43-6.27C241.88,105.64,241.27,105.1,241.91,104.5Zm13.24,13.17a24.4,24.4,0,0,1-3.39-.54c-3.11-.84-5.3-2.89-7.24-5.29a3.4,3.4,0,0,1-1-1.79,5.53,5.53,0,0,1,1.64,1.83c1,.65,1.83,1.7,3.1,2h0a15.91,15.91,0,0,0,11.62-.1,21.56,21.56,0,0,0,3.85-1.91c.27-.16.53-.59.93-.19a24.19,24.19,0,0,1-6.15,5.21Zm17.76,16.48a19.79,19.79,0,0,1-4.84-8.25,12.18,12.18,0,0,0-3.57-5.41,4.8,4.8,0,0,1-2.05-1.59,6.49,6.49,0,0,1,3,1.74,23,23,0,0,1,6.44,7.25c2.11,3.48,4.11,7.07,7.76,9.32A11.89,11.89,0,0,1,272.91,134.15Zm9.17,3.28c-3.59-1.38-6-4.06-7.92-7.29-2.8-4.78-5.9-9.27-11.1-11.84a2.16,2.16,0,0,1,1.61.12,25.07,25.07,0,0,1,10.81,9.48,27.1,27.1,0,0,0,5.95,7,33.11,33.11,0,0,0,5.15,3.2A9.06,9.06,0,0,1,282.08,137.43Zm1.9-1.49c-3.5-2.25-6-5.41-8.2-8.8a21.76,21.76,0,0,0-7.95-7.59c-.17-.08-.35-.17-.2-.45a4.65,4.65,0,0,1,2.08.28l4.68,3.53a86.34,86.34,0,0,1,6.75,6.91,20.58,20.58,0,0,0,9.12,6.38c1.26.39,2.57.65,4,1A11,11,0,0,1,284,135.94Zm-7.72-14h0a44.35,44.35,0,0,1,10.25,8.61A15.47,15.47,0,0,0,297,135.78c.46,0,1.21-.31,1.39.55a14.23,14.23,0,0,1-5.44-.08c-4.87-.95-8.51-3.82-11.71-7.4a42.31,42.31,0,0,0-5.83-5.76c-1-1.27-2.59-1.89-3.79-3.06.82-.4,1.27.3,1.87.36l.45.18a.73.73,0,0,1-.25-.08ZM301.6,72.61c-4.37,11.86-5.79,24.56-10.62,36.25l0,0c-.37.78-.78,1.55-1.11,2.34a12.34,12.34,0,0,1-7.24,7,25.73,25.73,0,0,1-7.07,1.3l-.26-.14c-.19-.14-.1-.26.29-.4,1.46-.5,2.91-1,4.36-1.53a13.3,13.3,0,0,0,8.13-7.7,70.27,70.27,0,0,0,4.1-11.53h0a38.62,38.62,0,0,0,1.22-7.69c.41-6.43,3.25-11.81,6.95-16.86C300.66,73.28,301,72.69,301.6,72.61Zm-2.37,1a25.51,25.51,0,0,1-1.65,2.83,29.12,29.12,0,0,0-4.79,13.32,91.15,91.15,0,0,1-1.3,9.15h0c-1.06,2.89-2.16,5.76-3.17,8.67a14.69,14.69,0,0,1-10.39,10l-1.71.7-.12-.39,1.71-.74a24,24,0,0,0,3.91-3.12c2-2,3.79-4,4.59-6.8a18.88,18.88,0,0,0,2.12-6,92.31,92.31,0,0,0,1.09-11.36,19.88,19.88,0,0,1,4-11A19.15,19.15,0,0,1,299.23,73.65Zm-5.89,4.25a8.44,8.44,0,0,1-.42.77,20.92,20.92,0,0,0-4.08,11.66c-.39,6.07-.4,12.26-3.4,17.85-3.45,5.65-7.78,10-14.92,10.32-3.65-.36-7.26-1.19-10.95-1.15-.23-.57.33-.57.58-.75a40.46,40.46,0,0,0,9.11-9.67,7.08,7.08,0,0,0,1.59-2c3-4.14,5.58-8.52,8.7-12.56,1.67-2.16,2.82-4.7,4.9-6.58s4.15-4,6.29-5.92A6.42,6.42,0,0,1,293.34,77.9ZM241.86,49.82a26.92,26.92,0,0,1,15.9-.5C264.07,51,269.22,54.14,273,59.48a76.75,76.75,0,0,1,5.2,8.78l1.17,2-.44.14h0a9.18,9.18,0,0,1-1.23-2c-2.32-3.28-4.39-6.74-7.34-9.54-3.5-3.31-7.28-6.14-12.05-7.36a21,21,0,0,0-9-.88c-1.09.1-2.17.26-3.25.39-2.89.07-5.76.68-8.69.41C238.83,50.79,240.35,50.33,241.86,49.82Zm38.47,23.59s-.07.15-.14.3a36.55,36.55,0,0,1-8-7.48,69.4,69.4,0,0,0-8.07-8.64c-4.65-4-10.41-4.93-16.18-5.85-.51-.66.13-.45.38-.48a25.11,25.11,0,0,1,9.14.5,8,8,0,0,0,1,.17,29.24,29.24,0,0,1,13.68,9.78C275.11,65.43,277.62,69.5,280.33,73.41ZM242.68,52c1.42-.13,2.84.18,4.24-.13h0a15,15,0,0,0,3.9.89c4.05.85,8.1,1.58,11.54,4.18a44.87,44.87,0,0,1,7.4,7.24c3.48,4.18,6.94,8.35,11.88,10.94.22.12.55.23.45.66L281,75.7h0c-1.74-.8-3.47-1.64-5.23-2.4a22.38,22.38,0,0,1-8.53-6.48,52.4,52.4,0,0,0-6.12-6.69c-.39-.34-.84-.62-1.27-.93l-.06,0a30.48,30.48,0,0,0-15-5.94c-2.6-.37-5.23-.12-7.85-.33A28.91,28.91,0,0,1,242.68,52Zm-11,2.21c9.39-1.47,18.44-.84,26.69,4.49,3.39,2.36,6,5.52,8.54,8.69,3.8,4.69,9,7,14.52,8.83l1.15.31.69.52h0v0a27.82,27.82,0,0,1-9.39-2.33,6.56,6.56,0,0,0-1.86-.71,31.33,31.33,0,0,1-9-7.17c-6.55-7.2-14.92-10.44-24.4-11.32a9.71,9.71,0,0,0-2.84-.26c-2.05-.3-4.16,0-6.2-.6A10.33,10.33,0,0,1,231.65,54.24Zm-13.73,4.15a6.33,6.33,0,0,1,1.41-.68,63.49,63.49,0,0,1,7.77-2.17l9.05.31,2.87.29a40.43,40.43,0,0,1,17.83,6.11c2.67,1.7,4.7,4.08,6.9,6.28,2.74,2.73,5.68,5.19,9.39,6.52,4.09,1.88,8.32,3,12.89,2.5l.6-.06,1.32.09c.09.15.68.23.08.49-.29.13-.6.23-.9.34a33.77,33.77,0,0,1-25.43-5,57.92,57.92,0,0,1-6.87-6c-7.05-6.38-15-10.85-24.84-10.71a35.59,35.59,0,0,0-9.38,1.43,7.55,7.55,0,0,0-2.61.57,2,2,0,0,1-1.84.39Zm69.49,20.88c-4.28,1.86-8.64,3.28-13.41,2.37l-4.06-.77h0c-2.36-.81-4.82-1.36-6.92-2.82-5.71-3.94-11.46-7.82-17-12.05-3.21-2.46-6.55-4.77-10.55-5.86a27.45,27.45,0,0,0-8.46-2,3.88,3.88,0,0,1-2.34-.3l2-.24c8-1.21,15.05,1.42,21.74,5.52,3.58,2.2,6.28,5.37,9.43,8,8.58,7.27,18.36,10,29.46,7.74Zm-74.48-19,.14.46a17.45,17.45,0,0,1-3.76,2.67A12.91,12.91,0,0,1,212.93,60.3Zm-2.2,3.39a28.45,28.45,0,0,1,10.15-4.59c5.19-1.05,10.14,0,15,1.64,6.29,2.31,11,7,16.4,10.7l10,7a20.73,20.73,0,0,0,8.05,3.06,23,23,0,0,0,16.08-1c1.19-.53,2.31-1.35,3.7-1.34a34.79,34.79,0,0,1-11,5.86,18.84,18.84,0,0,1-15-1.27,52.45,52.45,0,0,1-10.21-7c-2.84-2.44-5.4-5.22-8.6-7.23-.45-.35-.89-.72-1.34-1.06C239.6,65,234.51,63.27,229.25,62a26.22,26.22,0,0,0-18.42,2.1,4.86,4.86,0,0,1-2,1A5.32,5.32,0,0,1,210.73,63.69Zm-4.66,3.84,1.69-.84c7.55-5,15.59-6,24.26-3.29A44.14,44.14,0,0,1,243.84,69h0a91.15,91.15,0,0,1,7.86,6.57,62.16,62.16,0,0,0,10.5,7.87c7.3,4.26,14.55,4.09,21.89.24l2.32-1.2a15.68,15.68,0,0,1-4,3.28,35.25,35.25,0,0,1-8.26,2.84c-8.81,1.85-16.1-.78-22.2-7.21a64.79,64.79,0,0,0-5.8-5.8.32.32,0,0,1-.19,0h.19c-4.76-4.29-9.6-8.46-16.22-9.61-6.09-1.06-12.19-1.74-18.3-.12-.74.19-1.44.51-2.16.77h0a1.94,1.94,0,0,0-1.15.47l-.42.09a3.43,3.43,0,0,1-1.73.82C205.53,68.1,206.06,67.7,206.07,67.53Zm2.66,1.78,1.4.34a8.44,8.44,0,0,1,3.59,1.19L214,71l.18.13-.19,0h0l-3.24-.81a16.87,16.87,0,0,0-7.82.66c-.48.14-1,.59-1.55.2A15.45,15.45,0,0,1,208.73,69.31Zm-56.16,33.84a54.72,54.72,0,0,1,13.73-6c5-1.31,10-2,14.64,1.14a.29.29,0,0,0,.15.21c.1.14.22.31.4.54-.53-.11-.91-.17-1.27-.28a17.66,17.66,0,0,0-13.84,1.09c-5.24,2.67-10.56,5.13-16.52,5.73-.42,0-1.13.7-1.37-.31A25,25,0,0,0,152.57,103.15Zm-25,9.6,3.81,2.07a10.61,10.61,0,0,1,4,4.08c2.35,4,4.75,8,7.13,12a10.81,10.81,0,0,0,9.24,5.77l-.11-.15a.33.33,0,0,1,.11.15c2.79.42,5.43-.33,8.08-1,.5-.13,1-.49,1.53-.29-1.68,1.1-3.1,2.57-5,3.35A14.82,14.82,0,0,1,139,133.56c-2.2-3.17-3.5-6.75-5.17-10.17-1.77-3.62-3.3-7.42-6.38-10.23Zm28.23,27.94a12.43,12.43,0,0,1-3,1.9c-10.72,2.87-18.75-4-18.24-15.82a5.46,5.46,0,0,1,.49.87,24.6,24.6,0,0,0,4.19,7.37c3.93,4.92,11.8,6.9,17.3,4.37C156.9,140.14,156.16,140.32,155.82,140.69Zm-7.72,7.57h0c-.57-.11-1.14.26-1.71,0A21.29,21.29,0,0,1,137,148a9.56,9.56,0,0,1-6.91-5.18,23.06,23.06,0,0,1-2.73-13.37,40.64,40.64,0,0,0-.74-14.2,2,2,0,0,1-.42-1.31,1.24,1.24,0,0,1,.88,1c1.61,4.5,3.59,8.89,3.93,13.76.11,1.64.23,3.27.41,4.89.47,4.1,1.43,8,5,10.65,2.88,2.16,6,3.63,9.67,3.54l1-.16c1.21.2,2.4-.3,3.81-.23C149.92,148.11,148.94,147.93,148.1,148.26ZM162.54,136a1.37,1.37,0,0,1-.27.27c-1.94,2.25-3.9,4.49-5.82,6.77a10.8,10.8,0,0,1-7.69,4c-.62.05-1.23.15-1.84.22-.24,0-.48,0-.72,0-7.4-.15-12.54-4.56-13.79-11.84a14.48,14.48,0,0,1-.33-2.43c0-5.9-1.72-11.4-3.7-16.86a1.51,1.51,0,0,1-.49-1.47,2.85,2.85,0,0,1,1.13,1.5,36.19,36.19,0,0,1,4.38,10.49c.43,2.12.89,4.25,1.15,6.39,1.09,9,12.36,13.08,18.4,10.11a8.61,8.61,0,0,0,4.91-3.68l4.44-3.8a3.18,3.18,0,0,1,1.32-1.25C163.79,135.26,163.06,135.53,162.54,136Zm2.86-3a16.13,16.13,0,0,0-3.47,1.42,35.58,35.58,0,0,1-7.56,1.73c-1,.07-2,0-3,0a10.35,10.35,0,0,1-8.19-5.69c-2.14-4.05-4.79-7.78-7-11.78a9,9,0,0,0-2.91-3.61l-4.59-2.44-.82-.59c.87-.22,1.51.45,2.29.4a20.35,20.35,0,0,1,4.58,3.06,23,23,0,0,1,4.78,5.12c2,2.77,3.58,5.92,6.21,8.24h0c2.2,2.19,4.95,2.83,7.93,2.77a55.6,55.6,0,0,0,8-.91,28.41,28.41,0,0,1,10.91-.11l1.42.77A19,19,0,0,0,165.4,133Zm-24.94-12.54a18.8,18.8,0,0,1,4.67,3.68,17,17,0,0,0,9.65,4.81,41.43,41.43,0,0,0,9.51,0c2.05-.23,4.11-.66,6.13.2l.66.59s0,0,0,.05a31.91,31.91,0,0,0-7.65.13c-2.37.36-4.76.65-7.14,1a13.55,13.55,0,0,1-9.06-1.51C144.17,127,142.52,123.56,140.46,120.45Zm39.47,10.11c-.29.49-1,.5-1.59.54a8.18,8.18,0,0,1-4.43-1.07c-3-1.62-6.07-2.63-9.54-1.81a27.07,27.07,0,0,1-5.9.37c-4.86,0-9.22-1.28-12.77-4.76-.53-.52-1.32-.83-1.58-1.74l3.51,1.47.06,0A16.85,16.85,0,0,0,155,125c3.95-.07,7.9-.18,11.85-.2a21.8,21.8,0,0,1,6.71.92,14.3,14.3,0,0,1,5.67,3.61C179.36,129.79,180.26,130,179.93,130.56Zm2.3-2.59c.09.85-.58,1.3-1.22,1.63-.45.23-.53-.27-.63-.56-1.85-5.31-6.21-7.3-11.2-8.46-3.63-.85-7.27-.5-10.91-.1-3.38.61-6.74,1.13-10.1-.12-.19-.07-.55-.2-.75.12l0,0h0a5.66,5.66,0,0,0,3.07,1.07,24.79,24.79,0,0,0,6.88-.29c4.15-.6,8.31-1.05,12.44.09,3.92,1.09,7.56,2.59,9.41,6.63-.31.24-.55,0-.76-.16-2.88-2.6-6.4-3.36-10.13-3.59a84.14,84.14,0,0,0-9.66.06c-4.18.21-8.27,0-12.15-1.74h0c-4.11-1.68-7.53-4.36-11-7.62a37.54,37.54,0,0,1,8.19,3.86,4.89,4.89,0,0,0,2.39,1.32c.28.17.54.5.89.12a1,1,0,0,0,.23.12c.1-.62-.63-.51-.82-.93l.79,0h0c.36.12.72.25,1.09.35a22.47,22.47,0,0,0,9.69.16,61,61,0,0,1,9.55-2,20.28,20.28,0,0,1,6.26.54h0a14.27,14.27,0,0,1,7.56,6.81A8.15,8.15,0,0,1,182.23,128Zm.64-1.84c0,.09-.15.2-.26.35-1.91-4.23-4.7-7.44-9.33-8.64-3.43-1.21-6.85-.58-10.25.13-1.89.4-3.74.94-5.62,1.37a21.26,21.26,0,0,1-10.71-.53,10.41,10.41,0,0,0-2.56-.79c.08-.89.72-.34,1-.33,2,.1,3.9.38,5.85.39a27.61,27.61,0,0,0,10.57-2.35,23,23,0,0,0,3.91-1c6-1.58,10.95.16,15.07,4.72C182.3,121.41,182.48,123.79,182.87,126.13Zm-30.29-8.58c0-.15-.05-.29-.08-.44l1.52-.26.55-.34a15.11,15.11,0,0,0,1.78-.5c2.82-1.2,5.65-2.38,8.43-3.65a16.23,16.23,0,0,1,7-1.39c.14.75-.54.53-.84.64a19.24,19.24,0,0,0-4.08,1.64,48.83,48.83,0,0,0-5.36,2,46.18,46.18,0,0,1-7.3,2A2.51,2.51,0,0,1,152.58,117.55Zm30.33,4.23a15.91,15.91,0,0,0-6.64-6.66,13.6,13.6,0,0,0-7.89-1.58c.52-1.05,1.66-.89,2.53-1.26a17.47,17.47,0,0,1,2-.62C177.58,110.65,184.13,115.79,182.91,121.78Zm1.48-4.88c-.49,1-.81.9-1.28,0-2.42-4.56-6.46-6.32-11.38-6.57a3.49,3.49,0,0,1-2-.07c.66-.32,1.09-.6,1.64-.49,4.34-1.12,8.35-.69,11.95,2.27C185.12,113.56,185.47,114.79,184.39,116.9Zm1-4.37c-.52.38-.72-.28-1-.52-3.3-2.7-6.91-4-11.26-3.17-6.65,1.33-12.64,4.3-18.68,7.19-4,1.69-8.12,1.25-12.25.56a62.36,62.36,0,0,1-10.27-4,16.65,16.65,0,0,0-2.44-.82c-.29-.17-.62-.29-.61-.71l5.27.58c2,.49,4,.92,6,1.47a28.8,28.8,0,0,0,20.45-1.62c2.36-1.09,4.67-2.31,7.09-3.25,5.06-1.95,10.13-2.52,15,.64,1,.66,2.25,1.11,2.79,2.34C185.66,111.63,185.86,112.19,185.38,112.53Zm-48.82-1.23,2.23.18a.7.7,0,0,1,.26-.08c5.59,1,11.09,1,16.49-1.08,3.76-1.47,7.49-3,11.34-4.31a20.72,20.72,0,0,1,10.52-1,8.69,8.69,0,0,1,4.61,2.37,2.32,2.32,0,0,1-.45,0c-.27-.1-.54-.21-.8-.33a14,14,0,0,0-8.33-.91c-4.1.57-7.66,2.5-11.3,4.25a28,28,0,0,1-16.39,2.86c-1.79-.26-3.54-.73-5.3-1.11A4.53,4.53,0,0,1,136.56,111.3Zm49.16-3.07c-.49,1.26-1.16.89-1.77.15-3.29-4-7.65-4.71-12.42-4.13a41.41,41.41,0,0,0-10.61,3.26c-5.51,2.27-11,4.49-17.14,3.86-2.38-.24-4.76-.44-7.14-.66a3,3,0,0,1-1.83-.17,3.68,3.68,0,0,1,1.68-.34l.62-.23h0a10,10,0,0,0,3.84-.59l9.13-1.29a45.85,45.85,0,0,0,16.31-5,16,16,0,0,1,3.84-1.67c4.74-1.21,9.33-1.38,13.4,2C185.18,104.66,186.15,106.13,185.72,108.23Zm-.28-4.22a28.06,28.06,0,0,0-3-2.24c-4.66-2.68-9.44-2.16-14.19-.3-2.78,1.09-5.29,2.75-8.14,3.72-5.52,1.88-11.29,2.41-17,3.36-.25,0-.6.2-.61-.29a30,30,0,0,1,5-1.86,37.11,37.11,0,0,0,13.91-3.53c1.8-.81,3.6-1.64,5.35-2.55,5.8-3,11.46-2.17,17.07.53C184.41,101.9,185.65,102.6,185.44,104Zm1.05-1c-4.17-6.53-9.64-8.83-17.26-7.38a53.53,53.53,0,0,0-17,6.76,3.25,3.25,0,0,1-2.28.78c1.89-1.61,3.59-3,5.27-4.5a26.83,26.83,0,0,1,12.87-6.22c6-1.1,11.44-.31,15.78,4.44C185.41,98.54,186.69,101.55,186.49,103Zm1.08-.79a14,14,0,0,0-9.52-10.18c-4.6-1.52-9.25-1-13.86.37,4-2.72,8.22-4.35,13.11-3.91,5.62.49,9.53,3.94,10.6,9.4A8.06,8.06,0,0,1,187.57,102.23Zm1.27-.42c.87-8.22-4.49-13.58-12.24-14.43a14.4,14.4,0,0,1,5.41-.84,11.54,11.54,0,0,1,9.35,5.23C193.69,95,192.65,98.74,188.84,101.81Zm4.06-3.64a7.25,7.25,0,0,0-1.35-7.63c-3.2-3.62-7.15-5.48-12.08-4.7a42.68,42.68,0,0,0-12.54,3.78,4.69,4.69,0,0,1-2.05,1A6.22,6.22,0,0,1,167,89,36.14,36.14,0,0,1,183,83.37a12.1,12.1,0,0,1,12,7.41A6,6,0,0,1,192.9,98.17Zm2.38-1.28c1.77-3,1.21-5.88-.71-8.56-3-4.17-7-6.2-12.17-5.71-5.38.51-10.22,2.64-15,4.95-.81.64-1.61,1.29-2.41,1.94.3-1.34,1.47-1.87,2.42-2.61,5-4.25,10.57-7,17.31-6.85a26.29,26.29,0,0,1,4,.72l.72.31,2.8,1.52c2.94,2.44,5.28,5.29,6.17,9.12C198.23,94.74,197.22,96.46,195.28,96.89ZM199,71.22c.14,0,.29,0,.32.15a23.52,23.52,0,0,1-6.74,3.27h0A11,11,0,0,1,190,72.86,31.82,31.82,0,0,0,199,71.22Zm-29.48,9.89a7.85,7.85,0,0,1,1.9-1.6A43,43,0,0,1,177,75.15c4.66-3.1,9.43-3.58,14.34-.59,1.58,1.43,3.26,2.76,4.28,4.69h0c.44,1.24.88,2.49,1.31,3.73-2.51-2.72-5.72-4.3-8.86-5.95a12.16,12.16,0,0,0-7.72-1.11c-3.42.51-6.12,2.47-8.92,4.24l-1.73,1.35-.14-.41Zm-5.69,7.42c.21-.69,1.14-.8,1.24-1.58a30.61,30.61,0,0,1,12.55-9.63,11.06,11.06,0,0,1,10.16.28c1.56.85,3.13,1.69,4.63,2.65a13.86,13.86,0,0,1,6.34,8.57,3.33,3.33,0,0,1,.12,2.16l-.65-2a19.29,19.29,0,0,0-3.65-5.11A13.35,13.35,0,0,0,188,80.06c-4.88-1.44-9.44-.25-13.85,1.78a36.43,36.43,0,0,0-10.61,7.87h0l-1.77,2h0c-.28,0-.36.49-.71.26h0l2.25-3ZM103.67,34h0c-.79,3.26-1.56,6.52-.9,9.92a8.24,8.24,0,0,1,.34,2.56c.58,2.18.75,4.47,1.67,6.57h0a45.56,45.56,0,0,0,11.39,17.43,104.75,104.75,0,0,0,8.55,7.18,33.24,33.24,0,0,1,4.79,3.75c.26.7,1.08.94,1.53,1.83l-6.24-4.71h0c-.34-.37-.93-.44-1.12-1l-.7-.45c-1.65-1-3.39-1.76-5-2.88l-.34-.25a18.45,18.45,0,0,1-7.37-6.92c-2.24-3.58-4.59-7.11-6.13-11.08-1.16-2.93-1.25-6-1.59-9.12C102.13,42.5,101.34,38.12,103.67,34Zm0,22.1c2.8,6.38,5.86,12.61,11.54,17,2.74,2.11,6.07,3.34,8.88,5.41h0a31.14,31.14,0,0,0,2.63,2.11c.76.73,2,1,2.31,2.15a9.47,9.47,0,0,0-2.53-1c-3.59-1.57-6.92-3.61-10.37-5.43a21,21,0,0,1-8.61-8.53,60.64,60.64,0,0,1-7-21.43c0-2.37-.26-4.75.44-7.07.14-.45,0-1.08.73-1.18-.41,3.34.08,6.63.36,9.94C102.3,50.83,102.51,53.57,103.71,56.1Zm-6.17-15a5.63,5.63,0,0,0,.68-1.86,16.28,16.28,0,0,1,3.13-3.07c.15.67-.28,1.1-.36,1.61a17.29,17.29,0,0,0-.95,8.81c.2,5.24,2,10.06,3.73,14.93a38.68,38.68,0,0,0,3.75,7.64,19.6,19.6,0,0,0,7.24,7.11c4.38,2.44,8.68,5,13.38,6.84.41.16.8.58,1.32.28,2.15,1.32,4.6,2.08,6.58,3.73l-1.27-.17c-3-1-5.93-2-8.89-3a48.29,48.29,0,0,1-17.82-11,74.41,74.41,0,0,1-6.73-10.06,15,15,0,0,1-1.63-4.15c-.62-2.57-1.36-5.12-1.91-7.7a27.9,27.9,0,0,1-.39-9.34A.7.7,0,0,0,97.54,41.06Zm-.71,1.11c-.85,3.71-.2,7.34.64,10.95.48,2.05,1.07,4.08,1.61,6.12a15.14,15.14,0,0,0,1.86,4.36c2,3.19,3.83,6.54,6.44,9.34a39.16,39.16,0,0,0,11.46,8.57,56.92,56.92,0,0,0,11.93,4.59,5.34,5.34,0,0,1,.91.42,2.81,2.81,0,0,1,2.16.83c-.61,0-1.26.1-1.79-.33-4.66-.55-9.24-1.31-13.52-3.46A48.79,48.79,0,0,1,98,64.44c-.35-.84-.66-1.71-1.07-2.52A20.18,20.18,0,0,1,94.83,50c.22-1.76.41-3.54.77-5.28C95.79,43.82,95.77,42.7,96.83,42.17Zm-2.31,5.3a23.8,23.8,0,0,0,3,17.06c.23.48.44,1,.68,1.43,2.13,4.1,5.4,7.23,8.67,10.37a40.3,40.3,0,0,0,23,11.14c3.2.44,6.46.24,9.62,1l3.78.14v.25l-1.6.53a4.49,4.49,0,0,0-1.81-.39,18.32,18.32,0,0,0-3.67.64,29.79,29.79,0,0,1-14.15-1.76c-4-1.62-7.28-4.34-11-6.36l-.4.12,7.87,5.24c.21.14.48.24.45.54l-.14.06-3.33-.87h0a72.22,72.22,0,0,1-14.94-11.43c-3.24-3.23-4.73-7.4-6-11.65a4.34,4.34,0,0,1-.64-1.91c.89.37.86,1.29,1.19,2a34.28,34.28,0,0,0,6.75,10.61l.6,0a40,40,0,0,1-7.12-11.48c-.3-.66-.64-1.29-1-1.94C91,56.32,92.47,51.9,94.52,47.47ZM92.3,58.89a6.56,6.56,0,0,1,1,3c.21.69.44,1.37.63,2.07a27.83,27.83,0,0,0,10.2,15.34c2.12,1.58,4.26,3.14,6.35,4.77.18.14,1.2.18.43.89-1.73-.81-3.45-1.67-5.21-2.43C99.6,80,96.17,75.11,94.21,69l-.27-.81c-.37-2-.74-3.93-1.1-5.89A9.15,9.15,0,0,1,92.3,58.89ZM91.72,63c0-.46-.29-1.07.42-1.32l1.31,6.66a16.19,16.19,0,0,0,2.78,6.83,27.46,27.46,0,0,0,5.08,6c1.66,1.24,3.73,1.64,5.48,2.69a63.23,63.23,0,0,0,7.36,3c2,.55,3.93,1.44,6.07,1.41h0l2.17.81c.61.82-.17.46-.4.44l-6.07-.65c-.08.33.22.4.39.57a54,54,0,0,0,8.52.72,36.66,36.66,0,0,0,6.94.4l4.57-.44a11.66,11.66,0,0,1,1.65-.22c.56,0,1.15-.62,1.7,0h0l-5.12,1h-.14c-.76,0-1.49.49-2.28.17-.55.12-1.1.29-1.66.36-6.85.87-13.56.38-19.94-2.44A37.92,37.92,0,0,1,93.13,74C92.35,70.33,91.53,66.72,91.72,63Zm41.85,28.51c-.67.75-1.63.73-2.51.92-2.23.84-4.61.8-6.91,1.19l-2.16,0a37.68,37.68,0,0,1-13.24-1.85c-6.83-2.33-10.86-7.51-14-13.61-.45-.48-1-.91-.73-1.72.33.57,1,.94,1.14,1.61a41.73,41.73,0,0,0,7.73,7.29c8.41,6.19,17.89,8,28.1,6.64A8.32,8.32,0,0,1,133.57,91.49ZM96.48,85.35c-1.79-2.78-3.42-5.63-3.84-9.37,1.52,2.51,2.84,4.69,4.17,6.87A20.83,20.83,0,0,0,102.4,89c6.58,4.78,14.08,5.59,21.9,5h0c3.88.11,7.44-1.39,11.15-2.15a6.37,6.37,0,0,1,2.83-.4c-1.39.66-2.77,1.33-4.16,2C122.24,98.9,104.88,96.45,96.48,85.35Zm10.11,9.78a7.44,7.44,0,0,1-2.23-2c.58-.14.92.18,1.3.36a34.42,34.42,0,0,0,26.42,1.42c3.25-1.1,6.2-2.89,9.4-4.11a4.23,4.23,0,0,1,2.06-.79,3.49,3.49,0,0,1-1.91,1.3c-4.37,2.74-8.76,5.44-13.75,7C120.28,100.62,113.13,99.86,106.59,95.13Zm9.18,7.68c1.5.27,2.79.6,4.1.73a29,29,0,0,0,13.75-2.44c2.18-1.27,4.17-2.8,6.23-4.25h0l2.29-1.95c2.37-2,4.72-4.1,7.82-5l1.56-.46c-.25.66-.87.74-1.43.9h0a3.3,3.3,0,0,0-.8.29q-4.75,3.42-9.49,6.88a54.43,54.43,0,0,1-6.05,4h0a14.67,14.67,0,0,1-5.29,2.32,34.68,34.68,0,0,1-10.12.34A4.83,4.83,0,0,1,115.77,102.81Zm8.82,3.89a9.57,9.57,0,0,1-3.45-.85.85.85,0,0,1-.36-.06l.36.06-1.37-.74a32.82,32.82,0,0,0,8.81-.82c3.11-.48,5.57-2.28,8.07-4,3.61-2.45,7.18-5,10.64-7.64a17.28,17.28,0,0,1,9-3.62c.39,0,.93-.39,1.18.28-.17,0-.28,0-.32.19a55.7,55.7,0,0,0-17,9.78c-2.54,1.53-5.07,3.08-7.61,4.59A20.63,20.63,0,0,1,124.59,106.7Zm2.16.74h-.07c-.05-.18-.93-.26-.08-.55,1-.34,2-.57,3-1,2.75-1.07,5.07-2.91,7.61-4.37.58-.33,1.06-.94,1.85-.78-3.19,3.93-6.91,6.85-12.31,6.66Zm6.21.91c0-.08-.06-.23,0-.25,5.58-3.19,9.75-8.16,14.92-11.87l3.27-2.34c.09-.29.79-.28.41-.82-4.46,2.7-8.25,6.25-12.2,9.6-.44.37-.87.76-1.3,1.13a16.75,16.75,0,0,1-7,4.52,11.16,11.16,0,0,1-3.16.18l-.14-.39a14.74,14.74,0,0,0,5.38-1.33,20.43,20.43,0,0,0,5.06-3.9h0A36.26,36.26,0,0,1,151.4,92.63a15.15,15.15,0,0,1,4.69-1.76l-4.85,3.39a55.66,55.66,0,0,0-7.14,6.93C141.14,104.73,137.8,107.72,133,108.35Zm7.1-2.06Zm13.72-10A40.37,40.37,0,0,1,140,106.83l0-.53a20,20,0,0,0,5.14-4c2.51-2.55,5.84-4,8.5-6.31,0,0,.11,0,.11.07A1.32,1.32,0,0,1,153.78,96.29Zm4.72-5.64-1.92,2.13c-.35.08-.49.39-.69.63-3,2.89-6.69,4.91-10,7.44a21.05,21.05,0,0,1-2.15,2.08c-.34.26,0-.23-.12-.34l2.08-2.24a1.45,1.45,0,0,1,.36-.39,30.31,30.31,0,0,1,3.16-3.15c2.53-2.44,5.65-4.1,8.3-6.4l1-.51a3.66,3.66,0,0,1,2-.85Zm2.57-3a4.36,4.36,0,0,1-2.53.94c-.65-.34-1.51.3-2.07-.45A20.35,20.35,0,0,1,161.07,87.68Zm-4.92-.63a3.12,3.12,0,0,1,1.94.09,5.76,5.76,0,0,1-2,.44h0c-1.82.46-3.63,1-5.46,1.36-3.89.85-6.75,3.37-9.62,5.86-4.12,3.57-8.47,6.62-14,7.57-6,1-11.71.84-16.59-3.43a3.52,3.52,0,0,1-1.52-1.33l.2-.34L112.32,99a25.57,25.57,0,0,0,14.78.26c6.28-1.73,11.72-5.11,17-8.68A19.72,19.72,0,0,1,156.15,87.05Zm-5.32-.48c-1.79.16-3.38,1.2-5.2,1a10.21,10.21,0,0,1-7.4-.75,5.44,5.44,0,0,1-2.73-1.25c.25-.72-.39-.74-.77-1a12.08,12.08,0,0,1-3.51-2.45l1.62.51a2,2,0,0,0,.54.17,41.21,41.21,0,0,0,15.41,3.2A3.34,3.34,0,0,1,150.83,86.57ZM115.91,62.31c3.06,2.49,5.48,5.69,8.71,8,4.23,3,8.28,6.24,12.67,9a115.43,115.43,0,0,0,10.44,5.82,8.63,8.63,0,0,1-4.89-.51c-4.21-2.13-8.56-4-11.93-7.52a45.62,45.62,0,0,0-6-5.17,48.5,48.5,0,0,1-10.28-10.25C115.25,61.47,115.53,62,115.91,62.31ZM104.76,41.55A33.09,33.09,0,0,0,107.19,50,51.05,51.05,0,0,0,122.4,70.75c3.2,2.55,6.41,5.09,9.35,7.94a18,18,0,0,0,4.34,3.09c1.38.71,2.73,1.48,4.09,2.22l-.12.33c-.54-.13-1.08-.23-1.6-.38a40.53,40.53,0,0,1-13.88-7.2c-8.42-6.38-15.41-13.83-19.3-23.83-.61-2.72-1.26-5.44-1.82-8.17-1.08-5.17-.34-10,3.12-14.13h0l1.85-1.23A15.14,15.14,0,0,0,104.76,41.55Z" transform="translate(-49.77 -28.09)"/><path class="cls-3" d="M110.89,81.36l.15.12A.4.4,0,0,0,110.89,81.36Z" transform="translate(-49.77 -28.09)"/></g></g></g></svg>