<svg xmlns="http://www.w3.org/2000/svg" xmlns:xlink="http://www.w3.org/1999/xlink" viewBox="0 0 323.22 175.59"><defs><style>.cls-1{fill:none;}.cls-2{clip-path:url(#clip-path);}.cls-3{fill:#9f8778;}</style><clipPath id="clip-path" transform="translate(-62.84 -35.46)"><rect id="SVGID" class="cls-1" x="20.17" y="22.28" width="240.58" height="221.91" transform="translate(305.24 234.89) rotate(168.18)"/></clipPath></defs><g id="圖層_2" data-name="圖層 2"><g id="圖層_2-2" data-name="圖層 2"><g class="cls-2"><path class="cls-1" d="M219.15,158.7a27.3,27.3,0,0,0-8.47-1.16c-5,0-10,.16-15,.25a21.37,21.37,0,0,1-9.23-1.73l-.07,0L182,154.16c.33,1.16,1.33,1.55,2,2.2,4.48,4.39,10,6.06,16.12,6a33.75,33.75,0,0,0,7.45-.47c4.38-1,8.27.24,12,2.29a10.25,10.25,0,0,0,5.6,1.35c.73,0,1.64-.07,2-.69s-.72-1-.89-1.59A17.78,17.78,0,0,0,219.15,158.7Z" transform="translate(-62.84 -35.46)"/><path class="cls-1" d="M197.32,165.2c3-.39,6-.76,9-1.21a40.3,40.3,0,0,1,9.66-.17l0-.06-.84-.74c-2.55-1.09-5.15-.55-7.74-.26a51.24,51.24,0,0,1-12,.05,21.46,21.46,0,0,1-12.19-6.07,24,24,0,0,0-5.9-4.64c2.6,3.93,4.69,8.23,8.53,11.19C189.45,165.42,193.32,165.73,197.32,165.2Z" transform="translate(-62.84 -35.46)"/><path class="cls-1" d="M328,74.68l.08.06c.54.39,1.1.74,1.6,1.17a65.92,65.92,0,0,1,7.73,8.46,28.33,28.33,0,0,0,10.77,8.18c2.23,1,4.41,2,6.61,3h0l1.38.15c.14-.54-.28-.69-.56-.83-6.23-3.27-10.61-8.55-15-13.83a56.84,56.84,0,0,0-9.33-9.14c-4.35-3.27-9.47-4.2-14.58-5.28-1.64-.34-3.37-.31-4.92-1.11-1.77.39-3.57,0-5.35.16a36.65,36.65,0,0,0-7.28,1.06c3.31.27,6.63-.05,9.91.42C316,68.15,322.43,70.31,328,74.68Z" transform="translate(-62.84 -35.46)"/><path class="cls-1" d="M204.12,165.06A72,72,0,0,1,194,166.21c-3.75.08-7.23-.74-10-3.49h0c-3.32-2.94-5.26-6.92-7.83-10.42a29.61,29.61,0,0,0-6-6.45A25.8,25.8,0,0,0,164.3,142c-1,.07-1.78-.78-2.89-.5l1,.73,5.79,3.09a11.5,11.5,0,0,1,3.68,4.56c2.8,5,6.15,9.76,8.85,14.87a13,13,0,0,0,10.34,7.19c1.27,0,2.55.07,3.81,0a45.31,45.31,0,0,0,9.55-2.19,20.58,20.58,0,0,1,4.38-1.79,23.9,23.9,0,0,1,10.83-2l-1.78-1A36.1,36.1,0,0,0,204.12,165.06Z" transform="translate(-62.84 -35.46)"/><path class="cls-1" d="M204.94,171.22l-5.61,4.8a10.85,10.85,0,0,1-6.2,4.65c-7.62,3.75-21.86-1.45-23.24-12.76-.33-2.71-.9-5.4-1.44-8.08-1-4.77-3.18-9-5.53-13.24a3.61,3.61,0,0,0-1.44-1.89,1.9,1.9,0,0,0,.63,1.85c2.5,6.89,4.67,13.84,4.67,21.28a17.94,17.94,0,0,0,.41,3.08c1.59,9.2,8.07,14.75,17.42,14.94l.9.06c.78-.09,1.55-.21,2.33-.27a13.64,13.64,0,0,0,9.71-5.08c2.42-2.87,4.9-5.7,7.35-8.54a1.58,1.58,0,0,0,.34-.35c.65-.53,1.58-.87,1.36-2A4.14,4.14,0,0,0,204.94,171.22Z" transform="translate(-62.84 -35.46)"/><path class="cls-1" d="M209,144.9a28.9,28.9,0,0,1-4.93,1.23,34.82,34.82,0,0,1-13.35,3c-2.46,0-4.92-.37-7.38-.49-.4,0-1.2-.71-1.3.41a13.59,13.59,0,0,1,3.23,1,26.85,26.85,0,0,0,13.52.67c2.37-.54,4.72-1.23,7.1-1.72,4.29-.9,8.61-1.7,12.94-.17,5.85,1.52,9.37,5.57,11.78,10.9.14-.18.34-.32.33-.43-.49-3-.71-6-2.91-8.4C222.81,145.1,216.58,142.91,209,144.9Z" transform="translate(-62.84 -35.46)"/><path class="cls-1" d="M216.38,138.65c-.7-.14-1.24.21-2.07.62a4.36,4.36,0,0,0,2.54.08c6.2.31,11.31,2.54,14.37,8.29.59,1.11,1,1.18,1.61,0,1.36-2.68.92-4.23-1.37-6.11C226.92,137.77,221.85,137.23,216.38,138.65Z" transform="translate(-62.84 -35.46)"/><path class="cls-1" d="M219.37,149.56h0a25.66,25.66,0,0,0-7.91-.69,76.23,76.23,0,0,0-12.05,2.57,28.39,28.39,0,0,1-12.24-.21c-.46-.13-.92-.29-1.38-.43h0l-1,0c.25.53,1.17.39,1.05,1.18a1.32,1.32,0,0,1-.29-.15c-.45.47-.78,0-1.13-.15a6.24,6.24,0,0,1-3-1.67,47,47,0,0,0-10.34-4.88c4.43,4.12,8.75,7.51,13.93,9.62h0c4.91,2.17,10.08,2.46,15.35,2.19a110.33,110.33,0,0,1,12.2-.07c4.71.3,9.16,1.25,12.79,4.54.27.24.57.5,1,.2-2.34-5.1-6.93-7-11.88-8.37-5.22-1.44-10.46-.88-15.71-.12a31.25,31.25,0,0,1-8.69.38,7.27,7.27,0,0,1-3.87-1.36h0l0,0c.25-.4.7-.24.95-.15,4.24,1.58,8.49.92,12.74.15,4.6-.5,9.2-.94,13.79.12,6.3,1.47,11.8,4,14.13,10.69.13.36.23,1,.8.7.82-.41,1.66-1,1.54-2a10.16,10.16,0,0,0-1.19-3.43A17.93,17.93,0,0,0,219.37,149.56Z" transform="translate(-62.84 -35.46)"/><path class="cls-1" d="M230.66,137.44c-6.11-4-12.52-3.27-18.9-.8-3.06,1.18-6,2.72-9,4.11a36.41,36.41,0,0,1-25.82,2c-2.51-.7-5.07-1.24-7.61-1.86l-6.66-.73c0,.53.41.69.77.89a21,21,0,0,1,3.08,1,78.57,78.57,0,0,0,13,5.09c5.2.87,10.4,1.43,15.47-.71,7.62-3.64,15.18-7.4,23.58-9.07,5.49-1.1,10,.58,14.21,4,.37.3.62,1.13,1.29.65s.34-1.13.1-1.68C233.51,138.85,231.93,138.27,230.66,137.44Z" transform="translate(-62.84 -35.46)"/><path class="cls-1" d="M218.36,141a24.31,24.31,0,0,0-2.55.79c-1.1.46-2.53.26-3.2,1.59a17,17,0,0,1,10,2,20,20,0,0,1,8.39,8.4C232.51,146.21,224.23,139.71,218.36,141Z" transform="translate(-62.84 -35.46)"/><path class="cls-1" d="M175.86,170.48a30.92,30.92,0,0,1-5.29-9.31,6.56,6.56,0,0,0-.63-1.1c-.64,14.94,9.51,23.6,23,20a15.76,15.76,0,0,0,3.78-2.41c.43-.45,1.35-.68.94-1.64C190.76,179.19,180.82,176.69,175.86,170.48Z" transform="translate(-62.84 -35.46)"/><path class="cls-1" d="M203.88,145.58c2.14-1.16,4.52-1.68,6.76-2.58a25,25,0,0,1,5.15-2.07c.39-.14,1.24.14,1.06-.81a20.32,20.32,0,0,0-8.78,1.76c-3.51,1.6-7.08,3.1-10.64,4.6a18.88,18.88,0,0,1-2.26.64l-.69.42-1.91.34c0,.18.06.36.1.55a3.18,3.18,0,0,0,2-.3A58.07,58.07,0,0,0,203.88,145.58Z" transform="translate(-62.84 -35.46)"/><path class="cls-1" d="M182.76,143.11c7.28,1.06,14.13-.48,20.7-3.62,4.6-2.2,9.09-4.65,14.27-5.36,3.64-.51,7.15-.49,10.52,1.14a9.71,9.71,0,0,0,1,.41c.09,0,.2,0,.56,0a10.88,10.88,0,0,0-5.82-3,25.9,25.9,0,0,0-13.28,1.19c-4.87,1.59-9.57,3.59-14.32,5.44-6.82,2.65-13.76,2.63-20.82,1.37-.1,0-.22.06-.33.09l-2.82-.22a5.78,5.78,0,0,0,3.64,1.17C178.3,142.18,180.51,142.78,182.76,143.11Z" transform="translate(-62.84 -35.46)"/><path class="cls-1" d="M175.52,168.64a18.72,18.72,0,0,0,21.91,6.55c2.4-1,4.2-2.84,6.32-4.24-.71-.24-1.3.21-1.93.37-3.34.89-6.68,1.83-10.21,1.31-5.25-.24-9-2.85-11.66-7.29-3-5.07-6-10.12-9-15.2a13.38,13.38,0,0,0-5-5.16c-1.6-.88-3.21-1.74-4.81-2.61l-.18.52c3.89,3.55,5.83,8.34,8.06,12.92C171.09,160.12,172.74,164.65,175.52,168.64Z" transform="translate(-62.84 -35.46)"/><path class="cls-1" d="M289.48,78.29c6.63,1.6,13.06,3.8,18.59,8,.58.43,1.13.89,1.7,1.34,4,2.54,7.27,6,10.86,9.12a65.47,65.47,0,0,0,12.89,8.87,23.83,23.83,0,0,0,18.91,1.6,44,44,0,0,0,13.88-7.4c-1.76,0-3.17,1-4.67,1.69a29.08,29.08,0,0,1-20.3,1.32A26.41,26.41,0,0,1,331.17,99c-4.2-2.92-8.38-5.85-12.58-8.78-6.76-4.72-12.77-10.6-20.7-13.51-6.17-2.12-12.43-3.4-19-2.08a36.31,36.31,0,0,0-12.82,5.8,6.62,6.62,0,0,0-2.38,1.82,6.12,6.12,0,0,0,2.5-1.3A33.14,33.14,0,0,1,289.48,78.29Z" transform="translate(-62.84 -35.46)"/><path class="cls-1" d="M268.87,76.14a16.32,16.32,0,0,0-4.57,4c1.86-.75,3.19-2.21,4.74-3.37C269,76.53,268.93,76.33,268.87,76.14Z" transform="translate(-62.84 -35.46)"/><path class="cls-1" d="M275.27,74.22a9.57,9.57,0,0,1,3.29-.72,45.08,45.08,0,0,1,11.86-1.81c12.44-.16,22.45,5.48,31.35,13.54,2.84,2.57,5.46,5.39,8.68,7.51,9.84,6.45,20.59,8.35,32.11,6.27.38-.14.77-.27,1.14-.43.76-.32,0-.42-.1-.62l-1.67-.11-.76.07c-5.76.7-11.1-.78-16.27-3.15-4.69-1.68-8.4-4.79-11.86-8.23-2.78-2.78-5.34-5.79-8.71-7.94a51.19,51.19,0,0,0-22.52-7.71l-3.62-.37-11.43-.39A79.25,79.25,0,0,0,277,72.87a7.92,7.92,0,0,0-1.78.86l-2.23,1A2.5,2.5,0,0,0,275.27,74.22Z" transform="translate(-62.84 -35.46)"/><path class="cls-1" d="M301.31,70.19c12,1.1,22.54,5.19,30.81,14.28a39.59,39.59,0,0,0,11.32,9.06,7.89,7.89,0,0,1,2.35.9c3.74,1.44,7.49,2.8,11.86,2.94v0s0,0,0,0l-.87-.66-1.45-.38C348.38,94,341.79,91.06,337,85.13c-3.23-4-6.5-8-10.78-11-10.43-6.73-21.84-7.52-33.71-5.67a13.39,13.39,0,0,0-2.6.6c2.57.74,5.23.38,7.82.76A12,12,0,0,1,301.31,70.19Z" transform="translate(-62.84 -35.46)"/><path class="cls-1" d="M325.52,89.82c-4-3.37-7.38-7.37-11.9-10.14-8.45-5.19-17.32-8.5-27.45-7l-2.48.3a4.88,4.88,0,0,0,2.95.38,34.5,34.5,0,0,1,10.69,2.54c5.05,1.38,9.27,4.29,13.32,7.4,7,5.34,14.22,10.23,21.43,15.22,2.66,1.84,5.76,2.54,8.74,3.56h0l5.13,1c6,1.15,11.52-.63,16.92-3-.06-.17-.12-.34-.19-.52C348.72,102.46,336.36,99,325.52,89.82Z" transform="translate(-62.84 -35.46)"/><path class="cls-1" d="M191.61,172.63a.36.36,0,0,0-.13-.19Z" transform="translate(-62.84 -35.46)"/><path class="cls-1" d="M310.82,95.41h-.24A.4.4,0,0,0,310.82,95.41Z" transform="translate(-62.84 -35.46)"/><path class="cls-1" d="M189.23,133.3c7.52-.75,14.25-3.87,20.86-7.23a22.3,22.3,0,0,1,17.47-1.38,16.19,16.19,0,0,0,1.61.36l-.5-.68a.42.42,0,0,1-.2-.27c-5.89-3.93-12.17-3.09-18.48-1.44a68.87,68.87,0,0,0-17.34,7.59,31.07,31.07,0,0,1-5.16,2.66C187.8,134.18,188.7,133.36,189.23,133.3Z" transform="translate(-62.84 -35.46)"/><path class="cls-1" d="M260.33,85.83a4.24,4.24,0,0,0,2.19-1l.53-.11a2.48,2.48,0,0,1,1.45-.6h0c.91-.32,1.8-.72,2.73-1,7.71-2,15.41-1.18,23.1.16,8.36,1.45,14.47,6.72,20.49,12.13a80.27,80.27,0,0,1,7.32,7.32c7.7,8.12,16.91,11.44,28,9.11a44.38,44.38,0,0,0,10.43-3.59c1.78-1.24,3.68-2.31,5-4.14l-2.92,1.51c-9.27,4.87-18.43,5.08-27.65-.3a78.06,78.06,0,0,1-13.26-9.94,117.48,117.48,0,0,0-9.92-8.3h0a56.24,56.24,0,0,0-14.93-7c-11-3.45-21.09-2.21-30.63,4.16l-2.13,1.06C260.19,85.48,259.52,86,260.33,85.83Z" transform="translate(-62.84 -35.46)"/><path class="cls-1" d="M256.25,89.61a21.29,21.29,0,0,1,9.86-.85l4.09,1h0l.25.06-.24-.16-.36-.24a10.71,10.71,0,0,0-4.54-1.5l-1.77-.43c-3.24.19-6.43.6-9.28,2.33C255,90.35,255.63,89.78,256.25,89.61Z" transform="translate(-62.84 -35.46)"/><path class="cls-1" d="M184.41,186.64c-4.66.11-8.58-1.74-12.22-4.47-4.49-3.39-5.7-8.26-6.29-13.44-.23-2-.38-4.12-.52-6.18-.43-6.15-2.94-11.69-5-17.38a1.57,1.57,0,0,0-1.12-1.26,2.51,2.51,0,0,0,.53,1.65,51.11,51.11,0,0,1,.94,17.94,29.08,29.08,0,0,0,3.44,16.88,12.07,12.07,0,0,0,8.73,6.54c3.94.78,7.92,1.27,11.91.26.71.36,1.44-.11,2.16,0h0c1.06-.41,2.3-.19,3.52-1.07-1.78-.08-3.28.55-4.81.3Z" transform="translate(-62.84 -35.46)"/><path class="cls-1" d="M119,87.12c2.49,7.72,6.82,13.87,14.55,17.16,2.23,1,4.4,2,6.59,3.06,1-.9-.32-.94-.55-1.12-2.63-2-5.34-4-8-6a35,35,0,0,1-12.88-19.37c-.25-.87-.54-1.74-.81-2.61a7.94,7.94,0,0,0-1.3-3.84,11.58,11.58,0,0,0,.69,4.28l1.38,7.44C118.73,86.43,118.84,86.77,119,87.12Z" transform="translate(-62.84 -35.46)"/><path class="cls-1" d="M169.35,118c1.76-.82,3.51-1.67,5.26-2.5-1.26-.31-2.39.26-3.57.5-4.68,1-9.19,2.86-14.09,2.72h0c-9.87.78-19.33-.24-27.65-6.27a26.42,26.42,0,0,1-7.06-7.79L117,95.94c.53,4.72,2.59,8.32,4.85,11.84C132.43,121.79,154.36,124.88,169.35,118Z" transform="translate(-62.84 -35.46)"/><path class="cls-1" d="M165.36,116.14c-12.89,1.72-24.85-.56-35.48-8.39a52.84,52.84,0,0,1-9.76-9.2c-.24-.84-1-1.3-1.43-2-.39,1,.34,1.56.91,2.18,4,7.69,9.1,14.23,17.72,17.18A47.69,47.69,0,0,0,154,118.22l2.72,0c2.91-.49,5.92-.45,8.73-1.51,1.11-.23,2.32-.21,3.18-1.15C167.56,115.73,166.39,115.58,165.36,116.14Z" transform="translate(-62.84 -35.46)"/><path class="cls-1" d="M139.6,112.34c8.06,3.57,16.53,4.18,25.18,3.09.71-.09,1.4-.31,2.1-.46,1,.4,1.91-.22,2.88-.21h.17l6.47-1.28h0c-.69-.83-1.43-.06-2.14,0a16.39,16.39,0,0,0-2.09.28l-5.77.56a45.88,45.88,0,0,1-8.76-.52,65.87,65.87,0,0,1-10.77-.9c-.21-.21-.59-.3-.48-.72,2.55.27,5.1.56,7.66.82.29,0,1.27.48.5-.55l-2.73-1h0c-2.7,0-5.14-1.09-7.67-1.78a79.19,79.19,0,0,1-9.3-3.74c-2.21-1.33-4.82-1.84-6.91-3.4a34.37,34.37,0,0,1-6.42-7.56A20.62,20.62,0,0,1,118,86.26l-1.65-8.4c-.9.31-.51,1.09-.54,1.66-.24,4.72.81,9.29,1.79,13.86A47.71,47.71,0,0,0,139.6,112.34Z" transform="translate(-62.84 -35.46)"/><path class="cls-1" d="M125.89,74.22A18.67,18.67,0,0,0,128,79.46a92.42,92.42,0,0,0,8.49,12.7A60.82,60.82,0,0,0,159,106c3.74,1.28,7.49,2.5,11.23,3.75l1.6.22c-2.51-2.09-5.6-3-8.31-4.72-.65.38-1.15-.14-1.67-.35-5.93-2.28-11.36-5.55-16.89-8.63a24.79,24.79,0,0,1-9.15-9A49.91,49.91,0,0,1,131,77.63c-2.12-6.15-4.46-12.24-4.71-18.85a22,22,0,0,1,1.2-11.13c.11-.64.64-1.18.46-2a21.43,21.43,0,0,0-4,3.88,6.93,6.93,0,0,1-.85,2.34.92.92,0,0,1-.18.87,35.36,35.36,0,0,0,.49,11.79C124.18,67.76,125.11,71,125.89,74.22Z" transform="translate(-62.84 -35.46)"/><path class="cls-1" d="M120.32,79.2c2.34,5.24,5,10.27,9,14.5l-.76,0,.2.25-.2-.25c-3.81-3.85-6.36-8.5-8.51-13.4-.43-.89-.39-2.05-1.51-2.51a5.44,5.44,0,0,0,.81,2.41c1.64,5.37,3.52,10.62,7.61,14.71a91.55,91.55,0,0,0,18.86,14.43h0l4.2,1.1.18-.07c0-.39-.31-.51-.57-.69L139.71,103l.5-.16-.18-.15a1,1,0,0,1,.18.15c4.71,2.56,8.91,6,13.9,8A37.68,37.68,0,0,0,172,113.14a22.8,22.8,0,0,1,4.63-.81,5.69,5.69,0,0,1,2.3.49l2-.66v-.32l-4.77-.18c-4-.9-8.11-.65-12.15-1.21a50.94,50.94,0,0,1-29-14.07c-4.13-4-8.27-7.92-10.94-13.09-.31-.59-.58-1.2-.87-1.8A30.09,30.09,0,0,1,119.35,60c-2.59,5.59-4.43,11.17-.24,16.8C119.51,77.57,120,78.37,120.32,79.2Z" transform="translate(-62.84 -35.46)"/><path class="cls-1" d="M122.41,78.19c.52,1,.9,2.11,1.35,3.17a61.59,61.59,0,0,0,25.9,24.15c5.41,2.72,11.19,3.67,17.08,4.37.68.54,1.49.37,2.26.42a3.57,3.57,0,0,0-2.72-1.06,6.6,6.6,0,0,0-1.16-.51,71.85,71.85,0,0,1-15.06-5.81A49.35,49.35,0,0,1,135.59,92.1c-3.29-3.53-5.57-7.76-8.14-11.8a19.22,19.22,0,0,1-2.35-5.49c-.67-2.58-1.42-5.14-2-7.74-1.07-4.55-1.89-9.13-.81-13.82-1.34.67-1.31,2.08-1.55,3.22-.46,2.2-.69,4.44-1,6.67A25.41,25.41,0,0,0,122.41,78.19Z" transform="translate(-62.84 -35.46)"/><path class="cls-1" d="M177,125.39c6.33-5.53,13.65-9.33,21.44-12.34a.29.29,0,0,1,.4-.24c-.32-.84-1-.39-1.48-.35A21.78,21.78,0,0,0,186,117c-4.37,3.37-8.87,6.55-13.43,9.64-3.16,2.14-6.27,4.41-10.19,5a41.37,41.37,0,0,1-11.12,1l1.72.94a12,12,0,0,0,4.36,1.07,26,26,0,0,0,10-3.53C170.56,129.28,173.75,127.33,177,125.39Z" transform="translate(-62.84 -35.46)"/><path class="cls-1" d="M175.62,127.27c-1-.21-1.61.57-2.34,1-3.2,1.84-6.13,4.16-9.61,5.51-1.24.48-2.55.78-3.81,1.2-1.07.36,0,.47.1.7h.11C166.89,135.92,171.59,132.23,175.62,127.27Z" transform="translate(-62.84 -35.46)"/><path class="cls-1" d="M161.48,124.13c6.3-1.92,11.84-5.33,17.36-8.79a4.47,4.47,0,0,0,2.4-1.65,5.27,5.27,0,0,0-2.59,1c-4,1.54-7.77,3.8-11.87,5.19a43.41,43.41,0,0,1-33.36-1.8c-.48-.22-.91-.62-1.65-.45a9.37,9.37,0,0,0,2.82,2.49C142.85,126.1,151.87,127.06,161.48,124.13Z" transform="translate(-62.84 -35.46)"/><path class="cls-1" d="M168.88,128.23h0a67.28,67.28,0,0,0,7.65-5.09q6-4.35,12-8.69a4,4,0,0,1,1-.36h0c.71-.21,1.49-.31,1.81-1.14l-2,.58c-3.91,1.13-6.87,3.74-9.87,6.3l-2.89,2.47h0c-2.6,1.83-5.12,3.76-7.87,5.37-5.57,2.23-11.29,3.65-17.35,3.07-1.66-.16-3.3-.58-5.18-.92a6,6,0,0,0,3.24,1.78,43.49,43.49,0,0,0,12.78-.44A18.22,18.22,0,0,0,168.88,128.23Z" transform="translate(-62.84 -35.46)"/><path class="cls-1" d="M153,133.66l-.45-.08A1.12,1.12,0,0,0,153,133.66Z" transform="translate(-62.84 -35.46)"/><path class="cls-1" d="M223.87,111.76c-6.16-.55-11.54,1.51-16.54,4.94,5.81-1.69,11.69-2.39,17.49-.46,6,2,10.14,6.09,12,12.84a10,10,0,0,0,.42-5.45C235.91,116.74,231,112.39,223.87,111.76Z" transform="translate(-62.84 -35.46)"/><path class="cls-1" d="M241.64,115.88c-2.86-4-6.73-6.49-11.81-6.61a18.25,18.25,0,0,0-6.83,1.06c9.79,1.08,16.55,7.85,15.45,18.23C243.27,124.67,244.58,120,241.64,115.88Z" transform="translate(-62.84 -35.46)"/><path class="cls-1" d="M128.43,48.18c-.89.12-.75.92-.92,1.48-.89,2.93-.52,5.94-.56,8.93a76.46,76.46,0,0,0,8.88,27.06A26.48,26.48,0,0,0,146.7,96.42c4.36,2.29,8.57,4.87,13.1,6.85,1,.46,2.26.48,3.19,1.23-.42-1.49-2-1.79-2.92-2.71s-2.38-1.57-3.32-2.67h0c-3.53-2.61-7.74-4.17-11.2-6.83-7.18-5.52-11-13.39-14.58-21.44-1.51-3.2-1.78-6.66-2.06-10.12C128.54,56.55,127.91,52.38,128.43,48.18Z" transform="translate(-62.84 -35.46)"/><path class="cls-1" d="M246.25,114.63a15.24,15.24,0,0,0-15.13-9.35c-7.35.56-14.05,3.23-20.31,7a7.49,7.49,0,0,0-2.61,2.07,6,6,0,0,0,2.58-1.23,54,54,0,0,1,15.84-4.77c6.22-1,11.22,1.37,15.26,5.94,2.44,2.76,2.93,6,1.7,9.64C246.55,122.16,247.67,118.05,246.25,114.63Z" transform="translate(-62.84 -35.46)"/><path class="cls-1" d="M212.3,116.76a33.81,33.81,0,0,0-16.25,7.85c-2.12,1.84-4.27,3.64-6.65,5.68a4.15,4.15,0,0,0,2.87-1c6.72-3.91,13.72-7.07,21.42-8.54,9.61-1.83,16.53,1.08,21.79,9.33.25-1.86-1.36-5.67-3.25-7.73C226.74,116.36,219.81,115.36,212.3,116.76Z" transform="translate(-62.84 -35.46)"/><path class="cls-1" d="M210.62,126.68c-2.21,1.15-4.48,2.2-6.75,3.22a47,47,0,0,1-17.57,4.45c-2.26.39-4.22,1.58-6.34,2.35,0,.63.46.42.78.37,7.19-1.2,14.48-1.87,21.44-4.24,3.6-1.23,6.77-3.33,10.28-4.7,6-2.36,12-3,17.92.37a35.52,35.52,0,0,1,3.78,2.84c.26-1.79-1.3-2.67-2-4C225.09,123.94,218,122.89,210.62,126.68Z" transform="translate(-62.84 -35.46)"/><path class="cls-1" d="M215,128a19.86,19.86,0,0,0-4.84,2.11c-6.42,3.59-13.39,5.37-20.6,6.37L178,138.12a12.92,12.92,0,0,1-4.85.74h0l-.78.29a4.71,4.71,0,0,0-2.11.43,3.78,3.78,0,0,0,2.31.21c3,.28,6,.53,9,.84,7.76.79,14.68-2,21.64-4.87,4.32-1.78,8.69-3.55,13.39-4.12,6-.73,11.54.19,15.68,5.21.78.94,1.62,1.4,2.24-.18.55-2.66-.68-4.52-2.63-6.14C226.73,126.25,220.93,126.47,215,128Z" transform="translate(-62.84 -35.46)"/><path class="cls-1" d="M131.56,70.68c1.95,5,4.91,9.46,7.75,14a23.36,23.36,0,0,0,9.3,8.74l.42.31c2,1.41,4.18,2.42,6.26,3.64l.89.57c.24.67,1,.76,1.41,1.22h0l7.87,5.95c-.56-1.11-1.6-1.42-1.93-2.31a41.82,41.82,0,0,0-6-4.73A130.07,130.07,0,0,1,146.69,89,57.72,57.72,0,0,1,132.3,67h0c-1.16-2.64-1.37-5.53-2.1-8.29a10.4,10.4,0,0,0-.43-3.23c-.84-4.29.14-8.41,1.14-12.53h0c-3,5.2-1.95,10.73-1.36,16.23C130,63,130.1,67,131.56,70.68Z" transform="translate(-62.84 -35.46)"/><path class="cls-1" d="M203.35,116.11c.46.29.55-.4.91-.34h0l2.24-2.49h0a46,46,0,0,1,13.39-9.94c5.57-2.56,11.34-4.06,17.49-2.25a16.79,16.79,0,0,1,8.31,4.81,24.55,24.55,0,0,1,4.62,6.45l.81,2.53a4.09,4.09,0,0,0-.15-2.72,17.46,17.46,0,0,0-8-10.83c-1.9-1.2-3.88-2.27-5.85-3.34a14,14,0,0,0-12.83-.36c-6.19,2.78-11.74,6.58-15.84,12.17-.13,1-1.3,1.12-1.57,2l-.68.52-2.85,3.81Z" transform="translate(-62.84 -35.46)"/><path class="cls-1" d="M216.43,101.23c3.54-2.24,6.95-4.7,11.26-5.36a15.39,15.39,0,0,1,9.75,1.41c4,2.09,8,4.07,11.19,7.51L247,100.08h0c-1.28-2.44-3.4-4.12-5.4-5.92-6.2-3.77-12.22-3.17-18.1.74a55.55,55.55,0,0,0-7,5.5,10.35,10.35,0,0,0-2.4,2l.18.52Z" transform="translate(-62.84 -35.46)"/><path class="cls-1" d="M239.16,102.37l-.92-.38a33.22,33.22,0,0,0-5-.91c-8.51-.19-15.55,3.28-21.85,8.65-1.2.93-2.69,1.6-3.07,3.29,1-.81,2-1.63,3-2.45,6-2.92,12.16-5.6,18.94-6.24,6.55-.62,11.61,1.94,15.38,7.21,2.42,3.38,3.13,7,.89,10.8,2.45-.53,3.73-2.72,3.91-6.52-1.14-4.84-4.08-8.44-7.8-11.52C241.51,103.66,240.33,103,239.16,102.37Z" transform="translate(-62.84 -35.46)"/><path class="cls-1" d="M243.18,94.25h0a30.09,30.09,0,0,0,8.51-4.13c0-.26-.23-.25-.41-.18A40.14,40.14,0,0,1,239.85,92C240.75,93.06,242.07,93.51,243.18,94.25Z" transform="translate(-62.84 -35.46)"/><path class="cls-1" d="M84.54,193.28c.88-1.94,1.74-3.89,2.54-5.86a86.31,86.31,0,0,1,6-11.86c3.53-5.91,9.19-8.84,15.35-11.1,3.65-1.33,7.52-2,11-3.85l5.3-2.08A34.38,34.38,0,0,0,134,151.6c-.07-.16.46-.92-.26-.42-1.49,1-3.38,1.61-4.22,3.47-.1.22-.49.3-.74.45-2.86,2.1-6.22,3.21-9.39,4.69-4.29,1.14-8.53,2.54-12.88,3.38C99.1,164.62,93.72,169,89,174.53a44,44,0,0,0-8.68,15.69,3.16,3.16,0,0,0,2.36,4.14A1.54,1.54,0,0,0,84.54,193.28Z" transform="translate(-62.84 -35.46)"/><path class="cls-1" d="M191,119l6.13-4.29a19.61,19.61,0,0,0-5.93,2.22,46,46,0,0,0-16.65,13h0c-2,1.81-3.87,3.78-6.39,4.93a18.63,18.63,0,0,1-6.79,1.67l.17.49a14.51,14.51,0,0,0,4-.22,21.35,21.35,0,0,0,8.77-5.71l1.64-1.43c5-4.23,9.78-8.71,15.41-12.12.48.68-.41.67-.53,1l-4.12,3c-6.52,4.69-11.79,11-18.84,15,0,0,0,.21,0,.32,6.11-.81,10.33-4.58,14.07-9A69.54,69.54,0,0,1,191,119Z" transform="translate(-62.84 -35.46)"/><path class="cls-1" d="M95.46,167.05a24.93,24.93,0,0,1,8.85-4.17c3-.91,6.06-1.92,9-2.9l.35-.11,2.88-1c-.62-.28-1.54.26-2.42.46-6.1,1.32-12.42,1.91-18.1,4.77-8.1,4.09-13.92,10.47-18.06,18.45-1.27,2.46-1,5.05-.51,7.64v0c.45.37.58,1.3,1.25,1.17s.7-.94.87-1.51C82.38,180.57,88,173.14,95.46,167.05Z" transform="translate(-62.84 -35.46)"/><path class="cls-1" d="M89.51,194.76A60.11,60.11,0,0,1,99.7,177a40.48,40.48,0,0,1,11.9-9.75c2.56-1.38,5.16-2.7,7.74-4,1.2-1.37,3.23-1.58,4.31-3.12-1.36-.19-2.42.68-3.51,1.18a50.66,50.66,0,0,1-7.87,2.84,49.84,49.84,0,0,0-11.09,4.6C96.91,171,94.32,174.93,92,179a101.57,101.57,0,0,0-5.45,11.74,16.5,16.5,0,0,1-1.69,3.42c-.62.86-.56,1.21.26,1.83C87.8,198.08,88.27,198.06,89.51,194.76Z" transform="translate(-62.84 -35.46)"/><path class="cls-1" d="M115.53,151a41,41,0,0,0-10.66.45l-3.08.49c1.13.91,2.33.3,3.51.18,3.27.52,6.55,1,9.82,1.57A22.9,22.9,0,0,0,127.75,152c.33-.14,1.27-.08.73-1C124.16,152.05,119.85,151.45,115.53,151Z" transform="translate(-62.84 -35.46)"/><path class="cls-1" d="M120.31,164.5c0-.41.74-.71.2-1.22l-1.22.66a15.51,15.51,0,0,1-4.5,2.65c-9.26,4.16-15.68,11.22-20.63,19.88-2,3.55-3,7.58-5.17,11-.31.5-.11.78.23,1.08s.65.55,1,.82c2.22,1.82,2.8,1.74,3.56-.93,3-10.68,9.59-18.83,18.1-25.62a80.75,80.75,0,0,0,8.07-7.84Z" transform="translate(-62.84 -35.46)"/><path class="cls-1" d="M93,164.8c4.93-3.31,10.8-4.32,16.57-5.34,2.93-.52,5.85-1.12,8.79-1.63,2-.35,3.83-1.48,5.84-1.91,1-.11,1.74-.86,2.67-1.15-.54-1-1.11.35-1.66,0l-1.17.54c-4.76,1.67-9.68,1.43-14.6,1.19-.73,0-1.46,0-2.19,0-16.88,0-30.13,12.11-31.62,28.91.27.35.4.53.6-.11C79,176.11,85.42,169.89,93,164.8Z" transform="translate(-62.84 -35.46)"/><path class="cls-1" d="M99.05,156.42a45.7,45.7,0,0,1,11.44-.82c3.26.15,6.56.55,9.8-.31a8.21,8.21,0,0,0,3.27-.7c0-.16-.08-.32-.13-.48l-3.61.56a25.72,25.72,0,0,1-6.49-.57,37.55,37.55,0,0,0-15.72-.63,55.82,55.82,0,0,0-14,7.25C75.83,166.08,73,173.89,73.24,183a5.27,5.27,0,0,0,1.39,4l.24-.28a18.47,18.47,0,0,1,.09-4C76.54,172,85.77,159.17,99.05,156.42Z" transform="translate(-62.84 -35.46)"/><path class="cls-1" d="M118.42,204.38c1-3.44.41-6.87-.32-10.23a33.7,33.7,0,0,1-.31-14.38l.39-2.62a22.63,22.63,0,0,0-3.74,13.56,59.87,59.87,0,0,0,1,8.12,20.1,20.1,0,0,1,.34,5.08,5.17,5.17,0,0,1-2,4.16C117,208.25,117.52,206.11,118.42,204.38Z" transform="translate(-62.84 -35.46)"/><path class="cls-1" d="M121.41,172.08a11.19,11.19,0,0,0,.27-1.43c-1.91,2.71-2.26,5.75-3.16,8.59a42.69,42.69,0,0,0,.61,16.39c.59,2.65,1.16,5.49.08,8.24a6.81,6.81,0,0,1-2.12,4.12c-1,.88-.39,1.36.31,1.81a2.77,2.77,0,0,0,4.14-2.09,36.64,36.64,0,0,0-1-10.11C118.69,189,118.61,180.5,121.41,172.08Z" transform="translate(-62.84 -35.46)"/><path class="cls-1" d="M114.92,203.55a28.21,28.21,0,0,0-.85-7.59c-1.55-7.73.24-14.83,4.09-21.54,1.15-2,1.89-4.43,3.5-5.95,3.15-3,5.12-6.92,8.47-9.68.84-.69,1.59-1.49,2.37-2.24.66-1.15,1.8-2,2.11-3.4-3.8,3.82-8.27,6.91-11.66,11.16a34.4,34.4,0,0,1-2,3.08c-.11.13-.22.26-.34.38v.13l-.12,0c-2.11,3.83-4.23,7.66-6.31,11.51-3.82,7-5.56,14.48-4.27,22.49.33,2.06.58,4.11-.59,6.07C113.31,207.89,114.6,207.93,114.92,203.55Z" transform="translate(-62.84 -35.46)"/><path class="cls-1" d="M108.7,198.72c-1.12,2-1.55,3.79-2.51,5.3-.48.77-1.84,1.16-1.46,2.24s1.63.77,2.57.85c.62,0,.42.57.5.94,1.46-.37,1.56-1.67,1.54-2.75C109.29,203.28,109,201.26,108.7,198.72Z" transform="translate(-62.84 -35.46)"/><path class="cls-1" d="M107.81,208.1a.09.09,0,0,1,0,0h0Z" transform="translate(-62.84 -35.46)"/><path class="cls-1" d="M105.68,203a15.46,15.46,0,0,0,2.33-6.49c.49-8.38,4.16-15.53,8.22-22.58.69-1.2,1.33-2.43,2-3.65l-.18-.15c-1.84,2.37-3.62,4.8-5.55,7.11a38,38,0,0,0-9,21.16c-.19,2-.43,4.15-2,5.77-.22.23-.39.48-.13.79a1.38,1.38,0,0,0,1.47.49A4.45,4.45,0,0,0,105.68,203Z" transform="translate(-62.84 -35.46)"/><path class="cls-1" d="M74.94,146.77A7,7,0,0,0,72.69,149l0,0c-.06.08-.12.17-.19.25a6.31,6.31,0,0,0,2.45-1.64c7-5.32,15.26-7.59,23.41-10.19a23.78,23.78,0,0,1,7.37-1.06,78,78,0,0,1,20,2.68,72.48,72.48,0,0,0,13.79,2.37c.74.05,1.61.32,2.06-.65l-1.72-.57c-.63.32-1.19-.06-1.74-.22-5.72-1.66-11.44-3.29-17.13-5a28.68,28.68,0,0,0-17.39-.3c-9.22,2.89-18.45,5.75-26.9,10.61Z" transform="translate(-62.84 -35.46)"/><path class="cls-1" d="M116.9,133.19c3.77.9,7.5,2,11.23,3,3.19.89,6.37,1.84,10.05,2.9L136,137.4l-.17-.14-6.55-3.57-.08,0a49.42,49.42,0,0,0-10.58-2.87c-5.83-.88-11.31.5-16.72,2.42l-2.33,1.2c-2.09.69-2.09.69-2.49,1.62h0L99.77,135h0C105.36,133.15,111,131.79,116.9,133.19Z" transform="translate(-62.84 -35.46)"/><path class="cls-1" d="M66,150.91c3.08-8.06,8.78-13.89,15.76-18.63,3.22-2.17,6.31-4.51,9.89-6.15,10.56-4.84,21.06-5.45,31.61-.06.09-.17.92,0,.2-.55-6.65-5.16-14-6.79-22.15-4.42-5,1.44-9.78,3.31-14.65,5C78,131.32,70.89,138.05,66.11,147a11.14,11.14,0,0,0-1.34,6.86A8.84,8.84,0,0,0,66,150.91Z" transform="translate(-62.84 -35.46)"/><path class="cls-1" d="M72.55,178.23c1-8.34,4.87-14.92,12.06-19.37,6.23-3.84,12.63-7.32,20.06-8.26,2.32-.29,4.65-.54,7-.81,3.8.24,7.57,1,11.39,1a13.1,13.1,0,0,0,4.13-.48c1,.31,1.91-.22,2.85-.45-1-.6-2-.15-3,0h0l-15.82-.69a4.89,4.89,0,0,0-2.49-.08c-7.42.34-14.65,1.37-21.24,5.2-7.33,4.28-14.39,8.78-17.32,17.42A11.07,11.07,0,0,0,72,179.27C72.49,179,72.5,178.66,72.55,178.23Z" transform="translate(-62.84 -35.46)"/><path class="cls-1" d="M140.58,137.26h0a103.33,103.33,0,0,0-13.24-6.05c-7.68-2.67-15.29-3.83-23.39-1.55-8.44,2.38-17,4.21-24.37,9.34a32.8,32.8,0,0,0-10.64,11.8c-.35.68-.91,1.31-.72,2.18l2.58-3a20.76,20.76,0,0,1,5.72-5.33,4.81,4.81,0,0,1,2.07-1.43c4.82-2.55,9.89-4.56,14.91-6.67a79.69,79.69,0,0,1,8.31-3.79,25,25,0,0,1,5.68-2,31.57,31.57,0,0,1,20.33,1.65c4.19,1.48,7.84,4,11.58,6.25l.31.15c2.37.69,4.61,2,7.25,1.66A38.82,38.82,0,0,1,140.58,137.26Z" transform="translate(-62.84 -35.46)"/><path class="cls-1" d="M96.15,118.88c-.06-.21-.13-.42-.2-.63-2.33.68-4.68,1.31-7,2a31.82,31.82,0,0,0-16,11.6c-3.53,4.67-7.43,9.07-8.58,15.06-.11.57-.43,1.13-.16,1.74C70.87,134.44,83.38,126.52,96.15,118.88Z" transform="translate(-62.84 -35.46)"/><path class="cls-1" d="M113.47,148.42c5.94.4,11.87,1,17.84.4.51-.42,1.31-.27,1.87-1.07a94.45,94.45,0,0,1-11.21-2.1c-13.7-2.94-25.94,1.08-37.54,7.91a37.2,37.2,0,0,0-10.36,8.5,19.06,19.06,0,0,0-3.75,6.29c1.46-1,2.05-2.71,3-4.12,0,0,0,0,0-.06h.07C84.23,152.56,97.61,147.38,113.47,148.42Z" transform="translate(-62.84 -35.46)"/><path class="cls-1" d="M77,157.8a61.16,61.16,0,0,1,33.5-14c4.61-.5,9.08.41,13.53,1.47,1-.25.49-.49,0-.69-4.37-1.82-8.87-3-13.67-2.54a72.49,72.49,0,0,0-30.1,9.31,25.19,25.19,0,0,0-12.51,18.57c.22,1.11.08,2.32,1,3.47a44.24,44.24,0,0,1,.93-5.4C71,163.8,73.71,160.58,77,157.8Z" transform="translate(-62.84 -35.46)"/><path class="cls-1" d="M91.82,132.22a118.52,118.52,0,0,1,20-4.93c.8.35,1.63-.05,2.43.12-.78-1-1.86-.72-2.88-.69a32.83,32.83,0,0,0-15,2.16c-5.82,2.42-11.48,5.23-17.49,7.2-7.12,4.46-11,11.16-13.52,19.32a2.58,2.58,0,0,0,1.17-1.47C71.34,142.47,80.39,135.91,91.82,132.22Z" transform="translate(-62.84 -35.46)"/><path class="cls-1" d="M109.27,123.24c-8.4-.4-15.91,2.29-22.83,6.87-2.18,1.45-4.3,3-6.45,4.46.43.56.84.09,1.21,0a78.69,78.69,0,0,0,8.07-3.33c7.28-3.61,14.81-6.12,23.11-5.08,1.91.24,3.89.29,5.47,1.65,5.73,1,11.12,3,16.82,5.29a6.56,6.56,0,0,0-.83-.74C126.05,128.21,118.41,123.66,109.27,123.24Z" transform="translate(-62.84 -35.46)"/><path class="cls-1" d="M85,148A84.38,84.38,0,0,1,108,141.56a28.46,28.46,0,0,1,15,1.9,28.89,28.89,0,0,0,12.78,2.38c.91-.45,2.23,0,2.88-1.4-6.05.32-11.73-1.24-17.31-3-7-2.15-13.92-1.68-20.9-.25a78.42,78.42,0,0,0-21,7.62A32.27,32.27,0,0,0,68.2,159.24a9.74,9.74,0,0,0-1.6,9.12c.29.15.56.24.66-.22C69.57,158.29,75.89,152,85,148Z" transform="translate(-62.84 -35.46)"/><path class="cls-1" d="M131.2,195.3a87.08,87.08,0,0,0,2.48,10,8,8,0,0,0,.61-6.07c-.64-2.72-1.39-5.41-2.18-8.1a27.07,27.07,0,0,1-1-11.17c1.63-12.5,6.28-23.66,14.65-33.19.95-1.08,2.28-1.82,3.11-3.43a24.79,24.79,0,0,0-9.59,8.38C129.88,165,127.53,179.6,131.2,195.3Z" transform="translate(-62.84 -35.46)"/><path class="cls-1" d="M355.36,170.37a33.93,33.93,0,0,1-7.5-8.87,31.69,31.69,0,0,0-13.66-12,2.66,2.66,0,0,0-2-.15c6.56,3.24,10.48,8.91,14,15,2.39,4.08,5.47,7.46,10,9.21a11.41,11.41,0,0,0,5.68.88A41.45,41.45,0,0,1,355.36,170.37Z" transform="translate(-62.84 -35.46)"/><path class="cls-1" d="M355,163.93a109.57,109.57,0,0,0-8.51-8.73l-5.92-4.45a5.67,5.67,0,0,0-2.63-.36c-.18.35.05.46.26.57a27.62,27.62,0,0,1,10.05,9.57c2.82,4.29,5.92,8.28,10.34,11.13a13.88,13.88,0,0,0,13,1.59c-1.81-.45-3.46-.78-5.06-1.28C361.83,170.52,358.2,167.5,355,163.93Z" transform="translate(-62.84 -35.46)"/><path class="cls-1" d="M333.06,141.28a28.23,28.23,0,0,1-4.87,2.4,20,20,0,0,1-14.67.13l0,0c-1.61-.37-2.6-1.7-3.91-2.52a7,7,0,0,0-2.08-2.3,4.24,4.24,0,0,0,1.28,2.25c2.45,3,5.22,5.63,9.14,6.69a31,31,0,0,0,4.28.67l4.28-1a30.44,30.44,0,0,0,7.77-6.58C333.72,140.53,333.39,141.07,333.06,141.28Z" transform="translate(-62.84 -35.46)"/><path class="cls-1" d="M345.85,152.25l-.56-.24c-.76-.07-1.33-.95-2.37-.44,1.52,1.47,3.5,2.25,4.8,3.85a54.37,54.37,0,0,1,7.35,7.28c4.05,4.52,8.65,8.15,14.79,9.35a18,18,0,0,0,6.86.09c-.22-1.09-1.16-.64-1.74-.7a19.42,19.42,0,0,1-13.2-6.61A56.22,56.22,0,0,0,348.84,154h0l-3.3-1.81A1.86,1.86,0,0,0,345.85,152.25Z" transform="translate(-62.84 -35.46)"/><path class="cls-1" d="M335.19,152.34a8.27,8.27,0,0,0-3.79-2.21,6,6,0,0,0,2.59,2A15.58,15.58,0,0,1,338.5,159c1.35,3.88,3.05,7.55,6.1,10.42a15.1,15.1,0,0,0,8.52,3.87c-4.61-2.85-7.13-7.38-9.8-11.77A28.88,28.88,0,0,0,335.19,152.34Z" transform="translate(-62.84 -35.46)"/><path class="cls-1" d="M365.59,113.53a119.33,119.33,0,0,1-1.39,14.35,23.48,23.48,0,0,1-2.67,7.52c-1,3.48-3.32,6.1-5.8,8.59a30.3,30.3,0,0,1-4.94,3.94l-2.16.93.16.5,2.16-.89c6.61-1.85,10.88-6.13,13.11-12.58,1.28-3.67,2.67-7.3,4-10.95h0a112.26,112.26,0,0,0,1.65-11.55,36.61,36.61,0,0,1,6.05-16.81A34.11,34.11,0,0,0,377.84,93a24.41,24.41,0,0,0-7.23,6.68A25.07,25.07,0,0,0,365.59,113.53Z" transform="translate(-62.84 -35.46)"/><path class="cls-1" d="M314.77,63.91A26.68,26.68,0,0,1,326.2,65c6,1.54,10.79,5.11,15.21,9.29,3.73,3.54,6.34,7.91,9.27,12.05a11.37,11.37,0,0,0,1.55,2.54h0l.55-.18-1.47-2.54a97.17,97.17,0,0,0-6.56-11.08c-4.8-6.75-11.31-10.7-19.28-12.83a34,34,0,0,0-20.07.63c-1.9.64-3.83,1.22-5.7,2,3.7.34,7.31-.44,11-.52C312,64.25,313.39,64.05,314.77,63.91Z" transform="translate(-62.84 -35.46)"/><path class="cls-1" d="M326.37,65.58c-.41-.07-.83-.11-1.23-.22a31.86,31.86,0,0,0-11.55-.63c-.31,0-1.12-.23-.48.6,7.29,1.16,14.57,2.3,20.44,7.39a88.29,88.29,0,0,1,10.18,10.91,46.08,46.08,0,0,0,10.07,9.44c.09-.19.2-.33.17-.37-3.41-5-6.59-10.08-10.32-14.78A36.79,36.79,0,0,0,326.37,65.58Z" transform="translate(-62.84 -35.46)"/><path class="cls-1" d="M353,116.61c-3.94,5.1-7.24,10.64-11,15.86a8.57,8.57,0,0,1-2,2.55c-3.31,4.57-6.86,8.91-11.51,12.22-.32.22-1,.22-.73.94,4.67-.05,9.22,1,13.83,1.45,9-.4,14.49-5.9,18.84-13,3.78-7.06,3.8-14.87,4.29-22.54a26.53,26.53,0,0,1,5.15-14.73,10.47,10.47,0,0,0,.54-1c-1.58.46-2.35,1.61-3.3,2.46-2.69,2.44-5.23,5.06-7.93,7.49S355.1,113.88,353,116.61Z" transform="translate(-62.84 -35.46)"/><path class="cls-1" d="M370.46,114.39a49.25,49.25,0,0,1-1.55,9.71h0c-1.12,5.06-3.21,9.79-5.17,14.55a16.8,16.8,0,0,1-10.27,9.73c-1.83.65-3.66,1.31-5.5,1.94-.5.17-.61.32-.37.5l.33.18a32.67,32.67,0,0,0,8.93-1.64,15.64,15.64,0,0,0,9.13-8.9c.43-1,.94-2,1.41-3l0-.05c6.1-14.76,7.9-30.79,13.42-45.76-.78.09-1.2.84-1.62,1.41C374.56,99.48,371,106.27,370.46,114.39Z" transform="translate(-62.84 -35.46)"/><path class="cls-1" d="M326.28,143.61c3.18-.91,5.92-2.71,8.82-4.18l1.89-1.86h0c.91-.55,1.35-1.5,2.29-2.47a4,4,0,0,0-2.07,1.39c-7,5-14.66,6.56-23,3.83-4.24-1.39-6.58-4.81-8.77-8.37-.81.76,0,1.45.22,2a22.81,22.81,0,0,0,5.59,7.91C316,144.79,321,145.09,326.28,143.61Z" transform="translate(-62.84 -35.46)"/><path class="cls-1" d="M134.15,169.57c-1.41,5.42-2.85,10.85-2.19,16.52.48,4.18,1.94,8.15,3,12.21a10.22,10.22,0,0,1-.71,7.72,4.39,4.39,0,0,0,4.62-2.24c1.82-3.16,1.7-6.5.8-9.89-1.13-4.23-2.84-8.27-3.85-12.54a31.18,31.18,0,0,1-.55-13.18l.66-2.73A7.48,7.48,0,0,0,134.15,169.57Z" transform="translate(-62.84 -35.46)"/><path class="cls-1" d="M311.78,65.53h0Z" transform="translate(-62.84 -35.46)"/><path class="cls-1" d="M134.69,129.12c-3.78-3-7.82-5.59-11.85-8.21a35.32,35.32,0,0,0-15.64-3.69,24.27,24.27,0,0,0-13,3.77c-1.82,1.09-3.58,2.28-5.37,3.43.57.42,1-.08,1.47-.25,3.52-1.32,7-2.68,10.66-3.69,7.33-2,14.28-1.45,20.7,3a103.69,103.69,0,0,0,11.57,6.88c.74.38,1.59.66,2,1.5l3.29,2.27.31.19,7.38,4c2.86.85,5.65,2.19,9.12,1.3-2.82-1-5.31-1.74-7.74-2.67A49.84,49.84,0,0,1,134.69,129.12Z" transform="translate(-62.84 -35.46)"/><path class="cls-1" d="M142.29,146.92a33.35,33.35,0,0,1,2.59-2.29c1.2-.8,2.74-1.11,3.51-2.51-1.16.57-2.5.75-3.5,1.64-4.24,2.27-6.84,6-9.14,10.06A3.67,3.67,0,0,1,135,155a69.41,69.41,0,0,0-8.8,25.93,58.43,58.43,0,0,0,.62,19.61,10.12,10.12,0,0,0,2.31,4.9,2.15,2.15,0,0,0,2.79.56c1.2-.56.51-1.47.33-2.21-1.74-7.09-3.57-14.16-3.59-21.54A50.08,50.08,0,0,1,142.29,146.92Z" transform="translate(-62.84 -35.46)"/><path class="cls-1" d="M285.58,96.89A73.84,73.84,0,0,1,296,108.34c3.21,4.13,6.48,8.22,9.64,12.39,4,5.3,9.55,7.17,15.93,7.48a29.61,29.61,0,0,0,16.2-3.43c2.49-1.38,5.13-2.51,7.69-3.78a4.85,4.85,0,0,0,2-1.53c-.55-.42-1,.4-1.49.1-2.38,1.33-5,1.8-7.64,2.43-3.78,1.26-7.72,1.47-11.64,1.76-5.4.4-9.83-1.8-14-4.64-.17-.1-.33-.22-.5-.34l-1-.68h0a25.14,25.14,0,0,1-2.24-1.52,161.61,161.61,0,0,1-14.29-14.26C289,96.2,282.77,91,274.7,88.48a28.77,28.77,0,0,0-9.2-1.67c0,.56.49.64.9.73a58.58,58.58,0,0,1,11.75,4.29A24.63,24.63,0,0,1,285.58,96.89Z" transform="translate(-62.84 -35.46)"/><path class="cls-1" d="M349.22,120.11l-.43.47A1.7,1.7,0,0,0,349.22,120.11Z" transform="translate(-62.84 -35.46)"/><path class="cls-1" d="M131.11,160.61c.19-.38.42-.74.63-1.1h0c.13-.29.27-.59.41-.88-.78-.16-1,.53-1.46.91-6.68,6-9.61,13.68-10.47,22.4-.58,6,.36,11.75,1.44,17.56a23.82,23.82,0,0,1,.49,8.86c.23,1,1,.78,1.56.57a6.61,6.61,0,0,0,4.13-3.25c-3.45-6.67-3.43-13.91-2.93-21A62.62,62.62,0,0,1,131.11,160.61Z" transform="translate(-62.84 -35.46)"/><path class="cls-1" d="M265.08,86.14c.56-.2,1.21.1,1.74-.29l3,0a23.53,23.53,0,0,1,8.8.65c4.08.77,7.39,3.07,10.63,5.44a98.17,98.17,0,0,1,17,15.62c6.39,7.55,14.51,11.06,24.19,11.71a47.27,47.27,0,0,0,13.94-.78,18.8,18.8,0,0,0,10.51-7l-.21-.22,0,0a12.44,12.44,0,0,0-1.21.61,28.67,28.67,0,0,1-18.84,4.38c-9.8-1-18.07-5.46-25.17-12.13-4.38-4.12-8.34-8.7-13.69-11.67l-8.18-3.94a34.48,34.48,0,0,0-19-3.55,3.44,3.44,0,0,1-2,0,1.15,1.15,0,0,1-.19.26,6.93,6.93,0,0,0-1.51.36C264.35,85.89,265,86,265.08,86.14Z" transform="translate(-62.84 -35.46)"/><path class="cls-1" d="M327.67,133.77c6.83-1.44,12.43-5.6,17.35-10.53a7.79,7.79,0,0,0,.72-1.29c-2.9,1.36-5.52,2.44-8,3.78-7.58,4.09-15.49,4.09-23.59,2.13-4.08-1-6.93-3.72-9.42-6.84-4.52-5.65-8.88-11.43-13.41-17.06-1.53-1.91-2.93-4-5-5.4l-1.95-1.94a16.61,16.61,0,0,0-3.8-2.18l1.91,1.78,2.62,2.12a21.37,21.37,0,0,1,2.94,3c1.66,2.36,3.39,4.68,5,7.09,3.25,5,6.28,10.13,9.65,15C308.72,132.29,317.23,136,327.67,133.77Z" transform="translate(-62.84 -35.46)"/><path class="cls-1" d="M321.54,140.86a24.57,24.57,0,0,0,17.26-6.59c.39-.37.84-.68,1.26-1,3.33-3.9,5.85-8.36,8.67-12.6l.21-1.08a16.7,16.7,0,0,0-3,3.66,5.56,5.56,0,0,1-1.1,1.44c-8.07,6.87-16.62,12.49-28,9.81a21,21,0,0,1-12.75-8.1,3.21,3.21,0,0,0-.7-.55c-.33.11-.27.4-.17.59,2.13,4,4.22,8,7.65,11C313.89,140.06,317.64,140.87,321.54,140.86Z" transform="translate(-62.84 -35.46)"/><path class="cls-1" d="M340.21,120.14a56.6,56.6,0,0,1-14.48-.58,32.22,32.22,0,0,1-19.87-11.18,102.27,102.27,0,0,0-20.34-18.11,24.55,24.55,0,0,0-6.4-3c-1.46-.2-2.92-.49-4.4-.55-1,0-2.05-.65-3,.25a8.92,8.92,0,0,1,3.75.79c8,3,14.39,8,20.16,14.23s11.17,12.68,18.41,17.25c.81.41,1.62.8,2.42,1.23A19.46,19.46,0,0,0,328,123c3.43-.34,6.81-.88,10.21-1.39l2.5-.82c1.87.12,3.4-1.25,5.26-1.2.16-.41.16-.63-.42-.5C343.77,119.43,342,119.78,340.21,120.14Z" transform="translate(-62.84 -35.46)"/><path class="cls-1" d="M266.6,85l.67-.47A35.61,35.61,0,0,1,289,88.31c1.52.76,3.05,1.48,4.58,2.22,5.62,2.49,10.13,6.43,14.31,10.83,6.4,6.72,13.92,11.6,23.1,13.57a29.28,29.28,0,0,0,21.66-3.35,2.3,2.3,0,0,0,1.33-1.4c-9.67,3.7-19.29,4.74-28.72-.73a34.93,34.93,0,0,1-6.83-5.4c-2.89-2.8-5.63-5.74-8.43-8.62l-.08-.08c-4.9-4-9.63-8.52-15.83-10.31-8.81-2.54-17.84-3.47-26.92-1.09a7,7,0,0,0-2.49.74C265.22,85.31,266,84.4,266.6,85Z" transform="translate(-62.84 -35.46)"/><path class="cls-1" d="M85.11,145.16a79.77,79.77,0,0,1,23.78-6.07c5.42-.5,10.5,1,15.61,2.29,4.25,1.09,8.49,2.2,12.92,2.07a13.31,13.31,0,0,0,5-1c0-.47-.42-.36-.68-.35-5.89.07-11.57-1.14-17.25-2.56-7-1.77-14.2-3.11-21.46-2.21-8.36,1-16.06,4.31-23.49,8.12-3.29,1.69-6,4.31-9,6.47a13.44,13.44,0,0,0-4.66,9,65.27,65.27,0,0,1,5.36-6.9C75.12,149.91,80,147.33,85.11,145.16Z" transform="translate(-62.84 -35.46)"/><path class="cls-1" d="M134.58,38.66c-4.37,5.28-5.3,11.32-4,17.85.72,3.45,1.54,6.87,2.31,10.31,4.91,12.63,13.74,22,24.36,30.09a51.24,51.24,0,0,0,17.53,9.1c.67.18,1.35.32,2,.47l.15-.41c-1.71-.94-3.41-1.91-5.15-2.81a22.78,22.78,0,0,1-5.49-3.89c-3.71-3.61-7.77-6.81-11.81-10-8.74-7-14.92-15.93-19.2-26.22a41.94,41.94,0,0,1-3.07-10.65,19.18,19.18,0,0,1,4.63-15.36l-2.33,1.56Z" transform="translate(-62.84 -35.46)"/><path class="cls-1" d="M167.73,104.44l-2-.64c1.3,1.56,3,2.19,4.44,3.08.47.29,1.28.31,1,1.22a6.88,6.88,0,0,0,3.45,1.58,12.9,12.9,0,0,0,9.35.94c2.29.2,4.3-1.1,6.56-1.31a4.15,4.15,0,0,0-2.57-.61,52.29,52.29,0,0,1-19.46-4A2.4,2.4,0,0,1,167.73,104.44Zm5.75,4.28-.19,0-.16-.13Z" transform="translate(-62.84 -35.46)"/><path class="cls-1" d="M165.31,97.36c4.25,4.39,9.74,6.81,15.05,9.49a10.88,10.88,0,0,0,6.18.65,150,150,0,0,1-13.19-7.35c-5.53-3.52-10.65-7.61-16-11.39-4.08-2.89-7.13-6.94-11-10.08-.49-.39-.85-1.07-1.65-.8a61,61,0,0,0,13,12.94A59.16,59.16,0,0,1,165.31,97.36Z" transform="translate(-62.84 -35.46)"/><path class="cls-1" d="M194.07,121.15c-3.36,2.95-7.57,4.74-10.74,8a25.53,25.53,0,0,1-6.48,5.12l-.06.67c6.86-3,12.45-7.75,17.39-13.31,0-.12,0-.24,0-.36S194.08,121.14,194.07,121.15Z" transform="translate(-62.84 -35.46)"/><path class="cls-1" d="M200.19,111.9c1-.25,2.16-.16,3.19-1.19a26.14,26.14,0,0,0-5.81.62C198.28,112.28,199.37,111.47,200.19,111.9Z" transform="translate(-62.84 -35.46)"/><path class="cls-1" d="M200.13,113.51l-1.21.65c-3.33,2.9-7.28,5-10.47,8.08a39.45,39.45,0,0,0-4,4,1.79,1.79,0,0,0-.46.5l-2.63,2.82c.1.14-.27.76.16.43a27.86,27.86,0,0,0,2.71-2.62c4.15-3.2,8.78-5.76,12.61-9.4.25-.31.43-.69.87-.8l2.41-2.69,2.59-2A4.64,4.64,0,0,0,200.13,113.51Z" transform="translate(-62.84 -35.46)"/><path class="cls-1" d="M160.49,125.38a32.06,32.06,0,0,1-18.66-.33l-4.08-2.22c-.08.14-.17.28-.26.42a4.57,4.57,0,0,0,1.93,1.68c6.16,5.39,13.36,5.62,20.94,4.33,7-1.19,12.52-5,17.72-9.56,3.62-3.14,7.24-6.33,12.15-7.4,2.31-.5,4.6-1.14,6.89-1.71h0a7.42,7.42,0,0,0,2.51-.55,3.81,3.81,0,0,0-2.45-.12,24.88,24.88,0,0,0-15.2,4.51C175.29,118.94,168.42,123.21,160.49,125.38Z" transform="translate(-62.84 -35.46)"/><path class="cls-3" d="M173.48,108.72l-.35-.16.16.13Z" transform="translate(-62.84 -35.46)"/><path class="cls-3" d="M139.13,205.71v0l.55-.41h0A.73.73,0,0,0,139.13,205.71Z" transform="translate(-62.84 -35.46)"/><path class="cls-3" d="M137.4,35.46l-1.09.59h.35s0,0,0,.06a.61.61,0,0,1,.05.18l-2.21,1.58-.28.57c-1.34.8-1.53,2.54-2.8,3.39-1.43,0-1.33,1.74-2.45,2.08a6.09,6.09,0,0,1-2.12,1.78l-2.69,2.66c0,.4-.35.57-.62.78l0,0-.37.22h0c-.89.6-1,1.72-1.66,2.46-1.39,3.73-2.81,7.45-4.17,11.19a26.58,26.58,0,0,0-1.7,13.12c-1.14,5.16-.19,10.22.78,15.28.17.87.6,1.75-.08,2.59-.48.48.24.85.12,1.3-.35,2.69.72,5.09,1.66,7.48a16.35,16.35,0,0,0,3.11,5.1,13.1,13.1,0,0,0,3.39,4c3.38,2.55,6.13,5.74,9.13,8.66,2.52,2.44,5,4.89,7.69,7.16a41,41,0,0,0,14.59,7.9c1.54,1.67,3.59,1.84,5.66,1.94,5.07.26,10.09.44,14.93-1.71a52.24,52.24,0,0,0,20.21-16.18c2.59-3,5.14-6.06,8.63-8.11.42.83-.37,1.19-.73,1.63-1.31,1.64-2.71,3.22-4.08,4.82-4,3.79-7.71,8-12.06,11.5a53.92,53.92,0,0,1-15.66,8.71,24.64,24.64,0,0,0-4.57.9c-1.44.13-2.9.18-4.34.39-5.3.76-10-1.37-14.81-3-6.79-2.33-12.27-6.84-17.88-11.1a16.5,16.5,0,0,0-3.36-2.17,3.54,3.54,0,0,0-.42-.35,19.18,19.18,0,0,0-3.38-2.08l-.64-.36c-3.81-2.53-8.15-3.49-12.58-3.9a49.36,49.36,0,0,0-29.25,6c-5.45,3-9,8.09-12.65,12.91a27.29,27.29,0,0,0-5.84,13.18c-.26,2-.85,4.08.56,6.06.84,1.17.57,2.67.32,4.07-.11.6-.44,1.37.59,1.58a28.74,28.74,0,0,0,1.27,8.24,2.08,2.08,0,0,0,.43,1.52c.7,1.67.32,3.95,2.68,4.71.22.07.27.64.39,1,1.19,3.26,2.91,6.3,3.47,9.8a5.75,5.75,0,0,0,3.92,4.8c.44,1,.83,2,2.16,2,.8,0,.85.85,1.16,1.38,2,1.29,4,2.73,6.07,3.94,1.6,1,3,2.13,4.52,3.12,1.8,1.16,3.07.82,3.6-1.2,3-11.24,9.86-19.64,18.79-26.64.48-.37.95-.76,1.41-1.16l1.42-1.28.07,0,0,0a28.08,28.08,0,0,1-4.2,5.88A38,38,0,0,0,102.68,198a13.73,13.73,0,0,1-1,4.43,2.36,2.36,0,0,1-3.07,1.52,11.84,11.84,0,0,1-2.52-1c-.79-.42-1.16-1.41-2.48-1.66A6.34,6.34,0,0,0,98,204.62a32.75,32.75,0,0,1,3.47,1.33c2,.85,3.88,2.6,6.36,2.15.8,1.46,2.12,1.09,3.27.73a7.43,7.43,0,0,1,4.13.12c.64.15.73.73,1,1.18,1.91,1.39,3.74,1.13,5.53-.22l3.09-.48c1.12-.88,2.65-1.29,3.24-2.8,1.72.4,3.48.1,5.19.33a6.25,6.25,0,0,0,7-4,13.33,13.33,0,0,0,.81-6.64,32.25,32.25,0,0,0-1.63-6.17c-1.5-4.69-3.21-9.33-3.72-14.29a31.81,31.81,0,0,1,2.74-15.62c.5.49.29.95.26,1.34a37,37,0,0,0,3.75,20,32.17,32.17,0,0,1,2.87,8.64,26.6,26.6,0,0,1-.66,7.75,11,11,0,0,1-5.18,6.6c4.57-.74,7.61-8.23,6.44-14.56a18.48,18.48,0,0,0-1.39-5.61c-1.41-3.79-3.61-7.29-4.14-11.4-2.83-12-.06-20.74,8.73-28.21.68-.58,1.55-1,2-1.81.74-.42,1.45-.88,2.2-1.26a3.41,3.41,0,0,1,5.06,2.1c1.95,5.64,2.08,11.47,1.63,17.31-.39,5.07-.45,10,1.23,14.94,2.88,8.4,7,11.67,15.82,12.43a25.44,25.44,0,0,0,10.09-.82c5.32-.67,9-4,12.15-7.9,3-3.66,6.11-7.2,9.3-10.69h0c2.76-1.83,5.92-2.19,9.11-2.46,1.37-.12,2.78.18,4.1-.4,6.16,1.15,10-2.21,10-8.36,0-2.46.59-4.92,0-7.4-.1-.43.13-.65.52-.82a1.61,1.61,0,0,0,.9-1.1c.88-3.12,2.71-6.11,1.36-9.56-.42-1.08.94-1.82.7-2.91.15-.75.29-1.51.43-2.26.42-.15,1,.08,1.19-.56,1.44-4.76,5.61-6.86,9.34-9.25,2.45-1.57,4.46-3.3,5.32-6.14,1.15-2.38.44-4.76-.11-7.09a56.44,56.44,0,0,0-3.86-10.89,10.5,10.5,0,0,0-2.92-4.07c-.56-.56-.58-.87.21-1.11a26.67,26.67,0,0,0,7.25-3.64c.15-.09.44,0,.66,0,1.85,0,3.48-.88,5.23-1.27a20.4,20.4,0,0,1,9-.16c5.43,1.18,10.71,2.64,14.91,6.56a.53.53,0,0,0,.15.15l5.06,5.07c5.14,6.19,8.82,13.3,12.67,20.29.38.69.81,1.34,1.22,2,.67,2.09,2.14,3.82,2.65,6,1.24,6.36,3.28,12.3,8.83,16.32a14.46,14.46,0,0,0,9.83,3,5.42,5.42,0,0,0,1.25.16c6.12-.63,9.83,2.95,12.89,7.5a18.93,18.93,0,0,1,1.82,4.36c2.93,8.45,9.07,12.83,17.73,13.92a45,45,0,0,0,27.68-5.15c.9-.48,2.47-.55,1.89-2.46-1.62,1.67-3.6,1.31-5.58,1.06a21,21,0,0,1-13.33-6.48,14.18,14.18,0,0,0-1.23-1.08l-.26-.27c-2.76-2.84-6.43-4.26-10-6.17,1-.31,1.64.17,2.33.32s1.51.4,2.27.6c3.69.64,6.49,2.87,9.21,5.22a22.17,22.17,0,0,0,14.63,5.7,2.39,2.39,0,0,0,2.46-.87c-8.85.87-15-3.67-21-9l.05-.1,2.1.52c4.43,2.23,8.58,5.09,13.55,6.12a8.44,8.44,0,0,0,4.32-.16c.3-.09.6-.22.46-.62s-.36-.21-.58-.15c-3.15.87-6-.21-8.78-1.48-1.9-.87-3.69-2-5.67-3.07a14.89,14.89,0,0,1,4.62.83,36.25,36.25,0,0,0,7.63,1.68,16.69,16.69,0,0,0,2,0c.34,0,.81,0,.78-.52s-.46-.4-.82-.37c-4.05.35-7.72-1.4-11.58-2.08-.53-.1-.24-.4-.1-.64,3.27-.52,6.56.27,9.84-.13a6,6,0,0,0,3-1c-1.45-.27-2.48.33-3.57-.08a.49.49,0,0,1,0-.12c.82-1.13,2.61-.95,3.18-2.74a23.49,23.49,0,0,1-5.43,2.13l0,0c1.61-2,4.41-2.21,5.45-4.95-1.13.59-1.57,1.43-2.56,1.57.4-1.73,2.29-2.67,2.33-4.93-2.82,3.35-4.19,7.86-9.47,8.1a31.67,31.67,0,0,0,9.11-12.86c-1.59,2.38-3.14,4.79-4.78,7.14A33.74,33.74,0,0,1,375,154a6.73,6.73,0,0,1-3.65,1.53c-.24-.59-1.75,1-1.31-.76,4.24-2,7.33-5.35,10.22-8.88,1.57-1.93,2.91-4.05,4.34-6.09a1.4,1.4,0,0,0,.22-1.78,67.62,67.62,0,0,1-8.85,11.43,33.56,33.56,0,0,1-7.31,5.4,6.14,6.14,0,0,1-5.35.29c5.63-1.69,9.78-5.4,13.57-9.6s7-8.6,8-14.26a50.08,50.08,0,0,1-4.14,8c-3.9,5.58-8.28,10.66-14.54,13.75a13.22,13.22,0,0,1-7.22,1.54c-.51-.39-.43-.61.17-.79,10.42-3.09,16.16-11.08,20.92-20.08,3.64-6.87,4.19-14.37,4.42-21.93a1.4,1.4,0,0,0-.43-1.36c-.09,1.15-.15,2.09-.24,3-.53,5.31-.76,10.72-2.56,15.78a44.52,44.52,0,0,1-15.7,21,20.15,20.15,0,0,1-7.53,3.16,4.41,4.41,0,0,1-3-.14c.22-.17.32-.31.45-.33,6.17-1.21,10.82-4.63,14.5-9.65a66.48,66.48,0,0,0,9.44-19.44,11.78,11.78,0,0,0,.28-1.78c1-3.6.9-7.34,1.39-11a51.67,51.67,0,0,1,2.79-11.84,2.88,2.88,0,0,0,0-2.23,38.9,38.9,0,0,0-3.46,12.41c-.5,4.4-1,8.8-1.47,13.2a68,68,0,0,1-6,14.62c-2.8,4.77-5.75,9.46-10.77,12.31-3.71,2.11-7.58,3.53-11.95,2.68a.56.56,0,0,0-.63.21c3,1.58,6,3.18,9,4.74a56.76,56.76,0,0,1,5.66,3.64,23.67,23.67,0,0,0,16.48,8.64c.44,0,1-.18,1.31.43a7.12,7.12,0,0,1-4.28,1.26c-.9-.12-1.79-.28-2.69-.36a19.15,19.15,0,0,1-12.83-6.56,48.71,48.71,0,0,0-10.95-9.28,10.33,10.33,0,0,0-2.45-1.7c-.5-.32-.31-.5,0-.71l.59-.19c.11-.86.77-.7,1.35-.77,5.43-.61,10.4-2.23,13.76-6.9a36.62,36.62,0,0,0,4.47-9.33h0c2.16-4.53,3.32-9.38,4.57-14.21,2.17-8.29,4.31-16.59,6.56-24.87.62-2.27,1.42-4.54,3.34-6.15.7-.59.24-1.31.26-2.28-3.6,2.65-7.47,4.47-10.45,7.57a6.24,6.24,0,0,1-4.41,1.71,24.78,24.78,0,0,1-7.59-.37c-3-.56-4.57-2.73-6-5.14q-4.26-7.41-8.49-14.83c-.57-.94-1.6-1.54-1.91-2.67-9.41-11.62-21.61-15.48-36.07-12.86a67.39,67.39,0,0,0-7,2c-.82.24-1.63.51-2.45.72-.26.07-.5,0-.18-.34a2,2,0,0,1,.32-.17l-.15-.5-3.57,1.74c-3.57,1.2-7.06,2.78-10.72,3.49a50.51,50.51,0,0,0-10.26,3.59,41.4,41.4,0,0,0-14.77,11.33,29.09,29.09,0,0,1-7.75,5.73c-4.07,1.7-8.39,2.12-12.7,2.65a10.4,10.4,0,0,1-2.17-.1c-6.13-1.5-11.39.39-16.21,4.07a64.29,64.29,0,0,0-11.05,10,18,18,0,0,0-2.24,3.75c-1,.77-2,.49-3.11.41l-5.26-.39c-1.34-.6-2.78.61-4.1-.23-1.19-.22-2.39-.39-3.56-.67-5.72-1.35-10.73-4.31-15.85-7h0c-5.83-4.13-11.67-8.25-17.48-12.41a56.67,56.67,0,0,1-7.34-6.51,35,35,0,0,0-7.41-6.09,18.13,18.13,0,0,1-2.27-2.81,62.23,62.23,0,0,1-8.74-21.17A20.82,20.82,0,0,1,138,36.76l.33,0a1,1,0,0,1,0,.34,27.83,27.83,0,0,0-2.55,16.15C137,62,141.41,69.39,147.47,75.6c4.25,4.37,9.3,8,14,11.89a69.23,69.23,0,0,0,7.18,5.83c8,6.12,16.4,11.64,26.1,14.79h0s0,0,0,0c-.06-.49-.56-.57-.82-.86-11.34-4.27-21.16-11-30.28-18.82-.22-.19-.49-.35-.73-.52-3.95-3.71-8.22-7-12.34-10.54a41.42,41.42,0,0,1-13.73-22.92c-1.15-5.06-.27-10.19,1.12-15.16.52-1.87,2.14-2.53,3.79-3.08l.14-.71ZM64.42,147c1.15-6,5-10.39,8.58-15.06a31.82,31.82,0,0,1,16-11.6c2.31-.74,4.66-1.37,7-2,.07.21.14.42.2.63-12.77,7.64-25.28,15.56-31.89,29.82C64,148.09,64.31,147.53,64.42,147Zm1.69.08c4.78-9,11.89-15.72,20.56-20.9,4.87-1.73,9.68-3.6,14.65-5,8.17-2.37,15.5-.74,22.15,4.42.72.56-.11.38-.2.55-10.55-5.39-21-4.78-31.61.06-3.58,1.64-6.67,4-9.89,6.15-7,4.74-12.68,10.57-15.76,18.63a8.84,8.84,0,0,1-1.24,3A11.14,11.14,0,0,1,66.11,147Zm37.45-12.4a28.68,28.68,0,0,1,17.39.3c5.69,1.75,11.41,3.38,17.13,5,.55.16,1.11.54,1.74.22l1.72.57c-.45,1-1.32.7-2.06.65a72.48,72.48,0,0,1-13.79-2.37,78,78,0,0,0-20-2.68,23.78,23.78,0,0,0-7.37,1.06c-8.15,2.6-16.45,4.87-23.41,10.19a6.31,6.31,0,0,1-2.45,1.64c.07-.08.13-.17.19-.25l0,0a7,7,0,0,1,2.25-2.21l1.72-1.52C85.11,140.39,94.34,137.53,103.56,134.64ZM97.11,136h0c.4-.93.4-.93,2.49-1.62l2.33-1.2c5.41-1.92,10.89-3.3,16.72-2.42a49.42,49.42,0,0,1,10.58,2.87l.08,0,6.55,3.57.17.14,2.15,1.73c-3.68-1.06-6.86-2-10.05-2.9-3.73-1-7.46-2.14-11.23-3-5.89-1.4-11.54,0-17.13,1.79h0Zm42.59,2.79-.31-.15c-3.74-2.3-7.39-4.77-11.58-6.25a31.57,31.57,0,0,0-20.33-1.65,25,25,0,0,0-5.68,2,79.69,79.69,0,0,0-8.31,3.79c-5,2.11-10.09,4.12-14.91,6.67a4.81,4.81,0,0,0-2.07,1.43A20.76,20.76,0,0,0,70.79,150l-2.58,3c-.19-.87.37-1.5.72-2.18A32.8,32.8,0,0,1,79.57,139c7.33-5.13,15.93-7,24.37-9.34,8.1-2.28,15.71-1.12,23.39,1.55a103.33,103.33,0,0,1,13.24,6.05h0a38.82,38.82,0,0,0,6.37,3.22C144.31,140.8,142.07,139.51,139.7,138.82ZM66.54,153.93a2.58,2.58,0,0,1-1.17,1.47c2.49-8.16,6.4-14.86,13.52-19.32,6-2,11.67-4.78,17.49-7.2a32.83,32.83,0,0,1,15-2.16c1,0,2.1-.28,2.88.69-.8-.17-1.63.23-2.43-.12a118.52,118.52,0,0,0-20,4.93C80.39,135.91,71.34,142.47,66.54,153.93Zm51.31-26.17c-1.58-1.36-3.56-1.41-5.47-1.65-8.3-1-15.83,1.47-23.11,5.08a78.69,78.69,0,0,1-8.07,3.33c-.37.14-.78.61-1.21,0,2.15-1.49,4.27-3,6.45-4.46,6.92-4.58,14.43-7.27,22.83-6.87,9.14.42,16.78,5,24.57,9.07a6.56,6.56,0,0,1,.83.74C129,130.79,123.58,128.72,117.85,127.76ZM70.53,151.9c3-2.16,5.7-4.78,9-6.47,7.43-3.81,15.13-7.1,23.49-8.12,7.26-.9,14.43.44,21.46,2.21,5.68,1.42,11.36,2.63,17.25,2.56.26,0,.64-.12.68.35a13.31,13.31,0,0,1-5,1c-4.43.13-8.67-1-12.92-2.07-5.11-1.32-10.19-2.79-15.61-2.29a79.77,79.77,0,0,0-23.78,6.07c-5.13,2.17-10,4.75-13.88,8.89a65.27,65.27,0,0,0-5.36,6.9A13.44,13.44,0,0,1,70.53,151.9ZM66.6,168.36a9.74,9.74,0,0,1,1.6-9.12,32.27,32.27,0,0,1,11.28-10.39,78.42,78.42,0,0,1,21-7.62c7-1.43,13.9-1.9,20.9.25,5.58,1.72,11.26,3.28,17.31,3-.65,1.42-2,.95-2.88,1.4a28.89,28.89,0,0,1-12.78-2.38,28.46,28.46,0,0,0-15-1.9A84.38,84.38,0,0,0,85,148c-9.06,3.92-15.38,10.26-17.69,20.11C67.16,168.6,66.89,168.51,66.6,168.36Zm6.73-4.13c-1,1.41-1.55,3.08-3,4.12a19.06,19.06,0,0,1,3.75-6.29,37.2,37.2,0,0,1,10.36-8.5c11.6-6.83,23.84-10.85,37.54-7.91a94.45,94.45,0,0,0,11.21,2.1c-.56.8-1.36.65-1.87,1.07-6,.64-11.9,0-17.84-.4-15.86-1-29.24,4.14-40.09,15.76h-.07S73.32,164.21,73.33,164.23Zm-4.59,9.18c-.9-1.15-.76-2.36-1-3.47a25.19,25.19,0,0,1,12.51-18.57,72.49,72.49,0,0,1,30.1-9.31c4.8-.47,9.3.72,13.67,2.54.51.2,1,.44,0,.69-4.45-1.06-8.92-2-13.53-1.47a61.16,61.16,0,0,0-33.5,14c-3.32,2.78-6.08,6-7.36,10.21A44.24,44.24,0,0,0,68.74,173.41Zm1.4-1.75c2.93-8.64,10-13.14,17.32-17.42,6.59-3.83,13.82-4.86,21.24-5.2a4.89,4.89,0,0,1,2.49.08l15.82.69h0c1-.12,2-.57,3,0-.94.23-1.83.76-2.85.45a13.1,13.1,0,0,1-4.13.48c-3.82,0-7.59-.74-11.39-1-2.33.27-4.66.52-7,.81-7.43.94-13.83,4.42-20.06,8.26-7.19,4.45-11.08,11-12.06,19.37,0,.43-.06.8-.54,1A11.07,11.07,0,0,1,70.14,171.66ZM127.75,152a22.9,22.9,0,0,1-12.63,1.72c-3.27-.54-6.55-1-9.82-1.57-1.18.12-2.38.73-3.51-.18l3.08-.49a41,41,0,0,1,10.66-.45c4.32.47,8.63,1.07,12.95,0C129,151.87,128.08,151.81,127.75,152ZM74.87,186.73l-.24.28a5.27,5.27,0,0,1-1.39-4c-.26-9.12,2.59-16.93,10.33-22.29a55.82,55.82,0,0,1,14-7.25,37.55,37.55,0,0,1,15.72.63,25.72,25.72,0,0,0,6.49.57l3.61-.56c0,.16.09.32.13.48a8.21,8.21,0,0,1-3.27.7c-3.24.86-6.54.46-9.8.31a45.7,45.7,0,0,0-11.44.82C85.77,159.17,76.54,172,75,182.73A18.47,18.47,0,0,0,74.87,186.73Zm.76-1.38c1.49-16.8,14.74-28.91,31.62-28.91.73,0,1.46,0,2.19,0,4.92.24,9.84.48,14.6-1.19l1.17-.54c.55.37,1.12-.93,1.66,0-.93.29-1.66,1-2.67,1.15-2,.43-3.79,1.56-5.84,1.91-2.94.51-5.86,1.11-8.79,1.63-5.77,1-11.64,2-16.57,5.34-7.58,5.09-14,11.31-16.77,20.44C76,185.88,75.9,185.7,75.63,185.35Zm3.07,6.08c-.67.13-.8-.8-1.25-1.17v0c-.47-2.59-.76-5.18.51-7.64,4.14-8,10-14.36,18.06-18.45,5.68-2.86,12-3.45,18.1-4.77.88-.2,1.8-.74,2.42-.46l-2.88,1-.35.11c-2.93,1-5.94,2-9,2.9a24.93,24.93,0,0,0-8.85,4.17c-7.5,6.09-13.08,13.52-15.89,22.87C79.4,190.49,79.31,191.31,78.7,191.43Zm4,2.93a3.16,3.16,0,0,1-2.36-4.14A44,44,0,0,1,89,174.53c4.72-5.58,10.1-9.91,17.53-11.36,4.35-.84,8.59-2.24,12.88-3.38,3.17-1.48,6.53-2.59,9.39-4.69.25-.15.64-.23.74-.45.84-1.86,2.73-2.43,4.22-3.47.72-.5.19.26.26.42a34.38,34.38,0,0,1-9.27,6.93l-5.3,2.08c-3.48,1.82-7.35,2.52-11,3.85-6.16,2.26-11.82,5.19-15.35,11.1a86.31,86.31,0,0,0-6,11.86c-.8,2-1.66,3.92-2.54,5.86A1.54,1.54,0,0,1,82.68,194.36ZM85.12,196c-.82-.62-.88-1-.26-1.83a16.5,16.5,0,0,0,1.69-3.42A101.57,101.57,0,0,1,92,179c2.32-4.11,4.91-8,9.18-10.36a49.84,49.84,0,0,1,11.09-4.6,50.66,50.66,0,0,0,7.87-2.84c1.09-.5,2.15-1.37,3.51-1.18-1.08,1.54-3.11,1.75-4.31,3.12-2.58,1.34-5.18,2.66-7.74,4A40.48,40.48,0,0,0,99.7,177a60.11,60.11,0,0,0-10.19,17.79C88.27,198.06,87.8,198.08,85.12,196Zm26.74-23.17c-8.51,6.79-15.07,14.94-18.1,25.62-.76,2.67-1.34,2.75-3.56.93-.33-.27-.66-.54-1-.82s-.54-.58-.23-1.08c2.18-3.46,3.14-7.49,5.17-11,5-8.66,11.37-15.72,20.63-19.88a15.51,15.51,0,0,0,4.5-2.65l1.22-.66c.54.51-.17.81-.2,1.22l-.38.52A80.75,80.75,0,0,1,111.86,172.86ZM101.42,205c-.26-.31-.09-.56.13-.79,1.52-1.62,1.76-3.74,2-5.77a38,38,0,0,1,9-21.16c1.93-2.31,3.71-4.74,5.55-7.11l.18.15c-.66,1.22-1.3,2.45-2,3.65-4.06,7.05-7.73,14.2-8.22,22.58a15.46,15.46,0,0,1-2.33,6.49,4.45,4.45,0,0,1-2.79,2.45A1.38,1.38,0,0,1,101.42,205Zm6.38,3.07a.09.09,0,0,0,0,0l0,0h0c-.08-.37.12-.89-.5-.94-.94-.08-2.17.24-2.57-.85s1-1.47,1.46-2.24c1-1.51,1.39-3.27,2.51-5.3.27,2.54.59,4.56.64,6.58C109.36,206.38,109.26,207.68,107.8,208.05Zm1.54,0c1.17-2,.92-4,.59-6.07-1.29-8,.45-15.45,4.27-22.49,2.08-3.85,4.2-7.68,6.31-11.51l.12,0v-.13c.12-.12.23-.25.34-.38a34.4,34.4,0,0,0,2-3.08c3.39-4.25,7.86-7.34,11.66-11.16-.31,1.43-1.45,2.25-2.11,3.4-.78.75-1.53,1.55-2.37,2.24-3.35,2.76-5.32,6.71-8.47,9.68-1.61,1.52-2.35,3.95-3.5,5.95-3.85,6.71-5.64,13.81-4.09,21.54a28.21,28.21,0,0,1,.85,7.59C114.6,207.93,113.31,207.89,109.34,208Zm4.47,0a5.17,5.17,0,0,0,2-4.16,20.1,20.1,0,0,0-.34-5.08,59.87,59.87,0,0,1-1-8.12,22.63,22.63,0,0,1,3.74-13.56l-.39,2.62a33.7,33.7,0,0,0,.31,14.38c.73,3.36,1.28,6.79.32,10.23C117.52,206.11,117,208.25,113.81,208.07Zm3.59,1.73c-.7-.45-1.31-.93-.31-1.81a6.81,6.81,0,0,0,2.12-4.12c1.08-2.75.51-5.59-.08-8.24a42.69,42.69,0,0,1-.61-16.39c.9-2.84,1.25-5.88,3.16-8.59a11.19,11.19,0,0,1-.27,1.43c-2.8,8.42-2.72,16.93-.91,25.52a36.64,36.64,0,0,1,1,10.11A2.77,2.77,0,0,1,117.4,209.8Zm10.45-4.13a6.61,6.61,0,0,1-4.13,3.25c-.61.21-1.33.42-1.56-.57a23.82,23.82,0,0,0-.49-8.86c-1.08-5.81-2-11.6-1.44-17.56.86-8.72,3.79-16.42,10.47-22.4.42-.38.68-1.07,1.46-.91-.14.29-.28.59-.41.88h0c-.21.36-.44.72-.63,1.1a62.62,62.62,0,0,0-6.19,24C124.42,191.76,124.4,199,127.85,205.67Zm4.38-1.85c.18.74.87,1.65-.33,2.21a2.15,2.15,0,0,1-2.79-.56,10.12,10.12,0,0,1-2.31-4.9,58.43,58.43,0,0,1-.62-19.61A69.41,69.41,0,0,1,135,155a3.67,3.67,0,0,0,.77-1.21c2.3-4,4.9-7.79,9.14-10.06,1-.89,2.34-1.07,3.5-1.64-.77,1.4-2.31,1.71-3.51,2.51a33.35,33.35,0,0,0-2.59,2.29,50.08,50.08,0,0,0-13.65,35.36C128.66,189.66,130.49,196.73,132.23,203.82Zm3-35.65a31.18,31.18,0,0,0,.55,13.18c1,4.27,2.72,8.31,3.85,12.54.9,3.39,1,6.73-.8,9.89a4.39,4.39,0,0,1-4.62,2.24,10.22,10.22,0,0,0,.71-7.72c-1-4.06-2.49-8-3-12.21-.66-5.67.78-11.1,2.19-16.52a7.48,7.48,0,0,1,1.75-4.13Zm10.54-21.41c-8.37,9.53-13,20.69-14.65,33.19a27.07,27.07,0,0,0,1,11.17c.79,2.69,1.54,5.38,2.18,8.1a8,8,0,0,1-.61,6.07,87.08,87.08,0,0,1-2.48-10c-3.67-15.7-1.32-30.33,8.1-43.59a24.79,24.79,0,0,1,9.59-8.38C148.06,144.94,146.73,145.68,145.78,146.76Zm.46-8.46-7.38-4-.31-.19-3.29-2.27c-.41-.84-1.26-1.12-2-1.5a103.69,103.69,0,0,1-11.57-6.88c-6.42-4.41-13.37-5-20.7-3-3.63,1-7.14,2.37-10.66,3.69-.46.17-.9.67-1.47.25,1.79-1.15,3.55-2.34,5.37-3.43a24.27,24.27,0,0,1,13-3.77,35.32,35.32,0,0,1,15.64,3.69c4,2.62,8.07,5.23,11.85,8.21a49.84,49.84,0,0,0,12.93,7.81c2.43.93,4.92,1.71,7.74,2.67C151.89,140.49,149.1,139.15,146.24,138.3ZM278.15,91.83a58.58,58.58,0,0,0-11.75-4.29c-.41-.09-.86-.17-.9-.73a28.77,28.77,0,0,1,9.2,1.67C282.77,91,289,96.2,294.64,102.32a161.61,161.61,0,0,0,14.29,14.26,25.14,25.14,0,0,0,2.24,1.52h0l1,.68c.17.12.33.24.5.34,4.21,2.84,8.64,5,14,4.64,3.92-.29,7.86-.5,11.64-1.76,2.6-.63,5.26-1.1,7.64-2.43.51.3.94-.52,1.49-.1a4.85,4.85,0,0,1-2,1.53c-2.56,1.27-5.2,2.4-7.69,3.78a29.61,29.61,0,0,1-16.2,3.43c-6.38-.31-11.91-2.18-15.93-7.48-3.16-4.17-6.43-8.26-9.64-12.39a73.84,73.84,0,0,0-10.4-11.45A24.63,24.63,0,0,0,278.15,91.83Zm-13.24-6.21a6.93,6.93,0,0,1,1.51-.36,1.15,1.15,0,0,0,.19-.26,3.44,3.44,0,0,0,2,0,34.48,34.48,0,0,1,19,3.55l8.18,3.94c5.35,3,9.31,7.55,13.69,11.67,7.1,6.67,15.37,11.13,25.17,12.13a28.67,28.67,0,0,0,18.84-4.38,12.44,12.44,0,0,1,1.21-.61l0,0,.21.22a18.8,18.8,0,0,1-10.51,7,47.27,47.27,0,0,1-13.94.78c-9.68-.65-17.8-4.16-24.19-11.71a98.17,98.17,0,0,0-17-15.62c-3.24-2.37-6.55-4.67-10.63-5.44a23.53,23.53,0,0,0-8.8-.65l-3,0c-.53.39-1.18.09-1.74.29C265,86,264.35,85.89,264.91,85.62Zm-.28-.93a7,7,0,0,1,2.49-.74C276.2,81.57,285.23,82.5,294,85c6.2,1.79,10.93,6.29,15.83,10.31l.08.08c2.8,2.88,5.54,5.82,8.43,8.62a34.93,34.93,0,0,0,6.83,5.4c9.43,5.47,19.05,4.43,28.72.73a2.3,2.3,0,0,1-1.33,1.4,29.28,29.28,0,0,1-21.66,3.35c-9.18-2-16.7-6.85-23.1-13.57-4.18-4.4-8.69-8.34-14.31-10.83-1.53-.74-3.06-1.46-4.58-2.22a35.61,35.61,0,0,0-21.68-3.83l-.67.47C266,84.4,265.22,85.31,264.63,84.69ZM346,119.55c-1.86,0-3.39,1.32-5.26,1.2l-2.5.82c-3.4.51-6.78,1.05-10.21,1.39a19.46,19.46,0,0,1-11.49-2.52c-.8-.43-1.61-.82-2.42-1.23-7.24-4.57-12.68-11.1-18.41-17.25s-12.19-11.27-20.16-14.23a8.92,8.92,0,0,0-3.75-.79c.91-.9,2-.3,3-.25,1.48.06,2.94.35,4.4.55a24.55,24.55,0,0,1,6.4,3,102.27,102.27,0,0,1,20.34,18.11,32.22,32.22,0,0,0,19.87,11.18,56.6,56.6,0,0,0,14.48.58c1.78-.36,3.56-.71,5.33-1.09C346.12,118.92,346.12,119.14,346,119.55ZM293,108.43c-1.57-2.41-3.3-4.73-5-7.09a21.37,21.37,0,0,0-2.94-3l-2.62-2.12-1.91-1.78a16.61,16.61,0,0,1,3.8,2.18l1.95,1.94c2.07,1.42,3.47,3.49,5,5.4,4.53,5.63,8.89,11.41,13.41,17.06,2.49,3.12,5.34,5.86,9.42,6.84,8.1,2,16,2,23.59-2.13,2.47-1.34,5.09-2.42,8-3.78a7.79,7.79,0,0,1-.72,1.29c-4.92,4.93-10.52,9.09-17.35,10.53-10.44,2.19-18.95-1.48-25-10.3C299.29,118.56,296.26,113.42,293,108.43Zm10.37,17.41a3.21,3.21,0,0,1,.7.55,21,21,0,0,0,12.75,8.1c11.4,2.68,19.95-2.94,28-9.81a5.56,5.56,0,0,0,1.1-1.44,16.7,16.7,0,0,1,3-3.66l-.21,1.08c-2.82,4.24-5.34,8.7-8.67,12.6-.42.33-.87.64-1.26,1a24.57,24.57,0,0,1-17.26,6.59c-3.9,0-7.65-.8-10.68-3.45-3.43-3-5.52-7-7.65-11C303.11,126.24,303.05,126,303.38,125.84Zm45.84-5.73a1.7,1.7,0,0,1-.43.47ZM305.46,132c2.19,3.56,4.53,7,8.77,8.37,8.32,2.73,15.94,1.19,23-3.83a4,4,0,0,1,2.07-1.39c-.94,1-1.38,1.92-2.29,2.47h0l-1.89,1.86c-2.9,1.47-5.64,3.27-8.82,4.18-5.24,1.48-10.27,1.18-15-1.73a22.81,22.81,0,0,1-5.59-7.91C305.42,133.4,304.65,132.71,305.46,132Zm16.72,16.63a31,31,0,0,1-4.28-.67c-3.92-1.06-6.69-3.65-9.14-6.69a4.24,4.24,0,0,1-1.28-2.25,7,7,0,0,1,2.08,2.3c1.31.82,2.3,2.15,3.91,2.52l0,0a20,20,0,0,0,14.67-.13,28.23,28.23,0,0,0,4.87-2.4c.33-.21.66-.75,1.17-.25a30.44,30.44,0,0,1-7.77,6.58Zm22.42,20.81c-3.05-2.87-4.75-6.54-6.1-10.42a15.58,15.58,0,0,0-4.51-6.83,6,6,0,0,1-2.59-2,8.27,8.27,0,0,1,3.79,2.21,28.88,28.88,0,0,1,8.13,9.15c2.67,4.39,5.19,8.92,9.8,11.77A15.1,15.1,0,0,1,344.6,169.39Zm11.59,4.15c-4.54-1.75-7.62-5.13-10-9.21-3.53-6-7.45-11.71-14-15a2.66,2.66,0,0,1,2,.15,31.69,31.69,0,0,1,13.66,12,33.93,33.93,0,0,0,7.5,8.87,41.45,41.45,0,0,0,6.51,4A11.41,11.41,0,0,1,356.19,173.54Zm2.39-1.88c-4.42-2.85-7.52-6.84-10.34-11.13A27.62,27.62,0,0,0,338.19,151c-.21-.11-.44-.22-.26-.57a5.67,5.67,0,0,1,2.63.36l5.92,4.45a109.57,109.57,0,0,1,8.51,8.73c3.21,3.57,6.84,6.59,11.52,8,1.6.5,3.25.83,5.06,1.28A13.88,13.88,0,0,1,358.58,171.66ZM348.84,154h0a56.22,56.22,0,0,1,12.94,10.87,19.42,19.42,0,0,0,13.2,6.61c.58.06,1.52-.39,1.74.7a18,18,0,0,1-6.86-.09c-6.14-1.2-10.74-4.83-14.79-9.35a54.37,54.37,0,0,0-7.35-7.28c-1.3-1.6-3.28-2.38-4.8-3.85,1-.51,1.61.37,2.37.44l.56.24a1.86,1.86,0,0,1-.31-.1Zm32-62.27c-5.52,15-7.32,31-13.42,45.76l0,.05c-.47,1-1,1.95-1.41,3a15.64,15.64,0,0,1-9.13,8.9,32.67,32.67,0,0,1-8.93,1.64l-.33-.18c-.24-.18-.13-.33.37-.5,1.84-.63,3.67-1.29,5.5-1.94a16.8,16.8,0,0,0,10.27-9.73c2-4.76,4.05-9.49,5.17-14.55h0a49.25,49.25,0,0,0,1.55-9.71c.51-8.12,4.1-14.91,8.76-21.29C379.64,92.53,380.06,91.78,380.84,91.69Zm-3,1.31a34.11,34.11,0,0,1-2.08,3.58,36.61,36.61,0,0,0-6.05,16.81,112.26,112.26,0,0,1-1.65,11.55h0c-1.33,3.65-2.72,7.28-4,10.95-2.23,6.45-6.5,10.73-13.11,12.58l-2.16.89-.16-.5,2.16-.93a30.3,30.3,0,0,0,4.94-3.94c2.48-2.49,4.78-5.11,5.8-8.59a23.48,23.48,0,0,0,2.67-7.52,119.33,119.33,0,0,0,1.39-14.35,25.07,25.07,0,0,1,5-13.85A24.41,24.41,0,0,1,377.84,93Zm-7.43,5.36a10.47,10.47,0,0,1-.54,1,26.53,26.53,0,0,0-5.15,14.73c-.49,7.67-.51,15.48-4.29,22.54-4.35,7.13-9.83,12.63-18.84,13-4.61-.46-9.16-1.5-13.83-1.45-.29-.72.41-.72.73-.94,4.65-3.31,8.2-7.65,11.51-12.22a8.57,8.57,0,0,0,2-2.55c3.75-5.22,7.05-10.76,11-15.86,2.11-2.73,3.56-5.94,6.19-8.3s5.24-5,7.93-7.49C368.06,100,368.83,98.82,370.41,98.36Zm-65-35.45a34,34,0,0,1,20.07-.63c8,2.13,14.48,6.08,19.28,12.83a97.17,97.17,0,0,1,6.56,11.08l1.47,2.54-.55.18h0a11.37,11.37,0,0,1-1.55-2.54c-2.93-4.14-5.54-8.51-9.27-12.05C337,70.14,332.22,66.57,326.2,65a26.68,26.68,0,0,0-11.43-1.12c-1.38.14-2.74.34-4.11.5-3.65.08-7.26.86-11,.52C301.57,64.13,303.5,63.55,305.4,62.91ZM354,92.7s-.08.18-.17.37a46.08,46.08,0,0,1-10.07-9.44,88.29,88.29,0,0,0-10.18-10.91c-5.87-5.09-13.15-6.23-20.44-7.39-.64-.83.17-.57.48-.6a31.86,31.86,0,0,1,11.55.63c.4.11.82.15,1.23.22a36.79,36.79,0,0,1,17.28,12.34C347.38,82.62,350.56,87.75,354,92.7Zm-47.53-27c1.78-.17,3.58.23,5.35-.16h0c1.55.8,3.28.77,4.92,1.11,5.11,1.08,10.23,2,14.58,5.28a56.84,56.84,0,0,1,9.33,9.14c4.4,5.28,8.78,10.56,15,13.83.28.14.7.29.56.83l-1.38-.15h0c-2.2-1-4.38-2.08-6.61-3a28.33,28.33,0,0,1-10.77-8.18,65.92,65.92,0,0,0-7.73-8.46c-.5-.43-1.06-.78-1.6-1.17l-.08-.06c-5.57-4.37-12-6.53-18.93-7.5-3.28-.47-6.6-.15-9.91-.42A36.65,36.65,0,0,1,306.44,65.7ZM292.5,68.49c11.87-1.85,23.28-1.06,33.71,5.67,4.28,3,7.55,7,10.78,11,4.8,5.93,11.39,8.82,18.34,11.16l1.45.38.87.66s0,0,0,0v0c-4.37-.14-8.12-1.5-11.86-2.94a7.89,7.89,0,0,0-2.35-.9,39.59,39.59,0,0,1-11.32-9.06c-8.27-9.09-18.84-13.18-30.81-14.28a12,12,0,0,0-3.59-.34c-2.59-.38-5.25,0-7.82-.76A13.39,13.39,0,0,1,292.5,68.49Zm-17.33,5.24a7.92,7.92,0,0,1,1.78-.86,79.25,79.25,0,0,1,9.81-2.74l11.43.39,3.62.37a51.19,51.19,0,0,1,22.52,7.71c3.37,2.15,5.93,5.16,8.71,7.94,3.46,3.44,7.17,6.55,11.86,8.23,5.17,2.37,10.51,3.85,16.27,3.15l.76-.07,1.67.11c.11.2.86.3.1.62-.37.16-.76.29-1.14.43-11.52,2.08-22.27.18-32.11-6.27-3.22-2.12-5.84-4.94-8.68-7.51-8.9-8.06-18.91-13.7-31.35-13.54a45.08,45.08,0,0,0-11.86,1.81,9.57,9.57,0,0,0-3.29.72,2.5,2.5,0,0,1-2.33.49Zm87.74,26.37c-5.4,2.35-10.9,4.13-16.92,3l-5.13-1h0c-3-1-6.08-1.72-8.74-3.56-7.21-5-14.47-9.88-21.43-15.22-4-3.11-8.27-6-13.32-7.4a34.5,34.5,0,0,0-10.69-2.54,4.88,4.88,0,0,1-2.95-.38l2.48-.3c10.13-1.53,19,1.78,27.45,7,4.52,2.77,7.93,6.77,11.9,10.14,10.84,9.17,23.2,12.64,37.2,9.76C362.79,99.76,362.85,99.93,362.91,100.1Zm-94-24c.06.19.12.39.17.58-1.55,1.16-2.88,2.62-4.74,3.37A16.32,16.32,0,0,1,268.87,76.14Zm-2.78,4.28a36.31,36.31,0,0,1,12.82-5.8c6.55-1.32,12.81,0,19,2.08,7.93,2.91,13.94,8.79,20.7,13.51,4.2,2.93,8.38,5.86,12.58,8.78a26.41,26.41,0,0,0,10.17,3.86,29.08,29.08,0,0,0,20.3-1.32c1.5-.66,2.91-1.7,4.67-1.69a44,44,0,0,1-13.88,7.4,23.83,23.83,0,0,1-18.91-1.6,65.47,65.47,0,0,1-12.89-8.87c-3.59-3.08-6.82-6.58-10.86-9.12-.57-.45-1.12-.91-1.7-1.34-5.53-4.22-12-6.42-18.59-8a33.14,33.14,0,0,0-23.27,2.65,6.12,6.12,0,0,1-2.5,1.3A6.62,6.62,0,0,1,266.09,80.42Zm-5.88,4.85,2.13-1.06C271.88,77.84,282,76.6,293,80.05a56.24,56.24,0,0,1,14.93,7h0a117.48,117.48,0,0,1,9.92,8.3,78.06,78.06,0,0,0,13.26,9.94c9.22,5.38,18.38,5.17,27.65.3l2.92-1.51c-1.37,1.83-3.27,2.9-5,4.14a44.38,44.38,0,0,1-10.43,3.59c-11.12,2.33-20.33-1-28-9.11a80.27,80.27,0,0,0-7.32-7.32.4.4,0,0,1-.24,0h.24c-6-5.41-12.13-10.68-20.49-12.13-7.69-1.34-15.39-2.2-23.1-.16-.93.25-1.82.65-2.73,1h0a2.48,2.48,0,0,0-1.45.6l-.53.11a4.24,4.24,0,0,1-2.19,1C259.52,86,260.19,85.48,260.21,85.27Zm3.35,2.25,1.77.43a10.71,10.71,0,0,1,4.54,1.5l.36.24.24.16-.25-.06h0l-4.09-1a21.29,21.29,0,0,0-9.86.85c-.62.17-1.25.74-2,.24C257.13,88.12,260.32,87.71,263.56,87.52Zm-70.91,42.73A68.87,68.87,0,0,1,210,122.66c6.31-1.65,12.59-2.49,18.48,1.44a.42.42,0,0,0,.2.27l.5.68a16.19,16.19,0,0,1-1.61-.36,22.3,22.3,0,0,0-17.47,1.38c-6.61,3.36-13.34,6.48-20.86,7.23-.53.06-1.43.88-1.74-.39A31.07,31.07,0,0,0,192.65,130.25Zm-31.54,12.12c1.6.87,3.21,1.73,4.81,2.61a13.38,13.38,0,0,1,5,5.16c3,5.08,6,10.13,9,15.2,2.63,4.44,6.41,7,11.66,7.29l-.13-.19a.36.36,0,0,1,.13.19c3.53.52,6.87-.42,10.21-1.31.63-.16,1.22-.61,1.93-.37-2.12,1.4-3.92,3.26-6.32,4.24a18.72,18.72,0,0,1-21.91-6.55c-2.78-4-4.43-8.52-6.53-12.83-2.23-4.58-4.17-9.37-8.06-12.92Zm35.65,35.27a15.76,15.76,0,0,1-3.78,2.41c-13.53,3.62-23.68-5-23-20a6.56,6.56,0,0,1,.63,1.1,30.92,30.92,0,0,0,5.29,9.31c5,6.21,14.9,8.71,21.84,5.52C198.11,177,197.19,177.19,196.76,177.64ZM187,187.21h0c-.72-.14-1.45.33-2.16,0-4,1-8,.52-11.91-.26a12.07,12.07,0,0,1-8.73-6.54,29.08,29.08,0,0,1-3.44-16.88,51.11,51.11,0,0,0-.94-17.94,2.51,2.51,0,0,1-.53-1.65,1.57,1.57,0,0,1,1.12,1.26c2,5.69,4.53,11.23,5,17.38.14,2.06.29,4.13.52,6.18.59,5.18,1.8,10.05,6.29,13.44,3.64,2.73,7.56,4.58,12.22,4.47l1.31-.2c1.53.25,3-.38,4.81-.3C189.31,187,188.07,186.8,187,187.21Zm18.23-15.54a1.58,1.58,0,0,1-.34.35c-2.45,2.84-4.93,5.67-7.35,8.54a13.64,13.64,0,0,1-9.71,5.08c-.78.06-1.55.18-2.33.27l-.9-.06c-9.35-.19-15.83-5.74-17.42-14.94a17.94,17.94,0,0,1-.41-3.08c0-7.44-2.17-14.39-4.67-21.28a1.9,1.9,0,0,1-.63-1.85,3.61,3.61,0,0,1,1.44,1.89c2.35,4.2,4.56,8.47,5.53,13.24.54,2.68,1.11,5.37,1.44,8.08,1.38,11.31,15.62,16.51,23.24,12.76a10.85,10.85,0,0,0,6.2-4.65l5.61-4.8a4.14,4.14,0,0,1,1.66-1.58C206.82,170.8,205.89,171.14,205.24,171.67Zm3.61-3.74a20.58,20.58,0,0,0-4.38,1.79,45.31,45.31,0,0,1-9.55,2.19c-1.26.08-2.54,0-3.81,0a13,13,0,0,1-10.34-7.19c-2.7-5.11-6.05-9.82-8.85-14.87a11.5,11.5,0,0,0-3.68-4.56l-5.79-3.09-1-.73c1.11-.28,1.91.57,2.89.5a25.8,25.8,0,0,1,5.79,3.87,29.61,29.61,0,0,1,6,6.45c2.57,3.5,4.51,7.48,7.83,10.42h0c2.78,2.75,6.26,3.57,10,3.49a72,72,0,0,0,10.15-1.15,36.1,36.1,0,0,1,13.78-.14l1.78,1A23.9,23.9,0,0,0,208.85,167.93ZM177.36,152.1a24,24,0,0,1,5.9,4.64,21.46,21.46,0,0,0,12.19,6.07,51.24,51.24,0,0,0,12-.05c2.59-.29,5.19-.83,7.74.26l.84.74,0,.06a40.3,40.3,0,0,0-9.66.17c-3,.45-6,.82-9,1.21-4,.53-7.87.22-11.43-1.91C182.05,160.33,180,156,177.36,152.1Zm49.84,12.75c-.36.62-1.27.64-2,.69a10.25,10.25,0,0,1-5.6-1.35c-3.78-2.05-7.67-3.32-12-2.29a33.75,33.75,0,0,1-7.45.47c-6.13,0-11.64-1.62-16.12-6-.67-.65-1.67-1-2-2.2l4.44,1.87.07,0a21.37,21.37,0,0,0,9.23,1.73c5-.09,10-.23,15-.25a27.3,27.3,0,0,1,8.47,1.16,17.78,17.78,0,0,1,7.16,4.56C226.48,163.89,227.61,164.15,227.2,164.85Zm2.9-3.26c.12,1.08-.72,1.64-1.54,2-.57.29-.67-.34-.8-.7-2.33-6.71-7.83-9.22-14.13-10.69-4.59-1.06-9.19-.62-13.79-.12-4.25.77-8.5,1.43-12.74-.15-.25-.09-.7-.25-.95.15l0,0h0a7.27,7.27,0,0,0,3.87,1.36,31.25,31.25,0,0,0,8.69-.38c5.25-.76,10.49-1.32,15.71.12,5,1.37,9.54,3.27,11.88,8.37-.39.3-.69,0-1-.2-3.63-3.29-8.08-4.24-12.79-4.54a110.33,110.33,0,0,0-12.2.07c-5.27.27-10.44,0-15.35-2.19h0c-5.18-2.11-9.5-5.5-13.93-9.62A47,47,0,0,1,181.4,150a6.24,6.24,0,0,0,3,1.67c.35.2.68.62,1.13.15a1.32,1.32,0,0,0,.29.15c.12-.79-.8-.65-1.05-1.18l1,0h0c.46.14.92.3,1.38.43a28.39,28.39,0,0,0,12.24.21,76.23,76.23,0,0,1,12.05-2.57,25.66,25.66,0,0,1,7.91.69h0a17.93,17.93,0,0,1,9.54,8.6A10.16,10.16,0,0,1,230.1,161.59Zm.81-2.32c0,.11-.19.25-.33.43-2.41-5.33-5.93-9.38-11.78-10.9-4.33-1.53-8.65-.73-12.94.17-2.38.49-4.73,1.18-7.1,1.72a26.85,26.85,0,0,1-13.52-.67,13.59,13.59,0,0,0-3.23-1c.1-1.12.9-.43,1.3-.41,2.46.12,4.92.47,7.38.49a34.82,34.82,0,0,0,13.35-3A28.9,28.9,0,0,0,209,144.9c7.61-2,13.84.2,19,6C230.2,153.3,230.42,156.31,230.91,159.27Zm-38.24-10.84c0-.19-.07-.37-.1-.55l1.91-.34.69-.42a18.88,18.88,0,0,0,2.26-.64c3.56-1.5,7.13-3,10.64-4.6a20.32,20.32,0,0,1,8.78-1.76c.18.95-.67.67-1.06.81a25,25,0,0,0-5.15,2.07c-2.24.9-4.62,1.42-6.76,2.58a58.07,58.07,0,0,1-9.22,2.55A3.18,3.18,0,0,1,192.67,148.43ZM231,153.77a20,20,0,0,0-8.39-8.4,17,17,0,0,0-10-2c.67-1.33,2.1-1.13,3.2-1.59a24.31,24.31,0,0,1,2.55-.79C224.23,139.71,232.51,146.21,231,153.77Zm1.87-6.15c-.62,1.2-1,1.13-1.61,0-3.06-5.75-8.17-8-14.37-8.29a4.36,4.36,0,0,1-2.54-.08c.83-.41,1.37-.76,2.07-.62,5.47-1.42,10.54-.88,15.08,2.86C233.75,143.39,234.19,144.94,232.83,147.62Zm1.26-5.53c-.67.48-.92-.35-1.29-.65-4.16-3.42-8.72-5.1-14.21-4-8.4,1.67-16,5.43-23.58,9.07-5.07,2.14-10.27,1.58-15.47.71a78.57,78.57,0,0,1-13-5.09,21,21,0,0,0-3.08-1c-.36-.2-.78-.36-.77-.89l6.66.73c2.54.62,5.1,1.16,7.61,1.86a36.41,36.41,0,0,0,25.82-2c3-1.39,5.9-2.93,9-4.11,6.38-2.47,12.79-3.18,18.9.8,1.27.83,2.85,1.41,3.53,3C234.43,141,234.68,141.66,234.09,142.09Zm-61.66-1.55,2.82.22c.11,0,.23-.11.33-.09,7.06,1.26,14,1.28,20.82-1.37,4.75-1.85,9.45-3.85,14.32-5.44A25.9,25.9,0,0,1,224,132.67a10.88,10.88,0,0,1,5.82,3c-.36,0-.47.07-.56,0a9.71,9.71,0,0,1-1-.41c-3.37-1.63-6.88-1.65-10.52-1.14-5.18.71-9.67,3.16-14.27,5.36-6.57,3.14-13.42,4.68-20.7,3.62-2.25-.33-4.46-.93-6.69-1.4A5.78,5.78,0,0,1,172.43,140.54Zm62.08-3.87c-.62,1.58-1.46,1.12-2.24.18-4.14-5-9.66-5.94-15.68-5.21-4.7.57-9.07,2.34-13.39,4.12-7,2.86-13.88,5.66-21.64,4.87-3-.31-6-.56-9-.84a3.78,3.78,0,0,1-2.31-.21,4.71,4.71,0,0,1,2.11-.43l.78-.29h0a12.92,12.92,0,0,0,4.85-.74l11.53-1.64c7.21-1,14.18-2.78,20.6-6.37A19.86,19.86,0,0,1,215,128c6-1.53,11.78-1.75,16.93,2.53C233.83,132.15,235.06,134,234.51,136.67Zm-.35-5.33a35.52,35.52,0,0,0-3.78-2.84c-5.88-3.37-11.92-2.73-17.92-.37-3.51,1.37-6.68,3.47-10.28,4.7-7,2.37-14.25,3-21.44,4.24-.32.05-.76.26-.78-.37,2.12-.77,4.08-2,6.34-2.35a47,47,0,0,0,17.57-4.45c2.27-1,4.54-2.07,6.75-3.22,7.33-3.79,14.47-2.74,21.56.67C232.86,128.67,234.42,129.55,234.16,131.34Zm1.32-1.25c-5.26-8.25-12.18-11.16-21.79-9.33-7.7,1.47-14.7,4.63-21.42,8.54a4.15,4.15,0,0,1-2.87,1c2.38-2,4.53-3.84,6.65-5.68a33.81,33.81,0,0,1,16.25-7.85c7.51-1.4,14.44-.4,19.93,5.6C234.12,124.42,235.73,128.23,235.48,130.09Zm1.36-1c-1.88-6.75-6-10.85-12-12.84-5.8-1.93-11.68-1.23-17.49.46,5-3.43,10.38-5.49,16.54-4.94,7.11.63,12,5,13.39,11.87A10,10,0,0,1,236.84,129.08Zm1.61-.52c1.1-10.38-5.66-17.15-15.45-18.23a18.25,18.25,0,0,1,6.83-1.06c5.08.12,8.95,2.65,11.81,6.61S243.27,124.67,238.45,128.56Zm5.13-4.59c1.23-3.61.74-6.88-1.7-9.64-4-4.57-9-6.93-15.26-5.94a54,54,0,0,0-15.84,4.77,6,6,0,0,1-2.58,1.23,7.49,7.49,0,0,1,2.61-2.07c6.26-3.81,13-6.48,20.31-7a15.24,15.24,0,0,1,15.13,9.35C247.67,118.05,246.55,122.16,243.58,124Zm3-1.63c2.24-3.84,1.53-7.42-.89-10.8-3.77-5.27-8.83-7.83-15.38-7.21-6.78.64-12.9,3.32-18.94,6.24-1,.82-2,1.64-3,2.45.38-1.69,1.87-2.36,3.07-3.29,6.3-5.37,13.34-8.84,21.85-8.65a33.22,33.22,0,0,1,5,.91l.92.38c1.17.65,2.35,1.29,3.53,1.93,3.72,3.08,6.66,6.68,7.8,11.52C250.31,119.62,249,121.81,246.58,122.34Zm4.71-32.4c.18-.07.37-.08.41.18a30.09,30.09,0,0,1-8.51,4.13h0c-1.11-.74-2.43-1.19-3.33-2.25A40.14,40.14,0,0,0,251.29,89.94Zm-37.22,12.47a10.35,10.35,0,0,1,2.4-2,55.55,55.55,0,0,1,7-5.5c5.88-3.91,11.9-4.51,18.1-.74,2,1.8,4.12,3.48,5.4,5.92h0l1.65,4.71c-3.17-3.44-7.22-5.42-11.19-7.51a15.39,15.39,0,0,0-9.75-1.41c-4.31.66-7.72,3.12-11.26,5.36l-2.18,1.7-.18-.52Zm-7.19,9.37c.27-.86,1.44-1,1.57-2,4.1-5.59,9.65-9.39,15.84-12.17a14,14,0,0,1,12.83.36c2,1.07,3.95,2.14,5.85,3.34a17.46,17.46,0,0,1,8,10.83,4.09,4.09,0,0,1,.15,2.72l-.81-2.53a24.55,24.55,0,0,0-4.62-6.45,16.79,16.79,0,0,0-8.31-4.81c-6.15-1.81-11.92-.31-17.49,2.25a46,46,0,0,0-13.39,9.94h0l-2.24,2.49h0c-.36-.06-.45.63-.91.34h0l2.85-3.81Zm-76-68.85h0c-1,4.12-2,8.24-1.14,12.53a10.4,10.4,0,0,1,.43,3.23c.73,2.76.94,5.65,2.1,8.29h0a57.72,57.72,0,0,0,14.39,22,130.07,130.07,0,0,0,10.8,9.06,41.82,41.82,0,0,1,6,4.73c.33.89,1.37,1.2,1.93,2.31l-7.87-5.95h0c-.43-.46-1.17-.55-1.41-1.22l-.89-.57c-2.08-1.22-4.29-2.23-6.26-3.64l-.42-.31a23.36,23.36,0,0,1-9.3-8.74c-2.84-4.53-5.8-9-7.75-14-1.46-3.7-1.58-7.64-2-11.52C129,53.66,128,48.13,130.91,42.93Zm0,27.91c3.54,8,7.4,15.92,14.58,21.44,3.46,2.66,7.67,4.22,11.2,6.83h0c.94,1.1,2.3,1.69,3.32,2.67s2.5,1.22,2.92,2.71c-.93-.75-2.14-.77-3.19-1.23-4.53-2-8.74-4.56-13.1-6.85a26.48,26.48,0,0,1-10.87-10.77A76.46,76.46,0,0,1,127,58.59c0-3-.33-6,.56-8.93.17-.56,0-1.36.92-1.48-.52,4.2.11,8.37.46,12.54C129.17,64.18,129.44,67.64,131,70.84Zm-7.78-19A6.93,6.93,0,0,0,124,49.5a21.43,21.43,0,0,1,4-3.88c.18.85-.35,1.39-.46,2a22,22,0,0,0-1.2,11.13c.25,6.61,2.59,12.7,4.71,18.85a49.91,49.91,0,0,0,4.73,9.65,24.79,24.79,0,0,0,9.15,9c5.53,3.08,11,6.35,16.89,8.63.52.21,1,.73,1.67.35,2.71,1.67,5.8,2.63,8.31,4.72l-1.6-.22c-3.74-1.25-7.49-2.47-11.23-3.75a60.82,60.82,0,0,1-22.5-13.83A92.42,92.42,0,0,1,128,79.46a18.67,18.67,0,0,1-2.07-5.24c-.78-3.24-1.71-6.46-2.41-9.72A35.36,35.36,0,0,1,123,52.71.92.92,0,0,0,123.17,51.84Zm-.9,1.41c-1.08,4.69-.26,9.27.81,13.82.6,2.6,1.35,5.16,2,7.74a19.22,19.22,0,0,0,2.35,5.49c2.57,4,4.85,8.27,8.14,11.8a49.35,49.35,0,0,0,14.47,10.82,71.85,71.85,0,0,0,15.06,5.81,6.6,6.6,0,0,1,1.16.51A3.57,3.57,0,0,1,169,110.3c-.77,0-1.58.12-2.26-.42-5.89-.7-11.67-1.65-17.08-4.37a61.59,61.59,0,0,1-25.9-24.15c-.45-1.06-.83-2.15-1.35-3.17a25.41,25.41,0,0,1-2.66-15c.28-2.23.51-4.47,1-6.67C121,55.33,120.93,53.92,122.27,53.25ZM119.35,60a30.09,30.09,0,0,0,3.8,21.54c.29.6.56,1.21.87,1.8,2.67,5.17,6.81,9.13,10.94,13.09a50.94,50.94,0,0,0,29,14.07c4,.56,8.15.31,12.15,1.21l4.77.18v.32l-2,.66a5.69,5.69,0,0,0-2.3-.49,22.8,22.8,0,0,0-4.63.81,37.68,37.68,0,0,1-17.87-2.22c-5-2-9.19-5.48-13.9-8l-.5.16,9.94,6.61c.26.18.6.3.57.69l-.18.07-4.2-1.1h0A91.55,91.55,0,0,1,127,94.87c-4.09-4.09-6-9.34-7.61-14.71a5.44,5.44,0,0,1-.81-2.41c1.12.46,1.08,1.62,1.51,2.51,2.15,4.9,4.7,9.55,8.51,13.4l.76,0c-4-4.23-6.65-9.26-9-14.5-.37-.83-.81-1.63-1.21-2.45C114.92,71.12,116.76,65.54,119.35,60Zm-2.81,14.42a7.94,7.94,0,0,1,1.3,3.84c.27.87.56,1.74.81,2.61a35,35,0,0,0,12.88,19.37c2.67,2,5.38,4,8,6,.23.18,1.52.22.55,1.12-2.19-1-4.36-2.11-6.59-3.06C125.77,101,121.44,94.84,119,87.12c-.11-.35-.22-.69-.34-1l-1.38-7.44A11.58,11.58,0,0,1,116.54,74.37Zm-.73,5.15c0-.57-.36-1.35.54-1.66l1.65,8.4a20.62,20.62,0,0,0,3.51,8.64,34.37,34.37,0,0,0,6.42,7.56c2.09,1.56,4.7,2.07,6.91,3.4a79.19,79.19,0,0,0,9.3,3.74c2.53.69,5,1.82,7.67,1.78h0l2.73,1c.77,1-.21.58-.5.55-2.56-.26-5.11-.55-7.66-.82-.11.42.27.51.48.72a65.87,65.87,0,0,0,10.77.9,45.88,45.88,0,0,0,8.76.52l5.77-.56a16.39,16.39,0,0,1,2.09-.28c.71,0,1.45-.78,2.14,0h0l-6.47,1.28h-.17c-1,0-1.89.61-2.88.21-.7.15-1.39.37-2.1.46-8.65,1.09-17.12.48-25.18-3.09a47.71,47.71,0,0,1-22-19C116.62,88.81,115.57,84.24,115.81,79.52Zm52.86,36c-.86.94-2.07.92-3.18,1.15-2.81,1.06-5.82,1-8.73,1.51l-2.72,0a47.69,47.69,0,0,1-16.72-2.34c-8.62-2.95-13.72-9.49-17.72-17.18-.57-.62-1.3-1.16-.91-2.18.41.73,1.19,1.19,1.43,2a52.84,52.84,0,0,0,9.76,9.2c10.63,7.83,22.59,10.11,35.48,8.39C166.39,115.58,167.56,115.73,168.67,115.53Zm-46.84-7.75c-2.26-3.52-4.32-7.12-4.85-11.84l5.26,8.67a26.42,26.42,0,0,0,7.06,7.79c8.32,6,17.78,7,27.65,6.27h0c4.9.14,9.41-1.75,14.09-2.72,1.18-.24,2.31-.81,3.57-.5-1.75.83-3.5,1.68-5.26,2.5C154.36,124.88,132.43,121.79,121.83,107.78Zm12.76,12.34a9.37,9.37,0,0,1-2.82-2.49c.74-.17,1.17.23,1.65.45a43.41,43.41,0,0,0,33.36,1.8c4.1-1.39,7.83-3.65,11.87-5.19a5.27,5.27,0,0,1,2.59-1,4.47,4.47,0,0,1-2.4,1.65c-5.52,3.46-11.06,6.87-17.36,8.79C151.87,127.06,142.85,126.1,134.59,120.12Zm11.6,9.7c1.88.34,3.52.76,5.18.92,6.06.58,11.78-.84,17.35-3.07,2.75-1.61,5.27-3.54,7.87-5.37h0l2.89-2.47c3-2.56,6-5.17,9.87-6.3l2-.58c-.32.83-1.1.93-1.81,1.14h0a4,4,0,0,0-1,.36q-6,4.33-12,8.69a67.28,67.28,0,0,1-7.65,5.09h0a18.22,18.22,0,0,1-6.67,2.93,43.49,43.49,0,0,1-12.78.44A6,6,0,0,1,146.19,129.82Zm11.13,4.91a12,12,0,0,1-4.36-1.07,1.12,1.12,0,0,1-.45-.08l.45.08-1.72-.94a41.37,41.37,0,0,0,11.12-1c3.92-.61,7-2.88,10.19-5,4.56-3.09,9.06-6.27,13.43-9.64a21.78,21.78,0,0,1,11.34-4.57c.48,0,1.16-.49,1.48.35a.29.29,0,0,0-.4.24c-7.79,3-15.11,6.81-21.44,12.34-3.21,1.94-6.4,3.89-9.62,5.81A26,26,0,0,1,157.32,134.73Zm2.73.94H160c-.06-.23-1.17-.34-.1-.7,1.26-.42,2.57-.72,3.81-1.2,3.48-1.35,6.41-3.67,9.61-5.51.73-.42,1.34-1.2,2.34-1-4,5-8.73,8.65-15.55,8.4Zm7.84,1.15c0-.11-.08-.3,0-.32,7-4,12.32-10.3,18.84-15l4.12-3c.12-.37,1-.36.53-1-5.63,3.41-10.42,7.89-15.41,12.12l-1.64,1.43a21.35,21.35,0,0,1-8.77,5.71,14.51,14.51,0,0,1-4,.22l-.17-.49a18.63,18.63,0,0,0,6.79-1.67c2.52-1.15,4.39-3.12,6.39-4.93h0a46,46,0,0,1,16.65-13,19.61,19.61,0,0,1,5.93-2.22L191,119a69.54,69.54,0,0,0-9,8.74C178.22,132.24,174,136,167.89,136.82Zm9-2.6Zm17.33-12.63c-4.94,5.56-10.53,10.27-17.39,13.31l.06-.67a25.53,25.53,0,0,0,6.48-5.12c3.17-3.22,7.38-5,10.74-8,0,0,.14,0,.14.08S194.19,121.47,194.18,121.59Zm5.95-7.13-2.41,2.69c-.44.11-.62.49-.87.8-3.83,3.64-8.46,6.2-12.61,9.4a27.86,27.86,0,0,1-2.71,2.62c-.43.33-.06-.29-.16-.43l2.63-2.82a1.79,1.79,0,0,1,.46-.5,39.45,39.45,0,0,1,4-4c3.19-3.08,7.14-5.18,10.47-8.08l1.21-.65a4.64,4.64,0,0,1,2.59-1.07Zm3.25-3.75c-1,1-2.17.94-3.19,1.19-.82-.43-1.91.38-2.62-.57A26.14,26.14,0,0,1,203.38,110.71Zm-6.2-.79a3.81,3.81,0,0,1,2.45.12,7.42,7.42,0,0,1-2.51.55h0c-2.29.57-4.58,1.21-6.89,1.71-4.91,1.07-8.53,4.26-12.15,7.4-5.2,4.51-10.7,8.37-17.72,9.56-7.58,1.29-14.78,1.06-20.94-4.33a4.57,4.57,0,0,1-1.93-1.68c.09-.14.18-.28.26-.42l4.08,2.22a32.06,32.06,0,0,0,18.66.33c7.93-2.17,14.8-6.44,21.49-10.95A24.88,24.88,0,0,1,197.18,109.92Zm-6.73-.61c-2.26.21-4.27,1.51-6.56,1.31a12.9,12.9,0,0,1-9.35-.94,6.88,6.88,0,0,1-3.45-1.58c.32-.91-.49-.93-1-1.22-1.48-.89-3.14-1.52-4.44-3.08l2,.64a2.4,2.4,0,0,0,.69.21,52.29,52.29,0,0,0,19.46,4A4.15,4.15,0,0,1,190.45,109.31ZM146.37,78.68c3.86,3.14,6.91,7.19,11,10.08,5.34,3.78,10.46,7.87,16,11.39a150,150,0,0,0,13.19,7.35,10.88,10.88,0,0,1-6.18-.65c-5.31-2.68-10.8-5.1-15.05-9.49a59.16,59.16,0,0,0-7.61-6.54,61,61,0,0,1-13-12.94C145.52,77.61,145.88,78.29,146.37,78.68ZM132.28,52.46a41.94,41.94,0,0,0,3.07,10.65c4.28,10.29,10.46,19.23,19.2,26.22,4,3.23,8.1,6.43,11.81,10a22.78,22.78,0,0,0,5.49,3.89c1.74.9,3.44,1.87,5.15,2.81l-.15.41c-.67-.15-1.35-.29-2-.47a51.24,51.24,0,0,1-17.53-9.1c-10.62-8.06-19.45-17.46-24.36-30.09-.77-3.44-1.59-6.86-2.31-10.31-1.35-6.53-.42-12.57,4-17.85h0l2.33-1.56A19.18,19.18,0,0,0,132.28,52.46Z" transform="translate(-62.84 -35.46)"/><path class="cls-3" d="M140,102.73l.18.15A1,1,0,0,0,140,102.73Z" transform="translate(-62.84 -35.46)"/></g></g></g></svg>