<svg xmlns="http://www.w3.org/2000/svg" xmlns:xlink="http://www.w3.org/1999/xlink" viewBox="0 0 617.19 526.47"><defs><style>.cls-1{fill:none;}.cls-2{clip-path:url(#clip-path);}.cls-3{fill:#a18978;}</style><clipPath id="clip-path" transform="translate(-100.01 -27.78)"><rect class="cls-1" width="504.25" height="377"/></clipPath></defs><g id="圖層_2" data-name="圖層 2"><g id="飄移"><g class="cls-2"><path class="cls-3" d="M608.68,546.53c-7.33-7.62-12.1-16.42-12.83-27.15a30.86,30.86,0,0,0-.56-3.26c0-.25,0-.5-.08-.76-.74-8-4.74-14.9-8-22.5,2,.77,2.37,2.35,3.27,3.46s1.9,2.55,2.84,3.83c5,5.71,6.61,12.77,7.92,20,2,11.07,7.13,20.38,15.87,27.57,1.07.87,1.92,2.31,5,1.75-15.09-9.85-19-24.8-21.84-40.88l.21-.1c1,1.38,1.86,2.43,2.67,3.48,4.16,9.16,7.08,18.94,13.64,26.88a17.31,17.31,0,0,0,7,5.24c.58.23,1.22.41,1.53-.4s-.31-.78-.74-1c-6.09-2.63-9.22-8-12-13.49-1.89-3.79-3.31-7.83-5.06-12a29.71,29.71,0,0,1,6.24,7.18c3,4.35,6,8.7,9.92,12.34a34.93,34.93,0,0,0,3.17,2.51c.57.42,1.3,1,1.91.18s-.23-1.22-.83-1.62c-6.84-4.58-10.42-12-15.66-18-.72-.82.12-.93.66-1.12,5.83,3.33,10,8.74,15.7,12.27a12.06,12.06,0,0,0,6.07,2.28c-1.93-2.26-4.32-2.62-5.52-4.66a1,1,0,0,1,.12-.19c2.73-.76,5.34,1.81,8.51-.3-4-1-7.54-1.62-11.29-3.52v-.07c5-1,9.78,2.11,14.89-.9-2.54-.5-4.29.27-6-.77,2.83-2.22,7-1.32,10-4.83-8.72,1.72-16.61,7.11-25.25.77,11.14-.52,21.37-3.14,30.71-8.76-5.54,1.76-11,3.6-16.62,5.23-4.88,1.43-9.95,1.64-15,2a13.43,13.43,0,0,1-7.69-2.22c.35-1.23-4.09-.59-1.12-2.85,9.24,2.23,18.38.86,27.43-1.06,4.93-1.05,9.73-2.71,14.59-4.12,1.18-.34,2.41-.7,2.6-2.54-9.41,3-18.71,5.9-28.5,6.84a68.31,68.31,0,0,1-18.4-.75,12.5,12.5,0,0,1-8.82-6.33c11,4.46,22.32,3.88,33.64,2.05s21.93-4.72,30.7-12.38c-5.44,2.7-10.81,5.65-16.7,7.36-13.24,3.87-26.62,6.34-40.43,3.27-5-1.11-9.63-3.07-13.36-6.74-.31-1.24.1-1.5,1.27-1,20.4,8.34,39.6,3,58.55-5.16,14.47-6.24,24.86-17.4,34.82-29a2.79,2.79,0,0,0,1.06-2.68c-1.6,1.7-2.89,3.1-4.23,4.46-7.58,7.73-14.82,16-24.08,21.69-15.7,9.68-33,13.91-51.48,13.26-5.64-.2-10.85-2.21-15.89-4.58a8.92,8.92,0,0,1-4.54-4c.57,0,.9-.08,1.12,0,11.29,5.94,23,6.43,35.18,3.17,14.36-3.85,27.3-10.58,39.58-18.74a23.15,23.15,0,0,0,2.72-2.44c6.08-4.48,10.72-10.46,16.15-15.62a104.9,104.9,0,0,1,19.45-15.17,5.81,5.81,0,0,0,2.84-3.51,78.74,78.74,0,0,0-21.23,15.23q-9.55,9.47-19.07,19c-8.86,6-18,11.69-28,15.52-10.47,4-21.09,7.66-32.64,5.79-8.55-1.38-16.46-4.05-22.3-10.95a1.14,1.14,0,0,0-1.25-.48c2.74,6.32,5.44,12.65,8.22,18.95a113.44,113.44,0,0,1,4.31,12.94c.5,13.5,5.15,25.18,15.09,34.57.64.62,1.8,1,1.52,2.34-3.27,0-5.86-1.63-8.37-3.44-1.27-1.33-2.48-2.71-3.8-4-7.55-7.29-11.32-16.21-11.93-26.65a98.9,98.9,0,0,0-5.52-28.56c-.07-2.08-1.08-3.89-1.72-5.8-.38-1.13.14-1.18,1-1.07l1.15.45c1.27-1.23,2.12-.14,3.13.5,9.35,5.92,19.26,9.67,30.49,6.57,6.8-1.88,12.92-5.39,18.91-9.06h0c9.17-4.42,17.15-10.63,25.27-16.65,14-10.36,27.87-20.76,41.93-31,3.86-2.81,8-5.37,13.09-5.49,1.85-.05,2-1.76,3.31-3.28-9.05-.37-17.5-2.41-26.13-1.31-3.54.46-6.29-.91-9.14-2.87a50.23,50.23,0,0,1-11.51-10.24c-4-4.66-3.76-10.12-2.89-15.67q2.7-17.1,5.42-34.2c.3-2.21-.58-4.48.37-6.65-.11-30.3-14.48-51.9-40.66-66.12-4.31-2.34-9.09-3.81-13.66-5.69-1.6-.65-3.21-1.26-4.78-2-.49-.22-.75-.7.15-.76a2.67,2.67,0,0,1,.73.13c.12-.33.25-.65.38-1l-7.84-1.79C600.49,273,593,271,586.27,267.53s-13.68-5.42-20.76-7.37c-12.48-3.43-25.09-3.14-37.72-.84a59.37,59.37,0,0,1-19.54-.79c-8.57-2.49-15.95-7.31-23.42-11.94a22.1,22.1,0,0,1-3.31-2.91c-7.77-10.16-18.49-13.85-30.76-14.15-10.1-.26-20.18-.34-30.15,1.76a35.75,35.75,0,0,0-8.29,3.07c-2.5,0-3.87-1.81-5.45-3.31-2.59-2.45-5.21-4.86-7.82-7.29-1.34-2.65-5.16-2.56-6.19-5.57-1.59-1.85-3.27-3.64-4.77-5.57-7.32-9.39-11.47-20.43-16.1-31.23h0c-4-13.93-8-27.85-11.87-41.81a114.86,114.86,0,0,1-3.33-19.6c-.65-6.48-1.58-12.91-4-19a36.54,36.54,0,0,1,0-7.32A125.55,125.55,0,0,1,365.87,49.1c6.74-9.87,16.11-15.7,27.76-18l.56.37c-.17.16-.31.38-.5.47a56.17,56.17,0,0,0-24.53,22.28c-9.24,15.39-11.59,32.74-9.92,50.24,1.18,12.3,4.6,24.38,7,36.56.69,6.24,2.46,12.27,4,18.33,4.89,19.85,11.13,39.2,22.46,56.51l0,0h0a.3.3,0,0,0,0-.08c.52-.84-.17-1.6-.21-2.41-12.5-21.14-19.5-44.2-24-68.17a18,18,0,0,0-.49-1.74C366.57,132.63,364,122,362,111.18c-3.57-18.68-.85-36.7,7.41-53.64,4.61-9.45,12.5-16.45,21-22.53,3.42-2.45,7.07-1.12,10.58.19l4.43,3c.44.46.85,1,1.25,1.44l1.16-1.72-4.72-3.37L401.43,34c-.53-.57-1-1.18-1.55-1.77l-5.59-4h0l-2.5-.47.59.48a.7.7,0,0,1,0,.14,1.87,1.87,0,0,1-.16.35l-5.51-.31-1.16.54c-3.12-.43-5.64,2.07-8.73,1.81-2.21-1.88-4.3,1.06-6.49.17a12.55,12.55,0,0,1-5.62.12l-7.63.77c-.56.61-1.28.48-2,.46H355l-.87-.12h0c-2.16-.19-3.75,1.45-5.75,1.77-6.93,4.13-13.9,8.2-20.79,12.4-7.8,4.75-14.66,10.53-19.34,18.55-8.36,6.72-13.28,15.92-18.17,25.15-.84,1.58-1.27,3.52-3.42,4-1.36.16-.7,1.65-1.46,2.2-4,3.82-5.32,9-6.87,13.94a33.26,33.26,0,0,0-1.57,12A26.51,26.51,0,0,0,277,132.8c2.11,8.31,2.39,16.85,3.44,25.27.87,7.05,1.69,14.08,3,21.08a83.34,83.34,0,0,0,13,31c.31,4.58,3.33,7.45,6.47,10.25,7.69,6.83,15.39,13.5,25.76,16.25,17.53,4.64,35,4.25,52.48.08,7.91-1.44,15.81-3.05,23.93-1.85-.39,1.85-2.09,1.41-3.22,1.66-4.16.92-8.37,1.64-12.57,2.43-11.22.84-22.3,2.81-33.65,2.86a108.59,108.59,0,0,1-35.79-6.13,50.08,50.08,0,0,0-8.37-4.37c-2.45-1.64-4.82-3.4-7.35-4.9-9.35-5.52-14.1-14.88-19.58-23.55-7.78-12.3-10.71-26.39-14.17-40.25a33.87,33.87,0,0,0-2.55-7.69,8.09,8.09,0,0,0-.22-1.09,38,38,0,0,0-2.7-7.58l-.56-1.37c-2.8-8.85-8.44-15.88-14.92-22.15-15.1-14.61-33-24.18-53.79-27.68-12.49-2.1-24.44,1.4-36.39,4.34-9.73,2.4-18.66,6.36-26,13.41-3,2.88-6.53,5.36-6.8,10.28-.16,2.92-2.5,4.94-4.67,6.83-.94.82-2.45,1.61-1.08,3.26a57.86,57.86,0,0,0-8.45,14.63,4.27,4.27,0,0,0-1.26,2.94c-1,3.53-4.51,6.65-1.73,10.86.25.37-.4,1.35-.64,2-2.25,6.65-3.4,13.64-7,19.88a11.61,11.61,0,0,0,.11,12.56c-.56,2.09-1.17,4.13.86,5.91,1.22,1.07.25,2.42.08,3.64,1.57,4.64,2.89,9.42,4.59,13.93,1.33,3.54,2,7.16,3.18,10.68,1.36,4.11,3.8,5.2,7.21,2.67,18.92-14,40.52-18.51,63.51-18.22,1.23,0,2.47,0,3.7-.06,1,0,2.07-.11,3.88-.22a.84.84,0,0,1,.05.17v.11c-5.06,2.39-9.67,3.06-14.1,4-16.16,3.3-30.25,10.22-41.74,22.24a28.15,28.15,0,0,1-7.23,5.71c-2.72,1.41-4.91,1-6.79-1.51a23.76,23.76,0,0,1-2.66-4.84c-.73-1.66,0-3.69-1.81-5.77-1,4.53.41,7.86,2.6,11A60.4,60.4,0,0,1,121,252c2.11,3.9,2.82,9,7.32,11.46-.59,3.32,1.95,4.41,4.24,5.31,2.82,1.11,4.64,3.15,6.38,5.42.8,1.05.23,2.09.05,3.13,1.25,4.62,4.48,6.54,9,6.67l5.48,3.15c2.89,0,5.83,1.34,8.67-.29,2.2,2.81,5.37,4.58,7.79,7.1,4.5,4.69,10.44,5.82,16.1,2.62a27,27,0,0,0,9.72-9.44c2.3-3.7,3.71-7.79,5.26-11.82,3.57-9.33,6.76-18.82,12.26-27.3,6.05-9.33,14.43-15.89,24.17-21.2.16,1.39-.75,1.86-1.3,2.42a75.39,75.39,0,0,0-19.49,36.39,64.79,64.79,0,0,1-6.42,17.29c-3.21,4.21-6.54,8.26-10.9,11.41-4.67,3.39-9.88,4.62-16.56,3.86,8.17,4.64,22.49-3.34,28.68-14.82,2.35-3.22,3.67-6.91,4.91-10.64,2.58-7.78,3.56-16.1,7.94-23.26C235.15,226.9,250.62,216.6,274,216c1.81-.05,3.66.44,5.42-.37,1.69.27,3.4.45,5.06.82,4.87,1.05,7,5,5.33,9.73-4.08,11.38-11.27,20.77-19.39,29.42-7.06,7.52-13.46,15.29-17,25.17-6.11,16.92-3.73,27.34,9.22,39.72,5,4.81,10.42,9,17,11.52,9.27,5.69,19.19,5.09,29.22,2.94,9.37-2,18.81-3.62,28.28-5.09h0c6.69.62,12.13,4.07,17.51,7.69,2.31,1.55,4.17,3.8,7,4.58,8.25,9.63,18.56,9.16,26.36-.55,3.12-3.89,7.18-7,9.43-11.66.39-.8,1-.87,1.86-.64a3.28,3.28,0,0,0,2.82-.6c5.37-3.81,12-6.2,14.3-13.38.7-2.24,3.79-1.68,4.8-3.69l3.56-3c.84.3,1.46,1.4,2.58.63,8.32-5.7,17.56-3.72,26.5-2.76,5.86.62,11.23.45,16.2-2.94,4.83-2.3,6.74-7,8.83-11.34A114.16,114.16,0,0,0,486.54,270c1.25-3.32,1-6.74.57-10.13-.19-1.6.19-2.11,1.72-1.49a54.4,54.4,0,0,0,16.08,3.46c.36,0,.67.59,1,.9,2.91,2.34,6.6,3,9.86,4.63a41.62,41.62,0,0,1,14.43,11.17c7.07,8.77,13.57,17.76,15.23,29.31a1.37,1.37,0,0,0,0,.43q.79,7.2,1.57,14.42c.25,16.31-3,32.21-5.75,48.15-.27,1.57-.42,3.15-.63,4.72-1.59,4.15-1.47,8.75-3.39,12.82-6.13,11.62-10.45,23.59-6.78,37,1.94,7.05,5.5,13.06,11.68,17.27a10.94,10.94,0,0,0,1.76,1.83c10.47,6.78,11.79,17.15,10.85,28.22-.27,3.12-1.59,6.2-2.66,9.21-6.1,17.07-2,31.78,10.33,44.5a91.4,91.4,0,0,0,50.28,27c2,.38,4.59,2.26,6.11-1.49C614.16,552.54,611.5,549.46,608.68,546.53ZM384.37,212.29c-3.85-2.54-8.68-3-12.05-6.26a26.07,26.07,0,0,1-13.56-13.35,14,14,0,0,1-3.46-6.87c1.66-1,.41-2.1,0-3.15-1.19-3.29-3-6.39-3.1-10.51l2.42,3.6a4.7,4.7,0,0,0,.82,1.21c6.36,12.16,15.25,22.23,25.61,31.1C382.45,209.23,383.89,210.4,384.37,212.29ZM353.6,107.93c2.1,9.87,1.8,20.13,4.57,29.87,3.62,12.76,6.53,25.73,10.8,38.31,3.13,9.72,7.4,19,11.51,28.35-3.67-2.31-7.15-5-8.93-8.87-5-11-10.61-21.77-11.75-34.11a116.83,116.83,0,0,0-3.72-20A123.76,123.76,0,0,1,352,104.57C353.62,105.17,353.33,106.69,353.6,107.93Zm32.17-78.2h0l5.65.5c-11.57,2.29-20.62,8.25-26.82,18.38A84.79,84.79,0,0,0,356,69.35C349.66,91,348.07,113,353,135.15c2.28,10.23,4.63,20.43,5.92,30.85a45.8,45.8,0,0,0,3.71,13.11c1.62,3.63,3.07,7.32,4.59,11-.26.15-.52.3-.77.46-.87-1.11-1.77-2.19-2.59-3.32-8-11.05-12.82-23.38-16.14-36.63-6.56-26.22-8.57-52.28-.29-78.48,3.14-6.4,6.2-12.85,9.45-19.21C363,40.89,372.18,32.53,385.77,29.73Zm-11.21,2.08h0c-6.8,5.25-13.58,10.51-17.72,18.36-1,1.94-1.77,4.07-3.41,5.65-2.36,5.28-5.68,10.11-7.2,15.77h0c-6.16,17.24-7.24,35-5.23,53.05,1.05,9.48,3.5,18.72,5.56,28,1.33,5,3.13,9.92,3.54,15.15-.6,1.84.65,3.63.12,6.11l-4.89-19.4h0c-.09-1.27-1.15-2.36-.68-3.73h0c-.22-.67-.44-1.35-.67-2-1.74-4.57-4-9-5.26-13.7-.1-.34-.19-.68-.28-1a47.31,47.31,0,0,1-3.61-25.62c1.28-10.74,2.25-21.54,5.53-31.93,2.39-7.71,7.21-14.07,11.44-20.76C357.85,46.29,363.3,36.29,374.56,31.81ZM364,37c-6.17,6-10.47,13.36-15.22,20.4-3.94,5.83-7.9,11.63-9.58,18.62-4.62,17.2-8.52,34.54-4.18,52.36,2.09,8.61,6.75,16.41,9,25v0c.1,2.93,1.5,5.58,1.87,8.43.34,2.68,2.39,5.1,1.17,8-.52-2.37-2.41-3.93-3.49-6-4.64-8.88-8-18.3-12-27.47a53.62,53.62,0,0,1-3.5-30.81c3.24-19.34,10.32-37.24,20.33-54,3.86-4.65,7.09-9.89,12.21-13.39C361.63,37.46,362.41,36,364,37Zm-13-.89a14.2,14.2,0,0,0,4.32-2.63c3.64-.63,7.28-1.43,11.18-1.09-.8,1.58-2.32,1.75-3.31,2.62-6.88,3.81-11.91,9.48-16,16.05-8,10.78-12,23.37-16.5,35.78a100.69,100.69,0,0,0-4.77,21.25,50.2,50.2,0,0,0,3.05,25.8c4.83,11.88,9.25,23.94,15.73,35.08.57,1,.67,2.45,2.2,2.69,2.16,6.06,5.83,11.51,7.14,18-.75-.8-1.51-1.59-2.26-2.38-4.33-6.73-8.7-13.42-13-20.18a123.2,123.2,0,0,1-18-50.42c-.23-10.39,1.23-20.63,2.7-30.86a38.41,38.41,0,0,1,3.37-10.9c2.9-6.12,5.51-12.38,8.56-18.42a71.21,71.21,0,0,1,14.19-19.24A1.9,1.9,0,0,0,351,36.07Zm-9.75,4.2c1.83-1.5,3.58-3.76,6.55-3.11-7.67,6-12.18,14.31-16.28,22.86-2.34,4.87-4.41,9.86-6.62,14.79a38.53,38.53,0,0,0-3.27,11.67c-1.07,9.63-2.84,19.21-2.13,29a100.85,100.85,0,0,0,9.12,35.47c4.63,9.9,9.68,19.6,16.44,28.29a13.32,13.32,0,0,1,1.17,2.29c1.42,1.45,3,2.81,3,5.11-1.16-1.05-2.65-1.81-3-3.53-8.41-8.57-16.34-17.42-21.43-28.57a124.84,124.84,0,0,1-10.27-71c.64-2.24,1.42-4.45,1.89-6.73a51.49,51.49,0,0,1,14.9-27.15C334.54,46.41,337.75,43.15,341.27,40.27ZM334.69,44a61,61,0,0,0-21.34,38.86c-.3,1.31-.65,2.62-.92,3.94-2.33,11.57-.83,23.08.66,34.58a103.3,103.3,0,0,0,28,59.09c5.68,6,12.5,10.83,17.66,17.34l7.3,6.34c-.13.16-.25.33-.38.5l-4-1.49a11.27,11.27,0,0,0-3-3.69c-2.79-1.51-5.24-3.66-8.34-4.61-10.72-6.55-18.93-15.53-25.41-26.19-5.3-9.58-7.57-20.34-11.76-30.35l-1-.4q3.64,11.53,7.3,23.07c.2.62.57,1.25,0,1.81l-.37-.11-5.25-7.07v-.05a185.22,185.22,0,0,1-11.49-46.75C301.08,97.2,304.79,86.51,309,76c-.06-1.86,1.09-3.27,1.79-4.84,1.17,2.16-.35,3.94-.81,5.88-2.81,10.48-4.69,21.06-3.56,32l1.15,1c-.91-11.73,1.24-23.08,4.2-34.33.47-1.78.8-3.6,1.19-5.4C313.52,56.05,323.5,49.58,334.69,44Zm-27.4,101.22c-2.17-4.41-4.21-8.88-6.52-13.21-8-15-7.08-30.23-1.2-45.59.26-.68.51-1.37.77-2q3.62-6.77,7.25-13.52A23.73,23.73,0,0,1,312,63.24,16.26,16.26,0,0,1,309.12,71c-.68,1.72-1.31,3.46-2,5.15-6.54,15.19-8.39,30.81-4.24,47,1.68,6.56,3.45,13.1,5,19.69C308,143.35,310,145.06,307.29,145.25Zm-3-74.79c.77-.87,1.15-2.58,3-1.94l-8,15.38c-3.44,5.54-4.78,11.75-5.43,18.09a69.76,69.76,0,0,0,.55,20.09c1.33,5.13,4.8,9.25,6.6,14.16,3.24,5.95,6,12.2,9.94,17.71,3.11,4.31,5.54,9.18,9.85,12.55l0,0,3,5.09c-.08,2.6-1.05.65-1.48.23-3.72-3.65-7.39-7.35-11.07-11-.7.53-.22,1.16-.15,1.76,5.08,5.25,9.95,10.71,15.85,15.1,4.24,4.17,8.22,8.61,13.21,11.94l9.81,6.44a32,32,0,0,1,3.66,2.2c1.13.89,3.29.61,3.32,2.8h0L345,194.86h0l-.27-.23c-1.51-1.24-3.75-1.42-4.8-3.32-1.31-.64-2.68-1.19-3.91-1.95-15.06-9.25-27.66-21-35.86-36.83-9.4-18.18-13.3-37.47-10.69-57.91C293.73,86.15,297.88,77.62,304.25,70.46Zm37.79,124c-2.55.4-4.43-1.17-6.49-2.21-5.78-1.9-10.47-5.77-15.69-8.7-1.45-1.14-2.88-2.3-4.35-3.42-9.17-7-17.22-15.08-23.44-24.91-9.88-15.61-9.63-32.42-6.18-49.65-.11-1.69-.59-3.48,1.32-4.6-.27,1.67.37,3.39-.31,5a107,107,0,0,0,3.74,26.94c6.85,25.84,22.85,44.64,45.4,58.29C338.39,191.66,340.05,193.37,342,194.46Zm-64.16-71.72c.9-8.42,2.22-16.72,7.36-24.85-1,7.44-1.83,13.91-2.69,20.37a53.53,53.53,0,0,0,1.27,21.27c5.48,20.09,19.15,33.72,35.73,45,7.56,6.44,17.08,9.18,25.71,13.6,2.16,1.11,4.68,1.66,6.27,3.74-3.82-.91-7.66-1.78-11.47-2.73C307.57,191.06,276.85,158.34,277.88,122.74Zm3.21,28.2c1.37.66,1.54,1.85,2,2.81,10.81,21.76,27.56,36.88,50.43,45.2,8.25,3,17,4.15,25.33,6.85a10.94,10.94,0,0,1,5.38,1.73,9.08,9.08,0,0,1-5.9-.45c-13.1-1.55-26.19-3.2-38.58-8.16-18.89-7.57-31.93-20.54-37.41-40.47C281.71,156.06,280.77,153.66,281.09,150.94Zm2.8,21.23c-1-1.61-.91-3.36-.91-5.09l.95-.33q1.81,4.33,3.61,8.68a65.25,65.25,0,0,0,29.07,24.21c15.29,6.63,31.57,8.61,47.87,10,11.38,1,21.18,4.76,29.73,12.15a7.79,7.79,0,0,1,3.72,3.3c-2-.8-3.47-1.21-4.65-2.3h0c-4.36-2-8.78-3.91-13.07-6-9.13-4.55-18.87-4.1-28.6-3.74-13.93.52-27.52-.35-40.12-7.38C297.88,198,286.79,188.52,283.89,172.17Zm4.5,16.33c2.54,2.93,4.6,5.66,7,8,8.84,8.62,19.68,13.65,31.33,17.19,6.37.95,12.82,1.1,19.24,1.5h0l7.71-.23c8-.24,16-.6,23.58,2.58l3.87,1.6c-1.56.91-2.92.08-4.31-.5h0a7.72,7.72,0,0,0-2.06-.7c-10-.53-20-1-29.95-1.5-6.2-.44-12.44-.36-18.56-1.65h0A37.16,37.16,0,0,1,312,211c-7.81-4-14.47-9.51-20.76-15.53C290,193.42,288.41,191.52,288.39,188.5Zm5.82,14.67a2.16,2.16,0,0,1-.61-.71c.19.24.39.48.61.71l-1.53-3.68c6,4.8,11.87,9.48,18.89,12.49,7,4,14.76,4.38,22.46,5,11.14.91,22.28,1.6,33.47,1.83A43.91,43.91,0,0,1,391.2,226c.83.54,2.48.7,1.92,2.44a.59.59,0,0,0-.95-.14c-16.12-5.13-32.53-8.43-49.56-7.72-7.52-1-15-2-22.55-3a52.49,52.49,0,0,1-20.31-7.15A24.39,24.39,0,0,1,294.21,203.17Zm8.67,12.2,0,0-.14-.12c.19-.45-1.42-2,.72-1.23,2.54.93,5,2.12,7.55,2.93,7.22,2.29,14.79,2.34,22.19,3.5,1.68.27,3.62-.19,4.94,1.4C325.46,224.56,313.34,224.42,302.88,215.37Zm10.9,11.74c.11-.2.26-.57.34-.56,16.25,2.58,32.53-.64,48.78.22l10.27.58c.66-.44,2.05.71,2.15-1-13.23-1.75-26.48-.77-39.73-.41-1.47,0-2.95.12-4.42.17a43.17,43.17,0,0,1-21.1-2.11,29.05,29.05,0,0,1-6.6-4.73l.35-1a38,38,0,0,0,12.86,6c5.44,1.38,10.89.65,16.35.34h0a92.73,92.73,0,0,1,42.75.68,39.76,39.76,0,0,1,12.19,4l-15.12-1a141.93,141.93,0,0,0-25.35,2.37C335.91,233,324.46,233.59,313.78,227.11Zm17.47,7.26h0Zm43.4,2.06c-14.86,2.52-29.66,2.85-44.37-1.05.32-.33.63-.66,1-1,5.57,1.17,11.17.78,16.73.13,9.1-1.06,18,1.46,27.09,1.06a.48.48,0,0,1,.11.31C375,236.09,374.82,236.25,374.65,236.43Zm18.47-3.71-7.24,1.18a3.51,3.51,0,0,0-2.39.17c-10.66.9-21.23-.94-31.85-1.16a56.21,56.21,0,0,1-7.62.7c-1.09,0,.29-.53.31-.89l7.74-1.12a3.85,3.85,0,0,1,1.36-.2c3.73-.9,7.55-.87,11.34-1.22,9-.82,17.86.88,26.81.54l2.73.49a9.44,9.44,0,0,1,5.45,1.61Zm3.34-4c-.75-1.71-3.49-1.82-3.41-4.21,3.31,1.87,6.76,3.52,10,6.39C400.08,231.23,398.39,229.65,396.46,228.74ZM135,114.32c.35-1.32,1.56-1.8,2.46-2.56,9.44-8,21.19-10,32.68-12.9,13.61-3.43,26.86-3.08,40,1.94,4.59,1.76,9.1,3.75,13.64,5.64-.16.41-.32.83-.47,1.25C193.34,103.54,163.52,100.17,135,114.32Zm-5.79,8.85A22.55,22.55,0,0,1,140,114c19-8.12,38.75-9.72,59-6.9,9.88,3.44,19.86,6.59,29.54,10.62,15.93,6.63,25.43,18.51,29.39,35.11.42,1.8-.66.46-1,.62-9.83-21.91-27.19-34.28-50-40-7.74-2-15.59-2.19-23.43-2.83-17-1.38-33.46.6-48.56,9.41C133.07,121.09,131.5,122.75,129.17,123.17ZM214.9,142c11.52,4.51,20.23,12.4,27.11,22.55,6.77,10,13.74,19.84,20.67,29.72.67.94,1.07,2.26,2.47,2.55l2,3.09c-1.94,1-3-.56-4.08-1.59a148.22,148.22,0,0,1-18.79-21.25,157.06,157.06,0,0,0-28.15-29.61,48.29,48.29,0,0,0-13-7.68C187,133.53,171,126.59,153.2,126.14a12.53,12.53,0,0,1-5.95-.51l.62-.15.06,0c2.11-.52,4.19-1.09,6.37-.63l4.65-.22C178.45,127.65,196.67,134.85,214.9,142Zm-12-6h0c1.83-1,1.83-1,6,.62l5.19,1c11,3.85,21.4,8.61,29.51,17.41a100.38,100.38,0,0,1,13.07,18c0,.05,0,.1.08.14l5.82,13.95c0,.15.06.3.1.45.32,1.47.65,3,1.19,5.46-4.46-6.35-8.28-11.88-12.2-17.34-4.57-6.39-9.06-12.85-13.87-19-7.54-9.7-18.2-14.72-29.34-18.92h0Zm63.75,58.49c-.1-.21-.2-.42-.29-.63-3-8.39-5.63-16.92-10.36-24.57-7-12.64-16.73-22.46-30-28.43a51.59,51.59,0,0,0-11.45-4.09c-5.84-2.11-11.95-3.14-18-4.56-10.61-3.06-21.17-6.31-32-8.4-1.66-.32-3.34-.94-5.08-.38a42.56,42.56,0,0,0-15.81,1.17l-7.9,1.48c.8-1.61,2.5-1.89,3.92-2.52,10.14-4.5,20.86-5.87,31.79-5.14,18.1,1.2,34,9.23,50.35,16.18,15.7,6.68,26.26,18.18,35,32.15,5.25,8.4,9.25,17.36,13.24,26.37v0c1.39,4.65,3.78,8.85,6,13.18C271.48,203.48,269.58,198.59,266.7,194.48Zm-20.47-45.21c-.77-4.15-3.83-6.76-6.55-9.56-11.8-12.18-26.88-17.76-43-21.31a165,165,0,0,1-17-5c-.75-.26-2,0-2-1.46,5.28.38,10.57.66,15.84,1.15,16.74,1.54,32,6.83,44.81,18.12,13.89,12.27,20.18,29.16,27.29,45.53a12.11,12.11,0,0,1,.36,2.22C260,168.16,254.05,158.06,246.23,149.27Zm-118-23c14.3-9.72,29-15.35,45.89-13.35,12,4.52,24.5,7.26,36.77,10.83,10.12,3,18.7,8.53,26.39,15.6,1.65,1.24,3.68,2.2,3.68,4.73-1.06-1.28-2.86-1.71-3.68-3.26-12-7.15-24.82-12.63-37.83-17.59-22.74-8.67-45.38-9.8-67.52,2.21A5.08,5.08,0,0,1,128.22,126.3Zm12.59,1c7.48.4,15.07-.3,22.42,1.21,16.59,3.4,32.92,8,47.42,17,12.6,7.81,22.23,19,31.11,30.75,7.16,9.46,14.6,18.59,24,25.94.42.33,1.16.63.62,1.43a27.32,27.32,0,0,1-9.16-4.71c-7.17-5.42-12.46-12.56-17.77-19.68-6.41-8.59-12.56-17.35-21.77-23.43a161.49,161.49,0,0,0-45.28-20.6c-10.85-3.09-21.81-5.19-33.2-3.59-5.89.82-11.52,2.52-17.24,4.11C127,130.21,133.53,127.9,140.81,127.32Zm-27.1,21c2.5-6.63,7.37-10.42,14.09-12.37,10.23-3,20.59-4.12,31-2.09a159.22,159.22,0,0,1,42.88,14.63c12.85,6.62,24.38,14.66,32.7,26.93,6.65,9.81,13.64,19.48,23.59,26.67-2.83,1.41-4.31-1-6.31-1.45a58.46,58.46,0,0,1-17.19-20c-5-9.41-12.31-16.5-21.28-22a170.59,170.59,0,0,0-44.71-19.09c-19.29-5.32-37.32-3.33-53.49,9.32C114.28,149.43,114,149,113.71,148.34Zm5.29,3.35c-3,2-5.4,4.74-8.33,7.36,0-3,1.79-4.7,2.87-6.74,12.36-11.21,27-15.87,43.33-13.46,21.54,3.17,41.21,11.6,59.39,23.52,8.17,5.36,13.76,12.94,18.37,21.36.54,1,1,2-.85,1.12-5.68-7.32-11.59-14.44-19.5-19.5-21.54-13.78-45-21-70.69-20.45C134.82,145.08,126.37,146.66,119,151.69Zm14.51-3.81c9-2,18.14-1.6,27.15-.28,27,3.94,51.45,13.12,69.35,35.17,4.81,5.92,9.38,12,15.05,17.55-1.9.55-3-.71-4.31-.69-10.24-6.56-18.8-15.12-27.68-23.28-23.73-21.79-51.44-30.58-83.35-26l-.09-.09,0,.11c-3.3,1-6.36,2.89-10,2.69C124,150.72,128.42,148.39,133.51,147.88Zm-25.1,24.57c.73-5.53,2.48-10.53,6.7-14.39,15.59-9.94,32.46-8.1,49.48-5.53,15.27,2.3,28,9.86,40.16,18.74,1.34,1,3,1.64,3.84,3.29l24.11,21.16h0c1.74,1.09,3.91,1.66,4.72,3.87-1.77-.83-3.85-1.12-5.08-2.9a26.5,26.5,0,0,1-7.13-4.49c-6-4.89-11.05-10.8-16.75-16-4-2.53-8-5.08-12.06-7.57-12.93-8-27.46-10.59-42.18-12.42-17-2.11-31.5,3.35-43.65,15.28C110,172.1,109.47,172.68,108.41,172.45Zm122.75,27.61c-8.52-2.54-16.14-6.59-22.15-13.33-4.47-5-9-10-13.51-14.94-2-1.3-4.69-1.87-5.31-4.75l5.47,3.14A83.13,83.13,0,0,1,213.08,183c6.23,6.24,12.29,12.65,20.47,16.45C233.26,201.55,231.85,200.26,231.16,200.06ZM102.71,188c-.49-3.21,1.15-5.82,2.87-8.09,11.18-14.75,25.6-23.45,44.64-22.11a113.09,113.09,0,0,1,31.39,6.38c9.7,5.05,17.28,12.52,24,20.95a51.3,51.3,0,0,0,9.54,9.14l6.41,3.7h0c-.13.31-.26.62-.4.93-2.07-.92-4.41-1.31-6.07-3-6.2-2.77-10.91-7.57-15.87-12a92.82,92.82,0,0,0-19.11-13.22c-24.48-12.53-55.33-4-71.48,11a37.84,37.84,0,0,0-5.22,6.22Zm3.7-1.36c23.67-24.65,60-27,86.65-5.52,1.15.93,2.31,1.86,3.41,2.84,7.47,6.61,14.94,13.23,24.58,16.66l2.54.62c.39,1.29,2.94,0,2.6,2.14-1.84-.71-3.95-.47-5.68-1.57-3.73-1.87-8-2.36-11.66-4.39-5.28-2.93-10.65-5.69-15.95-8.59-10.43-5.71-21-11.57-33-12.6-18.43-1.57-36.5.09-52.44,11C106.36,188,106.39,187.55,106.41,186.65Zm.41,12.24c-1,.68-2.17,1.86-3.29,1.27s-.25-2.28-.49-3.44v-.05c2.55-4.68,5.37-9.15,10.5-11.41,16.68-7.36,34-10,52-6.22,12.6,2.69,23.33,9.78,34.65,15.43,1.65.82,3.78,1.12,4.4,2.34l-5.75-2.15-.69-.25c-5.87-2.18-11.92-4.42-17.89-6.84-6.23-2.53-12.47-4.7-19.28-4.66C141.38,183,123.14,187.68,106.82,198.89Zm-.72,11a6.41,6.41,0,0,1,1.53-9.54,89,89,0,0,1,33.63-13.77c14.54-2.83,28.54-2.84,42.12,4.31,7.94,4.19,16.41,7.37,24.64,11,6.89,1.7,13.61,4.19,20.8,4.51.58.09,1.31.46,1.74.24,3.67-1.88,7.39-.38,11.06-.13,1.78.12,0,.64-.11,1a69.45,69.45,0,0,1-23.45-.82l-11-3.43c-7.81-1.56-14.81-5.37-22.27-7.89-12.59-4.25-25.25-6.81-38.33-2a175.7,175.7,0,0,0-24.59,11.1c-3.76,2.1-7.59,4.09-11.44,6C108.91,211.25,107.37,211.45,106.1,209.84Zm1.73,5.74c-.5-2-.15-2.66,1.92-3.23a33.44,33.44,0,0,0,7-3.25,206,206,0,0,1,23.5-11.63c8.89-3.55,17.92-6.41,27.68-4.72a101,101,0,0,1,23.36,6.83,103.08,103.08,0,0,0,16,5.49c2.36.61,5.15.56,7,2.59-3.65,1.07-7.14-1.19-10.77-.55-5.79-1.15-11.56-2.36-17.36-3.44a82.22,82.22,0,0,0-31.19.3,121.64,121.64,0,0,0-38.67,15.17C110.25,222.78,109.46,222.22,107.83,215.58Zm71.66-2.66c-22.05-.08-42.77,4.48-61.11,17.5-4.59,3.26-5.62,2.64-6.81-3.06-.18-.84-.36-1.68-.51-2.53s-.12-1.61,1-2c7.84-2.71,14.47-7.85,22.19-10.89,18.81-7.39,37.91-10.4,57.84-5.21,3.4.88,6.86,1.81,10.46,1.53l2.78.51c.2,1.49-1.3,1.06-1.88,1.67l-1.25.33C194.66,211.8,187.14,213,179.49,212.92Zm-55.56,40.13a2.79,2.79,0,0,1-1.7-2.63c0-.82.56-1,1.2-1.09,4.47-.64,7.53-3.68,10.41-6.63,11.4-11.7,25.15-18.83,41.08-22,6-1.2,11.86-2.78,17.78-4.18,0,.16.07.31.1.47-2.59,1.07-5.17,2.2-7.78,3.22-15.36,6-30.24,12.64-41.66,25.25-3.11,3.44-7.52,5.55-11.91,7.3C129,253.7,126.49,254.26,123.93,253.05Zm4.47,10.31a.36.36,0,0,0,0,.09v-.1h0c.35-.67,1.33-1.25.42-2.12-1.39-1.33-3.75-2.37-3-4.6s3.4-1.08,5.14-1.68c3.43-1.19,6.34-3.41,10.7-5.2-2.81,4.35-4.85,8-7.36,11.21C133,262.7,131.18,264.62,128.4,263.36Zm2.48,1.9c4.34-1.59,6.54-5.15,8.63-8.82,8.14-14.3,20.33-23.85,35.3-30.13,8.18-3.43,16.39-6.78,24.59-10.17l.25.07.15-.21a6.78,6.78,0,0,0,1-.17,63.49,63.49,0,0,0,7.06-2.35c10.74-2.41,21.74-1.61,32.58-2.82-2.28,1.87-5.13,1.72-7.63,2.7-2.2.18-4.39.5-6.59.53-8.8.1-16.93,3.84-25.69,4.54-4.46.35-8.71,3.25-13.07,5C172.88,229.1,161,238,153.66,252.22c-2.39,4.59-4.74,9.25-8.29,13.07C139.31,271.81,137.33,270.1,130.88,265.26Zm7,5.76c4.14,0,6.39-1.83,8.41-4a39.61,39.61,0,0,0,5.91-8.45,124.89,124.89,0,0,1,8.7-14.13c5.77-8.2,13.76-13.34,23.13-16.67l-3.95,3.65c-7.75,6.3-13.3,14.22-17.76,23.11-3.11,6.23-6.6,12.36-12.49,16.57C146.22,272.64,142.63,275.32,137.89,271Zm3.47,7.3c-.54-1.6-.89-3.14,1.8-3.25a13.81,13.81,0,0,0,8.58-3.83c5.21-3,7.9-8.18,10.34-13.11a86,86,0,0,1,19.86-26.68c5-3.34,9.43-7.7,15.89-9.56a24.06,24.06,0,0,1-2.25,1.93c-15.12,9.74-25.8,23.29-33.85,39.16-3.12,6.14-6.46,12.19-11.18,17.3A5.63,5.63,0,0,1,141.36,278.32ZM152.47,285c-1.23-.44-2.65-1-1.75-2.87,4.68-4,7.62-9.31,10.47-14.63,5.66-10.55,11.53-20.9,20-29.58,12.43-12.69,26.85-21.13,45-22.1,1.16-.06,2.44-.82,3.45.42l-1.75.87h0c-.8.3-1.62.57-2.4.93-15.6,7.12-28.8,17.69-40.28,30.1-9.84,10.63-19.07,22-22.08,37C159.55,286.74,156,286.21,152.47,285Zm16.58,5.83a4.4,4.4,0,0,1-3.71-4.44,20.66,20.66,0,0,1,2.58-10.66,118.3,118.3,0,0,1,23.92-31.78C205.61,231,221,220.74,238.67,214.1a7.31,7.31,0,0,0,2.75-.94c8.75-3.44,17.64-6.08,27.22-4.29,2.72-.13,5.05,1.28,7.6,1.86-3,1.24-5.82-.23-8.72-.5-2.34.11-4.7,0-7,.35-27.25,4-49.3,17.06-66.46,38.52-9.34,11.69-15.43,25.19-21.68,38.61C171.73,289.1,171.66,291.41,169.05,290.78Zm37.49-34.06c-3.83,8-6.27,16.58-9.85,24.69-2.88,6.5-6.94,11.93-13.82,14.61-3.75,1.47-7.09.66-10.13-2.32,5.42-2.3,8.64-6.34,10.91-11.31,3.53-7.72,6.27-15.83,10.81-23.05,6.16-9.8,15.33-16.54,24.43-23.32a15.13,15.13,0,0,1,8-4.3l-4.49,3.48C215.41,241.12,210.45,248.52,206.54,256.72Zm59.68-42c-25.31,4.43-46.82,16.17-65.26,33.84a54.79,54.79,0,0,0-12.65,18.91c-2.16,5.24-4.4,10.45-6.84,15.56-1.73,3.62-4,6.91-8.67,8.82,2.45-7.08,5.88-12.89,8.77-18.94,14.14-29.47,36.41-49.59,68.13-58.58,8.25-2.34,16.7-3.2,25.79-1.07C272.14,214.77,269.1,214.24,266.22,214.74ZM277.7,202q-3.29-7.85-6.56-15.71l-.25-.7c-.77-2.59-1.55-5.18-2.32-7.77.42-1.84-.56-3.36-1.25-4.89a214.11,214.11,0,0,1-9.55-25.57c-4.54-15.13-14.77-24.87-28.94-31-7-3-14.29-5.32-21.53-7.71-.94-.3-2.27-.08-2.64-1.47,4.29.46,8.58.83,12.85,1.41,9.34,1.27,17.88,4.45,25.26,10.51a71.45,71.45,0,0,1,20,25.69c3,9.26,6.1,18.5,8.28,28,2.29,10,5.33,19.8,10.53,28.74,2.65,4.57,5.61,9,8.83,14.06C283.85,212.59,281.13,206.94,277.7,202Zm83.55,46.21c12.74,1.88,25.23,4.74,37,10,12.07,5.4,23.05,12.05,27.37,25.74a.84.84,0,0,0,0,.68c0,.43,0,.95-.07,1.71-.87-1.07-1.54-1.8-2.09-2.61-7.1-10.6-16.74-17.37-29.35-20-14.72-3.07-29.3-6.69-42.14-15-.91-.59-3.38-.43-2.25-2.82A64.59,64.59,0,0,0,361.25,248.17ZM346,246.59c10.06,7.45,21.38,12.15,33.41,15.27,4.9,1.27,9.81,2.49,14.77,3.49,16.37,3.31,26.34,14,33.21,28.42-.61,3,.74,6.33-1.94,8.82-.77-3.1-1.21-6.33-2.36-9.28-5-12.79-15.37-19.44-27.85-23.34-7.28-2.29-15-3-22.2-5.62-14-5.1-26.39-13.3-39.28-20.53-.57-.32-1.52-.56-.76-1.57C337.33,243.72,341.94,244.32,346,246.59Zm-28.13-10.15,1.6.54h0c2.69,2,5.28,4.12,8.61,5q10.16,6,20.29,12C361,261.6,374.31,267.64,389,270.1a41.9,41.9,0,0,1,10.32,2.83c11.4,5.18,20.84,12.19,23.53,25.49,1,5,.62,9.53-3.63,13-3,1.72-3.73-.08-3.76-2.55-.17-13.19-7.72-21.65-18.17-28.14-8.14-5.06-17.29-7.83-26.38-10.5-14.62-4.3-29.12-8.66-40.38-19.78-4.35-4.3-8.79-8.52-13.18-12.77a7.74,7.74,0,0,1-3.38-3.26A9.74,9.74,0,0,1,317.87,236.44Zm95.25,67.46c-.61-.42-.83-.5-.93-.66a20.31,20.31,0,0,1-1.07-1.94c-3.25-6.86-8.77-11.34-15.16-15.16-9.1-5.45-19.3-7.29-29.36-9.65-14.37-3.38-27.15-9.63-37.3-20.57-3.14-3.38-5.88-7.12-8.8-10.7a11.66,11.66,0,0,1-4.26-6.47l4.17,3.94c.22.09.51.12.65.27,9.53,10.95,20.48,19.81,34.62,24.27,9.86,3.11,19.83,5.91,29.53,9.58,8.68,3.29,16.47,7.81,22.5,15A22,22,0,0,1,413.12,303.9ZM296,227.27c1.43,3.41,2.88,6.81,4.27,10.24A27,27,0,0,1,301.7,252c-1.76,11.81-3.38,23.63-5.07,35.45-1.48,10.36,1.17,19.28,9.17,26.33l0-.48a.86.86,0,0,1,0,.48c4.91,5.3,11.38,8.06,17.79,10.9,1.21.54,2.7.57,3.51,1.86-5.11-.49-10.31.17-15.36-1.32-14.39-4.27-27.6-19.64-26.31-38.18.69-9.83,3.83-19.07,6-28.56,2.28-10.06,5.32-20.09,3.68-30.65Zm11.53,101c-3.07.42-6-.58-9-1-26-11.47-31-38-11-60.82a13.68,13.68,0,0,1-.41,2.52,62.89,62.89,0,0,0-3.46,21.44c-.06,16.1,12.49,32.67,27.5,36.44C310.58,328.9,308.82,328.09,307.56,328.27ZM280,331h0c-.95-1.13-2.69-1.32-3.36-2.78-7.59-3.49-13.25-9.3-18.5-15.54a24.44,24.44,0,0,1-5.48-21.41,59,59,0,0,1,16-31c8.56-8.72,16.19-18.25,21.29-29.53a5.11,5.11,0,0,1,1.26-3.27,3.16,3.16,0,0,1,.17,3.4c-4,11.55-7.1,23.51-14.23,33.76-2.4,3.44-4.78,6.88-7,10.42-5.64,8.93-9.92,18.18-7.12,29.22,2.26,8.94,6.12,16.84,13.62,22.59l2.33,1.34c2.09,2.35,5.27,3.26,8,5.63C283.89,333.63,282.21,331.7,280,331Zm48.54-1.4a2.94,2.94,0,0,1-1,.11c-7.49,1.39-15,2.71-22.46,4.17a27.65,27.65,0,0,1-21.79-4.31c-1.3-.89-2.68-1.68-4-2.52-.45-.41-.88-.84-1.35-1.24-14.53-12.17-17.72-29.18-8.55-45.73a36.93,36.93,0,0,1,3.26-5.37c9.44-11.76,14.84-25.5,19.63-39.56a3.89,3.89,0,0,1,1.37-3.73c.38,1.84.58,3.33-.13,4.82-1.62,9.62-3.54,19.17-8.08,27.94-2.55,4.92-5.05,9.89-8,14.59-12.19,19.62,3.71,45.92,20.5,49.68,5.17,2.25,10.41,2.12,15.71.5l15-.44c1.48-.79,3.06-.49,4.63-.39C332.15,330.22,330.26,329.59,328.55,329.6ZM339,328.27a41.28,41.28,0,0,0-9.18-2.73c-6.13-2.54-12.39-4.83-17.88-8.67-2.1-1.47-4-3.2-6-4.81a26.49,26.49,0,0,1-7.21-24.49c2.21-11.5,2.9-23.21,4.9-34.73.68-3.92,1.36-7.93,0-11.89q-2.62-6.12-5.24-12.23c-.22-.78-.44-1.57-.7-2.47,2.09,1,2.29,3.32,3.92,4.46,1.85,4.35,3.61,8.72,4.23,13.45C307.33,250,307.4,256,307.14,262c-.38,8.8-2.36,17.55-.84,26.41h0c.9,7.88,5.35,13.59,11.39,18.22a141.93,141.93,0,0,0,17.49,11.06c8.23,4.6,15.93,9.87,21.94,17.29.4,1,.81,2,1.58,3.8C352.39,333.67,346.2,330,339,328.27Zm-29.64-65c2.26,4.71,2.72,9.81,3.43,14.81,1.35,9.54,4.74,18.08,11.54,25.07a104.31,104.31,0,0,0,19,15.17c4.45,2.83,9.26,5.28,11.89,10.23.1.56.2,1.13.39,2.23l-.13.06a81,81,0,0,0-15.47-12c-5.31-3.09-10.54-6.34-15.79-9.53-7-4.26-12.72-9.65-15.64-17.55C306.31,282.22,308.48,272.79,309.36,263.28ZM371.9,346.7c-1.36.52-2.82-.6-4-1.46a20.75,20.75,0,0,1-7.14-9.23c-3.36-8-7.89-15-16.13-18.92-4.58-2.19-8.4-5.59-12.36-8.72-9.77-7.7-16.35-17.33-17.85-29.95-.22-1.89-1.31-3.78-.37-6l4.65,8.58.08.14a43.39,43.39,0,0,0,12.39,14.47c8,6.19,16.05,12.29,23.95,18.59A55.16,55.16,0,0,1,367,326.77a36.22,36.22,0,0,1,5.54,16.29C372,344.26,373.45,346.11,371.9,346.7Zm3.69-.17c-1.27-.27-.63-1.4-.37-2.12,4.84-13.57-.67-24.52-8.76-34.84-5.9-7.51-13.72-12.65-21.62-17.7-7.71-4.19-15.27-8.54-19.95-16.42-.28-.45-.79-1.28-1.7-1l-.07,0v0c.57,2.91,2.45,5,4.39,7.06,4.11,4.35,9.13,7.44,14.22,10.44C351,297.5,360,303.27,366.4,312.17c6.08,8.44,10.92,17.28,8.15,28.3-1,0-1.15-.8-1.27-1.52-1.56-9.81-7.38-17-14.44-23.41a215.52,215.52,0,0,0-19.38-15.39c-8.67-6.26-16.45-13.28-21.46-22.94h0c-5.5-9.92-8-20.77-9.78-32.9,4.37,7.15,7.83,13.7,10.13,20.85a12.57,12.57,0,0,0,2.65,6.46c.3.77.29,1.85,1.59,1.67a2.23,2.23,0,0,0,.27.61c1.19-1.1-.44-2-.16-3.19l1.62,1.21h0c.54.81,1.05,1.64,1.62,2.43,5,6.92,11.77,11.72,19.08,15.87,7.62,3.36,15.26,6.68,22.3,11.24,4.6,3,8.19,6.95,11.61,11.13h0c4.42,8.08,6.09,16.59,4.17,25.71a20.5,20.5,0,0,1-2.49,6.92C379.45,347.09,377.4,346.9,375.59,346.53Zm9.26-3.94c-.11.19-.61.17-1.06.28,2.95-11.5,2.53-22.37-4.77-32.19-4.91-7.91-12.74-12.13-20.67-16.17-4.39-2.24-9-4.13-13.4-6.28-8.55-4.14-15.08-10.58-20.51-18.24-1.19-1.95-2.18-4-3.84-5.67,1.58-1.64,2,.47,2.57,1,3.75,3.31,7.18,7,11,10.15,7.32,6,15.9,9.54,24.87,12.24,2.88,2,6.22,2.93,9.36,4.34,14.54,6.5,21.6,17.88,22.49,33.58C391.3,332.27,387.83,337.29,384.85,342.59Zm-.6-48.17c-3.55-1.24-7-2.83-10.77-3.26-4.67-1.43-9.1-3.63-14-4.52-6-2.35-12.21-4.35-17.82-7.67a6.33,6.33,0,0,1-3.52-2.06l.55-1,3.44,1.9,1.63.21a36.89,36.89,0,0,0,4.37,1.85c7.54,2.14,15.08,4.31,22.67,6.24A41.15,41.15,0,0,1,387,294.5C386,296.22,385,294.69,384.25,294.42Zm4,3.36C399.13,303.22,404,324,391.91,334c1.76-8.43.47-16.32-2.58-23.93a34.56,34.56,0,0,0-13.19-15.81c2.73-1.26,4.74.89,7.06,1.54A50.28,50.28,0,0,1,388.24,297.78Zm14.44,28.84c-2.5,1.12-3.05.49-2.58-2,2.47-13-2.77-23-12.17-31.35a9,9,0,0,1-3.92-3.35c1.84.41,3.14.54,4.06,1.65,10.46,4.71,17.77,12,20.21,23.66C409.51,321.11,408.23,324.12,402.68,326.62Zm9-7.14c-1.65-.09-1-1.71-1.19-2.66-2.24-10.67-7.31-19.12-17.39-24.36-15.39-8-32.11-11.69-48.78-15.61C333.6,273.8,326.1,266.32,319,258.33a159.79,159.79,0,0,1-14-24.51,44.23,44.23,0,0,0-3.56-5.55c-.3-.79-.78-1.57-.08-2.4l9.59,9.63c3.23,4.18,6.59,8.28,9.67,12.58,10.88,15.14,25.27,25.06,43.39,29.56,6.46,1.6,13,2.87,19.37,4.89,13.21,4.2,24.24,11.2,28.84,25.26.95,2.93,2.71,5.84,1.81,9.16C413.66,318.13,413.17,319.56,411.68,319.48Zm-5.14-59.59c-14-7.46-29.11-11.35-44.69-13.7-1.76-.27-3.69-.06-5.79-2.09,6.35-.19,12-.31,17.73-.53a68.6,68.6,0,0,1,35.63,8.22c13.64,7.34,23.33,17.72,24.38,34.16.36,5.66-1.91,13.72-4.68,16.34C431.28,282.58,424.05,269.2,406.54,259.89Zm26,42.54c5.6-13.05,4.25-24.79-2.69-35.55-6.72-10.41-16.9-16.77-28.24-21.48,12.27.92,23.38,4.5,32.43,13.19,10.42,10,12.7,23.16,6.08,35.76A20.37,20.37,0,0,1,432.56,302.43Zm3.2,1.22c14.93-15,12.82-34.29-1.27-48.42a36.91,36.91,0,0,1,12.13,7c7.89,6.65,10.78,15.56,10.27,25.44C456.36,297.85,448.3,303.62,435.76,303.65Zm13.93-.75c6.53-4.13,9.9-9.93,9.55-17.39-.58-12.35-5.48-22.41-16.57-28.75-9.78-5.6-20-10.16-31.07-12.57a11.89,11.89,0,0,1-5.65-1.35c2.27-.18,4.51-.75,6.75.06,14.73,1.92,28.7,6.22,41,14.65a30.91,30.91,0,0,1,12,34C463.67,298.76,456.68,303.82,449.69,302.9Zm6.8,1.24c8.43-3.22,11.85-9.77,12.31-18.19.73-13.11-4-23.59-15.14-30.92-11.54-7.6-24.6-11.13-37.84-14.18h-7.93c2.76-2.19,5.95-1.36,9-1.31,16.77-.49,32.3,3,45.51,14.07,2.68,2.26,4.47,5.21,6.74,7.78l.95,1.77,3.13,7.54c2,9.58,2.05,19-2.3,28.08C465.84,304.59,461.05,306.42,456.49,304.14Zm16.66-6,1.92-5A49.83,49.83,0,0,0,476,277a34,34,0,0,0-7-18.14c-7.43-10.69-18.44-15.63-30.49-18.66-11.13-2.8-22.45-2.62-33.78-1.3h0L398,240h0c-.51-.56-1.52.4-1.86-.63h0l9.32-2.39,1.73,0c1.52-1,3.56.25,5-1.14,13.58-3.62,27.16-2.57,40.49.9,9,2.35,16.08,7.89,19.82,16.85,1.75,4.19,3.52,8.39,5,12.69,3.13,9.2,3,18.34-1.1,27.28A8.4,8.4,0,0,1,473.15,298.13Zm12.24-28.66h0Q483.7,274.25,482,279c-.65-9.45-4.53-17.74-8.15-26.08-2.8-6.45-7.56-11.07-13.61-14.59-7.65-4.45-16.17-4.88-24.59-5.84l-5.61-.08.36-1.05h0c2.13-.11,4.24-.69,6.37-.14a109.77,109.77,0,0,1,18,.19c14.26,1.29,24.54,8,29.54,21.82C485.24,258.62,486.47,264,485.39,269.47Zm1.41-14h0c-.83-2.58-2.33-5-2.42-7.77,6.44,4.59,13.17,8.67,20.71,11.26.35.12.67.34.4.81C499.09,259.09,492.76,258.09,486.8,255.45ZM707.55,426.17c-27.74,16.64-50.94,39.7-79.31,55.28l-.09.05c-2,.95-4,1.83-6,2.88-8.25,4.41-16.81,5.38-25.73,2.46-5.92-1.93-11.09-5.28-16.19-8.74a4.79,4.79,0,0,1-.3-.71c-.15-.58.22-.68,1.23-.32,3.7,1.34,7.42,2.63,11.14,3.92a34.07,34.07,0,0,0,28.58-2.32c9.15-5,18.45-9.86,26.65-16.44h0a99.15,99.15,0,0,0,14.76-13.36c11.12-12.18,25.43-18.36,40.88-22.51C704.58,426,706.2,425.33,707.55,426.17Zm-6.4-1.73a69.43,69.43,0,0,1-7.84,3c-11.77,3.91-22.26,9.88-30.91,18.89a233.16,233.16,0,0,1-17.26,16.15h0c-6.75,4.07-13.56,8-20.23,12.23-11.71,7.34-23.89,8.69-36.69,3.23l-4.53-1.35c.12-.33.25-.66.37-1l4.6,1.25a60.28,60.28,0,0,0,12.81.06c7.07-.79,14-2,20.06-6.21a47.69,47.69,0,0,0,13.78-8.5c7.36-6.42,13.9-13.67,20.4-20.9a50.79,50.79,0,0,1,25.52-15.5A49.19,49.19,0,0,1,701.15,424.44ZM663.06,394a94,94,0,0,1-3.92-27.7c-.09-10.1-.42-20.18-2.23-30.16-2.82-15.5-12.88-26.55-22.91-37.63,0-2.12,1-.68,1.52-.35A64.42,64.42,0,0,1,653,313.86c.5.68,1.12,1.28,1.68,1.91a74.71,74.71,0,0,1,11.62,41.43c-.07,12.16-1.57,24.31-2.46,36.46C663.8,393.76,663.45,393.84,663.06,394Zm-38.17-109.1a68.82,68.82,0,0,1,32.51,24.48c9.9,13.49,15.16,28,14.17,44.74a197,197,0,0,1-3.7,25.84q-.45,2.94-.89,5.89l-1.1-.42h0c.27-2,0-4.06.76-6,.64-10.26,2.06-20.49.65-30.81-1.67-12.22-4.67-23.92-12.23-34-4.25-6.75-10-11.93-16.65-16.26-2.33-1.54-4.75-3-7.12-4.43-5.87-4.51-12.57-7.87-18-13.11C617.29,282,621.07,283.52,624.89,284.93ZM623,290.66c3,2,5.37,4.9,8.67,6.53v0l.08.06-.07,0c1.43,3.22,4.2,5.38,6.36,8,6.7,8.19,13.62,16.15,16.33,26.85a114.56,114.56,0,0,1,3.14,26.3c.24,13.91.46,27.8,6.17,40.89.25.59.73,1.34-.18,2l-2-2,0,0c-2.19-4.4-4.28-8.86-6.59-13.19a57.21,57.21,0,0,1-6.63-26.6c-.11-7.73,0-15.5-1.47-23.16-.25-1.31-.69-2.59-1-3.89a1.46,1.46,0,0,1-.05-.2c-3.25-14-10.7-25.56-20.39-35.88-4.6-4.9-10.24-8.63-15.13-13.24C614.83,285,618.84,287.91,623,290.66Zm-25.55-13.29c21.09,12.13,38.12,27.89,46.05,51.75,3,10.14,3.08,20.6,3.12,31,0,15.46,6.78,28.39,14.8,40.91l1.81,2.45c.13.54.27,1.09.54,2.15l0,0s0,0-.05,0C657,400,652.76,393,648.7,386c-.86-1.48-1.28-3.2-2.58-4.41-4.13-9.11-5.8-18.79-6.4-28.68-1.51-24.87-13-44.75-30.53-61.69a24.19,24.19,0,0,0-5.25-5.1c-3.61-3.88-8.27-6.69-11.4-11.12A25.69,25.69,0,0,1,597.43,277.37Zm-34-13.73a15.55,15.55,0,0,1,3.9.9,161.37,161.37,0,0,1,19,8.13l17.57,15.12,5.25,5.19a103.42,103.42,0,0,1,25.78,40.76c2.6,7.67,2.82,15.69,3.7,23.61,1.09,9.84,3,19.45,8.27,28.06,5.16,10.31,11.72,19.42,21.72,25.63l1.29.87,2.49,2.28c-.07.45,1,1.57-.63,1.12-.8-.22-1.57-.52-2.34-.78-20.84-11.34-35.42-28-42.78-50.68-2.4-7.42-2.94-15.21-4.17-22.88-3.83-24-12.48-45.65-32.35-61.2a91.67,91.67,0,0,0-21-12.18,19,19,0,0,0-6.11-3,5.1,5.1,0,0,1-4.31-2.18ZM668.54,416.7c-11.52-3.14-22.48-7.31-30.53-16.77q-3.43-4-6.88-8.05l0-.05c-3.42-5.4-7.43-10.45-9.3-16.73-5.06-17-10.32-34-14.53-51.24-2.45-10.07-5.42-20-11.65-28.6a69.71,69.71,0,0,0-13.67-17.59,9.81,9.81,0,0,1-4.17-4.35l4.3,2.67c17.95,10.44,27.75,26.95,34.52,45.86,3.61,10.12,3.92,20.77,5.92,31.14,5.48,28.25,20.61,49.41,46.39,62.66ZM550.37,259.45c-.15.38-.31.76-.46,1.13-3.92-.14-7.89.49-11.77-.69A32.9,32.9,0,0,1,550.37,259.45Zm-9.83,3.23c9.74.32,18.82,3.18,27.63,7.12,12,6.22,20.28,16.19,27.34,27.37,8.84,14.69,10.86,31.6,15.56,47.64,2.91,9.95,5.8,19.9,8.74,29.84,2.14,7.25,6.36,13.3,11.15,19a59,59,0,0,0,33.76,23.69c3.21.86,6.75,1,9.52,3.27h0a89.31,89.31,0,0,1-31.32-5.95c-13-4.87-22.18-13.87-27.85-26.54A133,133,0,0,1,606,357.77c-1.75-9.43-2.41-19.07-5.57-28.22-.32-1.42-.62-2.85-1-4.27C596,311.6,588.66,300,580.21,289a67.19,67.19,0,0,0-40.13-25.35c-2,.38-3.76-.63-5.61-1.13A13.38,13.38,0,0,1,540.54,262.68Zm-15.44.19,4.71,1c23.15,2,40.76,13,53.68,32.32a113.82,113.82,0,0,1,14.65,30.06h0A234,234,0,0,1,603.28,352a159.85,159.85,0,0,0,8.34,32.54c7.72,20.19,22.47,31.49,43.29,35.57,2.19.43,4.36.88,6.54,1.32-4.48,1.16-8.85.43-13.23.13A90.85,90.85,0,0,1,627.17,414c-20.52-10.44-30.85-27.38-32.71-50-.58-7-.81-14-2.28-20.85a.79.79,0,0,1-.35-.33l.35.33c-2.62-16.2-5.6-32.27-17-45.19-10.46-11.87-21.52-23-36.3-29.58-1.79-.79-3.7-1.29-5.55-1.93h0a4.94,4.94,0,0,0-3-.89l-1-.5a8.75,8.75,0,0,1-4.77-1.14C523.11,263.14,524.8,263.19,525.1,262.87ZM616,422.32c-8.66-4.19-16-10-23-16.47-14.46-13.32-22.84-29.18-23.35-49.22a198.57,198.57,0,0,0-7.06-46.29c-2.1-7.86-4.43-15.69-9.89-22.08a47.71,47.71,0,0,0-13.08-12.21l-4.74-3.86c-1.34-.06-2-1.36-3.12-1.76.06-.39-.85-1.31.39-1a14.5,14.5,0,0,1,2.85,1.35,3,3,0,0,0,.63-.17c.63,1.32,2,1.77,3.1,2.48,11.49,7.37,19.78,17.5,25.57,29.77,2.62,5.55,5.29,11.07,7.94,16.61,4.68,11.49,5.12,23.76,6.81,35.82,2.74,19.55,10.15,37.1,24.38,51.12a58,58,0,0,0,35.31,17,22.84,22.84,0,0,1,2.68.57V424c0,.17,0,.37.06.61C632.69,426.5,624.23,426.32,616,422.32Zm1.09,3.59c-2.86-2.43-7-2.22-9.82-4.78l-5-1.88c-6-3.51-12.06-6.95-17.91-10.76-7.1-4.62-11.74-10.95-15-18.58-.71-1.69-1.5-3.34-2.26-5-5.63-16.41-5.93-33.63-7.19-50.63S555,301,546.14,286.19c-1.32-2.19-2.68-4.5-4.91-6,2.58-.26,3.51,2.07,5,3.38,2.24,2,4.18,4.28,6.25,6.45a50.1,50.1,0,0,1,6.25,12.92c5.7,17.7,8.32,36,9.16,54.44.74,16.42,6.06,30.78,17.19,42.88a114.89,114.89,0,0,0,22.15,19.3c3.26,1.68,6.52,3.4,9.8,5C618.11,425.12,617.83,425.47,617.05,425.91ZM532.83,267.57c1.65.58,3.45.81,4.86,2,17.37,7.78,30.46,20.71,41.16,35.91,7.52,10.7,9.27,23.81,11.93,36.38a1.79,1.79,0,0,0,0,.23c.76,8.11,1.35,16.24,2.35,24.32a72.51,72.51,0,0,0,3.94,17.21c8,20.62,24.47,31.18,44.46,37.61-1.19.91-2.5.74-3.88.54-15.75-2.34-28.51-9.93-38.47-22.21-12-14.78-17.7-32-19.27-50.78-1-12.26-3.15-24.21-8.86-35.28-1.47-3.11-3-6.19-4.42-9.32-6.43-14.14-15.87-25.64-29.39-33.58l-1.66-.1C535.37,268.86,533,269.3,532.83,267.57Zm2.35,15.16,0,0L530,275.89c-4.54-5.23-10.35-8.56-16.66-11.19-1.2-.51-2.91-.41-3.41-2.12,6.7.9,12.25,4.3,17.62,8.1l2.25,2.93a21.73,21.73,0,0,1,5.26,8.14c.1.27.18.56.26.84l.18.55ZM532,274.32c-.53-.66-1.15-1.34-.5-2.28,5.11,3.92,8.89,9,12.41,14.3,9.55,14.25,12.79,30.34,13.93,47.19.93,13.6,1.88,27.24,4.49,40.66a47.5,47.5,0,0,0,1.61,5.26h0c.22.77.44,1.54.67,2.31a8.83,8.83,0,0,0,.36,1.17c3,9.82,7.25,18.93,16.28,25.15,6.58,4.52,13,9.19,20.61,12,4.93,2.31,9.73,4.93,15.18,5.86.42,1.12,2.14.37,2.47,1.73a9.94,9.94,0,0,1-5.11-.12c-5.66-1.25-11.26-2.81-17-3.8-11.57-2-21.26-7.43-30-15.15-9.67-8.59-16-18.57-15.66-32.05.3-10.6.32-21.2.48-31.8s.16-21-1.89-31.3A49.05,49.05,0,0,0,545.1,296C541.34,288.49,537.34,281,532,274.32Zm15.52,66.8c.58-5.81.79-11.66,1.17-17.5-.27-2.83,0-5.71-.84-8.48q-.74-3.34-1.45-6.67c-.22-1.51-.44-3-.76-5.25,2,3,2.26,5.76,3.23,8.28.21,1.85.41,3.69.62,5.54,1.48,4.87,1,9.92,1,14.87,0,14.66-.45,29.32-.48,44,0,8.1,1,16.05,6.2,22.77,10.32,13.38,22.81,23.43,40,26.59,5.61,1,11.11,2.65,17.42,4.17a15,15,0,0,1-2.77,1.13c-14,1.54-28.15,1-40.79-5.4-19.28-9.79-28.06-26.39-26.43-48C544.58,365.1,546.32,353.13,547.52,341.12Zm-6.75,41.39c.08-.44.35-1,1-.72a6.89,6.89,0,0,1,.39,1.75c-.57,11,3.27,20.53,9.88,29,14.6,18.7,35.23,20.68,56.71,20.07a11.18,11.18,0,0,0,3.57-.87,34.15,34.15,0,0,1,9.36-2L620,431.17c-9.85,3.13-19.49,7-29.69,8.91-1.09,0-2.19-.09-3.28,0-13.42,1-25.25-3.19-35.64-11.48-6.18-4.94-11.07-11-12.48-19C537.33,400.45,539.13,391.46,540.77,382.51Zm80.72,48.43a3.47,3.47,0,0,1-1.26.2Zm-84.17-36.86c-1.06,8.41-1.69,16.78,3.24,24.36,9.68,14.87,23.68,22.12,41.16,23.13a8.2,8.2,0,0,1,5,.43c-2.7.35-4.6,1.27-6.75,1h0l-5.33.54c-6.46-1.35-13.08-2-19.24-4.59-10.18-4.31-17.75-11.18-21.54-21.79a46.32,46.32,0,0,1,1.22-19.6C535.43,396.31,535.09,394.25,537.32,394.08Zm13.3,51.41-8-3.9a66.37,66.37,0,0,1-5.9-6.51c-4.85-6.65-5.93-14.25-6-22.16a8.6,8.6,0,0,1,.84-5.19A14.15,14.15,0,0,1,532,414c1,3,.91,6.33,3,8.95l.07.09c5.34,9.23,13.33,15.1,23.33,18.42a56.41,56.41,0,0,0,10.75,2.38c.79.11,2-.33,2.16,1.11A61.87,61.87,0,0,1,550.62,445.49Zm3.68,2c11.55.68,22.67-1.67,33.7-4.69,2.3.22,4.29-.91,6.4-1.49,12.56-3.49,24.8-8.05,37.49-11.11,6.8-1.64,13.17-4.86,20.33-5.26,7.36-.41,14.68-1.32,22-1.75,2.57-.15,5.26-1,8.32.29a19.31,19.31,0,0,1-2.07.86c-10.74,2.71-19.34,8.56-26.83,16.73-10.53,11.48-20.47,23.81-35.41,30.17C602.34,477,586.7,478.7,572,467.9c-6.71-6.59-12.58-14-20-19.86C552.41,446.54,553.52,447.43,554.3,447.48Zm-2.66,55.46c-1.19-8.43.79-16.37,3.58-24.21a31.53,31.53,0,0,0,1.55-16.52,12,12,0,0,1-1.54-6.46c1.57,2.59,3.11,5.17,3.18,8.29,2.45,8.16,2.32,16.43,1.23,24.78-1.36,10.33-3.13,20.69.54,31C555.66,515,552.56,509.55,551.64,502.94Zm13,21.26c-4.95-8.53-5.53-17.77-4.12-27.26,2.08-14,3.09-27.95-3.17-41.4a5.37,5.37,0,0,1,3,2.81c5.5,11.49,8,23.47,6.38,36.25-1,7.85-1.13,15.74.59,23.55a85.62,85.62,0,0,0,5.14,14.66A23,23,0,0,1,564.68,524.2Zm6.16.06c-3.37-10.1-3.21-20.35-2.22-30.7.92-9.59.13-18.94-3.72-27.89-.2-.44-.41-.9.33-1.22,1.66.84,2.6,2.44,3.7,3.9l3.69,14.54A223,223,0,0,1,575,507.5c.53,9.7,2.43,19.09,8,27.33,1.89,2.82,4.08,5.43,6.38,8.44C579.67,540,573.94,533.55,570.84,524.26Zm17.34,14.94c-8.2-9.69-10.85-21.27-11.5-33.55-.37-7-.69-14-2.39-20.83,0-4.17-2.15-7.93-2.68-12.18,2.29.52,2.07,2.64,3.17,3.71l.6,1.09a3.67,3.67,0,0,1-.38-.56c1,2.35,2,4.71,2.92,7.06h0a113.94,113.94,0,0,1,6.65,33.6c.45,10.82,4.85,19.69,12.45,27.21.84.83,2.9,1.31,1.88,3.31A35.93,35.93,0,0,1,588.18,539.2Z" transform="translate(-100.01 -27.78)"/></g></g></g></svg>