<svg xmlns="http://www.w3.org/2000/svg" xmlns:xlink="http://www.w3.org/1999/xlink" viewBox="0 0 305.69 221.22"><defs><style>.cls-1{fill:none;}.cls-2{clip-path:url(#clip-path);}.cls-3{fill:#9f8778;}</style><clipPath id="clip-path" transform="translate(-96.02 -20.94)"><rect id="SVGID" class="cls-1" x="41.78" y="48.76" width="240.58" height="221.91" transform="translate(386.26 198.66) rotate(145.27)"/></clipPath></defs><g id="圖層_2" data-name="圖層 2"><g id="圖層_2-2" data-name="圖層 2"><g class="cls-2"><path class="cls-1" d="M244.46,152.54a27.14,27.14,0,0,0-8.25,2.23c-4.58,2-9.12,4-13.68,6a21.39,21.39,0,0,1-9.18,2h-4.89c.75.93,1.82.9,2.69,1.25,5.84,2.3,11.56,1.69,17.19-.75A33.33,33.33,0,0,0,235,160c3.64-2.66,7.71-3,12-2.58a10.12,10.12,0,0,0,5.68-.94c.66-.32,1.49-.7,1.58-1.41s-1-.61-1.44-1.12A17.79,17.79,0,0,0,244.46,152.54Z" transform="translate(-96.02 -20.94)"/><path class="cls-1" d="M226.89,167c2.61-1.54,5.25-3.05,7.83-4.63a40.67,40.67,0,0,1,8.83-3.92v-.07l-1.06-.35c-2.76,0-5,1.5-7.22,2.77a51.94,51.94,0,0,1-11,4.72,21.4,21.4,0,0,1-13.59-.85c-2.34-.86-4.66-1.86-7.24-2,3.93,2.61,7.52,5.76,12.21,7C219.72,170.3,223.4,169.07,226.89,167Z" transform="translate(-96.02 -20.94)"/><path class="cls-1" d="M312,32.77l.1,0c.64.15,1.3.25,1.93.45A67.1,67.1,0,0,1,324.46,38a28.15,28.15,0,0,0,13.1,3.35c2.42,0,4.85.14,7.27.22h0l1.33-.4c-.08-.55-.52-.52-.84-.55-7-.58-13.1-3.74-19.2-6.89A56.46,56.46,0,0,0,314,29c-5.28-1.32-10.36-.18-15.48.81-1.65.32-3.24,1-5,.89-1.48,1.05-3.29,1.39-4.87,2.24a36.1,36.1,0,0,0-6.29,3.81c3.15-1.05,6.09-2.63,9.29-3.48C298.41,31.44,305.19,30.91,312,32.77Z" transform="translate(-96.02 -20.94)"/><path class="cls-1" d="M233.09,164.24a67.64,67.64,0,0,1-8.9,5c-3.42,1.54-6.94,2.14-10.58.68h0c-4.2-1.4-7.54-4.31-11.27-6.54a29.14,29.14,0,0,0-8.08-3.59,25.65,25.65,0,0,0-6.83-1.31c-.87.44-2,0-2.86.66l1.24.28,6.54.58a11.52,11.52,0,0,1,5.17,2.77c4.54,3.56,9.46,6.6,13.94,10.25a13,13,0,0,0,12.32,2.6c1.17-.49,2.37-.92,3.51-1.49a44.82,44.82,0,0,0,7.94-5.74,20.36,20.36,0,0,1,3.34-3.35,24,24,0,0,1,9.18-6.09l-2-.2A36,36,0,0,0,233.09,164.24Z" transform="translate(-96.02 -20.94)"/><path class="cls-1" d="M236.25,169.61l-3.31,6.6a10.87,10.87,0,0,1-3.89,6.7c-5.57,6.42-20.71,7.17-26.38-2.72-1.35-2.36-2.93-4.61-4.47-6.87-2.75-4-6.45-7.09-10.25-10a3.61,3.61,0,0,0-2.06-1.18,1.9,1.9,0,0,0,1.3,1.46c5,5.37,9.69,10.94,12.59,17.79a18.47,18.47,0,0,0,1.57,2.67c5,7.86,13.18,10.45,21.87,7,.28-.12.56-.2.85-.3.68-.39,1.34-.8,2-1.16a13.63,13.63,0,0,0,7-8.45c1.11-3.59,2.29-7.16,3.44-10.74a1.51,1.51,0,0,0,.18-.45c.39-.74,1.11-1.42.46-2.4A4,4,0,0,0,236.25,169.61Z" transform="translate(-96.02 -20.94)"/><path class="cls-1" d="M229.72,143.79a28.61,28.61,0,0,1-4.07,3.05,34.67,34.67,0,0,1-11.14,7.94c-2.27.94-4.68,1.57-7,2.42-.37.14-1.38-.19-1,.88a13.6,13.6,0,0,1,3.36-.34,26.68,26.68,0,0,0,12.73-4.64c2-1.42,3.86-3,5.86-4.35,3.61-2.5,7.27-4.91,11.86-5.2,6-.87,10.79,1.49,15.09,5.46.06-.22.19-.43.13-.52-1.6-2.54-3-5.22-5.94-6.61C242.54,138.59,235.94,139,229.72,143.79Z" transform="translate(-96.02 -20.94)"/><path class="cls-1" d="M234.1,135.15c-.7.14-1,.68-1.66,1.38a4.46,4.46,0,0,0,2.37-.92c5.84-2.13,11.4-2.06,16.46,2,1,.79,1.38.7,1.48-.65.21-3-.8-4.26-3.64-5.1C243.47,130.24,238.6,131.71,234.1,135.15Z" transform="translate(-96.02 -20.94)"/><path class="cls-1" d="M241.1,144h0a25.58,25.58,0,0,0-7.55,2.44,78.36,78.36,0,0,0-10.1,7.05,28.29,28.29,0,0,1-11.35,4.58c-.48.06-1,.09-1.44.13h0l-.91.42c.43.39,1.22-.1,1.42.67a1.22,1.22,0,0,1-.33,0c-.22.6-.69.35-1.09.3a6.27,6.27,0,0,1-3.43-.36,47.5,47.5,0,0,0-11.42-.48c5.68,2.08,11,3.52,16.57,3.45h0c5.36.08,10.23-1.66,15-4a107.87,107.87,0,0,1,11.22-4.81c4.45-1.56,8.92-2.42,13.54-.8.34.12.72.24,1-.2-4.14-3.78-9.11-3.74-14.2-3.07-5.37.7-10,3.26-14.51,6a31.17,31.17,0,0,1-7.86,3.74,7.17,7.17,0,0,1-4.1.25h0v0c.07-.47.55-.5.81-.51,4.52-.2,8.18-2.46,11.8-4.83,4-2.25,8.1-4.45,12.75-5.25,6.37-1.1,12.41-.93,17.18,4.35.25.28.59.82,1,.33.58-.7,1.14-1.54.61-2.49a10.21,10.21,0,0,0-2.42-2.7A18,18,0,0,0,241.1,144Z" transform="translate(-96.02 -20.94)"/><path class="cls-1" d="M246.79,128.48c-7.18-1.29-12.81,1.86-17.72,6.62-2.36,2.28-4.45,4.83-6.66,7.27a36.47,36.47,0,0,1-23,11.93c-2.59.33-5.15.83-7.73,1.25l-6.42,1.92c.2.49.65.47,1.06.52a22.2,22.2,0,0,1,3.24-.25,79,79,0,0,0,13.93-.35c5.14-1.23,10.14-2.74,14-6.68,5.6-6.32,11.1-12.72,18.19-17.54,4.63-3.15,9.49-3.37,14.65-1.85.45.14,1,.8,1.43.1s-.12-1.17-.56-1.58C250,128.67,248.28,128.75,246.79,128.48Z" transform="translate(-96.02 -20.94)"/><path class="cls-1" d="M236.84,136.53a26.26,26.26,0,0,0-2.05,1.72c-.82.86-2.23,1.23-2.32,2.71a17,17,0,0,1,9.95-2,20,20,0,0,1,11,4.47C251.91,135.84,241.75,133.07,236.84,136.53Z" transform="translate(-96.02 -20.94)"/><path class="cls-1" d="M209.17,180.24a30.84,30.84,0,0,1-8.5-6.52,6.24,6.24,0,0,0-1-.76c5.22,14,17.94,18,29,9.44a16.27,16.27,0,0,0,2.54-3.69c.22-.59,1-1.16.23-1.89C226.29,182.46,216.16,184,209.17,180.24Z" transform="translate(-96.02 -20.94)"/><path class="cls-1" d="M225.29,146.4c1.52-1.9,3.51-3.31,5.22-5a25.12,25.12,0,0,1,3.94-3.91c.3-.28,1.2-.35.67-1.16a20.2,20.2,0,0,0-7.41,5c-2.62,2.84-5.32,5.61-8,8.38a18.55,18.55,0,0,1-1.82,1.47l-.47.66-1.64,1,.31.47a3.17,3.17,0,0,0,1.72-1A60.39,60.39,0,0,0,225.29,146.4Z" transform="translate(-96.02 -20.94)"/><path class="cls-1" d="M204.87,152.34c7.12-1.85,12.83-5.94,17.66-11.39,3.38-3.82,6.56-7.82,11.06-10.5,3.16-1.88,6.39-3.23,10.13-3a10.1,10.1,0,0,0,1.1,0c.09,0,.18-.08.5-.24a10.83,10.83,0,0,0-6.52-.49A26,26,0,0,0,227,132.94c-3.86,3.36-7.41,7-11.07,10.59-5.24,5.09-11.65,7.78-18.64,9.36-.1,0-.18.14-.27.21l-2.68.89a5.75,5.75,0,0,0,3.8-.33C200.4,153.22,202.67,152.91,204.87,152.34Z" transform="translate(-96.02 -20.94)"/><path class="cls-1" d="M208.14,178.68a18.73,18.73,0,0,0,22.73-2.49c1.84-1.85,2.76-4.26,4.17-6.37-.75.05-1.11.69-1.62,1.09-2.74,2.12-5.45,4.29-8.9,5.18-4.94,1.82-9.43.89-13.58-2.18-4.74-3.5-9.5-7-14.22-10.49a13.28,13.28,0,0,0-6.63-2.79c-1.82-.2-3.63-.36-5.45-.54l0,.54c5,1.76,8.61,5.43,12.45,8.77C200.75,172.56,204,176.08,208.14,178.68Z" transform="translate(-96.02 -20.94)"/><path class="cls-1" d="M277.94,51.09c6.74-1.1,13.51-1.58,20.25.15.7.18,1.39.38,2.08.58,4.71.76,9.06,2.73,13.56,4.18a65.69,65.69,0,0,0,15.32,3.14,23.78,23.78,0,0,0,18.05-5.89A44.18,44.18,0,0,0,357.11,41c-1.63.67-2.53,2.18-3.65,3.37a29.1,29.1,0,0,1-18.19,9.12,26.34,26.34,0,0,1-10.86.4q-7.52-1.57-15-3.19C301.33,49,293.51,46,285.07,46.35c-6.51.46-12.78,1.72-18.29,5.48a36.24,36.24,0,0,0-9.56,10.33,6.64,6.64,0,0,0-1.48,2.61c.65-.69,1.5-1.21,1.8-2.18A33.2,33.2,0,0,1,277.94,51.09Z" transform="translate(-96.02 -20.94)"/><path class="cls-1" d="M258.12,57.14a16.15,16.15,0,0,0-2.67,5.42c1.42-1.42,2.08-3.29,3.06-5Z" transform="translate(-96.02 -20.94)"/><path class="cls-1" d="M263.27,52.87A9.33,9.33,0,0,1,266,50.93a45.17,45.17,0,0,1,10.22-6.28c11.4-5,22.81-3.69,34.15.26,3.61,1.26,7.12,2.85,10.91,3.54,11.58,2.12,22.22-.32,32-6.72.3-.28.61-.54.89-.83.57-.6-.16-.4-.34-.54l-1.57.55-.68.36c-5,2.88-10.53,3.6-16.21,3.43-5,.28-9.6-1.14-14.13-3-3.65-1.47-7.18-3.25-11.12-3.92a51.06,51.06,0,0,0-23.74,1.67l-3.48,1.06-10.68,4.1a79.71,79.71,0,0,0-8,6.34,7.64,7.64,0,0,0-1.3,1.49l-1.67,1.77A2.5,2.5,0,0,0,263.27,52.87Z" transform="translate(-96.02 -20.94)"/><path class="cls-1" d="M285.69,39c11.45-3.64,22.78-4,33.93,1.17a39.39,39.39,0,0,0,14,3.93A8.19,8.19,0,0,1,336.1,44c4-.12,8-.33,12.06-1.91v0l-1.06-.26L345.6,42c-7.31.55-14.5.45-21.23-3.14-4.53-2.42-9.1-4.83-14.21-5.91-12.21-2.13-23,1.58-33.25,7.9a13.41,13.41,0,0,0-2.17,1.57c2.66-.32,5-1.69,7.5-2.35A12.28,12.28,0,0,1,285.69,39Z" transform="translate(-96.02 -20.94)"/><path class="cls-1" d="M315.63,47.69c-5-1.56-9.67-3.92-14.91-4.71-9.8-1.49-19.26-1.09-28,4.26l-2.16,1.24a4.81,4.81,0,0,0,2.86-.79,34.2,34.2,0,0,1,10.84-1.82c5.18-.7,10.2.33,15.15,1.63,8.48,2.21,17.08,3.89,25.65,5.67,3.17.66,6.3.1,9.45-.12h0l5.11-1.1c6-1.29,10.36-5.07,14.42-9.34l-.37-.4C341.91,50.3,329.18,51.92,315.63,47.69Z" transform="translate(-96.02 -20.94)"/><path class="cls-1" d="M224.52,176.09a.53.53,0,0,0-.2-.13Z" transform="translate(-96.02 -20.94)"/><path class="cls-1" d="M304.27,58.56l-.23.08A.42.42,0,0,0,304.27,58.56Z" transform="translate(-96.02 -20.94)"/><path class="cls-1" d="M207,140.79c6.63-3.62,11.61-9.11,16.39-14.78A22.36,22.36,0,0,1,239,117.94c.48,0,.95-.17,1.62-.3l-.73-.43a.4.4,0,0,1-.28-.17c-7-1.33-12.42,1.89-17.58,5.87a69,69,0,0,0-13,13.74,32.35,32.35,0,0,1-3.72,4.46C206,142.16,206.55,141.05,207,140.79Z" transform="translate(-96.02 -20.94)"/><path class="cls-1" d="M254,69.39a4.29,4.29,0,0,0,1.61-1.81l.45-.3a2.44,2.44,0,0,1,1.1-1.12h0c.71-.65,1.38-1.36,2.14-2,6.3-4.89,13.73-7.09,21.34-8.85,8.27-1.92,15.95.55,23.6,3.2a80.52,80.52,0,0,1,9.59,3.89c10.25,4.48,20,4,29.36-2.52a44.62,44.62,0,0,0,8.21-7.37c1.16-1.83,2.5-3.55,3-5.77l-2.1,2.53c-6.64,8.09-15,11.85-25.58,10.48a79,79,0,0,1-16.08-4A114.66,114.66,0,0,0,298.33,52h0a55.88,55.88,0,0,0-16.49-.67c-11.43,1.08-20.29,6.17-26.59,15.75l-1.56,1.81C253.76,69.12,253.35,69.85,254,69.39Z" transform="translate(-96.02 -20.94)"/><path class="cls-1" d="M251.74,74.45a21.39,21.39,0,0,1,8.76-4.61l4.16-.65h0l.25,0a2.8,2.8,0,0,0-.28-.06l-.42-.08a10.71,10.71,0,0,0-4.77.38l-1.8.29c-2.91,1.45-5.68,3.06-7.64,5.76C250.88,75.63,251.24,74.86,251.74,74.45Z" transform="translate(-96.02 -20.94)"/><path class="cls-1" d="M223.34,191.8c-4.25,1.91-8.58,1.74-13,.63-5.45-1.36-8.47-5.39-11-9.93-1-1.79-2-3.64-2.89-5.48-2.79-5.5-7.26-9.63-11.34-14.08a1.58,1.58,0,0,0-1.51-.73,2.48,2.48,0,0,0,1.12,1.32,50.83,50.83,0,0,1,7.85,16.16,29.13,29.13,0,0,0,9.75,14.21,12.05,12.05,0,0,0,10.58,2.62c3.94-.82,7.79-1.92,11.07-4.4.8,0,1.29-.66,2-.81h0c.82-.79,2.05-1.07,2.83-2.35-1.67.62-2.8,1.78-4.31,2.14Z" transform="translate(-96.02 -20.94)"/><path class="cls-1" d="M124.3,125.61c5.3,6.14,11.68,10.12,20.08,10.14,2.43,0,4.85.17,7.27.26.54-1.21-.66-.75-1-.82-3.22-.87-6.48-1.63-9.72-2.43a35.11,35.11,0,0,1-19.41-12.83c-.56-.71-1.17-1.4-1.76-2.09a8,8,0,0,0-2.69-3,11.65,11.65,0,0,0,2.3,3.68l4.17,6.31C123.83,125.06,124.07,125.33,124.3,125.61Z" transform="translate(-96.02 -20.94)"/><path class="cls-1" d="M182.73,134.38c1.3-1.43,2.58-2.89,3.87-4.34-1.28.2-2.11,1.17-3.09,1.85-3.94,2.72-7.36,6.21-11.93,8h0c-8.78,4.56-17.9,7.31-27.91,5a26.2,26.2,0,0,1-9.53-4.42l-8.22-5.93c2.33,4.13,5.62,6.65,9.07,9C150.21,152.3,171.61,146.6,182.73,134.38Z" transform="translate(-96.02 -20.94)"/><path class="cls-1" d="M178.35,134.28c-11.21,6.6-23.11,9.15-35.95,6.08a52.44,52.44,0,0,1-12.57-4.68c-.55-.68-1.45-.8-2.11-1.31,0,1.09.93,1.3,1.69,1.65,6.68,5.53,13.92,9.57,23,8.93a47.78,47.78,0,0,0,16.3-4.35c.83-.38,1.67-.73,2.51-1.09,2.49-1.58,5.27-2.71,7.44-4.78.94-.65,2.06-1.1,2.48-2.3C180.21,133,179.08,133.36,178.35,134.28Z" transform="translate(-96.02 -20.94)"/><path class="cls-1" d="M153.14,140.81c8.81.14,16.85-2.59,24.39-7a21.56,21.56,0,0,0,1.76-1.25c1.07,0,1.68-.94,2.57-1.31l.16-.06h0l5.46-3.69h0c-1-.49-1.34.51-2,.79a16.12,16.12,0,0,0-1.82,1.08l-5.09,2.75a45.71,45.71,0,0,1-8.27,2.94A66.28,66.28,0,0,1,160,138.45c-.28-.11-.66,0-.73-.48,2.46-.74,4.93-1.47,7.38-2.23.28-.08,1.36-.05.25-.69l-2.92.11h0c-2.47,1.08-5.16,1-7.76,1.34a77.85,77.85,0,0,1-10,.17c-2.55-.36-5.15.18-7.69-.44a34.23,34.23,0,0,1-8.85-4.46,20.44,20.44,0,0,1-6.59-6.59l-4.8-7.1c-.7.64,0,1.2.15,1.74,1.62,4.44,4.36,8.24,7,12.07A47.77,47.77,0,0,0,153.14,140.81Z" transform="translate(-96.02 -20.94)"/><path class="cls-1" d="M125.67,111a18.73,18.73,0,0,0,3.94,4,91.72,91.72,0,0,0,12.78,8.4,60.73,60.73,0,0,0,26.11,4c3.93-.28,7.86-.61,11.79-.91l1.57-.43c-3.13-1-6.35-.63-9.49-1.11-.46.61-1.12.31-1.68.33-6.36.21-12.63-.69-18.92-1.38a24.67,24.67,0,0,1-11.92-4.71,49.45,49.45,0,0,1-8.12-7c-4.34-4.84-8.87-9.54-11.68-15.54a22,22,0,0,1-3.22-10.71c-.15-.63.13-1.34-.36-2A20.66,20.66,0,0,0,114.32,89a6.74,6.74,0,0,1,.13,2.49.92.92,0,0,1,.18.87,35.31,35.31,0,0,0,5,10.67C121.58,105.74,123.69,108.34,125.67,111Z" transform="translate(-96.02 -20.94)"/><path class="cls-1" d="M122.48,117.78c4.19,3.92,8.62,7.51,13.92,9.86l-.71.25.28.16-.28-.16c-5-2.06-9.16-5.35-13.06-9-.73-.65-1.15-1.74-2.36-1.73.51.67.86,1.5,1.68,1.91,3.6,4.3,7.38,8.41,12.74,10.58a90.93,90.93,0,0,0,23,6h0L162,135l.14-.14c-.12-.36-.48-.35-.79-.41l-11.73-2.22.4-.34-.23-.06a.6.6,0,0,1,.23.06c5.33.52,10.53,2.05,15.94,2a37.71,37.71,0,0,0,17.32-4.91c1.14-1.13,2.64-1.68,3.95-2.54a5.51,5.51,0,0,1,2.3-.44l1.59-1.4-.13-.28L186.53,126c-4,.72-7.72,2.55-11.66,3.61a51,51,0,0,1-32.22-1.66c-5.34-2-10.69-4.08-15.18-7.8-.51-.43-1-.88-1.49-1.32a30.07,30.07,0,0,1-11.89-18.37c-.21,6.16.27,12,6.32,15.58C121.1,116.59,121.81,117.16,122.48,117.78Z" transform="translate(-96.02 -20.94)"/><path class="cls-1" d="M124,116c.88.73,1.66,1.59,2.48,2.39a61.64,61.64,0,0,0,33.26,12.17c6,.39,11.74-1,17.43-2.63.83.23,1.51-.24,2.24-.49-1-.56-1.95-.19-2.91.09a6,6,0,0,0-1.27,0,72,72,0,0,1-16.13.52,49.92,49.92,0,0,1-17.55-4.33c-4.4-2-8.15-5-12.08-7.71a18.83,18.83,0,0,1-4.3-4.15c-1.63-2.11-3.31-4.18-4.88-6.33-2.76-3.78-5.3-7.68-6.12-12.42-1,1.14-.4,2.42-.18,3.57.43,2.2,1.09,4.36,1.7,6.52A25.39,25.39,0,0,0,124,116Z" transform="translate(-96.02 -20.94)"/><path class="cls-1" d="M192.63,138.29c3.68-7.57,9-13.92,15-19.72a.29.29,0,0,1,.28-.38c-.63-.65-1.08,0-1.51.26a21.64,21.64,0,0,0-8.66,8.62c-2.71,4.8-5.62,9.48-8.62,14.11-2.08,3.19-4.06,6.5-7.43,8.58a40.93,40.93,0,0,1-9.85,5.28l2,.2a11.8,11.8,0,0,0,4.44-.72,25.68,25.68,0,0,0,7.85-7.15C188.25,144.36,190.43,141.32,192.63,138.29Z" transform="translate(-96.02 -20.94)"/><path class="cls-1" d="M192.12,140.53c-1,.2-1.25,1.16-1.76,1.82-2.23,2.94-4,6.22-6.71,8.82-1,.93-2,1.71-3,2.59-.84.75.22.42.36.61l.09,0h0C187.46,151.9,190.35,146.67,192.12,140.53Z" transform="translate(-96.02 -20.94)"/><path class="cls-1" d="M177.88,143.14c5.06-4.22,8.83-9.52,12.57-14.85a4.41,4.41,0,0,0,1.57-2.45,5.24,5.24,0,0,0-2,1.93c-3.12,3-5.67,6.52-8.91,9.4a43.44,43.44,0,0,1-31.43,11.33,2.25,2.25,0,0,0-1.69.22,9.34,9.34,0,0,0,3.56,1.2C161.49,152.21,170.17,149.58,177.88,143.14Z" transform="translate(-96.02 -20.94)"/><path class="cls-1" d="M186.3,144h0a66.41,66.41,0,0,0,5.06-7.67c2.55-4.22,5.09-8.45,7.66-12.66a3.9,3.9,0,0,1,.78-.73h0c.58-.47,1.26-.86,1.23-1.75l-1.6,1.3c-3.16,2.56-4.88,6.12-6.64,9.64l-1.7,3.41h0c-1.68,2.69-3.25,5.45-5.16,8-4.26,4.23-9,7.77-14.79,9.59-1.59.5-3.26.75-5.13,1.17a6.13,6.13,0,0,0,3.68.38,43.59,43.59,0,0,0,11.6-5.38A18.22,18.22,0,0,0,186.3,144Z" transform="translate(-96.02 -20.94)"/><path class="cls-1" d="M173.74,155.24l-.44.1A1,1,0,0,0,173.74,155.24Z" transform="translate(-96.02 -20.94)"/><path class="cls-1" d="M230.54,107.46c-5.89,1.9-10,5.89-13.32,11,4.7-3.82,9.84-6.76,15.94-7.24,6.3-.5,11.71,1.66,16.07,7.15a9.92,9.92,0,0,0-1.74-5.18C243.57,107.36,237.33,105.28,230.54,107.46Z" transform="translate(-96.02 -20.94)"/><path class="cls-1" d="M248.5,104.34c-4.17-2.53-8.71-3.36-13.45-1.49a18.22,18.22,0,0,0-5.87,3.64c9.43-2.82,18.3.78,21.33,10.77C253.43,111.81,252.81,107,248.5,104.34Z" transform="translate(-96.02 -20.94)"/><path class="cls-1" d="M117.87,86.05c-.77.46-.33,1.14-.27,1.72.32,3,1.84,5.68,3,8.44a76.39,76.39,0,0,0,18.72,21.47,26.4,26.4,0,0,0,14.2,5.69c4.91.42,9.79,1.16,14.74,1.22,1.14,0,2.27-.44,3.42-.12-1-1.2-2.51-.88-3.75-1.35s-2.8-.52-4.1-1.17h0c-4.27-1-8.75-.82-13-1.93-8.76-2.28-15.38-8-21.77-14.07-2.64-2.36-4.23-5.44-5.84-8.51C121.23,93.72,119,90.13,117.87,86.05Z" transform="translate(-96.02 -20.94)"/><path class="cls-1" d="M252.27,101.39a15.26,15.26,0,0,0-17.58-2.72c-6.55,3.38-11.68,8.45-16,14.4a7.66,7.66,0,0,0-1.6,2.92,5.94,5.94,0,0,0,1.91-2.14,54,54,0,0,1,12.73-10.56c5.35-3.33,10.86-3.11,16.36-.47a9.15,9.15,0,0,1,5.32,8.22C255.48,108.21,254.91,104,252.27,101.39Z" transform="translate(-96.02 -20.94)"/><path class="cls-1" d="M221.82,116.57a33.77,33.77,0,0,0-11.9,13.56c-1.24,2.52-2.52,5-3.93,7.82a4.16,4.16,0,0,0,2.27-2c4.66-6.21,9.88-11.85,16.4-16.2,8.15-5.43,15.65-5.44,23.7.11-.49-1.82-3.46-4.69-6-5.86C235,110.58,228.2,112.36,221.82,116.57Z" transform="translate(-96.02 -20.94)"/><path class="cls-1" d="M224.14,126.36c-1.59,1.92-3.27,3.77-5,5.6a47.07,47.07,0,0,1-14.45,10.94c-1.93,1.24-3.27,3.1-4.92,4.63.26.57.58.21.86,0,6.15-3.91,12.61-7.36,18.1-12.26,2.84-2.53,4.94-5.7,7.64-8.33,4.61-4.5,9.92-7.45,16.65-6.63a36.92,36.92,0,0,1,4.58,1.14c-.45-1.74-2.23-1.95-3.37-2.9C236.4,118.21,229.41,120,224.14,126.36Z" transform="translate(-96.02 -20.94)"/><path class="cls-1" d="M228.64,125.9a20.28,20.28,0,0,0-3.64,3.82c-4.51,5.81-10.24,10.16-16.49,13.89-3.33,2-6.65,4-10,6a12.8,12.8,0,0,1-4.18,2.57h0l-.61.57A4.79,4.79,0,0,0,192,154a3.87,3.87,0,0,0,2.21-.7c2.87-.92,5.74-1.86,8.63-2.74,7.46-2.29,12.75-7.57,18-12.92,3.28-3.32,6.62-6.64,10.73-9,5.26-3,10.7-4.32,16.47-1.31,1.08.57,2,.67,2-1-.53-2.67-2.38-3.9-4.81-4.63C238.81,119.7,233.56,122.16,228.64,125.9Z" transform="translate(-96.02 -20.94)"/><path class="cls-1" d="M129.52,105.56c3.75,3.86,8.21,6.8,12.58,9.87a23.36,23.36,0,0,0,12,4.43l.51.11c2.36.54,4.79.61,7.18.92l1,.19c.48.52,1.2.32,1.78.58h0l9.57,2.41c-1-.81-2-.69-2.69-1.38a42,42,0,0,0-7.41-2,131.67,131.67,0,0,1-13.47-4.13c-8.3-3.35-15.77-8-21.82-14.69h0c-2.1-2-3.42-4.56-5.16-6.81a10.32,10.32,0,0,0-1.66-2.81c-2.44-3.63-3.14-7.81-3.83-12h0c-.69,5.94,2.38,10.65,5.07,15.48C125.09,99.13,126.73,102.72,129.52,105.56Z" transform="translate(-96.02 -20.94)"/><path class="cls-1" d="M213.33,119.45c.53.1.35-.57.71-.66h0l1.09-3.16h0a46.07,46.07,0,0,1,8.47-14.38c4.13-4.52,8.85-8.15,15.23-8.87a16.83,16.83,0,0,1,9.53,1.19,24.38,24.38,0,0,1,6.76,4.15l1.74,2a4.22,4.22,0,0,0-1.2-2.45,17.5,17.5,0,0,0-11.6-6.86c-2.21-.37-4.44-.58-6.68-.8a13.94,13.94,0,0,0-11.95,4.67c-4.63,5-8.26,10.62-9.86,17.37.26,1-.77,1.54-.68,2.44l-.42.74-1.14,4.61Z" transform="translate(-96.02 -20.94)"/><path class="cls-1" d="M219.58,100.66c2.39-3.44,4.57-7,8.29-9.32a15.45,15.45,0,0,1,9.53-2.5c4.47.38,9,.64,13.23,2.57l-3.36-3.7h0c-2.13-1.76-4.75-2.48-7.28-3.35-7.18-1.07-12.49,1.83-16.39,7.72a55.31,55.31,0,0,0-4.3,7.8,9.7,9.7,0,0,0-1.43,2.79l.37.41Z" transform="translate(-96.02 -20.94)"/><path class="cls-1" d="M241,92.87h-1A32.73,32.73,0,0,0,235,94c-7.92,3.13-13.05,9.07-16.76,16.47-.75,1.33-1.85,2.52-1.54,4.23l1.84-3.45c4.43-5,9-9.88,15-13.12,5.79-3.12,11.45-2.72,17,.66,3.55,2.17,5.59,5.19,5,9.6,2.06-1.45,2.38-4,1.06-7.53-2.92-4-7-6.18-11.66-7.57Z" transform="translate(-96.02 -20.94)"/><path class="cls-1" d="M241.51,83.81h0a29.63,29.63,0,0,0,6.24-7.11c-.14-.22-.31-.14-.45,0a40.27,40.27,0,0,1-9.74,6.36C238.81,83.67,240.19,83.57,241.51,83.81Z" transform="translate(-96.02 -20.94)"/><path class="cls-1" d="M133.93,236.79c0-2.13.09-4.26.06-6.38a85.52,85.52,0,0,1,.93-13.28c1-6.82,5-11.71,9.81-16.19,2.84-2.65,6.14-4.8,8.64-7.83l4.07-4a34.48,34.48,0,0,0,5.84-10c-.13-.12.07-1-.4-.28-1,1.53-2.49,2.79-2.54,4.83,0,.24-.33.47-.5.7-1.82,3.05-4.48,5.39-6.83,8-3.51,2.72-6.87,5.66-10.54,8.13-6.29,4.22-9.56,10.31-11.73,17.28a43.84,43.84,0,0,0-1.89,17.83,3.16,3.16,0,0,0,3.78,2.9A1.53,1.53,0,0,0,133.93,236.79Z" transform="translate(-96.02 -20.94)"/><path class="cls-1" d="M203.06,127q2-3.17,4-6.33a19.25,19.25,0,0,0-4.59,4.36,45.67,45.67,0,0,0-10.29,18.41h0c-1.13,2.44-2.09,5-4,7a18.91,18.91,0,0,1-5.61,4.19c.12.12.23.25.35.38a14.15,14.15,0,0,0,3.6-1.76,21.23,21.23,0,0,0,5.85-8.67l1-2c2.94-5.84,5.62-11.83,9.48-17.16.7.44-.12.77-.08,1.16q-1.33,2.16-2.66,4.32c-4.18,6.86-6.59,14.69-11.51,21.14,0,0,.11.19.16.28,5.32-3.12,7.74-8.24,9.45-13.81A69.2,69.2,0,0,1,203.06,127Z" transform="translate(-96.02 -20.94)"/><path class="cls-1" d="M133.77,208.38a24.73,24.73,0,0,1,6.54-7.28c2.45-2,4.83-4.13,7.15-6.18l.28-.23c.76-.68,1.52-1.35,2.28-2-.68,0-1.31.84-2.05,1.36-5.11,3.6-10.69,6.6-14.81,11.45-5.88,6.92-8.75,15.06-9.46,24-.21,2.76,1.07,5,2.5,7.24h0c.56.17,1,1,1.61.59s.28-1.14.22-1.73C127,225.92,129.23,216.91,133.77,208.38Z" transform="translate(-96.02 -20.94)"/><path class="cls-1" d="M139.08,236.22a60,60,0,0,1,2.46-20.35,40.74,40.74,0,0,1,7.16-13.62c1.83-2.26,3.71-4.49,5.56-6.73.57-1.73,2.37-2.71,2.76-4.55-1.33.35-2,1.57-2.77,2.45a50.71,50.71,0,0,1-6.14,5.68,50.15,50.15,0,0,0-8.43,8.55c-3,3.84-3.89,8.44-4.42,13.13a99.62,99.62,0,0,0-.45,12.93,16,16,0,0,1-.23,3.8c-.23,1,0,1.33.95,1.59C138.8,240,139.23,239.74,139.08,236.22Z" transform="translate(-96.02 -20.94)"/><path class="cls-1" d="M146,185.76a40.93,40.93,0,0,0-9.64,4.57L133.72,192c1.39.41,2.27-.62,3.3-1.2,3.22-.79,6.43-1.6,9.66-2.37a22.8,22.8,0,0,0,11-6.5c.26-.25,1.15-.57.3-1.18C154.38,183.39,150.17,184.52,146,185.76Z" transform="translate(-96.02 -20.94)"/><path class="cls-1" d="M155.67,196.36c-.13-.39.41-1-.28-1.21l-.87,1.09a15.69,15.69,0,0,1-3.12,4.19c-6.91,7.44-10.07,16.44-11.26,26.34-.49,4.06.19,8.15-.47,12.18-.09.59.21.77.64.91s.81.25,1.22.37c2.75.82,3.26.52,2.92-2.24-1.37-11,1.5-21.08,6.69-30.64A80,80,0,0,0,155.53,197C155.57,196.77,155.62,196.57,155.67,196.36Z" transform="translate(-96.02 -20.94)"/><path class="cls-1" d="M130.64,207.27c3.25-5,8.26-8.18,13.18-11.38,2.5-1.62,5-3.31,7.46-4.92,1.75-1.12,2.95-2.85,4.64-4,.88-.5,1.27-1.47,2-2.1-.87-.66-.89.76-1.54.63l-.86.95c-3.74,3.39-8.37,5.08-13,6.78-.68.25-1.36.54-2,.82-15.56,6.57-23,22.88-17.87,38.93.38.22.57.34.5-.33C122.14,223.14,125.64,214.91,130.64,207.27Z" transform="translate(-96.02 -20.94)"/><path class="cls-1" d="M133,197.19A45.58,45.58,0,0,1,143.17,192c3.06-1.13,6.25-2,8.9-4.1a8.19,8.19,0,0,0,2.74-1.92l-.31-.39-3.1,1.92a25.23,25.23,0,0,1-6.2,2A37.73,37.73,0,0,0,130.47,195a55.78,55.78,0,0,0-10.11,12.15c-5,7.95-4.63,16.25-.84,24.55a5.25,5.25,0,0,0,2.84,3.15l.12-.35a18,18,0,0,1-1.48-3.72C118.27,220.28,121.78,204.89,133,197.19Z" transform="translate(-96.02 -20.94)"/><path class="cls-1" d="M169.46,233.83c-.45-3.54-2.3-6.49-4.28-9.3a33.69,33.69,0,0,1-5.88-13.12l-.66-2.57a22.63,22.63,0,0,0,1.83,13.95,60.84,60.84,0,0,0,4.1,7.08,19.75,19.75,0,0,1,2.29,4.54,5.14,5.14,0,0,1-.21,4.61C169.62,238,169.3,235.77,169.46,233.83Z" transform="translate(-96.02 -20.94)"/><path class="cls-1" d="M159.64,202.91a10.74,10.74,0,0,0-.31-1.42c-.71,3.24.16,6.17.44,9.13a42.44,42.44,0,0,0,6.94,14.87c1.57,2.22,3.2,4.6,3.27,7.56a6.73,6.73,0,0,1-.34,4.62c-.58,1.2.17,1.41,1,1.54a2.77,2.77,0,0,0,3-3.53,37,37,0,0,0-4.9-8.9C163.72,219.57,160.34,211.76,159.64,202.91Z" transform="translate(-96.02 -20.94)"/><path class="cls-1" d="M165.91,234.42a28.31,28.31,0,0,0-3.74-6.65c-4.43-6.53-5.54-13.76-4.61-21.44.28-2.29,0-4.82.9-6.84,1.75-4,2-8.37,4-12.22.5-1,.88-2,1.31-3,.16-1.31.89-2.51.62-3.94-2,5-4.93,9.58-6.4,14.81a31.48,31.48,0,0,1-.63,3.62,4.59,4.59,0,0,1-.17.48l.06.11-.09.1c-.45,4.35-.91,8.7-1.33,13.06-.78,8,.52,15.5,4.82,22.38,1.11,1.76,2.14,3.56,1.82,5.81C166.12,239,167.32,238.58,165.91,234.42Z" transform="translate(-96.02 -20.94)"/><path class="cls-1" d="M158.3,232.39c-.24,2.32,0,4.1-.24,5.87-.15.9-1.25,1.79-.48,2.62s1.8.08,2.7-.21c.59-.2.61.36.82.68,1.2-.92.79-2.15.35-3.14C160.62,236.36,159.53,234.63,158.3,232.39Z" transform="translate(-96.02 -20.94)"/><path class="cls-1" d="M161.13,241.38l0,0h0Z" transform="translate(-96.02 -20.94)"/><path class="cls-1" d="M157.2,237.53a15.46,15.46,0,0,0-.39-6.88c-2.81-7.91-2.21-15.93-1.22-24,.17-1.38.28-2.76.42-4.14l-.22-.06c-.78,2.9-1.48,5.83-2.35,8.7a38,38,0,0,0,0,23c.61,1.94,1.21,4,.44,6.07-.11.3-.16.59.2.78a1.36,1.36,0,0,0,1.53-.13A4.46,4.46,0,0,0,157.2,237.53Z" transform="translate(-96.02 -20.94)"/><path class="cls-1" d="M107,197.68a7.06,7.06,0,0,0-1.22,2.92v0a2.81,2.81,0,0,0-.08.31,6.34,6.34,0,0,0,1.61-2.47c4.35-7.61,11.11-12.93,17.6-18.49a23.5,23.5,0,0,1,6.37-3.85,77.69,77.69,0,0,1,19.45-5.31,72.37,72.37,0,0,0,13.63-3.19c.7-.24,1.61-.33,1.65-1.4l-1.81.15c-.46.54-1.12.4-1.69.47-5.91.7-11.82,1.42-17.74,2a28.63,28.63,0,0,0-16.14,6.5c-7.37,6.24-14.76,12.47-20.64,20.23Z" transform="translate(-96.02 -20.94)"/><path class="cls-1" d="M140.35,168.84c3.82-.64,7.68-1.08,11.52-1.57,3.29-.42,6.59-.79,10.39-1.24l-2.65-.76-.22-.06-7.42-.74h-.08A49.81,49.81,0,0,0,141,166c-5.72,1.46-10.23,4.87-14.47,8.74l-1.67,2c-1.66,1.45-1.66,1.45-1.67,2.46h0l2-2h0C129.7,173.3,134.38,169.85,140.35,168.84Z" transform="translate(-96.02 -20.94)"/><path class="cls-1" d="M100.36,205c-.29-8.62,2.69-16.22,7.28-23.3a70.08,70.08,0,0,1,6.71-9.51c7.84-8.58,17.28-13.22,29.09-12.36,0-.2.85-.35,0-.59-8.14-2.16-15.52-.82-22.12,4.55-4,3.26-7.72,6.86-11.53,10.35-6,8.15-9.9,17.11-10.81,27.25a11,11,0,0,0,1.44,6.84A8.76,8.76,0,0,0,100.36,205Z" transform="translate(-96.02 -20.94)"/><path class="cls-1" d="M117,227.59c-2.33-8.06-1.32-15.63,3.58-22.53,4.24-6,8.78-11.66,15.26-15.41,2-1.18,4.07-2.32,6.11-3.47,3.6-1.26,7.34-2.07,10.88-3.53a13.17,13.17,0,0,0,3.61-2.05c1.06-.12,1.68-.95,2.45-1.52-1.15-.17-1.9.64-2.79,1.13h0l-14.83,5.53a4.91,4.91,0,0,0-2.33.9c-6.7,3.19-13,7-17.53,13.05-5.1,6.8-9.85,13.69-9.18,22.79a11,11,0,0,0,4.69,6.28C117.28,228.35,117.15,228,117,227.59Z" transform="translate(-96.02 -20.94)"/><path class="cls-1" d="M163.74,163.37h0a103.9,103.9,0,0,0-14.55-.42c-8.11.53-15.58,2.42-22.15,7.68-6.85,5.47-14,10.51-18.81,18.09a32.77,32.77,0,0,0-5.21,15c-.05.76-.33,1.56.18,2.29.41-1.26.81-2.52,1.21-3.78a21,21,0,0,1,3.19-7.14,4.86,4.86,0,0,1,1.35-2.12c3.45-4.23,7.34-8,11.14-11.95a82,82,0,0,1,6.18-6.73,25.79,25.79,0,0,1,4.46-4,31.56,31.56,0,0,1,19.38-6.39c4.43-.27,8.75.59,13.09,1.25l.35,0c2.46-.29,5,0,7.32-1.3A38.46,38.46,0,0,1,163.74,163.37Z" transform="translate(-96.02 -20.94)"/><path class="cls-1" d="M115.67,163.74l-.44-.5c-1.88,1.53-3.8,3-5.64,4.61A31.9,31.9,0,0,0,99.4,184.74C98,190.42,96.09,196,97.36,202c.12.57,0,1.21.54,1.66C98.43,187.91,106.87,175.75,115.67,163.74Z" transform="translate(-96.02 -20.94)"/><path class="cls-1" d="M143.12,184.21c5.62-2,11.34-3.66,16.58-6.57.31-.59,1.11-.76,1.31-1.72a93.76,93.76,0,0,1-11.14,2.43c-13.77,2.62-23.47,11.09-31.51,21.9a37.11,37.11,0,0,0-6.22,11.86,18.81,18.81,0,0,0-1,7.25c.94-1.52.84-3.3,1.17-5l0,0,.06,0C117.8,199.4,128.1,189.42,143.12,184.21Z" transform="translate(-96.02 -20.94)"/><path class="cls-1" d="M113.2,207a61.18,61.18,0,0,1,25.42-25.92c4-2.25,8.52-3.15,13-3.91.82-.62.26-.63-.28-.63-4.74,0-9.34.69-13.58,3a72.5,72.5,0,0,0-24.11,20.3,25.16,25.16,0,0,0-4.29,22c.63.94,1,2.11,2.26,2.82a41.28,41.28,0,0,1-1.25-5.34C109.94,214.92,111.23,210.88,113.2,207Z" transform="translate(-96.02 -20.94)"/><path class="cls-1" d="M116.87,177.71a118.05,118.05,0,0,1,16.49-12.31c.86,0,1.47-.68,2.27-.84-1.1-.59-2,.06-2.91.49a32.86,32.86,0,0,0-13,7.81c-4.42,4.5-8.54,9.29-13.31,13.44-4.83,6.88-5.81,14.57-4.94,23.06a2.5,2.5,0,0,0,.51-1.8C102,195.13,107.78,185.56,116.87,177.71Z" transform="translate(-96.02 -20.94)"/><path class="cls-1" d="M129.45,162.64c-7.9,2.91-13.77,8.32-18.36,15.23-1.44,2.17-2.8,4.41-4.2,6.61.61.36.8-.24,1.09-.51a81.77,81.77,0,0,0,6.14-6.21c5.3-6.16,11.26-11.4,19.31-13.68,1.85-.52,3.69-1.24,5.68-.61,5.65-1.34,11.42-1.54,17.55-1.67a7.13,7.13,0,0,0-1-.36C146.83,160.7,138,159.48,129.45,162.64Z" transform="translate(-96.02 -20.94)"/><path class="cls-1" d="M116.7,195A83.87,83.87,0,0,1,135.45,180,28.39,28.39,0,0,1,150,175.91a28.66,28.66,0,0,0,12.7-2.79c.66-.77,2.06-.84,2.11-2.4-5.45,2.64-11.29,3.42-17.11,4-7.28.74-13.46,3.87-19.35,7.9A78.57,78.57,0,0,0,112,197.83a32.26,32.26,0,0,0-6.35,14,9.77,9.77,0,0,0,2.07,9c.33,0,.61,0,.53-.46C106.52,210.38,109.87,202.08,116.7,195Z" transform="translate(-96.02 -20.94)"/><path class="cls-1" d="M177.7,220.49a86.11,86.11,0,0,0,6.17,8.24,7.93,7.93,0,0,0-1.8-5.83c-1.65-2.26-3.39-4.45-5.16-6.61a26.89,26.89,0,0,1-5.25-9.92,60.89,60.89,0,0,1,.57-36.27c.45-1.36,1.39-2.56,1.53-4.37a24.81,24.81,0,0,0-5.57,11.46C164.67,193.07,168.2,207.45,177.7,220.49Z" transform="translate(-96.02 -20.94)"/><path class="cls-1" d="M374.47,110.27A34.1,34.1,0,0,1,364.11,105a31.62,31.62,0,0,0-17.24-5.71,2.68,2.68,0,0,0-1.93.65c7.3.43,13.12,4.13,18.73,8.31,3.79,2.84,7.94,4.75,12.8,4.59a11.42,11.42,0,0,0,5.57-1.39A42.64,42.64,0,0,1,374.47,110.27Z" transform="translate(-96.02 -20.94)"/><path class="cls-1" d="M371.63,104.48a109.66,109.66,0,0,0-11.25-4.73L353.2,98a5.75,5.75,0,0,0-2.56.69c0,.4.22.41.46.43a27.64,27.64,0,0,1,13,4.91c4.27,2.85,8.68,5.32,13.86,6.22a13.86,13.86,0,0,0,12.58-3.59c-1.84.29-3.49.63-5.16.8C380.49,107.89,376,106.52,371.63,104.48Z" transform="translate(-96.02 -20.94)"/><path class="cls-1" d="M342.6,92.15a28.39,28.39,0,0,1-3.55,4.11,20,20,0,0,1-13.46,5.83h0c-1.62.28-3.06-.55-4.59-.8a7,7,0,0,0-2.81-1.31,4.22,4.22,0,0,0,2.06,1.58c3.44,1.84,7,3.15,11,2.6a31.45,31.45,0,0,0,4.2-1l3.57-2.55a30.52,30.52,0,0,0,4.59-9.09C342.92,91.2,342.83,91.83,342.6,92.15Z" transform="translate(-96.02 -20.94)"/><path class="cls-1" d="M358.66,97.27h-.61c-.73.23-1.59-.36-2.36.51,2,.76,4.1.71,5.92,1.68a54.28,54.28,0,0,1,9.61,3.84c5.49,2.59,11.13,4.15,17.26,2.86a17.87,17.87,0,0,0,6.36-2.59c-.63-.91-1.32-.13-1.88,0a19.41,19.41,0,0,1-14.73-1,56.36,56.36,0,0,0-16.15-5h0l-3.75-.38A1.24,1.24,0,0,0,358.66,97.27Z" transform="translate(-96.02 -20.94)"/><path class="cls-1" d="M348.87,101.51a8.24,8.24,0,0,0-4.34-.56,5.83,5.83,0,0,0,3.16.84,15.55,15.55,0,0,1,6.81,4.54c2.76,3,5.75,5.77,9.68,7.22a15.09,15.09,0,0,0,9.35.25c-5.35-.83-9.44-4-13.61-7A28.73,28.73,0,0,0,348.87,101.51Z" transform="translate(-96.02 -20.94)"/><path class="cls-1" d="M361.76,53.93a118.38,118.38,0,0,1,4.31,13.75,23.53,23.53,0,0,1,.47,8c.42,3.6-.68,6.91-2,10.16a29.81,29.81,0,0,1-3,5.55l-1.62,1.71.34.39,1.64-1.65c5.37-4.29,7.63-9.89,7.19-16.7-.26-3.88-.39-7.76-.58-11.65h0c-.82-3.8-1.79-7.57-3-11.27a36.61,36.61,0,0,1-1-17.85,34.53,34.53,0,0,0,.52-4.1,24.38,24.38,0,0,0-4.06,9A25.15,25.15,0,0,0,361.76,53.93Z" transform="translate(-96.02 -20.94)"/><path class="cls-1" d="M295.64,28a26.67,26.67,0,0,1,11-3.42c6.15-.93,11.93.5,17.63,2.64C329,29,333.15,32,337.46,34.72a11.85,11.85,0,0,0,2.42,1.73h0l.44-.38L338,34.3a96.76,96.76,0,0,0-10.36-7.65c-7-4.35-14.57-5.46-22.75-4.31a33.93,33.93,0,0,0-18.24,8.39c-1.5,1.33-3.05,2.62-4.47,4.08,3.54-1.12,6.57-3.25,9.9-4.74C293.25,29.38,294.43,28.67,295.64,28Z" transform="translate(-96.02 -20.94)"/><path class="cls-1" d="M307,25c-.41.1-.81.23-1.22.29a31.62,31.62,0,0,0-10.89,3.91c-.27.15-1.12.23-.2.74,7.16-1.77,14.31-3.55,21.7-1.15A86.54,86.54,0,0,1,330,34.9a46.22,46.22,0,0,0,13,4.77c0-.21.05-.38,0-.41-5.07-3.22-10-6.72-15.26-9.59A36.79,36.79,0,0,0,307,25Z" transform="translate(-96.02 -20.94)"/><path class="cls-1" d="M351.36,61.67c-1.64,6.23-2.52,12.62-3.95,18.89a8.79,8.79,0,0,1-.85,3.13c-1.27,5.49-2.85,10.87-5.84,15.73-.21.33-.86.6-.31,1.15,4.28-1.86,8.88-2.67,13.31-4,8.14-3.87,11-11.07,12.28-19.33.73-8-2.3-15.18-4.82-22.44a26.49,26.49,0,0,1-1-15.57,8.24,8.24,0,0,0,.12-1.1c-1.27,1-1.54,2.4-2.07,3.55-1.54,3.3-2.86,6.69-4.4,10S352.24,58.34,351.36,61.67Z" transform="translate(-96.02 -20.94)"/><path class="cls-1" d="M366.59,52.83a49.27,49.27,0,0,1,2.35,9.54h0c.94,5.1.86,10.27.9,15.42a16.79,16.79,0,0,1-5.67,13c-1.43,1.31-2.86,2.63-4.31,3.92-.4.35-.44.54-.15.61a3.45,3.45,0,0,0,.38,0,32.68,32.68,0,0,0,7.58-5,15.6,15.6,0,0,0,4.95-11.76c0-1.09.1-2.18.15-3.27v0c-.13-16-4.72-31.44-5.46-47.38-.68.39-.77,1.24-.94,1.94C364.56,37.49,363.9,45.15,366.59,52.83Z" transform="translate(-96.02 -20.94)"/><path class="cls-1" d="M337.27,96.93c2.58-2.06,4.4-4.79,6.49-7.28l1-2.44h0c.62-.87.66-1.91,1.15-3.17a4,4,0,0,0-1.37,2.09c-4.53,7.36-10.95,11.74-19.67,12.46-4.45.37-7.94-1.86-11.34-4.29-.45,1,.52,1.35,1,1.77a22.8,22.8,0,0,0,8.23,5.12C328.26,102,333,100.34,337.27,96.93Z" transform="translate(-96.02 -20.94)"/><path class="cls-1" d="M170.39,195.64c.82,5.54,1.6,11.1,4.42,16.07,2.07,3.66,5,6.75,7.48,10.09a10.21,10.21,0,0,1,2.36,7.38,4.36,4.36,0,0,0,3.38-3.86c.45-3.61-1-6.65-3.11-9.42-2.69-3.45-5.83-6.51-8.42-10.05a31.06,31.06,0,0,1-5.64-11.92c-.15-.93-.31-1.85-.46-2.77A7.52,7.52,0,0,0,170.39,195.64Z" transform="translate(-96.02 -20.94)"/><path class="cls-1" d="M293.52,30.66h0l0,0Z" transform="translate(-96.02 -20.94)"/><path class="cls-1" d="M155.15,158.18c-4.65-1.28-9.38-2.11-14.11-3a35.42,35.42,0,0,0-15.85,2.69,24.23,24.23,0,0,0-10.47,8.52c-1.25,1.71-2.42,3.5-3.62,5.25.69.17.9-.47,1.25-.8,2.74-2.59,5.44-5.21,8.39-7.55,6-4.73,12.59-6.9,20.22-5.33a105.35,105.35,0,0,0,13.34,1.83,3.84,3.84,0,0,1,2.42.61l3.92.81.36.05,8.36.83c3-.33,6-.18,8.91-2.35-3,.21-5.57.46-8.18.55A50.38,50.38,0,0,1,155.15,158.18Z" transform="translate(-96.02 -20.94)"/><path class="cls-1" d="M169.08,171.61a34.23,34.23,0,0,1,1.49-3.12c.79-1.2,2.09-2.09,2.26-3.67-.85,1-2,1.65-2.59,2.86-3,3.74-4,8.22-4.51,12.83a3.38,3.38,0,0,1-.23,1.41,69.36,69.36,0,0,0,2,27.31,58.43,58.43,0,0,0,8.21,17.83,10.21,10.21,0,0,0,4,3.62,2.17,2.17,0,0,0,2.79-.58c.89-1-.1-1.55-.55-2.16-4.37-5.86-8.81-11.66-11.7-18.45A50.06,50.06,0,0,1,169.08,171.61Z" transform="translate(-96.02 -20.94)"/><path class="cls-1" d="M281.59,69.75a73.58,73.58,0,0,1,14,6.5c4.56,2.55,9.17,5,13.7,7.65,5.76,3.33,11.59,2.89,17.58.7a29.61,29.61,0,0,0,13.59-9.47c1.76-2.24,3.75-4.31,5.62-6.48a4.84,4.84,0,0,0,1.25-2.19c-.67-.18-.75.75-1.33.67-1.68,2.15-3.94,3.62-6.1,5.22-3,2.63-6.53,4.35-10,6.15-4.82,2.46-9.76,2.17-14.74,1.19-.2,0-.39-.07-.59-.12l-1.16-.25h0a23.61,23.61,0,0,1-2.66-.53,163,163,0,0,1-18.71-7.57c-7.59-3.44-15.33-5.8-23.76-5a28.7,28.7,0,0,0-9.12,2c.26.5.7.39,1.11.32A58.13,58.13,0,0,1,272.77,68,24.17,24.17,0,0,1,281.59,69.75Z" transform="translate(-96.02 -20.94)"/><path class="cls-1" d="M349.25,66.36,349,67A1.66,1.66,0,0,0,349.25,66.36Z" transform="translate(-96.02 -20.94)"/><path class="cls-1" d="M164.11,188.57c0-.42.1-.84.15-1.26h0l0-1c-.78.15-.75.89-1,1.41-3.82,8.1-3.53,16.33-.92,24.7,1.78,5.72,4.9,10.69,8.16,15.62a24,24,0,0,1,3.9,8c.6.82,1.18.34,1.66-.09a6.59,6.59,0,0,0,2.53-4.6c-5.77-4.79-8.56-11.47-10.88-18.23A62.69,62.69,0,0,1,164.11,188.57Z" transform="translate(-96.02 -20.94)"/><path class="cls-1" d="M258.52,67.82c.44-.4,1.16-.37,1.5-.94l2.78-1.16a23.44,23.44,0,0,1,8.37-2.82c4.05-.88,8-.06,11.9.87a98,98,0,0,1,21.76,7.76c8.82,4.47,17.67,4.54,26.84,1.37a47,47,0,0,0,12.54-6.15,18.72,18.72,0,0,0,7-10.51l-.28-.12h0a8.56,8.56,0,0,0-.88,1A28.63,28.63,0,0,1,334.34,68.5c-9.42,2.9-18.77,2-27.91-1.37-5.63-2.09-11.07-4.77-17.15-5.43-3-.14-6-.27-9.07-.43a34.35,34.35,0,0,0-18.92,4.14,3.47,3.47,0,0,1-1.8.77,1.16,1.16,0,0,1-.07.31,6.84,6.84,0,0,0-1.25.92C257.75,67.88,258.37,67.7,258.52,67.82Z" transform="translate(-96.02 -20.94)"/><path class="cls-1" d="M334.71,87.33c5.74-4,9.28-10,11.89-16.45a7.51,7.51,0,0,0,.16-1.47c-2.14,2.39-4.13,4.4-5.89,6.6-5.39,6.71-12.68,9.79-20.9,11.14-4.14.68-7.83-.74-11.34-2.64-6.36-3.44-12.63-7.06-19-10.49-2.15-1.16-4.24-2.53-6.7-3l-2.55-1a16.83,16.83,0,0,0-4.35-.54l2.45.9,3.24.93a22.38,22.38,0,0,1,3.88,1.62c2.45,1.53,4.94,3,7.33,4.6,4.94,3.34,9.73,6.89,14.74,10.1C316.68,93.35,326,93.42,334.71,87.33Z" transform="translate(-96.02 -20.94)"/><path class="cls-1" d="M331.84,96.25a24.57,24.57,0,0,0,13.32-12.79c.22-.49.51-.95.77-1.42,1.55-4.89,2.13-10,3.08-15-.08-.36-.15-.72-.23-1.07a16.54,16.54,0,0,0-1.32,4.52,5.51,5.51,0,0,1-.46,1.76c-4.76,9.47-10.45,18-22,19.94a21,21,0,0,1-14.91-2.49,3.34,3.34,0,0,0-.85-.24c-.27.24-.1.48.07.62,3.5,2.81,7,5.69,11.32,7.13C324.48,98.49,328.25,97.78,331.84,96.25Z" transform="translate(-96.02 -20.94)"/><path class="cls-1" d="M341,69.89A56.81,56.81,0,0,1,327.4,75a32.26,32.26,0,0,1-22.65-2.56A101.62,101.62,0,0,0,279,63.68a24.3,24.3,0,0,0-7.07-.31c-1.43.39-2.89.69-4.27,1.2-.92.34-2.14.21-2.64,1.39a8.83,8.83,0,0,1,3.77-.73c8.49-.38,16.38,1.8,24.11,5.26s15.23,7.33,23.67,8.72c.9.06,1.81.11,2.71.19a19.4,19.4,0,0,0,11.56-2.15c3-1.65,5.94-3.46,8.87-5.26l2-1.72c1.77-.62,2.65-2.48,4.38-3.15,0-.44-.1-.65-.58-.3C344,67.86,342.46,68.87,341,69.89Z" transform="translate(-96.02 -20.94)"/><path class="cls-1" d="M259.46,66.13l.44-.69a35.61,35.61,0,0,1,21.46-4.91c1.69.11,3.38.17,5.08.26,6.14.11,11.83,2,17.4,4.4,8.51,3.71,17.33,5.27,26.56,3.52a29.31,29.31,0,0,0,18.65-11.52,2.32,2.32,0,0,0,.67-1.81C342.25,62.56,333.8,67.26,323,65.89a35.48,35.48,0,0,1-8.4-2.31c-3.75-1.46-7.42-3.1-11.12-4.67l-.1,0c-6.08-1.79-12.19-4.1-18.59-3.33C275.67,56.63,267,59.29,259.55,65a6.79,6.79,0,0,0-2,1.65C258.33,67,258.7,65.86,259.46,66.13Z" transform="translate(-96.02 -20.94)"/><path class="cls-1" d="M115.72,192.25a79.82,79.82,0,0,1,19.55-14.85c4.79-2.58,10-3.2,15.27-4,4.33-.65,8.67-1.27,12.71-3.12a13.36,13.36,0,0,0,4.18-2.88c-.22-.42-.52-.17-.76-.06-5.4,2.36-11.1,3.46-16.89,4.35-7.16,1.12-14.29,2.68-20.63,6.32-7.3,4.2-13.11,10.22-18.47,16.63-2.37,2.84-3.85,6.3-5.77,9.46a13.45,13.45,0,0,0-.76,10.15,66.13,66.13,0,0,1,2.25-8.45C108.37,200.51,111.85,196.24,115.72,192.25Z" transform="translate(-96.02 -20.94)"/><path class="cls-1" d="M119.83,74.89c-2,6.56-.47,12.49,3.32,18,2,2.9,4.09,5.74,6.13,8.6,9.44,9.73,21.23,15,34.16,18.24a51.36,51.36,0,0,0,19.68,1.56c.69-.1,1.37-.24,2-.35,0-.15,0-.3,0-.45-2-.19-3.89-.43-5.84-.57a22.36,22.36,0,0,1-6.57-1.46c-4.82-1.87-9.81-3.24-14.78-4.64a64.45,64.45,0,0,1-27.89-16.68,41.92,41.92,0,0,1-7-8.61,19.18,19.18,0,0,1-1.71-16c-.51.78-1,1.56-1.54,2.33Z" transform="translate(-96.02 -20.94)"/><path class="cls-1" d="M176,122.57l-2.14.21c1.81.93,3.59.86,5.3,1.11.54.08,1.3-.21,1.36.75a6.79,6.79,0,0,0,3.79.11,12.85,12.85,0,0,0,9-2.77c2.2-.71,3.54-2.69,5.54-3.77a4.24,4.24,0,0,0-2.6.44,52.22,52.22,0,0,1-19.51,3.85A2.12,2.12,0,0,1,176,122.57Zm7,1.71-.19,0a.49.49,0,0,1-.2,0Z" transform="translate(-96.02 -20.94)"/><path class="cls-1" d="M171,117c5.62,2.39,11.62,2.47,17.56,2.87a10.72,10.72,0,0,0,5.94-1.8,150.35,150.35,0,0,1-15-1.63c-6.46-1.09-12.77-2.86-19.17-4.27-4.87-1.08-9.26-3.61-14-5-.6-.17-1.19-.65-1.83-.09a61.24,61.24,0,0,0,17,6.87A56.59,56.59,0,0,1,171,117Z" transform="translate(-96.02 -20.94)"/><path class="cls-1" d="M206.74,127.71c-1.94,4-5.13,7.32-6.8,11.52a25.57,25.57,0,0,1-4,7.24l.21.64c5.13-5.48,8.45-12,10.83-19a1.69,1.69,0,0,0-.11-.34S206.75,127.7,206.74,127.71Z" transform="translate(-96.02 -20.94)"/><path class="cls-1" d="M208.78,116.81c.84-.63,1.93-1,2.48-2.34a25,25,0,0,0-5.11,2.84C207.17,117.9,207.85,116.73,208.78,116.81Z" transform="translate(-96.02 -20.94)"/><path class="cls-1" d="M209.35,118.32l-.86,1.07c-1.94,4-4.76,7.44-6.5,11.52a36.7,36.7,0,0,0-2.12,5.21,1.94,1.94,0,0,0-.24.64l-1.32,3.62c.15.1,0,.81.31.34a27.41,27.41,0,0,0,1.48-3.47c2.58-4.56,5.85-8.72,8-13.56.1-.39.12-.81.48-1.08l1.18-3.42,1.6-2.86A4.66,4.66,0,0,0,209.35,118.32Z" transform="translate(-96.02 -20.94)"/><path class="cls-1" d="M177.46,144.69a32.23,32.23,0,0,1-17.32,7l-4.62-.47c0,.17-.05.33-.08.49a4.54,4.54,0,0,0,2.43.8c7.78,2.56,14.5,0,21-4.16,6-3.83,9.56-9.53,12.6-15.7,2.12-4.31,4.2-8.65,8.31-11.55,1.93-1.37,3.79-2.84,5.69-4.26h0a7.33,7.33,0,0,0,2.08-1.48,3.77,3.77,0,0,0-2.3.84A24.88,24.88,0,0,0,193,126.23C188.58,133,183.91,139.59,177.46,144.69Z" transform="translate(-96.02 -20.94)"/><path class="cls-3" d="M182.94,124.28h-.39a.49.49,0,0,0,.2,0Z" transform="translate(-96.02 -20.94)"/><path class="cls-3" d="M189.05,227v0c.12-.2.24-.39.35-.59h0C189.22,226.51,189,226.83,189.05,227Z" transform="translate(-96.02 -20.94)"/><path class="cls-3" d="M121.18,70.85l-.77,1,.33-.13a.1.1,0,0,1,.05,0,1,1,0,0,1,.12.16l-1.43,2.31,0,.64c-.91,1.25-.41,2.93-1.25,4.21-1.33.52-.54,2.12-1.45,2.86a6.11,6.11,0,0,1-1.26,2.47L114,87.86c.13.39-.1.67-.27,1l0,0-.26.35h0c-.58.89-.24,2-.57,2.91.17,4,.31,8,.52,11.93A26.63,26.63,0,0,0,117,116.82c1,5.2,3.8,9.49,6.67,13.77.49.73,1.23,1.38.93,2.42-.25.62.55.69.62,1.15.73,2.61,2.65,4.4,4.44,6.24a16.44,16.44,0,0,0,4.84,3.49,13.06,13.06,0,0,0,4.69,2.36c4.1,1,7.87,2.9,11.78,4.42,3.27,1.27,6.51,2.56,9.87,3.61a41.2,41.2,0,0,0,16.51,1.59c2.07.93,4,.29,6-.42,4.77-1.74,9.47-3.52,13.09-7.38a52.26,52.26,0,0,0,12.31-22.78c1.23-3.77,2.37-7.58,4.79-10.83.72.6.13,1.24,0,1.79-.57,2-1.25,4-1.88,6-2.26,5.07-4,10.35-6.63,15.28a53.67,53.67,0,0,1-11,14.12,24.45,24.45,0,0,0-3.86,2.61c-1.28.68-2.6,1.3-3.84,2.05-4.59,2.76-9.76,2.64-14.81,3-7.17.5-14-1.52-20.8-3.26a17,17,0,0,0-3.94-.69,3.45,3.45,0,0,0-.52-.16,18.58,18.58,0,0,0-3.93-.6l-.72-.08c-4.5-.85-8.88,0-13.11,1.3a49.28,49.28,0,0,0-24.61,16.89c-3.84,4.93-5.11,10.94-6.63,16.82A27.22,27.22,0,0,0,96.88,204c.55,2,.8,4.1,2.88,5.36,1.23.76,1.56,2.25,1.87,3.63.14.6.13,1.44,1.16,1.23a28.45,28.45,0,0,0,4.38,7.09,2.1,2.1,0,0,0,1,1.24c1.3,1.26,1.84,3.51,4.31,3.29.23,0,.5.49.74.76,2.36,2.53,5.13,4.66,7,7.67a5.75,5.75,0,0,0,5.48,2.89c.78.73,1.52,1.47,2.77,1,.75-.28,1.11.45,1.6.82,2.38.39,4.77.94,7.13,1.26,1.84.25,3.58.8,5.38,1.12,2.1.37,3.15-.44,2.85-2.51-1.66-11.5,1.43-21.93,6.94-31.85.29-.53.57-1.08.84-1.62s.43-.93.81-1.74l.08,0,0,0a28.06,28.06,0,0,1-1.57,7.05,38.09,38.09,0,0,0-.11,23.33,14.07,14.07,0,0,1,.79,4.48,2.35,2.35,0,0,1-2.24,2.59,11.87,11.87,0,0,1-2.73,0c-.89-.08-1.61-.85-2.93-.57a6.39,6.39,0,0,0,5.37,1.44,29.1,29.1,0,0,1,3.72-.13c2.19,0,4.58.89,6.69-.49,1.31,1,2.38.18,3.3-.6a7.37,7.37,0,0,1,3.85-1.51c.65-.1,1,.39,1.37.71,2.3.54,3.89-.42,5-2.36l2.65-1.65c.7-1.24,1.95-2.22,1.91-3.83,1.73-.3,3.24-1.26,4.9-1.72a6.24,6.24,0,0,0,4.91-6.38,13.33,13.33,0,0,0-1.83-6.43,33,33,0,0,0-3.9-5.05c-3.22-3.74-6.6-7.34-9-11.72a31.65,31.65,0,0,1-3.56-15.46c.65.26.64.77.75,1.14a37.18,37.18,0,0,0,11.25,17,31.81,31.81,0,0,1,6,6.84,26.31,26.31,0,0,1,2.41,7.4,11,11,0,0,1-2.2,8.1c3.93-2.46,3.82-10.55.27-15.93a18.42,18.42,0,0,0-3.47-4.62c-2.77-2.94-6.16-5.31-8.24-8.89-7.28-10-8.14-19.08-3-29.38a6.38,6.38,0,0,0,1.12-2.44c.51-.67,1-1.37,1.53-2a3.4,3.4,0,0,1,5.48,0c4,4.44,6.38,9.76,8.24,15.31,1.61,4.82,3.49,9.42,6.95,13.29,5.92,6.61,11,8,19.41,5.28a25.24,25.24,0,0,0,9-4.67c4.64-2.7,6.7-7.15,8.12-12,1.32-4.54,2.83-9,4.4-13.47h0c1.84-2.76,4.61-4.32,7.44-5.81,1.21-.64,2.63-.92,3.62-2,6.12-1.33,8.33-5.92,5.93-11.58-1-2.26-1.37-4.76-2.86-6.83-.25-.35-.13-.65.16-.95a1.62,1.62,0,0,0,.4-1.37c-.4-3.22.12-6.68-2.47-9.34-.8-.82.16-2-.48-3l-.48-2.25c.32-.3.95-.31.87-1-.53-4.94,2.5-8.5,5-12.15,1.65-2.4,2.83-4.78,2.52-7.73.13-2.64-1.45-4.55-2.86-6.49a56.78,56.78,0,0,0-7.8-8.53,10.55,10.55,0,0,0-4.27-2.61c-.74-.3-.88-.58-.25-1.1a26.81,26.81,0,0,0,5.27-6.17c.1-.15.41-.16.63-.23,1.69-.72,2.85-2.16,4.31-3.2a20.44,20.44,0,0,1,8.23-3.65c5.47-1,10.89-1.74,16.3.24a1,1,0,0,0,.19.08l6.63,2.69c7.15,3.71,13.3,8.82,19.58,13.76.61.49,1.26.92,1.9,1.38,1.43,1.66,3.45,2.69,4.77,4.47,3.61,5.39,7.8,10.06,14.49,11.6a14.45,14.45,0,0,0,10.23-1,5.27,5.27,0,0,0,1.21-.34c5.39-3,10.21-1.11,14.79,1.89a18.89,18.89,0,0,1,3.38,3.31c6,6.65,13.35,8.29,21.75,5.93a45.19,45.19,0,0,0,23.5-15.52c.64-.8,2.05-1.47.78-3-.85,2.18-2.81,2.61-4.74,3.15a21,21,0,0,1-14.79-.78,15.62,15.62,0,0,0-1.55-.51,3.68,3.68,0,0,0-.35-.15c-3.65-1.55-7.58-1.43-11.65-1.78.79-.66,1.58-.48,2.27-.6s1.55-.23,2.32-.34c3.66-.85,7.1.11,10.53,1.22a22.12,22.12,0,0,0,15.68-.44c.63-.26,1.46-.29,1.93-1.76-7.81,4.25-15.22,2.45-22.87-.08,0,0,0-.08,0-.11l2.14-.35c4.95.34,9.88,1.36,14.87.36a8.54,8.54,0,0,0,3.91-1.82c.24-.2.47-.43.19-.76s-.42,0-.6.1c-2.56,2-5.61,2.14-8.66,2-2.09-.07-4.18-.39-6.42-.62a14.79,14.79,0,0,1,4.58-1,36.48,36.48,0,0,0,7.68-1.42,17.47,17.47,0,0,0,1.83-.8c.32-.15.75-.32.53-.78s-.59-.19-.9,0c-3.59,1.9-7.66,1.71-11.48,2.59-.53.12-.38-.27-.34-.55,2.81-1.75,6.15-2.31,9-4a5.94,5.94,0,0,0,2.41-2.1c-1.44.31-2.15,1.26-3.32,1.31a.31.31,0,0,1-.05-.1c.31-1.36,2-1.9,1.86-3.77a24.46,24.46,0,0,1-4.17,4.09l0,0c.72-2.43,3.2-3.76,3.09-6.68-.81,1-.89,1.93-1.75,2.45-.3-1.75,1.07-3.36.24-5.46-1.3,4.19-.8,8.88-5.58,11.15a31.56,31.56,0,0,0,3.38-15.39c-.53,2.81-1,5.64-1.61,8.44a34.19,34.19,0,0,1-2.66,7,6.63,6.63,0,0,1-2.77,2.83c-.45-.44-1.21,1.63-1.5-.19,3.13-3.49,4.67-7.78,6-12.16.7-2.38,1.1-4.86,1.62-7.3.13-.59.26-1.21-.49-1.72a67.2,67.2,0,0,1-3.7,14,33.94,33.94,0,0,1-4.63,7.83,6.17,6.17,0,0,1-4.81,2.34c4.52-3.75,6.9-8.78,8.76-14.13s3.08-10.63,1.8-16.23a49.94,49.94,0,0,1-.7,9c-1.42,6.66-3.48,13.05-8,18.33a13.21,13.21,0,0,1-6.06,4.23c-.61-.16-.63-.4-.14-.79C379.83,86.6,382,77,382.89,66.87c.68-7.75-1.74-14.87-4.47-21.92a1.38,1.38,0,0,0-.91-1.09c.36,1.09.67,2,.94,2.88,1.59,5.1,3.48,10.18,3.79,15.54A44.56,44.56,0,0,1,376,87.74a20.33,20.33,0,0,1-5.71,5.83,4.43,4.43,0,0,1-2.8,1c.14-.25.18-.41.28-.48,5.22-3.52,8.17-8.49,9.61-14.54A66.33,66.33,0,0,0,378.46,58a12.07,12.07,0,0,0-.43-1.75c-.52-3.69-2-7.1-3-10.67a51.45,51.45,0,0,1-2-12,2.87,2.87,0,0,0-.86-2.05,38.83,38.83,0,0,0,1.64,12.78q1.89,6.36,3.79,12.73a67.27,67.27,0,0,1,.18,15.79c-.71,5.48-1.6,11-5.12,15.53-2.6,3.39-5.61,6.2-10,7.12a.58.58,0,0,0-.5.44c3.39.29,6.77.59,10.15.86a55,55,0,0,1,6.63,1.15,23.7,23.7,0,0,0,18.55,1.54c.42-.14.85-.56,1.37-.12a7.09,7.09,0,0,1-3.45,2.83c-.88.24-1.76.45-2.62.72a19.16,19.16,0,0,1-14.37-1,48.77,48.77,0,0,0-13.69-4.28,10.21,10.21,0,0,0-2.93-.61c-.58-.1-.48-.34-.24-.68.16-.13.32-.26.47-.4-.23-.83.44-1,1-1.24,4.76-2.68,8.7-6.1,10-11.7a36.94,36.94,0,0,0,.48-10.34h0c.23-5-.6-9.94-1.32-14.87-1.23-8.48-2.49-17-3.64-25.46-.32-2.33-.46-4.73.68-7,.41-.81-.29-1.29-.65-2.2-2.28,3.84-5.14,7-6.68,11a6.23,6.23,0,0,1-3.39,3.3,24.79,24.79,0,0,1-7.14,2.6c-3,.66-5.27-.73-7.48-2.41L330.23,27.28c-.89-.64-2.08-.79-2.8-1.71-13.19-7-25.93-5.85-38.23,2.19a67.14,67.14,0,0,0-5.67,4.61c-.66.54-1.3,1.1-2,1.61-.2.16-.47.16-.29-.24a1.54,1.54,0,0,1,.23-.29l-.34-.39-2.61,3c-2.82,2.5-5.42,5.31-8.51,7.39a50.07,50.07,0,0,0-8.06,7.3,41.4,41.4,0,0,0-9.19,16.19,29.26,29.26,0,0,1-4.91,8.3c-3.09,3.14-6.91,5.22-10.67,7.38a10.45,10.45,0,0,1-2,.75c-6.23,1-10.33,4.8-13.34,10.06a63.8,63.8,0,0,0-6.29,13.5,18.69,18.69,0,0,0-.61,4.33c-.57,1.08-1.69,1.25-2.71,1.59-1.66.55-3.33,1.12-5,1.69-1.47,0-2.32,1.64-3.87,1.38-1.18.26-2.35.57-3.53.77-5.8,1-11.57.21-17.34-.31h0c-7-1.54-14-3-20.93-4.62a58.81,58.81,0,0,1-9.3-3.14,34.21,34.21,0,0,0-9.2-2.72,18.12,18.12,0,0,1-3.18-1.72,62,62,0,0,1-16.28-16.09,20.82,20.82,0,0,1-1.33-16.27l.3-.16a1,1,0,0,1,.08.33,27.84,27.84,0,0,0,3.94,15.87c4.53,7.61,11.51,12.69,19.5,16.06,5.62,2.37,11.67,3.71,17.53,5.5a70.38,70.38,0,0,0,8.88,2.57c9.77,2.52,19.64,4.34,29.81,3.47h0s0,0,0,0c-.24-.42-.74-.3-1.1-.47-12.1.48-23.76-1.87-35.21-5.55a8.41,8.41,0,0,0-.87-.19c-5.08-1.88-10.32-3.28-15.48-4.91a41.43,41.43,0,0,1-21.56-15.77c-3-4.21-4.22-9.27-4.87-14.39-.25-1.93,1-3.17,2.29-4.32l-.15-.71ZM97.36,202c-1.27-6,.61-11.54,2-17.22a31.9,31.9,0,0,1,10.19-16.89c1.84-1.58,3.76-3.08,5.64-4.61l.44.5c-8.8,12-17.24,24.17-17.77,39.88C97.41,203.17,97.48,202.53,97.36,202Zm1.59-.59c.91-10.14,4.84-19.1,10.81-27.25,3.81-3.49,7.51-7.09,11.53-10.35,6.6-5.37,14-6.71,22.12-4.55.88.24.05.39,0,.59-11.81-.86-21.25,3.78-29.09,12.36a70.08,70.08,0,0,0-6.71,9.51c-4.59,7.08-7.57,14.68-7.28,23.3a8.76,8.76,0,0,1,0,3.23A11,11,0,0,1,99,201.37Zm29.67-26a28.63,28.63,0,0,1,16.14-6.5c5.92-.61,11.83-1.33,17.74-2,.57-.07,1.23.07,1.69-.47l1.81-.15c0,1.07-.95,1.16-1.65,1.4a72.37,72.37,0,0,1-13.63,3.19,77.69,77.69,0,0,0-19.45,5.31A23.5,23.5,0,0,0,124.9,180c-6.49,5.56-13.25,10.88-17.6,18.49a6.34,6.34,0,0,1-1.61,2.47,2.81,2.81,0,0,1,.08-.31v0a7.06,7.06,0,0,1,1.22-2.92l1-2.07C113.86,187.85,121.25,181.62,128.62,175.38Zm-5.4,3.78h0c0-1,0-1,1.67-2.46l1.67-2c4.24-3.87,8.75-7.28,14.47-8.74a49.81,49.81,0,0,1,10.86-1.47H152l7.42.74.22.06,2.65.76c-3.8.45-7.1.82-10.39,1.24-3.84.49-7.7.93-11.52,1.57-6,1-10.65,4.46-15.08,8.32h0Zm40.32-14-.35,0c-4.34-.66-8.66-1.52-13.09-1.25a31.56,31.56,0,0,0-19.38,6.39,25.79,25.79,0,0,0-4.46,4,82,82,0,0,0-6.18,6.73c-3.8,3.9-7.69,7.72-11.14,11.95a4.86,4.86,0,0,0-1.35,2.12,21,21,0,0,0-3.19,7.14c-.4,1.26-.8,2.52-1.21,3.78-.51-.73-.23-1.53-.18-2.29a32.77,32.77,0,0,1,5.21-15c4.76-7.58,12-12.62,18.81-18.09,6.57-5.26,14-7.15,22.15-7.68a103.9,103.9,0,0,1,14.55.42h0a38.46,38.46,0,0,0,7.12.49C168.56,165.19,166,164.87,163.54,165.16ZM102,207.56a2.5,2.5,0,0,1-.51,1.8c-.87-8.49.11-16.18,4.94-23.06,4.77-4.15,8.89-8.94,13.31-13.44a32.86,32.86,0,0,1,13-7.81c.92-.43,1.81-1.08,2.91-.49-.8.16-1.41.84-2.27.84a118.05,118.05,0,0,0-16.49,12.31C107.78,185.56,102,195.13,102,207.56Zm37.08-44.09c-2-.63-3.83.09-5.68.61-8.05,2.28-14,7.52-19.31,13.68A81.77,81.77,0,0,1,108,184c-.29.27-.48.87-1.09.51,1.4-2.2,2.76-4.44,4.2-6.61,4.59-6.91,10.46-12.32,18.36-15.23,8.58-3.16,17.38-1.94,26.16-1.2a7.13,7.13,0,0,1,1,.36C150.53,161.93,144.76,162.13,139.11,163.47Zm-34.2,40.66c1.92-3.16,3.4-6.62,5.77-9.46,5.36-6.41,11.17-12.43,18.47-16.63,6.34-3.64,13.47-5.2,20.63-6.32,5.79-.89,11.49-2,16.89-4.35.24-.11.54-.36.76.06a13.36,13.36,0,0,1-4.18,2.88c-4,1.85-8.38,2.47-12.71,3.12-5.23.77-10.48,1.39-15.27,4a79.82,79.82,0,0,0-19.55,14.85c-3.87,4-7.35,8.26-9.32,13.58a66.13,66.13,0,0,0-2.25,8.45A13.45,13.45,0,0,1,104.91,204.13Zm2.79,16.69a9.77,9.77,0,0,1-2.07-9,32.26,32.26,0,0,1,6.35-14,78.57,78.57,0,0,1,16.38-15.2c5.89-4,12.07-7.16,19.35-7.9,5.82-.59,11.66-1.37,17.11-4,0,1.56-1.45,1.63-2.11,2.4a28.66,28.66,0,0,1-12.7,2.79A28.39,28.39,0,0,0,135.45,180,83.87,83.87,0,0,0,116.7,195c-6.83,7.13-10.18,15.43-8.47,25.41C108.31,220.82,108,220.84,107.7,220.82Zm4.59-6.43c-.33,1.67-.23,3.45-1.17,5a18.81,18.81,0,0,1,1-7.25,37.11,37.11,0,0,1,6.22-11.86c8-10.81,17.74-19.28,31.51-21.9A93.76,93.76,0,0,0,161,175.92c-.2,1-1,1.13-1.31,1.72-5.24,2.91-11,4.62-16.58,6.57-15,5.21-25.32,15.19-30.8,30.12l-.06,0Zm-.64,10.25c-1.29-.71-1.63-1.88-2.26-2.82a25.16,25.16,0,0,1,4.29-22,72.5,72.5,0,0,1,24.11-20.3c4.24-2.29,8.84-3,13.58-3,.54,0,1.1,0,.28.63-4.51.76-9,1.66-13,3.91A61.18,61.18,0,0,0,113.2,207c-2,3.85-3.26,7.89-2.8,12.27A41.28,41.28,0,0,0,111.65,224.64Zm.6-2.16c-.67-9.1,4.08-16,9.18-22.79,4.57-6.09,10.83-9.86,17.53-13.05a4.91,4.91,0,0,1,2.33-.9l14.83-5.53h0c.89-.49,1.64-1.3,2.79-1.13-.77.57-1.39,1.4-2.45,1.52a13.17,13.17,0,0,1-3.61,2.05c-3.54,1.46-7.28,2.27-10.88,3.53-2,1.15-4.08,2.29-6.11,3.47-6.48,3.75-11,9.45-15.26,15.41-4.9,6.9-5.91,14.47-3.58,22.53.13.42.26.76-.08,1.17A11,11,0,0,1,112.25,222.48Zm45.39-40.58a22.8,22.8,0,0,1-11,6.5c-3.23.77-6.44,1.58-9.66,2.37-1,.58-1.91,1.61-3.3,1.2l2.64-1.64a40.93,40.93,0,0,1,9.64-4.57c4.17-1.24,8.38-2.37,11.94-5C158.79,181.33,157.9,181.65,157.64,181.9Zm-35.16,52.63-.12.35a5.25,5.25,0,0,1-2.84-3.15c-3.79-8.3-4.2-16.6.84-24.55A55.78,55.78,0,0,1,130.47,195a37.73,37.73,0,0,1,14.73-5.54,25.23,25.23,0,0,0,6.2-2l3.1-1.92.31.39a8.19,8.19,0,0,1-2.74,1.92c-2.65,2.05-5.84,3-8.9,4.1A45.58,45.58,0,0,0,133,197.19c-11.17,7.7-14.68,23.09-11.95,33.62A18,18,0,0,0,122.48,234.53Zm.16-1.58c-5.17-16,2.31-32.36,17.87-38.93.67-.28,1.35-.57,2-.82,4.62-1.7,9.25-3.39,13-6.78l.86-.95c.65.13.67-1.29,1.54-.63-.74.63-1.13,1.6-2,2.1-1.69,1.18-2.89,2.91-4.64,4-2.5,1.61-5,3.3-7.46,4.92-4.92,3.2-9.93,6.41-13.18,11.38-5,7.64-8.5,15.87-7.5,25.35C123.21,233.29,123,233.17,122.64,233Zm5.19,4.41c-.57.38-1-.42-1.61-.59h0c-1.43-2.21-2.71-4.48-2.5-7.24.71-9,3.58-17.1,9.46-24,4.12-4.85,9.7-7.85,14.81-11.45.74-.52,1.37-1.38,2.05-1.36-.76.65-1.52,1.32-2.28,2l-.28.23c-2.32,2.05-4.7,4.15-7.15,6.18a24.73,24.73,0,0,0-6.54,7.28c-4.54,8.53-6.77,17.54-5.72,27.25C128.11,236.22,128.35,237,127.83,237.36Zm4.8,1.15a3.16,3.16,0,0,1-3.78-2.9,43.84,43.84,0,0,1,1.89-17.83c2.17-7,5.44-13.06,11.73-17.28,3.67-2.47,7-5.41,10.54-8.13,2.35-2.59,5-4.93,6.83-8,.17-.23.5-.46.5-.7,0-2,1.57-3.3,2.54-4.83.47-.75.27.16.4.28a34.48,34.48,0,0,1-5.84,10l-4.07,4c-2.5,3-5.8,5.18-8.64,7.83-4.79,4.48-8.86,9.37-9.81,16.19a85.52,85.52,0,0,0-.93,13.28c0,2.12,0,4.25-.06,6.38A1.53,1.53,0,0,1,132.63,238.51Zm2.9.59c-1-.26-1.18-.56-.95-1.59a16,16,0,0,0,.23-3.8,99.62,99.62,0,0,1,.45-12.93c.53-4.69,1.4-9.29,4.42-13.13a50.15,50.15,0,0,1,8.43-8.55,50.71,50.71,0,0,0,6.14-5.68c.81-.88,1.44-2.1,2.77-2.45-.39,1.84-2.19,2.82-2.76,4.55-1.85,2.24-3.73,4.47-5.56,6.73a40.74,40.74,0,0,0-7.16,13.62,60,60,0,0,0-2.46,20.35C139.23,239.74,138.8,240,135.53,239.1Zm15.61-31.75C146,216.91,143.08,227,144.45,238c.34,2.76-.17,3.06-2.92,2.24-.41-.12-.82-.23-1.22-.37s-.73-.32-.64-.91c.66-4,0-8.12.47-12.18,1.19-9.9,4.35-18.9,11.26-26.34a15.69,15.69,0,0,0,3.12-4.19l.87-1.09c.69.26.15.82.28,1.21,0,.21-.1.41-.14.62A80,80,0,0,1,151.14,207.35ZM154,241c-.36-.19-.31-.48-.2-.78.77-2.09.17-4.13-.44-6.07a38,38,0,0,1,0-23c.87-2.87,1.57-5.8,2.35-8.7l.22.06c-.14,1.38-.25,2.76-.42,4.14-1,8.07-1.59,16.09,1.22,24a15.46,15.46,0,0,1,.39,6.88,4.46,4.46,0,0,1-1.63,3.34A1.36,1.36,0,0,1,154,241Zm7.06.35,0,0,0,0h0c-.21-.32-.23-.88-.82-.68-.9.29-1.91,1.07-2.7.21s.33-1.72.48-2.62c.28-1.77,0-3.55.24-5.87,1.23,2.24,2.32,4,3.15,5.82C161.89,239.2,162.3,240.43,161.1,241.35Zm1.41-.64c.32-2.25-.71-4.05-1.82-5.81-4.3-6.88-5.6-14.41-4.82-22.38.42-4.36.88-8.71,1.33-13.06l.09-.1-.06-.11a4.59,4.59,0,0,0,.17-.48,31.48,31.48,0,0,0,.63-3.62c1.47-5.23,4.39-9.82,6.4-14.81.27,1.43-.46,2.63-.62,3.94-.43,1-.81,2-1.31,3-2,3.85-2.29,8.25-4,12.22-.89,2-.62,4.55-.9,6.84-.93,7.68.18,14.91,4.61,21.44a28.31,28.31,0,0,1,3.74,6.65C167.32,238.58,166.12,239,162.51,240.71Zm4.14-1.69a5.14,5.14,0,0,0,.21-4.61,19.75,19.75,0,0,0-2.29-4.54,60.84,60.84,0,0,1-4.1-7.08,22.63,22.63,0,0,1-1.83-13.95l.66,2.57a33.69,33.69,0,0,0,5.88,13.12c2,2.81,3.83,5.76,4.28,9.3C169.3,235.77,169.62,238,166.65,239Zm4,.19c-.82-.13-1.57-.34-1-1.54a6.73,6.73,0,0,0,.34-4.62c-.07-3-1.7-5.34-3.27-7.56a42.44,42.44,0,0,1-6.94-14.87c-.28-3-1.15-5.89-.44-9.13a10.74,10.74,0,0,1,.31,1.42c.7,8.85,4.08,16.66,9.09,23.87a37,37,0,0,1,4.9,8.9A2.77,2.77,0,0,1,170.63,239.21Zm8-7.87a6.59,6.59,0,0,1-2.53,4.6c-.48.43-1.06.91-1.66.09a24,24,0,0,0-3.9-8c-3.26-4.93-6.38-9.9-8.16-15.62-2.61-8.37-2.9-16.6.92-24.7.24-.52.21-1.26,1-1.41l0,1h0c0,.42-.13.84-.15,1.26a62.69,62.69,0,0,0,3.65,24.54C170.08,219.87,172.87,226.55,178.64,231.34Zm3.33-3.4c.45.61,1.44,1.18.55,2.16a2.17,2.17,0,0,1-2.79.58,10.21,10.21,0,0,1-4-3.62,58.43,58.43,0,0,1-8.21-17.83,69.36,69.36,0,0,1-2-27.31,3.38,3.38,0,0,0,.23-1.41c.56-4.61,1.49-9.09,4.51-12.83.58-1.21,1.74-1.89,2.59-2.86-.17,1.58-1.47,2.47-2.26,3.67a34.23,34.23,0,0,0-1.49,3.12,50.06,50.06,0,0,0,1.19,37.88C173.16,216.28,177.6,222.08,182,227.94Zm-11.11-34a31.06,31.06,0,0,0,5.64,11.92c2.59,3.54,5.73,6.6,8.42,10.05,2.15,2.77,3.56,5.81,3.11,9.42a4.36,4.36,0,0,1-3.38,3.86,10.21,10.21,0,0,0-2.36-7.38c-2.52-3.34-5.41-6.43-7.48-10.09-2.82-5-3.6-10.53-4.42-16.07a7.52,7.52,0,0,1,0-4.48C170.55,192.08,170.71,193,170.86,193.93Zm1.37-23.83a60.89,60.89,0,0,0-.57,36.27,26.89,26.89,0,0,0,5.25,9.92c1.77,2.16,3.51,4.35,5.16,6.61a7.93,7.93,0,0,1,1.8,5.83,86.11,86.11,0,0,1-6.17-8.24c-9.5-13-13-27.42-9.51-43.3a24.81,24.81,0,0,1,5.57-11.46C173.62,167.54,172.68,168.74,172.23,170.1Zm-2.87-8L161,161.3l-.36-.05-3.92-.81a3.84,3.84,0,0,0-2.42-.61A105.35,105.35,0,0,1,141,158c-7.63-1.57-14.26.6-20.22,5.33-2.95,2.34-5.65,5-8.39,7.55-.35.33-.56,1-1.25.8,1.2-1.75,2.37-3.54,3.62-5.25a24.23,24.23,0,0,1,10.47-8.52A35.42,35.42,0,0,1,141,155.22c4.73.85,9.46,1.68,14.11,3a50.38,50.38,0,0,0,14.94,2.15c2.61-.09,5.21-.34,8.18-.55C175.41,162,172.32,161.8,169.36,162.13ZM272.77,68a58.13,58.13,0,0,0-12.49.62c-.41.07-.85.18-1.11-.32a28.7,28.7,0,0,1,9.12-2c8.43-.81,16.17,1.55,23.76,5a163,163,0,0,0,18.71,7.57,23.61,23.61,0,0,0,2.66.53h0l1.16.25c.2.05.39.09.59.12,5,1,9.92,1.27,14.74-1.19,3.5-1.8,7-3.52,10-6.15,2.16-1.6,4.42-3.07,6.1-5.22.58.08.66-.85,1.33-.67a4.84,4.84,0,0,1-1.25,2.19c-1.87,2.17-3.86,4.24-5.62,6.48a29.61,29.61,0,0,1-13.59,9.47c-6,2.19-11.82,2.63-17.58-.7-4.53-2.61-9.14-5.1-13.7-7.65a73.58,73.58,0,0,0-14-6.5A24.17,24.17,0,0,0,272.77,68Zm-14.6-.57a6.84,6.84,0,0,1,1.25-.92,1.16,1.16,0,0,0,.07-.31,3.47,3.47,0,0,0,1.8-.77,34.35,34.35,0,0,1,18.92-4.14c3,.16,6.05.29,9.07.43,6.08.66,11.52,3.34,17.15,5.43,9.14,3.38,18.49,4.27,27.91,1.37A28.63,28.63,0,0,0,350,57.14a8.56,8.56,0,0,1,.88-1h0l.28.12a18.72,18.72,0,0,1-7,10.51,47,47,0,0,1-12.54,6.15c-9.17,3.17-18,3.1-26.84-1.37a98,98,0,0,0-21.76-7.76c-3.9-.93-7.85-1.75-11.9-.87a23.44,23.44,0,0,0-8.37,2.82L260,66.88c-.34.57-1.06.54-1.5.94C258.37,67.7,257.75,67.88,258.17,67.41Zm-.62-.75a6.79,6.79,0,0,1,2-1.65c7.44-5.72,16.12-8.38,25.23-9.47,6.4-.77,12.51,1.54,18.59,3.33l.1,0c3.7,1.57,7.37,3.21,11.12,4.67a35.48,35.48,0,0,0,8.4,2.31c10.81,1.37,19.26-3.33,26.73-10.51a2.32,2.32,0,0,1-.67,1.81A29.31,29.31,0,0,1,330.4,68.71c-9.23,1.75-18,.19-26.56-3.52-5.57-2.42-11.26-4.29-17.4-4.4-1.7-.09-3.39-.15-5.08-.26a35.61,35.61,0,0,0-21.46,4.91l-.44.69C258.7,65.86,258.33,67,257.55,66.66Zm88.48.46c-1.73.67-2.61,2.53-4.38,3.15l-2,1.72c-2.93,1.8-5.84,3.61-8.87,5.26a19.4,19.4,0,0,1-11.56,2.15c-.9-.08-1.81-.13-2.71-.19-8.44-1.39-16-5.29-23.67-8.72s-15.62-5.64-24.11-5.26A8.83,8.83,0,0,0,265,66c.5-1.18,1.72-1,2.64-1.39,1.38-.51,2.84-.81,4.27-1.2a24.3,24.3,0,0,1,7.07.31,101.62,101.62,0,0,1,25.79,8.76A32.26,32.26,0,0,0,327.4,75,56.81,56.81,0,0,0,341,69.89c1.5-1,3-2,4.49-3.07C345.93,66.47,346,66.68,346,67.12Zm-53.1,10.36c-2.39-1.61-4.88-3.07-7.33-4.6a22.38,22.38,0,0,0-3.88-1.62l-3.24-.93-2.45-.9a16.83,16.83,0,0,1,4.35.54l2.55,1c2.46.49,4.55,1.86,6.7,3,6.37,3.43,12.64,7,19,10.49,3.51,1.9,7.2,3.32,11.34,2.64,8.22-1.35,15.51-4.43,20.9-11.14,1.76-2.2,3.75-4.21,5.89-6.6a7.51,7.51,0,0,1-.16,1.47c-2.61,6.46-6.15,12.46-11.89,16.45-8.76,6.09-18,6-27,.25C302.66,84.37,297.87,80.82,292.93,77.48Zm16.33,12a3.34,3.34,0,0,1,.85.24A21,21,0,0,0,325,92.21c11.53-2,17.22-10.47,22-19.94a5.51,5.51,0,0,0,.46-1.76A16.54,16.54,0,0,1,348.78,66c.08.35.15.71.23,1.07-.95,5-1.53,10.09-3.08,15-.26.47-.55.93-.77,1.42a24.57,24.57,0,0,1-13.32,12.79c-3.59,1.53-7.36,2.24-11.19,1-4.34-1.44-7.82-4.32-11.32-7.13C309.16,90,309,89.72,309.26,89.48Zm40-23.12a1.66,1.66,0,0,1-.21.6ZM313.55,94.3c3.4,2.43,6.89,4.66,11.34,4.29,8.72-.72,15.14-5.1,19.67-12.46A4,4,0,0,1,345.93,84c-.49,1.26-.53,2.3-1.15,3.17h0l-1,2.44c-2.09,2.49-3.91,5.22-6.49,7.28-4.26,3.41-9,5.1-14.5,4.26a22.8,22.8,0,0,1-8.23-5.12C314.07,95.65,313.1,95.31,313.55,94.3Zm21.87,8.81a31.45,31.45,0,0,1-4.2,1c-4,.55-7.58-.76-11-2.6a4.22,4.22,0,0,1-2.06-1.58,7,7,0,0,1,2.81,1.31c1.53.25,3,1.08,4.59.8h0a20,20,0,0,0,13.46-5.83,28.39,28.39,0,0,0,3.55-4.11c.23-.32.32-1,1-.68a30.52,30.52,0,0,1-4.59,9.09Zm28.76,10.44c-3.93-1.45-6.92-4.17-9.68-7.22a15.55,15.55,0,0,0-6.81-4.54,5.83,5.83,0,0,1-3.16-.84,8.24,8.24,0,0,1,4.34.56,28.73,28.73,0,0,1,11.05,5.26c4.17,3,8.26,6.2,13.61,7A15.09,15.09,0,0,1,364.18,113.55Zm12.29-.69c-4.86.16-9-1.75-12.8-4.59-5.61-4.18-11.43-7.88-18.73-8.31a2.68,2.68,0,0,1,1.93-.65A31.62,31.62,0,0,1,364.11,105a34.1,34.1,0,0,0,10.36,5.25,42.64,42.64,0,0,0,7.57,1.2A11.42,11.42,0,0,1,376.47,112.86Zm1.47-2.66c-5.18-.9-9.59-3.37-13.86-6.22a27.64,27.64,0,0,0-13-4.91c-.24,0-.49,0-.46-.43A5.75,5.75,0,0,1,353.2,98l7.18,1.8a109.66,109.66,0,0,1,11.25,4.73c4.33,2,8.86,3.41,13.73,2.93,1.67-.17,3.32-.51,5.16-.8A13.86,13.86,0,0,1,377.94,110.2ZM362.08,97.69h0a56.36,56.36,0,0,1,16.15,5,19.41,19.41,0,0,0,14.73,1c.56-.17,1.25-1,1.88,0a17.87,17.87,0,0,1-6.36,2.59c-6.13,1.29-11.77-.27-17.26-2.86a54.28,54.28,0,0,0-9.61-3.84c-1.82-1-3.95-.92-5.92-1.68.77-.87,1.63-.28,2.36-.51h.61a1.24,1.24,0,0,1-.33,0Zm5.23-69.82c.74,15.94,5.33,31.41,5.46,47.38v0c0,1.09-.15,2.18-.15,3.27a15.6,15.6,0,0,1-4.95,11.76,32.68,32.68,0,0,1-7.58,5,3.45,3.45,0,0,1-.38,0c-.29-.07-.25-.26.15-.61,1.45-1.29,2.88-2.61,4.31-3.92a16.79,16.79,0,0,0,5.67-13c0-5.15,0-10.32-.9-15.42h0a49.27,49.27,0,0,0-2.35-9.54c-2.69-7.68-2-15.34-.22-23C366.54,29.11,366.63,28.26,367.31,27.87Zm-2.25,2.38a34.53,34.53,0,0,1-.52,4.1,36.61,36.61,0,0,0,1,17.85c1.19,3.7,2.16,7.47,3,11.27h0c.19,3.89.32,7.77.58,11.65.44,6.81-1.82,12.41-7.19,16.7l-1.64,1.65-.34-.39,1.62-1.71a29.81,29.81,0,0,0,3-5.55c1.32-3.25,2.42-6.56,2-10.16a23.53,23.53,0,0,0-.47-8,118.38,118.38,0,0,0-4.31-13.75A25.15,25.15,0,0,1,361,39.22,24.38,24.38,0,0,1,365.06,30.25Zm-4.76,7.83a8.24,8.24,0,0,1-.12,1.1,26.49,26.49,0,0,0,1,15.57C363.7,62,366.73,69.21,366,77.19c-1.24,8.26-4.14,15.46-12.28,19.33-4.43,1.38-9,2.19-13.31,4-.55-.55.1-.82.31-1.15,3-4.86,4.57-10.24,5.84-15.73a8.79,8.79,0,0,0,.85-3.13c1.43-6.27,2.31-12.66,3.95-18.89.88-3.33,1-6.85,2.47-10.06s2.86-6.68,4.4-10C358.76,40.48,359,39.11,360.3,38.08Zm-73.68-7.35a33.93,33.93,0,0,1,18.24-8.39c8.18-1.15,15.71,0,22.75,4.31A96.76,96.76,0,0,1,338,34.3l2.35,1.77-.44.38h0a11.85,11.85,0,0,1-2.42-1.73C333.15,32,329,29,324.23,27.23c-5.7-2.14-11.48-3.57-17.63-2.64a26.67,26.67,0,0,0-11,3.42c-1.21.66-2.39,1.37-3.59,2.06-3.33,1.49-6.36,3.62-9.9,4.74C283.57,33.35,285.12,32.06,286.62,30.73ZM343,39.26c.05,0,0,.2,0,.41a46.22,46.22,0,0,1-13-4.77,86.54,86.54,0,0,0-13.62-6.09c-7.39-2.4-14.54-.62-21.7,1.15-.92-.51-.07-.59.2-.74a31.62,31.62,0,0,1,10.89-3.91c.41-.06.81-.19,1.22-.29a36.79,36.79,0,0,1,20.71,4.65C333,32.54,337.88,36,343,39.26ZM288.66,32.9c1.58-.85,3.39-1.19,4.87-2.24h0l.05,0,0,0c1.73.14,3.32-.57,5-.89,5.12-1,10.2-2.13,15.48-.81a56.46,56.46,0,0,1,12.16,4.79c6.1,3.15,12.18,6.31,19.2,6.89.32,0,.76,0,.84.55l-1.33.4h0c-2.42-.08-4.85-.21-7.27-.22A28.15,28.15,0,0,1,324.46,38a67.1,67.1,0,0,0-10.41-4.78c-.63-.2-1.29-.3-1.93-.45l-.1,0c-6.83-1.86-13.61-1.33-20.36.46-3.2.85-6.14,2.43-9.29,3.48A36.1,36.1,0,0,1,288.66,32.9Zm-11.75,8c10.21-6.32,21-10,33.25-7.9,5.11,1.08,9.68,3.49,14.21,5.91,6.73,3.59,13.92,3.69,21.23,3.14l1.49-.21,1.06.26v0c-4.07,1.58-8.06,1.79-12.06,1.91a8.19,8.19,0,0,0-2.52.08,39.39,39.39,0,0,1-14-3.93C308.47,35,297.14,35.38,285.69,39a12.28,12.28,0,0,0-3.45,1.09c-2.53.66-4.84,2-7.5,2.35A13.41,13.41,0,0,1,276.91,40.89ZM263,52.47a7.64,7.64,0,0,1,1.3-1.49,79.71,79.71,0,0,1,8-6.34l10.68-4.1,3.48-1.06a51.06,51.06,0,0,1,23.74-1.67c3.94.67,7.47,2.45,11.12,3.92,4.53,1.83,9.15,3.25,14.13,3,5.68.17,11.17-.55,16.21-3.43l.68-.36,1.57-.55c.18.14.91-.06.34.54-.28.29-.59.55-.89.83-9.8,6.4-20.44,8.84-32,6.72-3.79-.69-7.3-2.28-10.91-3.54-11.34-3.95-22.75-5.26-34.15-.26A45.17,45.17,0,0,0,266,50.93a9.33,9.33,0,0,0-2.75,1.94,2.5,2.5,0,0,1-1.95,1.37Zm91.08-9.87c-4.06,4.27-8.43,8-14.42,9.34L334.54,53h0c-3.15.22-6.28.78-9.45.12-8.57-1.78-17.17-3.46-25.65-5.67-5-1.3-10-2.33-15.15-1.63a34.2,34.2,0,0,0-10.84,1.82,4.81,4.81,0,0,1-2.86.79l2.16-1.24c8.74-5.35,18.2-5.75,28-4.26,5.24.79,9.94,3.15,14.91,4.71,13.55,4.23,26.28,2.61,38.07-5.49ZM258.12,57.14l.39.46c-1,1.67-1.64,3.54-3.06,5A16.15,16.15,0,0,1,258.12,57.14Zm-.9,5a36.24,36.24,0,0,1,9.56-10.33c5.51-3.76,11.78-5,18.29-5.48,8.44-.4,16.26,2.68,24.33,4.39q7.5,1.6,15,3.19a26.34,26.34,0,0,0,10.86-.4,29.1,29.1,0,0,0,18.19-9.12c1.12-1.19,2-2.7,3.65-3.37a44.18,44.18,0,0,1-9.91,12.21,23.78,23.78,0,0,1-18.05,5.89A65.69,65.69,0,0,1,313.83,56c-4.5-1.45-8.85-3.42-13.56-4.18-.69-.2-1.38-.4-2.08-.58-6.74-1.73-13.51-1.25-20.25-.15a33.2,33.2,0,0,0-20.4,11.5c-.3,1-1.15,1.49-1.8,2.18A6.64,6.64,0,0,1,257.22,62.16Zm-3.53,6.76,1.56-1.81c6.3-9.58,15.16-14.67,26.59-15.75a55.88,55.88,0,0,1,16.49.67h0a114.66,114.66,0,0,1,12.38,3.78,79,79,0,0,0,16.08,4c10.58,1.37,18.94-2.39,25.58-10.48l2.1-2.53c-.54,2.22-1.88,3.94-3,5.77a44.62,44.62,0,0,1-8.21,7.37c-9.34,6.48-19.11,7-29.36,2.52a80.52,80.52,0,0,0-9.59-3.89.42.42,0,0,1-.23.08l.23-.08c-7.65-2.65-15.33-5.12-23.6-3.2-7.61,1.76-15,4-21.34,8.85-.76.59-1.43,1.3-2.14,2h0a2.44,2.44,0,0,0-1.1,1.12l-.45.3A4.29,4.29,0,0,1,254,69.39C253.35,69.85,253.76,69.12,253.69,68.92Zm4,.76,1.8-.29a10.71,10.71,0,0,1,4.77-.38l.42.08a2.8,2.8,0,0,1,.28.06l-.25,0h0l-4.16.65a21.39,21.39,0,0,0-8.76,4.61c-.5.41-.86,1.18-1.72,1C252,72.74,254.75,71.13,257.66,69.68Zm-48.68,67a69,69,0,0,1,13-13.74c5.16-4,10.62-7.2,17.58-5.87a.4.4,0,0,0,.28.17l.73.43c-.67.13-1.14.25-1.62.3A22.36,22.36,0,0,0,223.41,126c-4.78,5.67-9.76,11.16-16.39,14.78-.47.26-1,1.37-1.76.32A32.35,32.35,0,0,0,209,136.65Zm-24.34,23.44c1.82.18,3.63.34,5.45.54a13.28,13.28,0,0,1,6.63,2.79c4.72,3.52,9.48,7,14.22,10.49,4.15,3.07,8.64,4,13.58,2.18l-.2-.13a.53.53,0,0,1,.2.13c3.45-.89,6.16-3.06,8.9-5.18.51-.4.87-1,1.62-1.09-1.41,2.11-2.33,4.52-4.17,6.37a18.73,18.73,0,0,1-22.73,2.49c-4.11-2.6-7.39-6.12-11-9.28-3.84-3.34-7.48-7-12.45-8.77Zm46.57,18.62a16.27,16.27,0,0,1-2.54,3.69c-11.06,8.59-23.78,4.57-29-9.44a6.24,6.24,0,0,1,1,.76,30.84,30.84,0,0,0,8.5,6.52c7,3.8,17.12,2.22,22.27-3.42C232.19,177.55,231.43,178.12,231.21,178.71ZM226,191.31h0c-.71.15-1.2.86-2,.81-3.28,2.48-7.13,3.58-11.07,4.4a12.05,12.05,0,0,1-10.58-2.62,29.13,29.13,0,0,1-9.75-14.21,50.83,50.83,0,0,0-7.85-16.16,2.48,2.48,0,0,1-1.12-1.32,1.58,1.58,0,0,1,1.51.73c4.08,4.45,8.55,8.58,11.34,14.08.93,1.84,1.87,3.69,2.89,5.48,2.55,4.54,5.57,8.57,11,9.93,4.42,1.11,8.75,1.28,13-.63l1.13-.7c1.51-.36,2.64-1.52,4.31-2.14C228,190.24,226.77,190.52,226,191.31ZM236.7,169.9a1.51,1.51,0,0,1-.18.45c-1.15,3.58-2.33,7.15-3.44,10.74a13.63,13.63,0,0,1-7,8.45c-.69.36-1.35.77-2,1.16-.29.1-.57.18-.85.3-8.69,3.46-16.83.87-21.87-7a18.47,18.47,0,0,1-1.57-2.67c-2.9-6.85-7.6-12.42-12.59-17.79a1.9,1.9,0,0,1-1.3-1.46,3.61,3.61,0,0,1,2.06,1.18c3.8,3,7.5,6,10.25,10,1.54,2.26,3.12,4.51,4.47,6.87,5.67,9.89,20.81,9.14,26.38,2.72a10.87,10.87,0,0,0,3.89-6.7l3.31-6.6a4,4,0,0,1,.91-2.11C237.81,168.48,237.09,169.16,236.7,169.9Zm1.87-4.85a20.36,20.36,0,0,0-3.34,3.35,44.82,44.82,0,0,1-7.94,5.74c-1.14.57-2.34,1-3.51,1.49a13,13,0,0,1-12.32-2.6c-4.48-3.65-9.4-6.69-13.94-10.25a11.52,11.52,0,0,0-5.17-2.77l-6.54-.58-1.24-.28c.91-.68,2-.22,2.86-.66a25.65,25.65,0,0,1,6.83,1.31,29.14,29.14,0,0,1,8.08,3.59c3.73,2.23,7.07,5.14,11.27,6.54h0c3.64,1.46,7.16.86,10.58-.68a67.64,67.64,0,0,0,8.9-5,36,36,0,0,1,12.64-5.48l2,.2A24,24,0,0,0,238.57,165.05Zm-35.17-2.33c2.58.12,4.9,1.12,7.24,2a21.4,21.4,0,0,0,13.59.85,51.94,51.94,0,0,0,11-4.72c2.27-1.27,4.46-2.78,7.22-2.77l1.06.35v.07a40.67,40.67,0,0,0-8.83,3.92c-2.58,1.58-5.22,3.09-7.83,4.63-3.49,2-7.17,3.27-11.28,2.69C210.92,168.48,207.33,165.33,203.4,162.72Zm50.87-7.65c-.09.71-.92,1.09-1.58,1.41a10.12,10.12,0,0,1-5.68.94c-4.28-.42-8.35-.08-12,2.58a33.33,33.33,0,0,1-6.68,3.33c-5.63,2.44-11.35,3-17.19.75-.87-.35-1.94-.32-2.69-1.25h4.89a21.39,21.39,0,0,0,9.18-2c4.56-2,9.1-4.09,13.68-6a27.14,27.14,0,0,1,8.25-2.23,17.79,17.79,0,0,1,8.37,1.41C253.23,154.46,254.37,154.26,254.27,155.07Zm1.4-4.13c.53.95,0,1.79-.61,2.49-.42.49-.76-.05-1-.33-4.77-5.28-10.81-5.45-17.18-4.35-4.65.8-8.71,3-12.75,5.25-3.62,2.37-7.28,4.63-11.8,4.83-.26,0-.74,0-.81.51v0h0a7.17,7.17,0,0,0,4.1-.25,31.17,31.17,0,0,0,7.86-3.74c4.53-2.73,9.14-5.29,14.51-6,5.09-.67,10.06-.71,14.2,3.07-.24.44-.62.32-1,.2-4.62-1.62-9.09-.76-13.54.8a107.87,107.87,0,0,0-11.22,4.81c-4.75,2.3-9.62,4-15,4h0c-5.6.07-10.89-1.37-16.57-3.45a47.5,47.5,0,0,1,11.42.48,6.27,6.27,0,0,0,3.43.36c.4,0,.87.3,1.09-.3a1.22,1.22,0,0,0,.33,0c-.2-.77-1-.28-1.42-.67l.91-.42h0c.48,0,1-.07,1.44-.13a28.29,28.29,0,0,0,11.35-4.58,78.36,78.36,0,0,1,10.1-7.05A25.58,25.58,0,0,1,241.1,144h0a18,18,0,0,1,12.15,4.2A10.21,10.21,0,0,1,255.67,150.94Zm-.16-2.45c.06.09-.07.3-.13.52-4.3-4-9.12-6.33-15.09-5.46-4.59.29-8.25,2.7-11.86,5.2-2,1.38-3.89,2.93-5.86,4.35a26.68,26.68,0,0,1-12.73,4.64,13.6,13.6,0,0,0-3.36.34c-.34-1.07.67-.74,1-.88,2.31-.85,4.72-1.48,7-2.42a34.67,34.67,0,0,0,11.14-7.94,28.61,28.61,0,0,0,4.07-3.05c6.22-4.79,12.82-5.2,19.85-1.91C252.54,143.27,253.91,146,255.51,148.49Zm-39.44,4.9-.31-.47,1.64-1,.47-.66a18.55,18.55,0,0,0,1.82-1.47c2.7-2.77,5.4-5.54,8-8.38a20.2,20.2,0,0,1,7.41-5c.53.81-.37.88-.67,1.16a25.12,25.12,0,0,0-3.94,3.91c-1.71,1.7-3.7,3.11-5.22,5a60.39,60.39,0,0,1-7.5,5.94A3.17,3.17,0,0,1,216.07,153.39Zm37.35-10a20,20,0,0,0-11-4.47,17,17,0,0,0-9.95,2c.09-1.48,1.5-1.85,2.32-2.71a26.26,26.26,0,0,1,2.05-1.72C241.75,133.07,251.91,135.84,253.42,143.4Zm-.67-6.39c-.1,1.35-.51,1.44-1.48.65-5.06-4.11-10.62-4.18-16.46-2a4.46,4.46,0,0,1-2.37.92c.61-.7,1-1.24,1.66-1.38,4.5-3.44,9.37-4.91,15-3.24C252,132.75,253,134,252.75,137Zm-1-5.59c-.42.7-1,0-1.43-.1-5.16-1.52-10-1.3-14.65,1.85-7.09,4.82-12.59,11.22-18.19,17.54-3.84,3.94-8.84,5.45-14,6.68a79,79,0,0,1-13.93.35,22.2,22.2,0,0,0-3.24.25c-.41-.05-.86,0-1.06-.52l6.42-1.92c2.58-.42,5.14-.92,7.73-1.25a36.47,36.47,0,0,0,23-11.93c2.21-2.44,4.3-5,6.66-7.27,4.91-4.76,10.54-7.91,17.72-6.62,1.49.27,3.17.19,4.4,1.36C251.63,130.25,252.13,130.8,251.75,131.42ZM194.36,154l2.68-.89c.09-.07.17-.19.27-.21,7-1.58,13.4-4.27,18.64-9.36,3.66-3.56,7.21-7.23,11.07-10.59a26,26,0,0,1,11.78-6.27,10.83,10.83,0,0,1,6.52.49c-.32.16-.41.24-.5.24a10.1,10.1,0,0,1-1.1,0c-3.74-.2-7,1.15-10.13,3-4.5,2.68-7.68,6.68-11.06,10.5-4.83,5.45-10.54,9.54-17.66,11.39-2.2.57-4.47.88-6.71,1.32A5.75,5.75,0,0,1,194.36,154ZM250,126.27c.05,1.7-.91,1.6-2,1-5.77-3-11.21-1.71-16.47,1.31-4.11,2.36-7.45,5.68-10.73,9-5.29,5.35-10.58,10.63-18,12.92-2.89.88-5.76,1.82-8.63,2.74a3.87,3.87,0,0,1-2.21.7,4.79,4.79,0,0,1,1.77-1.22l.61-.57h0a12.8,12.8,0,0,0,4.18-2.57c3.33-2,6.65-4,10-6,6.25-3.73,12-8.08,16.49-13.89a20.28,20.28,0,0,1,3.64-3.82c4.92-3.74,10.17-6.2,16.58-4.26C247.65,122.37,249.5,123.6,250,126.27Zm-2.4-4.78a36.92,36.92,0,0,0-4.58-1.14c-6.73-.82-12,2.13-16.65,6.63-2.7,2.63-4.8,5.8-7.64,8.33-5.49,4.9-11.95,8.35-18.1,12.26-.28.17-.6.53-.86,0,1.65-1.53,3-3.39,4.92-4.63A47.07,47.07,0,0,0,219.17,132c1.7-1.83,3.38-3.68,5-5.6,5.27-6.33,12.26-8.15,20.12-7.77C245.4,119.54,247.18,119.75,247.63,121.49Zm.73-1.66c-8.05-5.55-15.55-5.54-23.7-.11-6.52,4.35-11.74,10-16.4,16.2a4.16,4.16,0,0,1-2.27,2c1.41-2.8,2.69-5.3,3.93-7.82a33.77,33.77,0,0,1,11.9-13.56c6.38-4.21,13.15-6,20.54-2.6C244.9,115.14,247.87,118,248.36,119.83Zm.87-1.46c-4.36-5.49-9.77-7.65-16.07-7.15-6.1.48-11.24,3.42-15.94,7.24,3.27-5.11,7.43-9.1,13.32-11,6.79-2.18,13-.1,17,5.73A9.92,9.92,0,0,1,249.23,118.37Zm1.28-1.11c-3-10-11.9-13.59-21.33-10.77a18.22,18.22,0,0,1,5.87-3.64c4.74-1.87,9.28-1,13.45,1.49S253.43,111.81,250.51,117.26Zm2.93-6.22a9.15,9.15,0,0,0-5.32-8.22c-5.5-2.64-11-2.86-16.36.47A54,54,0,0,0,219,113.85a5.94,5.94,0,0,1-1.91,2.14,7.66,7.66,0,0,1,1.6-2.92c4.29-5.95,9.42-11,16-14.4a15.26,15.26,0,0,1,17.58,2.72C254.91,104,255.48,108.21,253.44,111Zm2.13-2.67c.57-4.41-1.47-7.43-5-9.6-5.52-3.38-11.18-3.78-17-.66-6,3.24-10.59,8.09-15,13.12l-1.84,3.45c-.31-1.71.79-2.9,1.54-4.23C222,103.05,227.1,97.11,235,94A32.73,32.73,0,0,1,240,92.87h1l4,.4c4.62,1.39,8.74,3.56,11.66,7.57C258,104.42,257.63,106.92,255.57,108.37ZM247.3,76.69c.14-.13.31-.21.45,0a29.63,29.63,0,0,1-6.24,7.11h0c-1.32-.24-2.7-.14-3.95-.76A40.27,40.27,0,0,0,247.3,76.69Zm-29.43,26a9.7,9.7,0,0,1,1.43-2.79,55.31,55.31,0,0,1,4.3-7.8c3.9-5.89,9.21-8.79,16.39-7.72,2.53.87,5.15,1.59,7.28,3.35h0l3.36,3.7c-4.25-1.93-8.76-2.19-13.23-2.57a15.45,15.45,0,0,0-9.53,2.5c-3.72,2.29-5.9,5.88-8.29,9.32l-1.34,2.42-.37-.41Zm-3,11.43c-.09-.9.94-1.49.68-2.44,1.6-6.75,5.23-12.4,9.86-17.37a13.94,13.94,0,0,1,11.95-4.67c2.24.22,4.47.43,6.68.8a17.5,17.5,0,0,1,11.6,6.86,4.22,4.22,0,0,1,1.2,2.45l-1.74-2a24.38,24.38,0,0,0-6.76-4.15,16.83,16.83,0,0,0-9.53-1.19c-6.38.72-11.1,4.35-15.23,8.87a46.07,46.07,0,0,0-8.47,14.38h0L214,118.79h0c-.36.09-.18.76-.71.66h0l1.14-4.61ZM118.11,80.25h0c.69,4.18,1.39,8.36,3.83,12a10.32,10.32,0,0,1,1.66,2.81c1.74,2.25,3.06,4.83,5.16,6.81h0c6.05,6.71,13.52,11.34,21.82,14.69a131.67,131.67,0,0,0,13.47,4.13,42,42,0,0,1,7.41,2c.66.69,1.73.57,2.69,1.38l-9.57-2.41h0c-.58-.26-1.3-.06-1.78-.58l-1-.19c-2.39-.31-4.82-.38-7.18-.92l-.51-.11a23.36,23.36,0,0,1-12-4.43c-4.37-3.07-8.83-6-12.58-9.87-2.79-2.84-4.43-6.43-6.34-9.83C120.49,90.9,117.42,86.19,118.11,80.25ZM129,105.94c6.39,6,13,11.79,21.77,14.07,4.23,1.11,8.71.91,13,1.93h0c1.3.65,2.78.66,4.1,1.17s2.78.15,3.75,1.35c-1.15-.32-2.28.13-3.42.12-4.95-.06-9.83-.8-14.74-1.22a26.4,26.4,0,0,1-14.2-5.69,76.39,76.39,0,0,1-18.72-21.47c-1.12-2.76-2.64-5.39-3-8.44-.06-.58-.5-1.26.27-1.72,1.16,4.08,3.36,7.67,5.31,11.38C124.79,100.5,126.38,103.58,129,105.94ZM114.45,91.47a6.74,6.74,0,0,0-.13-2.49,20.66,20.66,0,0,1,2.15-5.11c.49.71.21,1.42.36,2a22,22,0,0,0,3.22,10.71c2.81,6,7.34,10.7,11.68,15.54a49.45,49.45,0,0,0,8.12,7,24.67,24.67,0,0,0,11.92,4.71c6.29.69,12.56,1.59,18.92,1.38.56,0,1.22.28,1.68-.33,3.14.48,6.36.16,9.49,1.11l-1.57.43c-3.93.3-7.86.63-11.79.91a60.73,60.73,0,0,1-26.11-4,91.72,91.72,0,0,1-12.78-8.4,18.73,18.73,0,0,1-3.94-4c-2-2.69-4.09-5.29-6-8a35.31,35.31,0,0,1-5-10.67A.92.92,0,0,0,114.45,91.47Zm-.27,1.65c.82,4.74,3.36,8.64,6.12,12.42,1.57,2.15,3.25,4.22,4.88,6.33a18.83,18.83,0,0,0,4.3,4.15c3.93,2.72,7.68,5.73,12.08,7.71a49.92,49.92,0,0,0,17.55,4.33,72,72,0,0,0,16.13-.52,6,6,0,0,1,1.27,0c1-.28,1.92-.65,2.91-.09-.73.25-1.41.72-2.24.49-5.69,1.65-11.39,3-17.43,2.63a61.64,61.64,0,0,1-33.26-12.17c-.82-.8-1.6-1.66-2.48-2.39a25.39,25.39,0,0,1-8.31-12.83c-.61-2.16-1.27-4.32-1.7-6.52C113.78,95.54,113.2,94.26,114.18,93.12Zm-.09,7.3A30.07,30.07,0,0,0,126,118.79c.5.44,1,.89,1.49,1.32,4.49,3.72,9.84,5.76,15.18,7.8a51,51,0,0,0,32.22,1.66c3.94-1.06,7.63-2.89,11.66-3.61l4.46-1.69.13.28-1.59,1.4a5.51,5.51,0,0,0-2.3.44c-1.31.86-2.81,1.41-3.95,2.54A37.71,37.71,0,0,1,166,133.84c-5.41.06-10.61-1.47-15.94-2l-.4.34,11.73,2.22c.31.06.67.05.79.41L162,135l-4.29.63h0a90.93,90.93,0,0,1-23-6c-5.36-2.17-9.14-6.28-12.74-10.58-.82-.41-1.17-1.24-1.68-1.91,1.21,0,1.63,1.08,2.36,1.73,3.9,3.67,8.05,7,13.06,9l.71-.25c-5.3-2.35-9.73-5.94-13.92-9.86-.67-.62-1.38-1.19-2.07-1.78C114.36,112.44,113.88,106.58,114.09,100.42Zm3,14.38a8,8,0,0,1,2.69,3c.59.69,1.2,1.38,1.76,2.09A35.11,35.11,0,0,0,141,132.76c3.24.8,6.5,1.56,9.72,2.43.29.07,1.49-.39,1,.82-2.42-.09-4.84-.25-7.27-.26-8.4,0-14.78-4-20.08-10.14-.23-.28-.47-.55-.71-.82l-4.17-6.31A11.65,11.65,0,0,1,117.12,114.8Zm1.33,5c-.19-.54-.85-1.1-.15-1.74l4.8,7.1a20.44,20.44,0,0,0,6.59,6.59,34.23,34.23,0,0,0,8.85,4.46c2.54.62,5.14.08,7.69.44a77.85,77.85,0,0,0,10-.17c2.6-.34,5.29-.26,7.76-1.34h0l2.92-.11c1.11.64,0,.61-.25.69-2.45.76-4.92,1.49-7.38,2.23.07.43.45.37.73.48a66.28,66.28,0,0,0,10.27-3.36,45.71,45.71,0,0,0,8.27-2.94l5.09-2.75a16.12,16.12,0,0,1,1.82-1.08c.65-.28,1-1.28,2-.79h0L182,131.23h0l-.16.06c-.89.37-1.5,1.3-2.57,1.31a21.56,21.56,0,0,1-1.76,1.25c-7.54,4.37-15.58,7.1-24.39,7a47.77,47.77,0,0,1-27.65-8.91C122.81,128.07,120.07,124.27,118.45,119.83Zm62.7,12.6c-.42,1.2-1.54,1.65-2.48,2.3-2.17,2.07-4.95,3.2-7.44,4.78-.84.36-1.68.71-2.51,1.09a47.78,47.78,0,0,1-16.3,4.35c-9.09.64-16.33-3.4-23-8.93-.76-.35-1.65-.56-1.69-1.65.66.51,1.56.63,2.11,1.31a52.44,52.44,0,0,0,12.57,4.68c12.84,3.07,24.74.52,35.95-6.08C179.08,133.36,180.21,133,181.15,132.43ZM135,143.52c-3.45-2.36-6.74-4.88-9.07-9l8.22,5.93a26.2,26.2,0,0,0,9.53,4.42c10,2.33,19.13-.42,27.91-5h0c4.57-1.78,8-5.27,11.93-8,1-.68,1.81-1.65,3.09-1.85-1.29,1.45-2.57,2.91-3.87,4.34C171.61,146.6,150.21,152.3,135,143.52Zm16.56,6.4a9.34,9.34,0,0,1-3.56-1.2,2.25,2.25,0,0,1,1.69-.22,43.44,43.44,0,0,0,31.43-11.33c3.24-2.88,5.79-6.41,8.91-9.4a5.24,5.24,0,0,1,2-1.93,4.41,4.41,0,0,1-1.57,2.45c-3.74,5.33-7.51,10.63-12.57,14.85C170.17,149.58,161.49,152.21,151.55,149.92ZM166,154.34c1.87-.42,3.54-.67,5.13-1.17,5.81-1.82,10.53-5.36,14.79-9.59,1.91-2.55,3.48-5.31,5.16-8h0l1.7-3.41c1.76-3.52,3.48-7.08,6.64-9.64l1.6-1.3c0,.89-.65,1.28-1.23,1.75h0a3.9,3.9,0,0,0-.78.73c-2.57,4.21-5.11,8.44-7.66,12.66A66.41,66.41,0,0,1,186.3,144h0a18.22,18.22,0,0,1-5,5.3,43.59,43.59,0,0,1-11.6,5.38A6.13,6.13,0,0,1,166,154.34Zm12.17.18a11.8,11.8,0,0,1-4.44.72,1,1,0,0,1-.44.1l.44-.1-2-.2a40.93,40.93,0,0,0,9.85-5.28c3.37-2.08,5.35-5.39,7.43-8.58,3-4.63,5.91-9.31,8.62-14.11a21.64,21.64,0,0,1,8.66-8.62c.43-.23.88-.91,1.51-.26a.29.29,0,0,0-.28.38c-6,5.8-11.27,12.15-15,19.72-2.2,3-4.38,6.07-6.6,9.08A25.68,25.68,0,0,1,178.18,154.52Zm2.88-.19-.09,0c-.14-.19-1.2.14-.36-.61,1-.88,2.09-1.66,3-2.59,2.68-2.6,4.48-5.88,6.71-8.82.51-.66.76-1.62,1.76-1.82-1.77,6.14-4.66,11.37-11,13.8Zm7.66-2c-.05-.09-.18-.24-.16-.28,4.92-6.45,7.33-14.28,11.51-21.14q1.32-2.16,2.66-4.32c0-.39.78-.72.08-1.16-3.86,5.33-6.54,11.32-9.48,17.16l-1,2a21.23,21.23,0,0,1-5.85,8.67,14.15,14.15,0,0,1-3.6,1.76c-.12-.13-.23-.26-.35-.38a18.91,18.91,0,0,0,5.61-4.19c1.87-2,2.83-4.58,4-7h0A45.67,45.67,0,0,1,202.44,125a19.25,19.25,0,0,1,4.59-4.36q-2,3.16-4,6.33a69.2,69.2,0,0,0-4.89,11.57C196.46,144.1,194,149.22,188.72,152.34Zm7.25-5.89Zm11-18.37c-2.38,7-5.7,13.55-10.83,19l-.21-.64a25.57,25.57,0,0,0,4-7.24c1.67-4.2,4.86-7.49,6.8-11.52,0,0,.15,0,.16,0A1.69,1.69,0,0,1,207,128.08Zm2.71-8.89-1.18,3.42c-.36.27-.38.69-.48,1.08-2.11,4.84-5.38,9-8,13.56a27.41,27.41,0,0,1-1.48,3.47c-.27.47-.16-.24-.31-.34l1.32-3.62a1.94,1.94,0,0,1,.24-.64,36.7,36.7,0,0,1,2.12-5.21c1.74-4.08,4.56-7.55,6.5-11.52l.86-1.07a4.66,4.66,0,0,1,2-2Zm1.54-4.72c-.55,1.35-1.64,1.71-2.48,2.34-.93-.08-1.61,1.09-2.63.5A25,25,0,0,1,211.26,114.47Zm-6,1.69a3.77,3.77,0,0,1,2.3-.84,7.33,7.33,0,0,1-2.08,1.48h0c-1.9,1.42-3.76,2.89-5.69,4.26-4.11,2.9-6.19,7.24-8.31,11.55-3,6.17-6.59,11.87-12.6,15.7-6.48,4.13-13.2,6.72-21,4.16a4.54,4.54,0,0,1-2.43-.8c0-.16.06-.32.08-.49l4.62.47a32.23,32.23,0,0,0,17.32-7c6.45-5.1,11.12-11.7,15.53-18.46A24.88,24.88,0,0,1,205.23,116.16Zm-6.43,2c-2,1.08-3.34,3.06-5.54,3.77a12.85,12.85,0,0,1-9,2.77,6.79,6.79,0,0,1-3.79-.11c-.06-1-.82-.67-1.36-.75-1.71-.25-3.49-.18-5.3-1.11l2.14-.21a2.12,2.12,0,0,0,.71-.07,52.22,52.22,0,0,0,19.51-3.85A4.24,4.24,0,0,1,198.8,118.21Zm-52.53-11c4.78,1.4,9.17,3.93,14,5,6.4,1.41,12.71,3.18,19.17,4.27a150.35,150.35,0,0,0,15,1.63,10.72,10.72,0,0,1-5.94,1.8c-5.94-.4-11.94-.48-17.56-2.87a56.59,56.59,0,0,0-9.56-3.06,61.24,61.24,0,0,1-17-6.87C145.08,106.51,145.67,107,146.27,107.16ZM123.08,88.5a41.92,41.92,0,0,0,7,8.61A64.45,64.45,0,0,0,158,113.79c5,1.4,10,2.77,14.78,4.64a22.36,22.36,0,0,0,6.57,1.46c1.95.14,3.89.38,5.84.57,0,.15,0,.3,0,.45-.68.11-1.36.25-2,.35a51.36,51.36,0,0,1-19.68-1.56c-12.93-3.29-24.72-8.51-34.16-18.24-2-2.86-4.13-5.7-6.13-8.6-3.79-5.48-5.28-11.41-3.32-18h0c.52-.77,1-1.55,1.54-2.33A19.18,19.18,0,0,0,123.08,88.5Z" transform="translate(-96.02 -20.94)"/><path class="cls-3" d="M149.79,131.79l.23.06A.6.6,0,0,0,149.79,131.79Z" transform="translate(-96.02 -20.94)"/></g></g></g></svg>