<svg xmlns="http://www.w3.org/2000/svg" xmlns:xlink="http://www.w3.org/1999/xlink" viewBox="0 0 594.75 507.34"><defs><style>.cls-1{fill:none;}.cls-2{clip-path:url(#clip-path);}.cls-3{fill:#a18978;}</style><clipPath id="clip-path" transform="translate(-96.37 -26.77)"><rect class="cls-1" width="485.92" height="363.29"/></clipPath></defs><g id="圖層_2" data-name="圖層 2"><g id="飄移"><g class="cls-2"><path class="cls-3" d="M586.56,526.67c-7.07-7.35-11.66-15.82-12.36-26.17a28.68,28.68,0,0,0-.55-3.14c0-.24,0-.48-.07-.73-.72-7.71-4.57-14.36-7.74-21.68,1.87.74,2.29,2.26,3.15,3.33s1.83,2.46,2.74,3.69c4.83,5.5,6.37,12.31,7.63,19.23,1.95,10.66,6.87,19.64,15.3,26.56,1,.85,1.85,2.23,4.81,1.69-14.54-9.49-18.31-23.9-21-39.4l.2-.09,2.56,3.35c4,8.83,6.83,18.26,13.15,25.91a16.65,16.65,0,0,0,6.77,5c.56.22,1.17.39,1.47-.39s-.3-.75-.71-.93c-5.87-2.54-8.89-7.68-11.55-13-1.83-3.66-3.19-7.54-4.89-11.61a28.37,28.37,0,0,1,6,6.91c2.91,4.2,5.81,8.39,9.56,11.9a32.42,32.42,0,0,0,3.06,2.41c.55.41,1.25,1,1.83.18s-.22-1.18-.79-1.56c-6.6-4.42-10-11.59-15.09-17.35-.69-.79.11-.9.63-1.08,5.62,3.21,9.66,8.42,15.13,11.82a11.61,11.61,0,0,0,5.85,2.21c-1.86-2.19-4.17-2.54-5.32-4.5a.94.94,0,0,1,.12-.18c2.63-.73,5.14,1.74,8.2-.29-3.88-.95-7.27-1.57-10.88-3.39v-.07c4.84-1,9.42,2,14.34-.86-2.44-.49-4.12.25-5.82-.75,2.73-2.13,6.77-1.27,9.61-4.65-8.41,1.66-16,6.85-24.34.74,10.74-.5,20.6-3,29.6-8.44-5.34,1.69-10.65,3.47-16,5-4.7,1.37-9.59,1.58-14.45,1.89a13,13,0,0,1-7.42-2.14c.34-1.19-3.93-.58-1.07-2.75,8.9,2.15,17.7.82,26.43-1,4.75-1,9.38-2.61,14.06-4,1.13-.33,2.32-.68,2.51-2.45-9.07,2.9-18,5.68-27.47,6.59a65.82,65.82,0,0,1-17.73-.72,12.08,12.08,0,0,1-8.5-6.1c10.64,4.3,21.51,3.73,32.41,2s21.14-4.55,29.59-11.94c-5.24,2.61-10.42,5.45-16.09,7.1-12.76,3.72-25.66,6.1-39,3.15a25.73,25.73,0,0,1-12.88-6.49c-.29-1.2.1-1.46,1.23-1,19.65,8,38.16,2.89,56.42-5,13.95-6,24-16.77,33.56-28a2.7,2.7,0,0,0,1-2.59c-1.54,1.63-2.78,3-4.07,4.3-7.31,7.45-14.28,15.4-23.21,20.9-15.13,9.33-31.82,13.4-49.6,12.78-5.44-.2-10.46-2.13-15.31-4.41a8.57,8.57,0,0,1-4.38-3.86c.55,0,.87-.07,1.08,0,10.88,5.72,22.16,6.2,33.89,3.05,13.85-3.7,26.31-10.19,38.15-18.05a23.27,23.27,0,0,0,2.62-2.36c5.86-4.32,10.33-10.07,15.56-15.05a101.55,101.55,0,0,1,18.75-14.62,5.65,5.65,0,0,0,2.74-3.38A75.86,75.86,0,0,0,659.53,437q-9.21,9.14-18.38,18.29c-8.54,5.82-17.32,11.26-27,14.95-10.09,3.86-20.32,7.38-31.45,5.58-8.23-1.33-15.86-3.9-21.48-10.54a1.11,1.11,0,0,0-1.21-.47c2.64,6.09,5.24,12.19,7.92,18.26a111.85,111.85,0,0,1,4.16,12.47c.48,13,5,24.27,14.53,33.32.62.59,1.74.94,1.47,2.24-3.15,0-5.65-1.57-8.07-3.31-1.22-1.28-2.39-2.61-3.66-3.84-7.27-7-10.9-15.62-11.49-25.68a95.49,95.49,0,0,0-5.32-27.52c-.07-2-1-3.75-1.67-5.6-.36-1.09.14-1.13,1-1l1.11.44c1.23-1.18,2-.13,3,.48,9,5.7,18.56,9.31,29.38,6.33,6.56-1.81,12.46-5.19,18.23-8.73h0c8.84-4.26,16.53-10.24,24.35-16.05,13.44-10,26.86-20,40.41-29.84,3.72-2.71,7.72-5.17,12.62-5.29,1.77-.05,1.95-1.7,3.18-3.16-8.72-.36-16.86-2.32-25.18-1.26-3.41.44-6.06-.88-8.81-2.77a48.77,48.77,0,0,1-11.09-9.86c-3.87-4.5-3.62-9.76-2.78-15.11q2.6-16.49,5.22-33c.29-2.12-.56-4.31.35-6.4-.1-29.21-14-50-39.18-63.72-4.15-2.25-8.76-3.67-13.16-5.48-1.54-.63-3.09-1.22-4.61-1.9-.47-.21-.71-.67.15-.74a2.9,2.9,0,0,1,.7.14c.12-.32.25-.64.37-.95l-7.55-1.73c-6.9-2.53-14.15-4.4-20.6-7.79s-13.18-5.22-20-7.09c-12-3.31-24.17-3-36.35-.81a57.21,57.21,0,0,1-18.82-.77c-8.26-2.39-15.37-7-22.58-11.5a22,22,0,0,1-3.18-2.81c-7.49-9.78-17.82-13.34-29.64-13.64-9.73-.24-19.45-.32-29.06,1.7a34.88,34.88,0,0,0-8,3c-2.4,0-3.72-1.75-5.25-3.19-2.49-2.36-5-4.68-7.53-7-1.3-2.56-5-2.47-6-5.37-1.54-1.78-3.16-3.51-4.6-5.37-7.06-9-11.06-19.69-15.52-30.09h0c-3.82-13.43-7.69-26.84-11.44-40.29a111.64,111.64,0,0,1-3.21-18.89c-.63-6.24-1.52-12.44-3.84-18.34a35.43,35.43,0,0,1,0-7.06,121.29,121.29,0,0,1,12.6-42.91c6.5-9.51,15.52-15.12,26.75-17.34l.54.36c-.16.15-.29.36-.48.45a54.17,54.17,0,0,0-23.64,21.47c-8.91,14.83-11.17,31.55-9.56,48.41,1.14,11.85,4.44,23.5,6.77,35.24.66,6,2.37,11.81,3.81,17.66,4.72,19.13,10.73,37.78,21.65,54.46l0,0h0a.16.16,0,0,1,0-.07c.5-.82-.17-1.55-.21-2.33-12-20.37-18.79-42.59-23.07-65.69-.11-.57-.32-1.12-.48-1.68-1.47-10.48-3.91-20.77-5.9-31.15A80.88,80.88,0,0,1,356,55.45c4.44-9.11,12-15.85,20.24-21.72,3.3-2.36,6.82-1.08,10.2.2l4.26,2.87c.42.45.82.91,1.21,1.39L393,36.54l-4.55-3.25-1.61-.52c-.52-.55-1-1.13-1.5-1.7L380,27.23h0l-2.41-.46.57.47a.53.53,0,0,1,0,.12,1.53,1.53,0,0,1-.16.34l-5.3-.3-1.12.52c-3-.41-5.43,2-8.41,1.75-2.14-1.81-4.15,1-6.26.16a12.1,12.1,0,0,1-5.42.12l-7.34.75c-.54.58-1.24.45-1.91.44h-.09l-.84-.11h0c-2.08-.18-3.62,1.39-5.54,1.71-6.68,4-13.4,7.9-20,11.94-7.52,4.58-14.13,10.15-18.65,17.88C289,69,284.21,77.89,279.5,86.78c-.81,1.53-1.23,3.4-3.3,3.84-1.31.16-.67,1.6-1.4,2.13-3.82,3.67-5.13,8.64-6.62,13.43a32,32,0,0,0-1.52,11.56,25.49,25.49,0,0,0,.28,10.23c2,8,2.31,16.24,3.31,24.35.85,6.8,1.64,13.57,2.94,20.32a80.27,80.27,0,0,0,12.56,29.88c.3,4.41,3.21,7.18,6.24,9.87,7.41,6.59,14.83,13,24.82,15.67,16.9,4.47,33.71,4.09,50.57.07,7.63-1.38,15.24-2.93,23.06-1.78-.37,1.78-2,1.36-3.1,1.6-4,.89-8.07,1.58-12.11,2.34-10.81.81-21.5,2.71-32.43,2.76a104.77,104.77,0,0,1-34.49-5.9,47.29,47.29,0,0,0-8.07-4.22c-2.35-1.58-4.64-3.28-7.08-4.72-9-5.32-13.58-14.34-18.87-22.69-7.49-11.86-10.31-25.43-13.65-38.79a32.9,32.9,0,0,0-2.46-7.41,7.23,7.23,0,0,0-.21-1,36.48,36.48,0,0,0-2.6-7.3l-.54-1.33c-2.7-8.52-8.14-15.3-14.38-21.34C225.9,104.22,208.68,95,188.61,91.63c-12-2-23.54,1.35-35.06,4.18-9.38,2.31-18,6.13-25,12.91-2.88,2.79-6.29,5.18-6.55,9.92-.16,2.81-2.41,4.76-4.5,6.58-.9.79-2.36,1.55-1,3.14a55.69,55.69,0,0,0-8.14,14.1,4.06,4.06,0,0,0-1.22,2.83c-1,3.41-4.34,6.41-1.67,10.46.24.37-.38,1.3-.61,2-2.17,6.41-3.28,13.15-6.7,19.16a11.19,11.19,0,0,0,.1,12.1c-.53,2-1.13,4,.83,5.7,1.18,1,.25,2.32.08,3.51,1.52,4.46,2.79,9.07,4.42,13.42,1.28,3.41,2,6.9,3.07,10.3,1.31,4,3.67,5,7,2.57,18.23-13.51,39-17.84,61.2-17.57,1.19,0,2.38,0,3.56,0,1,0,2-.11,3.74-.21a.75.75,0,0,1,0,.16.4.4,0,0,1,0,.11c-4.87,2.3-9.32,2.94-13.58,3.81-15.58,3.18-29.16,9.85-40.23,21.43a27.15,27.15,0,0,1-7,5.51c-2.62,1.35-4.73.94-6.54-1.46a22.48,22.48,0,0,1-2.56-4.66c-.7-1.6,0-3.56-1.75-5.57-1,4.37.39,7.58,2.51,10.58a57.62,57.62,0,0,1,3.66,6.28c2,3.76,2.72,8.68,7,11-.57,3.21,1.89,4.25,4.09,5.12,2.72,1.07,4.48,3,6.15,5.23.77,1,.22,2,0,3,1.2,4.45,4.32,6.3,8.7,6.43l5.29,3c2.79,0,5.62,1.29,8.35-.29,2.13,2.71,5.18,4.42,7.51,6.85,4.34,4.51,10.06,5.6,15.52,2.52a25.92,25.92,0,0,0,9.36-9.1c2.22-3.56,3.58-7.5,5.07-11.39,3.45-9,6.51-18.14,11.82-26.31,5.83-9,13.9-15.3,23.29-20.43.15,1.35-.72,1.8-1.25,2.34A72.65,72.65,0,0,0,208.85,256a62.4,62.4,0,0,1-6.19,16.66c-3.09,4.05-6.3,8-10.49,11-4.51,3.27-9.53,4.45-16,3.72,7.88,4.47,21.67-3.21,27.64-14.28a36,36,0,0,0,4.73-10.25c2.49-7.5,3.44-15.52,7.65-22.42,10.38-21.74,25.29-31.66,47.81-32.27,1.74-.05,3.53.43,5.23-.35,1.62.25,3.27.43,4.87.78,4.69,1,6.76,4.86,5.14,9.39-3.93,11-10.86,20-18.69,28.34-6.81,7.24-13,14.73-16.42,24.26-5.89,16.3-3.6,26.35,8.89,38.27,4.86,4.64,10,8.68,16.36,11.1,8.93,5.49,18.49,4.91,28.16,2.84,9-1.93,18.13-3.49,27.25-4.91h0c6.44.6,11.69,3.93,16.87,7.41,2.23,1.5,4,3.67,6.74,4.41,8,9.28,17.89,8.84,25.41-.53,3-3.75,6.92-6.77,9.09-11.23.38-.78,1-.84,1.79-.61a3.2,3.2,0,0,0,2.72-.59c5.17-3.66,11.6-6,13.77-12.89.68-2.15,3.66-1.62,4.63-3.56l3.43-2.92c.81.28,1.41,1.34,2.49.6,8-5.49,16.92-3.58,25.54-2.66,5.65.6,10.82.44,15.61-2.83,4.65-2.22,6.49-6.72,8.51-10.93a110.39,110.39,0,0,0,7.44-21.32c1.2-3.19.93-6.49.54-9.76-.18-1.54.18-2,1.67-1.43a52.72,52.72,0,0,0,15.49,3.34c.35,0,.65.56,1,.86,2.81,2.25,6.36,2.91,9.5,4.46a40,40,0,0,1,13.91,10.77c6.81,8.45,13.07,17.11,14.67,28.24a1.53,1.53,0,0,0,0,.41q.75,6.94,1.51,13.9c.24,15.72-2.85,31-5.54,46.4-.26,1.51-.41,3-.61,4.55-1.53,4-1.42,8.44-3.27,12.35-5.91,11.2-10.07,22.74-6.53,35.66,1.86,6.8,5.3,12.58,11.25,16.64a10.59,10.59,0,0,0,1.7,1.77c10.09,6.53,11.37,16.52,10.45,27.19-.25,3-1.53,6-2.56,8.87-5.88,16.45-1.88,30.63,10,42.89a88.05,88.05,0,0,0,48.45,26c2,.37,4.42,2.18,5.89-1.43C591.84,532.46,589.28,529.49,586.56,526.67ZM370.4,204.58c-3.71-2.46-8.36-2.92-11.61-6a25.12,25.12,0,0,1-13.07-12.87,13.42,13.42,0,0,1-3.33-6.62c1.59-1,.39-2,0-3-1.15-3.17-2.91-6.16-3-10.13l2.33,3.47a4.63,4.63,0,0,0,.79,1.17c6.13,11.72,14.7,21.42,24.68,30C368.55,201.63,369.94,202.75,370.4,204.58ZM340.74,104c2,9.51,1.74,19.4,4.41,28.79,3.49,12.3,6.29,24.8,10.41,36.92,3,9.36,7.13,18.27,11.09,27.32-3.53-2.23-6.89-4.77-8.61-8.55-4.81-10.58-10.22-21-11.32-32.86a113.38,113.38,0,0,0-3.58-19.27,119.35,119.35,0,0,1-3.93-35.58C340.76,101.35,340.49,102.82,340.74,104Zm31-75.35h0l5.44.48c-11.15,2.21-19.87,8-25.84,17.71a81.9,81.9,0,0,0-8.35,20c-6.07,20.9-7.6,42.06-2.84,63.4,2.19,9.87,4.46,19.7,5.7,29.74a44.26,44.26,0,0,0,3.58,12.63c1.56,3.49,3,7.06,4.42,10.59l-.74.44c-.84-1.06-1.7-2.1-2.5-3.2-7.73-10.64-12.35-22.53-15.54-35.29-6.33-25.27-8.27-50.39-.29-75.63,3-6.17,6-12.39,9.11-18.51C349.84,39.4,358.66,31.34,371.75,28.65Zm-10.8,2h0c-6.56,5.06-13.09,10.13-17.08,17.69-1,1.87-1.71,3.93-3.29,5.45-2.27,5.09-5.47,9.74-6.94,15.19h0c-5.93,16.63-7,33.75-5,51.13,1,9.14,3.38,18,5.36,27,1.28,4.84,3,9.56,3.41,14.6-.58,1.77.63,3.5.12,5.89l-4.71-18.69h0c-.09-1.23-1.11-2.28-.65-3.6h0l-.65-1.95c-1.68-4.41-3.81-8.64-5.07-13.2q-.15-.49-.27-1a45.67,45.67,0,0,1-3.48-24.69c1.23-10.35,2.17-20.75,5.33-30.77,2.3-7.43,6.94-13.56,11-20C344.84,44.61,350.1,35,361,30.65Zm-10.19,5c-5.94,5.77-10.08,12.87-14.67,19.66-3.79,5.62-7.61,11.2-9.23,17.93-4.45,16.58-8.21,33.29-4,50.47,2,8.29,6.51,15.81,8.71,24.11v0c.09,2.83,1.44,5.38,1.79,8.13.34,2.58,2.31,4.91,1.14,7.7-.5-2.28-2.33-3.79-3.37-5.78-4.47-8.55-7.72-17.63-11.55-26.47a51.55,51.55,0,0,1-3.37-29.68,149.28,149.28,0,0,1,19.59-52.08c3.71-4.49,6.83-9.53,11.77-12.9C348.48,36.1,349.24,34.71,350.76,35.62Zm-12.5-.86a13.66,13.66,0,0,0,4.16-2.53c3.52-.61,7-1.38,10.77-1-.76,1.52-2.23,1.68-3.18,2.52-6.64,3.67-11.47,9.14-15.44,15.47-7.71,10.38-11.6,22.51-15.9,34.47a97.42,97.42,0,0,0-4.6,20.48A48.53,48.53,0,0,0,317,129c4.65,11.45,8.92,23.08,15.16,33.81.55,1,.65,2.36,2.12,2.59,2.08,5.84,5.62,11.09,6.88,17.34L339,180.43C334.82,174,330.61,167.5,326.5,161a118.64,118.64,0,0,1-17.34-48.59c-.22-10,1.18-19.88,2.6-29.74A36.68,36.68,0,0,1,315,72.16c2.79-5.9,5.31-11.93,8.24-17.75a69,69,0,0,1,13.68-18.54A1.81,1.81,0,0,0,338.26,34.76Zm-9.39,4.05c1.76-1.45,3.44-3.63,6.3-3-7.38,5.8-11.73,13.79-15.68,22-2.25,4.7-4.25,9.51-6.38,14.26A37.28,37.28,0,0,0,310,83.34c-1,9.28-2.74,18.51-2.06,27.91a97.25,97.25,0,0,0,8.8,34.18c4.46,9.55,9.32,18.9,15.84,27.27a12.63,12.63,0,0,1,1.12,2.2c1.37,1.4,2.9,2.71,2.86,4.93-1.12-1-2.56-1.75-2.93-3.4-8.11-8.26-15.75-16.8-20.65-27.54A120.3,120.3,0,0,1,303,80.43c.62-2.16,1.37-4.3,1.82-6.49a49.66,49.66,0,0,1,14.36-26.16C322.38,44.72,325.48,41.58,328.87,38.81Zm-6.34,3.62A58.67,58.67,0,0,0,302,79.88c-.3,1.26-.64,2.52-.89,3.79-2.25,11.16-.81,22.24.63,33.33a99.54,99.54,0,0,0,27,56.94c5.47,5.8,12,10.44,17,16.71l7,6.11-.37.48-3.88-1.44a10.92,10.92,0,0,0-2.89-3.55c-2.69-1.46-5-3.53-8-4.44-10.33-6.32-18.25-15-24.49-25.24-5.11-9.24-7.3-19.6-11.33-29.25l-1-.38q3.52,11.12,7,22.23c.19.6.55,1.2,0,1.74l-.35-.1Q305,153.4,302.46,150l0,0a178.61,178.61,0,0,1-11.07-45c-1.23-11.23,2.34-21.53,6.41-31.71-.06-1.79,1-3.15,1.72-4.66,1.13,2.07-.34,3.8-.78,5.66-2.7,10.1-4.52,20.3-3.42,30.82l1.1,1c-.88-11.3,1.2-22.24,4.05-33.08.45-1.72.77-3.47,1.15-5.21C302.12,54,311.74,47.77,322.53,42.43ZM296.12,140c-2.09-4.25-4.05-8.56-6.28-12.73-7.75-14.47-6.82-29.13-1.16-43.93.26-.66.49-1.32.74-2l7-13A22.65,22.65,0,0,1,300.62,61a15.77,15.77,0,0,1-2.73,7.44c-.66,1.66-1.27,3.33-2,5-6.3,14.64-8.08,29.68-4.09,45.25,1.62,6.32,3.33,12.62,4.83,19C296.79,138.14,298.7,139.78,296.12,140ZM293.19,67.9c.75-.84,1.11-2.49,2.86-1.87l-7.77,14.82c-3.31,5.34-4.6,11.32-5.23,17.43a67.55,67.55,0,0,0,.53,19.36c1.28,4.94,4.63,8.92,6.37,13.64,3.12,5.74,5.74,11.77,9.57,17.07,3,4.16,5.34,8.85,9.5,12.1l0,0,2.9,4.9c-.09,2.51-1,.63-1.43.22-3.58-3.51-7.12-7.08-10.67-10.62-.67.51-.21,1.11-.14,1.69,4.89,5.06,9.59,10.32,15.27,14.55,4.08,4,7.92,8.3,12.73,11.51l9.46,6.2a32,32,0,0,1,3.52,2.13c1.09.85,3.17.58,3.2,2.69h0l-11.41-6h0l-.26-.22c-1.45-1.2-3.62-1.38-4.63-3.2-1.26-.62-2.57-1.15-3.76-1.88-14.52-8.92-26.66-20.21-34.56-35.5-9.06-17.51-12.82-36.1-10.3-55.8C283.05,83,287.06,74.8,293.19,67.9Zm36.42,119.49c-2.46.39-4.27-1.13-6.25-2.13-5.58-1.83-10.1-5.56-15.12-8.38-1.4-1.1-2.78-2.21-4.19-3.29-8.84-6.78-16.6-14.54-22.6-24-9.51-15-9.27-31.24-5.95-47.85-.11-1.63-.57-3.35,1.27-4.43-.26,1.61.36,3.27-.29,4.85a102.8,102.8,0,0,0,3.59,25.95c6.61,24.91,22,43,43.75,56.18C326.09,184.69,327.69,186.34,329.61,187.39Zm-61.83-69.11c.86-8.12,2.14-16.11,7.09-24-.94,7.17-1.77,13.4-2.59,19.63a51.71,51.71,0,0,0,1.22,20.5c5.28,19.36,18.45,32.49,34.43,43.38,7.29,6.2,16.46,8.84,24.78,13.1,2.09,1.07,4.51,1.6,6.05,3.6-3.69-.87-7.38-1.71-11.06-2.63C296.39,184.12,266.79,152.59,267.78,118.28Zm3.09,27.17c1.32.64,1.49,1.78,1.95,2.71,10.42,21,26.56,35.54,48.6,43.56,7.95,2.89,16.38,4,24.41,6.6A10.44,10.44,0,0,1,351,200a8.69,8.69,0,0,1-5.68-.43c-12.63-1.49-25.24-3.08-37.18-7.86-18.21-7.29-30.78-19.79-36-39C271.47,150.39,270.56,148.08,270.87,145.45Zm2.7,20.47a8.86,8.86,0,0,1-.87-4.91l.92-.32q1.72,4.19,3.47,8.37a62.85,62.85,0,0,0,28,23.33c14.74,6.39,30.42,8.29,46.13,9.63,11,.93,20.42,4.58,28.65,11.71a7.5,7.5,0,0,1,3.59,3.18c-1.89-.77-3.35-1.17-4.49-2.22h0c-4.2-1.94-8.45-3.77-12.59-5.83-8.79-4.38-18.19-4-27.56-3.6-13.43.5-26.51-.34-38.66-7.12C287.05,190.82,276.37,181.67,273.57,165.92Zm4.34,15.73c2.45,2.82,4.43,5.46,6.76,7.73,8.51,8.3,19,13.15,30.18,16.56,6.15.92,12.35,1.06,18.54,1.45h0l7.43-.22c7.69-.23,15.4-.58,22.73,2.48l3.73,1.54c-1.51.88-2.82.08-4.15-.47h0a7.86,7.86,0,0,0-2-.69c-9.62-.51-19.24-1-28.86-1.44-6-.42-12-.35-17.89-1.59h0a35.93,35.93,0,0,1-13.74-3.7c-7.52-3.85-13.94-9.17-20-15C279.41,186.39,277.93,184.56,277.91,181.65Zm5.6,14.13a2.09,2.09,0,0,1-.58-.68c.19.23.38.46.58.68L282,192.24c5.77,4.63,11.45,9.13,18.2,12,6.71,3.87,14.23,4.22,21.65,4.82,10.73.88,21.47,1.55,32.25,1.77a42.3,42.3,0,0,1,22.84,6.9c.8.53,2.39.68,1.85,2.35a.57.57,0,0,0-.91-.13c-15.54-4.94-31.35-8.12-47.76-7.44-7.25-1-14.5-1.9-21.74-2.92a50.56,50.56,0,0,1-19.57-6.89A23.57,23.57,0,0,1,283.51,195.78Zm8.37,11.76,0,0-.14-.12c.19-.42-1.36-1.94.7-1.18,2.45.9,4.81,2.05,7.28,2.83,6.95,2.2,14.25,2.25,21.38,3.37,1.61.26,3.49-.19,4.76,1.35C313.63,216.4,302,216.27,291.88,207.54Zm10.49,11.31c.11-.18.25-.55.33-.53,15.66,2.48,31.35-.62,47,.21l9.9.56c.64-.42,2,.68,2.07-.93-12.75-1.7-25.52-.75-38.29-.4-1.42,0-2.84.11-4.25.16a41.52,41.52,0,0,1-20.34-2,28,28,0,0,1-6.36-4.56c.12-.32.23-.64.34-1a36.45,36.45,0,0,0,12.39,5.76c5.24,1.33,10.5.63,15.75.32h0a89.62,89.62,0,0,1,41.2.66A38.35,38.35,0,0,1,373.87,221l-14.58-1a136.16,136.16,0,0,0-24.42,2.29C323.7,224.52,312.66,225.1,302.37,218.85Zm16.84,7Zm41.82,2c-14.31,2.44-28.58,2.75-42.75-1,.3-.31.6-.63.91-.94,5.36,1.13,10.76.75,16.13.12,8.76-1,17.37,1.42,26.1,1,0,0,.14.24.1.29A3.94,3.94,0,0,1,361,227.83Zm17.8-3.56-7,1.13a3.4,3.4,0,0,0-2.31.16c-10.27.87-20.45-.9-30.69-1.12a53.71,53.71,0,0,1-7.34.68c-1,0,.28-.51.3-.85l7.45-1.09a3.84,3.84,0,0,1,1.31-.19c3.59-.87,7.28-.84,10.94-1.18,8.62-.78,17.21.85,25.83.52l2.63.48a9.15,9.15,0,0,1,5.25,1.54Zm3.22-3.84c-.72-1.66-3.36-1.75-3.29-4.06,3.19,1.8,6.52,3.39,9.6,6.16C385.54,222.83,383.91,221.3,382.05,220.43Zm-252-110.27c.33-1.27,1.5-1.73,2.37-2.46,9.09-7.72,20.41-9.64,31.49-12.43,13.11-3.31,25.88-3,38.49,1.87,4.43,1.69,8.77,3.61,13.15,5.43-.15.4-.3.81-.46,1.21C186.31,99.77,157.58,96.53,130.06,110.16Zm-5.58,8.53a21.69,21.69,0,0,1,10.43-8.8c18.28-7.83,37.34-9.37,56.87-6.66,9.53,3.32,19.15,6.36,28.48,10.24,15.35,6.39,24.5,17.83,28.31,33.84.41,1.73-.63.44-1,.59-9.47-21.11-26.2-33-48.21-38.58-7.46-1.88-15-2.12-22.58-2.73-16.42-1.33-32.24.58-46.79,9.07C128.24,116.69,126.72,118.29,124.48,118.69Zm82.61,18.14c11.1,4.34,19.49,11.95,26.12,21.73,6.53,9.63,13.24,19.12,19.92,28.64.64.91,1,2.18,2.38,2.46l1.92,3c-1.87.92-2.86-.55-3.93-1.54a142.71,142.71,0,0,1-18.11-20.48,151.56,151.56,0,0,0-27.13-28.53,46.42,46.42,0,0,0-12.53-7.4c-15.57-6-31-12.7-48.1-13.13a12.31,12.31,0,0,1-5.74-.49l.61-.15.06,0c2-.5,4-1.05,6.13-.61l4.48-.21C172,123,189.52,130,207.09,136.83Zm-11.51-5.78h0c1.75-.93,1.75-.93,5.78.6l5,1C217,136.36,227,141,234.8,149.44a96.76,96.76,0,0,1,12.59,17.32l.08.13,5.6,13.44c0,.14.07.29.1.43.31,1.42.63,2.91,1.15,5.26-4.3-6.12-8-11.44-11.76-16.71-4.4-6.15-8.73-12.38-13.37-18.35-7.26-9.35-17.53-14.19-28.27-18.24h0ZM257,187.41c-.1-.2-.19-.41-.29-.61-2.88-8.08-5.41-16.3-10-23.67C240,151,230.62,141.49,217.8,135.73a50.12,50.12,0,0,0-11-3.95c-5.62-2-11.51-3-17.3-4.39-10.23-2.94-20.4-6.08-30.87-8.09-1.61-.31-3.22-.91-4.9-.36a41,41,0,0,0-15.23,1.12l-7.62,1.43c.78-1.56,2.42-1.83,3.78-2.43,9.77-4.34,20.1-5.66,30.64-5,17.44,1.16,32.77,8.9,48.52,15.6,15.13,6.43,25.3,17.52,33.72,31,5.06,8.09,8.91,16.73,12.75,25.41v0c1.33,4.48,3.64,8.53,5.76,12.7C261.61,196.08,259.78,191.37,257,187.41Zm-19.73-43.57c-.74-4-3.69-6.51-6.31-9.21-11.37-11.73-25.91-17.12-41.41-20.53a157.93,157.93,0,0,1-16.36-4.8c-.73-.25-1.94,0-1.89-1.41,5.08.37,10.18.64,15.26,1.11,16.14,1.48,30.87,6.58,43.19,17.46,13.38,11.83,19.44,28.1,26.29,43.88a12.39,12.39,0,0,1,.35,2.13C250.5,162.05,244.82,152.32,237.28,143.84ZM123.56,121.71c13.78-9.37,27.92-14.79,44.22-12.86,11.56,4.35,23.61,7,35.43,10.43,9.76,2.84,18,8.22,25.44,15,1.59,1.2,3.54,2.13,3.54,4.56-1-1.23-2.76-1.64-3.55-3.14-11.57-6.89-23.91-12.17-36.44-16.95-21.93-8.36-43.74-9.44-65.07,2.13A4.92,4.92,0,0,1,123.56,121.71Zm12.13,1c7.21.39,14.52-.29,21.61,1.16,16,3.29,31.72,7.7,45.7,16.36,12.14,7.53,21.42,18.34,30,29.63,6.91,9.12,14.07,17.92,23.13,25,.41.32,1.12.61.6,1.38a26.38,26.38,0,0,1-8.83-4.54c-6.91-5.23-12-12.1-17.12-19-6.18-8.28-12.11-16.73-21-22.59a155.84,155.84,0,0,0-43.64-19.85c-10.45-3-21-5-32-3.45a126.92,126.92,0,0,0-16.61,4C122.42,125.48,128.67,123.25,135.69,122.69ZM109.58,143c2.4-6.4,7.1-10,13.58-11.93,9.85-2.86,19.83-4,29.9-2a153.93,153.93,0,0,1,41.32,14.1c12.38,6.38,23.49,14.12,31.51,26,6.41,9.45,13.14,18.77,22.73,25.69-2.72,1.36-4.15-1-6.08-1.4A56.25,56.25,0,0,1,226,174.1c-4.82-9.06-11.87-15.89-20.51-21.25a164.7,164.7,0,0,0-43.08-18.39c-18.59-5.13-36-3.21-51.55,9C110.13,144,109.83,143.54,109.58,143Zm5.1,3.23c-2.84,1.94-5.21,4.57-8,7.09,0-2.86,1.73-4.53,2.76-6.49,11.91-10.81,26-15.3,41.76-13,20.75,3.06,39.71,11.18,57.23,22.67,7.88,5.16,13.26,12.47,17.71,20.58.51.93,1,1.91-.83,1.08-5.47-7-11.17-13.91-18.79-18.79-20.76-13.28-43.37-20.21-68.12-19.7C129.92,139.81,121.78,141.33,114.68,146.18Zm14-3.67c8.7-1.92,17.48-1.54,26.16-.28,26,3.8,49.58,12.65,66.83,33.89,4.64,5.71,9,11.61,14.5,16.92-1.83.53-2.87-.68-4.15-.66-9.86-6.33-18.12-14.58-26.67-22.44-22.87-21-49.58-29.47-80.32-25.06l-.09-.09,0,.1c-3.18,1-6.13,2.79-9.62,2.6C119.5,145.24,123.76,143,128.66,142.51Zm-24.19,23.67c.7-5.33,2.39-10.14,6.46-13.87,15-9.57,31.28-7.8,47.68-5.33,14.72,2.22,27,9.51,38.7,18.06,1.29,1,2.93,1.58,3.7,3.18l23.24,20.39h0c1.66,1.06,3.76,1.6,4.54,3.74-1.71-.8-3.71-1.09-4.9-2.8a25.55,25.55,0,0,1-6.86-4.32c-5.79-4.72-10.65-10.41-16.14-15.43-3.88-2.44-7.74-4.9-11.63-7.3-12.46-7.67-26.46-10.21-40.64-12-16.4-2-30.36,3.23-42.07,14.73C106,165.85,105.49,166.41,104.47,166.18Zm118.29,26.6c-8.21-2.44-15.56-6.34-21.35-12.83-4.31-4.83-8.67-9.61-13-14.4-2-1.26-4.53-1.81-5.13-4.58l5.28,3a79.85,79.85,0,0,1,16.78,12.35c6,6,11.84,12.19,19.73,15.85C224.79,194.23,223.42,193,222.76,192.78ZM99,181.17c-.47-3.08,1.11-5.6,2.78-7.79,10.77-14.21,24.66-22.59,43-21.3A108.73,108.73,0,0,1,175,158.22c9.35,4.87,16.65,12.07,23.16,20.19a49.18,49.18,0,0,0,9.19,8.81l6.18,3.56h0l-.39.9c-2-.88-4.25-1.26-5.85-2.94-6-2.66-10.51-7.29-15.29-11.51a89.59,89.59,0,0,0-18.42-12.75c-23.59-12.07-53.31-3.85-68.88,10.58a36.47,36.47,0,0,0-5,6Zm3.57-1.3c22.81-23.76,57.81-26,83.5-5.32,1.12.89,2.23,1.79,3.29,2.73,7.2,6.38,14.4,12.76,23.68,16.05l2.45.61c.38,1.24,2.84,0,2.5,2.06-1.77-.69-3.79-.45-5.46-1.51-3.6-1.81-7.69-2.28-11.24-4.24-5.09-2.82-10.27-5.48-15.37-8.28-10-5.5-20.22-11.15-31.77-12.13-17.77-1.52-35.17.08-50.54,10.59C102.5,181.17,102.53,180.73,102.54,179.87Zm.4,11.79c-1,.65-2.09,1.79-3.17,1.22s-.25-2.19-.48-3.31v0c2.46-4.51,5.18-8.82,10.12-11,16.08-7.1,32.74-9.69,50.08-6,12.15,2.59,22.48,9.41,33.4,14.86,1.58.79,3.64,1.08,4.24,2.26-1.82-.69-3.68-1.38-5.55-2.07l-.66-.25c-5.66-2.1-11.49-4.25-17.24-6.59-6-2.43-12-4.53-18.58-4.49C136.24,176.36,118.66,180.86,102.94,191.66Zm-.7,10.55a6.17,6.17,0,0,1,1.48-9.19,85.93,85.93,0,0,1,32.41-13.27c14-2.72,27.5-2.74,40.59,4.16,7.65,4,15.81,7.1,23.74,10.6,6.64,1.64,13.11,4.05,20,4.35.57.09,1.26.44,1.68.23,3.54-1.81,7.12-.36,10.66-.12,1.72.11,0,.61-.11.95a67,67,0,0,1-22.59-.79l-10.63-3.31c-7.52-1.49-14.27-5.17-21.46-7.6-12.13-4.1-24.32-6.56-36.93-1.88A168.62,168.62,0,0,0,117.42,197c-3.62,2-7.31,3.94-11,5.81C105,203.57,103.47,203.76,102.24,202.21Zm1.67,5.53c-.48-1.94-.14-2.56,1.85-3.11a32,32,0,0,0,6.75-3.13,201.2,201.2,0,0,1,22.66-11.21c8.56-3.42,17.26-6.18,26.67-4.54a96.79,96.79,0,0,1,22.5,6.58,100.29,100.29,0,0,0,15.46,5.29c2.27.58,4.95.53,6.79,2.49-3.52,1-6.88-1.14-10.38-.52-5.58-1.12-11.14-2.29-16.73-3.33a79.31,79.31,0,0,0-30,.29,117.21,117.21,0,0,0-37.27,14.63C106.24,214.68,105.48,214.14,103.91,207.74ZM173,205.18c-21.25-.07-41.22,4.32-58.9,16.87-4.42,3.14-5.41,2.54-6.56-3-.17-.82-.35-1.63-.49-2.44s-.11-1.56,1-1.93c7.55-2.61,13.94-7.57,21.38-10.49,18.13-7.13,36.54-10,55.74-5,3.27.86,6.6,1.75,10.07,1.48l2.68.49c.2,1.44-1.25,1-1.81,1.61l-1.2.32C187.59,204.1,180.34,205.21,173,205.18Zm-53.55,38.67a2.66,2.66,0,0,1-1.63-2.53c0-.79.54-1,1.15-1,4.31-.62,7.26-3.55,10-6.39,11-11.28,24.23-18.14,39.58-21.23,5.75-1.16,11.43-2.67,17.14-4l.09.45c-2.5,1-5,2.13-7.5,3.11-14.79,5.77-29.14,12.17-40.14,24.33-3,3.31-7.25,5.35-11.47,7C124.32,244.48,121.89,245,119.42,243.85Zm4.31,9.94,0,.09v-.1h0c.34-.65,1.29-1.21.41-2-1.34-1.27-3.62-2.28-2.88-4.43s3.28-1,5-1.62c3.31-1.14,6.11-3.28,10.31-5-2.7,4.18-4.68,7.66-7.09,10.8C128.16,253.15,126.42,255,123.73,253.79Zm2.4,1.83c4.17-1.54,6.3-5,8.31-8.5,7.84-13.78,19.59-23,34-29,7.88-3.31,15.79-6.54,23.69-9.81l.25.07.14-.2a6.27,6.27,0,0,0,1-.17,58.88,58.88,0,0,0,6.8-2.26c10.36-2.32,21-1.55,31.4-2.71-2.2,1.79-4.95,1.65-7.35,2.59-2.12.18-4.24.49-6.35.51-8.48.1-16.31,3.71-24.75,4.38-4.3.34-8.4,3.13-12.61,4.78-14.07,5.5-25.48,14.11-32.59,27.79-2.3,4.42-4.56,8.91-8,12.59C134.25,261.93,132.34,260.29,126.13,255.62Zm6.75,5.55c4,0,6.16-1.77,8.1-3.9a38.57,38.57,0,0,0,5.7-8.14,118.75,118.75,0,0,1,8.38-13.62c5.56-7.9,13.27-12.86,22.29-16.07l-3.8,3.52c-7.48,6.07-12.83,13.7-17.12,22.27-3,6-6.36,11.91-12,16C140.9,262.73,137.44,265.31,132.88,261.17Zm3.34,7c-.52-1.53-.85-3,1.74-3.12a13.33,13.33,0,0,0,8.27-3.7c5-2.86,7.6-7.88,10-12.63A82.88,82.88,0,0,1,175.32,223c4.85-3.22,9.09-7.43,15.32-9.21a24.33,24.33,0,0,1-2.17,1.86c-14.57,9.38-24.86,22.44-32.62,37.73-3,5.92-6.23,11.74-10.77,16.67A5.42,5.42,0,0,1,136.22,268.2Zm10.71,6.39c-1.19-.43-2.55-1-1.69-2.76,4.51-3.88,7.34-9,10.09-14.1,5.46-10.16,11.12-20.14,19.3-28.5,12-12.24,25.86-20.36,43.34-21.3,1.11-.06,2.35-.79,3.33.4l-1.69.84h0c-.78.29-1.57.55-2.32.89-15,6.87-27.74,17.06-38.81,29-9.49,10.24-18.38,21.24-21.28,35.6C153.75,276.32,150.31,275.81,146.93,274.59Zm16,5.62a4.23,4.23,0,0,1-3.57-4.27,20,20,0,0,1,2.49-10.28A113.84,113.84,0,0,1,184.87,235c13.27-12.4,28.06-22.33,45.13-28.72a7.09,7.09,0,0,0,2.64-.91c8.44-3.31,17-5.86,26.24-4.13,2.61-.13,4.87,1.23,7.32,1.79-2.88,1.19-5.61-.22-8.41-.48-2.25.1-4.53,0-6.74.33-26.26,3.89-47.51,16.44-64.05,37.13-9,11.26-14.86,24.27-20.89,37.2C165.49,278.59,165.42,280.82,162.9,280.21ZM199,247.39c-3.68,7.73-6,16-9.49,23.79-2.77,6.26-6.68,11.49-13.31,14.08-3.62,1.41-6.84.64-9.77-2.24,5.23-2.21,8.32-6.1,10.51-10.89,3.41-7.44,6.05-15.26,10.42-22.22,5.94-9.44,14.78-15.94,23.54-22.47a14.62,14.62,0,0,1,7.72-4.15l-4.34,3.36C207.58,232.36,202.8,239.49,199,247.39Zm57.52-40.45c-24.39,4.27-45.13,15.58-62.9,32.61a52.77,52.77,0,0,0-12.18,18.22c-2.09,5-4.24,10.07-6.6,15-1.67,3.48-3.86,6.65-8.35,8.49,2.36-6.82,5.66-12.42,8.45-18.25,13.62-28.4,35.09-47.79,65.66-56.46,8-2.25,16.08-3.08,24.85-1C262.24,207,259.32,206.45,256.55,206.94Zm11.05-12.32-6.31-15.14c-.09-.23-.17-.45-.25-.68l-2.23-7.48c.4-1.77-.54-3.24-1.2-4.72a204.23,204.23,0,0,1-9.2-24.63c-4.38-14.58-14.24-24-27.9-29.84-6.76-2.91-13.77-5.14-20.75-7.44-.9-.29-2.19-.07-2.54-1.42,4.13.45,8.27.81,12.39,1.36,9,1.23,17.22,4.29,24.34,10.13a68.91,68.91,0,0,1,19.31,24.76c2.92,8.92,5.88,17.82,8,27,2.21,9.64,5.14,19.08,10.14,27.7,2.56,4.4,5.41,8.63,8.52,13.55C273.53,204.86,270.91,199.42,267.6,194.62Zm80.52,44.53c12.27,1.82,24.31,4.57,35.69,9.66,11.62,5.2,22.21,11.61,26.37,24.8a.82.82,0,0,0,0,.65c0,.42,0,.92-.07,1.65-.83-1-1.49-1.73-2-2.51-6.85-10.22-16.13-16.74-28.29-19.28-14.18-3-28.23-6.46-40.6-14.5-.88-.58-3.26-.42-2.17-2.72A62.89,62.89,0,0,0,348.12,239.15Zm-14.69-1.53c9.69,7.18,20.6,11.71,32.19,14.72,4.72,1.23,9.46,2.4,14.23,3.36,15.78,3.2,25.39,13.53,32,27.39-.59,2.84.71,6.1-1.87,8.5-.74-3-1.17-6.1-2.28-8.94-4.83-12.33-14.81-18.73-26.84-22.5-7-2.2-14.42-2.88-21.39-5.41C346,249.83,334.05,241.93,321.63,235c-.55-.31-1.46-.54-.73-1.52C325.07,234.86,329.51,235.44,333.43,237.62Zm-27.12-9.77,1.54.52h0c2.59,1.91,5.09,4,8.3,4.82,6.52,3.87,13,7.72,19.55,11.61,12.21,7.3,25,13.11,39.16,15.49a39.58,39.58,0,0,1,9.94,2.72c11,5,20.08,11.75,22.69,24.56,1,4.86.59,9.19-3.51,12.56-2.88,1.66-3.59-.07-3.62-2.46-.17-12.71-7.44-20.86-17.51-27.12-7.85-4.87-16.67-7.54-25.42-10.11-14.09-4.15-28.06-8.35-38.91-19.06-4.2-4.15-8.47-8.21-12.71-12.31a7.41,7.41,0,0,1-3.25-3.15A9.27,9.27,0,0,1,306.31,227.85Zm91.79,65c-.58-.4-.8-.48-.89-.63-.37-.61-.73-1.23-1-1.87-3.13-6.61-8.45-10.92-14.6-14.61-8.77-5.25-18.6-7-28.3-9.3-13.84-3.26-26.15-9.28-35.94-19.82-3-3.25-5.66-6.87-8.48-10.32a11.18,11.18,0,0,1-4.1-6.23l4,3.8c.21.08.48.11.62.26,9.19,10.55,19.74,19.09,33.36,23.38,9.51,3,19.11,5.71,28.46,9.24,8.37,3.17,15.87,7.53,21.68,14.44A21.14,21.14,0,0,1,398.1,292.85ZM285.27,219c1.38,3.29,2.77,6.56,4.12,9.86a26.09,26.09,0,0,1,1.35,14c-1.7,11.38-3.26,22.78-4.89,34.16-1.42,10,1.13,18.58,8.84,25.38l0-.47a.93.93,0,0,1,0,.47c4.73,5.1,11,7.76,17.14,10.5,1.16.52,2.6.55,3.38,1.79-4.93-.47-9.94.17-14.8-1.28-13.86-4.1-26.6-18.92-25.35-36.78.66-9.48,3.69-18.38,5.76-27.52,2.2-9.7,5.12-19.37,3.54-29.54Zm11.11,97.33c-3,.41-5.8-.56-8.7-1-25-11.05-29.88-36.64-10.62-58.6a13,13,0,0,1-.39,2.43,60.52,60.52,0,0,0-3.34,20.65c-.05,15.52,12,31.49,26.5,35.12C299.29,317,297.6,316.17,296.38,316.34ZM269.83,319h0c-.92-1.09-2.59-1.27-3.24-2.68-7.31-3.36-12.76-9-17.82-15a23.61,23.61,0,0,1-5.29-20.64,57,57,0,0,1,15.41-29.92c8.26-8.4,15.6-17.58,20.52-28.45a4.89,4.89,0,0,1,1.22-3.16,3.07,3.07,0,0,1,.16,3.28c-3.88,11.13-6.85,22.65-13.72,32.53-2.3,3.32-4.6,6.64-6.76,10-5.44,8.6-9.56,17.51-6.86,28.16,2.18,8.61,5.9,16.22,13.13,21.76l2.24,1.29c2,2.26,5.08,3.14,7.68,5.43C273.57,321.5,272,319.64,269.83,319Zm46.78-1.35a3.06,3.06,0,0,1-.95.11c-7.21,1.33-14.44,2.61-21.64,4a26.61,26.61,0,0,1-21-4.16c-1.26-.86-2.59-1.62-3.88-2.43-.43-.39-.85-.81-1.31-1.19-14-11.73-17.07-28.12-8.23-44.07a37.19,37.19,0,0,1,3.14-5.18c9.1-11.33,14.3-24.57,18.92-38.12A3.73,3.73,0,0,1,283,223c.36,1.77.55,3.21-.13,4.64-1.56,9.28-3.41,18.48-7.79,26.93-2.45,4.74-4.86,9.53-7.67,14.06-11.75,18.91,3.57,44.25,19.75,47.87,5,2.17,10,2,15.14.49l14.41-.43c1.43-.76,3-.47,4.47-.37C320.08,318.22,318.25,317.61,316.61,317.62Zm10.07-1.28a39.6,39.6,0,0,0-8.84-2.63c-5.91-2.45-11.95-4.66-17.24-8.35-2-1.42-3.88-3.09-5.81-4.65a25.48,25.48,0,0,1-6.94-23.59c2.12-11.09,2.79-22.36,4.71-33.47.66-3.78,1.31-7.65,0-11.46q-2.52-5.9-5.05-11.78l-.66-2.39c2,.93,2.2,3.21,3.77,4.3,1.78,4.19,3.48,8.41,4.08,13,1.48,5.66,1.55,11.42,1.3,17.22-.37,8.48-2.28,16.91-.81,25.44h0c.86,7.6,5.15,13.1,11,17.56A138,138,0,0,0,323,306.18c7.93,4.43,15.35,9.5,21.14,16.65.39.95.78,1.9,1.52,3.67C339.58,321.54,333.62,318,326.68,316.34Zm-28.56-62.63c2.17,4.54,2.61,9.45,3.3,14.28,1.3,9.18,4.57,17.42,11.12,24.15a100.27,100.27,0,0,0,18.34,14.62c4.29,2.73,8.92,5.09,11.46,9.86.09.54.19,1.09.37,2.14l-.12.07a78.76,78.76,0,0,0-14.9-11.56c-5.13-3-10.16-6.1-15.23-9.19-6.74-4.1-12.26-9.29-15.07-16.9C295.17,272,297.27,262.87,298.12,253.71Zm60.26,80.39c-1.3.5-2.72-.58-3.88-1.4a20,20,0,0,1-6.88-8.9c-3.24-7.75-7.6-14.44-15.54-18.23-4.42-2.11-8.1-5.39-11.92-8.4-9.41-7.42-15.75-16.71-17.2-28.87-.21-1.82-1.26-3.64-.35-5.8,1.59,2.94,3,5.6,4.48,8.27l.08.14a41.79,41.79,0,0,0,11.93,13.93c7.7,6,15.47,11.85,23.08,17.92a53.07,53.07,0,0,1,11.47,12.13,34.89,34.89,0,0,1,5.34,15.7C358.47,331.75,359.88,333.53,358.38,334.1Zm3.56-.17c-1.22-.25-.61-1.35-.36-2,4.66-13.08-.64-23.63-8.44-33.57-5.68-7.24-13.22-12.2-20.84-17.06-7.42-4-14.7-8.23-19.22-15.82-.26-.44-.76-1.24-1.64-.93l-.06,0v0c.55,2.81,2.37,4.82,4.24,6.81,4,4.19,8.8,7.16,13.7,10.06,8.9,5.26,17.58,10.83,23.76,19.4,5.86,8.14,10.53,16.66,7.85,27.27-1,0-1.1-.77-1.21-1.46-1.51-9.45-7.12-16.35-13.92-22.56a209.87,209.87,0,0,0-18.68-14.83c-8.35-6-15.85-12.8-20.68-22.1h0c-5.3-9.57-7.74-20-9.43-31.71,4.21,6.89,7.55,13.2,9.77,20.09a12.15,12.15,0,0,0,2.55,6.23c.29.74.28,1.78,1.54,1.61a2.18,2.18,0,0,0,.25.59c1.15-1.07-.42-2-.15-3.08l1.56,1.17h0c.52.79,1,1.59,1.56,2.35,4.82,6.67,11.35,11.29,18.39,15.29,7.35,3.24,14.71,6.44,21.49,10.84,4.43,2.87,7.89,6.69,11.19,10.72h0c4.26,7.78,5.87,16,4,24.77a20,20,0,0,1-2.4,6.68C365.66,334.47,363.69,334.29,361.94,333.93Zm8.92-3.79c-.11.19-.59.16-1,.26,2.84-11.08,2.44-21.55-4.59-31-4.74-7.63-12.29-11.69-19.92-15.59-4.24-2.15-8.64-4-12.92-6-8.24-4-14.53-10.2-19.77-17.59a26.2,26.2,0,0,0-3.69-5.46c1.52-1.58,1.9.46,2.47,1,3.61,3.19,6.92,6.74,10.65,9.78,7,5.76,15.31,9.19,24,11.8,2.77,1.88,6,2.82,9,4.17,14,6.27,20.82,17.23,21.68,32.37C377.08,320.19,373.74,325,370.86,330.14Zm-.57-46.42c-3.42-1.19-6.73-2.73-10.38-3.15-4.51-1.37-8.78-3.49-13.45-4.35-5.81-2.26-11.76-4.19-17.17-7.39a6.15,6.15,0,0,1-3.39-2l.53-1,3.32,1.83,1.57.21a36.85,36.85,0,0,0,4.21,1.78c7.26,2.06,14.52,4.15,21.84,6a39.75,39.75,0,0,1,15.52,8.08C372,285.45,371,284,370.29,283.72Zm3.84,3.24c10.5,5.24,15.14,25.26,3.54,34.88,1.69-8.12.45-15.72-2.49-23.06a33.39,33.39,0,0,0-12.71-15.24c2.63-1.21,4.57.87,6.8,1.49A49.11,49.11,0,0,1,374.13,287ZM388,314.75c-2.41,1.08-2.94.47-2.48-1.93,2.38-12.51-2.67-22.14-11.73-30.21a8.62,8.62,0,0,1-3.77-3.23c1.77.4,3,.52,3.91,1.59,10.07,4.54,17.12,11.55,19.47,22.8C394.62,309.44,393.39,312.34,388,314.75Zm8.68-6.88c-1.59-.08-1-1.65-1.15-2.56-2.16-10.29-7.05-18.43-16.75-23.48-14.84-7.72-30.95-11.26-47-15-10.34-2.94-17.56-10.15-24.42-17.85a153,153,0,0,1-13.52-23.62,42.06,42.06,0,0,0-3.43-5.34c-.3-.77-.75-1.52-.08-2.32l9.24,9.28c3.12,4,6.35,8,9.32,12.12a71.09,71.09,0,0,0,41.81,28.49c6.23,1.54,12.56,2.77,18.67,4.71,12.73,4.05,23.36,10.8,27.79,24.35.92,2.82,2.61,5.62,1.74,8.82C398.62,306.57,398.16,308,396.72,307.87Zm-5-57.42c-13.52-7.2-28.05-10.95-43.06-13.21-1.7-.26-3.56-.05-5.58-2,6.11-.18,11.6-.3,17.09-.51a66.09,66.09,0,0,1,34.33,7.92c13.15,7.08,22.48,17.08,23.49,32.92.35,5.45-1.84,13.22-4.51,15.74C415.61,272.31,408.64,259.42,391.76,250.45Zm25.08,41c5.39-12.58,4.1-23.89-2.6-34.26-6.47-10-16.28-16.17-27.2-20.7,11.81.89,22.53,4.33,31.24,12.71,10.05,9.65,12.24,22.32,5.86,34.46A19.6,19.6,0,0,1,416.84,291.44Zm3.08,1.17c14.39-14.46,12.35-33-1.22-46.66a35.68,35.68,0,0,1,11.69,6.74c7.6,6.4,10.39,15,9.89,24.51C439.77,287,432,292.59,419.92,292.61Zm13.42-.72c6.3-4,9.54-9.57,9.21-16.76-.56-11.9-5.28-21.59-16-27.7-9.43-5.4-19.27-9.79-29.94-12.11a11.6,11.6,0,0,1-5.44-1.3c2.18-.18,4.34-.73,6.5,0,14.2,1.85,27.66,6,39.54,14.12A29.79,29.79,0,0,1,448.84,281C446.81,287.9,440.08,292.78,433.34,291.89Zm6.56,1.2c8.12-3.11,11.42-9.42,11.86-17.53.7-12.64-3.86-22.73-14.58-29.8-11.13-7.32-23.71-10.72-36.48-13.67l-7.63,0c2.65-2.12,5.73-1.31,8.69-1.27,16.16-.47,31.13,2.86,43.86,13.57,2.58,2.17,4.31,5,6.5,7.49l.91,1.71,3,7.26c1.89,9.23,2,18.32-2.21,27.06C448.91,293.52,444.29,295.28,439.9,293.09Zm16.05-5.8c.62-1.61,1.24-3.23,1.85-4.84a47.68,47.68,0,0,0,.87-15.48,32.75,32.75,0,0,0-6.77-17.48c-7.15-10.3-17.76-15.06-29.37-18-10.73-2.7-21.64-2.52-32.56-1.25h0l-6.46,1.05h0c-.48-.53-1.46.4-1.79-.6h0l9-2.31,1.66,0c1.47-1,3.44.23,4.82-1.1,13.09-3.49,26.18-2.48,39,.86,8.7,2.27,15.5,7.61,19.11,16.24,1.69,4,3.39,8.09,4.8,12.23,3,8.87,2.95,17.67-1.05,26.29A8.09,8.09,0,0,1,456,287.29Zm11.8-27.62h0l-3.24,9.2c-.62-9.11-4.36-17.09-7.85-25.13-2.7-6.22-7.29-10.67-13.12-14.07-7.37-4.28-15.58-4.7-23.7-5.63l-5.4-.07.35-1h0c2-.11,4.08-.66,6.14-.13a107.31,107.31,0,0,1,17.38.17c13.75,1.25,23.65,7.7,28.46,21C467.61,249.22,468.79,254.38,467.75,259.67Zm1.36-13.5h0c-.8-2.49-2.25-4.78-2.34-7.5,6.21,4.43,12.69,8.37,20,10.86.34.11.64.33.39.78C481,249.67,474.85,248.71,469.11,246.17ZM681.83,410.68c-26.72,16-49.08,38.25-76.43,53.27l-.08.05c-1.93.92-3.89,1.77-5.77,2.77a30.49,30.49,0,0,1-24.79,2.38c-5.7-1.87-10.68-5.1-15.6-8.43a5.72,5.72,0,0,1-.29-.68c-.14-.56.21-.66,1.18-.31,3.57,1.3,7.16,2.54,10.74,3.78a32.84,32.84,0,0,0,27.54-2.24c8.82-4.85,17.78-9.5,25.68-15.84h0a95.18,95.18,0,0,0,14.23-12.88c10.71-11.73,24.5-17.69,39.39-21.69C679,410.5,680.53,409.87,681.83,410.68ZM675.66,409a64.4,64.4,0,0,1-7.55,2.9c-11.34,3.77-21.45,9.52-29.79,18.21a224.38,224.38,0,0,1-16.63,15.56h0c-6.5,3.92-13.06,7.75-19.49,11.78-11.29,7.08-23,8.38-35.36,3.11l-4.37-1.29.36-.95,4.44,1.21a58.51,58.51,0,0,0,12.34.06c6.81-.76,13.52-1.93,19.33-6a45.87,45.87,0,0,0,13.28-8.19c7.09-6.18,13.39-13.17,19.66-20.14a49,49,0,0,1,24.59-14.94A47.4,47.4,0,0,1,675.66,409ZM639,379.71A90.6,90.6,0,0,1,635.18,353c-.08-9.74-.4-19.45-2.15-29.07C630.32,309,620.62,298.37,611,287.69c0-2,.95-.66,1.46-.33a61.94,61.94,0,0,1,16.81,15.09c.48.65,1.07,1.23,1.61,1.84A72,72,0,0,1,642,344.22c-.06,11.71-1.51,23.42-2.36,35.13C639.67,379.45,639.34,379.53,639,379.71ZM602.17,274.58a66.18,66.18,0,0,1,31.34,23.58c9.53,13,14.61,27,13.65,43.12a191.39,191.39,0,0,1-3.56,24.9l-.87,5.67-1.05-.4h0c.26-1.92,0-3.91.73-5.77.62-9.88,2-19.74.62-29.68-1.6-11.78-4.49-23.05-11.78-32.76-4.09-6.51-9.68-11.5-16-15.68-2.25-1.48-4.58-2.85-6.87-4.27-5.65-4.34-12.11-7.58-17.32-12.63C594.85,271.74,598.49,273.21,602.17,274.58Zm-1.83,5.51c2.92,1.93,5.18,4.73,8.35,6.3v0l.08.06-.07,0c1.38,3.1,4,5.18,6.13,7.72,6.46,7.89,13.12,15.56,15.73,25.88a109.53,109.53,0,0,1,3,25.33c.24,13.41.45,26.8,5.94,39.41.25.56.71,1.29-.16,1.95l-1.94-1.92,0,0c-2.11-4.24-4.13-8.53-6.35-12.71a55.19,55.19,0,0,1-6.39-25.63c-.11-7.46,0-14.94-1.42-22.32-.24-1.27-.66-2.5-1-3.75a1.46,1.46,0,0,0,0-.2c-3.13-13.46-10.31-24.63-19.64-34.57-4.44-4.73-9.88-8.31-14.59-12.76C592.48,274.61,596.34,277.45,600.34,280.09Zm-24.63-12.8C596,279,612.45,294.16,620.09,317.15c2.88,9.78,3,19.86,3,29.9,0,14.9,6.53,27.36,14.26,39.43l1.74,2.35c.13.52.27,1.05.53,2.07l0,0-.05,0c-6.47-5.54-10.53-12.21-14.44-19-.82-1.42-1.23-3.08-2.48-4.25-4-8.78-5.59-18.11-6.17-27.64-1.46-24-12.55-43.12-29.42-59.44a23.37,23.37,0,0,0-5.06-4.92c-3.48-3.74-8-6.45-11-10.72A25.24,25.24,0,0,1,575.71,267.29Zm-32.8-13.23a14.89,14.89,0,0,1,3.75.86,155.44,155.44,0,0,1,18.3,7.84l16.94,14.57q2.52,2.51,5.05,5a99.77,99.77,0,0,1,24.85,39.28c2.5,7.39,2.71,15.12,3.56,22.76,1,9.48,2.88,18.74,8,27,5,9.94,11.3,18.72,20.93,24.7l1.24.83,2.4,2.21c-.07.43,1,1.51-.61,1.07-.76-.21-1.5-.49-2.25-.74-20.08-10.93-34.13-27-41.22-48.84-2.32-7.16-2.84-14.67-4-22.05-3.69-23.16-12-44-31.18-59a87.93,87.93,0,0,0-20.27-11.75,18.45,18.45,0,0,0-5.88-2.94,4.9,4.9,0,0,1-4.15-2.09Zm101.33,147.5c-11.1-3-21.66-7.05-29.42-16.16-2.2-2.59-4.42-5.17-6.63-7.76l0-.05c-3.29-5.21-7.16-10.07-9-16.12-4.87-16.41-10-32.74-14-49.38-2.37-9.71-5.23-19.3-11.23-27.56a67.14,67.14,0,0,0-13.17-16.95,9.48,9.48,0,0,1-4-4.19l4.14,2.57c17.3,10.06,26.74,26,33.27,44.2,3.48,9.74,3.77,20,5.71,30,5.27,27.22,19.85,47.62,44.69,60.38ZM530.37,250l-.45,1.09c-3.78-.13-7.6.47-11.34-.66A31.61,31.61,0,0,1,530.37,250Zm-9.48,3.11c9.39.31,18.14,3.07,26.63,6.86,11.58,6,19.54,15.61,26.35,26.37,8.51,14.16,10.46,30.46,15,45.92q4.2,14.39,8.42,28.75c2.07,7,6.13,12.82,10.75,18.32a56.78,56.78,0,0,0,32.53,22.83c3.09.83,6.51,1,9.17,3.15h0a86.19,86.19,0,0,1-30.18-5.73C607,394.9,598.18,386.23,592.71,374a128.17,128.17,0,0,1-8.78-29.26c-1.69-9.08-2.33-18.37-5.37-27.18-.31-1.38-.6-2.75-.94-4.12-3.27-13.18-10.36-24.4-18.5-34.95a64.72,64.72,0,0,0-38.67-24.44c-2,.38-3.62-.6-5.4-1.08A12.93,12.93,0,0,1,520.89,253.13Zm-14.88.19,4.55,1c22.31,2,39.27,12.5,51.72,31.15a109.59,109.59,0,0,1,14.12,29h0a227.27,227.27,0,0,1,5,24.78,153.49,153.49,0,0,0,8,31.36c7.44,19.46,21.65,30.35,41.72,34.28,2.1.41,4.2.85,6.3,1.27-4.32,1.12-8.53.42-12.75.13a87.18,87.18,0,0,1-20.28-7.3c-19.78-10.06-29.74-26.38-31.53-48.17-.55-6.71-.78-13.47-2.19-20.09a.8.8,0,0,1-.34-.32l.34.32c-2.53-15.61-5.4-31.1-16.35-43.55-10.07-11.44-20.74-22.18-35-28.5-1.72-.76-3.56-1.25-5.34-1.86h0a4.79,4.79,0,0,0-2.95-.86l-.93-.49a8.33,8.33,0,0,1-4.6-1.1C504.09,253.58,505.72,253.62,506,253.32ZM593.57,407c-8.34-4-15.42-9.63-22.19-15.87-13.94-12.84-22-28.12-22.5-47.43a192.2,192.2,0,0,0-6.8-44.61c-2-7.57-4.28-15.12-9.53-21.27A45.8,45.8,0,0,0,519.93,266l-4.56-3.72c-1.29-.06-1.9-1.32-3-1.7.06-.37-.81-1.26.38-1a13.25,13.25,0,0,1,2.75,1.3,2.54,2.54,0,0,0,.6-.16c.61,1.27,1.93,1.7,3,2.38,11.08,7.11,19.06,16.87,24.64,28.69,2.53,5.35,5.1,10.68,7.65,16,4.51,11.07,4.94,22.89,6.57,34.52,2.63,18.84,9.78,35.75,23.49,49.26a55.9,55.9,0,0,0,34,16.39,21.33,21.33,0,0,1,2.59.55v.06c0,.17,0,.36.06.59C609.69,411,601.54,410.83,593.57,407Zm1.06,3.46c-2.76-2.34-6.77-2.14-9.47-4.6L580.35,404c-5.8-3.38-11.62-6.7-17.26-10.37-6.84-4.45-11.31-10.55-14.4-17.9-.69-1.63-1.45-3.22-2.18-4.83-5.42-15.82-5.72-32.41-6.93-48.79s-4.76-32.08-13.29-46.33c-1.27-2.11-2.58-4.34-4.73-5.8,2.48-.25,3.38,2,4.82,3.25,2.16,1.9,4,4.13,6,6.22a48.43,48.43,0,0,1,6,12.45c5.49,17,8,34.65,8.82,52.46.71,15.82,5.84,29.67,16.56,41.33a111.38,111.38,0,0,0,21.35,18.59c3.15,1.63,6.28,3.28,9.45,4.86C595.64,409.67,595.37,410,594.63,410.43ZM513.46,257.85c1.6.55,3.33.77,4.69,1.91,16.74,7.5,29.35,20,39.66,34.61,7.25,10.31,8.94,22.94,11.49,35.06a1.5,1.5,0,0,1,0,.22c.74,7.81,1.31,15.65,2.27,23.44a69.89,69.89,0,0,0,3.8,16.58c7.67,19.87,23.58,30.05,42.84,36.24-1.15.88-2.41.72-3.73.52-15.18-2.26-27.48-9.57-37.08-21.4-11.56-14.24-17.06-30.87-18.57-48.94-1-11.81-3-23.33-8.53-34-1.42-3-2.89-6-4.26-9-6.2-13.63-15.3-24.72-28.33-32.36l-1.59-.1C515.91,259.09,513.58,259.52,513.46,257.85Zm2.27,14.61,0,0c-1.66-2.19-3.31-4.38-5-6.56-4.38-5.05-10-8.25-16.06-10.79-1.15-.49-2.8-.39-3.29-2,6.46.86,11.81,4.14,17,7.8l2.17,2.83a20.83,20.83,0,0,1,5.08,7.84c.09.26.17.54.25.8s.11.36.16.54Zm-3.07-8.11c-.51-.64-1.1-1.3-.48-2.2,4.93,3.78,8.57,8.72,12,13.78,9.2,13.74,12.33,29.24,13.43,45.48.89,13.1,1.8,26.24,4.32,39.18a46.26,46.26,0,0,0,1.56,5.07h0c.21.74.42,1.48.64,2.22a8.22,8.22,0,0,0,.34,1.13c2.93,9.47,7,18.24,15.7,24.24,6.33,4.36,12.57,8.85,19.86,11.57,4.74,2.22,9.37,4.74,14.62,5.64.41,1.08,2.07.35,2.38,1.67a9.53,9.53,0,0,1-4.92-.12c-5.45-1.2-10.85-2.71-16.35-3.67-11.14-1.93-20.48-7.15-28.85-14.59-9.33-8.28-15.47-17.89-15.1-30.89.3-10.21.31-20.43.47-30.64s.15-20.2-1.83-30.17a47.08,47.08,0,0,0-5.12-16.79C521.67,278,517.81,270.75,512.66,264.35Zm15,64.37c.56-5.6.76-11.24,1.12-16.86-.25-2.73,0-5.5-.8-8.18q-.71-3.21-1.4-6.43l-.73-5.05c1.91,2.86,2.18,5.55,3.11,8l.59,5.33c1.43,4.7,1,9.56,1,14.33,0,14.13-.43,28.26-.46,42.39,0,7.8,1,15.46,6,21.94,9.94,12.89,22,22.58,38.52,25.62,5.41,1,10.72,2.55,16.79,4a13.53,13.53,0,0,1-2.66,1.08c-13.53,1.49-27.13,1-39.31-5.21-18.58-9.42-27-25.42-25.47-46.26C524.78,351.83,526.46,340.3,527.62,328.72Zm-6.5,39.89c.08-.42.34-.93,1-.7a6.06,6.06,0,0,1,.38,1.69c-.55,10.59,3.15,19.78,9.52,27.94,14.07,18,34,19.92,54.66,19.34a10.77,10.77,0,0,0,3.44-.84,32.8,32.8,0,0,1,9-1.92l-1.63,1.38c-9.49,3-18.77,6.72-28.61,8.59-1,0-2.11-.09-3.15,0C552.79,425,541.39,421,531.38,413c-6-4.76-10.67-10.58-12-18.33C517.8,385.89,519.53,377.23,521.12,368.61Zm77.79,46.66a3.29,3.29,0,0,1-1.22.2Zm-81.12-35.51c-1,8.1-1.63,16.17,3.12,23.47,9.33,14.33,22.82,21.32,39.67,22.29a7.92,7.92,0,0,1,4.85.42c-2.61.33-4.44,1.22-6.51.95h0l-5.14.52c-6.22-1.3-12.6-1.91-18.54-4.43-9.81-4.15-17.1-10.76-20.75-21a44.62,44.62,0,0,1,1.17-18.89C516,381.91,515.64,379.93,517.79,379.76Zm12.82,49.54-7.71-3.76a64,64,0,0,1-5.69-6.27c-4.67-6.41-5.71-13.73-5.73-21.36a8.28,8.28,0,0,1,.81-5,13.7,13.7,0,0,1,.34,6c1,2.87.88,6.1,2.87,8.63l.06.08c5.15,8.9,12.85,14.56,22.49,17.76a54.68,54.68,0,0,0,10.35,2.29c.77.1,1.93-.32,2.08,1.06A59.46,59.46,0,0,1,530.61,429.3Zm3.55,1.91c11.12.66,21.84-1.61,32.47-4.51,2.21.21,4.13-.88,6.16-1.44,12.11-3.36,23.91-7.75,36.13-10.7,6.56-1.59,12.69-4.69,19.59-5.07,7.09-.4,14.15-1.27,21.24-1.69,2.48-.14,5.07-.95,8,.28a16.72,16.72,0,0,1-2,.82c-10.34,2.62-18.63,8.25-25.85,16.13C619.78,436.09,610.2,448,595.8,454.1c-15.35,5.53-30.42,7.2-44.62-3.21-6.47-6.34-12.12-13.5-19.29-19.13C532.33,430.31,533.4,431.17,534.16,431.21Zm-2.57,53.45c-1.14-8.12.76-15.78,3.45-23.33a30.3,30.3,0,0,0,1.49-15.92,11.61,11.61,0,0,1-1.48-6.23c1.52,2.5,3,5,3.07,8,2.36,7.86,2.23,15.84,1.18,23.88-1.31,10-3,19.94.52,29.91C535.47,496.31,532.48,491,531.59,484.66Zm12.56,20.49c-4.76-8.22-5.32-17.13-4-26.27,2-13.52,3-26.94-3-39.9a5.16,5.16,0,0,1,2.91,2.71c5.3,11.08,7.67,22.62,6.15,34.93-.93,7.57-1.09,15.17.57,22.69a82.85,82.85,0,0,0,5,14.13A22.34,22.34,0,0,1,544.15,505.15Zm5.94.06c-3.25-9.74-3.09-19.61-2.14-29.59.89-9.24.12-18.25-3.59-26.87-.18-.43-.38-.87.32-1.18,1.6.81,2.51,2.35,3.57,3.76q1.77,7,3.56,14a213.91,213.91,0,0,1,2.28,23.72c.51,9.34,2.34,18.39,7.69,26.33,1.82,2.72,3.94,5.23,6.15,8.14C558.61,520.33,553.08,514.15,550.09,505.21Zm16.71,14.4c-7.9-9.35-10.45-20.5-11.08-32.34-.36-6.73-.66-13.48-2.3-20.07,0-4-2.08-7.65-2.59-11.74,2.21.5,2,2.54,3.06,3.57.19.36.38.71.58,1.06a4,4,0,0,1-.37-.54l2.82,6.8h0a109.61,109.61,0,0,1,6.4,32.37c.44,10.42,4.68,19,12,26.22.81.8,2.79,1.26,1.81,3.19A34.71,34.71,0,0,1,566.8,519.61Z" transform="translate(-96.37 -26.77)"/></g></g></g></svg>