<svg xmlns="http://www.w3.org/2000/svg" xmlns:xlink="http://www.w3.org/1999/xlink" viewBox="0 0 504.44 430.3"><defs><style>.cls-1{fill:none;}.cls-2{clip-path:url(#clip-path);}.cls-3{fill:#a18978;}</style><clipPath id="clip-path" transform="translate(-81.74 -22.71)"><rect class="cls-1" width="412.14" height="308.13"/></clipPath></defs><g id="圖層_2" data-name="圖層 2"><g id="飄移"><g class="cls-2"><path class="cls-3" d="M497.5,446.7c-6-6.23-9.9-13.42-10.49-22.2a24.72,24.72,0,0,0-.47-2.66c0-.21,0-.41-.05-.62-.61-6.54-3.88-12.18-6.57-18.39,1.59.63,1.94,1.92,2.67,2.83s1.55,2.08,2.32,3.13c4.1,4.66,5.41,10.44,6.48,16.3a36.65,36.65,0,0,0,13,22.53c.87.72,1.57,1.9,4.08,1.44-12.33-8.06-15.53-20.27-17.84-33.42l.17-.08,2.17,2.85c3.41,7.48,5.79,15.48,11.16,22a14.16,14.16,0,0,0,5.73,4.28c.48.19,1,.34,1.25-.33s-.25-.64-.6-.79c-5-2.15-7.54-6.51-9.8-11-1.55-3.1-2.71-6.39-4.14-9.84a24.06,24.06,0,0,1,5.1,5.86,60.69,60.69,0,0,0,8.11,10.09,27.24,27.24,0,0,0,2.6,2.05c.46.34,1,.84,1.55.15s-.19-1-.68-1.33c-5.59-3.74-8.51-9.82-12.79-14.71-.59-.67.09-.76.53-.92,4.77,2.72,8.2,7.15,12.84,10a9.79,9.79,0,0,0,5,1.87c-1.58-1.85-3.54-2.14-4.52-3.81,0-.05.07-.1.1-.16,2.24-.61,4.37,1.48,7-.24-3.29-.8-6.17-1.33-9.23-2.88v-.06c4.11-.85,8,1.73,12.17-.73-2.07-.41-3.5.22-4.94-.63,2.32-1.81,5.74-1.07,8.15-3.94-7.13,1.4-13.58,5.8-20.64.63a52.47,52.47,0,0,0,25.1-7.16c-4.53,1.43-9,2.94-13.58,4.27-4,1.16-8.14,1.34-12.26,1.6a11,11,0,0,1-6.29-1.81c.29-1-3.34-.49-.92-2.33,7.56,1.82,15,.69,22.42-.87,4-.86,8-2.22,11.93-3.37,1-.28,2-.57,2.13-2.07-7.69,2.45-15.3,4.81-23.3,5.58a55.72,55.72,0,0,1-15-.6,10.27,10.27,0,0,1-7.21-5.18c9,3.64,18.24,3.17,27.49,1.68s17.93-3.86,25.1-10.13c-4.45,2.22-8.84,4.62-13.65,6-10.82,3.16-21.76,5.18-33,2.67a21.82,21.82,0,0,1-10.93-5.5c-.25-1,.08-1.23,1-.84,16.68,6.82,32.37,2.45,47.86-4.22,11.83-5.09,20.32-14.21,28.46-23.74a2.29,2.29,0,0,0,.86-2.19c-1.31,1.39-2.36,2.54-3.45,3.65-6.2,6.32-12.12,13.06-19.69,17.73A73.74,73.74,0,0,1,497.77,408c-4.61-.16-8.87-1.8-13-3.74a7.29,7.29,0,0,1-3.72-3.27c.47,0,.74-.06.92,0,9.23,4.86,18.79,5.26,28.75,2.59,11.74-3.14,22.31-8.65,32.35-15.31a20,20,0,0,0,2.22-2c5-3.66,8.77-8.54,13.2-12.77a86.14,86.14,0,0,1,15.9-12.39,4.79,4.79,0,0,0,2.32-2.87,64.44,64.44,0,0,0-17.35,12.44q-7.8,7.74-15.59,15.51c-7.24,4.94-14.68,9.55-22.89,12.69-8.55,3.26-17.23,6.25-26.67,4.73-7-1.13-13.46-3.31-18.22-9a.94.94,0,0,0-1-.39c2.24,5.16,4.45,10.34,6.72,15.48a94.42,94.42,0,0,1,3.53,10.58c.4,11,4.2,20.58,12.32,28.26.53.5,1.48.8,1.25,1.9-2.67,0-4.79-1.33-6.84-2.8-1-1.09-2-2.22-3.11-3.27a31.68,31.68,0,0,1-9.75-21.78,80.67,80.67,0,0,0-4.51-23.34c-.06-1.7-.89-3.18-1.41-4.74-.31-.93.12-1,.8-.88l.95.37c1-1,1.73-.11,2.55.41,7.65,4.84,15.74,7.9,24.92,5.37,5.56-1.53,10.56-4.4,15.46-7.41h0c7.49-3.61,14-8.68,20.65-13.6,11.4-8.47,22.78-17,34.27-25.32,3.16-2.3,6.55-4.38,10.71-4.48,1.5,0,1.66-1.44,2.69-2.68-7.39-.31-14.29-2-21.35-1.07-2.89.37-5.14-.74-7.47-2.35a41.29,41.29,0,0,1-9.41-8.37c-3.28-3.81-3.07-8.27-2.36-12.81q2.2-14,4.43-28c.25-1.8-.47-3.66.3-5.43-.09-24.77-11.84-42.42-33.23-54-3.52-1.92-7.43-3.12-11.16-4.65-1.31-.54-2.63-1-3.91-1.62-.4-.18-.61-.57.12-.62a2.53,2.53,0,0,1,.6.11c.1-.27.2-.54.31-.81l-6.41-1.46c-5.85-2.15-12-3.73-17.46-6.6s-11.18-4.43-17-6c-10.21-2.8-20.51-2.57-30.84-.69a48.36,48.36,0,0,1-16-.65c-7-2-13-6-19.15-9.75a18.23,18.23,0,0,1-2.7-2.39c-6.35-8.29-15.11-11.31-25.14-11.56-8.25-.21-16.5-.28-24.64,1.44a28.91,28.91,0,0,0-6.78,2.51c-2,0-3.16-1.48-4.45-2.71-2.12-2-4.26-4-6.39-6-1.1-2.17-4.22-2.1-5.06-4.55-1.3-1.52-2.67-3-3.9-4.56-6-7.68-9.38-16.7-13.17-25.52h0c-3.24-11.39-6.51-22.77-9.7-34.18a95.14,95.14,0,0,1-2.72-16,57.54,57.54,0,0,0-3.25-15.56,30,30,0,0,1,0-6A102.84,102.84,0,0,1,299,40.13a34.45,34.45,0,0,1,22.69-14.71l.46.3a1.89,1.89,0,0,1-.41.39,46,46,0,0,0-20,18.21c-7.55,12.58-9.47,26.75-8.1,41.06,1,10.05,3.76,19.93,5.74,29.88.56,5.1,2,10,3.23,15,4,16.23,9.1,32,18.36,46.19l0,0h0s0,0,0-.07c.42-.69-.14-1.31-.18-2-10.21-17.28-15.94-36.13-19.57-55.72-.09-.49-.27-1-.4-1.43-1.25-8.89-3.32-17.62-5-26.42A68.57,68.57,0,0,1,301.92,47c3.76-7.73,10.21-13.44,17.16-18.42,2.8-2,5.79-.91,8.65.16l3.62,2.44c.36.38.69.78,1,1.18l1-1.4-3.87-2.76-1.36-.43c-.44-.47-.85-1-1.27-1.45l-4.57-3.26h0l-2-.38.49.39a.45.45,0,0,1,0,.11,2,2,0,0,1-.13.29l-4.5-.26-.95.44c-2.56-.35-4.61,1.7-7.14,1.48-1.81-1.53-3.51.87-5.3.14a10.21,10.21,0,0,1-4.6.1l-6.23.64c-.46.49-1.05.38-1.62.37h-.08l-.71-.1h0c-1.76-.15-3.06,1.18-4.69,1.45-5.67,3.37-11.36,6.7-17,10.13-6.38,3.88-12,8.61-15.81,15.17-6.84,5.49-10.86,13-14.85,20.54-.69,1.3-1,2.89-2.8,3.26-1.11.13-.57,1.35-1.19,1.8-3.24,3.12-4.35,7.33-5.61,11.39a27.1,27.1,0,0,0-1.29,9.81,21.64,21.64,0,0,0,.24,8.68c1.72,6.79,2,13.77,2.81,20.65.71,5.77,1.38,11.51,2.49,17.23a68,68,0,0,0,10.65,25.35c.26,3.74,2.72,6.09,5.29,8.37,6.28,5.59,12.58,11,21.06,13.29,14.32,3.79,28.58,3.47,42.89.06,6.46-1.17,12.92-2.49,19.56-1.51-.32,1.51-1.71,1.15-2.64,1.36-3.4.75-6.84,1.34-10.26,2-9.18.69-18.24,2.3-27.51,2.34a89.06,89.06,0,0,1-29.26-5,39.41,39.41,0,0,0-6.84-3.58c-2-1.34-3.93-2.78-6-4-7.64-4.52-11.52-12.16-16-19.25-6.35-10.06-8.75-21.57-11.58-32.9a27.89,27.89,0,0,0-2.08-6.28,6.52,6.52,0,0,0-.18-.9,31.07,31.07,0,0,0-2.21-6.19c-.15-.37-.3-.75-.46-1.12-2.28-7.23-6.89-13-12.19-18.1C191.6,88.4,177,80.58,160,77.71c-10.2-1.71-20,1.15-29.74,3.55-7.95,2-15.25,5.2-21.22,11-2.44,2.36-5.33,4.38-5.55,8.4-.13,2.39-2,4-3.82,5.59-.76.66-2,1.31-.88,2.66a47.67,47.67,0,0,0-6.91,11.95,3.51,3.51,0,0,0-1,2.41c-.82,2.89-3.68,5.44-1.42,8.87.21.31-.32,1.11-.51,1.67-1.84,5.43-2.78,11.15-5.69,16.25a9.5,9.5,0,0,0,.09,10.27c-.45,1.7-1,3.37.7,4.83,1,.87.21,2,.07,3,1.29,3.79,2.36,7.7,3.75,11.39,1.09,2.89,1.65,5.85,2.6,8.73,1.12,3.36,3.11,4.24,5.9,2.18,15.46-11.45,33.11-15.13,51.91-14.9,1,0,2,0,3,0,.84,0,1.69-.09,3.17-.18,0,0,0,.08,0,.13v.1c-4.13,1.95-7.9,2.5-11.52,3.24-13.21,2.69-24.73,8.35-34.12,18.17a22.84,22.84,0,0,1-5.91,4.67c-2.22,1.15-4,.8-5.55-1.23a19.55,19.55,0,0,1-2.17-4c-.6-1.36,0-3-1.48-4.72-.83,3.7.33,6.43,2.13,9a51.08,51.08,0,0,1,3.1,5.32c1.72,3.19,2.31,7.37,6,9.37-.48,2.72,1.6,3.61,3.47,4.34a12.36,12.36,0,0,1,5.21,4.43c.66.86.19,1.71,0,2.56,1,3.77,3.66,5.34,7.38,5.45l4.48,2.58c2.37,0,4.77,1.09,7.09-.24,1.8,2.3,4.39,3.74,6.36,5.8,3.68,3.84,8.53,4.76,13.17,2.15a22.09,22.09,0,0,0,7.94-7.72,56,56,0,0,0,4.3-9.66c2.92-7.63,5.52-15.39,10-22.32,4.94-7.62,11.79-13,19.75-17.32.13,1.14-.61,1.52-1.06,2a61.67,61.67,0,0,0-15.93,29.74,52.88,52.88,0,0,1-5.25,14.13,44,44,0,0,1-8.9,9.33c-3.83,2.76-8.08,3.77-13.54,3.15,6.68,3.79,18.38-2.73,23.44-12.12a30.53,30.53,0,0,0,4-8.69c2.11-6.36,2.91-13.16,6.49-19,8.8-18.44,21.45-26.86,40.55-27.38,1.48,0,3,.37,4.43-.29,1.38.22,2.78.37,4.14.66,4,.87,5.73,4.13,4.35,8-3.33,9.3-9.21,17-15.85,24-5.77,6.14-11,12.49-13.92,20.57-5,13.83-3.05,22.35,7.53,32.46,4.12,3.94,8.52,7.36,13.88,9.42,7.57,4.65,15.68,4.16,23.89,2.4,7.66-1.64,15.37-3,23.1-4.16h0c5.47.51,9.92,3.33,14.32,6.28,1.89,1.27,3.41,3.11,5.72,3.75,6.75,7.87,15.17,7.49,21.54-.46,2.55-3.17,5.87-5.74,7.72-9.53.31-.65.84-.71,1.51-.51a2.71,2.71,0,0,0,2.31-.5c4.39-3.11,9.84-5.06,11.68-10.93.57-1.83,3.1-1.37,3.93-3l2.91-2.48c.68.24,1.19,1.14,2.11.51,6.79-4.66,14.35-3,21.65-2.26,4.8.52,9.18.38,13.25-2.39,3.95-1.89,5.5-5.7,7.21-9.28a93.38,93.38,0,0,0,6.32-18.08c1-2.71.78-5.5.46-8.28-.16-1.3.15-1.72,1.41-1.21A44.43,44.43,0,0,0,412.68,214c.29,0,.55.48.82.73,2.38,1.91,5.4,2.47,8.06,3.78a34,34,0,0,1,11.79,9.14c5.79,7.16,11.09,14.51,12.45,24a1.12,1.12,0,0,0,0,.35q.65,5.9,1.28,11.79c.2,13.33-2.42,26.32-4.7,39.36-.22,1.27-.34,2.57-.51,3.86-1.3,3.39-1.21,7.15-2.78,10.47-5,9.5-8.54,19.28-5.54,30.24,1.59,5.77,4.5,10.68,9.55,14.12a8.92,8.92,0,0,0,1.44,1.5c8.56,5.53,9.64,14,8.86,23.06-.21,2.55-1.29,5.06-2.17,7.52-5,14-1.59,26,8.45,36.38a74.72,74.72,0,0,0,41.09,22.08c1.66.31,3.75,1.85,5-1.22C502,451.61,499.8,449.09,497.5,446.7ZM314.15,173.51c-3.14-2.08-7.09-2.47-9.84-5.12a21.29,21.29,0,0,1-11.09-10.91,11.39,11.39,0,0,1-2.82-5.61c1.35-.85.33-1.72,0-2.58-1-2.68-2.47-5.22-2.53-8.59l2,3a3.8,3.8,0,0,0,.66,1c5.2,9.94,12.47,18.16,20.94,25.42A7,7,0,0,1,314.15,173.51ZM289,88.21c1.73,8.07,1.48,16.45,3.74,24.42,3,10.43,5.34,21,8.83,31.31,2.56,7.94,6.05,15.5,9.41,23.17-3-1.89-5.85-4-7.3-7.25-4.08-9-8.67-17.79-9.6-27.87a96.21,96.21,0,0,0-3-16.34,101.14,101.14,0,0,1-3.33-30.18C289,86,288.79,87.2,289,88.21ZM315.3,24.3h0l4.61.41c-9.45,1.87-16.85,6.74-21.91,15a69.6,69.6,0,0,0-7.08,17c-5.16,17.73-6.45,35.68-2.42,53.78,1.87,8.37,3.79,16.7,4.84,25.22a37.48,37.48,0,0,0,3,10.71c1.32,3,2.5,6,3.75,9l-.63.38c-.71-.91-1.45-1.79-2.12-2.71-6.56-9-10.48-19.12-13.19-29.94-5.36-21.43-7-42.73-.24-64.14,2.57-5.24,5.07-10.51,7.72-15.71C296.72,33.42,304.2,26.58,315.3,24.3ZM306.14,26h0c-5.56,4.29-11.1,8.59-14.48,15-.84,1.59-1.45,3.33-2.79,4.62-1.93,4.32-4.64,8.27-5.89,12.89h0c-5,14.1-5.91,28.62-4.27,43.36.86,7.75,2.86,15.3,4.54,22.9,1.09,4.1,2.57,8.11,2.9,12.39-.5,1.5.53,3,.09,5-1.41-5.62-2.7-10.74-4-15.85h0c-.08-1-.94-1.93-.55-3h0c-.19-.56-.37-1.11-.55-1.66-1.43-3.74-3.23-7.33-4.3-11.19-.09-.28-.16-.56-.23-.84a38.68,38.68,0,0,1-2.95-20.94c1-8.78,1.83-17.61,4.52-26.1,1.95-6.3,5.89-11.5,9.35-17C292.48,37.84,296.94,29.66,306.14,26Zm-8.64,4.21c-5,4.89-8.55,10.92-12.44,16.67-3.22,4.77-6.45,9.51-7.83,15.22-3.78,14.06-7,28.23-3.42,42.8,1.71,7,5.52,13.41,7.38,20.45a0,0,0,0,1,0,0c.07,2.4,1.22,4.57,1.52,6.9.28,2.18,2,4.17,1,6.53-.42-1.94-2-3.22-2.85-4.9-3.8-7.26-6.56-15-9.8-22.45a43.75,43.75,0,0,1-2.86-25.18,126.74,126.74,0,0,1,16.61-44.17c3.16-3.8,5.8-8.08,10-10.94C295.57,30.62,296.21,29.44,297.5,30.21Zm-10.6-.73a11.54,11.54,0,0,0,3.53-2.15c3-.51,5.95-1.17,9.13-.89-.64,1.29-1.89,1.43-2.7,2.15-5.63,3.11-9.73,7.74-13.09,13.11-6.54,8.81-9.84,19.1-13.49,29.24a83,83,0,0,0-3.9,17.37,41.07,41.07,0,0,0,2.5,21.09c3.94,9.71,7.56,19.57,12.85,28.68.47.8.55,2,1.8,2.19,1.77,4.95,4.77,9.41,5.84,14.71L287.52,153c-3.54-5.49-7.11-11-10.6-16.49a100.7,100.7,0,0,1-14.71-41.21c-.18-8.49,1-16.85,2.21-25.22a31.14,31.14,0,0,1,2.76-8.91c2.37-5,4.5-10.12,7-15.05a58.49,58.49,0,0,1,11.6-15.73A1.54,1.54,0,0,0,286.9,29.48Zm-8,3.44c1.5-1.23,2.92-3.08,5.35-2.55-6.26,4.93-10,11.7-13.31,18.68-1.9,4-3.6,8.07-5.41,12.09a32,32,0,0,0-2.67,9.54c-.87,7.87-2.32,15.7-1.74,23.68a82.24,82.24,0,0,0,7.46,29c3.78,8.09,7.91,16,13.44,23.12a11.32,11.32,0,0,1,.95,1.87c1.16,1.19,2.45,2.3,2.42,4.18-.95-.86-2.17-1.48-2.49-2.88-6.87-7-13.35-14.25-17.51-23.36A102,102,0,0,1,257,68.22c.52-1.84,1.16-3.65,1.54-5.51a42.08,42.08,0,0,1,12.18-22.19C273.43,37.93,276.05,35.27,278.93,32.92ZM273.55,36a49.86,49.86,0,0,0-17.44,31.77c-.25,1.07-.53,2.14-.75,3.22-1.91,9.46-.68,18.86.54,28.26a84.52,84.52,0,0,0,22.89,48.3c4.64,4.91,10.21,8.85,14.43,14.17l6,5.18-.31.41-3.29-1.22a9.16,9.16,0,0,0-2.45-3c-2.28-1.24-4.28-3-6.81-3.77a62.31,62.31,0,0,1-20.77-21.41c-4.34-7.83-6.19-16.62-9.61-24.8l-.82-.33,6,18.86c.16.5.46,1,0,1.48l-.3-.09-4.29-5.78v0A150.8,150.8,0,0,1,247.13,89c-1-9.52,2-18.26,5.43-26.89-.05-1.52.89-2.67,1.47-4,.95,1.76-.29,3.22-.67,4.8-2.29,8.57-3.83,17.22-2.9,26.15l.93.84c-.74-9.59,1-18.87,3.44-28.06.38-1.46.65-3,1-4.42C256.25,45.81,264.41,40.52,273.55,36Zm-22.4,82.73c-1.77-3.6-3.43-7.25-5.32-10.79-6.57-12.28-5.79-24.71-1-37.26.21-.56.42-1.12.62-1.68q3-5.52,5.93-11.05A19.51,19.51,0,0,1,255,51.69,13.42,13.42,0,0,1,252.66,58c-.56,1.4-1.08,2.82-1.68,4.21-5.34,12.41-6.85,25.18-3.46,38.38,1.37,5.36,2.82,10.7,4.09,16.09C251.73,117.17,253.34,118.56,251.15,118.71Zm-2.48-61.12c.63-.71.94-2.11,2.42-1.59l-6.58,12.57c-2.81,4.53-3.9,9.6-4.44,14.79a57.21,57.21,0,0,0,.45,16.42c1.09,4.19,3.93,7.56,5.4,11.57,2.65,4.86,4.87,10,8.12,14.48,2.54,3.52,4.53,7.5,8.06,10.26h0l2.46,4.16c-.07,2.13-.86.53-1.21.19-3-3-6-6-9.05-9-.57.43-.18.94-.12,1.43,4.15,4.29,8.13,8.76,13,12.34,3.46,3.41,6.71,7,10.79,9.77l8,5.25a27.31,27.31,0,0,1,3,1.81c.93.72,2.69.49,2.71,2.28h0l-9.68-5h0l-.21-.19c-1.23-1-3.07-1.17-3.93-2.72-1.07-.52-2.18-1-3.19-1.59-12.31-7.56-22.61-17.14-29.32-30.11-7.68-14.85-10.86-30.62-8.73-47.32C240.07,70.42,243.47,63.44,248.67,57.59Zm30.89,101.35c-2.08.33-3.62-1-5.3-1.81-4.73-1.55-8.56-4.72-12.83-7.11-1.18-.93-2.36-1.88-3.55-2.79a79,79,0,0,1-19.16-20.36c-8.08-12.76-7.87-26.5-5.05-40.58-.1-1.39-.49-2.85,1.07-3.76-.22,1.36.31,2.77-.25,4.11a87.47,87.47,0,0,0,3.06,22c5.6,21.13,18.67,36.49,37.1,47.65C276.57,156.65,277.93,158.05,279.56,158.94Zm-52.44-58.62c.73-6.89,1.81-13.67,6-20.31-.81,6.08-1.5,11.36-2.2,16.65A43.71,43.71,0,0,0,232,114c4.48,16.42,15.65,27.56,29.2,36.79,6.19,5.26,14,7.51,21,11.12,1.77.9,3.83,1.35,5.13,3.05-3.13-.74-6.26-1.45-9.38-2.23C251.39,156.16,226.28,129.42,227.12,100.32Zm2.62,23c1.12.55,1.26,1.52,1.65,2.3,8.84,17.79,22.53,30.15,41.22,37,6.75,2.45,13.9,3.39,20.71,5.6a8.79,8.79,0,0,1,4.39,1.41,7.38,7.38,0,0,1-4.82-.37c-10.71-1.26-21.4-2.61-31.53-6.67-15.45-6.18-26.1-16.78-30.58-33.08C230.25,127.56,229.48,125.59,229.74,123.36ZM232,140.72a7.54,7.54,0,0,1-.74-4.16l.78-.27c1,2.36,2,4.73,3,7.1a53.33,53.33,0,0,0,23.75,19.78c12.5,5.42,25.81,7,39.13,8.17a41.08,41.08,0,0,1,24.3,9.94,6.34,6.34,0,0,1,3,2.69,12,12,0,0,1-3.8-1.88h0c-3.57-1.64-7.18-3.2-10.69-4.94-7.45-3.72-15.42-3.35-23.37-3.06-11.39.42-22.49-.29-32.79-6C243.46,161.85,234.41,154.09,232,140.72Zm3.68,13.34c2.08,2.4,3.76,4.64,5.73,6.56,7.22,7,16.08,11.16,25.6,14,5.22.78,10.48.9,15.73,1.23h0l6.3-.19c6.52-.2,13.06-.49,19.28,2.11l3.16,1.3c-1.28.75-2.39.07-3.52-.4h0a6.52,6.52,0,0,0-1.69-.58c-8.16-.43-16.32-.82-24.48-1.22-5.06-.36-10.16-.3-15.16-1.35h0A30.34,30.34,0,0,1,255,172.43c-6.38-3.27-11.83-7.78-17-12.7C237,158.09,235.73,156.53,235.71,154.06Zm4.75,12a1.89,1.89,0,0,1-.49-.57l.49.57-1.24-3c4.89,3.92,9.7,7.75,15.43,10.21,5.69,3.29,12.07,3.58,18.36,4.09,9.1.75,18.22,1.31,27.36,1.5a35.85,35.85,0,0,1,19.37,5.86c.68.44,2,.57,1.56,2a.48.48,0,0,0-.77-.11c-13.17-4.19-26.58-6.89-40.5-6.31-6.15-.82-12.3-1.62-18.44-2.48A42.84,42.84,0,0,1,245,172,20,20,0,0,1,240.46,166.05Zm7.1,10,0,0-.12-.1c.16-.36-1.16-1.65.59-1,2.07.76,4.07,1.73,6.17,2.4,5.9,1.86,12.09,1.91,18.14,2.86,1.37.21,2.95-.16,4,1.14C266,183.54,256.1,183.43,247.56,176Zm8.9,9.59c.09-.16.21-.47.28-.45,13.28,2.1,26.58-.53,39.87.18l8.39.47c.55-.36,1.67.58,1.76-.79-10.81-1.44-21.65-.63-32.47-.33-1.21,0-2.41.09-3.61.13a35.14,35.14,0,0,1-17.25-1.72,23.94,23.94,0,0,1-5.39-3.87l.28-.81a31.11,31.11,0,0,0,10.52,4.88c4.44,1.13,8.89.53,13.35.28h0a76,76,0,0,1,34.95.55,32.31,32.31,0,0,1,10,3.28l-12.36-.82a115.29,115.29,0,0,0-20.72,2C274.55,190.43,265.19,190.92,256.46,185.62Zm14.28,5.94Zm35.47,1.68c-12.14,2.06-24.24,2.33-36.26-.86l.77-.8c4.55,1,9.13.64,13.68.11,7.44-.87,14.74,1.19,22.14.86a.36.36,0,0,1,.09.26A4.26,4.26,0,0,1,306.21,193.24Zm15.1-3-5.92,1a2.85,2.85,0,0,0-1.95.13c-8.72.74-17.35-.76-26-.95a47,47,0,0,1-6.23.58c-.89,0,.23-.44.25-.73l6.33-.91a3,3,0,0,1,1.11-.17c3-.74,6.17-.71,9.27-1,7.32-.66,14.6.72,21.91.44l2.23.41a7.67,7.67,0,0,1,4.46,1.31ZM324,187c-.62-1.41-2.86-1.49-2.79-3.44,2.7,1.52,5.52,2.87,8.14,5.22C327,189,325.62,187.7,324,187ZM110.31,93.44c.28-1.08,1.27-1.47,2-2.1C120,84.8,129.63,83.17,139,80.8c11.12-2.8,21.95-2.52,32.65,1.59,3.75,1.44,7.44,3.06,11.15,4.6l-.39,1C158,84.62,133.65,81.87,110.31,93.44Zm-4.73,7.23a18.37,18.37,0,0,1,8.84-7.47c15.51-6.64,31.67-8,48.24-5.64,8.08,2.81,16.24,5.39,24.15,8.68,13,5.42,20.78,15.13,24,28.7.35,1.47-.54.38-.83.5-8-17.9-22.22-28-40.89-32.72-6.33-1.6-12.74-1.8-19.15-2.32-13.93-1.13-27.34.5-39.68,7.69C108.77,99,107.48,100.33,105.58,100.67Zm70.07,15.38c9.41,3.69,16.53,10.14,22.15,18.44S209,150.7,214.7,158.77c.54.78.87,1.85,2,2.09.54.84,1.09,1.68,1.63,2.53-1.58.78-2.43-.47-3.33-1.31a120.77,120.77,0,0,1-15.36-17.37,128.72,128.72,0,0,0-23-24.2A39.39,39.39,0,0,0,166,114.24c-13.21-5.1-26.28-10.78-40.79-11.14a10.2,10.2,0,0,1-4.87-.42l.51-.12h0a11.38,11.38,0,0,1,5.2-.52l3.8-.19C145.86,104.33,160.75,110.22,175.65,116.05Zm-9.77-4.9h0c1.49-.78,1.49-.78,4.9.51l4.24.86c9,3.14,17.5,7,24.12,14.23a81.72,81.72,0,0,1,10.68,14.68.75.75,0,0,1,.07.12q2.38,5.7,4.75,11.4c0,.12.06.24.08.36.27,1.2.54,2.47,1,4.47-3.65-5.19-6.77-9.71-10-14.18-3.74-5.22-7.4-10.5-11.34-15.57-6.16-7.92-14.87-12-24-15.46h0ZM218,159l-.24-.51c-2.45-6.85-4.59-13.83-8.46-20.08C203.54,128,195.6,120,184.73,115.12a42.56,42.56,0,0,0-9.37-3.35c-4.77-1.72-9.76-2.56-14.67-3.72-8.67-2.5-17.3-5.16-26.18-6.87-1.36-.26-2.73-.76-4.16-.3a34.53,34.53,0,0,0-12.92,1L111,103c.66-1.32,2-1.55,3.21-2.06a54.16,54.16,0,0,1,26-4.2c14.8,1,27.8,7.54,41.16,13.23,12.83,5.45,21.46,14.85,28.6,26.27,4.29,6.86,7.56,14.19,10.81,21.55v0c1.13,3.8,3.08,7.23,4.89,10.77C221.89,166.31,220.33,162.31,218,159ZM201.25,122c-.63-3.39-3.13-5.52-5.35-7.81-9.65-10-22-14.52-35.12-17.42A131.29,131.29,0,0,1,146.9,92.7c-.62-.21-1.65,0-1.61-1.19,4.32.31,8.64.54,13,.93,13.69,1.27,26.18,5.59,36.63,14.82,11.35,10,16.49,23.83,22.3,37.21a10.65,10.65,0,0,1,.3,1.81C212.46,137.45,207.64,129.19,201.25,122Zm-96.46-18.77c11.69-8,23.69-12.55,37.52-10.91,9.79,3.69,20,5.93,30.05,8.85,8.27,2.41,15.28,7,21.57,12.75,1.35,1,3,1.8,3,3.87-.87-1.05-2.35-1.4-3-2.67-9.82-5.84-20.29-10.32-30.92-14.38-18.59-7.08-37.09-8-55.19,1.81A4.19,4.19,0,0,1,104.79,103.23Zm10.3.83c6.11.33,12.31-.25,18.32,1,13.56,2.78,26.91,6.53,38.76,13.87,10.3,6.38,18.17,15.55,25.43,25.13,5.85,7.73,11.93,15.2,19.61,21.21.35.27.95.51.51,1.16a22.34,22.34,0,0,1-7.48-3.84c-5.87-4.44-10.19-10.27-14.53-16.09-5.24-7-10.27-14.18-17.79-19.15a131.9,131.9,0,0,0-37-16.84c-8.87-2.52-17.83-4.24-27.14-2.93a108.9,108.9,0,0,0-14.09,3.36C103.83,106.42,109.14,104.53,115.09,104.06ZM92.94,121.24c2-5.42,6-8.52,11.52-10.11,8.35-2.43,16.82-3.37,25.36-1.71a130.15,130.15,0,0,1,35,12c10.51,5.41,19.93,12,26.73,22,5.43,8,11.14,15.93,19.28,21.8-2.31,1.15-3.52-.83-5.16-1.19a47.58,47.58,0,0,1-14-16.33,47.16,47.16,0,0,0-17.4-18,139.15,139.15,0,0,0-36.54-15.59c-15.77-4.36-30.5-2.73-43.72,7.61C93.41,122.13,93.16,121.75,92.94,121.24ZM97.26,124c-2.41,1.65-4.42,3.88-6.8,6,0-2.43,1.46-3.85,2.34-5.51,10.1-9.16,22.08-13,35.42-11,17.6,2.6,33.67,9.49,48.53,19.23,6.69,4.38,11.25,10.57,15,17.46.44.79.85,1.62-.7.91-4.64-6-9.47-11.8-15.94-15.93-17.6-11.27-36.78-17.15-57.77-16.72C110.19,118.58,103.29,119.87,97.26,124Zm11.86-3.11c7.38-1.63,14.83-1.31,22.19-.23,22.08,3.22,42.05,10.72,56.69,28.74,3.93,4.84,7.66,9.85,12.3,14.35-1.56.45-2.44-.58-3.53-.56-8.36-5.37-15.36-12.37-22.62-19-19.39-17.81-42.05-25-68.13-21.26l-.07-.08,0,.09c-2.69.83-5.2,2.37-8.16,2.2C101.35,123.19,105,121.29,109.12,120.87ZM88.61,141c.59-4.52,2-8.61,5.47-11.76,12.75-8.13,26.54-6.62,40.45-4.52,12.48,1.88,22.89,8.06,32.82,15.31,1.09.81,2.48,1.34,3.14,2.69L190.2,160h0c1.41.9,3.18,1.36,3.85,3.17-1.45-.68-3.15-.92-4.15-2.37a22,22,0,0,1-5.83-3.67c-4.91-4-9-8.83-13.69-13.09-3.28-2.06-6.56-4.15-9.86-6.19-10.57-6.5-22.44-8.65-34.47-10.14-13.91-1.73-25.75,2.73-35.68,12.48C89.86,140.66,89.47,141.14,88.61,141Zm100.32,22.56c-7-2.07-13.19-5.38-18.1-10.89-3.66-4.09-7.36-8.14-11-12.21-1.65-1.06-3.84-1.53-4.35-3.88l4.48,2.56a67.9,67.9,0,0,1,14.23,10.48c5.1,5.1,10,10.34,16.74,13.44C190.65,164.73,189.5,163.68,188.93,163.51ZM84,153.66c-.4-2.62.94-4.75,2.35-6.61C95.43,135,107.22,127.89,122.78,129a92.37,92.37,0,0,1,25.66,5.21c7.92,4.12,14.12,10.23,19.64,17.12a41.77,41.77,0,0,0,7.79,7.47l5.25,3h0l-.33.76c-1.7-.74-3.61-1.07-5-2.49-5.07-2.26-8.91-6.18-13-9.76a75.47,75.47,0,0,0-15.62-10.81c-20-10.24-45.22-3.27-58.42,9a30,30,0,0,0-4.26,5.08Zm3-1.1c19.35-20.16,49-22.05,70.82-4.52,1,.76,1.89,1.52,2.79,2.32,6.11,5.41,12.21,10.82,20.09,13.62l2.08.51c.32,1,2.4,0,2.12,1.75-1.51-.58-3.22-.39-4.64-1.29-3-1.52-6.52-1.92-9.53-3.59-4.32-2.39-8.71-4.65-13-7-8.52-4.66-17.15-9.46-26.94-10.29-15.07-1.29-29.83.07-42.87,9C86.93,153.66,87,153.29,87,152.56Zm.34,10c-.81.55-1.78,1.52-2.69,1s-.21-1.85-.4-2.81v0c2.09-3.83,4.4-7.48,8.59-9.33,13.63-6,27.76-8.22,42.47-5.08,10.31,2.2,19.07,8,28.33,12.6,1.34.68,3.08.92,3.59,1.92l-4.7-1.76-.56-.2c-4.8-1.79-9.74-3.61-14.63-5.59-5.08-2.07-10.19-3.84-15.75-3.82C115.55,149.58,100.65,153.4,87.31,162.56Zm-.59,8.95a5.24,5.24,0,0,1,1.25-7.8,73,73,0,0,1,27.49-11.26c11.88-2.3,23.32-2.31,34.42,3.53,6.49,3.42,13.41,6,20.14,9,5.63,1.4,11.12,3.44,17,3.7.48.07,1.07.37,1.42.19,3-1.54,6-.31,9-.1,1.46.09,0,.52-.09.8a56.57,56.57,0,0,1-19.16-.67l-9-2.8c-6.38-1.27-12.11-4.39-18.2-6.45-10.3-3.48-20.64-5.56-31.33-1.6a143.9,143.9,0,0,0-20.1,9.07c-3.07,1.72-6.2,3.34-9.35,4.93C89,172.66,87.76,172.82,86.72,171.51Zm1.41,4.69c-.4-1.65-.12-2.17,1.57-2.64a27,27,0,0,0,5.73-2.66,169.63,169.63,0,0,1,19.21-9.5c7.26-2.9,14.65-5.25,22.62-3.86a82.63,82.63,0,0,1,19.09,5.58,84.46,84.46,0,0,0,13.11,4.49c1.93.49,4.2.46,5.76,2.12-3,.87-5.84-1-8.81-.45-4.73-.94-9.44-1.93-14.18-2.82a67.25,67.25,0,0,0-25.49.25,99.37,99.37,0,0,0-31.61,12.4C90.11,182.08,89.47,181.62,88.13,176.2ZM146.7,174c-18-.07-35,3.66-49.95,14.3-3.75,2.67-4.59,2.16-5.56-2.5-.15-.69-.3-1.38-.42-2.07s-.09-1.32.83-1.64c6.41-2.21,11.82-6.41,18.13-8.89,15.38-6,31-8.51,47.28-4.26a26,26,0,0,0,8.54,1.25l2.28.41c.16,1.22-1.06.87-1.54,1.36l-1,.28C159.1,173.11,153,174.05,146.7,174Zm-45.41,32.79a2.27,2.27,0,0,1-1.39-2.15c0-.67.46-.81,1-.89,3.65-.52,6.16-3,8.51-5.42a63,63,0,0,1,33.58-18c4.87-1,9.69-2.27,14.53-3.42,0,.13.06.26.08.38-2.12.88-4.22,1.81-6.36,2.64-12.55,4.89-24.72,10.33-34,20.63-2.54,2.82-6.14,4.54-9.73,6C105.44,207.36,103.39,207.81,101.29,206.82Zm3.65,8.43,0,.08v-.08h0c.29-.55,1.09-1,.35-1.73-1.14-1.08-3.07-1.94-2.44-3.76s2.78-.88,4.2-1.37c2.81-1,5.19-2.79,8.75-4.25-2.29,3.55-4,6.5-6,9.16C108.7,214.71,107.22,216.28,104.94,215.25Zm2,1.56c3.54-1.31,5.34-4.22,7-7.22,6.65-11.68,16.61-19.49,28.85-24.62,6.69-2.8,13.4-5.54,20.09-8.32l.21.07.13-.18a4.54,4.54,0,0,0,.82-.14,52.67,52.67,0,0,0,5.77-1.91c8.79-2,17.77-1.32,26.63-2.31-1.86,1.52-4.19,1.41-6.23,2.2-1.8.15-3.59.42-5.39.44-7.19.08-13.83,3.14-21,3.71-3.65.28-7.12,2.65-10.69,4.05-11.93,4.67-21.61,12-27.64,23.57-2,3.75-3.87,7.56-6.77,10.68C113.86,222.16,112.24,220.76,107,216.81Zm5.72,4.71c3.38,0,5.22-1.51,6.87-3.32a32.07,32.07,0,0,0,4.83-6.9,100.62,100.62,0,0,1,7.12-11.55c4.71-6.7,11.25-10.91,18.9-13.63l-3.23,3c-6.33,5.14-10.87,11.61-14.51,18.89-2.55,5.08-5.39,10.1-10.21,13.54C119.51,222.83,116.57,225,112.7,221.52Zm2.84,6c-.44-1.31-.73-2.57,1.47-2.66a11.27,11.27,0,0,0,7-3.13c4.26-2.42,6.46-6.68,8.46-10.71a70.31,70.31,0,0,1,16.22-21.81c4.11-2.73,7.71-6.3,13-7.81a19.7,19.7,0,0,1-1.84,1.58c-12.35,8-21.09,19-27.66,32-2.55,5-5.29,10-9.14,14.14A4.6,4.6,0,0,1,115.54,227.48Zm9.08,5.42c-1-.37-2.16-.83-1.43-2.35,3.82-3.29,6.22-7.61,8.56-12,4.62-8.63,9.42-17.09,16.36-24.18,10.16-10.38,21.94-17.27,36.76-18.06.95-.05,2-.67,2.83.34l-1.44.71h0c-.65.26-1.32.47-2,.76-12.75,5.83-23.53,14.47-32.92,24.61-8,8.69-15.59,18-18.05,30.2C130.4,234.36,127.49,233.93,124.62,232.9Zm13.55,4.76a3.58,3.58,0,0,1-3-3.62,16.92,16.92,0,0,1,2.11-8.72,96.51,96.51,0,0,1,19.55-26c11.25-10.52,23.8-18.94,38.27-24.36a6,6,0,0,0,2.25-.77c7.15-2.81,14.42-5,22.25-3.5,2.22-.11,4.13,1,6.2,1.52-2.44,1-4.75-.19-7.12-.41a54.37,54.37,0,0,0-5.72.28c-22.27,3.29-40.3,13.94-54.32,31.49-7.64,9.55-12.61,20.59-17.72,31.55C140.36,236.29,140.3,238.18,138.17,237.66Zm30.64-27.83c-3.13,6.55-5.12,13.55-8.05,20.17-2.35,5.32-5.67,9.75-11.29,11.95-3.07,1.2-5.8.54-8.29-1.9,4.44-1.88,7.06-5.18,8.92-9.24,2.89-6.31,5.13-12.94,8.84-18.85,5-8,12.53-13.52,20-19.05a12.35,12.35,0,0,1,6.55-3.52l-3.68,2.85A51.43,51.43,0,0,0,168.81,209.83Zm48.78-34.32c-20.69,3.63-38.27,13.22-53.34,27.67a44.58,44.58,0,0,0-10.34,15.45c-1.77,4.28-3.59,8.54-5.59,12.72-1.42,3-3.27,5.64-7.08,7.2,2-5.78,4.8-10.53,7.17-15.47C160,199,178.16,182.54,204.09,175.19a41,41,0,0,1,21.08-.87C222.42,175.54,219.94,175.1,217.59,175.51ZM227,165.07l-5.36-12.84-.21-.58-1.89-6.34c.34-1.51-.46-2.75-1-4a175.58,175.58,0,0,1-7.8-20.9C207,108,198.61,100.08,187,95.1c-5.74-2.47-11.68-4.35-17.6-6.3-.76-.25-1.86-.07-2.15-1.21,3.5.38,7,.68,10.5,1.16a40.13,40.13,0,0,1,20.64,8.58,58.38,58.38,0,0,1,16.38,21c2.48,7.56,5,15.11,6.77,22.89,1.87,8.18,4.36,16.18,8.61,23.5,2.16,3.73,4.58,7.32,7.22,11.49C232,173.76,229.77,169.14,227,165.07Zm68.29,37.77c10.41,1.54,20.62,3.87,30.27,8.19,9.86,4.41,18.84,9.85,22.37,21a.7.7,0,0,0,0,.55c0,.35,0,.78-.06,1.4-.71-.88-1.26-1.47-1.7-2.13a37,37,0,0,0-24-16.36c-12-2.51-23.94-5.47-34.43-12.3-.75-.48-2.77-.35-1.84-2.3A53.88,53.88,0,0,0,295.26,202.84Zm-12.46-1.3c8.22,6.09,17.47,9.93,27.31,12.49,4,1,8,2,12.06,2.85,13.39,2.71,21.53,11.47,27.15,23.23-.5,2.41.6,5.17-1.59,7.2a61.86,61.86,0,0,0-1.93-7.58c-4.09-10.46-12.56-15.89-22.76-19.08-6-1.86-12.23-2.44-18.15-4.59-11.46-4.17-21.56-10.87-32.09-16.78-.47-.26-1.25-.46-.63-1.29C275.71,199.2,279.48,199.69,282.8,201.54Zm-23-8.29,1.31.44h0c2.2,1.62,4.32,3.37,7,4.08q8.3,4.92,16.58,9.85c10.36,6.19,21.21,11.12,33.22,13.13a34.1,34.1,0,0,1,8.43,2.31c9.32,4.24,17,10,19.24,20.83.84,4.13.5,7.8-3,10.66-2.45,1.4-3-.06-3.08-2.09-.14-10.78-6.3-17.69-14.84-23-6.66-4.13-14.14-6.39-21.56-8.58-12-3.52-23.81-7.08-33-16.17-3.56-3.51-7.18-7-10.77-10.43a6.29,6.29,0,0,1-2.76-2.67A7.82,7.82,0,0,1,259.8,193.25Zm77.85,55.14c-.49-.35-.67-.41-.75-.54a16.44,16.44,0,0,1-.88-1.59c-2.66-5.61-7.17-9.26-12.39-12.39-7.44-4.46-15.78-6-24-7.89-11.74-2.76-22.19-7.87-30.48-16.81-2.57-2.76-4.81-5.82-7.19-8.75a9.48,9.48,0,0,1-3.48-5.28l3.4,3.22c.18.07.42.09.53.22,7.79,8.95,16.74,16.19,28.3,19.83,8.06,2.55,16.21,4.84,24.13,7.84,7.1,2.68,13.47,6.38,18.4,12.24A18,18,0,0,1,337.65,248.39ZM242,185.76c1.17,2.78,2.36,5.56,3.5,8.36A22.12,22.12,0,0,1,246.59,206c-1.44,9.65-2.76,19.32-4.14,29-1.21,8.47,1,15.75,7.49,21.52l0-.39a.65.65,0,0,1,0,.39c4,4.33,9.3,6.58,14.54,8.91,1,.43,2.2.46,2.87,1.51-4.18-.39-8.43.15-12.56-1.08-11.76-3.48-22.56-16-21.5-31.2.56-8,3.13-15.59,4.89-23.34,1.86-8.23,4.34-16.42,3-25Zm9.43,82.54c-2.51.35-4.93-.47-7.38-.81-21.22-9.37-25.34-31.08-9-49.7a11,11,0,0,1-.33,2.06,51.21,51.21,0,0,0-2.83,17.51c-.05,13.17,10.21,26.71,22.48,29.8C253.84,268.82,252.41,268.16,251.38,268.3Zm-22.52,2.24h0c-.78-.93-2.2-1.08-2.75-2.28-6.2-2.85-10.83-7.6-15.12-12.7a20,20,0,0,1-4.48-17.5,48.32,48.32,0,0,1,13.07-25.38c7-7.12,13.23-14.91,17.4-24.13a4.18,4.18,0,0,1,1-2.67,2.6,2.6,0,0,1,.13,2.77c-3.29,9.45-5.8,19.22-11.63,27.6-2,2.81-3.91,5.63-5.74,8.52-4.61,7.29-8.1,14.85-5.81,23.88,1.85,7.31,5,13.76,11.13,18.46l1.9,1.09c1.71,1.92,4.31,2.67,6.51,4.61C232,272.68,230.66,271.1,228.86,270.54Zm39.67-1.14a2.74,2.74,0,0,1-.8.08c-6.12,1.13-12.25,2.22-18.35,3.41a22.58,22.58,0,0,1-17.81-3.52c-1.07-.73-2.19-1.38-3.29-2.06-.37-.34-.72-.69-1.11-1-11.87-9.95-14.48-23.86-7-37.38a30.34,30.34,0,0,1,2.66-4.39c7.72-9.62,12.14-20.85,16.05-32.33a3.17,3.17,0,0,1,1.12-3,6,6,0,0,1-.11,3.93c-1.33,7.87-2.9,15.68-6.61,22.85-2.08,4-4.12,8.08-6.51,11.92-10,16,3,37.53,16.76,40.6a18,18,0,0,0,12.84.41l12.22-.36c1.22-.65,2.51-.4,3.79-.32C271.47,269.9,269.93,269.38,268.53,269.4Zm8.55-1.1a34.51,34.51,0,0,0-7.51-2.23c-5-2.07-10.12-3.95-14.61-7.08-1.72-1.2-3.29-2.62-4.93-3.94a21.64,21.64,0,0,1-5.89-20c1.8-9.4,2.37-19,4-28.39.55-3.2,1.11-6.48,0-9.72l-4.28-10-.57-2c1.71.79,1.87,2.72,3.21,3.65a42.32,42.32,0,0,1,3.45,11,48.47,48.47,0,0,1,1.1,14.61c-.31,7.19-1.93,14.34-.68,21.58h0c.73,6.44,4.37,11.11,9.3,14.89a116.81,116.81,0,0,0,14.3,9.05c6.73,3.75,13,8.06,17.93,14.12l1.29,3.11C288,272.72,283,269.69,277.08,268.3Zm-24.23-53.12c1.85,3.86,2.22,8,2.8,12.11,1.1,7.79,3.88,14.78,9.43,20.49a85.38,85.38,0,0,0,15.56,12.4c3.63,2.31,7.56,4.31,9.72,8.36.08.46.16.93.32,1.82l-.11.06a66.14,66.14,0,0,0-12.64-9.8c-4.35-2.53-8.62-5.19-12.91-7.8-5.72-3.48-10.4-7.89-12.78-14.34C250.35,230.67,252.13,223,252.85,215.18ZM304,283.37c-1.1.43-2.3-.49-3.29-1.19a17,17,0,0,1-5.84-7.55c-2.74-6.57-6.44-12.25-13.18-15.46-3.74-1.79-6.86-4.57-10.1-7.13-8-6.29-13.36-14.16-14.59-24.48-.18-1.55-1.07-3.09-.3-4.92l3.8,7,.06.12a35.48,35.48,0,0,0,10.13,11.82c6.53,5.06,13.11,10,19.58,15.2A45,45,0,0,1,300,267.08a29.53,29.53,0,0,1,4.53,13.31C304,281.37,305.23,282.89,304,283.37Zm3-.14c-1-.22-.52-1.15-.31-1.74,4-11.09-.54-20-7.15-28.47-4.82-6.14-11.22-10.34-17.68-14.47-6.29-3.42-12.47-7-16.3-13.41-.22-.38-.64-1-1.39-.79h0v0c.47,2.38,2,4.09,3.6,5.77,3.35,3.56,7.46,6.08,11.61,8.54,7.55,4.46,14.91,9.18,20.16,16.46,5,6.9,8.92,14.12,6.66,23.12-.82,0-.94-.65-1-1.24-1.29-8-6-13.87-11.81-19.13a175.86,175.86,0,0,0-15.84-12.58c-7.08-5.12-13.45-10.85-17.54-18.75h0c-4.5-8.11-6.56-17-8-26.89a79,79,0,0,1,8.29,17,10.24,10.24,0,0,0,2.16,5.28c.25.64.24,1.51,1.3,1.37a2,2,0,0,0,.22.5c1-.91-.36-1.68-.13-2.61l1.33,1h0c.44.67.86,1.35,1.33,2,4.08,5.65,9.62,9.57,15.59,13,6.23,2.75,12.48,5.47,18.23,9.19a42.44,42.44,0,0,1,9.49,9.09h0a29.79,29.79,0,0,1,3.41,21,16.77,16.77,0,0,1-2,5.66C310.13,283.69,308.46,283.53,307,283.23Zm7.57-3.22c-.09.16-.5.14-.87.22,2.41-9.39,2.07-18.28-3.9-26.3-4-6.47-10.41-9.92-16.89-13.22-3.59-1.83-7.33-3.37-10.95-5.13-7-3.38-12.33-8.65-16.77-14.91A22.41,22.41,0,0,0,262,216c1.29-1.33,1.62.39,2.11.82,3.06,2.71,5.86,5.72,9,8.3,6,4.88,13,7.8,20.32,10,2.36,1.6,5.09,2.39,7.65,3.54,11.89,5.31,17.66,14.61,18.38,27.45C319.82,271.57,317,275.68,314.55,280Zm-.49-39.37c-2.9-1-5.7-2.31-8.8-2.67-3.82-1.16-7.44-3-11.41-3.69-4.92-1.92-10-3.55-14.56-6.27a5.2,5.2,0,0,1-2.88-1.68l.45-.82,2.82,1.56,1.33.17a30.77,30.77,0,0,0,3.57,1.51c6.16,1.76,12.32,3.53,18.53,5.1a33.75,33.75,0,0,1,13.16,6.85C315.51,242.11,314.7,240.86,314.06,240.64Zm3.26,2.75c8.9,4.44,12.84,21.42,3,29.58a33.1,33.1,0,0,0-2.11-19.56,28.31,28.31,0,0,0-10.78-12.92c2.23-1,3.88.73,5.77,1.26A40.13,40.13,0,0,1,317.32,243.39ZM329.12,267c-2,.91-2.49.39-2.11-1.64,2-10.61-2.26-18.78-9.95-25.62a7.26,7.26,0,0,1-3.19-2.74c1.5.34,2.56.44,3.31,1.35,8.55,3.85,14.53,9.8,16.52,19.34C334.7,262.45,333.66,264.92,329.12,267Zm7.36-5.84c-1.35-.07-.82-1.4-1-2.17-1.83-8.72-6-15.63-14.21-19.92-12.58-6.55-26.24-9.54-39.86-12.75-8.77-2.5-14.9-8.61-20.72-15.14a131.49,131.49,0,0,1-11.47-20,35.89,35.89,0,0,0-2.9-4.54c-.25-.64-.64-1.28-.07-2l7.84,7.87c2.64,3.42,5.38,6.77,7.9,10.28a60.28,60.28,0,0,0,35.46,24.16c5.29,1.31,10.66,2.35,15.84,4,10.79,3.43,19.81,9.16,23.57,20.65.78,2.39,2.21,4.77,1.48,7.48C338.1,260,337.7,261.19,336.48,261.12Zm-4.2-48.7c-11.48-6.1-23.8-9.28-36.53-11.2-1.44-.22-3-.05-4.73-1.71,5.18-.15,9.84-.25,14.49-.43a56,56,0,0,1,29.12,6.72c11.15,6,19.07,14.48,19.93,27.92.29,4.62-1.57,11.21-3.83,13.35C352.5,231,346.59,220,332.28,212.42Zm21.26,34.77c4.58-10.67,3.48-20.26-2.2-29.06-5.49-8.51-13.81-13.71-23.07-17.55,10,.75,19.11,3.67,26.5,10.77,8.52,8.19,10.38,18.93,5,29.23A16.71,16.71,0,0,1,353.54,247.19Zm2.62,1c12.2-12.26,10.48-28-1-39.58a30.33,30.33,0,0,1,9.92,5.72c6.44,5.43,8.81,12.72,8.39,20.79C373,243.44,366.41,248.16,356.16,248.18Zm11.38-.61c5.34-3.38,8.1-8.11,7.81-14.21-.47-10.1-4.48-18.32-13.54-23.5a89.18,89.18,0,0,0-25.4-10.27,9.87,9.87,0,0,1-4.62-1.11c1.86-.15,3.69-.61,5.52.05,12,1.57,23.46,5.08,33.54,12a25.28,25.28,0,0,1,9.84,27.79C379,244.18,373.26,248.32,367.54,247.57Zm5.56,1c6.89-2.63,9.69-8,10.07-14.87.59-10.71-3.28-19.27-12.38-25.26-9.43-6.22-20.11-9.1-30.93-11.6h-6.48c2.25-1.79,4.86-1.11,7.38-1.07,13.71-.4,26.4,2.43,37.19,11.5,2.2,1.85,3.66,4.26,5.51,6.36l.78,1.45c.85,2.05,1.71,4.1,2.56,6.16,1.61,7.83,1.68,15.54-1.88,23C380.74,249,376.83,250.44,373.1,248.58Zm13.62-4.91c.52-1.37,1-2.74,1.57-4.11a40.8,40.8,0,0,0,.74-13.13,27.88,27.88,0,0,0-5.75-14.83c-6.07-8.73-15.07-12.77-24.91-15.25-9.1-2.28-18.35-2.13-27.61-1h0l-5.48.89h0c-.41-.46-1.24.33-1.52-.51h0l7.62-2,1.41,0c1.25-.83,2.91.2,4.09-.93,11.1-3,22.2-2.11,33.09.73a23.11,23.11,0,0,1,16.2,13.77c1.43,3.43,2.88,6.86,4.08,10.38,2.56,7.52,2.5,15-.9,22.29A6.84,6.84,0,0,1,386.72,243.67Zm10-23.43h0l-2.75,7.8c-.53-7.73-3.7-14.5-6.66-21.32-2.29-5.27-6.18-9-11.13-11.92-6.25-3.64-13.21-4-20.1-4.78L351.5,190l.3-.86h0c1.73-.09,3.46-.56,5.2-.11a90.82,90.82,0,0,1,14.75.15c11.65,1.06,20.05,6.52,24.14,17.84C396.6,211.38,397.6,215.75,396.72,220.24Zm1.16-11.45h0c-.68-2.11-1.91-4.05-2-6.36a66.17,66.17,0,0,0,16.92,9.21c.29.1.55.28.34.67C407.92,211.76,402.74,210.94,397.88,208.79ZM578.3,348.32c-22.67,13.6-41.63,32.45-64.82,45.18l-.08,0c-1.63.78-3.29,1.5-4.89,2.36a25.85,25.85,0,0,1-21,2c-4.83-1.58-9.05-4.32-13.22-7.15a4.15,4.15,0,0,1-.25-.57c-.12-.48.18-.56,1-.26q4.55,1.63,9.11,3.2a27.87,27.87,0,0,0,23.36-1.9c7.47-4.11,15.08-8.06,21.78-13.43h0a81.42,81.42,0,0,0,12.07-10.93c9.08-9.95,20.78-15,33.41-18.39C575.88,348.17,577.2,347.64,578.3,348.32Zm-5.23-1.41a58.25,58.25,0,0,1-6.41,2.46c-9.61,3.19-18.19,8.07-25.26,15.44A191.11,191.11,0,0,1,527.29,378h0c-5.51,3.32-11.08,6.57-16.53,10-9.58,6-19.53,7.1-30,2.64l-3.71-1.1c.11-.27.21-.54.31-.81l3.76,1a49.52,49.52,0,0,0,10.47.05c5.78-.65,11.47-1.63,16.39-5.08a38.7,38.7,0,0,0,11.26-6.94,194.94,194.94,0,0,0,16.68-17.09A41.56,41.56,0,0,1,556.79,348,40.25,40.25,0,0,1,573.07,346.91Zm-31.13-24.85a76.75,76.75,0,0,1-3.2-22.65,145.44,145.44,0,0,0-1.83-24.65c-2.3-12.67-10.52-21.7-18.72-30.75,0-1.74.8-.56,1.24-.29a52.5,52.5,0,0,1,14.25,12.81c.42.55.91,1,1.37,1.56a60.94,60.94,0,0,1,9.5,33.86c0,9.94-1.28,19.87-2,29.8C542.54,321.83,542.26,321.9,541.94,322.06Zm-31.2-89.18a56.19,56.19,0,0,1,26.57,20c8.09,11,12.39,22.87,11.59,36.57a165,165,0,0,1-3,21.12c-.24,1.6-.49,3.2-.73,4.81l-.9-.34h0c.23-1.63,0-3.32.62-4.89.53-8.39,1.68-16.75.53-25.18-1.36-10-3.81-19.55-10-27.79a44.14,44.14,0,0,0-13.61-13.29c-1.91-1.26-3.88-2.42-5.82-3.62-4.79-3.69-10.27-6.43-14.69-10.72C504.53,230.48,507.62,231.73,510.74,232.88Zm-1.56,4.68c2.48,1.64,4.39,4,7.08,5.34h0l.07.05-.06,0c1.17,2.63,3.44,4.4,5.21,6.55,5.47,6.69,11.12,13.2,13.34,21.95a94,94,0,0,1,2.57,21.49c.19,11.37.38,22.73,5,33.42.2.48.59,1.1-.15,1.65l-1.64-1.62,0,0c-1.79-3.6-3.49-7.24-5.38-10.78a46.68,46.68,0,0,1-5.42-21.74c-.09-6.32,0-12.67-1.2-18.93-.21-1.08-.57-2.12-.85-3.18a1,1,0,0,1,0-.17c-2.66-11.41-8.75-20.89-16.67-29.32-3.76-4-8.37-7-12.37-10.82C502.52,232.91,505.79,235.32,509.18,237.56ZM488.29,226.7c17.25,9.92,31.16,22.8,37.64,42.3,2.44,8.29,2.52,16.84,2.55,25.35,0,12.64,5.55,23.21,12.1,33.44l1.48,2,.44,1.76v0l0,0c-5.49-4.7-8.93-10.35-12.25-16.1-.7-1.2-1-2.61-2.11-3.6-3.38-7.45-4.74-15.36-5.23-23.44-1.23-20.33-10.64-36.58-24.95-50.42a20,20,0,0,0-4.3-4.17c-2.94-3.17-6.76-5.47-9.31-9.09A21,21,0,0,1,488.29,226.7Zm-27.82-11.22a12.74,12.74,0,0,1,3.19.74,130.1,130.1,0,0,1,15.51,6.64l14.37,12.36,4.28,4.24a84.52,84.52,0,0,1,21.08,33.32c2.12,6.27,2.3,12.82,3,19.3.89,8,2.44,15.89,6.76,22.93,4.22,8.42,9.58,15.87,17.75,20.95l1.05.7,2,1.87c-.06.37.81,1.28-.52.91-.64-.18-1.27-.42-1.91-.63-17-9.27-29-22.88-35-41.42-2-6.07-2.4-12.44-3.4-18.7-3.14-19.65-10.21-37.32-26.45-50a75,75,0,0,0-17.19-10,15.79,15.79,0,0,0-5-2.49,4.13,4.13,0,0,1-3.52-1.77Zm85.94,125.1c-9.41-2.57-18.37-6-24.95-13.7q-2.81-3.3-5.62-6.58l0-.05c-2.78-4.41-6.07-8.53-7.59-13.67-4.14-13.91-8.44-27.77-11.88-41.88-2-8.23-4.43-16.37-9.52-23.38A56.93,56.93,0,0,0,475.64,227a8,8,0,0,1-3.41-3.55l3.51,2.17c14.67,8.54,22.68,22,28.21,37.49,3,8.27,3.21,17,4.85,25.45,4.47,23.09,16.84,40.39,37.91,51.21ZM449.84,212.06c-.13.31-.26.61-.38.92-3.21-.11-6.45.4-9.62-.56A26.71,26.71,0,0,1,449.84,212.06Zm-8,2.63c8,.27,15.38,2.61,22.58,5.82,9.82,5.09,16.58,13.24,22.35,22.37,7.22,12,8.88,25.83,12.71,38.95,2.38,8.13,4.74,16.26,7.15,24.38,1.75,5.93,5.2,10.88,9.11,15.54a48.2,48.2,0,0,0,27.59,19.36c2.63.7,5.53.83,7.78,2.67h0a73.16,73.16,0,0,1-25.6-4.85c-10.6-4-18.12-11.35-22.76-21.7a108.93,108.93,0,0,1-7.45-24.82c-1.43-7.7-2-15.58-4.55-23.06-.26-1.16-.51-2.33-.8-3.49-2.77-11.18-8.78-20.69-15.69-29.64a54.93,54.93,0,0,0-32.79-20.73c-1.66.32-3.08-.51-4.59-.91A10.92,10.92,0,0,1,441.8,214.69Zm-12.62.16,3.85.85c18.92,1.67,33.31,10.59,43.87,26.41a93.29,93.29,0,0,1,12,24.57h0a192.68,192.68,0,0,1,4.2,21,130.62,130.62,0,0,0,6.81,26.59c6.31,16.51,18.37,25.74,35.39,29.08l5.34,1.08c-3.66,1-7.23.35-10.81.1a74,74,0,0,1-17.2-6.19c-16.78-8.53-25.22-22.38-26.74-40.85-.47-5.69-.66-11.42-1.86-17a.68.68,0,0,1-.29-.27l.29.27c-2.15-13.24-4.58-26.38-13.87-36.94-8.54-9.71-17.59-18.81-29.67-24.17-1.46-.65-3-1.06-4.53-1.58h0a4,4,0,0,0-2.5-.73c-.26-.14-.52-.28-.79-.41a7.15,7.15,0,0,1-3.9-.94C427.55,215.07,428.93,215.11,429.18,214.85Zm74.26,130.32c-7.07-3.42-13.08-8.17-18.82-13.46-11.82-10.88-18.67-23.85-19.09-40.23a162.84,162.84,0,0,0-5.76-37.83c-1.72-6.42-3.63-12.82-8.09-18a39,39,0,0,0-10.69-10l-3.87-3.15c-1.1-.05-1.62-1.12-2.56-1.44.05-.32-.69-1.07.33-.84a11.19,11.19,0,0,1,2.32,1.11,3.07,3.07,0,0,0,.52-.14c.52,1.07,1.63,1.44,2.53,2a56.92,56.92,0,0,1,20.9,24.33c2.15,4.54,4.33,9.05,6.49,13.58,3.82,9.39,4.19,19.42,5.57,29.28,2.23,16,8.29,30.32,19.92,41.78A47.47,47.47,0,0,0,522,346.05a16.76,16.76,0,0,1,2.19.47s0,0,0,0,0,.31,0,.5C517.11,348.59,510.2,348.45,503.44,345.17Zm.9,2.94c-2.35-2-5.74-1.81-8-3.91l-4.08-1.53c-4.92-2.87-9.86-5.69-14.64-8.8a32.29,32.29,0,0,1-12.22-15.18c-.58-1.38-1.23-2.74-1.85-4.1-4.59-13.42-4.85-27.49-5.87-41.38s-4-27.21-11.28-39.3a14.51,14.51,0,0,0-4-4.92c2.11-.21,2.87,1.69,4.09,2.76,1.83,1.61,3.42,3.5,5.11,5.27a41.08,41.08,0,0,1,5.11,10.56c4.66,14.47,6.8,29.39,7.48,44.5.61,13.42,5,25.16,14.05,35.05a94,94,0,0,0,18.11,15.77c2.66,1.38,5.32,2.78,8,4.12C505.2,347.46,505,347.75,504.34,348.11ZM435.5,218.69c1.35.47,2.82.66,4,1.63,14.2,6.36,24.89,16.92,33.64,29.35,6.15,8.74,7.58,19.46,9.75,29.74a1.1,1.1,0,0,0,0,.18c.62,6.63,1.1,13.28,1.92,19.88A59.12,59.12,0,0,0,488,313.54c6.5,16.85,20,25.48,36.34,30.73a3.84,3.84,0,0,1-3.17.44,48.52,48.52,0,0,1-31.45-18.14c-9.81-12.08-14.46-26.19-15.74-41.51-.84-10-2.58-19.79-7.24-28.84-1.21-2.53-2.46-5.05-3.62-7.61-5.26-11.56-13-21-24-27.45l-1.35-.08C437.57,219.74,435.6,220.11,435.5,218.69Zm1.92,12.4,0,0-4.23-5.56c-3.71-4.29-8.46-7-13.61-9.16-1-.41-2.38-.32-2.79-1.72,5.48.73,10,3.51,14.4,6.62l1.84,2.39a17.55,17.55,0,0,1,4.3,6.65c.08.23.15.46.22.69s.1.29.14.45Zm-2.6-6.88c-.44-.54-.94-1.1-.41-1.87,4.18,3.21,7.27,7.4,10.15,11.69,7.8,11.65,10.45,24.8,11.38,38.57.76,11.12,1.53,22.26,3.66,33.24a41.61,41.61,0,0,0,1.33,4.29h0l.54,1.88a7.61,7.61,0,0,0,.29,1c2.49,8,5.93,15.47,13.32,20.55,5.37,3.7,10.66,7.51,16.84,9.82,4,1.88,7.95,4,12.4,4.79.35.91,1.76.29,2,1.41a8.07,8.07,0,0,1-4.17-.1c-4.63-1-9.21-2.3-13.87-3.11-9.45-1.64-17.37-6.07-24.47-12.38-7.91-7-13.12-15.17-12.81-26.2.25-8.66.27-17.32.4-26s.13-17.12-1.55-25.58a39.92,39.92,0,0,0-4.34-14.25C442.46,235.79,439.18,229.64,434.82,224.21Zm12.68,54.6c.48-4.75.65-9.54,1-14.3-.22-2.32,0-4.67-.69-6.94-.39-1.82-.79-3.63-1.18-5.45-.18-1.23-.36-2.47-.62-4.29,1.62,2.43,1.85,4.71,2.64,6.77.17,1.51.33,3,.5,4.52,1.21,4,.86,8.11.86,12.16,0,12-.36,24-.39,36,0,6.61.83,13.11,5.07,18.61,8.43,10.93,18.64,19.15,32.67,21.73,4.59.84,9.09,2.16,14.24,3.41a11.57,11.57,0,0,1-2.26.92c-11.48,1.26-23,.82-33.34-4.42-15.76-8-22.94-21.56-21.61-39.24C445.1,298.41,446.52,288.63,447.5,278.81ZM442,312.64c.07-.36.29-.79.84-.59a5.29,5.29,0,0,1,.33,1.43c-.47,9,2.67,16.78,8.07,23.7,11.93,15.28,28.8,16.89,46.35,16.4a9.07,9.07,0,0,0,2.92-.72,27.85,27.85,0,0,1,7.65-1.62l-1.39,1.17c-8,2.56-15.92,5.7-24.26,7.28-.89,0-1.79-.07-2.68,0-11,.79-20.63-2.6-29.13-9.39-5.05-4-9.05-9-10.2-15.54C439.17,327.3,440.64,320,442,312.64Zm66,39.58a3,3,0,0,1-1,.16Zm-68.8-30.13c-.87,6.87-1.38,13.72,2.65,19.91,7.91,12.16,19.35,18.08,33.64,18.9a6.77,6.77,0,0,1,4.11.36c-2.21.28-3.77,1-5.52.81h0l-4.36.44c-5.27-1.1-10.68-1.62-15.72-3.75-8.32-3.53-14.51-9.14-17.6-17.81a37.68,37.68,0,0,1,1-16C437.62,323.92,437.34,322.24,439.17,322.09Zm10.87,42-6.54-3.19a52.83,52.83,0,0,1-4.82-5.31c-4-5.44-4.85-11.65-4.87-18.12a7.12,7.12,0,0,1,.69-4.24,11.47,11.47,0,0,1,.29,5.13c.85,2.43.75,5.17,2.43,7.32l.06.07c4.36,7.54,10.9,12.34,19.07,15.06a46.21,46.21,0,0,0,8.78,1.94c.65.09,1.63-.27,1.77.91A50.51,50.51,0,0,1,450,364.11Zm3,1.63c9.44.55,18.52-1.37,27.54-3.83,1.88.17,3.51-.75,5.23-1.22,10.26-2.85,20.27-6.58,30.64-9.08,5.56-1.34,10.76-4,16.62-4.3s12-1.08,18-1.43c2.1-.12,4.3-.81,6.81.24a14,14,0,0,1-1.7.69c-8.78,2.22-15.81,7-21.93,13.68-8.6,9.38-16.73,19.46-28.94,24.66-13,4.68-25.8,6.11-37.85-2.72C462,377,457.2,371,451.12,366.2,451.5,365,452.41,365.7,453.05,365.74Zm-2.18,45.33c-1-6.89.65-13.38,2.93-19.79a25.66,25.66,0,0,0,1.26-13.5,9.78,9.78,0,0,1-1.25-5.28c1.28,2.11,2.54,4.22,2.6,6.77,2,6.67,1.89,13.43,1,20.26-1.11,8.44-2.56,16.91.44,25.37A25,25,0,0,1,450.87,411.07Zm10.66,17.37c-4-7-4.52-14.52-3.37-22.27,1.7-11.47,2.52-22.85-2.59-33.85a4.42,4.42,0,0,1,2.47,2.3c4.49,9.4,6.51,19.19,5.22,29.63a56.35,56.35,0,0,0,.48,19.25,69.56,69.56,0,0,0,4.2,12A18.81,18.81,0,0,1,461.53,428.44Zm5,.05c-2.75-8.25-2.62-16.63-1.81-25.09.75-7.84.1-15.48-3-22.79-.16-.37-.33-.74.27-1,1.35.68,2.13,2,3,3.19q1.51,5.94,3,11.88A180.75,180.75,0,0,1,470,414.79c.44,7.93,2,15.6,6.53,22.34,1.54,2.3,3.34,4.44,5.21,6.9C473.78,441.32,469.09,436.08,466.56,428.49Zm14.17,12.22c-6.7-7.93-8.86-17.39-9.39-27.43-.31-5.71-.57-11.44-2-17,0-3.4-1.75-6.48-2.19-9.95,1.87.43,1.69,2.16,2.6,3l.48.89a2.35,2.35,0,0,1-.3-.45l2.38,5.77h0A92.44,92.44,0,0,1,477.78,423c.38,8.84,4,16.09,10.18,22.24.69.68,2.37,1.07,1.54,2.71A29.61,29.61,0,0,1,480.73,440.71Z" transform="translate(-81.74 -22.71)"/></g></g></g></svg>