<svg xmlns="http://www.w3.org/2000/svg" xmlns:xlink="http://www.w3.org/1999/xlink" viewBox="0 0 663.56 357.02"><defs><style>.cls-1{fill:none;}.cls-2{clip-path:url(#clip-path);}.cls-3{fill:#a18978;}</style><clipPath id="clip-path" transform="translate(-40.39 -79.05)"><rect class="cls-1" x="54.46" y="42.83" width="371.35" height="444.71" transform="translate(83.12 -56.27) rotate(16.13)"/></clipPath></defs><g id="圖層_2" data-name="圖層 2"><g id="飄移"><g class="cls-2"><path class="cls-3" d="M669.1,427c-10.12-3.07-18.57-8.43-24.44-17.45a31.57,31.57,0,0,0-2.09-2.56c-.14-.22-.29-.42-.43-.63-4.55-6.62-11.4-10.7-18-15.73,2.08-.28,3.22.9,4.54,1.43,1.48.59,2.9,1.3,4.35,2,7.17,2.53,12,7.92,16.65,13.55,7.16,8.68,16.16,14.32,27.3,16.33,1.35.24,2.8,1.08,5.21-.91-18-1.24-28.68-12.38-39-25l.14-.19,4,1.74c8.1,6,15.42,13.08,25,16.81a17.23,17.23,0,0,0,8.69,1.16c.62-.08,1.26-.24,1.13-1.1-.1-.71-.65-.53-1.11-.48-6.6.67-11.94-2.46-17.05-5.94-3.5-2.38-6.71-5.21-10.3-8.05a29.92,29.92,0,0,1,9,3.22c4.76,2.34,9.51,4.67,14.68,5.94a33.67,33.67,0,0,0,4,.65c.7.08,1.63.26,1.75-.77s-.8-1-1.51-1c-8.22-.66-15-5.41-22.46-8.07-1-.37-.35-.88,0-1.3,6.71.06,13,2.74,19.7,3.05a12,12,0,0,0,6.41-1c-2.79-1-5.06-.18-7.1-1.37a2,2,0,0,1,0-.23c2-2,5.54-1,7.28-4.42-4,1.12-7.38,2.27-11.58,2.44l0-.06c3.88-3.36,9.57-2.93,12.56-8-2.46.79-3.61,2.32-5.65,2.27,1.39-3.32,5.49-4.57,6.35-9.07-6.78,5.75-11,14.3-21.67,13,9.47-5.89,17.12-13.17,22.54-22.62-4,4.23-7.89,8.53-12,12.67-3.57,3.62-7.89,6.28-12.14,9a13.46,13.46,0,0,1-7.8,1.82c-.29-1.25-3.86,1.47-2.37-2,9.16-2.55,16.46-8.21,23.43-14.3,3.8-3.32,7.18-7.11,10.73-10.71.86-.88,1.76-1.79,1-3.49-6.75,7.22-13.47,14.28-21.55,19.87A68.49,68.49,0,0,1,651,395.73a12.58,12.58,0,0,1-10.79-1.23C652,393,661.54,387,670.54,379.89s16.84-14.83,20.76-25.79c-3.43,5-6.68,10.2-11,14.57-9.68,9.83-20.16,18.52-33.71,22.57-4.91,1.47-9.9,2-15,.64-.87-.94-.65-1.37.61-1.52,21.88-2.66,36-16.69,48.6-33.05,9.6-12.51,13.22-27.32,16.24-42.35a2.78,2.78,0,0,0-.39-2.85c-.57,2.26-1,4.12-1.51,5.95-2.86,10.45-5.15,21.19-10.45,30.69-9,16.1-22,28.24-38.48,36.67-5,2.58-10.54,3.37-16.1,3.75a8.92,8.92,0,0,1-5.92-1.27c.51-.27.75-.51,1-.52,12.75-.32,23.21-5.59,32.26-14.38,10.66-10.36,18.67-22.55,25.42-35.67a23.73,23.73,0,0,0,1.17-3.45c3.13-6.88,4.27-14.36,6.49-21.51a104.53,104.53,0,0,1,9.58-22.73,5.84,5.84,0,0,0,.77-4.45,78.77,78.77,0,0,0-11.11,23.64q-3.72,12.93-7.39,25.87c-4.79,9.59-10,19-16.88,27.2-7.19,8.6-14.68,17-25.68,21-8.13,3-16.34,4.5-24.79,1.32a1.14,1.14,0,0,0-1.33.19c5.47,4.18,10.92,8.39,16.41,12.53a114,114,0,0,1,10.08,9.2c7,11.54,16.77,19.47,30,22.83.86.22,2.05,0,2.46,1.29-2.86,1.57-5.9,1.43-9,1.08-1.75-.54-3.49-1.16-5.26-1.63-10.15-2.69-17.78-8.63-23.41-17.45A99.06,99.06,0,0,0,616.35,390c-1.08-1.78-2.84-2.86-4.34-4.22-.88-.81-.44-1.1.34-1.42l1.23-.16c.51-1.69,1.78-1.16,3-1.09,11.06.6,21.53-1,29.82-9.14,5-4.95,8.65-11,12.1-17.13h0c5.84-8.33,9.79-17.64,13.93-26.86,7.13-15.84,14.22-31.71,21.5-47.49,2-4.33,4.38-8.59,8.76-11.17,1.59-.94.92-2.53,1.29-4.47-8.08,4.08-16.45,6.42-23.45,11.6-2.87,2.12-5.93,2.27-9.38,1.94a50.23,50.23,0,0,1-15-3.32c-5.78-2.11-8.22-7-10.16-12.28q-6-16.24-11.95-32.5c-.82-2.07-2.69-3.62-2.93-6-14.87-26.4-37.95-38.25-67.74-37.89-4.9.06-9.8,1.1-14.69,1.69-1.72.21-3.43.46-5.14.61-.53,0-1-.25-.24-.74a3.21,3.21,0,0,1,.7-.24l-.15-1L536.07,191c-7.53,1.19-15,3.17-22.6,3.37s-14.59,1.93-21.72,3.69c-12.57,3.1-23.43,9.5-33.34,17.66A59.4,59.4,0,0,1,441,224.51c-8.69,2-17.49,1.4-26.27,1a22.46,22.46,0,0,1-4.31-.93c-11.74-5.08-22.89-3.07-33.76,2.65-8.94,4.7-17.78,9.55-25.46,16.24a35.75,35.75,0,0,0-5.74,6.72c-2.17,1.23-4.26.3-6.37-.23-3.45-.87-6.92-1.7-10.38-2.55-2.47-1.66-5.75.28-8.12-1.84-2.29-.85-4.63-1.59-6.88-2.54-11-4.63-20-12.25-29.29-19.41h0c-10.26-10.23-20.55-20.43-30.75-30.71a115.51,115.51,0,0,1-12.47-15.49c-3.73-5.34-7.67-10.51-12.76-14.67a37.35,37.35,0,0,1-3.58-6.39,125.94,125.94,0,0,1-10.3-45.26c1.07-11.9,6.41-21.55,15.46-29.24l.67,0a2.25,2.25,0,0,1-.21.65A56.18,56.18,0,0,0,219.9,114c-.56,17.95,5.85,34.24,15.84,48.7,7,10.16,15.91,19,24,28.5,3.65,5.11,8.13,9.5,12.39,14.07,14,14.94,28.84,28.79,47.18,38.38l0,0h0a.22.22,0,0,0,0-.08c0-1-.93-1.32-1.36-2-21.22-12.36-38.58-29.08-54.15-47.84-.38-.46-.85-.85-1.28-1.28-6.64-8.75-14.06-16.84-21.11-25.24a84,84,0,0,1-19.69-50.44c-.58-10.5,2.9-20.46,7.35-29.92,1.8-3.81,5.63-4.43,9.34-5l5.32.45c.61.19,1.2.41,1.79.65l.18-2.07-5.77-.64-1.72.35c-.74-.24-1.47-.52-2.21-.78l-6.82-.76h0l-2.41.81.75.13s0,.08,0,.13a1.7,1.7,0,0,1,0,.39l-5,2.41-.75,1c-2.93,1.16-3.91,4.56-6.73,5.84-2.85-.56-3.24,3-5.59,3.32A12.57,12.57,0,0,1,204.71,96l-6.28,4.39c-.2.8-.89,1-1.51,1.37l-.09,0-.82.32h0c-2,.89-2.56,3.09-4.14,4.35-4,7-8.14,13.94-12.11,21-4.49,7.95-7.66,16.35-7.84,25.63-4,9.94-3.83,20.38-3.59,30.81,0,1.8.6,3.7-1.05,5.15-1.11.8.2,1.78-.2,2.63-1.6,5.27-.27,10.43.8,15.52a33,33,0,0,0,4.48,11.24,26.48,26.48,0,0,0,5.43,9.13c5.9,6.23,10.31,13.55,15.33,20.39,4.2,5.73,8.34,11.47,12.94,16.91a83.11,83.11,0,0,0,26.5,20.72c2.51,3.85,6.54,4.88,10.65,5.79,10,2.22,20,4.29,30.41,1.63,17.57-4.5,32.61-13.35,45.85-25.52,6.21-5.12,12.33-10.38,20-13.29.56,1.8-1.14,2.25-2,3-3.18,2.84-6.51,5.51-9.78,8.25-9.39,6.21-18.1,13.33-28,18.91a109.08,109.08,0,0,1-34.24,12.11,48.82,48.82,0,0,0-9.44.26c-2.94-.24-5.87-.62-8.8-.69-10.86-.27-19.57-6.12-28.59-11-12.79-6.94-22.21-17.81-32-28.23a34.07,34.07,0,0,0-6-5.46,7.5,7.5,0,0,0-.72-.85,37.76,37.76,0,0,0-6.06-5.3l-1.16-.93c-6.75-6.35-15.11-9.74-23.82-12.05-20.31-5.39-40.57-5-60.46,2.06-11.93,4.26-20.65,13.14-29.65,21.54-7.33,6.84-13.2,14.65-16.13,24.36-1.2,4-3.08,7.87-.92,12.3C43,295.05,42,298,41,300.66c-.42,1.17-1.36,2.6.64,3.37a57.6,57.6,0,0,0-.24,16.89,4.24,4.24,0,0,0,.33,3.18c.85,3.58-.69,8,3.78,10.33.4.21.32,1.37.45,2.09,1.27,6.9,3.68,13.57,3.62,20.74a11.62,11.62,0,0,0,6.22,10.92c.54,2.09,1,4.18,3.63,4.74,1.59.34,1.4,2,1.85,3.14,3.64,3.28,7.11,6.81,10.8,9.92,2.89,2.44,5.25,5.27,8,7.78,3.19,2.92,5.85,2.68,7.6-1.19,9.68-21.46,26.34-35.92,46.55-46.88,1.08-.59,2.15-1.22,3.2-1.86.89-.53,1.76-1.1,3.29-2.08a1.36,1.36,0,0,1,.12.12s0,.07.05.1c-3.25,4.55-7,7.38-10.37,10.33-12.5,10.76-21.43,23.68-25.6,39.77a28,28,0,0,1-3.53,8.51c-1.68,2.56-3.8,3.26-6.66,2A23.58,23.58,0,0,1,90,399.65c-1.45-1.1-1.84-3.2-4.4-4.16,1.32,4.45,4.19,6.67,7.62,8.31a60.67,60.67,0,0,1,6.5,3.84c3.74,2.38,6.86,6.49,12,6.44,1.11,3.19,3.86,2.89,6.3,2.56,3-.4,5.59.49,8.21,1.63,1.22.52,1.22,1.71,1.58,2.7,3.33,3.42,7.09,3.52,11.13,1.42l6.33.08c2.54-1.38,5.74-1.68,7.42-4.49,3.3,1.38,6.93,1.38,10.27,2.4,6.22,1.9,12,0,15.34-5.56a27,27,0,0,0,3.87-13c.21-4.35-.55-8.61-1.17-12.89-1.43-9.88-3.28-19.73-2.61-29.81.73-11.09,4.85-20.9,10.76-30.3.82,1.14.26,2,.06,2.76a75.19,75.19,0,0,0,.73,41.27,65,65,0,0,1,2.81,18.22c-.74,5.24-1.68,10.41-3.94,15.28-2.43,5.23-6.37,8.85-12.58,11.44,9.4.07,18-13.88,17.81-26.92.49-4-.16-7.82-.9-11.69-1.54-8-4.74-15.79-4.41-24.18-1.6-24.94,6.89-41.48,27-53.43,1.55-.92,3.41-1.39,4.55-3,1.61-.59,3.18-1.26,4.82-1.76,4.76-1.45,8.58,1,9.4,5.91,2,11.92.29,23.62-2.59,35.14-2.5,10-4.3,19.9-2.59,30.28,2.91,17.75,10.07,25.69,27.41,30.18,6.75,1.74,13.49,2.78,20.44,1.78,10.87.45,19.24-4.92,26.95-11.69,7.2-6.32,14.66-12.33,22.2-18.24h0c6.15-2.71,12.58-2.36,19-1.82,2.78.23,5.5,1.29,8.34.58,11.91,4.38,20.68-1,22.75-13.33.82-4.92,2.84-9.64,2.55-14.78-.05-.89.48-1.27,1.31-1.46a3.32,3.32,0,0,0,2.17-1.91c2.83-5.93,7.49-11.28,5.95-18.65-.48-2.29,2.49-3.31,2.4-5.56l1.62-4.39c.88-.15,2,.51,2.56-.71,4.48-9,13.52-11.81,21.79-15.34,5.42-2.31,10-5.08,12.72-10.46,3.09-4.37,2.47-9.37,2.17-14.21a114.73,114.73,0,0,0-4.05-23.08c-.52-3.5-2.44-6.35-4.44-9.12-.95-1.3-.87-1.93.78-2.14A54.55,54.55,0,0,0,439.67,229c.33-.15.88.18,1.32.29,3.68.62,7.24-.58,10.87-.77a41.54,41.54,0,0,1,18,2.72c10.45,4.2,20.51,8.89,27.59,18.16a1.13,1.13,0,0,0,.25.35l8.4,11.83c8.17,14.11,13.12,29.56,18.47,44.84.52,1.5,1.16,3,1.75,4.43.64,4.4,3,8.36,3.28,12.84.32,13.14,2.38,25.7,12.13,35.61,5.13,5.21,11.17,8.72,18.62,9.39a11.07,11.07,0,0,0,2.43.73c12.45.81,18.66,9.22,23.23,19.35,1.29,2.85,1.64,6.18,2.17,9.33C591.22,416,602,426.84,619,432A91.43,91.43,0,0,0,676,431c2-.66,5.1-.26,4.61-4.28C676.81,429.54,673,428.14,669.1,427ZM310.27,244.56c-4.6-.35-9.06,1.59-13.58.4a26.06,26.06,0,0,1-18.35-5,13.94,13.94,0,0,1-6.37-4.31c.95-1.71-.66-2-1.51-2.76-2.64-2.29-5.75-4.11-7.83-7.67l3.87,2a4.89,4.89,0,0,0,1.31.66c11.48,7.51,24.16,12,37.53,14.66C307.1,242.82,308.93,243.14,310.27,244.56ZM232.5,168.45c6.66,7.59,11.39,16.7,18.56,23.85,9.39,9.38,18.25,19.28,28.12,28.18,7.47,7,15.71,13,23.87,19.14-4.32-.24-8.65-.84-12.12-3.39-9.71-7.15-19.88-13.83-26.89-24a117.83,117.83,0,0,0-13-15.64,123.54,123.54,0,0,1-21.57-30.25C231.18,166,231.67,167.5,232.5,168.45Zm-10-84h0l5.17-2.32c-9,7.64-14,17.26-14.44,29.13a84.48,84.48,0,0,0,2.55,22.33c5.07,22,14.39,41.95,29.5,58.88,7,7.83,14,15.58,20.22,24.05a45.89,45.89,0,0,0,9.64,9.64c3.18,2.37,6.24,4.89,9.36,7.35l-.45.78c-1.29-.55-2.61-1-3.88-1.64-12.39-5.73-22.59-14.16-31.95-24.11-18.51-19.69-33-41.46-38.52-68.37-.38-7.12-.86-14.24-1.13-21.37C208.05,105.32,212,93.56,222.46,84.49Zm-8.77,7.28h0c-3.38,7.91-6.73,15.8-6.52,24.67.05,2.2.44,4.42-.22,6.6.52,5.76,0,11.6,1.4,17.28h0c3,18.06,10.76,34.1,21.3,48.87,5.55,7.76,12.2,14.63,18.53,21.74,3.6,3.74,7.57,7.14,10.48,11.51.37,1.89,2.34,2.85,3.08,5.27L248,213.16h0c-.7-1.06-2.16-1.5-2.41-2.93h0L244,208.79c-3.75-3.14-7.82-5.9-11.27-9.39-.26-.25-.51-.5-.75-.76A47.29,47.29,0,0,1,216.37,178c-4.13-10-8.55-19.89-10.75-30.57-1.68-7.89-.57-15.8-.13-23.7C206.16,112.57,206,101.18,213.69,91.77ZM207,101.43c-2.47,8.23-2.62,16.76-3.34,25.23-.59,7-1.22,14,.72,20.92,4.35,17.27,9.41,34.31,21.88,47.76,6,6.49,13.9,11,20.09,17.44l0,0c1.51,2.52,4,4.15,5.74,6.46s4.57,3.28,4.92,6.4c-1.61-1.81-4-2.26-6-3.53-8.39-5.48-15.93-12.07-23.87-18.13a53.6,53.6,0,0,1-18.07-25.19c-6.61-18.47-9.16-37.55-8.61-57.09,1.1-6,1.37-12.1,4.13-17.65C205.15,103,205.13,101.38,207,101.43ZM195.21,107a14.06,14.06,0,0,0,2.49-4.39c2.88-2.33,5.66-4.81,9.23-6.41.08,1.76-1.17,2.66-1.61,3.9-4.15,6.69-5.77,14.08-6.16,21.83-1.72,13.3.89,26.27,3,39.27a100.91,100.91,0,0,0,6.2,20.88,50.33,50.33,0,0,0,15.25,21c10,8,19.75,16.39,30.84,23,1,.58,1.78,1.81,3.23,1.27,4.84,4.24,10.7,7.21,15,12.23l-3.13-1c-7.06-3.76-14.14-7.47-21.17-11.29A123.09,123.09,0,0,1,208.14,192c-5.27-8.95-9-18.6-12.69-28.26a38,38,0,0,1-2.37-11.16c-.46-6.75-1.23-13.49-1.52-20.25a71.4,71.4,0,0,1,3-23.72A1.88,1.88,0,0,0,195.21,107Zm-6.46,8.43c.87-2.2,1.29-5,4.2-5.91-3.75,9-3.66,18.43-3.07,27.89.34,5.39,1,10.76,1.44,16.15a38.6,38.6,0,0,0,2.83,11.77c3.77,8.94,6.89,18.16,12.27,26.34a100.88,100.88,0,0,0,25.27,26.51c8.87,6.39,18,12.4,28.15,16.68a13.92,13.92,0,0,1,2.13,1.43c1.95.58,4,1,5.08,3-1.53-.35-3.2-.29-4.38-1.59-11.52-3.39-22.76-7.25-32.64-14.5a124.75,124.75,0,0,1-43.61-57c-.54-2.27-.94-4.58-1.64-6.8a51.54,51.54,0,0,1-.23-31C185.87,124,187.08,119.63,188.75,115.4Zm-3.91,6.48a61,61,0,0,0,.32,44.34c.37,1.29.71,2.6,1.12,3.88,3.6,11.25,10.53,20.56,17.44,29.87A103.27,103.27,0,0,0,257,237.9c7.89,2.48,16.19,3.36,23.87,6.53l9.47,2-.09.63-4.24.65a11.39,11.39,0,0,0-4.42-1.75c-3.17,0-6.35-.64-9.52,0-12.56-.49-24.11-4.32-35-10.47-9.3-5.78-16.53-14.06-25.07-20.76l-1.07.14,17.63,16.57c.48.45,1.1.81.91,1.57l-.38.08-8-3.61,0,0a185.21,185.21,0,0,1-32.82-35.22c-6.8-9.54-8.78-20.68-10.25-32-.95-1.59-.64-3.38-.79-5.1,2.08,1.31,1.61,3.61,2.16,5.52,2.66,10.53,6.18,20.68,12.49,29.66l1.5.34c-6.51-9.79-10.17-20.75-13.07-32-.46-1.78-1.06-3.53-1.6-5.3C172.22,142.71,177.77,132.18,184.84,121.88Zm25.44,101.74c-4-2.8-8-5.71-12.14-8.36-14.33-9.19-20.92-22.93-23.27-39.21-.11-.72-.22-1.44-.34-2.17q-.12-7.66-.26-15.34a23.62,23.62,0,0,1,.09-8.79,16.39,16.39,0,0,1,1.3,8.13c.24,1.83.53,3.65.72,5.49,1.71,16.45,7.71,31,19.2,43.06,4.67,4.91,9.4,9.76,14,14.75C210,221.62,212.52,222.14,210.28,223.62ZM171.16,159.8c.25-1.13-.27-2.81,1.64-3.13q.22,8.67.46,17.35c-.3,6.52,1.56,12.59,4.08,18.44a70.14,70.14,0,0,0,10.28,17.28c3.66,3.82,8.71,5.73,12.67,9.13,5.73,3.62,11.16,7.75,17.32,10.62,4.81,2.24,9.31,5.32,14.72,6.15h0l5.11,3c1.2,2.31-.6,1.08-1.18.92-5-1.38-10-2.81-15-4.23-.35.81.37,1.12.73,1.6,7,2.11,13.91,4.51,21.2,5.46,5.73,1.57,11.37,3.51,17.35,4l11.71.83a32,32,0,0,1,4.27.14c1.42.22,3.16-1.07,4.26.82h0l-13.36.38h0l-.34-.08c-1.92-.34-4,.59-5.81-.55-1.46.07-2.92.26-4.37.2-17.65-.73-34.38-4.82-49.27-14.67-17.07-11.28-29.88-26.22-37.57-45.34C169.62,178.64,169.09,169.16,171.16,159.8Zm93.46,89.83c-2,1.59-4.44,1.14-6.74,1.23-6,1.17-12,.07-17.94.06-1.83-.29-3.64-.59-5.47-.86-11.43-1.67-22.39-4.77-32.62-10.32-16.23-8.81-24.21-23.6-29.6-40.33-.93-1.42-2.22-2.75-1.1-4.65.59,1.58,2,2.77,2.19,4.53a106.55,106.55,0,0,0,16.4,21.7c18.59,19.22,41.71,27.83,68.06,28.75C260.06,249,262.35,249.65,264.62,249.63Zm-91-31.32c-3.33-7.79-6.22-15.68-5.7-25.29l7.59,19.1A53.5,53.5,0,0,0,187,230.07c14.58,14.87,33.16,20.1,53.14,21.87,9.75,1.93,19.39-.31,29.08-.66,2.43-.09,4.9-.84,7.3.2-3.78,1.07-7.55,2.18-11.34,3.21C232.87,263.48,190.09,249.89,173.63,218.31Zm16.55,23.05c1.52-.09,2.25.86,3.14,1.47,20.05,13.72,42.05,18.76,66.06,14.86,8.67-1.4,16.87-4.66,25.47-6.36a10.74,10.74,0,0,1,5.53-1.12,9.06,9.06,0,0,1-5.37,2.48c-12.2,5-24.42,10-37.66,11.69C227.16,267,209.45,262,195,247.29,193.22,245.53,191.23,243.9,190.18,241.36ZM203,258.53c-1.65-.93-2.44-2.48-3.29-4l.68-.76,7.38,5.83a65.26,65.26,0,0,0,37.18,7c16.59-1.67,31.76-7.88,46.67-14.62,10.4-4.7,20.82-6.18,31.88-3.89a7.8,7.8,0,0,1,4.86,1.07c-2.1.26-3.62.63-5.19.25h0c-4.78.38-9.56.87-14.36,1.1-10.18.48-18.47,5.62-26.79,10.68-11.91,7.25-24.19,13.11-38.62,13.12C227.8,274.28,213.49,271.39,203,258.53Zm11.88,12.06c3.65,1.32,6.78,2.71,10,3.59,11.91,3.21,23.83,2.32,35.72-.28,6-2.28,11.73-5.29,17.54-8.06h0l6.61-4c6.85-4.1,13.66-8.32,21.85-9.25l4.16-.49c-.92,1.55-2.51,1.49-4,1.67h0a7.87,7.87,0,0,0-2.15.39c-9,4.4-17.92,8.86-26.88,13.3-5.62,2.63-11,5.74-17,7.61h0a37.5,37.5,0,0,1-14.33,3.6c-8.76.31-17.27-1.25-25.7-3.44C218.64,274.13,216.37,273.21,214.87,270.59Zm12.23,10a2.12,2.12,0,0,1-.87-.32c.29.11.57.22.87.32L224,278.1c7.56,1.27,15,2.48,22.58,1.69,8,.11,15-3.38,22.05-6.58,10.17-4.64,20.24-9.47,30.11-14.73a44.06,44.06,0,0,1,24.19-5.3c1,.07,2.51-.59,2.86,1.2a.59.59,0,0,0-.89.34c-16.57,3.39-32.51,8.5-47,17.43-7.05,2.78-14.1,5.61-21.17,8.35a52.53,52.53,0,0,1-21.22,3.66A24.39,24.39,0,0,1,227.1,280.56ZM240.63,287h0l-.19,0c0-.48-2.22-1.07,0-1.43,2.67-.42,5.38-.58,8-1.12,7.41-1.52,14-5.17,21.08-7.76,1.59-.59,3.06-1.94,5-1.19C264.83,284,254.18,289.79,240.63,287Zm15.24,4.94c0-.23-.06-.63,0-.66,15.44-5.67,28.09-16.42,42.7-23.59,3.08-1.51,6.17-3,9.25-4.5.36-.71,2.13-.38,1.4-1.9-12.41,4.92-23.5,12.24-34.89,19-1.26.75-2.51,1.53-3.77,2.3A43.09,43.09,0,0,1,251.13,291a29.25,29.25,0,0,1-8.07-.92l-.18-1A38,38,0,0,0,257,288c5.41-1.44,9.82-4.74,14.43-7.68h0a92.87,92.87,0,0,1,37.65-20.25,39.45,39.45,0,0,1,12.6-2.45L308,264.16a141.11,141.11,0,0,0-21,14.43C278.06,286.25,268.35,292.37,255.87,291.92Zm18.79-2.18Zm38.89-19.37c-11.74,9.45-24.5,16.95-39.24,20.72.11-.44.23-.88.34-1.32,5.44-1.69,10.14-4.77,14.68-8,7.42-5.36,16.45-7.51,24.16-12.28,0,0,.25.15.25.22A4.67,4.67,0,0,1,313.55,270.37Zm14.32-12.24-5.74,4.56c-.91.06-1.41.77-2,1.31-8.87,6-19,9.53-28.37,14.51a55.15,55.15,0,0,1-6.31,4.33c-1,.51,0-.6-.16-.92l6.2-4.75a3.56,3.56,0,0,1,1.1-.84c2.81-2.61,6.16-4.45,9.3-6.6,7.42-5.08,16-8,23.67-12.6l2.62-.9a9.45,9.45,0,0,1,5.55-1.26Zm1-5.11c-1.5-1.13-3.94.12-5-2,3.8,0,7.62-.22,11.81.72C333.22,253.43,331,252.87,328.85,253ZM44.75,280.65c-.34-1.32.49-2.33.9-3.43C50,265.63,59.27,258.16,67.89,250c10.2-9.63,21.94-15.79,35.82-17.79,4.87-.7,9.77-1.16,14.66-1.73.07.44.13.89.2,1.33C90.46,242.77,62.78,254.37,44.75,280.65ZM44,291.2c0-3.89,1.6-8.85,5-13.25,12.61-16.35,29.09-27.39,48.16-34.81,10.31-1.82,20.56-3.93,31-5.14,17.14-2,31.22,3.76,42.77,16.33,1.26,1.36-.34.72-.58,1-19.26-14.33-40.44-16.67-63.19-10.56-7.72,2.07-14.69,5.68-21.84,8.95-15.56,7.11-28.92,16.84-37.81,31.9C46.41,287.49,45.84,289.7,44,291.2Zm84-25.38c12.24-1.67,23.7,1,34.66,6.47,10.78,5.42,21.67,10.63,32.54,15.87,1,.5,2,1.45,3.39,1l3.25,1.73c-1.22,1.78-2.87,1-4.34.59a147.57,147.57,0,0,1-26.77-9.38,157.4,157.4,0,0,0-39-12.12,48.15,48.15,0,0,0-15.1-.36c-17.15,2.43-34.5,4.17-50.22,12.44A12.57,12.57,0,0,1,61,284.54l.47-.44,0,0c1.59-1.49,3.12-3,5.25-3.66l3.95-2.46C89.22,271.08,108.64,268.48,128,265.82Zm-13.36.6h0c1.12-1.73,1.12-1.73,5.54-2.39l5-1.61c11.47-2,22.88-2.93,34.25.81a100.62,100.62,0,0,1,20.18,9.31l.13.08L191.71,282l.3.34,3.7,4.18c-7-3.36-13-6.32-19.1-9.19-7.11-3.34-14.18-6.79-21.41-9.86-11.3-4.8-23.06-4-34.84-2.21h0Zm84.17,20-.56-.41c-6.7-5.86-13.16-12-21-16.4-12.3-7.61-25.56-11.44-40.09-10.17a51.49,51.49,0,0,0-12,2c-6.12,1-12,3.09-17.9,4.78-10.75,2.51-21.56,4.82-32.06,8.29-1.61.53-3.37.81-4.62,2.15a42.43,42.43,0,0,0-13.23,8.73l-6.18,5.15c-.08-1.81,1.27-2.88,2.2-4.12,6.65-8.87,15.35-15.29,25.24-20,16.39-7.78,34.19-8.53,51.86-10.43,17-1.83,31.78,3.07,46.22,11,8.68,4.78,16.55,10.65,24.41,16.57h0c3.47,3.39,7.61,5.89,11.65,8.6C207.41,291.91,203.37,288.58,198.85,286.39ZM158.93,256.9c-2.7-3.25-6.64-4-10.38-5.15-16.23-4.87-32.13-2.4-47.9,2.36A166.78,166.78,0,0,1,83.4,258c-.79.15-1.78,1-2.43-.31,4.79-2.25,9.55-4.58,14.39-6.73,15.37-6.81,31.3-9.66,48-6,18.11,3.95,31.84,15.62,46,26.45a13.06,13.06,0,0,1,1.41,1.75C180.13,266.71,170.05,260.77,158.93,256.9ZM44.7,294.41c7.75-15.47,17.81-27.54,33.56-34,12.67-1.9,24.93-5.61,37.38-8.48,10.27-2.36,20.48-1.68,30.65.75,2.05.28,4.28.13,5.52,2.33-1.55-.6-3.34-.09-4.81-1-14-.39-27.82,1.07-41.6,3.08C81.32,260.54,61,270.59,47.53,291.87A5.11,5.11,0,0,1,44.7,294.41Zm11.49-5.26c6.73-3.3,13-7.61,20.17-9.88C92.5,274.15,109,270.19,126,271c14.81.67,28.68,5.77,42.15,11.68,10.87,4.76,21.81,9.11,33.6,10.94.53.08,1.32,0,1.24.94a27.2,27.2,0,0,1-10.29.36c-8.91-1.24-17-4.89-25.11-8.51-9.79-4.37-19.43-9-30.44-9.85a161.7,161.7,0,0,0-49.57,4.1c-11,2.6-21.57,6.11-30.74,13.06a132.15,132.15,0,0,0-13,12C45.58,298.39,50.12,293.21,56.19,289.15Zm-13.4,31.57c-1.06-7,1.35-12.69,6.27-17.68,7.47-7.57,16-13.63,26.07-17A159.62,159.62,0,0,1,119.69,278c14.45-.48,28.43.91,41.69,7.57,10.59,5.32,21.4,10.36,33.6,11.78-1.78,2.6-4.25,1.21-6.22,1.8A58.46,58.46,0,0,1,164,290c-9-5.78-18.8-8.4-29.34-8.88a170.28,170.28,0,0,0-48.33,5.15c-19.44,4.75-34.21,15.29-42.16,34.21C43.82,321.39,43.32,321.13,42.79,320.72Zm6.25.34c-1.59,3.2-2.41,6.78-3.68,10.49-1.42-2.61-.73-5-.78-7.28,5.32-15.81,15.84-27,31.26-32.89,20.35-7.73,41.63-10,63.31-8.43,9.76.7,18.33,4.59,26.47,9.69.93.59,1.87,1.23-.21,1.4-8.52-3.62-17.15-7-26.53-7.51-25.52-1.53-49.52,3.63-71.68,16.62C59.63,307.58,53,313.08,49,321.06Zm10.81-10.4c6.91-6.13,15.06-10.24,23.56-13.48,25.51-9.74,51.32-13.64,77.7-3.13,7.09,2.83,14.06,5.95,21.7,8-1.39,1.41-2.94.84-4.1,1.51-12.14-.74-23.79-4-35.52-6.83-31.34-7.45-59.82-1.61-85.45,17.94l-.12,0a.49.49,0,0,0,0,.12c-2.39,2.49-4.15,5.63-7.41,7.22C52.94,317.77,55.66,313.59,59.85,310.66Zm-9.93,33.69c-2.06-5.18-3-10.4-1.17-15.83,8.77-16.28,24.39-22.9,40.5-29,14.46-5.44,29.26-5.05,44.2-3.22,1.65.2,3.46,0,5,1l31.37,6.72h0c2.05.11,4.22-.46,6,1.09-1.95.13-3.91.89-5.85-.06a26.69,26.69,0,0,1-8.41-.45c-7.63-1.34-14.92-4-22.43-5.81-4.75-.24-9.49-.52-14.23-.72-15.17-.65-29.14,4.14-42.88,9.72-15.88,6.46-25.86,18.29-30.65,34.63C51.09,343.3,51,344,49.92,344.35Zm120.62-35.76c-8.67,1.94-17.3,2.12-25.83-.83-6.35-2.19-12.72-4.31-19.08-6.46-2.4-.15-5,.66-7-1.55l6.32.07a83.32,83.32,0,0,1,21.45,2.7c8.49,2.41,16.9,5.05,25.9,4.37C173.11,308.87,171.25,308.43,170.54,308.59Zm-118,52.13c-2-2.56-1.83-5.64-1.44-8.47C53.66,333.92,62,319.3,79.28,311.19a113.31,113.31,0,0,1,30.52-9.75c10.93-.32,21.19,2.5,31.2,6.57a51.23,51.23,0,0,0,12.78,3.34l7.4.09h0c0,.34.07.68.1,1-2.25.21-4.49,1-6.79.3-6.76.61-13.21-1.29-19.68-2.69a92.88,92.88,0,0,0-23.13-2.23c-27.48,1-50.25,23.49-57,44.44a37.4,37.4,0,0,0-1.52,8Zm2.57-3c8.64-33.07,39.21-52.8,73-47.08,1.46.24,2.92.49,4.37.81,9.75,2.13,19.49,4.27,29.57,2.56l2.53-.69c1,.93,2.55-1.47,3.31.6-2,.28-3.67,1.51-5.72,1.4-4.17.18-8.11,1.83-12.32,1.84-6,0-12.08.23-18.12.28-11.88.11-24,.13-34.92,5.09-16.86,7.61-31.82,17.87-40.43,35.17C55.71,358.93,55.52,358.51,55.1,357.73Zm6.33,10.48c-.54,1.07-1,2.68-2.26,2.71s-1.33-1.86-2.11-2.76v0c-.06-5.33.23-10.61,3.6-15.09,11-14.56,24.76-25.34,42.34-30.77,12.32-3.8,25.13-2.85,37.78-3.43,1.83-.09,3.84-.87,5-.1-2,.29-4,.61-6.07.93l-.73.11c-6.18,1-12.55,2-18.95,2.75-6.67.83-13.18,2-19.1,5.33C83.85,337.49,70.2,350.47,61.43,368.21Zm4.7,9.91a6.41,6.41,0,0,1-3.31-9.07,89.25,89.25,0,0,1,22.64-28.43c11.32-9.55,23.54-16.39,38.88-16.77,9-.22,17.92-1.57,26.87-2.41,6.85-1.87,13.93-3,20.37-6.2.55-.21,1.36-.24,1.63-.64,2.29-3.44,6.27-3.94,9.59-5.51,1.62-.76.3.57.39.92a69.92,69.92,0,0,1-20.87,10.72L151,323.1c-7.57,2.46-15.54,2.54-23.29,4-13.06,2.43-25.36,6.37-34.41,17a176.85,176.85,0,0,0-16.06,21.68c-2.26,3.67-4.63,7.27-7,10.84C69.28,378,68,378.91,66.13,378.12Zm4.32,4.17c-1.42-1.52-1.43-2.25.09-3.76a33.31,33.31,0,0,0,4.54-6.25,207.4,207.4,0,0,1,14.85-21.62c6-7.43,12.52-14.34,21.86-17.61a100.35,100.35,0,0,1,23.72-5.43,104.26,104.26,0,0,0,16.68-3c2.35-.62,4.76-2,7.41-1.18-2.66,2.72-6.81,2.45-9.67,4.78-5.61,1.81-11.24,3.57-16.83,5.45A82.25,82.25,0,0,0,106,349.12a121.68,121.68,0,0,0-26.37,32.1C76.07,387.4,75.11,387.29,70.45,382.29ZM131.71,345c-19.29,10.69-35.16,24.77-44.82,45.08-2.42,5.09-3.62,5-7.44.65-.56-.65-1.13-1.29-1.68-2s-.88-1.35-.09-2.24c5.53-6.19,8.8-13.91,14.06-20.33,12.82-15.63,28-27.57,48-32.75,3.4-.89,6.87-1.76,9.88-3.77l2.67-.91c.91,1.2-.62,1.56-.83,2.37l-.93.91C144.41,336.64,138.4,341.31,131.71,345Zm-28.94,62.13a2.76,2.76,0,0,1-2.76-1.47c-.42-.71,0-1.15.51-1.53,3.59-2.74,4.79-6.89,5.86-10.87,4.25-15.78,12.77-28.7,25.12-39.27,4.62-4,9-8.2,13.49-12.32l.31.36c-1.74,2.21-3.44,4.45-5.22,6.61C129.59,361.38,119.84,374.44,116,391c-1,4.52-3.86,8.51-6.83,12.18C107.53,405.24,105.6,407,102.77,407.15Zm8.94,6.82v.1l0-.09h0c0-.76.55-1.74-.68-2.06-1.85-.47-4.42-.23-4.84-2.56s2.44-2.6,3.67-4c2.42-2.71,3.88-6.07,6.81-9.76-.33,5.17-.36,9.32-1,13.38C115.39,411.16,114.75,413.72,111.71,414Zm3.09.45c3-3.51,3.19-7.69,3.23-11.91.13-16.45,6.12-30.74,16.13-43.52,5.47-7,11-13.92,16.5-20.87l.26-.06,0-.26a6.13,6.13,0,0,0,.79-.64,63.79,63.79,0,0,0,5-5.49c8.2-7.35,18.19-12,27.07-18.35-1.09,2.73-3.65,4-5.35,6.07-1.83,1.23-3.59,2.58-5.5,3.68-7.63,4.38-12.9,11.6-20.21,16.48-3.72,2.49-6,7.09-9,10.71-10,12.11-15.94,25.68-15.47,41.67.16,5.17.38,10.39-.86,15.45C125.35,416,122.79,415.51,114.8,414.42Zm8.93,1.62c3.62-2,4.68-4.73,5.36-7.65a39.33,39.33,0,0,0,1-10.25,122.37,122.37,0,0,1,.71-16.58c1-10,5.51-18.36,12.06-25.84-.56,1.7-1.11,3.41-1.67,5.11-3.7,9.28-4.68,18.9-4.23,28.84.31,7,.27,14-2.83,20.56C131.78,413.38,130,417.47,123.73,416Zm6.58,4.67c-1.25-1.13-2.3-2.31,0-3.71a13.85,13.85,0,0,0,5.63-7.53c3.1-5.14,2.9-11,2.63-16.49a86,86,0,0,1,4.32-33c2.76-5.37,4.48-11.33,9.21-16.1a22.18,22.18,0,0,1-1,2.78c-8.45,15.88-11.17,32.91-10.45,50.69.27,6.88.3,13.79-1.33,20.56A5.63,5.63,0,0,1,130.31,420.71Zm12.94.37c-1.29.21-2.81.4-2.93-1.65,2.12-5.8,2.11-11.85,2-17.88-.2-12-.13-23.87,3-35.59,4.66-17.14,13.13-31.53,28.49-41.22,1-.62,1.73-1.91,3.22-1.32L176,325v0c-.55.66-1.14,1.29-1.65,2-10.14,13.83-16.5,29.49-20.48,45.93-3.4,14.08-5.89,28.54-1.25,43C150.3,419.19,146.93,420.47,143.25,421.08Zm17.31-3a4.38,4.38,0,0,1-5.4-2.06,20.83,20.83,0,0,1-2.95-10.57A118.4,118.4,0,0,1,157.6,366c5.75-17.94,14.13-34.42,26.35-48.85.91-.49,1.32-1.41,1.94-2.16,6-7.27,12.44-13.91,21.68-17,2.3-1.44,5-1.35,7.53-2.08-2,2.53-5.19,2.63-7.85,3.81a68.09,68.09,0,0,0-5.94,3.72c-21.83,16.81-34.73,38.94-39.24,66-2.45,14.76-1.18,29.52-.1,44.28C162.08,415.31,163.15,417.36,160.56,418.08Zm16.12-48c.58,8.87,2.62,17.53,3.44,26.36.67,7.07-.23,13.79-4.93,19.49-2.57,3.11-5.87,4-10,2.91,3.61-4.65,4.45-9.74,4-15.19-.68-8.46-2.25-16.88-1.8-25.4.6-11.56,5.31-21.91,10-32.27a15.08,15.08,0,0,1,4.89-7.66q-1.11,2.63-2.23,5.23C176.83,352.12,176.1,361,176.68,370.07Zm31.64-65.76c-19.94,16.22-33,36.95-40.48,61.38A54.78,54.78,0,0,0,166,388.36c.67,5.63,1.26,11.27,1.62,16.92.25,4-.13,8-3.27,11.93-1.31-7.37-1.16-14.12-1.57-20.81-2-32.63,7.59-61.06,30.9-84.38,6.06-6.06,13-10.93,22-13.51C213.49,301.45,210.58,302.47,208.32,304.31Zm3.78-16.75L198.72,277l-.57-.49-5.81-5.65c-.53-1.81-2.13-2.66-3.47-3.67a211.22,211.22,0,0,1-20.81-17.66c-11.34-11-25-14.51-40.37-12.91-7.6.78-15.07,2.31-22.56,3.76-1,.19-2,1-3,0,4-1.68,7.9-3.46,11.91-5,8.77-3.45,17.78-4.84,27.18-3.15a71.57,71.57,0,0,1,30,12.66c7.16,6.61,14.35,13.17,20.89,20.42,6.89,7.62,14.31,14.68,23.21,20,4.54,2.69,9.27,5.08,14.57,8C222.65,293.84,217.53,290.23,212.1,287.56Zm95.48-.41c12-4.56,24.34-8.16,37.22-9.31,13.16-1.16,26-.72,36.44,9.13a.86.86,0,0,0,.31.6c.19.39.43.85.77,1.53-1.28-.51-2.22-.81-3.09-1.26-11.38-5.79-23.09-7-35.39-3.15-14.35,4.49-28.84,8.44-44.12,7.41-1.09-.07-3.16,1.27-3.35-1.36A64.75,64.75,0,0,0,307.58,287.15Zm-14.08,6.06c12.41,1.6,24.59.18,36.61-3,4.9-1.28,9.78-2.62,14.6-4.16,15.91-5.09,29.84-.59,42.85,8.62.91,2.87,3.73,5.16,2.61,8.64-2.18-2.33-4.14-4.93-6.59-6.94-10.61-8.73-22.9-9.48-35.7-6.81-7.47,1.57-14.52,4.69-22.12,5.93-14.73,2.39-29.52,1.26-44.3,1.23-.65,0-1.6.25-1.43-1C284.53,294.94,288.85,293.21,293.5,293.21ZM264,298.07l1.66-.3h0c3.32.43,6.63,1,10,.17,7.86.21,15.72.39,23.59.62,14.75.43,29.28-.77,43.32-5.79a41.3,41.3,0,0,1,10.38-2.56c12.48-1,24.14.48,33,10.77,3.35,3.9,5.18,8,3.18,13.15-1.77,3-3.29,1.76-4.53-.39C378,302.3,367.24,298.59,355,298c-9.58-.44-18.92,1.61-28.15,3.7-14.87,3.38-29.65,6.64-44.9,2.43-5.9-1.63-11.83-3.15-17.74-4.72a7.76,7.76,0,0,1-4.54-1.21A9.8,9.8,0,0,1,264,298.07ZM380,310.51a4.65,4.65,0,0,1-1.13-.12c-.64-.37-1.28-.74-1.88-1.17-6.19-4.41-13.19-5.62-20.63-5.85-10.61-.32-20.41,3.06-30.34,5.9-14.19,4.05-28.4,4.83-42.59.23-4.39-1.42-8.61-3.35-12.9-5.05a11.62,11.62,0,0,1-6.87-3.57l5.56,1.4a1.68,1.68,0,0,1,.69-.07c13.67,4.9,27.55,7.3,42.06,4.3,10.13-2.1,20.2-4.51,30.46-6,9.18-1.37,18.18-1.22,26.95,2.1A22,22,0,0,1,380,310.51Zm-139.59-9.8c2.91,2.29,5.84,4.55,8.72,6.86a27,27,0,0,1,8.31,12c4.22,11.17,8.57,22.28,12.86,33.42,3.76,9.77,10.42,16.26,20.85,18.52l-.21-.43a1,1,0,0,1,.21.43c6.87,2.23,13.85,1.49,20.84.84,1.32-.12,2.63-.82,4-.09-4.7,2.07-8.92,5.18-14.06,6.34-14.63,3.29-33.67-3.68-41.58-20.5-4.2-8.92-6-18.52-8.71-27.85-2.91-9.9-5.16-20.13-11.73-28.55Zm59.32,82.55c-2.47,1.87-5.54,2.44-8.36,3.54-28.27,2.65-45.62-18.08-39.29-47.71a13.16,13.16,0,0,1,.88,2.39,62.77,62.77,0,0,0,7.43,20.4c7.8,14.1,26.84,22.43,41.78,18.41C302.72,382.35,300.78,382.5,299.77,383.26Zm-22.72,15.83h0c-1.38-.53-3,.16-4.29-.8-8.33.66-16.1-1.66-23.73-4.54a24.47,24.47,0,0,1-15.23-16,59,59,0,0,1-1.18-34.91c3.23-11.79,5.24-23.83,4.19-36.17a5,5,0,0,1-.49-3.47,3.19,3.19,0,0,1,1.8,2.89c2.12,12.05,5.26,24,4,36.42-.41,4.16-.82,8.34-1,12.52-.58,10.54.2,20.7,8,29,6.34,6.7,13.56,11.71,22.91,13.07l2.68,0c3,1,6.19.28,9.71,1C281.72,399.49,279.31,398.62,277.05,399.09Zm41.69-24.89a3.3,3.3,0,0,1-.8.57c-5.86,4.86-11.76,9.67-17.57,14.59a27.6,27.6,0,0,1-21.12,6.86c-1.58-.14-3.16-.16-4.74-.24-.6-.14-1.19-.3-1.79-.42C254.1,392,243,378.73,243,359.81a37.51,37.51,0,0,1,.22-6.28c2.51-14.87.52-29.51-2.15-44.11a3.88,3.88,0,0,1-.62-3.93c1.22,1.43,2.12,2.63,2.23,4.27,3.28,9.2,6.26,18.47,6.57,28.34.18,5.54.42,11.1.16,16.62C248.3,377.8,275,393,291.5,388.09c5.61-.55,10.12-3.23,13.95-7.21l12.85-7.68c.91-1.43,2.44-1.93,3.85-2.61C322.19,373,320.23,373.35,318.74,374.2Zm8.48-6.27a41.54,41.54,0,0,0-9.34,2.09c-6.6.78-13.18,1.83-19.84,1.16-2.56-.26-5.08-.83-7.62-1.27a26.46,26.46,0,0,1-18.23-17.86c-3.68-11.12-8.78-21.67-12.66-32.71-1.32-3.75-2.68-7.58-5.82-10.37l-10.54-8.11L241.36,299c2.29-.17,3.62,1.79,5.6,2,3.73,2.89,7.4,5.85,10.25,9.68,4.21,4.38,7.19,9.56,9.89,14.94,4,7.87,6.49,16.47,12.15,23.46h0c4.62,6.45,11.29,9.26,18.82,10.36a142.78,142.78,0,0,0,20.67,1.13c9.43,0,18.72.85,27.58,4.39l3.24,2.55C341.54,366.12,334.33,365.9,327.22,367.93Zm-57.57-42.28c4.27,3,7.15,7.24,10.21,11.26,5.83,7.66,13,13.47,22.31,16.26a104.4,104.4,0,0,0,24,4c5.26.3,10.65.09,15.37,3.13L343,362l-.08.12a80.94,80.94,0,0,0-19.35-2.93c-6.15-.11-12.29-.39-18.44-.62-8.18-.31-15.81-2.22-22.21-7.69C276.22,343.68,273.52,334.38,269.65,325.65ZM364.93,368c-.93,1.12-2.76.85-4.23.69A20.79,20.79,0,0,1,350,364.09c-6.85-5.37-14.19-9.23-23.3-8.65-5.07.33-10.06-.78-15.05-1.58-12.28-2-22.72-7.16-30.19-17.45-1.11-1.54-3-2.66-3.25-5.07l8.24,5.22.14.09a43.32,43.32,0,0,0,17.86,6.58c10,1.52,20,2.91,30,4.56A55.42,55.42,0,0,1,350.93,353,36.23,36.23,0,0,1,363.7,364.5C363.81,365.81,366,366.71,364.93,368Zm3.14-2c-1.24.39-1.24-.92-1.36-1.67-2.4-14.21-12.54-21.08-24.64-26.14-8.81-3.69-18.15-4.36-27.51-4.91-8.77.1-17.49,0-25.42-4.6-.46-.27-1.31-.74-1.95,0l-.05.05,0,0c1.91,2.26,4.57,3.17,7.28,4,5.7,1.79,11.59,2,17.5,2.18,10.73.27,21.4.92,31.34,5.56,9.43,4.4,18,9.76,20.92,20.73-.89.47-1.39-.14-1.84-.71-6.16-7.8-14.73-11.22-24-13.4a219.47,219.47,0,0,0-24.42-4c-10.62-1.24-20.84-3.57-29.92-9.56h0c-9.65-6-17.14-14.22-24.59-24,7.3,4.11,13.52,8.14,19,13.25a12.58,12.58,0,0,0,5.45,4.36c.65.53,1.16,1.47,2.21.67a2.29,2.29,0,0,0,.53.41c.5-1.55-1.38-1.57-1.69-2.71l2,.27h0c.87.45,1.72.92,2.61,1.34,7.74,3.6,16,4.48,24.39,4.54,8.3-.78,16.59-1.61,24.95-1.06,5.47.36,10.54,2.08,15.57,4h0c7.79,4.9,13.41,11.52,16.17,20.42a20.53,20.53,0,0,1,1.21,7.25C371.71,364.64,369.83,365.47,368.07,366Zm6.16-7.95c0,.22-.45.44-.79.75-3-11.48-8.7-20.76-19.86-25.77-8.15-4.51-17-4.38-25.93-4-4.93.19-9.84.77-14.76,1.06-9.49.55-18.33-1.89-26.81-5.93-2-1.12-3.87-2.46-6.11-3.08.58-2.2,1.95-.54,2.73-.37,4.89,1.06,9.68,2.6,14.59,3.47,9.3,1.65,18.53.58,27.68-1.44,3.47.31,6.86-.47,10.28-.78,15.87-1.41,27.58,5.08,36,18.36C374.83,345.92,374.25,352,374.23,358.08Zm-24-41.77c-3.7.65-7.47.94-11,2.4-4.78,1-9.72,1.28-14.39,2.87-6.41.89-12.78,2.16-19.3,2a6.29,6.29,0,0,1-4.07-.08c0-.38,0-.76,0-1.14h3.94l1.52-.61a38.93,38.93,0,0,0,4.72-.52c7.62-1.8,15.26-3.59,22.83-5.61a41.17,41.17,0,0,1,18.14-.53C352.65,317,351,316.17,350.22,316.31Zm5.12,1c12.16-.57,26.5,15.22,20.86,29.8-2.58-8.21-7.55-14.47-13.93-19.63a34.57,34.57,0,0,0-19.22-7.37c1.77-2.43,4.57-1.53,6.91-2.09A48,48,0,0,1,355.34,317.31ZM382,335.44c-1.64,2.2-2.43,1.91-3.23-.49-4.17-12.54-13.62-18.71-25.92-21.43a9,9,0,0,1-5.05-1c1.81-.53,3-1.06,4.35-.54,11.42-1,21.36,1.8,29.18,10.8C385.28,327.3,385.64,330.55,382,335.44Zm4.38-10.62c-1.49.73-1.71-1-2.34-1.74-7.16-8.23-15.71-13.13-27.06-12.8-17.35.52-33.74,5.46-50.2,10.17-10.85,2.56-21-.31-31.16-3.81a160.64,160.64,0,0,1-24.2-14.56,43.61,43.61,0,0,0-5.81-3.11c-.65-.54-1.45-1-1.24-2.05l13.07,3.72c4.86,2.08,9.79,4,14.57,6.27,16.88,7.91,34.29,9.56,52.29,4.65,6.43-1.75,12.79-3.85,19.3-5.18,13.58-2.78,26.63-2,37.5,8,2.26,2.09,5.21,3.78,6.05,7.12C387.45,322.67,387.73,324.16,386.39,324.82ZM352.84,275.3c-15.9.33-31,4.29-45.7,9.83-1.67.63-3.25,1.75-6.08,1,5.45-3.26,10.37-6.14,15.23-9.11a68.61,68.61,0,0,1,35.11-10.2c15.49-.24,29,4.1,37.94,17.94,3.08,4.76,5,12.91,3.88,16.54C385.5,283,372.67,274.89,352.84,275.3Zm43.46,24.45c-1.48-14.13-8.38-23.72-19.69-29.73-10.94-5.81-22.93-6.4-35.12-5,11.15-5.17,22.6-7.47,34.74-4.3,14,3.66,22.38,14,22.74,28.26A20.35,20.35,0,0,1,396.3,299.75Zm3.39-.5c5.71-20.38-5.53-36.18-24.73-41.65a36.8,36.8,0,0,1,14,.19c10.12,1.95,17,8.32,21.36,17.2C414.84,284.14,410.62,293.11,399.69,299.25Zm11.79-7.45c3.69-6.79,3.8-13.49-.14-19.84-6.53-10.49-15.71-16.88-28.49-17-11.27-.11-22.41.89-33.26,4.19A11.91,11.91,0,0,1,344,260.7c1.89-1.27,3.57-2.85,5.91-3.24,13.81-5.51,28.1-8.57,43-7.22A30.91,30.91,0,0,1,420,274.05C421.66,281.37,418,289.2,411.48,291.8Zm6.54-2.23c5.79-6.92,5.58-14.3,1.88-21.89-5.76-11.79-15-18.63-28.29-19.6-13.78-1-26.91,2.28-40,6.07L344.74,258c1.33-3.26,4.52-4.09,7.24-5.55,14.4-8.6,29.64-13.16,46.59-9.91,3.44.66,6.44,2.37,9.68,3.51l1.69,1.08,6.41,5.05c6.39,7.41,11.06,15.6,11.69,25.64C426.4,285.4,423.12,289.33,418,289.57Zm11.61-13.37c-.25-1.78-.51-3.55-.77-5.33a49.89,49.89,0,0,0-7-14.46,34.06,34.06,0,0,0-15-12.41c-11.69-5.71-23.71-4.66-35.71-1.43-11.08,3-20.88,8.67-30.12,15.35h0l-5.32,4.22h0c-.71-.24-1.13,1.1-1.93.36h0l7-6.64,1.53-.81c.83-1.63,3.23-1.52,3.81-3.43,10.09-9.79,22.46-15.5,35.78-19,9-2.35,17.89-.95,25.52,5,3.58,2.81,7.17,5.61,10.55,8.65,7.22,6.51,11.61,14.52,12.34,24.35A8.34,8.34,0,0,1,429.63,276.2Zm-3.29-31h0v0l1.71,10c-5.17-7.94-12.6-13.28-19.83-18.8-5.59-4.26-12-6-19-6.1-8.85-.15-16.49,3.63-24.32,6.9L360,239.86c-.07-.37-.13-.74-.2-1.1h0c1.8-1.13,3.36-2.66,5.5-3.22a109.3,109.3,0,0,1,15.83-8.64c13.09-5.83,25.32-5,36.43,4.64C420.93,235.81,424.61,239.88,426.34,245.2Zm-5.6-12.92h0c-2-1.85-4.46-3.19-5.91-5.6,7.87.86,15.73,1.15,23.57-.27.37-.07.75,0,.75.51C433.24,229.47,427.23,231.68,420.74,232.28Zm276,41.39c-16.09,28.06-25.11,59.5-42.28,86.93a.41.41,0,0,0,0,.09c-1.28,1.81-2.63,3.57-3.82,5.43-5,7.87-12,12.9-21.26,14.7-6.11,1.2-12.25.79-18.39.26a4.35,4.35,0,0,1-.61-.47c-.42-.43-.14-.7.91-.87,3.89-.64,7.77-1.33,11.64-2a34.05,34.05,0,0,0,23.82-16c5.53-8.85,11.3-17.6,15.25-27.35h0a99,99,0,0,0,6.37-18.86c3.77-16.06,13.24-28.43,24.71-39.59C694,275,695.13,273.6,696.71,273.67Zm-6.43,1.61a68.75,68.75,0,0,1-5.37,6.45c-8.37,9.15-14.62,19.48-17.78,31.57a230.94,230.94,0,0,1-7.19,22.51h0c-3.91,6.85-7.91,13.64-11.7,20.55-6.64,12.12-16.61,19.23-30.45,20.71l-4.61,1c-.06-.34-.11-.69-.16-1l4.63-1.15a61.21,61.21,0,0,0,11.21-6.19c5.79-4.14,11.28-8.59,14.48-15.21a47.8,47.8,0,0,0,7.89-14.13c3.29-9.2,5.47-18.72,7.61-28.2a50.92,50.92,0,0,1,14.73-26A49.36,49.36,0,0,1,690.28,275.28Zm-48.07-8A93.66,93.66,0,0,1,625.27,245c-5-8.77-10.21-17.41-16.66-25.24-10-12.16-24.18-16.89-38.35-21.68-1-1.86.53-1.07,1.16-1a64.34,64.34,0,0,1,22.86,5.17c.78.35,1.6.57,2.4.85,13.23,7.08,23.23,17.59,30.35,30.5,5.87,10.65,10.49,22,15.64,33C642.71,266.71,642.45,267,642.21,267.31Zm-86.54-76.63A68.71,68.71,0,0,1,596,196.19c15.22,6.95,26.89,17,34.19,32.15a199.06,199.06,0,0,1,9.38,24.36l2.08,5.58-1.16.17h0c-.73-1.87-2-3.53-2.25-5.6-4.44-9.26-8.2-18.88-14.46-27.21-7.42-9.85-15.74-18.6-27.26-23.71-7-3.83-14.58-5.52-22.46-6.09-2.79-.2-5.59-.26-8.38-.39-7.32-1.07-14.81-.74-22.08-2.68C547.6,191.82,551.65,191.31,555.67,190.68Zm1.13,5.92c3.63.27,7.08,1.66,10.75,1.48h0c2.82,2.12,6.29,2.64,9.46,3.89,9.85,3.88,19.76,7.46,27.35,15.48a114.79,114.79,0,0,1,15.57,21.42c7,12,14,24.06,25.32,32.7.51.39,1.3.81.84,1.85l-2.72-.76h0c-4.06-2.77-8.05-5.64-12.19-8.3a57.34,57.34,0,0,1-18.75-20c-3.87-6.71-7.59-13.53-12.58-19.51-.86-1-1.87-1.93-2.81-2.89l-.14-.15c-9.65-10.61-21.81-17.1-35.3-21.38-6.4-2-13.15-2.53-19.66-4.18C546.9,195.62,551.84,196.23,556.8,196.6Zm-28.79.87c24.33.3,46.88,5.75,65.44,22.72,7.55,7.39,12.74,16.48,17.85,25.56,7.59,13.47,19.77,21.48,32.88,28.5L647,275.5l1.52,1.61v0l0,.05c-8.67-1.74-15.72-5.73-22.69-9.88-1.46-.87-2.67-2.17-4.4-2.59-8.05-5.94-14.23-13.58-19.57-21.92-13.45-21-33.2-32.72-56.74-39a24.43,24.43,0,0,0-7.07-1.89c-5.05-1.63-10.49-1.81-15.38-4.16A26.2,26.2,0,0,1,528,197.47Zm-36.42,4.61a15.77,15.77,0,0,1,3.85-1.11A158.79,158.79,0,0,1,516,198.8l22.72,4.64,7.11,2a103.49,103.49,0,0,1,42.39,23c6,5.43,10.11,12.32,14.74,18.81,5.75,8.06,12.1,15.52,20.91,20.46,9.53,6.49,19.7,11.24,31.46,11.79l1.54.12,3.29.78c.16.43,1.63.89,0,1.29-.8.19-1.62.31-2.43.46-23.72.26-44.56-7.16-62.05-23.39-5.72-5.31-10-11.84-14.8-17.94-15.07-19.11-33.16-33.77-58.09-37.64a91.59,91.59,0,0,0-24.31-.39,19.08,19.08,0,0,0-6.82.32,5.08,5.08,0,0,1-4.82.2ZM658,284.43c-11.59,2.87-23.19,4.57-34.83.25L613.28,281l-.07,0c-5.61-3.05-11.58-5.5-16.27-10.07-12.72-12.4-25.58-24.63-37.68-37.65-7-7.6-14.49-14.84-24.11-19.29a69.78,69.78,0,0,0-20.51-8.68,9.91,9.91,0,0,1-5.77-1.77l5.06.23c20.76.37,37.37,10,52.5,23.21,8.09,7.06,13.55,16.22,20.36,24.29,18.55,22,42.08,33.09,71.05,32.08C657.91,283.7,658,284.06,658,284.43ZM478.19,204.77l.15,1.21c-3.49,1.79-6.65,4.28-10.61,5.14A33.1,33.1,0,0,1,478.19,204.77Zm-7,7.61c8.66-4.46,18-6.4,27.59-7.25,13.53-.43,25.61,4.24,37.22,10.55,14.88,8.52,24.9,22.3,36.82,34Q583.9,260.59,595,271.48c5.41,5.28,12,8.51,19,11.16a59,59,0,0,0,41,4.22c3.22-.82,6.39-2.42,9.91-1.79h0a89.36,89.36,0,0,1-30.25,10.08c-13.71,2.07-26.12-1.3-37.26-9.59a133.85,133.85,0,0,1-22.76-22.06c-6.13-7.37-11.41-15.47-18.62-21.92-1-1.08-1.94-2.18-2.94-3.25-9.63-10.29-21.73-16.86-34.44-22.3a67.14,67.14,0,0,0-47.4-2.57c-1.59,1.33-3.59,1.29-5.45,1.76A13.41,13.41,0,0,1,471.18,212.38Zm-13.39,7.7,4.63-1.39c21.2-9.51,41.9-8.56,62.62,2a113.67,113.67,0,0,1,27.45,19.1h0a234.46,234.46,0,0,1,17,19.94,159.58,159.58,0,0,0,23.15,24.34c16.59,13.87,35,16.54,55.14,9.95l6.36-2c-3.35,3.2-7.53,4.69-11.49,6.57a90.94,90.94,0,0,1-22.07,3.65c-23,.89-40.29-8.85-52.94-27.68-3.9-5.8-7.52-11.81-12.15-17.09a.89.89,0,0,1-.47-.12l.47.12c-10.2-12.87-20.63-25.45-36.85-31.18-14.92-5.28-30-9.61-46.12-8.12-1.94.17-3.85.67-5.78,1h0a4.93,4.93,0,0,0-3.11.7l-1.08,0a8.8,8.8,0,0,1-4.72,1.33C456.19,221.29,457.69,220.51,457.79,220.08ZM614.87,315c-9.6.56-18.84-.92-28.13-3.14-19.12-4.58-34.17-14.34-44.39-31.59a199,199,0,0,0-28.74-37c-5.66-5.83-11.52-11.53-19.4-14.45a47.77,47.77,0,0,0-17.38-4.28l-6-1.06c-1.2.61-2.39-.22-3.59,0-.13-.36-1.37-.72-.15-1.08a13.57,13.57,0,0,1,3.14-.21,2.92,2.92,0,0,0,.47-.46c1.19.85,2.6.57,3.91.65,13.63.84,25.8,5.63,36.84,13.52,5,3.57,10,7.09,15,10.63,9.68,7.75,16,18.25,23.41,28,11.92,15.73,27,27.43,46.21,32.74a58,58,0,0,0,39.12-2.38,21.42,21.42,0,0,1,2.62-.8l0,0,.34.51C631.52,310.47,624.05,314.44,614.87,315Zm2.71,2.6c-3.68-.72-7.21,1.49-10.9.63l-5.28.79c-7-.13-13.91-.2-20.88-.67-8.45-.57-15.59-3.83-22.11-8.92-1.44-1.13-2.95-2.19-4.42-3.28-12.92-11.58-21.58-26.47-31-40.69s-20.55-26.65-35.49-35.25c-2.22-1.27-4.54-2.62-7.23-2.86,2.13-1.48,4.08.09,6,.51,2.91.62,5.74,1.7,8.6,2.58a50.07,50.07,0,0,1,11.76,8.23c13.61,12.67,24.8,27.34,34.54,43.06,8.65,14,20.31,23.92,35.92,29.06a114.7,114.7,0,0,0,28.75,6c3.67-.12,7.35-.2,11-.37C618.12,316.37,618.05,316.82,617.58,317.57ZM466.83,220.42c1.73-.31,3.41-1,5.22-.64,19-1.68,36.69,3.23,53.44,11.29,11.79,5.66,19.71,16.25,28.16,25.94l.13.18c4.62,6.71,9.1,13.52,13.92,20.09a71.81,71.81,0,0,0,11.83,13.1c17,14.12,36.57,15.29,57.15,11.15-.59,1.38-1.82,1.87-3.12,2.36-14.89,5.64-29.73,5.24-44.42-.62-17.68-7-31.07-19.33-41.58-34.94-6.88-10.2-14.56-19.6-24.94-26.48-2.81-2-5.64-3.94-8.41-6-12.51-9.21-26.36-14.65-42-15l-1.5.72C469.68,220.3,467.79,221.87,466.83,220.42Zm9.45,12.09,0,0-7.83-3.42c-6.52-2.36-13.21-2.43-20-1.65-1.29.14-2.74,1.06-4-.18,6.29-2.49,12.79-2.23,19.33-1.53l3.4,1.46a21.66,21.66,0,0,1,8.56,4.54c.22.19.43.4.64.6l.42.4Zm-6.88-5.8c-.79-.32-1.65-.61-1.55-1.75,6.38.93,12.18,3.56,17.82,6.44,15.28,7.78,26,20.25,35.17,34.4,7.44,11.42,14.92,22.86,23.74,33.32a51,51,0,0,0,4,3.79h0l1.71,1.69a7.81,7.81,0,0,0,.88.85c7.44,7.1,15.56,13,26.48,14,8,.74,15.88,1.65,23.85.43,5.42-.39,10.89-.44,16.1-2.29.92.77,2.06-.73,3,.31a9.92,9.92,0,0,1-4.51,2.38c-5.55,1.67-11.2,3-16.67,4.95-11.07,3.89-22.17,3.88-33.53,1.38-12.63-2.78-23.07-8.38-29.3-20.34-4.9-9.4-10.06-18.67-15.09-28s-10.08-18.37-16.92-26.4a49,49,0,0,0-13.14-12.63C484.47,234.53,477.3,229.91,469.4,226.71Zm46.13,50.75c-2.33-5.36-5-10.57-7.52-15.84-1.61-2.34-2.8-5-4.87-7-1.5-1.71-3-3.41-4.52-5.12l-3.22-4.21c3.18,1.63,4.79,3.92,6.86,5.66l3.24,4.53c3.67,3.53,5.75,8.15,8.17,12.47,7.15,12.8,13.91,25.81,21,38.63,3.93,7.07,8.7,13.51,16.51,16.85,15.53,6.65,31.34,9.33,47.87,3.72,5.4-1.83,11-3.11,17.24-4.85a14.55,14.55,0,0,1-1.86,2.33c-11.51,8.19-24.09,14.61-38.25,15.17-21.6.87-37.37-9.34-46.49-29C524.65,299.83,520.34,288.53,515.53,277.46Zm14.29,39.43c-.14-.43-.16-1,.55-1.14a6.28,6.28,0,0,1,1.2,1.34c4.86,9.87,12.86,16.33,22.76,20.5,21.87,9.2,40.85.86,59.31-10.14a11.23,11.23,0,0,0,2.69-2.51,33.92,33.92,0,0,1,7.19-6.29l-.78,2.07c-7.07,7.54-13.6,15.59-21.57,22.26-.95.52-1.95,1-2.86,1.58-11.25,7.39-23.6,9.53-36.72,7.36-7.8-1.3-15-4.18-20.17-10.51C535.56,334.22,532.75,325.5,529.82,316.89Zm94.09,2.91c-.18.32-.65.53-1,.79Zm-91.46,8.87c3.18,7.86,6.71,15.47,14.71,19.68,15.7,8.27,31.46,7.77,47.21.12A8.26,8.26,0,0,1,599,346.4c-2.2,1.62-3.4,3.36-5.41,4.16h0l-4.4,3.07c-6.29,2-12.38,4.64-19,5.37-11,1.2-20.94-1.1-29.43-8.52a46.32,46.32,0,0,1-8.5-17.71C531.89,331.54,530.59,329.91,532.45,328.67Zm36.68,38.4-8.88.49a65.07,65.07,0,0,1-8.32-2.8c-7.49-3.44-12.13-9.55-16-16.45a8.59,8.59,0,0,1-1.8-4.94,14.13,14.13,0,0,1,3.38,5.31c2.35,2.09,3.88,5.08,7,6.36l.1,0c9.16,5.45,19,6.68,29.36,4.7a56.32,56.32,0,0,0,10.54-3.16c.74-.3,1.58-1.27,2.42-.09A61.8,61.8,0,0,1,569.13,367.07Zm4.19-.06c10.41-5,19-12.52,27.13-20.53,2.11-.93,3.3-2.88,4.86-4.42,9.26-9.17,17.73-19.12,27.31-28,5.14-4.75,9.13-10.67,15.19-14.51,6.22-3.95,12.17-8.31,18.38-12.27,2.18-1.39,4.12-3.43,7.42-3.81a19.4,19.4,0,0,1-1.4,1.76c-8.05,7.6-12.71,16.9-15.27,27.69-3.58,15.16-6.25,30.77-16.19,43.61-11.11,12.77-23.92,21.92-42,19.67-9.07-2.48-17.82-6.1-27.16-7.58C571.21,367.11,572.61,367.35,573.32,367ZM598,416.73c-5.14-6.78-7.29-14.68-8.68-22.89a31.52,31.52,0,0,0-6.71-15.18,12,12,0,0,1-4.49-4.89c2.64,1.5,5.24,3,6.82,5.69,6.12,5.93,10,13.21,13.16,21,3.85,9.68,7.36,19.58,15.61,26.83C607.45,425.32,602.07,422.05,598,416.73Zm21.75,12.2c-8.48-5-13.49-12.82-16.89-21.79-5-13.26-10.93-25.91-23-34.6a5.33,5.33,0,0,1,4,1c10.41,7.35,18.4,16.61,23.25,28.53,3,7.33,6.69,14.29,12,20.27a86,86,0,0,0,11.64,10.3A23.15,23.15,0,0,1,619.79,428.93ZM625.2,426c-7.87-7.18-12.72-16.2-16.91-25.73-3.87-8.81-9.13-16.59-16.85-22.53-.38-.29-.79-.59-.31-1.23,1.86-.07,3.47.87,5.13,1.61L606.58,389a223.43,223.43,0,0,1,14.07,20.33c5.19,8.21,11.43,15.48,20.29,20,3,1.53,6.22,2.74,9.69,4.26C640.57,435.37,632.43,432.57,625.2,426Zm22.42,4.59c-11.88-4.47-19.84-13.28-26.4-23.69-3.73-5.92-7.42-11.88-12.24-17-2.05-3.64-5.75-5.88-8.28-9.32,2.25-.67,3.09,1.29,4.58,1.68l1.05.67a2.85,2.85,0,0,1-.6-.31l6,4.74h0a113.76,113.76,0,0,1,22.19,26.09c5.67,9.22,13.84,14.82,24.14,17.68,1.14.32,3.16-.27,3.25,2A36,36,0,0,1,647.62,430.57Z" transform="translate(-40.39 -79.05)"/></g></g></g></svg>