<svg xmlns="http://www.w3.org/2000/svg" xmlns:xlink="http://www.w3.org/1999/xlink" viewBox="0 0 128.6 163.92"><defs><style>.cls-1{isolation:isolate;}.cls-2{fill:url(#linear-gradient);}.cls-14,.cls-3,.cls-6{fill:none;stroke-miterlimit:10;}.cls-3{stroke:url(#linear-gradient-2);}.cls-4,.cls-7{opacity:0.63;}.cls-13,.cls-15,.cls-4,.cls-7,.cls-9{mix-blend-mode:multiply;}.cls-4{fill:url(#linear-gradient-3);}.cls-5{fill:url(#linear-gradient-4);}.cls-6{stroke:url(#linear-gradient-5);}.cls-7{fill:url(#linear-gradient-6);}.cls-8{fill:url(#linear-gradient-7);}.cls-9{fill:url(#radial-gradient);}.cls-10{fill:url(#radial-gradient-2);}.cls-11{fill:url(#linear-gradient-8);}.cls-12{fill:#292c2b;}.cls-13{fill:url(#radial-gradient-3);}.cls-14{stroke-width:0.5px;stroke:url(#radial-gradient-4);}.cls-16{fill:url(#linear-gradient-9);}.cls-17{fill:url(#linear-gradient-10);}.cls-18{fill:url(#linear-gradient-11);}.cls-19{fill:url(#linear-gradient-12);}.cls-20{fill:url(#linear-gradient-13);}.cls-21{fill:url(#linear-gradient-14);}.cls-22{fill:url(#linear-gradient-15);}.cls-23{fill:url(#linear-gradient-16);}.cls-24{fill:url(#linear-gradient-17);}.cls-25{fill:url(#linear-gradient-18);}.cls-26{fill:url(#linear-gradient-19);}.cls-27{fill:url(#linear-gradient-20);}.cls-28{fill:url(#linear-gradient-21);}.cls-29{fill:url(#linear-gradient-22);}.cls-30{fill:url(#linear-gradient-23);}.cls-31{fill:url(#linear-gradient-24);}.cls-32{fill:url(#linear-gradient-25);}.cls-33{fill:url(#linear-gradient-26);}.cls-34{fill:url(#linear-gradient-27);}.cls-35{fill:url(#linear-gradient-28);}.cls-36{fill:url(#linear-gradient-29);}.cls-37{fill:url(#linear-gradient-30);}.cls-38{fill:url(#linear-gradient-31);}.cls-39{font-size:18.67px;font-family:AlibabaPuHuiTi-Medium-GBpc-EUC-H, Alibaba PuHuiTi;}.cls-40{fill:url(#linear-gradient-32);}.cls-41{fill:url(#linear-gradient-33);}.cls-42{fill:url(#linear-gradient-34);}.cls-43{fill:url(#linear-gradient-35);}.cls-44{fill:url(#linear-gradient-36);}.cls-45{fill:url(#linear-gradient-37);}.cls-46{fill:url(#linear-gradient-38);}.cls-47{fill:url(#linear-gradient-39);}.cls-48{fill:url(#New_Gradient_Swatch);}.cls-49{fill:url(#New_Gradient_Swatch-2);}.cls-50{fill:url(#New_Gradient_Swatch-3);}.cls-51{fill:url(#New_Gradient_Swatch-4);}.cls-52{fill:url(#New_Gradient_Swatch-5);}.cls-53{fill:url(#New_Gradient_Swatch-6);}</style><linearGradient id="linear-gradient" x1="50.14" y1="121.87" x2="39.02" y2="151.52" gradientTransform="translate(-11.96 -1.02) rotate(-1.79)" gradientUnits="userSpaceOnUse"><stop offset="0" stop-color="#8a0000"/><stop offset="1" stop-color="#ed1c24"/></linearGradient><linearGradient id="linear-gradient-2" x1="53.97" y1="111.77" x2="37.6" y2="155.43" gradientTransform="translate(-11.96 -1.02) rotate(-1.79)" gradientUnits="userSpaceOnUse"><stop offset="0.01" stop-color="#fbc01b"/><stop offset="0.25" stop-color="#fff5a8"/><stop offset="0.32" stop-color="#f8e997"/><stop offset="0.44" stop-color="#e7ca6a"/><stop offset="0.61" stop-color="#ca9922"/><stop offset="0.69" stop-color="#bd8100"/><stop offset="1" stop-color="#fff5a8"/></linearGradient><linearGradient id="linear-gradient-3" x1="39.74" y1="151.19" x2="46.78" y2="130.46" gradientTransform="translate(-11.96 -1.02) rotate(-1.79)" gradientUnits="userSpaceOnUse"><stop offset="0" stop-color="#fff" stop-opacity="0"/><stop offset="1" stop-color="#582d19"/></linearGradient><linearGradient id="linear-gradient-4" x1="451.02" y1="121.95" x2="439.91" y2="151.59" gradientTransform="matrix(-1, 0.03, 0.03, 1, 538.15, -18.26)" gradientUnits="userSpaceOnUse"><stop offset="0" stop-color="#8a0000"/><stop offset="0.34" stop-color="#ac0a0c"/><stop offset="1" stop-color="#ed1c24"/></linearGradient><linearGradient id="linear-gradient-5" x1="95.53" y1="111.77" x2="111.91" y2="155.43" xlink:href="#linear-gradient-2"/><linearGradient id="linear-gradient-6" x1="109.78" y1="146.08" x2="102.34" y2="130.82" xlink:href="#linear-gradient-3"/><linearGradient id="linear-gradient-7" x1="130.8" y1="13.61" x2="12.62" y2="126.44" gradientTransform="translate(-11.96 -1.02) rotate(-1.79)" gradientUnits="userSpaceOnUse"><stop offset="0" stop-color="#fff5a8"/><stop offset="0.31" stop-color="#bd8100"/><stop offset="0.76" stop-color="#e0be58"/><stop offset="1" stop-color="#f1dc83"/></linearGradient><radialGradient id="radial-gradient" cx="74.19" cy="67.67" r="64.32" gradientTransform="translate(-11.96 -1.02) rotate(-1.79)" gradientUnits="userSpaceOnUse"><stop offset="0.83" stop-color="#571600"/><stop offset="1" stop-color="#fff" stop-opacity="0"/></radialGradient><radialGradient id="radial-gradient-2" cx="65.36" cy="64.83" r="58.26" gradientUnits="userSpaceOnUse"><stop offset="0" stop-color="#fff5a8"/><stop offset="0.72" stop-color="#fff5a8"/></radialGradient><linearGradient id="linear-gradient-8" x1="17.97" y1="68.23" x2="132.48" y2="68.23" gradientTransform="translate(129.65 -13.78) rotate(87.07)" xlink:href="#linear-gradient-7"/><radialGradient id="radial-gradient-3" cx="1161.26" cy="-7.72" r="46.92" gradientTransform="matrix(0.98, 0.22, -0.22, 0.98, -1069.83, -180.32)" gradientUnits="userSpaceOnUse"><stop offset="0.86" stop-color="#fff" stop-opacity="0"/><stop offset="1" stop-color="#571600"/></radialGradient><radialGradient id="radial-gradient-4" cx="75.22" cy="68.23" r="47.18" gradientTransform="translate(-11.96 -1.02) rotate(-1.79)" xlink:href="#radial-gradient-2"/><linearGradient id="linear-gradient-9" x1="121.92" y1="85.98" x2="125.74" y2="85.98" gradientTransform="translate(-11.96 -1.02) rotate(-1.79)" gradientUnits="userSpaceOnUse"><stop offset="0" stop-color="#c9bf85"/><stop offset="0.17" stop-color="#875900"/><stop offset="0.41" stop-color="#aa8f47"/><stop offset="0.59" stop-color="#c0b274"/><stop offset="0.67" stop-color="#c9bf85"/></linearGradient><linearGradient id="linear-gradient-10" x1="115.33" y1="98.28" x2="118.95" y2="98.28" xlink:href="#linear-gradient-9"/><linearGradient id="linear-gradient-11" x1="105.74" y1="108.33" x2="109.48" y2="108.33" xlink:href="#linear-gradient-9"/><linearGradient id="linear-gradient-12" x1="93.89" y1="115.71" x2="97.55" y2="115.71" xlink:href="#linear-gradient-9"/><linearGradient id="linear-gradient-13" x1="80.15" y1="119.61" x2="83.97" y2="119.61" xlink:href="#linear-gradient-9"/><linearGradient id="linear-gradient-14" x1="65.92" y1="119.52" x2="69.74" y2="119.52" xlink:href="#linear-gradient-9"/><linearGradient id="linear-gradient-15" x1="52.39" y1="115.49" x2="56.05" y2="115.49" xlink:href="#linear-gradient-9"/><linearGradient id="linear-gradient-16" x1="40.54" y1="107.99" x2="44.28" y2="107.99" xlink:href="#linear-gradient-9"/><linearGradient id="linear-gradient-17" x1="31.18" y1="97.83" x2="34.81" y2="97.83" xlink:href="#linear-gradient-9"/><linearGradient id="linear-gradient-18" x1="24.52" y1="85.45" x2="28.33" y2="85.45" xlink:href="#linear-gradient-9"/><linearGradient id="linear-gradient-19" x1="21.61" y1="71.51" x2="25.32" y2="71.51" xlink:href="#linear-gradient-9"/><linearGradient id="linear-gradient-20" x1="22.7" y1="57.33" x2="26.5" y2="57.33" xlink:href="#linear-gradient-9"/><linearGradient id="linear-gradient-21" x1="27.66" y1="44.09" x2="31.41" y2="44.09" xlink:href="#linear-gradient-9"/><linearGradient id="linear-gradient-22" x1="35.91" y1="32.82" x2="39.59" y2="32.82" xlink:href="#linear-gradient-9"/><linearGradient id="linear-gradient-23" x1="46.67" y1="24.04" x2="50.41" y2="24.04" xlink:href="#linear-gradient-9"/><linearGradient id="linear-gradient-24" x1="59.55" y1="18.33" x2="63.27" y2="18.33" xlink:href="#linear-gradient-9"/><linearGradient id="linear-gradient-25" x1="73.58" y1="16.34" x2="77.44" y2="16.34" xlink:href="#linear-gradient-9"/><linearGradient id="linear-gradient-26" x1="87.73" y1="18.52" x2="91.43" y2="18.52" xlink:href="#linear-gradient-9"/><linearGradient id="linear-gradient-27" x1="100.52" y1="24.33" x2="104.26" y2="24.33" xlink:href="#linear-gradient-9"/><linearGradient id="linear-gradient-28" x1="111.24" y1="33.23" x2="114.91" y2="33.23" xlink:href="#linear-gradient-9"/><linearGradient id="linear-gradient-29" x1="119.29" y1="44.59" x2="123.04" y2="44.59" xlink:href="#linear-gradient-9"/><linearGradient id="linear-gradient-30" x1="124.08" y1="57.89" x2="127.88" y2="57.89" xlink:href="#linear-gradient-9"/><linearGradient id="linear-gradient-31" x1="125.08" y1="72.08" x2="128.79" y2="72.08" xlink:href="#linear-gradient-9"/><linearGradient id="linear-gradient-32" x1="49.17" y1="92.03" x2="49.17" y2="52.33" gradientTransform="translate(-11.96 -1.02) rotate(-1.79)" gradientUnits="userSpaceOnUse"><stop offset="0" stop-color="#fff5a8"/><stop offset="0.31" stop-color="#bd8100"/><stop offset="0.39" stop-color="#ca9922"/><stop offset="0.56" stop-color="#e7ca6a"/><stop offset="0.68" stop-color="#f8e997"/><stop offset="0.75" stop-color="#fff5a8"/><stop offset="0.99" stop-color="#fbc01b"/></linearGradient><linearGradient id="linear-gradient-33" x1="67.57" y1="92.03" x2="67.57" y2="52.33" xlink:href="#linear-gradient-32"/><linearGradient id="linear-gradient-34" x1="85.85" y1="92.03" x2="85.85" y2="52.33" xlink:href="#linear-gradient-32"/><linearGradient id="linear-gradient-35" x1="104.33" y1="92.03" x2="104.33" y2="52.33" xlink:href="#linear-gradient-32"/><linearGradient id="linear-gradient-36" x1="49.2" y1="92.03" x2="49.2" y2="52.33" xlink:href="#linear-gradient-32"/><linearGradient id="linear-gradient-37" x1="67.31" y1="92.03" x2="67.31" y2="52.33" xlink:href="#linear-gradient-32"/><linearGradient id="linear-gradient-38" x1="85.94" y1="92.03" x2="85.94" y2="52.33" xlink:href="#linear-gradient-32"/><linearGradient id="linear-gradient-39" x1="104.61" y1="92.03" x2="104.61" y2="52.33" xlink:href="#linear-gradient-32"/><linearGradient id="New_Gradient_Swatch" x1="96.12" y1="29.63" x2="53.75" y2="46.96" xlink:href="#linear-gradient-2"/><linearGradient id="New_Gradient_Swatch-2" x1="99.09" y1="37.16" x2="56.73" y2="54.49" xlink:href="#linear-gradient-2"/><linearGradient id="New_Gradient_Swatch-3" x1="94.29" y1="25.43" x2="51.93" y2="42.76" xlink:href="#linear-gradient-2"/><linearGradient id="New_Gradient_Swatch-4" x1="90.38" y1="72.12" x2="61.06" y2="84.12" gradientTransform="matrix(1, -0.03, -0.03, -1, -6.17, 180.86)" xlink:href="#linear-gradient-2"/><linearGradient id="New_Gradient_Swatch-5" x1="92.44" y1="77.33" x2="63.12" y2="89.32" gradientTransform="matrix(1, -0.03, -0.03, -1, -6.17, 180.86)" xlink:href="#linear-gradient-2"/><linearGradient id="New_Gradient_Swatch-6" x1="89.12" y1="69.21" x2="59.8" y2="81.2" gradientTransform="matrix(1, -0.03, -0.03, -1, -6.17, 180.86)" xlink:href="#linear-gradient-2"/></defs><g class="cls-1"><g id="圖層_2" data-name="圖層 2"><g id="字_圖" data-name="字+圖"><polygon class="cls-2" points="48.2 163.92 67.7 116.27 27.23 99.5 7.73 147.15 30.7 147.31 48.2 163.92"/><polygon class="cls-3" points="32.09 143.87 12.85 143.73 29.11 104.02 63.21 118.14 46.91 157.94 32.09 143.87"/><polygon class="cls-4" points="48.2 163.92 67.7 116.27 27.23 99.5 7.73 147.15 30.7 147.31 48.2 163.92"/><polygon class="cls-5" points="87.72 162.69 65.28 116.35 104.63 97.08 127.07 143.43 104.14 145.01 87.72 162.69"/><polygon class="cls-6" points="69.88 117.94 103.03 101.71 121.73 140.34 102.55 141.67 88.63 156.64 69.88 117.94"/><polygon class="cls-7" points="87.72 162.69 65.28 116.35 104.63 97.08 127.07 143.43 104.14 145.01 87.72 162.69"/><path class="cls-8" d="M72.89,2.65h0A20.05,20.05,0,0,0,84,5.27h0a20.09,20.09,0,0,1,18.53,9.94h0a20.08,20.08,0,0,0,8.34,7.84h0A20.07,20.07,0,0,1,122,40.92h0a20,20,0,0,0,3.3,11h0a20.05,20.05,0,0,1,.66,21h0A20.05,20.05,0,0,0,123.33,84h0a20.08,20.08,0,0,1-9.93,18.53h0a20.1,20.1,0,0,0-7.85,8.34h0A20.06,20.06,0,0,1,87.69,122h0a20.09,20.09,0,0,0-11,3.3h0a20.05,20.05,0,0,1-21,.66h0a20,20,0,0,0-11.15-2.62h0A20.06,20.06,0,0,1,26,113.4h0a20.18,20.18,0,0,0-8.35-7.85h0A20.06,20.06,0,0,1,6.62,87.69h0a20.18,20.18,0,0,0-3.31-11h0a20.07,20.07,0,0,1-.66-21h0A20,20,0,0,0,5.27,44.56h0A20.07,20.07,0,0,1,15.21,26h0a20.16,20.16,0,0,0,7.84-8.35h0A20.06,20.06,0,0,1,40.92,6.62h0a20.12,20.12,0,0,0,11-3.31h0A20.07,20.07,0,0,1,72.89,2.65Z"/><path class="cls-9" d="M72.89,2.65h0A20.05,20.05,0,0,0,84,5.27h0a20.09,20.09,0,0,1,18.53,9.94h0a20.08,20.08,0,0,0,8.34,7.84h0A20.07,20.07,0,0,1,122,40.92h0a20,20,0,0,0,3.3,11h0a20.05,20.05,0,0,1,.66,21h0A20.05,20.05,0,0,0,123.33,84h0a20.08,20.08,0,0,1-9.93,18.53h0a20.1,20.1,0,0,0-7.85,8.34h0A20.06,20.06,0,0,1,87.69,122h0a20.09,20.09,0,0,0-11,3.3h0a20.05,20.05,0,0,1-21,.66h0a20,20,0,0,0-11.15-2.62h0A20.06,20.06,0,0,1,26,113.4h0a20.18,20.18,0,0,0-8.35-7.85h0A20.06,20.06,0,0,1,6.62,87.69h0a20.18,20.18,0,0,0-3.31-11h0a20.07,20.07,0,0,1-.66-21h0A20,20,0,0,0,5.27,44.56h0A20.07,20.07,0,0,1,15.21,26h0a20.16,20.16,0,0,0,7.84-8.35h0A20.06,20.06,0,0,1,40.92,6.62h0a20.12,20.12,0,0,0,11-3.31h0A20.07,20.07,0,0,1,72.89,2.65Z"/><path class="cls-10" d="M65.31,7.58A57.25,57.25,0,1,1,9.85,50.82,57.3,57.3,0,0,1,65.31,7.58m0-1h0a58.32,58.32,0,1,0,14.3,1.78,58.16,58.16,0,0,0-14.3-1.78Z"/><circle class="cls-11" cx="65.36" cy="64.83" r="57.24" transform="translate(-0.76 128.89) rotate(-88.86)"/><path class="cls-12" d="M112.17,63.2a46.3,46.3,0,0,1-1.1,11.89c-.19.87-.41,1.72-.66,2.57h0a43.34,43.34,0,0,1-1.58,4.62,46.85,46.85,0,0,1-73.89,18.16,47.73,47.73,0,0,1-6.07-6.24A46.62,46.62,0,0,1,21,79.87a46.12,46.12,0,0,1-1.89-7.64,47.38,47.38,0,0,1-.56-5.77,46.84,46.84,0,0,1,93.63-3.26Z"/><path class="cls-13" d="M111.37,74A46.92,46.92,0,1,1,76.27,19.2,46.92,46.92,0,0,1,111.37,74Z"/><path class="cls-14" d="M111.37,74A46.92,46.92,0,1,1,76.27,19.2,46.92,46.92,0,0,1,111.37,74Z"/><g class="cls-15"><path class="cls-16" d="M114.41,82.88l-.33-.92-.14-.38-1.34-.14.72-.59.31-.26-.1-.39-.24-.9,1.17.68.34-.22.81-.55c-.07.33-.14.65-.22,1l-.09.38.31.26.8.68-1,.08-.39,0-.16.36C114.68,82.27,114.55,82.57,114.41,82.88Z"/><path class="cls-17" d="M107.73,95.45c0-.33,0-.65-.07-1l0-.39-1.26-.5.86-.37.37-.17v-.4c0-.31,0-.62,0-.93l.95,1,.37-.12.93-.31c-.15.3-.31.59-.47.88l-.18.35.22.32.59.88-1-.21-.38-.08-.25.3C108.16,94.94,108,95.19,107.73,95.45Z"/><path class="cls-18" d="M97.89,105.74c.07-.32.14-.64.2-1l.08-.39-1.08-.82.92-.13.41,0,.11-.39c.1-.3.18-.6.27-.89l.65,1.18h.39l1,0q-.34.38-.69.72l-.27.28.12.37c.12.33.23.67.34,1-.32-.15-.63-.32-.94-.48l-.35-.18-.32.23Z"/><path class="cls-19" d="M88,113.52l-.78-.71-.28-.27-.37.13-.94.33c.15-.29.3-.58.44-.87l.18-.36-.81-1.08.92.13.4.05.22-.34.5-.79.3,1.32.39.09,1,.22c-.28.18-.57.35-.85.51l-.34.2,0,.39C88,112.82,88,113.17,88,113.52Z"/><path class="cls-20" d="M74,117.84c-.19-.3-.37-.6-.55-.9l-.2-.33-.4,0-1,.06.67-.72.26-.29-.49-1.26.85.37.38.16.3-.27.69-.63c0,.32-.06,1.35-.06,1.35l.35.2.86.47-1,.25-.38.1-.08.38Z"/><path class="cls-21" d="M59.42,118.21c-.1-.34-.2-.68-.29-1l-.1-.38-.39-.08c-.32-.06-.65-.13-1-.21.28-.16.56-.33.83-.51l.34-.21-.13-1.34.72.59.31.25.37-.18.83-.41L60.52,116l.28.28c.23.23.46.46.7.68H60.11l-.19.35C59.76,117.6,59.59,117.91,59.42,118.21Z"/><path class="cls-22" d="M45.23,114.63v-1.45l-.35-.17-.88-.47.94-.26.38-.12s.18-1,.23-1.33l.54.76.24.33.4-.07.91-.18-.75,1.12.19.35.5.85-1-.28-.38-.12-.27.29Z"/><path class="cls-23" d="M35,107.37c-.29-.17-.57-.35-.85-.53l-.33-.21-.34.2c-.3.18-.6.36-.91.53.09-.34.18-.68.28-1l.1-.37-.28-.27c-.25-.23-.49-.45-.73-.69h1.38l.59-1.22c.1.29.2.59.31.88l.13.38.41,0,.92.07-1,.88.1.38C34.8,106.74,34.88,107.06,35,107.37Z"/><path class="cls-24" d="M24.62,97.59,24,96.85l-.26-.29-.38.1-1,.26.54-.9.21-.33-.21-.34-.51-.85.95.26.38.1.89-1,.06.92,0,.41.38.14.87.33-1.22.56,0,.4C24.63,96.93,24.63,97.26,24.62,97.59Z"/><path class="cls-25" d="M17.3,85.39c-.16-.3-.31-.6-.45-.89l-.18-.36h-.39l-1.05,0,.76-.73.29-.27-.11-.37c-.09-.32-.18-.64-.26-1l.84.5.34.2,1.13-.73c-.06.3-.13.6-.19.91l-.08.39.33.25.75.54-1.33.22-.12.38C17.48,84.76,17.39,85.07,17.3,85.39Z"/><path class="cls-26" d="M13.52,71.66c-.07-.33-.13-.66-.19-1l-.07-.39-.38-.11-1-.3.94-.49.35-.18v-.39c0-.33,0-.67,0-1l.67.71.28.29,1.29-.4c-.15.27-.29.55-.43.82l-.19.36.25.32c.19.25.38.49.58.73l-1.35-.15-.21.33C13.87,71.1,13.69,71.38,13.52,71.66Z"/><path class="cls-27" d="M13.61,57.43c0-.34.05-.67.08-1l0-.39-.33-.21c-.3-.18-.6-.37-.89-.57l1-.22.38-.07.11-.38c.08-.32.18-.64.27-1l.45.87.19.35,1.35,0-.63.68-.28.3.15.37.36.86-1.25-.51-.3.26C14.1,57,13.85,57.2,13.61,57.43Z"/><path class="cls-28" d="M18.76,43.13l-.36.17-.87.44c.11-.32.22-.63.34-.94l.14-.37-.27-.29-.7-.78,1.05.06.4,0,.2-.34.52-.85c.06.32.13.64.2,1l.09.39,1.31.33c-.27.15-.53.31-.8.48l-.34.21,0,.4c0,.31.07.62.11.93Z"/><path class="cls-29" d="M26.34,31.36l-.39.07-1,.18.58-.81.24-.31-.18-.35c-.15-.31-.31-.63-.46-.95l1,.35.37.13.29-.27.73-.67c0,.32-.05.65-.06,1l0,.4,1.18.67-.9.25-.39.11-.06.4c-.05.31-.1.61-.14.92Z"/><path class="cls-30" d="M36.83,22.09l-.4,0-1-.09.79-.62.3-.24-.07-.38c-.06-.35-.13-.69-.19-1l.86.6.32.23.35-.18.89-.46-.33.93-.12.37s.72.74,1,1H37.86l-.17.37c-.13.28-.26.57-.38.85C37.19,23.05,36.83,22.09,36.83,22.09Z"/><path class="cls-31" d="M49.42,16l-.37-.15-.92-.34.92-.39.36-.15,0-.39c0-.35.06-.7.1-1.05.22.27.45.54.67.82l.25.3.38-.08,1-.2-.57.8-.22.33.66,1.18-.9-.25-.39-.11-.26.31-.6.71C49.51,17,49.42,16,49.42,16Z"/><path class="cls-32" d="M65.19,14.75l-.79-.49-.35-.21-.34.23-.77.52.25-1.33-.32-.24-.79-.58,1-.12.39,0,.14-.36.37-1c.15.32.29.65.43,1l.15.36.4,0,1,.08c-.26.2-.51.41-.76.62l-.3.25S65.12,14.44,65.19,14.75Z"/><path class="cls-33" d="M77.8,15.58,76.53,16c.13-.28.59-1.21.59-1.21l-.84-1.08,1.37.2.23-.32c.21-.28.41-.57.63-.85,0,.35.1.7.14,1.05l0,.38,1.31.48-.89.39-.37.17s0,1,0,1.34Z"/><path class="cls-34" d="M91.24,22l-.42-.82-.19-.36-.41,0-.93.05.9-1-.14-.37c-.12-.3-.25-.6-.38-.91l.91.41.36.16.31-.24.83-.65c0,.35-.09.7-.14,1.05l0,.39.32.22.81.58-1,.14-.39.06Z"/><path class="cls-35" d="M101.84,30.53l-.18-.91-.09-.4-.39-.09-.91-.2,1.14-.73,0-.39c0-.33-.07-.65-.11-1l.76.64.3.26.36-.15,1-.4-.42,1-.16.36.25.3q.32.38.63.78l-1-.14-.4,0Z"/><path class="cls-36" d="M109.74,41.65c0-.31.05-.62.07-.93l0-.4-.35-.2-.82-.44,1.29-.39.06-.39c.06-.32.11-.65.16-1l.56.82.22.33.39,0,1-.12-.66.82-.25.3.16.36.39.92-.9-.39-.37-.15Z"/><path class="cls-37" d="M116.66,54.77l-.77-.61-.31-.25-1.22.58c.11-.29.21-.59.31-.88l.14-.38-.29-.29-.67-.64,1.35,0,.17-.36c.13-.29.27-.59.4-.89l.33.94.12.37.39.06,1,.17-.86.61-.32.23.06.39C116.57,54.11,116.62,54.44,116.66,54.77Z"/><path class="cls-38" d="M117.47,69l-.57-.8-.23-.32-1.34.22.54-.75.23-.34-.2-.35c-.15-.27-.31-.53-.47-.8l1.31.34.26-.3.63-.75c0,.33,0,.67.06,1l0,.39.35.16,1,.44-1,.36-.37.13,0,.39C117.56,68.32,117.52,68.65,117.47,69Z"/></g><text class="cls-39" transform="translate(30.14 65.28) rotate(-1.79)">承襲德國<tspan x="0" y="22.4">百年工藝</tspan></text><path class="cls-40" d="M35.67,56.9a18.93,18.93,0,0,1-3.73,9.33L30.63,65A16.22,16.22,0,0,0,34,57L31.26,57l-.06-1.8,4.41-.13ZM40,61.72l3-.1.05,1.55-3,.1,0,1.41c.06,1.85-.58,2.08-2.44,2.34l-.92.12-.55-1.7,1-.1c1.11-.13,1.24-.27,1.21-1.07l0-.95-3.06.1,0-1.56,3.07-.09-.05-1.44L36,60.4,36,58.8l2.2-.07,0-1.31-2,.06-.05-1.6,2-.07,0-1.3c.39-.22,3.27-1.9,3.66-2l-8.87.28-.06-1.77,12.32-.39.06,1.66a55.36,55.36,0,0,0-5.35,2.94l0,.5,1.94-.06.05,1.61-1.94.06,0,1.3L42,58.61l0,1.6L40,60.28Zm7.93,2.59-1.28,1.46C44,63,42.43,60,41.76,54.56l1.58-.22c.12.95.28,1.77.45,2.57A18.3,18.3,0,0,0,46,54.76L47.26,56c-.89.83-2,1.86-3,2.66A12.79,12.79,0,0,0,47.93,64.31Z"/><path class="cls-41" d="M58.33,58.92l.49,1.33L65.43,60l0,1.22-2.2.06L64,62.39c-.57.3-1.44.73-2.25,1.11a22.67,22.67,0,0,0,4.14.94L65.36,66c-3.65-.67-6.28-1.69-8.19-3.78a18.8,18.8,0,0,1-1.84,1l.05,1.5,3.44-1,.07,1.51-5.3,1.48-.54-1.24c.56-.31.56-.59.55-.74l0-.68A39,39,0,0,1,49.9,65.4l-.57-1.47a30.87,30.87,0,0,0,6.23-2.36l-5.68.17,0-1.21L57,60.31l-.31-.93a3,3,0,0,1-1.24.32l-1.14.13-.46-1,.89-.12c.6-.08.67-.1.66-.53v-.22l-3.1.1,0,1.64-1.6,0-.18-5.53L56.85,54,57,58.42a1.28,1.28,0,0,1-.16.77l1.5-.29a1.48,1.48,0,0,1-.25-.87l-.15-4.72,4.69-.15,0-.58L58,52.73l-.11-3.46,1.57,0,0,1.08,5.16-.16,0,.91-5.15.17,0,.59,4.57-.14.07,2.17-4.68.14v.45L64,54.37l0,.8-4.46.14v.47L64,55.64l0,.8-4.46.14v.47l4.46-.14,0,.8-4.45.14c.07.3.19.46.63.47,1.05,0,2.1,0,3.16-.1.69,0,.72-.25.8-.61a1.56,1.56,0,0,0,.07-.32l1.49.41a1.74,1.74,0,0,1-.07.3c-.32,1-.62,1.21-2.11,1.31-1.13.08-2.27.11-3.39.11S58.64,59.3,58.33,58.92Zm-.69-5.51-8.25.26,0-1,2-.06-.27-1-1,0,0-1,2.78-.09c-.14-.35-.2-.65-.35-1l1.69-.29a10.39,10.39,0,0,1,.47,1.24l2.54-.08,0,1-1.1,0c-.08.32-.18.64-.27,1l1.8-.06ZM52.16,55l0,.6,3.09-.1v-.6Zm3.16,2,0-.58-3.1.1,0,.58Zm-2.78-5.44c.08.31.18.67.25,1l1.57,0a9.08,9.08,0,0,0,.27-1Zm10.15,9.75-4.26.14A6.56,6.56,0,0,0,60,62.72C60.89,62.3,62,61.76,62.69,61.34Z"/><path class="cls-42" d="M72.35,54.46a20.85,20.85,0,0,1-1.18,2.19l.28,9.05-1.72.06L69.52,59c-.48.6-.93,1.13-1.42,1.65l-1-1.42A27.16,27.16,0,0,0,71,53.59Zm.08-4.59a35,35,0,0,1-3.9,5.33l-1.15-1.42a24.28,24.28,0,0,0,3.56-4.88Zm-1,14.3a16.58,16.58,0,0,0,1.68-3.65l1.46.47a40.8,40.8,0,0,1-1.69,4Zm12.46-4.51-5.55.17c.49.53,1,1.14,1.49,1.67l-1.14,1.1c-.53-.73-1.53-1.84-2-2.36l.4-.37L72.17,60l0-1.51,11.69-.37Zm-7.12-9.39,0-1.45,1.77,0,0,1.38,4.81-.15,0,1.51-4.82.15,0,1.12,4.29-.13.14,4.4-10.3.32L72.59,53l4.23-.14,0-1.11-4.5.14-.05-1.52Zm-2.52,5.84,1.36,0-.06-1.81-1.36,0Zm5.55,6.08,1.47.37a9.16,9.16,0,0,1-.1,1c-.17,1-.46,1.47-1.84,1.61a20.43,20.43,0,0,1-2.59.08c-1.22,0-1.79-.36-1.83-1.63l-.09-3,1.53,0,.08,2.54c0,.5.07.55.65.59a9.7,9.7,0,0,0,1.87-.06c.52-.07.65-.2.73-.64A5.89,5.89,0,0,0,79.77,62.19Zm-2.75-8,0,1.81L78.49,56l-.06-1.81Zm4.36-.14-1.43,0,0,1.81,1.44,0Zm.73,6c.84,1.12,1.74,2.32,2.54,3.55l-1.29,1.07c-.79-1.25-1.71-2.64-2.55-3.75Z"/><path class="cls-43" d="M101.28,48.65l.5,16-1.72.06,0-.6-11.16.35,0,.61-1.72.06-.5-16.06ZM88.83,62.86l5-.15-1-1.32c.35-.21.62-.45.92-.66-1.42.23-3.74.64-4.48.81l-.2-1.47c1-.12,4.26-.71,5.3-.89l.14.89a7.09,7.09,0,0,0,.76-.79,18,18,0,0,1-.73-3.64l-.21-1.94L89,53.87l0-1.31,5.33-.16-.17-1.75,1.45-.1c.08.65.12,1.23.19,1.8l1.47,0a14.2,14.2,0,0,0-1.13-1l.85-1-8.48.26Zm5.27-4.1-4.44.13-.13-4.18L94,54.57Zm-1.45-2.84L91,56l0,1.58,1.68-.05Zm7.34,6.6-.38-12.29-2.56.08,1.61,1.33-.54.64,1.1,0,0,1.31-3.4.11c.08.5.07.93.14,1.43.13,1,.27,1.92.42,2.6A15.12,15.12,0,0,0,97.82,54l1.32.46A15.5,15.5,0,0,1,97,59.51c.08.22.18.42.27.63.21.42.39.54.59.54s.33-.22.44-.84c0-.32.08-.62.19-1.28l1.32.58a13.47,13.47,0,0,1-.37,1.79c-.27,1-.91,1.54-1.52,1.56s-1.06-.29-1.59-1.07l-.35-.61a14.49,14.49,0,0,1-2,1.9Z"/><path class="cls-44" d="M40.43,74.92c-.11.68-.29,1.49-.43,2.15l5.89-.19L46.27,89,44.44,89l0-1-8.72.27,0,1-1.84.06-.37-12.1L38,77.13c.18-.68.35-1.47.48-2.14l-6.76.21-.06-1.78,15.91-.49,0,1.77Zm3.69,3.83L35.4,79l.09,2.86,8.72-.27Zm.24,7.51-.09-2.88-8.72.27.09,2.88Z"/><path class="cls-45" d="M66.32,84.19l-6.59.2.12,4-1.79.06-.13-4-8.12.25-.05-1.77,2.63-.08-.15-5,5.48-.17L57.64,75l-3.9.12a29.72,29.72,0,0,1-3,4.09l-1.22-1.57a17.79,17.79,0,0,0,3.84-6.1l1.83.48-.54,1.29L65.11,73l0,1.77-5.73.18.09,2.72,5.24-.16.06,1.76-5.25.16.1,3.21,6.59-.21Zm-8.44-1.51-.1-3.21-3.66.11.1,3.21Z"/><path class="cls-46" d="M84.83,84.86l.06,1.85-16.24.51-.06-1.85,7.13-.23L75.39,74.6l-5.84.18-.06-2,13.7-.43.06,2-5.88.19.33,10.54Z"/><path class="cls-47" d="M91.35,73.22,87,73.36l0-1.23L91.32,72l0-1.34,1.72,0,0,1.27,3.16-.1,0-1.35,1.72,0,0,1.27,4.59-.15,0,1.23-4.6.15,0,.65-1.71,0,0-.65-3.16.1,0,.58-1.72,0Zm12.11,5.42a11.4,11.4,0,0,1-.3,1.59c-.21,1-.6,1.31-1.29,1.33s-1.37-.4-1.71-1.57a4.77,4.77,0,0,1-.18-1.11l-.54,1.23c-.46-.27-1-.53-1.49-.81a7,7,0,0,1-1.81,2.44L95,80.88v.24c-.76.1-7,.58-7.72.67l-.14-1.09,3.54-.32,0-.61-2.24.06,0-.89c-.35.16-.68.26-1,.4l-.39-1a19.09,19.09,0,0,0,2.38-1.07l-2.15.07,0-1,3.38-.1,0-.58-2.71.08,0-1,2.71-.09,0-.56,1.53,0,0,.48L95,74.47l0,1-2.89.09,0,.58,3.38-.1,0,1L94,77.1a14,14,0,0,1,1.7.68l-.45,1.08c-.87-.33-2.36-1-3.08-1.18l.19-.53-2,.07.3.6a13.52,13.52,0,0,1-1.89,1l1.94-.06,0-.84,1.57,0,0,.77,2.29-.07,0,1-2.29.08,0,.54L95,80v.69a5.36,5.36,0,0,0,1.61-2.09l-1-.49L96.11,77c.24.12.53.23.83.37a8.57,8.57,0,0,0,0-1.16l-1.33,0,0-1.33,1.33,0,0-.89,1.46,0,0,.83,2.78-.09.08,2.31a21.54,21.54,0,0,0,.24,2.45c.07.29.12.38.33.38s.29-.18.41-.76a8.22,8.22,0,0,0,.13-1ZM87.07,83.75l16-.5,0,1-4.54.14c1.21.58,2.47,1.27,3.44,1.82l-.73,1.27-1.38-.77c-2.08.06-8.62.41-11.1.64l-.4-1.29a8.8,8.8,0,0,0,1.3-.44,10.75,10.75,0,0,0,1.85-1l-4.46.14ZM101,81.63l0,1.08-11.93.38,0-1.09Zm-3.3,4c-.28-.14-.55-.24-.83-.36l.39-.75-3,.1A15.68,15.68,0,0,1,92,85.89ZM100,78.77c0-.53-.08-1.12-.1-1.7l0-1-1.42,0A11.68,11.68,0,0,1,98.32,78C99,78.25,99.5,78.52,100,78.77Z"/><polygon class="cls-48" points="64.1 38.32 59.48 41.43 60.67 35.98 56.28 32.54 61.83 31.99 63.74 26.76 65.98 31.86 71.55 32.07 67.39 35.77 68.91 41.13 64.1 38.32"/><polygon class="cls-49" points="80.86 38.64 77.68 40.78 78.5 37.04 75.49 34.68 79.3 34.3 80.61 30.71 82.15 34.21 85.97 34.35 83.11 36.9 84.16 40.58 80.86 38.64"/><polygon class="cls-50" points="47.4 39.69 44.22 41.82 45.04 38.09 42.03 35.72 45.84 35.35 47.15 31.75 48.69 35.26 52.51 35.4 49.65 37.94 50.7 41.62 47.4 39.69"/><polygon class="cls-51" points="66.91 98.08 63.58 96.13 64.64 99.84 61.76 102.4 65.61 102.54 67.16 106.08 68.48 102.45 72.32 102.07 69.29 99.69 70.11 95.92 66.91 98.08"/><polygon class="cls-52" points="78.47 97.13 76.18 95.79 76.91 98.34 74.93 100.1 77.58 100.19 78.64 102.62 79.55 100.13 82.19 99.87 80.1 98.24 80.67 95.65 78.47 97.13"/><polygon class="cls-53" points="55.31 97.85 53.03 96.51 53.75 99.06 51.77 100.82 54.42 100.92 55.48 103.34 56.39 100.86 59.03 100.59 56.95 98.96 57.51 96.37 55.31 97.85"/></g></g></g></svg>